<?xml version="1.0" encoding="utf-8" standalone="no"?>
<!DOCTYPE svg PUBLIC "-//W3C//DTD SVG 1.1//EN"
  "http://www.w3.org/Graphics/SVG/1.1/DTD/svg11.dtd">
<!-- Created with matplotlib (https://matplotlib.org/) -->
<svg height="180pt" version="1.1" viewBox="0 0 180 180" width="180pt" xmlns="http://www.w3.org/2000/svg" xmlns:xlink="http://www.w3.org/1999/xlink">
 <metadata>
  <rdf:RDF xmlns:cc="http://creativecommons.org/ns#" xmlns:dc="http://purl.org/dc/elements/1.1/" xmlns:rdf="http://www.w3.org/1999/02/22-rdf-syntax-ns#">
   <cc:Work>
    <dc:type rdf:resource="http://purl.org/dc/dcmitype/StillImage"/>
    <dc:date>2023-04-23T14:36:26.759271</dc:date>
    <dc:format>image/svg+xml</dc:format>
    <dc:creator>
     <cc:Agent>
      <dc:title>Matplotlib v3.3.2, https://matplotlib.org/</dc:title>
     </cc:Agent>
    </dc:creator>
   </cc:Work>
  </rdf:RDF>
 </metadata>
 <defs>
  <style type="text/css">*{stroke-linecap:butt;stroke-linejoin:round;}</style>
 </defs>
 <g id="figure_1">
  <g id="patch_1">
   <path d="M 0 180 
L 180 180 
L 180 0 
L 0 0 
z
" style="fill:#ffffff;"/>
  </g>
  <g id="axes_1">
   <g id="patch_2">
    <path d="M 41.05 69.6 
L 97.725 69.6 
L 97.725 23.8 
L 41.05 23.8 
z
" style="fill:#ffffff;"/>
   </g>
   <g id="matplotlib.axis_1">
    <g id="xtick_1">
     <g id="line2d_1">
      <defs>
       <path d="M 0 0 
L 0 4 
" id="m65112ce4df" style="stroke:#262626;stroke-width:0.8;"/>
      </defs>
      <g>
       <use style="fill:#262626;stroke:#262626;stroke-width:0.8;" x="43.626136" xlink:href="#m65112ce4df" y="69.6"/>
      </g>
     </g>
    </g>
    <g id="xtick_2">
     <g id="line2d_2">
      <g>
       <use style="fill:#262626;stroke:#262626;stroke-width:0.8;" x="55.515997" xlink:href="#m65112ce4df" y="69.6"/>
      </g>
     </g>
    </g>
    <g id="xtick_3">
     <g id="line2d_3">
      <g>
       <use style="fill:#262626;stroke:#262626;stroke-width:0.8;" x="67.405857" xlink:href="#m65112ce4df" y="69.6"/>
      </g>
     </g>
    </g>
    <g id="xtick_4">
     <g id="line2d_4">
      <g>
       <use style="fill:#262626;stroke:#262626;stroke-width:0.8;" x="79.295717" xlink:href="#m65112ce4df" y="69.6"/>
      </g>
     </g>
    </g>
    <g id="xtick_5">
     <g id="line2d_5">
      <g>
       <use style="fill:#262626;stroke:#262626;stroke-width:0.8;" x="91.185577" xlink:href="#m65112ce4df" y="69.6"/>
      </g>
     </g>
    </g>
   </g>
   <g id="matplotlib.axis_2">
    <g id="ytick_1">
     <g id="line2d_6">
      <defs>
       <path d="M 0 0 
L -4 0 
" id="m30ff62f947" style="stroke:#262626;stroke-width:0.8;"/>
      </defs>
      <g>
       <use style="fill:#262626;stroke:#262626;stroke-width:0.8;" x="41.05" xlink:href="#m30ff62f947" y="61.723477"/>
      </g>
     </g>
     <g id="text_1">
      <!-- 0.0 -->
      <g style="fill:#262626;" transform="translate(23.93 64.622227)scale(0.08 -0.08)">
       <defs>
        <path d="M 51.703125 34.421875 
Q 51.703125 24.515625 49.828125 17.75 
Q 47.953125 10.984375 44.703125 6.8125 
Q 41.453125 2.640625 37.0625 0.828125 
Q 32.671875 -0.984375 27.6875 -0.984375 
Q 22.65625 -0.984375 18.3125 0.828125 
Q 13.96875 2.640625 10.765625 6.78125 
Q 7.5625 10.9375 5.734375 17.703125 
Q 3.90625 24.46875 3.90625 34.421875 
Q 3.90625 44.828125 5.734375 51.640625 
Q 7.5625 58.453125 10.78125 62.5 
Q 14.015625 66.546875 18.40625 68.1875 
Q 22.796875 69.828125 27.984375 69.828125 
Q 32.90625 69.828125 37.21875 68.1875 
Q 41.546875 66.546875 44.765625 62.5 
Q 48 58.453125 49.84375 51.640625 
Q 51.703125 44.828125 51.703125 34.421875 
z
M 42.78125 34.421875 
Q 42.78125 42.625 41.796875 48.0625 
Q 40.828125 53.515625 38.921875 56.765625 
Q 37.015625 60.015625 34.25 61.359375 
Q 31.5 62.703125 27.984375 62.703125 
Q 24.265625 62.703125 21.4375 61.328125 
Q 18.609375 59.96875 16.671875 56.71875 
Q 14.75 53.46875 13.765625 48.015625 
Q 12.796875 42.578125 12.796875 34.421875 
Q 12.796875 26.515625 13.796875 21.09375 
Q 14.796875 15.671875 16.71875 12.375 
Q 18.65625 9.078125 21.4375 7.640625 
Q 24.21875 6.203125 27.78125 6.203125 
Q 31.25 6.203125 34.03125 7.640625 
Q 36.8125 9.078125 38.734375 12.375 
Q 40.671875 15.671875 41.71875 21.09375 
Q 42.78125 26.515625 42.78125 34.421875 
z
" id="LiberationSans-48"/>
        <path d="M 9.125 0 
L 9.125 10.6875 
L 18.65625 10.6875 
L 18.65625 0 
z
" id="LiberationSans-46"/>
       </defs>
       <use xlink:href="#LiberationSans-48"/>
       <use x="55.615234" xlink:href="#LiberationSans-46"/>
       <use x="83.398438" xlink:href="#LiberationSans-48"/>
      </g>
     </g>
    </g>
    <g id="ytick_2">
     <g id="line2d_7">
      <g>
       <use style="fill:#262626;stroke:#262626;stroke-width:0.8;" x="41.05" xlink:href="#m30ff62f947" y="44.916217"/>
      </g>
     </g>
     <g id="text_2">
      <!-- 0.5 -->
      <g style="fill:#262626;" transform="translate(23.93 47.814967)scale(0.08 -0.08)">
       <defs>
        <path d="M 51.421875 22.40625 
Q 51.421875 17.234375 49.859375 12.9375 
Q 48.296875 8.640625 45.21875 5.53125 
Q 42.140625 2.4375 37.578125 0.71875 
Q 33.015625 -0.984375 27 -0.984375 
Q 21.578125 -0.984375 17.546875 0.28125 
Q 13.53125 1.5625 10.734375 3.78125 
Q 7.953125 6 6.3125 8.984375 
Q 4.6875 11.96875 4 15.375 
L 12.890625 16.40625 
Q 13.421875 14.453125 14.390625 12.625 
Q 15.375 10.796875 17.0625 9.34375 
Q 18.75 7.90625 21.21875 7.046875 
Q 23.6875 6.203125 27.203125 6.203125 
Q 30.609375 6.203125 33.390625 7.25 
Q 36.1875 8.296875 38.15625 10.34375 
Q 40.140625 12.40625 41.203125 15.375 
Q 42.28125 18.359375 42.28125 22.21875 
Q 42.28125 25.390625 41.25 28.046875 
Q 40.234375 30.71875 38.328125 32.640625 
Q 36.421875 34.578125 33.65625 35.640625 
Q 30.90625 36.71875 27.390625 36.71875 
Q 25.203125 36.71875 23.34375 36.328125 
Q 21.484375 35.9375 19.890625 35.25 
Q 18.3125 34.578125 17.015625 33.671875 
Q 15.71875 32.765625 14.59375 31.78125 
L 6 31.78125 
L 8.296875 68.796875 
L 47.40625 68.796875 
L 47.40625 61.328125 
L 16.3125 61.328125 
L 14.984375 39.5 
Q 17.328125 41.3125 20.84375 42.59375 
Q 24.359375 43.890625 29.203125 43.890625 
Q 34.328125 43.890625 38.421875 42.328125 
Q 42.53125 40.765625 45.40625 37.90625 
Q 48.296875 35.0625 49.859375 31.109375 
Q 51.421875 27.15625 51.421875 22.40625 
z
" id="LiberationSans-53"/>
       </defs>
       <use xlink:href="#LiberationSans-48"/>
       <use x="55.615234" xlink:href="#LiberationSans-46"/>
       <use x="83.398438" xlink:href="#LiberationSans-53"/>
      </g>
     </g>
    </g>
    <g id="ytick_3">
     <g id="line2d_8">
      <g>
       <use style="fill:#262626;stroke:#262626;stroke-width:0.8;" x="41.05" xlink:href="#m30ff62f947" y="28.108958"/>
      </g>
     </g>
     <g id="text_3">
      <!-- 1.0 -->
      <g style="fill:#262626;" transform="translate(23.93 31.007708)scale(0.08 -0.08)">
       <defs>
        <path d="M 7.625 0 
L 7.625 7.46875 
L 25.140625 7.46875 
L 25.140625 60.40625 
L 9.625 49.3125 
L 9.625 57.625 
L 25.875 68.796875 
L 33.984375 68.796875 
L 33.984375 7.46875 
L 50.734375 7.46875 
L 50.734375 0 
z
" id="LiberationSans-49"/>
       </defs>
       <use xlink:href="#LiberationSans-49"/>
       <use x="55.615234" xlink:href="#LiberationSans-46"/>
       <use x="83.398438" xlink:href="#LiberationSans-48"/>
      </g>
     </g>
    </g>
    <g id="text_4">
     <!-- expr. norm. -->
     <g style="fill:#262626;" transform="translate(18.0625 69.207734)rotate(-90)scale(0.09 -0.09)">
      <defs>
       <path d="M 13.484375 24.5625 
Q 13.484375 20.40625 14.328125 16.90625 
Q 15.1875 13.421875 16.96875 10.90625 
Q 18.75 8.40625 21.53125 7 
Q 24.3125 5.609375 28.21875 5.609375 
Q 33.9375 5.609375 37.375 7.90625 
Q 40.828125 10.203125 42.046875 13.71875 
L 49.75 11.53125 
Q 48.921875 9.328125 47.4375 7.109375 
Q 45.953125 4.890625 43.453125 3.09375 
Q 40.96875 1.3125 37.234375 0.15625 
Q 33.5 -0.984375 28.21875 -0.984375 
Q 16.5 -0.984375 10.375 6 
Q 4.25 12.984375 4.25 26.765625 
Q 4.25 34.1875 6.09375 39.328125 
Q 7.953125 44.484375 11.171875 47.703125 
Q 14.40625 50.921875 18.703125 52.359375 
Q 23 53.8125 27.875 53.8125 
Q 34.515625 53.8125 38.984375 51.65625 
Q 43.453125 49.515625 46.15625 45.71875 
Q 48.875 41.9375 50.015625 36.8125 
Q 51.171875 31.6875 51.171875 25.734375 
L 51.171875 24.5625 
z
M 42.09375 31.296875 
Q 41.359375 39.65625 37.84375 43.484375 
Q 34.328125 47.3125 27.734375 47.3125 
Q 25.53125 47.3125 23.109375 46.609375 
Q 20.703125 45.90625 18.65625 44.09375 
Q 16.609375 42.28125 15.1875 39.171875 
Q 13.765625 36.078125 13.578125 31.296875 
z
" id="LiberationSans-101"/>
       <path d="M 39.109375 0 
L 24.90625 21.6875 
L 10.59375 0 
L 1.125 0 
L 19.921875 27.15625 
L 2 52.828125 
L 11.71875 52.828125 
L 24.90625 32.28125 
L 37.984375 52.828125 
L 47.796875 52.828125 
L 29.890625 27.25 
L 48.921875 0 
z
" id="LiberationSans-120"/>
       <path d="M 51.421875 26.65625 
Q 51.421875 20.65625 50.4375 15.578125 
Q 49.46875 10.5 47.1875 6.828125 
Q 44.921875 3.171875 41.1875 1.09375 
Q 37.453125 -0.984375 31.984375 -0.984375 
Q 26.3125 -0.984375 22.0625 1.171875 
Q 17.828125 3.328125 15.578125 8.203125 
L 15.328125 8.203125 
Q 15.375 8.109375 15.40625 7.328125 
Q 15.4375 6.546875 15.453125 5.375 
Q 15.484375 4.203125 15.5 2.75 
Q 15.53125 1.3125 15.53125 -0.09375 
L 15.53125 -20.75 
L 6.734375 -20.75 
L 6.734375 42.046875 
Q 6.734375 43.953125 6.703125 45.703125 
Q 6.6875 47.46875 6.640625 48.90625 
Q 6.59375 50.34375 6.546875 51.359375 
Q 6.5 52.390625 6.453125 52.828125 
L 14.9375 52.828125 
Q 14.984375 52.6875 15.0625 51.796875 
Q 15.140625 50.921875 15.203125 49.671875 
Q 15.28125 48.4375 15.359375 47.015625 
Q 15.4375 45.609375 15.4375 44.34375 
L 15.625 44.34375 
Q 16.84375 46.875 18.40625 48.65625 
Q 19.96875 50.4375 21.96875 51.578125 
Q 23.96875 52.734375 26.4375 53.25 
Q 28.90625 53.765625 31.984375 53.765625 
Q 37.453125 53.765625 41.1875 51.8125 
Q 44.921875 49.859375 47.1875 46.3125 
Q 49.46875 42.78125 50.4375 37.765625 
Q 51.421875 32.765625 51.421875 26.65625 
z
M 42.1875 26.46875 
Q 42.1875 31.34375 41.59375 35.15625 
Q 41.015625 38.96875 39.578125 41.59375 
Q 38.140625 44.234375 35.734375 45.59375 
Q 33.34375 46.96875 29.734375 46.96875 
Q 26.8125 46.96875 24.21875 46.140625 
Q 21.625 45.3125 19.703125 42.96875 
Q 17.78125 40.625 16.65625 36.5 
Q 15.53125 32.375 15.53125 25.78125 
Q 15.53125 20.171875 16.453125 16.28125 
Q 17.390625 12.40625 19.171875 10.015625 
Q 20.953125 7.625 23.578125 6.5625 
Q 26.21875 5.515625 29.640625 5.515625 
Q 33.296875 5.515625 35.71875 6.921875 
Q 38.140625 8.34375 39.578125 11.03125 
Q 41.015625 13.71875 41.59375 17.59375 
Q 42.1875 21.484375 42.1875 26.46875 
z
" id="LiberationSans-112"/>
       <path d="M 6.9375 0 
L 6.9375 40.53125 
Q 6.9375 42.1875 6.90625 43.921875 
Q 6.890625 45.65625 6.828125 47.265625 
Q 6.78125 48.875 6.734375 50.28125 
Q 6.6875 51.703125 6.640625 52.828125 
L 14.9375 52.828125 
Q 14.984375 51.703125 15.0625 50.265625 
Q 15.140625 48.828125 15.203125 47.3125 
Q 15.28125 45.796875 15.296875 44.40625 
Q 15.328125 43.015625 15.328125 42.046875 
L 15.53125 42.046875 
Q 16.453125 45.0625 17.5 47.28125 
Q 18.5625 49.515625 19.96875 50.953125 
Q 21.390625 52.390625 23.34375 53.09375 
Q 25.296875 53.8125 28.078125 53.8125 
Q 29.15625 53.8125 30.125 53.640625 
Q 31.109375 53.46875 31.640625 53.328125 
L 31.640625 45.265625 
Q 30.765625 45.515625 29.59375 45.625 
Q 28.421875 45.75 26.953125 45.75 
Q 23.921875 45.75 21.796875 44.375 
Q 19.671875 43.015625 18.328125 40.59375 
Q 17 38.1875 16.359375 34.84375 
Q 15.71875 31.5 15.71875 27.546875 
L 15.71875 0 
z
" id="LiberationSans-114"/>
       <path id="LiberationSans-32"/>
       <path d="M 40.28125 0 
L 40.28125 33.5 
Q 40.28125 37.359375 39.71875 39.9375 
Q 39.15625 42.53125 37.890625 44.109375 
Q 36.625 45.703125 34.546875 46.359375 
Q 32.46875 47.015625 29.390625 47.015625 
Q 26.265625 47.015625 23.75 45.921875 
Q 21.234375 44.828125 19.453125 42.75 
Q 17.671875 40.671875 16.6875 37.625 
Q 15.71875 34.578125 15.71875 30.609375 
L 15.71875 0 
L 6.9375 0 
L 6.9375 41.546875 
Q 6.9375 43.21875 6.90625 45.046875 
Q 6.890625 46.875 6.828125 48.5 
Q 6.78125 50.140625 6.734375 51.3125 
Q 6.6875 52.484375 6.640625 52.828125 
L 14.9375 52.828125 
Q 14.984375 52.59375 15.03125 51.515625 
Q 15.09375 50.4375 15.15625 49.046875 
Q 15.234375 47.65625 15.28125 46.21875 
Q 15.328125 44.78125 15.328125 43.796875 
L 15.484375 43.796875 
Q 16.75 46.09375 18.265625 47.953125 
Q 19.78125 49.8125 21.78125 51.09375 
Q 23.78125 52.390625 26.359375 53.09375 
Q 28.953125 53.8125 32.375 53.8125 
Q 36.765625 53.8125 39.9375 52.734375 
Q 43.109375 51.65625 45.15625 49.40625 
Q 47.21875 47.171875 48.171875 43.625 
Q 49.125 40.09375 49.125 35.203125 
L 49.125 0 
z
" id="LiberationSans-110"/>
       <path d="M 51.421875 26.46875 
Q 51.421875 12.59375 45.3125 5.796875 
Q 39.203125 -0.984375 27.59375 -0.984375 
Q 22.078125 -0.984375 17.71875 0.671875 
Q 13.375 2.34375 10.375 5.765625 
Q 7.375 9.1875 5.78125 14.328125 
Q 4.203125 19.484375 4.203125 26.46875 
Q 4.203125 53.8125 27.875 53.8125 
Q 34.03125 53.8125 38.5 52.09375 
Q 42.96875 50.390625 45.828125 46.96875 
Q 48.6875 43.5625 50.046875 38.421875 
Q 51.421875 33.296875 51.421875 26.46875 
z
M 42.1875 26.46875 
Q 42.1875 32.625 41.234375 36.625 
Q 40.28125 40.625 38.453125 43.015625 
Q 36.625 45.40625 33.984375 46.359375 
Q 31.34375 47.3125 28.03125 47.3125 
Q 24.65625 47.3125 21.9375 46.3125 
Q 19.234375 45.3125 17.328125 42.890625 
Q 15.4375 40.484375 14.421875 36.46875 
Q 13.421875 32.46875 13.421875 26.46875 
Q 13.421875 20.3125 14.5 16.28125 
Q 15.578125 12.25 17.453125 9.859375 
Q 19.34375 7.46875 21.90625 6.484375 
Q 24.46875 5.515625 27.484375 5.515625 
Q 30.859375 5.515625 33.59375 6.46875 
Q 36.328125 7.421875 38.234375 9.8125 
Q 40.140625 12.203125 41.15625 16.25 
Q 42.1875 20.3125 42.1875 26.46875 
z
" id="LiberationSans-111"/>
       <path d="M 37.5 0 
L 37.5 33.5 
Q 37.5 37.359375 37.015625 39.9375 
Q 36.53125 42.53125 35.375 44.109375 
Q 34.234375 45.703125 32.375 46.359375 
Q 30.515625 47.015625 27.828125 47.015625 
Q 25.046875 47.015625 22.796875 45.921875 
Q 20.5625 44.828125 18.96875 42.75 
Q 17.390625 40.671875 16.53125 37.625 
Q 15.671875 34.578125 15.671875 30.609375 
L 15.671875 0 
L 6.9375 0 
L 6.9375 41.546875 
Q 6.9375 43.21875 6.90625 45.046875 
Q 6.890625 46.875 6.828125 48.5 
Q 6.78125 50.140625 6.734375 51.3125 
Q 6.6875 52.484375 6.640625 52.828125 
L 14.9375 52.828125 
Q 14.984375 52.59375 15.03125 51.515625 
Q 15.09375 50.4375 15.15625 49.046875 
Q 15.234375 47.65625 15.28125 46.21875 
Q 15.328125 44.78125 15.328125 43.796875 
L 15.484375 43.796875 
Q 16.65625 46.09375 18.015625 47.953125 
Q 19.390625 49.8125 21.21875 51.09375 
Q 23.046875 52.390625 25.40625 53.09375 
Q 27.78125 53.8125 30.90625 53.8125 
Q 36.921875 53.8125 40.40625 51.421875 
Q 43.890625 49.03125 45.265625 43.796875 
L 45.40625 43.796875 
Q 46.578125 46.09375 48.046875 47.953125 
Q 49.515625 49.8125 51.46875 51.09375 
Q 53.421875 52.390625 55.859375 53.09375 
Q 58.296875 53.8125 61.421875 53.8125 
Q 65.4375 53.8125 68.328125 52.734375 
Q 71.234375 51.65625 73.09375 49.40625 
Q 74.953125 47.171875 75.828125 43.625 
Q 76.703125 40.09375 76.703125 35.203125 
L 76.703125 0 
L 68.015625 0 
L 68.015625 33.5 
Q 68.015625 37.359375 67.53125 39.9375 
Q 67.046875 42.53125 65.890625 44.109375 
Q 64.75 45.703125 62.890625 46.359375 
Q 61.03125 47.015625 58.34375 47.015625 
Q 55.5625 47.015625 53.3125 45.96875 
Q 51.078125 44.921875 49.484375 42.875 
Q 47.90625 40.828125 47.046875 37.75 
Q 46.1875 34.671875 46.1875 30.609375 
L 46.1875 0 
z
" id="LiberationSans-109"/>
      </defs>
      <use xlink:href="#LiberationSans-101"/>
      <use x="55.615234" xlink:href="#LiberationSans-120"/>
      <use x="105.615234" xlink:href="#LiberationSans-112"/>
      <use x="161.230469" xlink:href="#LiberationSans-114"/>
      <use x="189.03125" xlink:href="#LiberationSans-46"/>
      <use x="216.814453" xlink:href="#LiberationSans-32"/>
      <use x="244.597656" xlink:href="#LiberationSans-110"/>
      <use x="300.212891" xlink:href="#LiberationSans-111"/>
      <use x="355.828125" xlink:href="#LiberationSans-114"/>
      <use x="389.128906" xlink:href="#LiberationSans-109"/>
      <use x="472.429688" xlink:href="#LiberationSans-46"/>
     </g>
    </g>
   </g>
   <g id="patch_3">
    <path d="M 41.05 69.6 
L 41.05 23.8 
" style="fill:none;stroke:#262626;stroke-linecap:square;stroke-linejoin:miter;"/>
   </g>
   <g id="patch_4">
    <path d="M 97.725 69.6 
L 97.725 23.8 
" style="fill:none;stroke:#262626;stroke-linecap:square;stroke-linejoin:miter;"/>
   </g>
   <g id="patch_5">
    <path d="M 41.05 69.6 
L 97.725 69.6 
" style="fill:none;stroke:#262626;stroke-linecap:square;stroke-linejoin:miter;"/>
   </g>
   <g id="patch_6">
    <path d="M 41.05 23.8 
L 97.725 23.8 
" style="fill:none;stroke:#262626;stroke-linecap:square;stroke-linejoin:miter;"/>
   </g>
   <g id="text_5">
    <!-- Sdf2l1 -->
    <g style="fill:#262626;" transform="translate(56.628594 17.8)scale(0.09 -0.09)">
     <defs>
      <path d="M 30.078125 -0.984375 
Q 23.734375 -0.984375 18.96875 0.15625 
Q 14.203125 1.3125 10.875 3.53125 
Q 7.5625 5.765625 5.578125 9 
Q 3.609375 12.25 2.828125 16.5 
L 11.46875 18.3125 
Q 12.109375 15.28125 13.46875 13.03125 
Q 14.84375 10.796875 17.140625 9.296875 
Q 19.4375 7.8125 22.796875 7.078125 
Q 26.171875 6.34375 30.765625 6.34375 
Q 35.546875 6.34375 39.359375 7 
Q 43.171875 7.671875 45.828125 9.203125 
Q 48.484375 10.75 49.890625 13.203125 
Q 51.3125 15.671875 51.3125 19.34375 
Q 51.3125 21.828125 50.484375 23.578125 
Q 49.65625 25.34375 47.609375 26.734375 
Q 45.5625 28.125 42.0625 29.359375 
Q 38.578125 30.609375 33.296875 32.078125 
Q 29 33.25 25.21875 34.6875 
Q 21.4375 36.140625 18.59375 38.25 
Q 15.765625 40.375 14.109375 43.40625 
Q 12.453125 46.4375 12.453125 50.828125 
Q 12.453125 55.953125 14.765625 59.546875 
Q 17.09375 63.140625 20.96875 65.421875 
Q 24.859375 67.71875 29.859375 68.765625 
Q 34.859375 69.828125 40.234375 69.828125 
Q 46.140625 69.828125 50.5625 68.75 
Q 54.984375 67.671875 58.078125 65.734375 
Q 61.1875 63.8125 63.03125 61.125 
Q 64.890625 58.453125 65.625 55.28125 
L 57.171875 52.78125 
Q 56.453125 55.125 55.125 56.984375 
Q 53.8125 58.84375 51.75 60.125 
Q 49.703125 61.421875 46.84375 62.109375 
Q 44 62.796875 40.1875 62.796875 
Q 35.109375 62.796875 31.609375 61.9375 
Q 28.125 61.078125 25.953125 59.546875 
Q 23.78125 58.015625 22.796875 55.890625 
Q 21.828125 53.765625 21.828125 51.265625 
Q 21.828125 48.640625 22.828125 46.90625 
Q 23.828125 45.171875 25.875 43.9375 
Q 27.9375 42.71875 31.078125 41.71875 
Q 34.234375 40.71875 38.53125 39.546875 
Q 42.78125 38.375 46.796875 36.953125 
Q 50.828125 35.546875 53.953125 33.375 
Q 57.078125 31.203125 58.953125 27.96875 
Q 60.84375 24.75 60.84375 19.921875 
Q 60.84375 9.859375 53.265625 4.4375 
Q 45.703125 -0.984375 30.078125 -0.984375 
z
" id="LiberationSans-Italic-83"/>
      <path d="M 19.578125 -1.03125 
Q 15.671875 -1.03125 12.640625 0.1875 
Q 9.625 1.421875 7.5625 3.65625 
Q 5.515625 5.90625 4.4375 9.109375 
Q 3.375 12.3125 3.375 16.265625 
Q 3.375 18.453125 3.59375 21.484375 
Q 3.8125 24.515625 4.390625 27.59375 
Q 5.71875 34.515625 7.859375 39.46875 
Q 10.015625 44.4375 13.03125 47.609375 
Q 16.0625 50.78125 19.96875 52.265625 
Q 23.875 53.765625 28.71875 53.765625 
Q 34.71875 53.765625 38.5 51.21875 
Q 42.28125 48.6875 43.84375 44.09375 
L 44.09375 44.09375 
Q 44.1875 44.578125 44.375 45.703125 
Q 44.578125 46.828125 44.796875 48.0625 
Q 45.015625 49.3125 45.203125 50.4375 
Q 45.40625 51.5625 45.453125 52 
L 49.46875 72.46875 
L 58.25 72.46875 
L 46.296875 10.890625 
Q 45.90625 8.984375 45.578125 7.21875 
Q 45.265625 5.46875 45.015625 4 
Q 44.78125 2.546875 44.625 1.484375 
Q 44.484375 0.4375 44.4375 0 
L 36.03125 0 
Q 36.03125 0.984375 36.296875 3.125 
Q 36.578125 5.28125 37.0625 7.8125 
L 36.8125 7.8125 
Q 35.0625 5.515625 33.21875 3.859375 
Q 31.390625 2.203125 29.34375 1.09375 
Q 27.296875 0 24.90625 -0.515625 
Q 22.515625 -1.03125 19.578125 -1.03125 
z
M 22.125 5.765625 
Q 25.25 5.765625 28.046875 6.6875 
Q 30.859375 7.625 33.25 9.890625 
Q 35.640625 12.15625 37.46875 16.015625 
Q 39.3125 19.875 40.4375 25.734375 
Q 41.359375 30.515625 41.359375 34.375 
Q 41.359375 37.546875 40.53125 39.9375 
Q 39.703125 42.328125 38.15625 43.96875 
Q 36.625 45.609375 34.453125 46.4375 
Q 32.28125 47.265625 29.640625 47.265625 
Q 26.65625 47.265625 24.1875 46.359375 
Q 21.734375 45.453125 19.75 43.234375 
Q 17.78125 41.015625 16.28125 37.28125 
Q 14.796875 33.546875 13.671875 27.875 
Q 12.546875 21.96875 12.546875 17.828125 
Q 12.546875 11.8125 14.84375 8.78125 
Q 17.140625 5.765625 22.125 5.765625 
z
" id="LiberationSans-Italic-100"/>
      <path d="M 21.1875 46.4375 
L 12.15625 0 
L 3.375 0 
L 12.40625 46.4375 
L 4.984375 46.4375 
L 6.25 52.828125 
L 13.671875 52.828125 
L 14.796875 58.796875 
Q 15.375 61.671875 16.296875 64.15625 
Q 17.234375 66.65625 18.96875 68.5 
Q 20.703125 70.359375 23.4375 71.40625 
Q 26.171875 72.46875 30.375 72.46875 
Q 31.9375 72.46875 33.5625 72.3125 
Q 35.203125 72.171875 36.421875 71.875 
L 35.15625 65.1875 
Q 34.71875 65.28125 34.15625 65.328125 
Q 33.59375 65.375 32.953125 65.453125 
Q 32.328125 65.53125 31.734375 65.546875 
Q 31.15625 65.578125 30.71875 65.578125 
Q 28.859375 65.578125 27.609375 65.03125 
Q 26.375 64.5 25.5625 63.46875 
Q 24.75 62.453125 24.265625 60.953125 
Q 23.78125 59.46875 23.390625 57.5625 
L 22.46875 52.828125 
L 32.765625 52.828125 
L 31.5 46.4375 
z
" id="LiberationSans-Italic-102"/>
      <path d="M -0.59375 0 
L 0.59375 6.203125 
Q 3.265625 10.75 6.578125 14.3125 
Q 9.90625 17.875 13.515625 20.78125 
Q 17.140625 23.6875 20.875 26.078125 
Q 24.609375 28.46875 28.09375 30.6875 
Q 31.59375 32.90625 34.640625 35.109375 
Q 37.703125 37.3125 39.984375 39.796875 
Q 42.28125 42.28125 43.59375 45.234375 
Q 44.921875 48.1875 44.921875 51.90625 
Q 44.921875 54.390625 44.09375 56.359375 
Q 43.265625 58.34375 41.765625 59.734375 
Q 40.28125 61.140625 38.203125 61.859375 
Q 36.140625 62.59375 33.640625 62.59375 
Q 28.328125 62.59375 24.359375 59.6875 
Q 20.40625 56.78125 18.609375 50.984375 
L 10.296875 52.78125 
Q 11.46875 56.5 13.46875 59.625 
Q 15.484375 62.75 18.40625 65.015625 
Q 21.34375 67.28125 25.265625 68.546875 
Q 29.203125 69.828125 34.1875 69.828125 
Q 38.53125 69.828125 42.1875 68.609375 
Q 45.84375 67.390625 48.5 65.109375 
Q 51.171875 62.84375 52.65625 59.6875 
Q 54.15625 56.546875 54.15625 52.640625 
Q 54.15625 48.484375 52.703125 44.96875 
Q 51.265625 41.453125 48.828125 38.453125 
Q 46.390625 35.453125 43.15625 32.8125 
Q 39.9375 30.171875 36.375 27.734375 
Q 32.8125 25.296875 29.09375 22.953125 
Q 25.390625 20.609375 21.96875 18.15625 
Q 18.5625 15.71875 15.671875 13.109375 
Q 12.796875 10.5 10.84375 7.46875 
L 46.34375 7.46875 
L 44.921875 0 
z
" id="LiberationSans-Italic-50"/>
      <path d="M 1.609375 0 
L 15.671875 72.46875 
L 24.46875 72.46875 
L 10.359375 0 
z
" id="LiberationSans-Italic-108"/>
      <path d="M 2.59375 0 
L 4.046875 7.46875 
L 21.578125 7.46875 
L 31.734375 59.71875 
L 14.109375 48.828125 
L 15.828125 57.625 
L 34.234375 68.796875 
L 42.328125 68.796875 
L 30.421875 7.46875 
L 47.171875 7.46875 
L 45.703125 0 
z
" id="LiberationSans-Italic-49"/>
     </defs>
     <use xlink:href="#LiberationSans-Italic-83"/>
     <use x="66.699219" xlink:href="#LiberationSans-Italic-100"/>
     <use x="122.314453" xlink:href="#LiberationSans-Italic-102"/>
     <use x="150.097656" xlink:href="#LiberationSans-Italic-50"/>
     <use x="205.712891" xlink:href="#LiberationSans-Italic-108"/>
     <use x="227.929688" xlink:href="#LiberationSans-Italic-49"/>
    </g>
   </g>
   <g id="line2d_9">
    <path clip-path="url(#p8f046f5624)" d="M 43.626136 61.723477 
L 44.146568 60.182672 
L 44.667 58.712493 
L 45.187431 57.309704 
L 45.707863 55.971215 
L 46.228294 54.694079 
L 46.748726 53.475484 
L 47.269157 52.312746 
L 47.789589 51.203305 
L 48.310021 50.144718 
L 48.830452 49.134654 
L 49.350884 48.170889 
L 49.871315 47.2513 
L 50.391747 46.373863 
L 50.912179 45.536646 
L 51.43261 44.737804 
L 51.953042 43.975579 
L 52.473473 43.248293 
L 52.993905 42.554344 
L 53.514337 41.892204 
L 54.034768 41.260414 
L 54.5552 40.657585 
L 55.075631 40.082387 
L 55.596063 39.533555 
L 56.116494 39.00988 
L 56.636926 38.510209 
L 57.157358 38.033442 
L 57.677789 37.578528 
L 58.198221 37.144467 
L 58.718652 36.730302 
L 59.239084 36.335121 
L 59.759516 35.958054 
L 60.279947 35.598272 
L 60.800379 35.25498 
L 61.32081 34.927424 
L 61.841242 34.614883 
L 62.361674 34.316668 
L 62.882105 34.032122 
L 63.402537 33.760619 
L 63.922968 33.501561 
L 64.4434 33.254378 
L 64.963831 33.018524 
L 65.484263 32.793482 
L 66.004695 32.578755 
L 66.525126 32.373871 
L 67.045558 32.178378 
L 67.565989 31.991846 
L 68.086421 31.813864 
L 68.606853 31.644041 
L 69.127284 31.482001 
L 69.647716 31.327389 
L 70.168147 31.179865 
L 70.688579 31.039102 
L 71.209011 30.904791 
L 71.729442 30.776637 
L 72.249874 30.654358 
L 72.770305 30.537683 
L 73.290737 30.426356 
L 73.811169 30.320133 
L 74.3316 30.218778 
L 74.852032 30.122069 
L 75.372463 30.029793 
L 75.892895 29.941747 
L 76.413326 29.857736 
L 76.933758 29.777577 
L 77.45419 29.701091 
L 77.974621 29.628112 
L 78.495053 29.558478 
L 79.015484 29.492035 
L 79.535916 29.428639 
L 80.056348 29.368148 
L 80.576779 29.31043 
L 81.097211 29.255357 
L 81.617642 29.202809 
L 82.138074 29.15267 
L 82.658506 29.104829 
L 83.178937 29.05918 
L 83.699369 29.015625 
L 84.2198 28.974065 
L 84.740232 28.934411 
L 85.260663 28.896574 
L 85.781095 28.860472 
L 86.301527 28.826024 
L 86.821958 28.793156 
L 87.34239 28.761794 
L 87.862821 28.731869 
L 88.383253 28.703317 
L 88.903685 28.676073 
L 89.424116 28.650078 
L 89.944548 28.625274 
L 90.464979 28.601607 
L 90.985411 28.579026 
L 91.505843 28.557479 
L 92.026274 28.53692 
L 92.546706 28.517303 
L 93.067137 28.498586 
L 93.587569 28.480726 
L 94.108 28.463685 
L 94.628432 28.447425 
L 95.148864 28.431911 
" style="fill:none;stroke:#2ca02c;stroke-linecap:round;stroke-width:2;"/>
   </g>
   <g id="PathCollection_1">
    <defs>
     <path d="M 0 1.581139 
C 0.419323 1.581139 0.821528 1.41454 1.118034 1.118034 
C 1.41454 0.821528 1.581139 0.419323 1.581139 0 
C 1.581139 -0.419323 1.41454 -0.821528 1.118034 -1.118034 
C 0.821528 -1.41454 0.419323 -1.581139 0 -1.581139 
C -0.419323 -1.581139 -0.821528 -1.41454 -1.118034 -1.118034 
C -1.41454 -0.821528 -1.581139 -0.419323 -1.581139 0 
C -1.581139 0.419323 -1.41454 0.821528 -1.118034 1.118034 
C -0.821528 1.41454 -0.419323 1.581139 0 1.581139 
z
" id="m3f40adc6fd" style="stroke:#ffffff;stroke-width:0.252982;"/>
    </defs>
    <g clip-path="url(#p8f046f5624)">
     <use style="stroke:#ffffff;stroke-width:0.252982;" x="43.626136" xlink:href="#m3f40adc6fd" y="61.723477"/>
     <use style="stroke:#ffffff;stroke-width:0.252982;" x="43.626136" xlink:href="#m3f40adc6fd" y="61.723477"/>
     <use style="stroke:#ffffff;stroke-width:0.252982;" x="52.543531" xlink:href="#m3f40adc6fd" y="36.590862"/>
     <use style="stroke:#ffffff;stroke-width:0.252982;" x="52.543531" xlink:href="#m3f40adc6fd" y="36.590862"/>
     <use style="stroke:#ffffff;stroke-width:0.252982;" x="55.515997" xlink:href="#m3f40adc6fd" y="33.160276"/>
     <use style="stroke:#ffffff;stroke-width:0.252982;" x="55.515997" xlink:href="#m3f40adc6fd" y="33.160276"/>
     <use style="stroke:#ffffff;stroke-width:0.252982;" x="67.405857" xlink:href="#m3f40adc6fd" y="32.514968"/>
     <use style="stroke:#ffffff;stroke-width:0.252982;" x="67.405857" xlink:href="#m3f40adc6fd" y="32.514968"/>
     <use style="stroke:#ffffff;stroke-width:0.252982;" x="46.598601" xlink:href="#m3f40adc6fd" y="62.761397"/>
     <use style="stroke:#ffffff;stroke-width:0.252982;" x="46.598601" xlink:href="#m3f40adc6fd" y="62.761397"/>
     <use style="stroke:#ffffff;stroke-width:0.252982;" x="85.240647" xlink:href="#m3f40adc6fd" y="28.108958"/>
    </g>
   </g>
   <g id="LineCollection_1">
    <path clip-path="url(#p8f046f5624)" d="M 43.626136 63.06679 
L 43.626136 60.380164 
" style="fill:none;stroke:#000000;"/>
    <path clip-path="url(#p8f046f5624)" d="M 43.626136 63.06679 
L 43.626136 60.380164 
" style="fill:none;stroke:#000000;"/>
    <path clip-path="url(#p8f046f5624)" d="M 52.543531 45.074235 
L 52.543531 28.107489 
" style="fill:none;stroke:#000000;"/>
    <path clip-path="url(#p8f046f5624)" d="M 52.543531 45.074235 
L 52.543531 28.107489 
" style="fill:none;stroke:#000000;"/>
    <path clip-path="url(#p8f046f5624)" d="M 55.515997 40.438735 
L 55.515997 25.881818 
" style="fill:none;stroke:#000000;"/>
    <path clip-path="url(#p8f046f5624)" d="M 55.515997 40.438735 
L 55.515997 25.881818 
" style="fill:none;stroke:#000000;"/>
    <path clip-path="url(#p8f046f5624)" d="M 67.405857 34.146915 
L 67.405857 30.88302 
" style="fill:none;stroke:#000000;"/>
    <path clip-path="url(#p8f046f5624)" d="M 67.405857 34.146915 
L 67.405857 30.88302 
" style="fill:none;stroke:#000000;"/>
    <path clip-path="url(#p8f046f5624)" d="M 46.598601 67.518182 
L 46.598601 58.004611 
" style="fill:none;stroke:#000000;"/>
    <path clip-path="url(#p8f046f5624)" d="M 46.598601 67.518182 
L 46.598601 58.004611 
" style="fill:none;stroke:#000000;"/>
    <path clip-path="url(#p8f046f5624)" d="M 85.240647 29.318579 
L 85.240647 26.899337 
" style="fill:none;stroke:#000000;"/>
   </g>
   <g id="line2d_10">
    <defs>
     <path d="M 2 0 
L -2 -0 
" id="m643486bbb8" style="stroke:#000000;"/>
    </defs>
    <g clip-path="url(#p8f046f5624)">
     <use style="stroke:#000000;" x="43.626136" xlink:href="#m643486bbb8" y="63.06679"/>
     <use style="stroke:#000000;" x="43.626136" xlink:href="#m643486bbb8" y="63.06679"/>
     <use style="stroke:#000000;" x="52.543531" xlink:href="#m643486bbb8" y="45.074235"/>
     <use style="stroke:#000000;" x="52.543531" xlink:href="#m643486bbb8" y="45.074235"/>
     <use style="stroke:#000000;" x="55.515997" xlink:href="#m643486bbb8" y="40.438735"/>
     <use style="stroke:#000000;" x="55.515997" xlink:href="#m643486bbb8" y="40.438735"/>
     <use style="stroke:#000000;" x="67.405857" xlink:href="#m643486bbb8" y="34.146915"/>
     <use style="stroke:#000000;" x="67.405857" xlink:href="#m643486bbb8" y="34.146915"/>
     <use style="stroke:#000000;" x="46.598601" xlink:href="#m643486bbb8" y="67.518182"/>
     <use style="stroke:#000000;" x="46.598601" xlink:href="#m643486bbb8" y="67.518182"/>
     <use style="stroke:#000000;" x="85.240647" xlink:href="#m643486bbb8" y="29.318579"/>
    </g>
   </g>
   <g id="line2d_11">
    <g clip-path="url(#p8f046f5624)">
     <use style="stroke:#000000;" x="43.626136" xlink:href="#m643486bbb8" y="60.380164"/>
     <use style="stroke:#000000;" x="43.626136" xlink:href="#m643486bbb8" y="60.380164"/>
     <use style="stroke:#000000;" x="52.543531" xlink:href="#m643486bbb8" y="28.107489"/>
     <use style="stroke:#000000;" x="52.543531" xlink:href="#m643486bbb8" y="28.107489"/>
     <use style="stroke:#000000;" x="55.515997" xlink:href="#m643486bbb8" y="25.881818"/>
     <use style="stroke:#000000;" x="55.515997" xlink:href="#m643486bbb8" y="25.881818"/>
     <use style="stroke:#000000;" x="67.405857" xlink:href="#m643486bbb8" y="30.88302"/>
     <use style="stroke:#000000;" x="67.405857" xlink:href="#m643486bbb8" y="30.88302"/>
     <use style="stroke:#000000;" x="46.598601" xlink:href="#m643486bbb8" y="58.004611"/>
     <use style="stroke:#000000;" x="46.598601" xlink:href="#m643486bbb8" y="58.004611"/>
     <use style="stroke:#000000;" x="85.240647" xlink:href="#m643486bbb8" y="26.899337"/>
    </g>
   </g>
  </g>
  <g id="axes_2">
   <g id="patch_7">
    <path d="M 112.525 69.6 
L 169.2 69.6 
L 169.2 23.8 
L 112.525 23.8 
z
" style="fill:#ffffff;"/>
   </g>
   <g id="matplotlib.axis_3">
    <g id="xtick_6">
     <g id="line2d_12">
      <g>
       <use style="fill:#262626;stroke:#262626;stroke-width:0.8;" x="115.101136" xlink:href="#m65112ce4df" y="69.6"/>
      </g>
     </g>
    </g>
    <g id="xtick_7">
     <g id="line2d_13">
      <g>
       <use style="fill:#262626;stroke:#262626;stroke-width:0.8;" x="126.990997" xlink:href="#m65112ce4df" y="69.6"/>
      </g>
     </g>
    </g>
    <g id="xtick_8">
     <g id="line2d_14">
      <g>
       <use style="fill:#262626;stroke:#262626;stroke-width:0.8;" x="138.880857" xlink:href="#m65112ce4df" y="69.6"/>
      </g>
     </g>
    </g>
    <g id="xtick_9">
     <g id="line2d_15">
      <g>
       <use style="fill:#262626;stroke:#262626;stroke-width:0.8;" x="150.770717" xlink:href="#m65112ce4df" y="69.6"/>
      </g>
     </g>
    </g>
    <g id="xtick_10">
     <g id="line2d_16">
      <g>
       <use style="fill:#262626;stroke:#262626;stroke-width:0.8;" x="162.660577" xlink:href="#m65112ce4df" y="69.6"/>
      </g>
     </g>
    </g>
   </g>
   <g id="matplotlib.axis_4">
    <g id="ytick_4">
     <g id="line2d_17">
      <g>
       <use style="fill:#262626;stroke:#262626;stroke-width:0.8;" x="112.525" xlink:href="#m30ff62f947" y="63.746422"/>
      </g>
     </g>
    </g>
    <g id="ytick_5">
     <g id="line2d_18">
      <g>
       <use style="fill:#262626;stroke:#262626;stroke-width:0.8;" x="112.525" xlink:href="#m30ff62f947" y="45.805632"/>
      </g>
     </g>
    </g>
    <g id="ytick_6">
     <g id="line2d_19">
      <g>
       <use style="fill:#262626;stroke:#262626;stroke-width:0.8;" x="112.525" xlink:href="#m30ff62f947" y="27.864841"/>
      </g>
     </g>
    </g>
   </g>
   <g id="patch_8">
    <path d="M 112.525 69.6 
L 112.525 23.8 
" style="fill:none;stroke:#262626;stroke-linecap:square;stroke-linejoin:miter;"/>
   </g>
   <g id="patch_9">
    <path d="M 169.2 69.6 
L 169.2 23.8 
" style="fill:none;stroke:#262626;stroke-linecap:square;stroke-linejoin:miter;"/>
   </g>
   <g id="patch_10">
    <path d="M 112.525 69.6 
L 169.2 69.6 
" style="fill:none;stroke:#262626;stroke-linecap:square;stroke-linejoin:miter;"/>
   </g>
   <g id="patch_11">
    <path d="M 112.525 23.8 
L 169.2 23.8 
" style="fill:none;stroke:#262626;stroke-linecap:square;stroke-linejoin:miter;"/>
   </g>
   <g id="line2d_20">
    <path clip-path="url(#pf9296fa2c7)" d="M 115.101136 63.746422 
L 115.621568 63.746422 
L 116.142 63.746422 
L 116.662431 63.746422 
L 117.182863 63.746422 
L 117.703294 63.746422 
L 118.223726 63.746422 
L 118.744157 63.746422 
L 119.264589 63.746422 
L 119.785021 63.746422 
L 120.305452 63.746422 
L 120.825884 63.746422 
L 121.346315 63.746422 
L 121.866747 63.746422 
L 122.387179 63.746422 
L 122.90761 63.746422 
L 123.428042 63.746422 
L 123.948473 63.746422 
L 124.468905 63.746422 
L 124.989337 63.746422 
L 125.509768 63.746422 
L 126.0302 63.74642 
L 126.550631 63.746414 
L 127.071063 63.746391 
L 127.591494 63.746321 
L 128.111926 63.746122 
L 128.632358 63.745602 
L 129.152789 63.744341 
L 129.673221 63.741491 
L 130.193652 63.735466 
L 130.714084 63.723482 
L 131.234516 63.700975 
L 131.754947 63.660913 
L 132.275379 63.593104 
L 132.79581 63.483633 
L 133.316242 63.314602 
L 133.836674 63.064346 
L 134.357105 62.708254 
L 134.877537 62.22025 
L 135.397968 61.57486 
L 135.9184 60.749683 
L 136.438831 59.727975 
L 136.959263 58.50099 
L 137.479695 57.06975 
L 138.000126 55.445953 
L 138.520558 53.651869 
L 139.040989 51.719214 
L 139.561421 49.687121 
L 140.081853 47.59948 
L 140.602284 45.501941 
L 141.122716 43.438944 
L 141.643147 41.451058 
L 142.163579 39.572882 
L 142.684011 37.831635 
L 143.204442 36.246472 
L 143.724874 34.828497 
L 144.245305 33.581342 
L 144.765737 32.502166 
L 145.286169 31.582922 
L 145.8066 30.811714 
L 146.327032 30.17413 
L 146.847463 29.654443 
L 147.367895 29.236628 
L 147.888326 28.905148 
L 148.408758 28.645523 
L 148.92919 28.444696 
L 149.449621 28.291216 
L 149.970053 28.175286 
L 150.490484 28.088708 
L 151.010916 28.024761 
L 151.531348 27.978032 
L 152.051779 27.944238 
L 152.572211 27.920045 
L 153.092642 27.902894 
L 153.613074 27.890852 
L 154.133506 27.882475 
L 154.653937 27.876699 
L 155.174369 27.872753 
L 155.6948 27.87008 
L 156.215232 27.868283 
L 156.735663 27.867086 
L 157.256095 27.866295 
L 157.776527 27.865776 
L 158.296958 27.865438 
L 158.81739 27.86522 
L 159.337821 27.86508 
L 159.858253 27.86499 
L 160.378685 27.864934 
L 160.899116 27.864898 
L 161.419548 27.864876 
L 161.939979 27.864862 
L 162.460411 27.864854 
L 162.980843 27.864849 
L 163.501274 27.864845 
L 164.021706 27.864844 
L 164.542137 27.864842 
L 165.062569 27.864842 
L 165.583 27.864841 
L 166.103432 27.864841 
L 166.623864 27.864841 
" style="fill:none;stroke:#1f77b4;stroke-linecap:round;stroke-width:2;"/>
   </g>
   <g id="text_6">
    <!-- Alox12 -->
    <g style="fill:#262626;" transform="translate(127.10375 17.8)scale(0.09 -0.09)">
     <defs>
      <path d="M 51.8125 0 
L 48.140625 20.125 
L 16.9375 20.125 
L 5.21875 0 
L -4.9375 0 
L 36.46875 68.796875 
L 47.078125 68.796875 
L 61.328125 0 
z
M 42.53125 50.484375 
Q 42.140625 52.484375 41.765625 54.390625 
Q 41.40625 56.296875 41.15625 57.875 
Q 40.921875 59.46875 40.75 60.515625 
Q 40.578125 61.578125 40.53125 61.765625 
Q 40.4375 61.578125 39.875 60.5 
Q 39.3125 59.421875 38.421875 57.828125 
Q 37.546875 56.25 36.46875 54.3125 
Q 35.40625 52.390625 34.234375 50.4375 
L 21.046875 27.390625 
L 46.78125 27.390625 
z
" id="LiberationSans-Italic-65"/>
      <path d="M 52.4375 33.34375 
Q 52.4375 30.8125 52.140625 28.25 
Q 51.859375 25.6875 51.171875 22.796875 
Q 49.703125 16.359375 47.09375 11.8125 
Q 44.484375 7.28125 40.96875 4.4375 
Q 37.453125 1.609375 33.15625 0.3125 
Q 28.859375 -0.984375 23.96875 -0.984375 
Q 19.28125 -0.984375 15.46875 0.453125 
Q 11.671875 1.90625 8.953125 4.65625 
Q 6.25 7.421875 4.75 11.390625 
Q 3.265625 15.375 3.265625 20.453125 
Q 3.328125 22.75 3.546875 25.1875 
Q 3.765625 27.640625 4.34375 30.28125 
Q 5.765625 36.421875 8.25 40.84375 
Q 10.75 45.265625 14.15625 48.140625 
Q 17.578125 51.03125 21.890625 52.390625 
Q 26.21875 53.765625 31.34375 53.765625 
Q 36.53125 53.765625 40.453125 52.390625 
Q 44.390625 51.03125 47.046875 48.390625 
Q 49.703125 45.75 51.0625 41.96875 
Q 52.4375 38.1875 52.4375 33.34375 
z
M 43.359375 33.34375 
Q 43.359375 37.109375 42.53125 39.75 
Q 41.703125 42.390625 40.109375 44.0625 
Q 38.53125 45.75 36.28125 46.53125 
Q 34.03125 47.3125 31.25 47.3125 
Q 28.65625 47.3125 26.046875 46.703125 
Q 23.4375 46.09375 21.0625 44.234375 
Q 18.703125 42.390625 16.75 38.96875 
Q 14.796875 35.546875 13.484375 29.890625 
Q 12.84375 27.203125 12.578125 24.78125 
Q 12.3125 22.359375 12.3125 20.3125 
Q 12.3125 16.3125 13.234375 13.46875 
Q 14.15625 10.640625 15.796875 8.875 
Q 17.4375 7.125 19.65625 6.3125 
Q 21.875 5.515625 24.515625 5.515625 
Q 27.15625 5.515625 29.71875 6.09375 
Q 32.28125 6.6875 34.5625 8.5625 
Q 36.859375 10.453125 38.78125 13.921875 
Q 40.71875 17.390625 42.046875 23.09375 
Q 42.71875 26.03125 42.984375 28.46875 
Q 43.265625 30.90625 43.359375 33.34375 
z
" id="LiberationSans-Italic-111"/>
      <path d="M 34.46875 0 
L 24.265625 21.6875 
L 5.71875 0 
L -4 0 
L 20.015625 27.15625 
L 7.125 52.828125 
L 16.359375 52.828125 
L 25.78125 32.28125 
L 42.875 52.828125 
L 52.9375 52.828125 
L 30.03125 27.25 
L 43.75 0 
z
" id="LiberationSans-Italic-120"/>
     </defs>
     <use xlink:href="#LiberationSans-Italic-65"/>
     <use x="66.699219" xlink:href="#LiberationSans-Italic-108"/>
     <use x="88.916016" xlink:href="#LiberationSans-Italic-111"/>
     <use x="144.53125" xlink:href="#LiberationSans-Italic-120"/>
     <use x="194.53125" xlink:href="#LiberationSans-Italic-49"/>
     <use x="250.146484" xlink:href="#LiberationSans-Italic-50"/>
    </g>
   </g>
   <g id="PathCollection_2">
    <g clip-path="url(#pf9296fa2c7)">
     <use style="stroke:#ffffff;stroke-width:0.252982;" x="115.101136" xlink:href="#m3f40adc6fd" y="63.746422"/>
     <use style="stroke:#ffffff;stroke-width:0.252982;" x="115.101136" xlink:href="#m3f40adc6fd" y="63.746422"/>
     <use style="stroke:#ffffff;stroke-width:0.252982;" x="124.018531" xlink:href="#m3f40adc6fd" y="61.810523"/>
     <use style="stroke:#ffffff;stroke-width:0.252982;" x="124.018531" xlink:href="#m3f40adc6fd" y="61.810523"/>
     <use style="stroke:#ffffff;stroke-width:0.252982;" x="126.990997" xlink:href="#m3f40adc6fd" y="63.480595"/>
     <use style="stroke:#ffffff;stroke-width:0.252982;" x="126.990997" xlink:href="#m3f40adc6fd" y="63.480595"/>
     <use style="stroke:#ffffff;stroke-width:0.252982;" x="138.880857" xlink:href="#m3f40adc6fd" y="52.326401"/>
     <use style="stroke:#ffffff;stroke-width:0.252982;" x="138.880857" xlink:href="#m3f40adc6fd" y="52.326401"/>
     <use style="stroke:#ffffff;stroke-width:0.252982;" x="118.073601" xlink:href="#m3f40adc6fd" y="57.83545"/>
     <use style="stroke:#ffffff;stroke-width:0.252982;" x="118.073601" xlink:href="#m3f40adc6fd" y="57.83545"/>
     <use style="stroke:#ffffff;stroke-width:0.252982;" x="156.715647" xlink:href="#m3f40adc6fd" y="27.864841"/>
    </g>
   </g>
   <g id="LineCollection_2">
    <path clip-path="url(#pf9296fa2c7)" d="M 115.101136 64.808447 
L 115.101136 62.684398 
" style="fill:none;stroke:#000000;"/>
    <path clip-path="url(#pf9296fa2c7)" d="M 115.101136 64.808447 
L 115.101136 62.684398 
" style="fill:none;stroke:#000000;"/>
    <path clip-path="url(#pf9296fa2c7)" d="M 124.018531 63.486274 
L 124.018531 60.134773 
" style="fill:none;stroke:#000000;"/>
    <path clip-path="url(#pf9296fa2c7)" d="M 124.018531 63.486274 
L 124.018531 60.134773 
" style="fill:none;stroke:#000000;"/>
    <path clip-path="url(#pf9296fa2c7)" d="M 126.990997 67.518182 
L 126.990997 59.443007 
" style="fill:none;stroke:#000000;"/>
    <path clip-path="url(#pf9296fa2c7)" d="M 126.990997 67.518182 
L 126.990997 59.443007 
" style="fill:none;stroke:#000000;"/>
    <path clip-path="url(#pf9296fa2c7)" d="M 138.880857 55.988051 
L 138.880857 48.664751 
" style="fill:none;stroke:#000000;"/>
    <path clip-path="url(#pf9296fa2c7)" d="M 138.880857 55.988051 
L 138.880857 48.664751 
" style="fill:none;stroke:#000000;"/>
    <path clip-path="url(#pf9296fa2c7)" d="M 118.073601 60.409129 
L 118.073601 55.261771 
" style="fill:none;stroke:#000000;"/>
    <path clip-path="url(#pf9296fa2c7)" d="M 118.073601 60.409129 
L 118.073601 55.261771 
" style="fill:none;stroke:#000000;"/>
    <path clip-path="url(#pf9296fa2c7)" d="M 156.715647 29.847863 
L 156.715647 25.881818 
" style="fill:none;stroke:#000000;"/>
   </g>
   <g id="line2d_21">
    <g clip-path="url(#pf9296fa2c7)">
     <use style="stroke:#000000;" x="115.101136" xlink:href="#m643486bbb8" y="64.808447"/>
     <use style="stroke:#000000;" x="115.101136" xlink:href="#m643486bbb8" y="64.808447"/>
     <use style="stroke:#000000;" x="124.018531" xlink:href="#m643486bbb8" y="63.486274"/>
     <use style="stroke:#000000;" x="124.018531" xlink:href="#m643486bbb8" y="63.486274"/>
     <use style="stroke:#000000;" x="126.990997" xlink:href="#m643486bbb8" y="67.518182"/>
     <use style="stroke:#000000;" x="126.990997" xlink:href="#m643486bbb8" y="67.518182"/>
     <use style="stroke:#000000;" x="138.880857" xlink:href="#m643486bbb8" y="55.988051"/>
     <use style="stroke:#000000;" x="138.880857" xlink:href="#m643486bbb8" y="55.988051"/>
     <use style="stroke:#000000;" x="118.073601" xlink:href="#m643486bbb8" y="60.409129"/>
     <use style="stroke:#000000;" x="118.073601" xlink:href="#m643486bbb8" y="60.409129"/>
     <use style="stroke:#000000;" x="156.715647" xlink:href="#m643486bbb8" y="29.847863"/>
    </g>
   </g>
   <g id="line2d_22">
    <g clip-path="url(#pf9296fa2c7)">
     <use style="stroke:#000000;" x="115.101136" xlink:href="#m643486bbb8" y="62.684398"/>
     <use style="stroke:#000000;" x="115.101136" xlink:href="#m643486bbb8" y="62.684398"/>
     <use style="stroke:#000000;" x="124.018531" xlink:href="#m643486bbb8" y="60.134773"/>
     <use style="stroke:#000000;" x="124.018531" xlink:href="#m643486bbb8" y="60.134773"/>
     <use style="stroke:#000000;" x="126.990997" xlink:href="#m643486bbb8" y="59.443007"/>
     <use style="stroke:#000000;" x="126.990997" xlink:href="#m643486bbb8" y="59.443007"/>
     <use style="stroke:#000000;" x="138.880857" xlink:href="#m643486bbb8" y="48.664751"/>
     <use style="stroke:#000000;" x="138.880857" xlink:href="#m643486bbb8" y="48.664751"/>
     <use style="stroke:#000000;" x="118.073601" xlink:href="#m643486bbb8" y="55.261771"/>
     <use style="stroke:#000000;" x="118.073601" xlink:href="#m643486bbb8" y="55.261771"/>
     <use style="stroke:#000000;" x="156.715647" xlink:href="#m643486bbb8" y="25.881818"/>
    </g>
   </g>
  </g>
  <g id="axes_3">
   <g id="patch_12">
    <path d="M 41.05 143.2 
L 97.725 143.2 
L 97.725 97.4 
L 41.05 97.4 
z
" style="fill:#ffffff;"/>
   </g>
   <g id="matplotlib.axis_5">
    <g id="xtick_11">
     <g id="line2d_23">
      <g>
       <use style="fill:#262626;stroke:#262626;stroke-width:0.8;" x="43.626136" xlink:href="#m65112ce4df" y="143.2"/>
      </g>
     </g>
     <g id="text_7">
      <!-- 0 -->
      <g style="fill:#262626;" transform="translate(41.401761 154.9975)scale(0.08 -0.08)">
       <use xlink:href="#LiberationSans-48"/>
      </g>
     </g>
    </g>
    <g id="xtick_12">
     <g id="line2d_24">
      <g>
       <use style="fill:#262626;stroke:#262626;stroke-width:0.8;" x="55.515997" xlink:href="#m65112ce4df" y="143.2"/>
      </g>
     </g>
     <g id="text_8">
      <!-- 24 -->
      <g style="fill:#262626;" transform="translate(51.067247 154.9975)scale(0.08 -0.08)">
       <defs>
        <path d="M 5.03125 0 
L 5.03125 6.203125 
Q 7.515625 11.921875 11.109375 16.28125 
Q 14.703125 20.65625 18.65625 24.1875 
Q 22.609375 27.734375 26.484375 30.765625 
Q 30.375 33.796875 33.5 36.8125 
Q 36.625 39.84375 38.546875 43.15625 
Q 40.484375 46.484375 40.484375 50.6875 
Q 40.484375 53.609375 39.59375 55.828125 
Q 38.71875 58.0625 37.0625 59.5625 
Q 35.40625 61.078125 33.078125 61.828125 
Q 30.765625 62.59375 27.9375 62.59375 
Q 25.296875 62.59375 22.96875 61.859375 
Q 20.65625 61.140625 18.84375 59.671875 
Q 17.046875 58.203125 15.890625 56.03125 
Q 14.75 53.859375 14.40625 50.984375 
L 5.421875 51.8125 
Q 5.859375 55.515625 7.46875 58.78125 
Q 9.078125 62.0625 11.90625 64.53125 
Q 14.75 67 18.71875 68.40625 
Q 22.703125 69.828125 27.9375 69.828125 
Q 33.0625 69.828125 37.0625 68.609375 
Q 41.0625 67.390625 43.8125 64.984375 
Q 46.578125 62.59375 48.046875 59.078125 
Q 49.515625 55.5625 49.515625 50.984375 
Q 49.515625 47.515625 48.265625 44.390625 
Q 47.015625 41.265625 44.9375 38.421875 
Q 42.875 35.59375 40.140625 32.953125 
Q 37.40625 30.328125 34.421875 27.8125 
Q 31.453125 25.296875 28.421875 22.828125 
Q 25.390625 20.359375 22.71875 17.859375 
Q 20.0625 15.375 17.96875 12.8125 
Q 15.875 10.25 14.703125 7.46875 
L 50.59375 7.46875 
L 50.59375 0 
z
" id="LiberationSans-50"/>
        <path d="M 43.015625 15.578125 
L 43.015625 0 
L 34.71875 0 
L 34.71875 15.578125 
L 2.296875 15.578125 
L 2.296875 22.40625 
L 33.796875 68.796875 
L 43.015625 68.796875 
L 43.015625 22.515625 
L 52.6875 22.515625 
L 52.6875 15.578125 
z
M 34.71875 58.890625 
Q 34.625 58.640625 34.234375 57.9375 
Q 33.84375 57.234375 33.34375 56.34375 
Q 32.859375 55.46875 32.34375 54.5625 
Q 31.84375 53.65625 31.453125 53.078125 
L 13.8125 27.09375 
Q 13.578125 26.703125 13.109375 26.0625 
Q 12.640625 25.4375 12.15625 24.78125 
Q 11.671875 24.125 11.171875 23.484375 
Q 10.6875 22.859375 10.40625 22.515625 
L 34.71875 22.515625 
z
" id="LiberationSans-52"/>
       </defs>
       <use xlink:href="#LiberationSans-50"/>
       <use x="55.615234" xlink:href="#LiberationSans-52"/>
      </g>
     </g>
    </g>
    <g id="xtick_13">
     <g id="line2d_25">
      <g>
       <use style="fill:#262626;stroke:#262626;stroke-width:0.8;" x="67.405857" xlink:href="#m65112ce4df" y="143.2"/>
      </g>
     </g>
     <g id="text_9">
      <!-- 48 -->
      <g style="fill:#262626;" transform="translate(62.957107 154.9975)scale(0.08 -0.08)">
       <defs>
        <path d="M 51.265625 19.1875 
Q 51.265625 14.796875 49.875 11.109375 
Q 48.484375 7.421875 45.625 4.734375 
Q 42.78125 2.046875 38.328125 0.53125 
Q 33.890625 -0.984375 27.828125 -0.984375 
Q 21.78125 -0.984375 17.359375 0.53125 
Q 12.9375 2.046875 10.03125 4.703125 
Q 7.125 7.375 5.734375 11.0625 
Q 4.34375 14.75 4.34375 19.09375 
Q 4.34375 22.859375 5.484375 25.78125 
Q 6.640625 28.71875 8.5625 30.828125 
Q 10.5 32.953125 12.96875 34.25 
Q 15.4375 35.546875 18.0625 35.984375 
L 18.0625 36.1875 
Q 15.1875 36.859375 12.90625 38.375 
Q 10.640625 39.890625 9.09375 42.015625 
Q 7.5625 44.140625 6.75 46.71875 
Q 5.953125 49.3125 5.953125 52.203125 
Q 5.953125 55.8125 7.34375 59 
Q 8.734375 62.203125 11.46875 64.625 
Q 14.203125 67.046875 18.25 68.4375 
Q 22.3125 69.828125 27.640625 69.828125 
Q 33.25 69.828125 37.375 68.40625 
Q 41.5 67 44.203125 64.578125 
Q 46.921875 62.15625 48.234375 58.9375 
Q 49.5625 55.71875 49.5625 52.09375 
Q 49.5625 49.265625 48.75 46.671875 
Q 47.953125 44.09375 46.40625 41.96875 
Q 44.875 39.84375 42.59375 38.34375 
Q 40.328125 36.859375 37.359375 36.28125 
L 37.359375 36.078125 
Q 40.328125 35.59375 42.859375 34.296875 
Q 45.40625 33.015625 47.265625 30.890625 
Q 49.125 28.765625 50.1875 25.828125 
Q 51.265625 22.90625 51.265625 19.1875 
z
M 40.4375 51.609375 
Q 40.4375 54.203125 39.765625 56.34375 
Q 39.109375 58.5 37.59375 60.03125 
Q 36.078125 61.578125 33.640625 62.421875 
Q 31.203125 63.28125 27.640625 63.28125 
Q 24.171875 63.28125 21.78125 62.421875 
Q 19.390625 61.578125 17.84375 60.03125 
Q 16.3125 58.5 15.625 56.34375 
Q 14.9375 54.203125 14.9375 51.609375 
Q 14.9375 49.5625 15.46875 47.40625 
Q 16.015625 45.265625 17.421875 43.5 
Q 18.84375 41.75 21.328125 40.625 
Q 23.828125 39.5 27.734375 39.5 
Q 31.890625 39.5 34.40625 40.625 
Q 36.921875 41.75 38.25 43.5 
Q 39.59375 45.265625 40.015625 47.40625 
Q 40.4375 49.5625 40.4375 51.609375 
z
M 42.140625 20.015625 
Q 42.140625 22.515625 41.453125 24.828125 
Q 40.765625 27.15625 39.109375 28.9375 
Q 37.453125 30.71875 34.640625 31.8125 
Q 31.84375 32.90625 27.640625 32.90625 
Q 23.78125 32.90625 21.0625 31.8125 
Q 18.359375 30.71875 16.671875 28.90625 
Q 14.984375 27.09375 14.203125 24.71875 
Q 13.421875 22.359375 13.421875 19.828125 
Q 13.421875 16.65625 14.203125 14.03125 
Q 14.984375 11.421875 16.6875 9.546875 
Q 18.40625 7.671875 21.1875 6.640625 
Q 23.96875 5.609375 27.9375 5.609375 
Q 31.9375 5.609375 34.671875 6.640625 
Q 37.40625 7.671875 39.0625 9.546875 
Q 40.71875 11.421875 41.421875 14.078125 
Q 42.140625 16.75 42.140625 20.015625 
z
" id="LiberationSans-56"/>
       </defs>
       <use xlink:href="#LiberationSans-52"/>
       <use x="55.615234" xlink:href="#LiberationSans-56"/>
      </g>
     </g>
    </g>
    <g id="xtick_14">
     <g id="line2d_26">
      <g>
       <use style="fill:#262626;stroke:#262626;stroke-width:0.8;" x="79.295717" xlink:href="#m65112ce4df" y="143.2"/>
      </g>
     </g>
     <g id="text_10">
      <!-- 72 -->
      <g style="fill:#262626;" transform="translate(74.846967 154.9975)scale(0.08 -0.08)">
       <defs>
        <path d="M 50.59375 61.671875 
Q 45.40625 53.765625 41.0625 46.453125 
Q 36.71875 39.15625 33.59375 31.75 
Q 30.46875 24.359375 28.734375 16.578125 
Q 27 8.796875 27 0 
L 17.828125 0 
Q 17.828125 8.25 19.78125 16.1875 
Q 21.734375 24.125 25.046875 31.765625 
Q 28.375 39.40625 32.765625 46.78125 
Q 37.15625 54.15625 42.09375 61.328125 
L 5.125 61.328125 
L 5.125 68.796875 
L 50.59375 68.796875 
z
" id="LiberationSans-55"/>
       </defs>
       <use xlink:href="#LiberationSans-55"/>
       <use x="55.615234" xlink:href="#LiberationSans-50"/>
      </g>
     </g>
    </g>
    <g id="xtick_15">
     <g id="line2d_27">
      <g>
       <use style="fill:#262626;stroke:#262626;stroke-width:0.8;" x="91.185577" xlink:href="#m65112ce4df" y="143.2"/>
      </g>
     </g>
     <g id="text_11">
      <!-- 96 -->
      <g style="fill:#262626;" transform="translate(86.736827 154.9975)scale(0.08 -0.08)">
       <defs>
        <path d="M 50.875 35.796875 
Q 50.875 26.609375 49.140625 19.703125 
Q 47.40625 12.796875 44.1875 8.203125 
Q 40.96875 3.609375 36.34375 1.3125 
Q 31.734375 -0.984375 25.984375 -0.984375 
Q 22.015625 -0.984375 18.84375 -0.171875 
Q 15.671875 0.640625 13.171875 2.34375 
Q 10.6875 4.046875 8.921875 6.78125 
Q 7.171875 9.515625 6.109375 13.375 
L 14.5 14.703125 
Q 15.875 10.25 18.78125 8.171875 
Q 21.6875 6.109375 26.125 6.109375 
Q 29.6875 6.109375 32.640625 7.78125 
Q 35.59375 9.46875 37.671875 12.84375 
Q 39.75 16.21875 40.921875 21.296875 
Q 42.09375 26.375 42.1875 33.203125 
Q 41.15625 30.90625 39.375 29.09375 
Q 37.59375 27.296875 35.328125 26.046875 
Q 33.0625 24.8125 30.421875 24.140625 
Q 27.78125 23.484375 25.09375 23.484375 
Q 20.40625 23.484375 16.625 25.171875 
Q 12.84375 26.859375 10.203125 29.875 
Q 7.5625 32.90625 6.125 37.171875 
Q 4.6875 41.453125 4.6875 46.6875 
Q 4.6875 52 6.21875 56.296875 
Q 7.765625 60.59375 10.6875 63.59375 
Q 13.625 66.609375 17.890625 68.21875 
Q 22.171875 69.828125 27.59375 69.828125 
Q 39.0625 69.828125 44.96875 61.328125 
Q 50.875 52.828125 50.875 35.796875 
z
M 41.3125 44.28125 
Q 41.3125 48.09375 40.40625 51.453125 
Q 39.5 54.828125 37.71875 57.3125 
Q 35.9375 59.8125 33.328125 61.25 
Q 30.71875 62.703125 27.296875 62.703125 
Q 24.125 62.703125 21.578125 61.578125 
Q 19.046875 60.453125 17.28125 58.375 
Q 15.53125 56.296875 14.578125 53.3125 
Q 13.625 50.34375 13.625 46.6875 
Q 13.625 43.21875 14.46875 40.234375 
Q 15.328125 37.25 17.03125 35.078125 
Q 18.75 32.90625 21.28125 31.65625 
Q 23.828125 30.421875 27.203125 30.421875 
Q 29.640625 30.421875 32.15625 31.25 
Q 34.671875 32.078125 36.6875 33.78125 
Q 38.71875 35.5 40.015625 38.109375 
Q 41.3125 40.71875 41.3125 44.28125 
z
" id="LiberationSans-57"/>
        <path d="M 51.21875 22.515625 
Q 51.21875 17.328125 49.78125 13 
Q 48.34375 8.6875 45.53125 5.578125 
Q 42.71875 2.484375 38.5625 0.75 
Q 34.421875 -0.984375 29 -0.984375 
Q 23 -0.984375 18.5 1.3125 
Q 14.015625 3.609375 11.03125 7.921875 
Q 8.0625 12.25 6.5625 18.53125 
Q 5.078125 24.8125 5.078125 32.8125 
Q 5.078125 42 6.765625 48.921875 
Q 8.453125 55.859375 11.625 60.5 
Q 14.796875 65.140625 19.359375 67.484375 
Q 23.921875 69.828125 29.6875 69.828125 
Q 33.203125 69.828125 36.28125 69.09375 
Q 39.359375 68.359375 41.875 66.71875 
Q 44.390625 65.09375 46.28125 62.40625 
Q 48.1875 59.71875 49.3125 55.8125 
L 40.921875 54.296875 
Q 39.546875 58.734375 36.546875 60.71875 
Q 33.546875 62.703125 29.59375 62.703125 
Q 25.984375 62.703125 23.046875 60.984375 
Q 20.125 59.28125 18.0625 55.875 
Q 16.015625 52.484375 14.90625 47.359375 
Q 13.8125 42.234375 13.8125 35.40625 
Q 16.21875 39.84375 20.5625 42.15625 
Q 24.90625 44.484375 30.515625 44.484375 
Q 35.203125 44.484375 39.015625 42.96875 
Q 42.828125 41.453125 45.53125 38.59375 
Q 48.25 35.75 49.734375 31.671875 
Q 51.21875 27.59375 51.21875 22.515625 
z
M 42.28125 22.125 
Q 42.28125 25.6875 41.40625 28.5625 
Q 40.53125 31.453125 38.765625 33.46875 
Q 37.015625 35.5 34.421875 36.59375 
Q 31.84375 37.703125 28.421875 37.703125 
Q 26.03125 37.703125 23.578125 36.984375 
Q 21.140625 36.28125 19.15625 34.6875 
Q 17.1875 33.109375 15.9375 30.515625 
Q 14.703125 27.9375 14.703125 24.21875 
Q 14.703125 20.40625 15.671875 17.109375 
Q 16.65625 13.8125 18.484375 11.375 
Q 20.3125 8.9375 22.890625 7.515625 
Q 25.484375 6.109375 28.71875 6.109375 
Q 31.890625 6.109375 34.40625 7.203125 
Q 36.921875 8.296875 38.671875 10.375 
Q 40.4375 12.453125 41.359375 15.421875 
Q 42.28125 18.40625 42.28125 22.125 
z
" id="LiberationSans-54"/>
       </defs>
       <use xlink:href="#LiberationSans-57"/>
       <use x="55.615234" xlink:href="#LiberationSans-54"/>
      </g>
     </g>
    </g>
    <g id="text_12">
     <!-- time (h) -->
     <g style="fill:#262626;" transform="translate(54.137422 167.179688)scale(0.09 -0.09)">
      <defs>
       <path d="M 27.046875 0.390625 
Q 25.046875 -0.140625 22.96875 -0.453125 
Q 20.90625 -0.78125 18.171875 -0.78125 
Q 7.625 -0.78125 7.625 11.1875 
L 7.625 46.4375 
L 1.515625 46.4375 
L 1.515625 52.828125 
L 7.953125 52.828125 
L 10.546875 64.65625 
L 16.40625 64.65625 
L 16.40625 52.828125 
L 26.171875 52.828125 
L 26.171875 46.4375 
L 16.40625 46.4375 
L 16.40625 13.09375 
Q 16.40625 9.28125 17.640625 7.734375 
Q 18.890625 6.203125 21.96875 6.203125 
Q 23.25 6.203125 24.4375 6.390625 
Q 25.640625 6.59375 27.046875 6.890625 
z
" id="LiberationSans-116"/>
       <path d="M 6.6875 64.0625 
L 6.6875 72.46875 
L 15.484375 72.46875 
L 15.484375 64.0625 
z
M 6.6875 0 
L 6.6875 52.828125 
L 15.484375 52.828125 
L 15.484375 0 
z
" id="LiberationSans-105"/>
       <path d="M 6.203125 25.984375 
Q 6.203125 32.765625 7.21875 38.96875 
Q 8.25 45.171875 10.4375 50.875 
Q 12.640625 56.59375 16.0625 61.953125 
Q 19.484375 67.328125 24.21875 72.46875 
L 32.71875 72.46875 
Q 28.125 67.328125 24.78125 61.9375 
Q 21.4375 56.546875 19.28125 50.796875 
Q 17.140625 45.0625 16.09375 38.859375 
Q 15.046875 32.671875 15.046875 25.875 
Q 15.046875 19.09375 16.09375 12.890625 
Q 17.140625 6.6875 19.28125 0.921875 
Q 21.4375 -4.828125 24.78125 -10.203125 
Q 28.125 -15.578125 32.71875 -20.703125 
L 24.21875 -20.703125 
Q 19.484375 -15.578125 16.0625 -10.203125 
Q 12.640625 -4.828125 10.4375 0.875 
Q 8.25 6.59375 7.21875 12.765625 
Q 6.203125 18.953125 6.203125 25.78125 
z
" id="LiberationSans-40"/>
       <path d="M 15.484375 43.796875 
Q 16.9375 46.484375 18.640625 48.359375 
Q 20.359375 50.25 22.40625 51.46875 
Q 24.46875 52.6875 26.90625 53.25 
Q 29.34375 53.8125 32.375 53.8125 
Q 37.453125 53.8125 40.703125 52.4375 
Q 43.953125 51.078125 45.828125 48.609375 
Q 47.703125 46.140625 48.40625 42.71875 
Q 49.125 39.3125 49.125 35.203125 
L 49.125 0 
L 40.28125 0 
L 40.28125 33.5 
Q 40.28125 36.859375 39.859375 39.390625 
Q 39.453125 41.9375 38.28125 43.625 
Q 37.109375 45.3125 34.953125 46.15625 
Q 32.8125 47.015625 29.390625 47.015625 
Q 26.265625 47.015625 23.75 45.890625 
Q 21.234375 44.78125 19.453125 42.71875 
Q 17.671875 40.671875 16.6875 37.734375 
Q 15.71875 34.8125 15.71875 31.15625 
L 15.71875 0 
L 6.9375 0 
L 6.9375 72.46875 
L 15.71875 72.46875 
L 15.71875 53.609375 
Q 15.71875 52 15.671875 50.390625 
Q 15.625 48.78125 15.546875 47.40625 
Q 15.484375 46.046875 15.421875 45.09375 
Q 15.375 44.140625 15.328125 43.796875 
z
" id="LiberationSans-104"/>
       <path d="M 27.09375 25.78125 
Q 27.09375 18.953125 26.0625 12.765625 
Q 25.046875 6.59375 22.84375 0.875 
Q 20.65625 -4.828125 17.234375 -10.203125 
Q 13.8125 -15.578125 9.078125 -20.703125 
L 0.59375 -20.703125 
Q 5.171875 -15.578125 8.515625 -10.203125 
Q 11.859375 -4.828125 14 0.921875 
Q 16.15625 6.6875 17.203125 12.890625 
Q 18.265625 19.09375 18.265625 25.875 
Q 18.265625 32.671875 17.203125 38.859375 
Q 16.15625 45.0625 14 50.796875 
Q 11.859375 56.546875 8.515625 61.9375 
Q 5.171875 67.328125 0.59375 72.46875 
L 9.078125 72.46875 
Q 13.8125 67.328125 17.234375 61.953125 
Q 20.65625 56.59375 22.84375 50.875 
Q 25.046875 45.171875 26.0625 38.96875 
Q 27.09375 32.765625 27.09375 25.984375 
z
" id="LiberationSans-41"/>
      </defs>
      <use xlink:href="#LiberationSans-116"/>
      <use x="27.783203" xlink:href="#LiberationSans-105"/>
      <use x="50" xlink:href="#LiberationSans-109"/>
      <use x="133.300781" xlink:href="#LiberationSans-101"/>
      <use x="188.916016" xlink:href="#LiberationSans-32"/>
      <use x="216.699219" xlink:href="#LiberationSans-40"/>
      <use x="250" xlink:href="#LiberationSans-104"/>
      <use x="305.615234" xlink:href="#LiberationSans-41"/>
     </g>
    </g>
   </g>
   <g id="matplotlib.axis_6">
    <g id="ytick_7">
     <g id="line2d_28">
      <g>
       <use style="fill:#262626;stroke:#262626;stroke-width:0.8;" x="41.05" xlink:href="#m30ff62f947" y="138.137345"/>
      </g>
     </g>
     <g id="text_13">
      <!-- 0.0 -->
      <g style="fill:#262626;" transform="translate(23.93 141.036095)scale(0.08 -0.08)">
       <use xlink:href="#LiberationSans-48"/>
       <use x="55.615234" xlink:href="#LiberationSans-46"/>
       <use x="83.398438" xlink:href="#LiberationSans-48"/>
      </g>
     </g>
    </g>
    <g id="ytick_8">
     <g id="line2d_29">
      <g>
       <use style="fill:#262626;stroke:#262626;stroke-width:0.8;" x="41.05" xlink:href="#m30ff62f947" y="121.184221"/>
      </g>
     </g>
     <g id="text_14">
      <!-- 0.5 -->
      <g style="fill:#262626;" transform="translate(23.93 124.082971)scale(0.08 -0.08)">
       <use xlink:href="#LiberationSans-48"/>
       <use x="55.615234" xlink:href="#LiberationSans-46"/>
       <use x="83.398438" xlink:href="#LiberationSans-53"/>
      </g>
     </g>
    </g>
    <g id="ytick_9">
     <g id="line2d_30">
      <g>
       <use style="fill:#262626;stroke:#262626;stroke-width:0.8;" x="41.05" xlink:href="#m30ff62f947" y="104.231096"/>
      </g>
     </g>
     <g id="text_15">
      <!-- 1.0 -->
      <g style="fill:#262626;" transform="translate(23.93 107.129846)scale(0.08 -0.08)">
       <use xlink:href="#LiberationSans-49"/>
       <use x="55.615234" xlink:href="#LiberationSans-46"/>
       <use x="83.398438" xlink:href="#LiberationSans-48"/>
      </g>
     </g>
    </g>
    <g id="text_16">
     <!-- expr. norm. -->
     <g style="fill:#262626;" transform="translate(18.0625 142.807734)rotate(-90)scale(0.09 -0.09)">
      <use xlink:href="#LiberationSans-101"/>
      <use x="55.615234" xlink:href="#LiberationSans-120"/>
      <use x="105.615234" xlink:href="#LiberationSans-112"/>
      <use x="161.230469" xlink:href="#LiberationSans-114"/>
      <use x="189.03125" xlink:href="#LiberationSans-46"/>
      <use x="216.814453" xlink:href="#LiberationSans-32"/>
      <use x="244.597656" xlink:href="#LiberationSans-110"/>
      <use x="300.212891" xlink:href="#LiberationSans-111"/>
      <use x="355.828125" xlink:href="#LiberationSans-114"/>
      <use x="389.128906" xlink:href="#LiberationSans-109"/>
      <use x="472.429688" xlink:href="#LiberationSans-46"/>
     </g>
    </g>
   </g>
   <g id="line2d_31">
    <path clip-path="url(#pac26eed4e7)" d="M 43.626136 138.137345 
L 44.146568 138.137345 
L 44.667 138.137345 
L 45.187431 138.137345 
L 45.707863 138.137345 
L 46.228294 138.137345 
L 46.748726 138.137337 
L 47.269157 138.135238 
L 47.789589 138.045283 
L 48.310021 137.052938 
L 48.830452 133.327748 
L 49.350884 127.55364 
L 49.871315 123.293446 
L 50.391747 121.623333 
L 50.912179 121.243468 
L 51.43261 121.189615 
L 51.953042 121.184566 
L 52.473473 121.184237 
L 52.993905 121.184221 
L 53.514337 121.184221 
L 54.034768 121.184221 
L 54.5552 121.184221 
L 55.075631 121.184221 
L 55.596063 121.184221 
L 56.116494 121.184221 
L 56.636926 121.184221 
L 57.157358 121.184221 
L 57.677789 121.184221 
L 58.198221 121.184221 
L 58.718652 121.184221 
L 59.239084 121.184221 
L 59.759516 121.184221 
L 60.279947 121.184221 
L 60.800379 121.184221 
L 61.32081 121.184221 
L 61.841242 121.184221 
L 62.361674 121.184221 
L 62.882105 121.184221 
L 63.402537 121.184221 
L 63.922968 121.184221 
L 64.4434 121.184221 
L 64.963831 121.184221 
L 65.484263 121.184221 
L 66.004695 121.184221 
L 66.525126 121.184221 
L 67.045558 121.184219 
L 67.565989 121.184213 
L 68.086421 121.184186 
L 68.606853 121.184089 
L 69.127284 121.183761 
L 69.647716 121.18276 
L 70.168147 121.179978 
L 70.688579 121.172894 
L 71.209011 121.156333 
L 71.729442 121.120656 
L 72.249874 121.049638 
L 72.770305 120.918628 
L 73.290737 120.694058 
L 73.811169 120.335453 
L 74.3316 119.800708 
L 74.852032 119.054362 
L 75.372463 118.077246 
L 75.892895 116.874803 
L 76.413326 115.481152 
L 76.933758 113.956982 
L 77.45419 112.381246 
L 77.974621 110.838663 
L 78.495053 109.406342 
L 79.015484 108.142949 
L 79.535916 107.082733 
L 80.056348 106.23506 
L 80.576779 105.588455 
L 81.097211 105.117265 
L 81.617642 104.788833 
L 82.138074 104.569595 
L 82.658506 104.429278 
L 83.178937 104.343077 
L 83.699369 104.292193 
L 84.2198 104.263301 
L 84.740232 104.247505 
L 85.260663 104.239183 
L 85.781095 104.234953 
L 86.301527 104.232878 
L 86.821958 104.231894 
L 87.34239 104.231442 
L 87.862821 104.231242 
L 88.383253 104.231156 
L 88.903685 104.23112 
L 89.424116 104.231106 
L 89.944548 104.2311 
L 90.464979 104.231098 
L 90.985411 104.231097 
L 91.505843 104.231097 
L 92.026274 104.231097 
L 92.546706 104.231096 
L 93.067137 104.231096 
L 93.587569 104.231096 
L 94.108 104.231096 
L 94.628432 104.231096 
L 95.148864 104.231096 
" style="fill:none;stroke:#800080;stroke-linecap:round;stroke-width:2;"/>
   </g>
   <g id="patch_13">
    <path d="M 41.05 143.2 
L 41.05 97.4 
" style="fill:none;stroke:#262626;stroke-linecap:square;stroke-linejoin:miter;"/>
   </g>
   <g id="patch_14">
    <path d="M 97.725 143.2 
L 97.725 97.4 
" style="fill:none;stroke:#262626;stroke-linecap:square;stroke-linejoin:miter;"/>
   </g>
   <g id="patch_15">
    <path d="M 41.05 143.2 
L 97.725 143.2 
" style="fill:none;stroke:#262626;stroke-linecap:square;stroke-linejoin:miter;"/>
   </g>
   <g id="patch_16">
    <path d="M 41.05 97.4 
L 97.725 97.4 
" style="fill:none;stroke:#262626;stroke-linecap:square;stroke-linejoin:miter;"/>
   </g>
   <g id="text_17">
    <!-- Ktn1 -->
    <g style="fill:#262626;" transform="translate(60.130859 91.4)scale(0.09 -0.09)">
     <defs>
      <path d="M 49.90625 0 
L 26.859375 32.90625 
L 17.578125 26.609375 
L 12.40625 0 
L 3.078125 0 
L 16.40625 68.796875 
L 25.734375 68.796875 
L 19.09375 35.0625 
L 25.921875 41.359375 
L 58.40625 68.796875 
L 70.359375 68.796875 
L 33.734375 38.03125 
L 60.9375 0 
z
" id="LiberationSans-Italic-75"/>
      <path d="M 21.875 0.203125 
Q 20.0625 -0.25 17.90625 -0.609375 
Q 15.765625 -0.984375 13.421875 -0.984375 
Q 9.28125 -0.984375 6.90625 1.5 
Q 4.546875 4 4.546875 8.109375 
Q 4.546875 9.671875 4.78125 11.453125 
Q 5.03125 13.234375 5.28125 14.453125 
L 11.421875 46.4375 
L 5.328125 46.4375 
L 6.59375 52.828125 
L 12.796875 52.828125 
L 17.921875 64.65625 
L 23.78125 64.65625 
L 21.484375 52.828125 
L 31.25 52.828125 
L 29.984375 46.4375 
L 20.21875 46.4375 
L 14.109375 14.9375 
Q 13.921875 13.96875 13.71875 12.546875 
Q 13.53125 11.140625 13.53125 10.296875 
Q 13.53125 8.25 14.546875 7.125 
Q 15.578125 6 17.921875 6 
Q 19.1875 6 20.28125 6.171875 
Q 21.390625 6.34375 22.796875 6.6875 
z
" id="LiberationSans-Italic-116"/>
      <path d="M 35.015625 0 
L 41.15625 31.5 
Q 41.546875 33.40625 41.796875 35.375 
Q 42.046875 37.359375 42.046875 38.8125 
Q 42.046875 42.671875 39.984375 44.8125 
Q 37.9375 46.96875 33.296875 46.96875 
Q 30.171875 46.96875 27.40625 45.71875 
Q 24.65625 44.484375 22.40625 42.203125 
Q 20.171875 39.9375 18.578125 36.734375 
Q 17 33.546875 16.21875 29.59375 
L 10.453125 0 
L 1.65625 0 
L 9.765625 41.546875 
Q 10.109375 43.21875 10.421875 45.046875 
Q 10.75 46.875 11.015625 48.5 
Q 11.28125 50.140625 11.453125 51.3125 
Q 11.625 52.484375 11.671875 52.828125 
L 19.96875 52.828125 
Q 19.96875 52.59375 19.8125 51.515625 
Q 19.671875 50.4375 19.453125 49.046875 
Q 19.234375 47.65625 19.015625 46.21875 
Q 18.796875 44.78125 18.609375 43.796875 
L 18.75 43.796875 
Q 20.40625 46.09375 22.15625 47.953125 
Q 23.921875 49.8125 26.046875 51.09375 
Q 28.171875 52.390625 30.734375 53.078125 
Q 33.296875 53.765625 36.578125 53.765625 
Q 43.796875 53.765625 47.4375 50.1875 
Q 51.078125 46.625 51.078125 39.890625 
Q 51.078125 38.140625 50.75 35.9375 
Q 50.4375 33.734375 50.046875 31.890625 
L 43.84375 0 
z
" id="LiberationSans-Italic-110"/>
     </defs>
     <use xlink:href="#LiberationSans-Italic-75"/>
     <use x="66.699219" xlink:href="#LiberationSans-Italic-116"/>
     <use x="94.482422" xlink:href="#LiberationSans-Italic-110"/>
     <use x="150.097656" xlink:href="#LiberationSans-Italic-49"/>
    </g>
   </g>
   <g id="PathCollection_3">
    <g clip-path="url(#pac26eed4e7)">
     <use style="stroke:#ffffff;stroke-width:0.252982;" x="43.626136" xlink:href="#m3f40adc6fd" y="138.137345"/>
     <use style="stroke:#ffffff;stroke-width:0.252982;" x="43.626136" xlink:href="#m3f40adc6fd" y="138.137345"/>
     <use style="stroke:#ffffff;stroke-width:0.252982;" x="52.543531" xlink:href="#m3f40adc6fd" y="116.82622"/>
     <use style="stroke:#ffffff;stroke-width:0.252982;" x="52.543531" xlink:href="#m3f40adc6fd" y="116.82622"/>
     <use style="stroke:#ffffff;stroke-width:0.252982;" x="55.515997" xlink:href="#m3f40adc6fd" y="122.468256"/>
     <use style="stroke:#ffffff;stroke-width:0.252982;" x="55.515997" xlink:href="#m3f40adc6fd" y="122.468256"/>
     <use style="stroke:#ffffff;stroke-width:0.252982;" x="67.405857" xlink:href="#m3f40adc6fd" y="123.795392"/>
     <use style="stroke:#ffffff;stroke-width:0.252982;" x="67.405857" xlink:href="#m3f40adc6fd" y="123.795392"/>
     <use style="stroke:#ffffff;stroke-width:0.252982;" x="46.598601" xlink:href="#m3f40adc6fd" y="140.159476"/>
     <use style="stroke:#ffffff;stroke-width:0.252982;" x="46.598601" xlink:href="#m3f40adc6fd" y="140.159476"/>
     <use style="stroke:#ffffff;stroke-width:0.252982;" x="85.240647" xlink:href="#m3f40adc6fd" y="104.231096"/>
    </g>
   </g>
   <g id="LineCollection_3">
    <path clip-path="url(#pac26eed4e7)" d="M 43.626136 138.910981 
L 43.626136 137.363709 
" style="fill:none;stroke:#000000;"/>
    <path clip-path="url(#pac26eed4e7)" d="M 43.626136 138.910981 
L 43.626136 137.363709 
" style="fill:none;stroke:#000000;"/>
    <path clip-path="url(#pac26eed4e7)" d="M 52.543531 121.307517 
L 52.543531 112.344923 
" style="fill:none;stroke:#000000;"/>
    <path clip-path="url(#pac26eed4e7)" d="M 52.543531 121.307517 
L 52.543531 112.344923 
" style="fill:none;stroke:#000000;"/>
    <path clip-path="url(#pac26eed4e7)" d="M 55.515997 127.406939 
L 55.515997 117.529573 
" style="fill:none;stroke:#000000;"/>
    <path clip-path="url(#pac26eed4e7)" d="M 55.515997 127.406939 
L 55.515997 117.529573 
" style="fill:none;stroke:#000000;"/>
    <path clip-path="url(#pac26eed4e7)" d="M 67.405857 126.189559 
L 67.405857 121.401224 
" style="fill:none;stroke:#000000;"/>
    <path clip-path="url(#pac26eed4e7)" d="M 67.405857 126.189559 
L 67.405857 121.401224 
" style="fill:none;stroke:#000000;"/>
    <path clip-path="url(#pac26eed4e7)" d="M 46.598601 141.118182 
L 46.598601 139.20077 
" style="fill:none;stroke:#000000;"/>
    <path clip-path="url(#pac26eed4e7)" d="M 46.598601 141.118182 
L 46.598601 139.20077 
" style="fill:none;stroke:#000000;"/>
    <path clip-path="url(#pac26eed4e7)" d="M 85.240647 108.980375 
L 85.240647 99.481818 
" style="fill:none;stroke:#000000;"/>
   </g>
   <g id="line2d_32">
    <g clip-path="url(#pac26eed4e7)">
     <use style="stroke:#000000;" x="43.626136" xlink:href="#m643486bbb8" y="138.910981"/>
     <use style="stroke:#000000;" x="43.626136" xlink:href="#m643486bbb8" y="138.910981"/>
     <use style="stroke:#000000;" x="52.543531" xlink:href="#m643486bbb8" y="121.307517"/>
     <use style="stroke:#000000;" x="52.543531" xlink:href="#m643486bbb8" y="121.307517"/>
     <use style="stroke:#000000;" x="55.515997" xlink:href="#m643486bbb8" y="127.406939"/>
     <use style="stroke:#000000;" x="55.515997" xlink:href="#m643486bbb8" y="127.406939"/>
     <use style="stroke:#000000;" x="67.405857" xlink:href="#m643486bbb8" y="126.189559"/>
     <use style="stroke:#000000;" x="67.405857" xlink:href="#m643486bbb8" y="126.189559"/>
     <use style="stroke:#000000;" x="46.598601" xlink:href="#m643486bbb8" y="141.118182"/>
     <use style="stroke:#000000;" x="46.598601" xlink:href="#m643486bbb8" y="141.118182"/>
     <use style="stroke:#000000;" x="85.240647" xlink:href="#m643486bbb8" y="108.980375"/>
    </g>
   </g>
   <g id="line2d_33">
    <g clip-path="url(#pac26eed4e7)">
     <use style="stroke:#000000;" x="43.626136" xlink:href="#m643486bbb8" y="137.363709"/>
     <use style="stroke:#000000;" x="43.626136" xlink:href="#m643486bbb8" y="137.363709"/>
     <use style="stroke:#000000;" x="52.543531" xlink:href="#m643486bbb8" y="112.344923"/>
     <use style="stroke:#000000;" x="52.543531" xlink:href="#m643486bbb8" y="112.344923"/>
     <use style="stroke:#000000;" x="55.515997" xlink:href="#m643486bbb8" y="117.529573"/>
     <use style="stroke:#000000;" x="55.515997" xlink:href="#m643486bbb8" y="117.529573"/>
     <use style="stroke:#000000;" x="67.405857" xlink:href="#m643486bbb8" y="121.401224"/>
     <use style="stroke:#000000;" x="67.405857" xlink:href="#m643486bbb8" y="121.401224"/>
     <use style="stroke:#000000;" x="46.598601" xlink:href="#m643486bbb8" y="139.20077"/>
     <use style="stroke:#000000;" x="46.598601" xlink:href="#m643486bbb8" y="139.20077"/>
     <use style="stroke:#000000;" x="85.240647" xlink:href="#m643486bbb8" y="99.481818"/>
    </g>
   </g>
  </g>
  <g id="axes_4">
   <g id="patch_17">
    <path d="M 112.525 143.2 
L 169.2 143.2 
L 169.2 97.4 
L 112.525 97.4 
z
" style="fill:#ffffff;"/>
   </g>
   <g id="matplotlib.axis_7">
    <g id="xtick_16">
     <g id="line2d_34">
      <g>
       <use style="fill:#262626;stroke:#262626;stroke-width:0.8;" x="115.101136" xlink:href="#m65112ce4df" y="143.2"/>
      </g>
     </g>
     <g id="text_18">
      <!-- 0 -->
      <g style="fill:#262626;" transform="translate(112.876761 154.9975)scale(0.08 -0.08)">
       <use xlink:href="#LiberationSans-48"/>
      </g>
     </g>
    </g>
    <g id="xtick_17">
     <g id="line2d_35">
      <g>
       <use style="fill:#262626;stroke:#262626;stroke-width:0.8;" x="126.990997" xlink:href="#m65112ce4df" y="143.2"/>
      </g>
     </g>
     <g id="text_19">
      <!-- 24 -->
      <g style="fill:#262626;" transform="translate(122.542247 154.9975)scale(0.08 -0.08)">
       <use xlink:href="#LiberationSans-50"/>
       <use x="55.615234" xlink:href="#LiberationSans-52"/>
      </g>
     </g>
    </g>
    <g id="xtick_18">
     <g id="line2d_36">
      <g>
       <use style="fill:#262626;stroke:#262626;stroke-width:0.8;" x="138.880857" xlink:href="#m65112ce4df" y="143.2"/>
      </g>
     </g>
     <g id="text_20">
      <!-- 48 -->
      <g style="fill:#262626;" transform="translate(134.432107 154.9975)scale(0.08 -0.08)">
       <use xlink:href="#LiberationSans-52"/>
       <use x="55.615234" xlink:href="#LiberationSans-56"/>
      </g>
     </g>
    </g>
    <g id="xtick_19">
     <g id="line2d_37">
      <g>
       <use style="fill:#262626;stroke:#262626;stroke-width:0.8;" x="150.770717" xlink:href="#m65112ce4df" y="143.2"/>
      </g>
     </g>
     <g id="text_21">
      <!-- 72 -->
      <g style="fill:#262626;" transform="translate(146.321967 154.9975)scale(0.08 -0.08)">
       <use xlink:href="#LiberationSans-55"/>
       <use x="55.615234" xlink:href="#LiberationSans-50"/>
      </g>
     </g>
    </g>
    <g id="xtick_20">
     <g id="line2d_38">
      <g>
       <use style="fill:#262626;stroke:#262626;stroke-width:0.8;" x="162.660577" xlink:href="#m65112ce4df" y="143.2"/>
      </g>
     </g>
     <g id="text_22">
      <!-- 96 -->
      <g style="fill:#262626;" transform="translate(158.211827 154.9975)scale(0.08 -0.08)">
       <use xlink:href="#LiberationSans-57"/>
       <use x="55.615234" xlink:href="#LiberationSans-54"/>
      </g>
     </g>
    </g>
    <g id="text_23">
     <!-- time (h) -->
     <g style="fill:#262626;" transform="translate(125.612422 167.179688)scale(0.09 -0.09)">
      <use xlink:href="#LiberationSans-116"/>
      <use x="27.783203" xlink:href="#LiberationSans-105"/>
      <use x="50" xlink:href="#LiberationSans-109"/>
      <use x="133.300781" xlink:href="#LiberationSans-101"/>
      <use x="188.916016" xlink:href="#LiberationSans-32"/>
      <use x="216.699219" xlink:href="#LiberationSans-40"/>
      <use x="250" xlink:href="#LiberationSans-104"/>
      <use x="305.615234" xlink:href="#LiberationSans-41"/>
     </g>
    </g>
   </g>
   <g id="matplotlib.axis_8">
    <g id="ytick_10">
     <g id="line2d_39">
      <g>
       <use style="fill:#262626;stroke:#262626;stroke-width:0.8;" x="112.525" xlink:href="#m30ff62f947" y="138.650942"/>
      </g>
     </g>
    </g>
    <g id="ytick_11">
     <g id="line2d_40">
      <g>
       <use style="fill:#262626;stroke:#262626;stroke-width:0.8;" x="112.525" xlink:href="#m30ff62f947" y="120.106105"/>
      </g>
     </g>
    </g>
    <g id="ytick_12">
     <g id="line2d_41">
      <g>
       <use style="fill:#262626;stroke:#262626;stroke-width:0.8;" x="112.525" xlink:href="#m30ff62f947" y="101.561268"/>
      </g>
     </g>
    </g>
   </g>
   <g id="patch_18">
    <path d="M 112.525 143.2 
L 112.525 97.4 
" style="fill:none;stroke:#262626;stroke-linecap:square;stroke-linejoin:miter;"/>
   </g>
   <g id="patch_19">
    <path d="M 169.2 143.2 
L 169.2 97.4 
" style="fill:none;stroke:#262626;stroke-linecap:square;stroke-linejoin:miter;"/>
   </g>
   <g id="patch_20">
    <path d="M 112.525 143.2 
L 169.2 143.2 
" style="fill:none;stroke:#262626;stroke-linecap:square;stroke-linejoin:miter;"/>
   </g>
   <g id="patch_21">
    <path d="M 112.525 97.4 
L 169.2 97.4 
" style="fill:none;stroke:#262626;stroke-linecap:square;stroke-linejoin:miter;"/>
   </g>
   <g id="text_24">
    <!-- Upp1 -->
    <g style="fill:#262626;" transform="translate(130.105391 91.4)scale(0.09 -0.09)">
     <defs>
      <path d="M 31.9375 -0.984375 
Q 26.859375 -0.984375 22.390625 0.328125 
Q 17.921875 1.65625 14.59375 4.390625 
Q 11.28125 7.125 9.375 11.28125 
Q 7.46875 15.4375 7.46875 21.046875 
Q 7.46875 22.078125 7.5625 23.40625 
Q 7.671875 24.75 7.84375 26.109375 
Q 8.015625 27.484375 8.203125 28.78125 
Q 8.40625 30.078125 8.59375 31 
L 15.921875 68.796875 
L 25.25 68.796875 
L 17.328125 27.640625 
Q 17 25.875 16.75 24 
Q 16.5 22.125 16.5 20.65625 
Q 16.5 17.046875 17.71875 14.40625 
Q 18.953125 11.765625 21.09375 10.03125 
Q 23.25 8.296875 26.21875 7.4375 
Q 29.203125 6.59375 32.71875 6.59375 
Q 36.96875 6.59375 40.59375 7.65625 
Q 44.234375 8.734375 47.140625 11.078125 
Q 50.046875 13.421875 52.125 17.203125 
Q 54.203125 21 55.21875 26.421875 
L 63.421875 68.796875 
L 72.703125 68.796875 
L 64.40625 25.875 
Q 63.03125 19 60.21875 13.9375 
Q 57.421875 8.890625 53.265625 5.5625 
Q 49.125 2.25 43.75 0.625 
Q 38.375 -0.984375 31.9375 -0.984375 
z
" id="LiberationSans-Italic-85"/>
      <path d="M 27.046875 -0.984375 
Q 21.046875 -0.984375 17.265625 1.5625 
Q 13.484375 4.109375 11.921875 8.6875 
L 11.671875 8.6875 
Q 11.671875 8.59375 11.5625 7.734375 
Q 11.46875 6.890625 11.265625 5.609375 
Q 11.078125 4.34375 10.8125 2.828125 
Q 10.546875 1.3125 10.25 -0.09375 
L 6.25 -20.75 
L -2.484375 -20.75 
L 9.671875 42.046875 
Q 10.0625 43.953125 10.34375 45.703125 
Q 10.640625 47.46875 10.859375 48.90625 
Q 11.078125 50.34375 11.203125 51.359375 
Q 11.328125 52.390625 11.375 52.828125 
L 19.53125 52.828125 
Q 19.53125 52.4375 19.484375 51.5625 
Q 19.4375 50.6875 19.3125 49.578125 
Q 19.1875 48.484375 19.03125 47.265625 
Q 18.890625 46.046875 18.703125 44.96875 
L 18.890625 44.96875 
Q 20.65625 47.265625 22.484375 48.921875 
Q 24.3125 50.59375 26.390625 51.6875 
Q 28.46875 52.78125 30.859375 53.296875 
Q 33.25 53.8125 36.1875 53.8125 
Q 40.09375 53.8125 43.109375 52.59375 
Q 46.140625 51.375 48.1875 49.125 
Q 50.25 46.875 51.3125 43.671875 
Q 52.390625 40.484375 52.390625 36.53125 
Q 52.390625 34.078125 52.171875 31.171875 
Q 51.953125 28.265625 51.375 25.203125 
Q 50.046875 18.265625 47.890625 13.296875 
Q 45.75 8.34375 42.71875 5.171875 
Q 39.703125 2 35.796875 0.5 
Q 31.890625 -0.984375 27.046875 -0.984375 
z
M 33.640625 47.015625 
Q 30.515625 47.015625 27.703125 46.09375 
Q 24.90625 45.171875 22.515625 42.890625 
Q 20.125 40.625 18.28125 36.765625 
Q 16.453125 32.90625 15.328125 27.046875 
Q 14.40625 22.265625 14.40625 18.40625 
Q 14.40625 15.28125 15.234375 12.859375 
Q 16.0625 10.453125 17.59375 8.8125 
Q 19.140625 7.171875 21.3125 6.34375 
Q 23.484375 5.515625 26.125 5.515625 
Q 29.15625 5.515625 31.59375 6.421875 
Q 34.03125 7.328125 36 9.546875 
Q 37.984375 11.765625 39.5 15.5 
Q 41.015625 19.234375 42.09375 24.90625 
Q 43.21875 30.8125 43.21875 34.96875 
Q 43.21875 40.96875 40.921875 43.984375 
Q 38.625 47.015625 33.640625 47.015625 
z
" id="LiberationSans-Italic-112"/>
     </defs>
     <use xlink:href="#LiberationSans-Italic-85"/>
     <use x="72.216797" xlink:href="#LiberationSans-Italic-112"/>
     <use x="127.832031" xlink:href="#LiberationSans-Italic-112"/>
     <use x="183.447266" xlink:href="#LiberationSans-Italic-49"/>
    </g>
   </g>
   <g id="line2d_42">
    <path clip-path="url(#p28dadb4e7a)" d="M 115.101136 138.650942 
L 115.621568 137.812516 
L 116.142 136.993042 
L 116.662431 136.192094 
L 117.182863 135.409251 
L 117.703294 134.644104 
L 118.223726 133.896254 
L 118.744157 133.16531 
L 119.264589 132.450888 
L 119.785021 131.752617 
L 120.305452 131.07013 
L 120.825884 130.403071 
L 121.346315 129.751091 
L 121.866747 129.11385 
L 122.387179 128.491013 
L 122.90761 127.882256 
L 123.428042 127.28726 
L 123.948473 126.705714 
L 124.468905 126.137315 
L 124.989337 125.581764 
L 125.509768 125.038771 
L 126.0302 124.508054 
L 126.550631 123.989333 
L 127.071063 123.482338 
L 127.591494 122.986804 
L 128.111926 122.502471 
L 128.632358 122.029088 
L 129.152789 121.566405 
L 129.673221 121.114181 
L 130.193652 120.67218 
L 130.714084 120.240171 
L 131.234516 119.817927 
L 131.754947 119.405228 
L 132.275379 119.001859 
L 132.79581 118.607608 
L 133.316242 118.222269 
L 133.836674 117.845641 
L 134.357105 117.477526 
L 134.877537 117.117733 
L 135.397968 116.766073 
L 135.9184 116.422363 
L 136.438831 116.086422 
L 136.959263 115.758076 
L 137.479695 115.437152 
L 138.000126 115.123482 
L 138.520558 114.816903 
L 139.040989 114.517254 
L 139.561421 114.224379 
L 140.081853 113.938125 
L 140.602284 113.658341 
L 141.122716 113.384882 
L 141.643147 113.117605 
L 142.163579 112.85637 
L 142.684011 112.60104 
L 143.204442 112.351482 
L 143.724874 112.107565 
L 144.245305 111.869162 
L 144.765737 111.636148 
L 145.286169 111.408401 
L 145.8066 111.185803 
L 146.327032 110.968237 
L 146.847463 110.755589 
L 147.367895 110.547748 
L 147.888326 110.344605 
L 148.408758 110.146054 
L 148.92919 109.951992 
L 149.449621 109.762316 
L 149.970053 109.576929 
L 150.490484 109.395732 
L 151.010916 109.218631 
L 151.531348 109.045533 
L 152.051779 108.876348 
L 152.572211 108.710988 
L 153.092642 108.549366 
L 153.613074 108.391398 
L 154.133506 108.237 
L 154.653937 108.086092 
L 155.174369 107.938596 
L 155.6948 107.794434 
L 156.215232 107.653531 
L 156.735663 107.515813 
L 157.256095 107.381209 
L 157.776527 107.249647 
L 158.296958 107.121059 
L 158.81739 106.995378 
L 159.337821 106.872537 
L 159.858253 106.752474 
L 160.378685 106.635125 
L 160.899116 106.520429 
L 161.419548 106.408325 
L 161.939979 106.298755 
L 162.460411 106.191663 
L 162.980843 106.086991 
L 163.501274 105.984685 
L 164.021706 105.884692 
L 164.542137 105.786959 
L 165.062569 105.691436 
L 165.583 105.598072 
L 166.103432 105.506819 
L 166.623864 105.417628 
" style="fill:none;stroke:#2ca02c;stroke-linecap:round;stroke-width:2;"/>
   </g>
   <g id="PathCollection_4">
    <g clip-path="url(#p28dadb4e7a)">
     <use style="stroke:#ffffff;stroke-width:0.252982;" x="115.101136" xlink:href="#m3f40adc6fd" y="138.650942"/>
     <use style="stroke:#ffffff;stroke-width:0.252982;" x="115.101136" xlink:href="#m3f40adc6fd" y="138.650942"/>
     <use style="stroke:#ffffff;stroke-width:0.252982;" x="124.018531" xlink:href="#m3f40adc6fd" y="127.563895"/>
     <use style="stroke:#ffffff;stroke-width:0.252982;" x="124.018531" xlink:href="#m3f40adc6fd" y="127.563895"/>
     <use style="stroke:#ffffff;stroke-width:0.252982;" x="126.990997" xlink:href="#m3f40adc6fd" y="133.520339"/>
     <use style="stroke:#ffffff;stroke-width:0.252982;" x="126.990997" xlink:href="#m3f40adc6fd" y="133.520339"/>
     <use style="stroke:#ffffff;stroke-width:0.252982;" x="138.880857" xlink:href="#m3f40adc6fd" y="132.694497"/>
     <use style="stroke:#ffffff;stroke-width:0.252982;" x="138.880857" xlink:href="#m3f40adc6fd" y="132.694497"/>
     <use style="stroke:#ffffff;stroke-width:0.252982;" x="118.073601" xlink:href="#m3f40adc6fd" y="126.06329"/>
     <use style="stroke:#ffffff;stroke-width:0.252982;" x="118.073601" xlink:href="#m3f40adc6fd" y="126.06329"/>
     <use style="stroke:#ffffff;stroke-width:0.252982;" x="156.715647" xlink:href="#m3f40adc6fd" y="101.561268"/>
    </g>
   </g>
   <g id="LineCollection_4">
    <path clip-path="url(#p28dadb4e7a)" d="M 115.101136 138.650942 
L 115.101136 138.650942 
" style="fill:none;stroke:#000000;"/>
    <path clip-path="url(#p28dadb4e7a)" d="M 115.101136 138.650942 
L 115.101136 138.650942 
" style="fill:none;stroke:#000000;"/>
    <path clip-path="url(#p28dadb4e7a)" d="M 124.018531 128.731812 
L 124.018531 126.395977 
" style="fill:none;stroke:#000000;"/>
    <path clip-path="url(#p28dadb4e7a)" d="M 124.018531 128.731812 
L 124.018531 126.395977 
" style="fill:none;stroke:#000000;"/>
    <path clip-path="url(#p28dadb4e7a)" d="M 126.990997 133.520339 
L 126.990997 133.520339 
" style="fill:none;stroke:#000000;"/>
    <path clip-path="url(#p28dadb4e7a)" d="M 126.990997 133.520339 
L 126.990997 133.520339 
" style="fill:none;stroke:#000000;"/>
    <path clip-path="url(#p28dadb4e7a)" d="M 138.880857 141.118182 
L 138.880857 124.270812 
" style="fill:none;stroke:#000000;"/>
    <path clip-path="url(#p28dadb4e7a)" d="M 138.880857 141.118182 
L 138.880857 124.270812 
" style="fill:none;stroke:#000000;"/>
    <path clip-path="url(#p28dadb4e7a)" d="M 118.073601 132.364799 
L 118.073601 119.76178 
" style="fill:none;stroke:#000000;"/>
    <path clip-path="url(#p28dadb4e7a)" d="M 118.073601 132.364799 
L 118.073601 119.76178 
" style="fill:none;stroke:#000000;"/>
    <path clip-path="url(#p28dadb4e7a)" d="M 156.715647 103.640718 
L 156.715647 99.481818 
" style="fill:none;stroke:#000000;"/>
   </g>
   <g id="line2d_43">
    <g clip-path="url(#p28dadb4e7a)">
     <use style="stroke:#000000;" x="115.101136" xlink:href="#m643486bbb8" y="138.650942"/>
     <use style="stroke:#000000;" x="115.101136" xlink:href="#m643486bbb8" y="138.650942"/>
     <use style="stroke:#000000;" x="124.018531" xlink:href="#m643486bbb8" y="128.731812"/>
     <use style="stroke:#000000;" x="124.018531" xlink:href="#m643486bbb8" y="128.731812"/>
     <use style="stroke:#000000;" x="126.990997" xlink:href="#m643486bbb8" y="133.520339"/>
     <use style="stroke:#000000;" x="126.990997" xlink:href="#m643486bbb8" y="133.520339"/>
     <use style="stroke:#000000;" x="138.880857" xlink:href="#m643486bbb8" y="141.118182"/>
     <use style="stroke:#000000;" x="138.880857" xlink:href="#m643486bbb8" y="141.118182"/>
     <use style="stroke:#000000;" x="118.073601" xlink:href="#m643486bbb8" y="132.364799"/>
     <use style="stroke:#000000;" x="118.073601" xlink:href="#m643486bbb8" y="132.364799"/>
     <use style="stroke:#000000;" x="156.715647" xlink:href="#m643486bbb8" y="103.640718"/>
    </g>
   </g>
   <g id="line2d_44">
    <g clip-path="url(#p28dadb4e7a)">
     <use style="stroke:#000000;" x="115.101136" xlink:href="#m643486bbb8" y="138.650942"/>
     <use style="stroke:#000000;" x="115.101136" xlink:href="#m643486bbb8" y="138.650942"/>
     <use style="stroke:#000000;" x="124.018531" xlink:href="#m643486bbb8" y="126.395977"/>
     <use style="stroke:#000000;" x="124.018531" xlink:href="#m643486bbb8" y="126.395977"/>
     <use style="stroke:#000000;" x="126.990997" xlink:href="#m643486bbb8" y="133.520339"/>
     <use style="stroke:#000000;" x="126.990997" xlink:href="#m643486bbb8" y="133.520339"/>
     <use style="stroke:#000000;" x="138.880857" xlink:href="#m643486bbb8" y="124.270812"/>
     <use style="stroke:#000000;" x="138.880857" xlink:href="#m643486bbb8" y="124.270812"/>
     <use style="stroke:#000000;" x="118.073601" xlink:href="#m643486bbb8" y="119.76178"/>
     <use style="stroke:#000000;" x="118.073601" xlink:href="#m643486bbb8" y="119.76178"/>
     <use style="stroke:#000000;" x="156.715647" xlink:href="#m643486bbb8" y="99.481818"/>
    </g>
   </g>
  </g>
 </g>
 <defs>
  <clipPath id="p8f046f5624">
   <rect height="45.8" width="56.675" x="41.05" y="23.8"/>
  </clipPath>
  <clipPath id="pf9296fa2c7">
   <rect height="45.8" width="56.675" x="112.525" y="23.8"/>
  </clipPath>
  <clipPath id="pac26eed4e7">
   <rect height="45.8" width="56.675" x="41.05" y="97.4"/>
  </clipPath>
  <clipPath id="p28dadb4e7a">
   <rect height="45.8" width="56.675" x="112.525" y="97.4"/>
  </clipPath>
 </defs>
</svg>
