<?xml version="1.0" encoding="utf-8" standalone="no"?>
<!DOCTYPE svg PUBLIC "-//W3C//DTD SVG 1.1//EN"
  "http://www.w3.org/Graphics/SVG/1.1/DTD/svg11.dtd">
<svg xmlns:xlink="http://www.w3.org/1999/xlink" width="576pt" height="144pt" viewBox="0 0 576 144" xmlns="http://www.w3.org/2000/svg" version="1.1">
 <metadata>
  <rdf:RDF xmlns:dc="http://purl.org/dc/elements/1.1/" xmlns:cc="http://creativecommons.org/ns#" xmlns:rdf="http://www.w3.org/1999/02/22-rdf-syntax-ns#">
   <cc:Work>
    <dc:type rdf:resource="http://purl.org/dc/dcmitype/StillImage"/>
    <dc:date>2022-08-10T14:19:50.778059</dc:date>
    <dc:format>image/svg+xml</dc:format>
    <dc:creator>
     <cc:Agent>
      <dc:title>Matplotlib v3.5.1, https://matplotlib.org/</dc:title>
     </cc:Agent>
    </dc:creator>
   </cc:Work>
  </rdf:RDF>
 </metadata>
 <defs>
  <style type="text/css">*{stroke-linejoin: round; stroke-linecap: butt}</style>
 </defs>
 <g id="figure_1">
  <g id="patch_1">
   <path d="M 0 144 
L 576 144 
L 576 0 
L 0 0 
z
" style="fill: #ffffff"/>
  </g>
  <g id="axes_1">
   <g id="patch_2">
    <path d="M 40.51 107.07875 
L 133.608 107.07875 
L 133.608 23.28 
L 40.51 23.28 
z
" style="fill: #ffffff"/>
   </g>
   <g id="matplotlib.axis_1">
    <g id="xtick_1">
     <g id="line2d_1">
      <defs>
       <path id="m4aaba7f0e5" d="M 0 0 
L 0 4 
" style="stroke: #262626; stroke-width: 0.8"/>
      </defs>
      <g>
       <use xlink:href="#m4aaba7f0e5" x="44.741727" y="107.07875" style="fill: #262626; stroke: #262626; stroke-width: 0.8"/>
      </g>
     </g>
     <g id="text_1">
      <!-- 0 -->
      <g style="fill: #262626" transform="translate(42.517352 118.805)scale(0.08 -0.08)">
       <defs>
        <path id="ArialMT-30" d="M 266 2259 
Q 266 3072 433 3567 
Q 600 4063 929 4331 
Q 1259 4600 1759 4600 
Q 2128 4600 2406 4451 
Q 2684 4303 2865 4023 
Q 3047 3744 3150 3342 
Q 3253 2941 3253 2259 
Q 3253 1453 3087 958 
Q 2922 463 2592 192 
Q 2263 -78 1759 -78 
Q 1097 -78 719 397 
Q 266 969 266 2259 
z
M 844 2259 
Q 844 1131 1108 757 
Q 1372 384 1759 384 
Q 2147 384 2411 759 
Q 2675 1134 2675 2259 
Q 2675 3391 2411 3762 
Q 2147 4134 1753 4134 
Q 1366 4134 1134 3806 
Q 844 3388 844 2259 
z
" transform="scale(0.015625)"/>
       </defs>
       <use xlink:href="#ArialMT-30"/>
      </g>
     </g>
    </g>
    <g id="xtick_2">
     <g id="line2d_2">
      <g>
       <use xlink:href="#m4aaba7f0e5" x="64.272776" y="107.07875" style="fill: #262626; stroke: #262626; stroke-width: 0.8"/>
      </g>
     </g>
     <g id="text_2">
      <!-- 24 -->
      <g style="fill: #262626" transform="translate(59.824026 118.805)scale(0.08 -0.08)">
       <defs>
        <path id="ArialMT-32" d="M 3222 541 
L 3222 0 
L 194 0 
Q 188 203 259 391 
Q 375 700 629 1000 
Q 884 1300 1366 1694 
Q 2113 2306 2375 2664 
Q 2638 3022 2638 3341 
Q 2638 3675 2398 3904 
Q 2159 4134 1775 4134 
Q 1369 4134 1125 3890 
Q 881 3647 878 3216 
L 300 3275 
Q 359 3922 746 4261 
Q 1134 4600 1788 4600 
Q 2447 4600 2831 4234 
Q 3216 3869 3216 3328 
Q 3216 3053 3103 2787 
Q 2991 2522 2730 2228 
Q 2469 1934 1863 1422 
Q 1356 997 1212 845 
Q 1069 694 975 541 
L 3222 541 
z
" transform="scale(0.015625)"/>
        <path id="ArialMT-34" d="M 2069 0 
L 2069 1097 
L 81 1097 
L 81 1613 
L 2172 4581 
L 2631 4581 
L 2631 1613 
L 3250 1613 
L 3250 1097 
L 2631 1097 
L 2631 0 
L 2069 0 
z
M 2069 1613 
L 2069 3678 
L 634 1613 
L 2069 1613 
z
" transform="scale(0.015625)"/>
       </defs>
       <use xlink:href="#ArialMT-32"/>
       <use xlink:href="#ArialMT-34" x="55.615234"/>
      </g>
     </g>
    </g>
    <g id="xtick_3">
     <g id="line2d_3">
      <g>
       <use xlink:href="#m4aaba7f0e5" x="83.803825" y="107.07875" style="fill: #262626; stroke: #262626; stroke-width: 0.8"/>
      </g>
     </g>
     <g id="text_3">
      <!-- 48 -->
      <g style="fill: #262626" transform="translate(79.355075 118.805)scale(0.08 -0.08)">
       <defs>
        <path id="ArialMT-38" d="M 1131 2484 
Q 781 2613 612 2850 
Q 444 3088 444 3419 
Q 444 3919 803 4259 
Q 1163 4600 1759 4600 
Q 2359 4600 2725 4251 
Q 3091 3903 3091 3403 
Q 3091 3084 2923 2848 
Q 2756 2613 2416 2484 
Q 2838 2347 3058 2040 
Q 3278 1734 3278 1309 
Q 3278 722 2862 322 
Q 2447 -78 1769 -78 
Q 1091 -78 675 323 
Q 259 725 259 1325 
Q 259 1772 486 2073 
Q 713 2375 1131 2484 
z
M 1019 3438 
Q 1019 3113 1228 2906 
Q 1438 2700 1772 2700 
Q 2097 2700 2305 2904 
Q 2513 3109 2513 3406 
Q 2513 3716 2298 3927 
Q 2084 4138 1766 4138 
Q 1444 4138 1231 3931 
Q 1019 3725 1019 3438 
z
M 838 1322 
Q 838 1081 952 856 
Q 1066 631 1291 507 
Q 1516 384 1775 384 
Q 2178 384 2440 643 
Q 2703 903 2703 1303 
Q 2703 1709 2433 1975 
Q 2163 2241 1756 2241 
Q 1359 2241 1098 1978 
Q 838 1716 838 1322 
z
" transform="scale(0.015625)"/>
       </defs>
       <use xlink:href="#ArialMT-34"/>
       <use xlink:href="#ArialMT-38" x="55.615234"/>
      </g>
     </g>
    </g>
    <g id="xtick_4">
     <g id="line2d_4">
      <g>
       <use xlink:href="#m4aaba7f0e5" x="103.334874" y="107.07875" style="fill: #262626; stroke: #262626; stroke-width: 0.8"/>
      </g>
     </g>
     <g id="text_4">
      <!-- 72 -->
      <g style="fill: #262626" transform="translate(98.886124 118.805)scale(0.08 -0.08)">
       <defs>
        <path id="ArialMT-37" d="M 303 3981 
L 303 4522 
L 3269 4522 
L 3269 4084 
Q 2831 3619 2401 2847 
Q 1972 2075 1738 1259 
Q 1569 684 1522 0 
L 944 0 
Q 953 541 1156 1306 
Q 1359 2072 1739 2783 
Q 2119 3494 2547 3981 
L 303 3981 
z
" transform="scale(0.015625)"/>
       </defs>
       <use xlink:href="#ArialMT-37"/>
       <use xlink:href="#ArialMT-32" x="55.615234"/>
      </g>
     </g>
    </g>
    <g id="xtick_5">
     <g id="line2d_5">
      <g>
       <use xlink:href="#m4aaba7f0e5" x="122.865923" y="107.07875" style="fill: #262626; stroke: #262626; stroke-width: 0.8"/>
      </g>
     </g>
     <g id="text_5">
      <!-- 96 -->
      <g style="fill: #262626" transform="translate(118.417173 118.805)scale(0.08 -0.08)">
       <defs>
        <path id="ArialMT-39" d="M 350 1059 
L 891 1109 
Q 959 728 1153 556 
Q 1347 384 1650 384 
Q 1909 384 2104 503 
Q 2300 622 2425 820 
Q 2550 1019 2634 1356 
Q 2719 1694 2719 2044 
Q 2719 2081 2716 2156 
Q 2547 1888 2255 1720 
Q 1963 1553 1622 1553 
Q 1053 1553 659 1965 
Q 266 2378 266 3053 
Q 266 3750 677 4175 
Q 1088 4600 1706 4600 
Q 2153 4600 2523 4359 
Q 2894 4119 3086 3673 
Q 3278 3228 3278 2384 
Q 3278 1506 3087 986 
Q 2897 466 2520 194 
Q 2144 -78 1638 -78 
Q 1100 -78 759 220 
Q 419 519 350 1059 
z
M 2653 3081 
Q 2653 3566 2395 3850 
Q 2138 4134 1775 4134 
Q 1400 4134 1122 3828 
Q 844 3522 844 3034 
Q 844 2597 1108 2323 
Q 1372 2050 1759 2050 
Q 2150 2050 2401 2323 
Q 2653 2597 2653 3081 
z
" transform="scale(0.015625)"/>
        <path id="ArialMT-36" d="M 3184 3459 
L 2625 3416 
Q 2550 3747 2413 3897 
Q 2184 4138 1850 4138 
Q 1581 4138 1378 3988 
Q 1113 3794 959 3422 
Q 806 3050 800 2363 
Q 1003 2672 1297 2822 
Q 1591 2972 1913 2972 
Q 2475 2972 2870 2558 
Q 3266 2144 3266 1488 
Q 3266 1056 3080 686 
Q 2894 316 2569 119 
Q 2244 -78 1831 -78 
Q 1128 -78 684 439 
Q 241 956 241 2144 
Q 241 3472 731 4075 
Q 1159 4600 1884 4600 
Q 2425 4600 2770 4297 
Q 3116 3994 3184 3459 
z
M 888 1484 
Q 888 1194 1011 928 
Q 1134 663 1356 523 
Q 1578 384 1822 384 
Q 2178 384 2434 671 
Q 2691 959 2691 1453 
Q 2691 1928 2437 2201 
Q 2184 2475 1800 2475 
Q 1419 2475 1153 2201 
Q 888 1928 888 1484 
z
" transform="scale(0.015625)"/>
       </defs>
       <use xlink:href="#ArialMT-39"/>
       <use xlink:href="#ArialMT-36" x="55.615234"/>
      </g>
     </g>
    </g>
    <g id="text_6">
     <!-- time (h) -->
     <g style="fill: #262626" transform="translate(71.808922 130.946719)scale(0.09 -0.09)">
      <defs>
       <path id="ArialMT-74" d="M 1650 503 
L 1731 6 
Q 1494 -44 1306 -44 
Q 1000 -44 831 53 
Q 663 150 594 308 
Q 525 466 525 972 
L 525 2881 
L 113 2881 
L 113 3319 
L 525 3319 
L 525 4141 
L 1084 4478 
L 1084 3319 
L 1650 3319 
L 1650 2881 
L 1084 2881 
L 1084 941 
Q 1084 700 1114 631 
Q 1144 563 1211 522 
Q 1278 481 1403 481 
Q 1497 481 1650 503 
z
" transform="scale(0.015625)"/>
       <path id="ArialMT-69" d="M 425 3934 
L 425 4581 
L 988 4581 
L 988 3934 
L 425 3934 
z
M 425 0 
L 425 3319 
L 988 3319 
L 988 0 
L 425 0 
z
" transform="scale(0.015625)"/>
       <path id="ArialMT-6d" d="M 422 0 
L 422 3319 
L 925 3319 
L 925 2853 
Q 1081 3097 1340 3245 
Q 1600 3394 1931 3394 
Q 2300 3394 2536 3241 
Q 2772 3088 2869 2813 
Q 3263 3394 3894 3394 
Q 4388 3394 4653 3120 
Q 4919 2847 4919 2278 
L 4919 0 
L 4359 0 
L 4359 2091 
Q 4359 2428 4304 2576 
Q 4250 2725 4106 2815 
Q 3963 2906 3769 2906 
Q 3419 2906 3187 2673 
Q 2956 2441 2956 1928 
L 2956 0 
L 2394 0 
L 2394 2156 
Q 2394 2531 2256 2718 
Q 2119 2906 1806 2906 
Q 1569 2906 1367 2781 
Q 1166 2656 1075 2415 
Q 984 2175 984 1722 
L 984 0 
L 422 0 
z
" transform="scale(0.015625)"/>
       <path id="ArialMT-65" d="M 2694 1069 
L 3275 997 
Q 3138 488 2766 206 
Q 2394 -75 1816 -75 
Q 1088 -75 661 373 
Q 234 822 234 1631 
Q 234 2469 665 2931 
Q 1097 3394 1784 3394 
Q 2450 3394 2872 2941 
Q 3294 2488 3294 1666 
Q 3294 1616 3291 1516 
L 816 1516 
Q 847 969 1125 678 
Q 1403 388 1819 388 
Q 2128 388 2347 550 
Q 2566 713 2694 1069 
z
M 847 1978 
L 2700 1978 
Q 2663 2397 2488 2606 
Q 2219 2931 1791 2931 
Q 1403 2931 1139 2672 
Q 875 2413 847 1978 
z
" transform="scale(0.015625)"/>
       <path id="ArialMT-20" transform="scale(0.015625)"/>
       <path id="ArialMT-28" d="M 1497 -1347 
Q 1031 -759 709 28 
Q 388 816 388 1659 
Q 388 2403 628 3084 
Q 909 3875 1497 4659 
L 1900 4659 
Q 1522 4009 1400 3731 
Q 1209 3300 1100 2831 
Q 966 2247 966 1656 
Q 966 153 1900 -1347 
L 1497 -1347 
z
" transform="scale(0.015625)"/>
       <path id="ArialMT-68" d="M 422 0 
L 422 4581 
L 984 4581 
L 984 2938 
Q 1378 3394 1978 3394 
Q 2347 3394 2619 3248 
Q 2891 3103 3008 2847 
Q 3125 2591 3125 2103 
L 3125 0 
L 2563 0 
L 2563 2103 
Q 2563 2525 2380 2717 
Q 2197 2909 1863 2909 
Q 1613 2909 1392 2779 
Q 1172 2650 1078 2428 
Q 984 2206 984 1816 
L 984 0 
L 422 0 
z
" transform="scale(0.015625)"/>
       <path id="ArialMT-29" d="M 791 -1347 
L 388 -1347 
Q 1322 153 1322 1656 
Q 1322 2244 1188 2822 
Q 1081 3291 891 3722 
Q 769 4003 388 4659 
L 791 4659 
Q 1378 3875 1659 3084 
Q 1900 2403 1900 1659 
Q 1900 816 1576 28 
Q 1253 -759 791 -1347 
z
" transform="scale(0.015625)"/>
      </defs>
      <use xlink:href="#ArialMT-74"/>
      <use xlink:href="#ArialMT-69" x="27.783203"/>
      <use xlink:href="#ArialMT-6d" x="50"/>
      <use xlink:href="#ArialMT-65" x="133.300781"/>
      <use xlink:href="#ArialMT-20" x="188.916016"/>
      <use xlink:href="#ArialMT-28" x="216.699219"/>
      <use xlink:href="#ArialMT-68" x="250"/>
      <use xlink:href="#ArialMT-29" x="305.615234"/>
     </g>
    </g>
   </g>
   <g id="matplotlib.axis_2">
    <g id="ytick_1">
     <g id="line2d_6">
      <defs>
       <path id="ma59491b383" d="M 0 0 
L -4 0 
" style="stroke: #262626; stroke-width: 0.8"/>
      </defs>
      <g>
       <use xlink:href="#ma59491b383" x="40.51" y="92.667336" style="fill: #262626; stroke: #262626; stroke-width: 0.8"/>
      </g>
     </g>
     <g id="text_7">
      <!-- 0.0 -->
      <g style="fill: #262626" transform="translate(23.39 95.530461)scale(0.08 -0.08)">
       <defs>
        <path id="ArialMT-2e" d="M 581 0 
L 581 641 
L 1222 641 
L 1222 0 
L 581 0 
z
" transform="scale(0.015625)"/>
       </defs>
       <use xlink:href="#ArialMT-30"/>
       <use xlink:href="#ArialMT-2e" x="55.615234"/>
       <use xlink:href="#ArialMT-30" x="83.398438"/>
      </g>
     </g>
    </g>
    <g id="ytick_2">
     <g id="line2d_7">
      <g>
       <use xlink:href="#ma59491b383" x="40.51" y="61.915647" style="fill: #262626; stroke: #262626; stroke-width: 0.8"/>
      </g>
     </g>
     <g id="text_8">
      <!-- 0.5 -->
      <g style="fill: #262626" transform="translate(23.39 64.778772)scale(0.08 -0.08)">
       <defs>
        <path id="ArialMT-35" d="M 266 1200 
L 856 1250 
Q 922 819 1161 601 
Q 1400 384 1738 384 
Q 2144 384 2425 690 
Q 2706 997 2706 1503 
Q 2706 1984 2436 2262 
Q 2166 2541 1728 2541 
Q 1456 2541 1237 2417 
Q 1019 2294 894 2097 
L 366 2166 
L 809 4519 
L 3088 4519 
L 3088 3981 
L 1259 3981 
L 1013 2750 
Q 1425 3038 1878 3038 
Q 2478 3038 2890 2622 
Q 3303 2206 3303 1553 
Q 3303 931 2941 478 
Q 2500 -78 1738 -78 
Q 1113 -78 717 272 
Q 322 622 266 1200 
z
" transform="scale(0.015625)"/>
       </defs>
       <use xlink:href="#ArialMT-30"/>
       <use xlink:href="#ArialMT-2e" x="55.615234"/>
       <use xlink:href="#ArialMT-35" x="83.398438"/>
      </g>
     </g>
    </g>
    <g id="ytick_3">
     <g id="line2d_8">
      <g>
       <use xlink:href="#ma59491b383" x="40.51" y="31.163958" style="fill: #262626; stroke: #262626; stroke-width: 0.8"/>
      </g>
     </g>
     <g id="text_9">
      <!-- 1.0 -->
      <g style="fill: #262626" transform="translate(23.39 34.027083)scale(0.08 -0.08)">
       <defs>
        <path id="ArialMT-31" d="M 2384 0 
L 1822 0 
L 1822 3584 
Q 1619 3391 1289 3197 
Q 959 3003 697 2906 
L 697 3450 
Q 1169 3672 1522 3987 
Q 1875 4303 2022 4600 
L 2384 4600 
L 2384 0 
z
" transform="scale(0.015625)"/>
       </defs>
       <use xlink:href="#ArialMT-31"/>
       <use xlink:href="#ArialMT-2e" x="55.615234"/>
       <use xlink:href="#ArialMT-30" x="83.398438"/>
      </g>
     </g>
    </g>
    <g id="text_10">
     <!-- expr. norm. -->
     <g style="fill: #262626" transform="translate(17.60125 87.687109)rotate(-90)scale(0.09 -0.09)">
      <defs>
       <path id="ArialMT-78" d="M 47 0 
L 1259 1725 
L 138 3319 
L 841 3319 
L 1350 2541 
Q 1494 2319 1581 2169 
Q 1719 2375 1834 2534 
L 2394 3319 
L 3066 3319 
L 1919 1756 
L 3153 0 
L 2463 0 
L 1781 1031 
L 1600 1309 
L 728 0 
L 47 0 
z
" transform="scale(0.015625)"/>
       <path id="ArialMT-70" d="M 422 -1272 
L 422 3319 
L 934 3319 
L 934 2888 
Q 1116 3141 1344 3267 
Q 1572 3394 1897 3394 
Q 2322 3394 2647 3175 
Q 2972 2956 3137 2557 
Q 3303 2159 3303 1684 
Q 3303 1175 3120 767 
Q 2938 359 2589 142 
Q 2241 -75 1856 -75 
Q 1575 -75 1351 44 
Q 1128 163 984 344 
L 984 -1272 
L 422 -1272 
z
M 931 1641 
Q 931 1000 1190 694 
Q 1450 388 1819 388 
Q 2194 388 2461 705 
Q 2728 1022 2728 1688 
Q 2728 2322 2467 2637 
Q 2206 2953 1844 2953 
Q 1484 2953 1207 2617 
Q 931 2281 931 1641 
z
" transform="scale(0.015625)"/>
       <path id="ArialMT-72" d="M 416 0 
L 416 3319 
L 922 3319 
L 922 2816 
Q 1116 3169 1280 3281 
Q 1444 3394 1641 3394 
Q 1925 3394 2219 3213 
L 2025 2691 
Q 1819 2813 1613 2813 
Q 1428 2813 1281 2702 
Q 1134 2591 1072 2394 
Q 978 2094 978 1738 
L 978 0 
L 416 0 
z
" transform="scale(0.015625)"/>
       <path id="ArialMT-6e" d="M 422 0 
L 422 3319 
L 928 3319 
L 928 2847 
Q 1294 3394 1984 3394 
Q 2284 3394 2536 3286 
Q 2788 3178 2913 3003 
Q 3038 2828 3088 2588 
Q 3119 2431 3119 2041 
L 3119 0 
L 2556 0 
L 2556 2019 
Q 2556 2363 2490 2533 
Q 2425 2703 2258 2804 
Q 2091 2906 1866 2906 
Q 1506 2906 1245 2678 
Q 984 2450 984 1813 
L 984 0 
L 422 0 
z
" transform="scale(0.015625)"/>
       <path id="ArialMT-6f" d="M 213 1659 
Q 213 2581 725 3025 
Q 1153 3394 1769 3394 
Q 2453 3394 2887 2945 
Q 3322 2497 3322 1706 
Q 3322 1066 3130 698 
Q 2938 331 2570 128 
Q 2203 -75 1769 -75 
Q 1072 -75 642 372 
Q 213 819 213 1659 
z
M 791 1659 
Q 791 1022 1069 705 
Q 1347 388 1769 388 
Q 2188 388 2466 706 
Q 2744 1025 2744 1678 
Q 2744 2294 2464 2611 
Q 2184 2928 1769 2928 
Q 1347 2928 1069 2612 
Q 791 2297 791 1659 
z
" transform="scale(0.015625)"/>
      </defs>
      <use xlink:href="#ArialMT-65"/>
      <use xlink:href="#ArialMT-78" x="55.615234"/>
      <use xlink:href="#ArialMT-70" x="105.615234"/>
      <use xlink:href="#ArialMT-72" x="161.230469"/>
      <use xlink:href="#ArialMT-2e" x="189.03125"/>
      <use xlink:href="#ArialMT-20" x="216.814453"/>
      <use xlink:href="#ArialMT-6e" x="244.597656"/>
      <use xlink:href="#ArialMT-6f" x="300.212891"/>
      <use xlink:href="#ArialMT-72" x="355.828125"/>
      <use xlink:href="#ArialMT-6d" x="389.128906"/>
      <use xlink:href="#ArialMT-2e" x="472.429688"/>
     </g>
    </g>
   </g>
   <g id="patch_3">
    <path d="M 40.51 107.07875 
L 40.51 23.28 
" style="fill: none; stroke: #262626; stroke-linejoin: miter; stroke-linecap: square"/>
   </g>
   <g id="patch_4">
    <path d="M 133.608 107.07875 
L 133.608 23.28 
" style="fill: none; stroke: #262626; stroke-linejoin: miter; stroke-linecap: square"/>
   </g>
   <g id="patch_5">
    <path d="M 40.51 107.07875 
L 133.608 107.07875 
" style="fill: none; stroke: #262626; stroke-linejoin: miter; stroke-linecap: square"/>
   </g>
   <g id="patch_6">
    <path d="M 40.51 23.28 
L 133.608 23.28 
" style="fill: none; stroke: #262626; stroke-linejoin: miter; stroke-linecap: square"/>
   </g>
   <g id="text_11">
    <!-- Sdf2l1 -->
    <g style="fill: #262626" transform="translate(74.300094 17.28)scale(0.09 -0.09)">
     <defs>
      <path id="ArialMT-53" d="M 288 1472 
L 859 1522 
Q 900 1178 1048 958 
Q 1197 738 1509 602 
Q 1822 466 2213 466 
Q 2559 466 2825 569 
Q 3091 672 3220 851 
Q 3350 1031 3350 1244 
Q 3350 1459 3225 1620 
Q 3100 1781 2813 1891 
Q 2628 1963 1997 2114 
Q 1366 2266 1113 2400 
Q 784 2572 623 2826 
Q 463 3081 463 3397 
Q 463 3744 659 4045 
Q 856 4347 1234 4503 
Q 1613 4659 2075 4659 
Q 2584 4659 2973 4495 
Q 3363 4331 3572 4012 
Q 3781 3694 3797 3291 
L 3216 3247 
Q 3169 3681 2898 3903 
Q 2628 4125 2100 4125 
Q 1550 4125 1298 3923 
Q 1047 3722 1047 3438 
Q 1047 3191 1225 3031 
Q 1400 2872 2139 2705 
Q 2878 2538 3153 2413 
Q 3553 2228 3743 1945 
Q 3934 1663 3934 1294 
Q 3934 928 3725 604 
Q 3516 281 3123 101 
Q 2731 -78 2241 -78 
Q 1619 -78 1198 103 
Q 778 284 539 648 
Q 300 1013 288 1472 
z
" transform="scale(0.015625)"/>
      <path id="ArialMT-64" d="M 2575 0 
L 2575 419 
Q 2259 -75 1647 -75 
Q 1250 -75 917 144 
Q 584 363 401 755 
Q 219 1147 219 1656 
Q 219 2153 384 2558 
Q 550 2963 881 3178 
Q 1213 3394 1622 3394 
Q 1922 3394 2156 3267 
Q 2391 3141 2538 2938 
L 2538 4581 
L 3097 4581 
L 3097 0 
L 2575 0 
z
M 797 1656 
Q 797 1019 1065 703 
Q 1334 388 1700 388 
Q 2069 388 2326 689 
Q 2584 991 2584 1609 
Q 2584 2291 2321 2609 
Q 2059 2928 1675 2928 
Q 1300 2928 1048 2622 
Q 797 2316 797 1656 
z
" transform="scale(0.015625)"/>
      <path id="ArialMT-66" d="M 556 0 
L 556 2881 
L 59 2881 
L 59 3319 
L 556 3319 
L 556 3672 
Q 556 4006 616 4169 
Q 697 4388 901 4523 
Q 1106 4659 1475 4659 
Q 1713 4659 2000 4603 
L 1916 4113 
Q 1741 4144 1584 4144 
Q 1328 4144 1222 4034 
Q 1116 3925 1116 3625 
L 1116 3319 
L 1763 3319 
L 1763 2881 
L 1116 2881 
L 1116 0 
L 556 0 
z
" transform="scale(0.015625)"/>
      <path id="ArialMT-6c" d="M 409 0 
L 409 4581 
L 972 4581 
L 972 0 
L 409 0 
z
" transform="scale(0.015625)"/>
     </defs>
     <use xlink:href="#ArialMT-53"/>
     <use xlink:href="#ArialMT-64" x="66.699219"/>
     <use xlink:href="#ArialMT-66" x="122.314453"/>
     <use xlink:href="#ArialMT-32" x="150.097656"/>
     <use xlink:href="#ArialMT-6c" x="205.712891"/>
     <use xlink:href="#ArialMT-31" x="227.929688"/>
    </g>
   </g>
   <g id="line2d_9">
    <path d="M 44.741727 92.667336 
L 45.596622 89.848175 
L 46.451516 87.158238 
L 47.30641 84.5916 
L 48.161305 82.142611 
L 49.016199 79.805878 
L 49.871094 77.576254 
L 50.725988 75.448831 
L 51.580882 73.418923 
L 52.435777 71.482061 
L 53.290671 69.633981 
L 54.145566 67.870611 
L 55.00046 66.18807 
L 55.855354 64.582653 
L 56.710249 63.050824 
L 57.565143 61.58921 
L 58.420038 60.194593 
L 59.274932 58.863901 
L 60.129826 57.594205 
L 60.984721 56.382709 
L 61.839615 55.226745 
L 62.69451 54.123767 
L 63.549404 53.071347 
L 64.404298 52.067167 
L 65.259193 51.109016 
L 66.114087 50.194785 
L 66.968982 49.322459 
L 67.823876 48.490119 
L 68.67877 47.695931 
L 69.533665 46.938147 
L 70.388559 46.215098 
L 71.243454 45.525191 
L 72.098348 44.866909 
L 72.953242 44.2388 
L 73.808137 43.639482 
L 74.663031 43.067635 
L 75.517926 42.522 
L 76.37282 42.001376 
L 77.227714 41.504616 
L 78.082609 41.030626 
L 78.937503 40.578363 
L 79.792398 40.14683 
L 80.647292 39.735078 
L 81.502186 39.342199 
L 82.357081 38.967329 
L 83.211975 38.609642 
L 84.06687 38.268351 
L 84.921764 37.942703 
L 85.776658 37.631982 
L 86.631553 37.335504 
L 87.486447 37.052616 
L 88.341342 36.782695 
L 89.196236 36.525146 
L 90.05113 36.279403 
L 90.906025 36.044924 
L 91.760919 35.821192 
L 92.615814 35.607716 
L 93.470708 35.404026 
L 94.325602 35.209672 
L 95.180497 35.024226 
L 96.035391 34.847281 
L 96.890286 34.678447 
L 97.74518 34.517352 
L 98.600074 34.36364 
L 99.454969 34.216975 
L 100.309863 34.077032 
L 101.164758 33.943504 
L 102.019652 33.816097 
L 102.874546 33.694529 
L 103.729441 33.578534 
L 104.584335 33.467856 
L 105.43923 33.362251 
L 106.294124 33.261487 
L 107.149018 33.165342 
L 108.003913 33.073603 
L 108.858807 32.98607 
L 109.713702 32.902549 
L 110.568596 32.822856 
L 111.42349 32.746816 
L 112.278385 32.674262 
L 113.133279 32.605034 
L 113.988174 32.538978 
L 114.843068 32.475951 
L 115.697962 32.415812 
L 116.552857 32.358431 
L 117.407751 32.303679 
L 118.262646 32.251437 
L 119.11754 32.20159 
L 119.972434 32.154027 
L 120.827329 32.108645 
L 121.682223 32.065343 
L 122.537118 32.024026 
L 123.392012 31.984602 
L 124.246906 31.946986 
L 125.101801 31.911094 
L 125.956695 31.876847 
L 126.81159 31.84417 
L 127.666484 31.812991 
L 128.521378 31.783241 
L 129.376273 31.754855 
" clip-path="url(#p159858ba56)" style="fill: none; stroke: #2ca02c; stroke-width: 2; stroke-linecap: round"/>
   </g>
   <g id="PathCollection_1">
    <defs>
     <path id="m6b78c5c7b1" d="M 0 2.8 
C 0.742569 2.8 1.454824 2.504974 1.979899 1.979899 
C 2.504974 1.454824 2.8 0.742569 2.8 0 
C 2.8 -0.742569 2.504974 -1.454824 1.979899 -1.979899 
C 1.454824 -2.504974 0.742569 -2.8 0 -2.8 
C -0.742569 -2.8 -1.454824 -2.504974 -1.979899 -1.979899 
C -2.504974 -1.454824 -2.8 -0.742569 -2.8 0 
C -2.8 0.742569 -2.504974 1.454824 -1.979899 1.979899 
C -1.454824 2.504974 -0.742569 2.8 0 2.8 
z
" style="stroke: #ffffff; stroke-width: 0.448"/>
    </defs>
    <g clip-path="url(#p159858ba56)">
     <use xlink:href="#m6b78c5c7b1" x="44.741727" y="92.667336" style="stroke: #ffffff; stroke-width: 0.448"/>
     <use xlink:href="#m6b78c5c7b1" x="44.741727" y="92.667336" style="stroke: #ffffff; stroke-width: 0.448"/>
     <use xlink:href="#m6b78c5c7b1" x="59.390014" y="46.683019" style="stroke: #ffffff; stroke-width: 0.448"/>
     <use xlink:href="#m6b78c5c7b1" x="59.390014" y="46.683019" style="stroke: #ffffff; stroke-width: 0.448"/>
     <use xlink:href="#m6b78c5c7b1" x="64.272776" y="40.406189" style="stroke: #ffffff; stroke-width: 0.448"/>
     <use xlink:href="#m6b78c5c7b1" x="64.272776" y="40.406189" style="stroke: #ffffff; stroke-width: 0.448"/>
     <use xlink:href="#m6b78c5c7b1" x="83.803825" y="39.225489" style="stroke: #ffffff; stroke-width: 0.448"/>
     <use xlink:href="#m6b78c5c7b1" x="83.803825" y="39.225489" style="stroke: #ffffff; stroke-width: 0.448"/>
     <use xlink:href="#m6b78c5c7b1" x="49.62449" y="94.566383" style="stroke: #ffffff; stroke-width: 0.448"/>
     <use xlink:href="#m6b78c5c7b1" x="49.62449" y="94.566383" style="stroke: #ffffff; stroke-width: 0.448"/>
     <use xlink:href="#m6b78c5c7b1" x="113.100399" y="31.163958" style="stroke: #ffffff; stroke-width: 0.448"/>
    </g>
   </g>
   <g id="LineCollection_1">
    <path d="M 44.741727 95.125151 
L 44.741727 90.20952 
" clip-path="url(#p159858ba56)" style="fill: none; stroke: #000000"/>
    <path d="M 44.741727 95.125151 
L 44.741727 90.20952 
" clip-path="url(#p159858ba56)" style="fill: none; stroke: #000000"/>
    <path d="M 59.390014 62.204767 
L 59.390014 31.161271 
" clip-path="url(#p159858ba56)" style="fill: none; stroke: #000000"/>
    <path d="M 59.390014 62.204767 
L 59.390014 31.161271 
" clip-path="url(#p159858ba56)" style="fill: none; stroke: #000000"/>
    <path d="M 64.272776 53.723344 
L 64.272776 27.089034 
" clip-path="url(#p159858ba56)" style="fill: none; stroke: #000000"/>
    <path d="M 64.272776 53.723344 
L 64.272776 27.089034 
" clip-path="url(#p159858ba56)" style="fill: none; stroke: #000000"/>
    <path d="M 83.803825 42.211409 
L 83.803825 36.239569 
" clip-path="url(#p159858ba56)" style="fill: none; stroke: #000000"/>
    <path d="M 83.803825 42.211409 
L 83.803825 36.239569 
" clip-path="url(#p159858ba56)" style="fill: none; stroke: #000000"/>
    <path d="M 49.62449 103.269716 
L 49.62449 85.86305 
" clip-path="url(#p159858ba56)" style="fill: none; stroke: #000000"/>
    <path d="M 49.62449 103.269716 
L 49.62449 85.86305 
" clip-path="url(#p159858ba56)" style="fill: none; stroke: #000000"/>
    <path d="M 113.100399 33.377162 
L 113.100399 28.950754 
" clip-path="url(#p159858ba56)" style="fill: none; stroke: #000000"/>
   </g>
   <g id="line2d_10">
    <defs>
     <path id="mb181b35335" d="M 5 0 
L -5 -0 
" style="stroke: #000000"/>
    </defs>
    <g clip-path="url(#p159858ba56)">
     <use xlink:href="#mb181b35335" x="44.741727" y="95.125151" style="stroke: #000000"/>
     <use xlink:href="#mb181b35335" x="44.741727" y="95.125151" style="stroke: #000000"/>
     <use xlink:href="#mb181b35335" x="59.390014" y="62.204767" style="stroke: #000000"/>
     <use xlink:href="#mb181b35335" x="59.390014" y="62.204767" style="stroke: #000000"/>
     <use xlink:href="#mb181b35335" x="64.272776" y="53.723344" style="stroke: #000000"/>
     <use xlink:href="#mb181b35335" x="64.272776" y="53.723344" style="stroke: #000000"/>
     <use xlink:href="#mb181b35335" x="83.803825" y="42.211409" style="stroke: #000000"/>
     <use xlink:href="#mb181b35335" x="83.803825" y="42.211409" style="stroke: #000000"/>
     <use xlink:href="#mb181b35335" x="49.62449" y="103.269716" style="stroke: #000000"/>
     <use xlink:href="#mb181b35335" x="49.62449" y="103.269716" style="stroke: #000000"/>
     <use xlink:href="#mb181b35335" x="113.100399" y="33.377162" style="stroke: #000000"/>
    </g>
   </g>
   <g id="line2d_11">
    <g clip-path="url(#p159858ba56)">
     <use xlink:href="#mb181b35335" x="44.741727" y="90.20952" style="stroke: #000000"/>
     <use xlink:href="#mb181b35335" x="44.741727" y="90.20952" style="stroke: #000000"/>
     <use xlink:href="#mb181b35335" x="59.390014" y="31.161271" style="stroke: #000000"/>
     <use xlink:href="#mb181b35335" x="59.390014" y="31.161271" style="stroke: #000000"/>
     <use xlink:href="#mb181b35335" x="64.272776" y="27.089034" style="stroke: #000000"/>
     <use xlink:href="#mb181b35335" x="64.272776" y="27.089034" style="stroke: #000000"/>
     <use xlink:href="#mb181b35335" x="83.803825" y="36.239569" style="stroke: #000000"/>
     <use xlink:href="#mb181b35335" x="83.803825" y="36.239569" style="stroke: #000000"/>
     <use xlink:href="#mb181b35335" x="49.62449" y="85.86305" style="stroke: #000000"/>
     <use xlink:href="#mb181b35335" x="49.62449" y="85.86305" style="stroke: #000000"/>
     <use xlink:href="#mb181b35335" x="113.100399" y="28.950754" style="stroke: #000000"/>
    </g>
   </g>
  </g>
  <g id="axes_2">
   <g id="patch_7">
    <path d="M 148.408 107.07875 
L 241.506 107.07875 
L 241.506 23.28 
L 148.408 23.28 
z
" style="fill: #ffffff"/>
   </g>
   <g id="matplotlib.axis_3">
    <g id="xtick_6">
     <g id="line2d_12">
      <g>
       <use xlink:href="#m4aaba7f0e5" x="152.639727" y="107.07875" style="fill: #262626; stroke: #262626; stroke-width: 0.8"/>
      </g>
     </g>
     <g id="text_12">
      <!-- 0 -->
      <g style="fill: #262626" transform="translate(150.415352 118.805)scale(0.08 -0.08)">
       <use xlink:href="#ArialMT-30"/>
      </g>
     </g>
    </g>
    <g id="xtick_7">
     <g id="line2d_13">
      <g>
       <use xlink:href="#m4aaba7f0e5" x="172.170776" y="107.07875" style="fill: #262626; stroke: #262626; stroke-width: 0.8"/>
      </g>
     </g>
     <g id="text_13">
      <!-- 24 -->
      <g style="fill: #262626" transform="translate(167.722026 118.805)scale(0.08 -0.08)">
       <use xlink:href="#ArialMT-32"/>
       <use xlink:href="#ArialMT-34" x="55.615234"/>
      </g>
     </g>
    </g>
    <g id="xtick_8">
     <g id="line2d_14">
      <g>
       <use xlink:href="#m4aaba7f0e5" x="191.701825" y="107.07875" style="fill: #262626; stroke: #262626; stroke-width: 0.8"/>
      </g>
     </g>
     <g id="text_14">
      <!-- 48 -->
      <g style="fill: #262626" transform="translate(187.253075 118.805)scale(0.08 -0.08)">
       <use xlink:href="#ArialMT-34"/>
       <use xlink:href="#ArialMT-38" x="55.615234"/>
      </g>
     </g>
    </g>
    <g id="xtick_9">
     <g id="line2d_15">
      <g>
       <use xlink:href="#m4aaba7f0e5" x="211.232874" y="107.07875" style="fill: #262626; stroke: #262626; stroke-width: 0.8"/>
      </g>
     </g>
     <g id="text_15">
      <!-- 72 -->
      <g style="fill: #262626" transform="translate(206.784124 118.805)scale(0.08 -0.08)">
       <use xlink:href="#ArialMT-37"/>
       <use xlink:href="#ArialMT-32" x="55.615234"/>
      </g>
     </g>
    </g>
    <g id="xtick_10">
     <g id="line2d_16">
      <g>
       <use xlink:href="#m4aaba7f0e5" x="230.763923" y="107.07875" style="fill: #262626; stroke: #262626; stroke-width: 0.8"/>
      </g>
     </g>
     <g id="text_16">
      <!-- 96 -->
      <g style="fill: #262626" transform="translate(226.315173 118.805)scale(0.08 -0.08)">
       <use xlink:href="#ArialMT-39"/>
       <use xlink:href="#ArialMT-36" x="55.615234"/>
      </g>
     </g>
    </g>
    <g id="text_17">
     <!-- time (h) -->
     <g style="fill: #262626" transform="translate(179.706922 130.946719)scale(0.09 -0.09)">
      <use xlink:href="#ArialMT-74"/>
      <use xlink:href="#ArialMT-69" x="27.783203"/>
      <use xlink:href="#ArialMT-6d" x="50"/>
      <use xlink:href="#ArialMT-65" x="133.300781"/>
      <use xlink:href="#ArialMT-20" x="188.916016"/>
      <use xlink:href="#ArialMT-28" x="216.699219"/>
      <use xlink:href="#ArialMT-68" x="250"/>
      <use xlink:href="#ArialMT-29" x="305.615234"/>
     </g>
    </g>
   </g>
   <g id="matplotlib.axis_4">
    <g id="ytick_4">
     <g id="line2d_17">
      <g>
       <use xlink:href="#ma59491b383" x="148.408" y="96.368652" style="fill: #262626; stroke: #262626; stroke-width: 0.8"/>
      </g>
     </g>
    </g>
    <g id="ytick_5">
     <g id="line2d_18">
      <g>
       <use xlink:href="#ma59491b383" x="148.408" y="63.542979" style="fill: #262626; stroke: #262626; stroke-width: 0.8"/>
      </g>
     </g>
    </g>
    <g id="ytick_6">
     <g id="line2d_19">
      <g>
       <use xlink:href="#ma59491b383" x="148.408" y="30.717305" style="fill: #262626; stroke: #262626; stroke-width: 0.8"/>
      </g>
     </g>
    </g>
   </g>
   <g id="patch_8">
    <path d="M 148.408 107.07875 
L 148.408 23.28 
" style="fill: none; stroke: #262626; stroke-linejoin: miter; stroke-linecap: square"/>
   </g>
   <g id="patch_9">
    <path d="M 241.506 107.07875 
L 241.506 23.28 
" style="fill: none; stroke: #262626; stroke-linejoin: miter; stroke-linecap: square"/>
   </g>
   <g id="patch_10">
    <path d="M 148.408 107.07875 
L 241.506 107.07875 
" style="fill: none; stroke: #262626; stroke-linejoin: miter; stroke-linecap: square"/>
   </g>
   <g id="patch_11">
    <path d="M 148.408 23.28 
L 241.506 23.28 
" style="fill: none; stroke: #262626; stroke-linejoin: miter; stroke-linecap: square"/>
   </g>
   <g id="line2d_20">
    <path d="M 152.639727 96.368652 
L 153.494622 96.368652 
L 154.349516 96.368652 
L 155.20441 96.368652 
L 156.059305 96.368652 
L 156.914199 96.368652 
L 157.769094 96.368652 
L 158.623988 96.368652 
L 159.478882 96.368652 
L 160.333777 96.368652 
L 161.188671 96.368652 
L 162.043566 96.368652 
L 162.89846 96.368652 
L 163.753354 96.368652 
L 164.608249 96.368652 
L 165.463143 96.368652 
L 166.318038 96.368652 
L 167.172932 96.368652 
L 168.027826 96.368652 
L 168.882721 96.368652 
L 169.737615 96.368651 
L 170.59251 96.368648 
L 171.447404 96.368636 
L 172.302298 96.368595 
L 173.157193 96.368467 
L 174.012087 96.368103 
L 174.866982 96.367151 
L 175.721876 96.364843 
L 176.57677 96.35963 
L 177.431665 96.348605 
L 178.286559 96.326678 
L 179.141454 96.285497 
L 179.996348 96.212197 
L 180.851242 96.088128 
L 181.706137 95.887831 
L 182.561031 95.578559 
L 183.415926 95.120672 
L 184.27082 94.46914 
L 185.125714 93.576253 
L 185.980609 92.395403 
L 186.835503 90.885605 
L 187.690398 89.016219 
L 188.545292 86.771246 
L 189.400186 84.152555 
L 190.255081 81.181549 
L 191.109975 77.898978 
L 191.96487 74.362867 
L 192.819764 70.644819 
L 193.674658 66.825137 
L 194.529553 62.987345 
L 195.384447 59.212751 
L 196.239342 55.575586 
L 197.094236 52.139153 
L 197.94913 48.953253 
L 198.804025 46.052934 
L 199.658919 43.458512 
L 200.513814 41.176632 
L 201.368708 39.202098 
L 202.223602 37.520185 
L 203.078497 36.109129 
L 203.933391 34.942559 
L 204.788286 33.991702 
L 205.64318 33.227237 
L 206.498074 32.620735 
L 207.352969 32.145706 
L 208.207863 31.778257 
L 209.062758 31.497438 
L 209.917652 31.285323 
L 210.772546 31.126913 
L 211.627441 31.00991 
L 212.482335 30.92441 
L 213.33723 30.862578 
L 214.192124 30.818312 
L 215.047018 30.786932 
L 215.901913 30.764898 
L 216.756807 30.74957 
L 217.611702 30.739003 
L 218.466596 30.731782 
L 219.32149 30.726891 
L 220.176385 30.723604 
L 221.031279 30.721414 
L 221.886174 30.719966 
L 222.741068 30.719016 
L 223.595962 30.718398 
L 224.450857 30.717998 
L 225.305751 30.717742 
L 226.160646 30.717579 
L 227.01554 30.717475 
L 227.870434 30.71741 
L 228.725329 30.71737 
L 229.580223 30.717345 
L 230.435118 30.717329 
L 231.290012 30.71732 
L 232.144906 30.717314 
L 232.999801 30.71731 
L 233.854695 30.717308 
L 234.70959 30.717307 
L 235.564484 30.717306 
L 236.419378 30.717306 
L 237.274273 30.717305 
" clip-path="url(#p3a90783f3f)" style="fill: none; stroke: #1f77b4; stroke-width: 2; stroke-linecap: round"/>
   </g>
   <g id="text_18">
    <!-- Alox12 -->
    <g style="fill: #262626" transform="translate(181.19825 17.28)scale(0.09 -0.09)">
     <defs>
      <path id="ArialMT-41" d="M -9 0 
L 1750 4581 
L 2403 4581 
L 4278 0 
L 3588 0 
L 3053 1388 
L 1138 1388 
L 634 0 
L -9 0 
z
M 1313 1881 
L 2866 1881 
L 2388 3150 
Q 2169 3728 2063 4100 
Q 1975 3659 1816 3225 
L 1313 1881 
z
" transform="scale(0.015625)"/>
     </defs>
     <use xlink:href="#ArialMT-41"/>
     <use xlink:href="#ArialMT-6c" x="66.699219"/>
     <use xlink:href="#ArialMT-6f" x="88.916016"/>
     <use xlink:href="#ArialMT-78" x="144.53125"/>
     <use xlink:href="#ArialMT-31" x="194.53125"/>
     <use xlink:href="#ArialMT-32" x="250.146484"/>
    </g>
   </g>
   <g id="PathCollection_2">
    <g clip-path="url(#p3a90783f3f)">
     <use xlink:href="#m6b78c5c7b1" x="152.639727" y="96.368652" style="stroke: #ffffff; stroke-width: 0.448"/>
     <use xlink:href="#m6b78c5c7b1" x="152.639727" y="96.368652" style="stroke: #ffffff; stroke-width: 0.448"/>
     <use xlink:href="#m6b78c5c7b1" x="167.288014" y="92.826602" style="stroke: #ffffff; stroke-width: 0.448"/>
     <use xlink:href="#m6b78c5c7b1" x="167.288014" y="92.826602" style="stroke: #ffffff; stroke-width: 0.448"/>
     <use xlink:href="#m6b78c5c7b1" x="172.170776" y="95.882276" style="stroke: #ffffff; stroke-width: 0.448"/>
     <use xlink:href="#m6b78c5c7b1" x="172.170776" y="95.882276" style="stroke: #ffffff; stroke-width: 0.448"/>
     <use xlink:href="#m6b78c5c7b1" x="191.701825" y="75.473815" style="stroke: #ffffff; stroke-width: 0.448"/>
     <use xlink:href="#m6b78c5c7b1" x="191.701825" y="75.473815" style="stroke: #ffffff; stroke-width: 0.448"/>
     <use xlink:href="#m6b78c5c7b1" x="157.52249" y="85.55354" style="stroke: #ffffff; stroke-width: 0.448"/>
     <use xlink:href="#m6b78c5c7b1" x="157.52249" y="85.55354" style="stroke: #ffffff; stroke-width: 0.448"/>
     <use xlink:href="#m6b78c5c7b1" x="220.998399" y="30.717305" style="stroke: #ffffff; stroke-width: 0.448"/>
    </g>
   </g>
   <g id="LineCollection_2">
    <path d="M 152.639727 98.311803 
L 152.639727 94.425501 
" clip-path="url(#p3a90783f3f)" style="fill: none; stroke: #000000"/>
    <path d="M 152.639727 98.311803 
L 152.639727 94.425501 
" clip-path="url(#p3a90783f3f)" style="fill: none; stroke: #000000"/>
    <path d="M 167.288014 95.892666 
L 167.288014 89.760537 
" clip-path="url(#p3a90783f3f)" style="fill: none; stroke: #000000"/>
    <path d="M 167.288014 95.892666 
L 167.288014 89.760537 
" clip-path="url(#p3a90783f3f)" style="fill: none; stroke: #000000"/>
    <path d="M 172.170776 103.269716 
L 172.170776 88.494835 
" clip-path="url(#p3a90783f3f)" style="fill: none; stroke: #000000"/>
    <path d="M 172.170776 103.269716 
L 172.170776 88.494835 
" clip-path="url(#p3a90783f3f)" style="fill: none; stroke: #000000"/>
    <path d="M 191.701825 82.173416 
L 191.701825 68.774215 
" clip-path="url(#p3a90783f3f)" style="fill: none; stroke: #000000"/>
    <path d="M 191.701825 82.173416 
L 191.701825 68.774215 
" clip-path="url(#p3a90783f3f)" style="fill: none; stroke: #000000"/>
    <path d="M 157.52249 90.262516 
L 157.52249 80.844565 
" clip-path="url(#p3a90783f3f)" style="fill: none; stroke: #000000"/>
    <path d="M 157.52249 90.262516 
L 157.52249 80.844565 
" clip-path="url(#p3a90783f3f)" style="fill: none; stroke: #000000"/>
    <path d="M 220.998399 34.345576 
L 220.998399 27.089034 
" clip-path="url(#p3a90783f3f)" style="fill: none; stroke: #000000"/>
   </g>
   <g id="line2d_21">
    <g clip-path="url(#p3a90783f3f)">
     <use xlink:href="#mb181b35335" x="152.639727" y="98.311803" style="stroke: #000000"/>
     <use xlink:href="#mb181b35335" x="152.639727" y="98.311803" style="stroke: #000000"/>
     <use xlink:href="#mb181b35335" x="167.288014" y="95.892666" style="stroke: #000000"/>
     <use xlink:href="#mb181b35335" x="167.288014" y="95.892666" style="stroke: #000000"/>
     <use xlink:href="#mb181b35335" x="172.170776" y="103.269716" style="stroke: #000000"/>
     <use xlink:href="#mb181b35335" x="172.170776" y="103.269716" style="stroke: #000000"/>
     <use xlink:href="#mb181b35335" x="191.701825" y="82.173416" style="stroke: #000000"/>
     <use xlink:href="#mb181b35335" x="191.701825" y="82.173416" style="stroke: #000000"/>
     <use xlink:href="#mb181b35335" x="157.52249" y="90.262516" style="stroke: #000000"/>
     <use xlink:href="#mb181b35335" x="157.52249" y="90.262516" style="stroke: #000000"/>
     <use xlink:href="#mb181b35335" x="220.998399" y="34.345576" style="stroke: #000000"/>
    </g>
   </g>
   <g id="line2d_22">
    <g clip-path="url(#p3a90783f3f)">
     <use xlink:href="#mb181b35335" x="152.639727" y="94.425501" style="stroke: #000000"/>
     <use xlink:href="#mb181b35335" x="152.639727" y="94.425501" style="stroke: #000000"/>
     <use xlink:href="#mb181b35335" x="167.288014" y="89.760537" style="stroke: #000000"/>
     <use xlink:href="#mb181b35335" x="167.288014" y="89.760537" style="stroke: #000000"/>
     <use xlink:href="#mb181b35335" x="172.170776" y="88.494835" style="stroke: #000000"/>
     <use xlink:href="#mb181b35335" x="172.170776" y="88.494835" style="stroke: #000000"/>
     <use xlink:href="#mb181b35335" x="191.701825" y="68.774215" style="stroke: #000000"/>
     <use xlink:href="#mb181b35335" x="191.701825" y="68.774215" style="stroke: #000000"/>
     <use xlink:href="#mb181b35335" x="157.52249" y="80.844565" style="stroke: #000000"/>
     <use xlink:href="#mb181b35335" x="157.52249" y="80.844565" style="stroke: #000000"/>
     <use xlink:href="#mb181b35335" x="220.998399" y="27.089034" style="stroke: #000000"/>
    </g>
   </g>
  </g>
  <g id="axes_3">
   <g id="patch_12">
    <path d="M 256.306 107.07875 
L 349.404 107.07875 
L 349.404 23.28 
L 256.306 23.28 
z
" style="fill: #ffffff"/>
   </g>
   <g id="matplotlib.axis_5">
    <g id="xtick_11">
     <g id="line2d_23">
      <g>
       <use xlink:href="#m4aaba7f0e5" x="260.537727" y="107.07875" style="fill: #262626; stroke: #262626; stroke-width: 0.8"/>
      </g>
     </g>
     <g id="text_19">
      <!-- 0 -->
      <g style="fill: #262626" transform="translate(258.313352 118.805)scale(0.08 -0.08)">
       <use xlink:href="#ArialMT-30"/>
      </g>
     </g>
    </g>
    <g id="xtick_12">
     <g id="line2d_24">
      <g>
       <use xlink:href="#m4aaba7f0e5" x="280.068776" y="107.07875" style="fill: #262626; stroke: #262626; stroke-width: 0.8"/>
      </g>
     </g>
     <g id="text_20">
      <!-- 24 -->
      <g style="fill: #262626" transform="translate(275.620026 118.805)scale(0.08 -0.08)">
       <use xlink:href="#ArialMT-32"/>
       <use xlink:href="#ArialMT-34" x="55.615234"/>
      </g>
     </g>
    </g>
    <g id="xtick_13">
     <g id="line2d_25">
      <g>
       <use xlink:href="#m4aaba7f0e5" x="299.599825" y="107.07875" style="fill: #262626; stroke: #262626; stroke-width: 0.8"/>
      </g>
     </g>
     <g id="text_21">
      <!-- 48 -->
      <g style="fill: #262626" transform="translate(295.151075 118.805)scale(0.08 -0.08)">
       <use xlink:href="#ArialMT-34"/>
       <use xlink:href="#ArialMT-38" x="55.615234"/>
      </g>
     </g>
    </g>
    <g id="xtick_14">
     <g id="line2d_26">
      <g>
       <use xlink:href="#m4aaba7f0e5" x="319.130874" y="107.07875" style="fill: #262626; stroke: #262626; stroke-width: 0.8"/>
      </g>
     </g>
     <g id="text_22">
      <!-- 72 -->
      <g style="fill: #262626" transform="translate(314.682124 118.805)scale(0.08 -0.08)">
       <use xlink:href="#ArialMT-37"/>
       <use xlink:href="#ArialMT-32" x="55.615234"/>
      </g>
     </g>
    </g>
    <g id="xtick_15">
     <g id="line2d_27">
      <g>
       <use xlink:href="#m4aaba7f0e5" x="338.661923" y="107.07875" style="fill: #262626; stroke: #262626; stroke-width: 0.8"/>
      </g>
     </g>
     <g id="text_23">
      <!-- 96 -->
      <g style="fill: #262626" transform="translate(334.213173 118.805)scale(0.08 -0.08)">
       <use xlink:href="#ArialMT-39"/>
       <use xlink:href="#ArialMT-36" x="55.615234"/>
      </g>
     </g>
    </g>
    <g id="text_24">
     <!-- time (h) -->
     <g style="fill: #262626" transform="translate(287.604922 130.946719)scale(0.09 -0.09)">
      <use xlink:href="#ArialMT-74"/>
      <use xlink:href="#ArialMT-69" x="27.783203"/>
      <use xlink:href="#ArialMT-6d" x="50"/>
      <use xlink:href="#ArialMT-65" x="133.300781"/>
      <use xlink:href="#ArialMT-20" x="188.916016"/>
      <use xlink:href="#ArialMT-28" x="216.699219"/>
      <use xlink:href="#ArialMT-68" x="250"/>
      <use xlink:href="#ArialMT-29" x="305.615234"/>
     </g>
    </g>
   </g>
   <g id="matplotlib.axis_6">
    <g id="ytick_7">
     <g id="line2d_28">
      <g>
       <use xlink:href="#ma59491b383" x="256.306" y="97.05927" style="fill: #262626; stroke: #262626; stroke-width: 0.8"/>
      </g>
     </g>
    </g>
    <g id="ytick_8">
     <g id="line2d_29">
      <g>
       <use xlink:href="#ma59491b383" x="256.306" y="65.557739" style="fill: #262626; stroke: #262626; stroke-width: 0.8"/>
      </g>
     </g>
    </g>
    <g id="ytick_9">
     <g id="line2d_30">
      <g>
       <use xlink:href="#ma59491b383" x="256.306" y="34.056208" style="fill: #262626; stroke: #262626; stroke-width: 0.8"/>
      </g>
     </g>
    </g>
   </g>
   <g id="line2d_31">
    <path d="M 260.537727 97.05927 
L 261.392622 67.661116 
L 262.247516 62.67473 
L 263.10241 59.448075 
L 263.957305 57.030463 
L 264.812199 55.091388 
L 265.667094 53.472982 
L 266.521988 52.086356 
L 267.376882 50.87603 
L 268.231777 49.804826 
L 269.086671 48.846493 
L 269.941566 47.98174 
L 270.79646 47.195931 
L 271.651354 46.477675 
L 272.506249 45.817913 
L 273.361143 45.209311 
L 274.216038 44.645841 
L 275.070932 44.12248 
L 275.925826 43.634996 
L 276.780721 43.179788 
L 277.635615 42.753763 
L 278.49051 42.354242 
L 279.345404 41.97889 
L 280.200298 41.625657 
L 281.055193 41.292737 
L 281.910087 40.978523 
L 282.764982 40.681585 
L 283.619876 40.40064 
L 284.47477 40.134538 
L 285.329665 39.882236 
L 286.184559 39.642795 
L 287.039454 39.415356 
L 287.894348 39.199141 
L 288.749242 38.993436 
L 289.604137 38.797588 
L 290.459031 38.610997 
L 291.313926 38.433111 
L 292.16882 38.26342 
L 293.023714 38.101454 
L 293.878609 37.946776 
L 294.733503 37.798982 
L 295.588398 37.657697 
L 296.443292 37.52257 
L 297.298186 37.393275 
L 298.153081 37.269508 
L 299.007975 37.150984 
L 299.86287 37.037438 
L 300.717764 36.928621 
L 301.572658 36.824297 
L 302.427553 36.724248 
L 303.282447 36.628267 
L 304.137342 36.536159 
L 304.992236 36.447743 
L 305.84713 36.362845 
L 306.702025 36.281303 
L 307.556919 36.202963 
L 308.411814 36.127679 
L 309.266708 36.055316 
L 310.121602 35.985741 
L 310.976497 35.918834 
L 311.831391 35.854476 
L 312.686286 35.792558 
L 313.54118 35.732974 
L 314.396074 35.675625 
L 315.250969 35.620416 
L 316.105863 35.567257 
L 316.960758 35.516063 
L 317.815652 35.466752 
L 318.670546 35.419246 
L 319.525441 35.373473 
L 320.380335 35.32936 
L 321.23523 35.286842 
L 322.090124 35.245855 
L 322.945018 35.206337 
L 323.799913 35.16823 
L 324.654807 35.131478 
L 325.509702 35.096029 
L 326.364596 35.061832 
L 327.21949 35.028838 
L 328.074385 34.997001 
L 328.929279 34.966276 
L 329.784174 34.936621 
L 330.639068 34.907995 
L 331.493962 34.88036 
L 332.348857 34.853678 
L 333.203751 34.827913 
L 334.058646 34.803031 
L 334.91354 34.779 
L 335.768434 34.755787 
L 336.623329 34.733364 
L 337.478223 34.7117 
L 338.333118 34.690768 
L 339.188012 34.670542 
L 340.042906 34.650996 
L 340.897801 34.632105 
L 341.752695 34.613846 
L 342.60759 34.596196 
L 343.462484 34.579133 
L 344.317378 34.562637 
L 345.172273 34.546687 
" clip-path="url(#p3b02a1f6ee)" style="fill: none; stroke: #ff7f0e; stroke-width: 2; stroke-linecap: round"/>
   </g>
   <g id="patch_13">
    <path d="M 256.306 107.07875 
L 256.306 23.28 
" style="fill: none; stroke: #262626; stroke-linejoin: miter; stroke-linecap: square"/>
   </g>
   <g id="patch_14">
    <path d="M 349.404 107.07875 
L 349.404 23.28 
" style="fill: none; stroke: #262626; stroke-linejoin: miter; stroke-linecap: square"/>
   </g>
   <g id="patch_15">
    <path d="M 256.306 107.07875 
L 349.404 107.07875 
" style="fill: none; stroke: #262626; stroke-linejoin: miter; stroke-linecap: square"/>
   </g>
   <g id="patch_16">
    <path d="M 256.306 23.28 
L 349.404 23.28 
" style="fill: none; stroke: #262626; stroke-linejoin: miter; stroke-linecap: square"/>
   </g>
   <g id="text_25">
    <!-- Olfr56 -->
    <g style="fill: #262626" transform="translate(290.601641 17.28)scale(0.09 -0.09)">
     <defs>
      <path id="ArialMT-4f" d="M 309 2231 
Q 309 3372 921 4017 
Q 1534 4663 2503 4663 
Q 3138 4663 3647 4359 
Q 4156 4056 4423 3514 
Q 4691 2972 4691 2284 
Q 4691 1588 4409 1038 
Q 4128 488 3612 205 
Q 3097 -78 2500 -78 
Q 1853 -78 1343 234 
Q 834 547 571 1087 
Q 309 1628 309 2231 
z
M 934 2222 
Q 934 1394 1379 917 
Q 1825 441 2497 441 
Q 3181 441 3623 922 
Q 4066 1403 4066 2288 
Q 4066 2847 3877 3264 
Q 3688 3681 3323 3911 
Q 2959 4141 2506 4141 
Q 1863 4141 1398 3698 
Q 934 3256 934 2222 
z
" transform="scale(0.015625)"/>
     </defs>
     <use xlink:href="#ArialMT-4f"/>
     <use xlink:href="#ArialMT-6c" x="77.783203"/>
     <use xlink:href="#ArialMT-66" x="100"/>
     <use xlink:href="#ArialMT-72" x="127.783203"/>
     <use xlink:href="#ArialMT-35" x="161.083984"/>
     <use xlink:href="#ArialMT-36" x="216.699219"/>
    </g>
   </g>
   <g id="PathCollection_3">
    <g clip-path="url(#p3b02a1f6ee)">
     <use xlink:href="#m6b78c5c7b1" x="260.537727" y="97.05927" style="stroke: #ffffff; stroke-width: 0.448"/>
     <use xlink:href="#m6b78c5c7b1" x="260.537727" y="97.05927" style="stroke: #ffffff; stroke-width: 0.448"/>
     <use xlink:href="#m6b78c5c7b1" x="275.186014" y="48.546334" style="stroke: #ffffff; stroke-width: 0.448"/>
     <use xlink:href="#m6b78c5c7b1" x="275.186014" y="48.546334" style="stroke: #ffffff; stroke-width: 0.448"/>
     <use xlink:href="#m6b78c5c7b1" x="280.068776" y="35.870885" style="stroke: #ffffff; stroke-width: 0.448"/>
     <use xlink:href="#m6b78c5c7b1" x="280.068776" y="35.870885" style="stroke: #ffffff; stroke-width: 0.448"/>
     <use xlink:href="#m6b78c5c7b1" x="299.599825" y="37.114836" style="stroke: #ffffff; stroke-width: 0.448"/>
     <use xlink:href="#m6b78c5c7b1" x="299.599825" y="37.114836" style="stroke: #ffffff; stroke-width: 0.448"/>
     <use xlink:href="#m6b78c5c7b1" x="265.42049" y="48.566827" style="stroke: #ffffff; stroke-width: 0.448"/>
     <use xlink:href="#m6b78c5c7b1" x="265.42049" y="48.566827" style="stroke: #ffffff; stroke-width: 0.448"/>
     <use xlink:href="#m6b78c5c7b1" x="328.896399" y="34.056208" style="stroke: #ffffff; stroke-width: 0.448"/>
    </g>
   </g>
   <g id="LineCollection_3">
    <path d="M 260.537727 103.269716 
L 260.537727 90.848824 
" clip-path="url(#p3b02a1f6ee)" style="fill: none; stroke: #000000"/>
    <path d="M 260.537727 103.269716 
L 260.537727 90.848824 
" clip-path="url(#p3b02a1f6ee)" style="fill: none; stroke: #000000"/>
    <path d="M 275.186014 48.546334 
L 275.186014 48.546334 
" clip-path="url(#p3b02a1f6ee)" style="fill: none; stroke: #000000"/>
    <path d="M 275.186014 48.546334 
L 275.186014 48.546334 
" clip-path="url(#p3b02a1f6ee)" style="fill: none; stroke: #000000"/>
    <path d="M 280.068776 44.652736 
L 280.068776 27.089034 
" clip-path="url(#p3b02a1f6ee)" style="fill: none; stroke: #000000"/>
    <path d="M 280.068776 44.652736 
L 280.068776 27.089034 
" clip-path="url(#p3b02a1f6ee)" style="fill: none; stroke: #000000"/>
    <path d="M 299.599825 37.900488 
L 299.599825 36.329185 
" clip-path="url(#p3b02a1f6ee)" style="fill: none; stroke: #000000"/>
    <path d="M 299.599825 37.900488 
L 299.599825 36.329185 
" clip-path="url(#p3b02a1f6ee)" style="fill: none; stroke: #000000"/>
    <path d="M 265.42049 59.654979 
L 265.42049 37.478675 
" clip-path="url(#p3b02a1f6ee)" style="fill: none; stroke: #000000"/>
    <path d="M 265.42049 59.654979 
L 265.42049 37.478675 
" clip-path="url(#p3b02a1f6ee)" style="fill: none; stroke: #000000"/>
    <path d="M 328.896399 36.101488 
L 328.896399 32.010929 
" clip-path="url(#p3b02a1f6ee)" style="fill: none; stroke: #000000"/>
   </g>
   <g id="line2d_32">
    <g clip-path="url(#p3b02a1f6ee)">
     <use xlink:href="#mb181b35335" x="260.537727" y="103.269716" style="stroke: #000000"/>
     <use xlink:href="#mb181b35335" x="260.537727" y="103.269716" style="stroke: #000000"/>
     <use xlink:href="#mb181b35335" x="275.186014" y="48.546334" style="stroke: #000000"/>
     <use xlink:href="#mb181b35335" x="275.186014" y="48.546334" style="stroke: #000000"/>
     <use xlink:href="#mb181b35335" x="280.068776" y="44.652736" style="stroke: #000000"/>
     <use xlink:href="#mb181b35335" x="280.068776" y="44.652736" style="stroke: #000000"/>
     <use xlink:href="#mb181b35335" x="299.599825" y="37.900488" style="stroke: #000000"/>
     <use xlink:href="#mb181b35335" x="299.599825" y="37.900488" style="stroke: #000000"/>
     <use xlink:href="#mb181b35335" x="265.42049" y="59.654979" style="stroke: #000000"/>
     <use xlink:href="#mb181b35335" x="265.42049" y="59.654979" style="stroke: #000000"/>
     <use xlink:href="#mb181b35335" x="328.896399" y="36.101488" style="stroke: #000000"/>
    </g>
   </g>
   <g id="line2d_33">
    <g clip-path="url(#p3b02a1f6ee)">
     <use xlink:href="#mb181b35335" x="260.537727" y="90.848824" style="stroke: #000000"/>
     <use xlink:href="#mb181b35335" x="260.537727" y="90.848824" style="stroke: #000000"/>
     <use xlink:href="#mb181b35335" x="275.186014" y="48.546334" style="stroke: #000000"/>
     <use xlink:href="#mb181b35335" x="275.186014" y="48.546334" style="stroke: #000000"/>
     <use xlink:href="#mb181b35335" x="280.068776" y="27.089034" style="stroke: #000000"/>
     <use xlink:href="#mb181b35335" x="280.068776" y="27.089034" style="stroke: #000000"/>
     <use xlink:href="#mb181b35335" x="299.599825" y="36.329185" style="stroke: #000000"/>
     <use xlink:href="#mb181b35335" x="299.599825" y="36.329185" style="stroke: #000000"/>
     <use xlink:href="#mb181b35335" x="265.42049" y="37.478675" style="stroke: #000000"/>
     <use xlink:href="#mb181b35335" x="265.42049" y="37.478675" style="stroke: #000000"/>
     <use xlink:href="#mb181b35335" x="328.896399" y="32.010929" style="stroke: #000000"/>
    </g>
   </g>
  </g>
  <g id="axes_4">
   <g id="patch_17">
    <path d="M 364.204 107.07875 
L 457.302 107.07875 
L 457.302 23.28 
L 364.204 23.28 
z
" style="fill: #ffffff"/>
   </g>
   <g id="matplotlib.axis_7">
    <g id="xtick_16">
     <g id="line2d_34">
      <g>
       <use xlink:href="#m4aaba7f0e5" x="368.435727" y="107.07875" style="fill: #262626; stroke: #262626; stroke-width: 0.8"/>
      </g>
     </g>
     <g id="text_26">
      <!-- 0 -->
      <g style="fill: #262626" transform="translate(366.211352 118.805)scale(0.08 -0.08)">
       <use xlink:href="#ArialMT-30"/>
      </g>
     </g>
    </g>
    <g id="xtick_17">
     <g id="line2d_35">
      <g>
       <use xlink:href="#m4aaba7f0e5" x="387.966776" y="107.07875" style="fill: #262626; stroke: #262626; stroke-width: 0.8"/>
      </g>
     </g>
     <g id="text_27">
      <!-- 24 -->
      <g style="fill: #262626" transform="translate(383.518026 118.805)scale(0.08 -0.08)">
       <use xlink:href="#ArialMT-32"/>
       <use xlink:href="#ArialMT-34" x="55.615234"/>
      </g>
     </g>
    </g>
    <g id="xtick_18">
     <g id="line2d_36">
      <g>
       <use xlink:href="#m4aaba7f0e5" x="407.497825" y="107.07875" style="fill: #262626; stroke: #262626; stroke-width: 0.8"/>
      </g>
     </g>
     <g id="text_28">
      <!-- 48 -->
      <g style="fill: #262626" transform="translate(403.049075 118.805)scale(0.08 -0.08)">
       <use xlink:href="#ArialMT-34"/>
       <use xlink:href="#ArialMT-38" x="55.615234"/>
      </g>
     </g>
    </g>
    <g id="xtick_19">
     <g id="line2d_37">
      <g>
       <use xlink:href="#m4aaba7f0e5" x="427.028874" y="107.07875" style="fill: #262626; stroke: #262626; stroke-width: 0.8"/>
      </g>
     </g>
     <g id="text_29">
      <!-- 72 -->
      <g style="fill: #262626" transform="translate(422.580124 118.805)scale(0.08 -0.08)">
       <use xlink:href="#ArialMT-37"/>
       <use xlink:href="#ArialMT-32" x="55.615234"/>
      </g>
     </g>
    </g>
    <g id="xtick_20">
     <g id="line2d_38">
      <g>
       <use xlink:href="#m4aaba7f0e5" x="446.559923" y="107.07875" style="fill: #262626; stroke: #262626; stroke-width: 0.8"/>
      </g>
     </g>
     <g id="text_30">
      <!-- 96 -->
      <g style="fill: #262626" transform="translate(442.111173 118.805)scale(0.08 -0.08)">
       <use xlink:href="#ArialMT-39"/>
       <use xlink:href="#ArialMT-36" x="55.615234"/>
      </g>
     </g>
    </g>
    <g id="text_31">
     <!-- time (h) -->
     <g style="fill: #262626" transform="translate(395.502922 130.946719)scale(0.09 -0.09)">
      <use xlink:href="#ArialMT-74"/>
      <use xlink:href="#ArialMT-69" x="27.783203"/>
      <use xlink:href="#ArialMT-6d" x="50"/>
      <use xlink:href="#ArialMT-65" x="133.300781"/>
      <use xlink:href="#ArialMT-20" x="188.916016"/>
      <use xlink:href="#ArialMT-28" x="216.699219"/>
      <use xlink:href="#ArialMT-68" x="250"/>
      <use xlink:href="#ArialMT-29" x="305.615234"/>
     </g>
    </g>
   </g>
   <g id="matplotlib.axis_8">
    <g id="ytick_10">
     <g id="line2d_39">
      <g>
       <use xlink:href="#ma59491b383" x="364.204" y="97.815777" style="fill: #262626; stroke: #262626; stroke-width: 0.8"/>
      </g>
     </g>
    </g>
    <g id="ytick_11">
     <g id="line2d_40">
      <g>
       <use xlink:href="#ma59491b383" x="364.204" y="66.797205" style="fill: #262626; stroke: #262626; stroke-width: 0.8"/>
      </g>
     </g>
    </g>
    <g id="ytick_12">
     <g id="line2d_41">
      <g>
       <use xlink:href="#ma59491b383" x="364.204" y="35.778632" style="fill: #262626; stroke: #262626; stroke-width: 0.8"/>
      </g>
     </g>
    </g>
   </g>
   <g id="line2d_42">
    <path d="M 368.435727 97.815777 
L 369.290622 97.815777 
L 370.145516 97.815777 
L 371.00041 97.815777 
L 371.855305 97.815777 
L 372.710199 97.815777 
L 373.565094 97.815777 
L 374.419988 97.815777 
L 375.274882 97.815777 
L 376.129777 97.815777 
L 376.984671 97.815777 
L 377.839566 97.815777 
L 378.69446 97.729638 
L 379.549354 66.797205 
L 380.404249 66.797205 
L 381.259143 66.797205 
L 382.114038 66.797205 
L 382.968932 66.797205 
L 383.823826 66.797205 
L 384.678721 66.797205 
L 385.533615 66.797205 
L 386.38851 66.797205 
L 387.243404 66.797205 
L 388.098298 66.797205 
L 388.953193 66.797205 
L 389.808087 66.797205 
L 390.662982 66.797205 
L 391.517876 66.797205 
L 392.37277 66.797205 
L 393.227665 66.797205 
L 394.082559 66.797205 
L 394.937454 66.797205 
L 395.792348 66.797205 
L 396.647242 66.797205 
L 397.502137 66.797205 
L 398.357031 66.797205 
L 399.211926 66.797205 
L 400.06682 66.797205 
L 400.921714 66.797205 
L 401.776609 66.797205 
L 402.631503 66.797205 
L 403.486398 66.797205 
L 404.341292 66.797205 
L 405.196186 66.797205 
L 406.051081 66.797205 
L 406.905975 66.797205 
L 407.76087 66.797205 
L 408.615764 66.797205 
L 409.470658 66.797205 
L 410.325553 66.797205 
L 411.180447 66.797205 
L 412.035342 66.797205 
L 412.890236 66.797205 
L 413.74513 66.797205 
L 414.600025 66.797205 
L 415.454919 66.797205 
L 416.309814 66.797205 
L 417.164708 66.797205 
L 418.019602 66.797205 
L 418.874497 66.797205 
L 419.729391 66.797205 
L 420.584286 66.797205 
L 421.43918 66.797205 
L 422.294074 66.797205 
L 423.148969 66.797205 
L 424.003863 66.797205 
L 424.858758 66.797205 
L 425.713652 66.797205 
L 426.568546 66.797205 
L 427.423441 66.797205 
L 428.278335 66.797205 
L 429.13323 66.797205 
L 429.988124 66.797205 
L 430.843018 66.797205 
L 431.697913 66.797205 
L 432.552807 66.797205 
L 433.407702 66.797205 
L 434.262596 66.797205 
L 435.11749 66.797205 
L 435.972385 66.797205 
L 436.827279 35.778775 
L 437.682174 35.778632 
L 438.537068 35.778632 
L 439.391962 35.778632 
L 440.246857 35.778632 
L 441.101751 35.778632 
L 441.956646 35.778632 
L 442.81154 35.778632 
L 443.666434 35.778632 
L 444.521329 35.778632 
L 445.376223 35.778632 
L 446.231118 35.778632 
L 447.086012 35.778632 
L 447.940906 35.778632 
L 448.795801 35.778632 
L 449.650695 35.778632 
L 450.50559 35.778632 
L 451.360484 35.778632 
L 452.215378 35.778632 
L 453.070273 35.778632 
" clip-path="url(#pb729e99871)" style="fill: none; stroke: #800080; stroke-width: 2; stroke-linecap: round"/>
   </g>
   <g id="patch_18">
    <path d="M 364.204 107.07875 
L 364.204 23.28 
" style="fill: none; stroke: #262626; stroke-linejoin: miter; stroke-linecap: square"/>
   </g>
   <g id="patch_19">
    <path d="M 457.302 107.07875 
L 457.302 23.28 
" style="fill: none; stroke: #262626; stroke-linejoin: miter; stroke-linecap: square"/>
   </g>
   <g id="patch_20">
    <path d="M 364.204 107.07875 
L 457.302 107.07875 
" style="fill: none; stroke: #262626; stroke-linejoin: miter; stroke-linecap: square"/>
   </g>
   <g id="patch_21">
    <path d="M 364.204 23.28 
L 457.302 23.28 
" style="fill: none; stroke: #262626; stroke-linejoin: miter; stroke-linecap: square"/>
   </g>
   <g id="text_32">
    <!-- Ktn1 -->
    <g style="fill: #262626" transform="translate(401.496359 17.28)scale(0.09 -0.09)">
     <defs>
      <path id="ArialMT-4b" d="M 469 0 
L 469 4581 
L 1075 4581 
L 1075 2309 
L 3350 4581 
L 4172 4581 
L 2250 2725 
L 4256 0 
L 3456 0 
L 1825 2319 
L 1075 1588 
L 1075 0 
L 469 0 
z
" transform="scale(0.015625)"/>
     </defs>
     <use xlink:href="#ArialMT-4b"/>
     <use xlink:href="#ArialMT-74" x="66.699219"/>
     <use xlink:href="#ArialMT-6e" x="94.482422"/>
     <use xlink:href="#ArialMT-31" x="150.097656"/>
    </g>
   </g>
   <g id="PathCollection_4">
    <g clip-path="url(#pb729e99871)">
     <use xlink:href="#m6b78c5c7b1" x="368.435727" y="97.815777" style="stroke: #ffffff; stroke-width: 0.448"/>
     <use xlink:href="#m6b78c5c7b1" x="368.435727" y="97.815777" style="stroke: #ffffff; stroke-width: 0.448"/>
     <use xlink:href="#m6b78c5c7b1" x="383.084014" y="58.823515" style="stroke: #ffffff; stroke-width: 0.448"/>
     <use xlink:href="#m6b78c5c7b1" x="383.084014" y="58.823515" style="stroke: #ffffff; stroke-width: 0.448"/>
     <use xlink:href="#m6b78c5c7b1" x="387.966776" y="69.146561" style="stroke: #ffffff; stroke-width: 0.448"/>
     <use xlink:href="#m6b78c5c7b1" x="387.966776" y="69.146561" style="stroke: #ffffff; stroke-width: 0.448"/>
     <use xlink:href="#m6b78c5c7b1" x="407.497825" y="71.574778" style="stroke: #ffffff; stroke-width: 0.448"/>
     <use xlink:href="#m6b78c5c7b1" x="407.497825" y="71.574778" style="stroke: #ffffff; stroke-width: 0.448"/>
     <use xlink:href="#m6b78c5c7b1" x="373.31849" y="101.515603" style="stroke: #ffffff; stroke-width: 0.448"/>
     <use xlink:href="#m6b78c5c7b1" x="373.31849" y="101.515603" style="stroke: #ffffff; stroke-width: 0.448"/>
     <use xlink:href="#m6b78c5c7b1" x="436.794399" y="35.778632" style="stroke: #ffffff; stroke-width: 0.448"/>
    </g>
   </g>
   <g id="LineCollection_4">
    <path d="M 368.435727 99.231274 
L 368.435727 96.400281 
" clip-path="url(#pb729e99871)" style="fill: none; stroke: #000000"/>
    <path d="M 368.435727 99.231274 
L 368.435727 96.400281 
" clip-path="url(#pb729e99871)" style="fill: none; stroke: #000000"/>
    <path d="M 383.084014 67.022796 
L 383.084014 50.624233 
" clip-path="url(#pb729e99871)" style="fill: none; stroke: #000000"/>
    <path d="M 383.084014 67.022796 
L 383.084014 50.624233 
" clip-path="url(#pb729e99871)" style="fill: none; stroke: #000000"/>
    <path d="M 387.966776 78.182707 
L 387.966776 60.110415 
" clip-path="url(#pb729e99871)" style="fill: none; stroke: #000000"/>
    <path d="M 387.966776 78.182707 
L 387.966776 60.110415 
" clip-path="url(#pb729e99871)" style="fill: none; stroke: #000000"/>
    <path d="M 407.497825 75.955307 
L 407.497825 67.194249 
" clip-path="url(#pb729e99871)" style="fill: none; stroke: #000000"/>
    <path d="M 407.497825 75.955307 
L 407.497825 67.194249 
" clip-path="url(#pb729e99871)" style="fill: none; stroke: #000000"/>
    <path d="M 373.31849 103.269716 
L 373.31849 99.761491 
" clip-path="url(#pb729e99871)" style="fill: none; stroke: #000000"/>
    <path d="M 373.31849 103.269716 
L 373.31849 99.761491 
" clip-path="url(#pb729e99871)" style="fill: none; stroke: #000000"/>
    <path d="M 436.794399 44.46823 
L 436.794399 27.089034 
" clip-path="url(#pb729e99871)" style="fill: none; stroke: #000000"/>
   </g>
   <g id="line2d_43">
    <g clip-path="url(#pb729e99871)">
     <use xlink:href="#mb181b35335" x="368.435727" y="99.231274" style="stroke: #000000"/>
     <use xlink:href="#mb181b35335" x="368.435727" y="99.231274" style="stroke: #000000"/>
     <use xlink:href="#mb181b35335" x="383.084014" y="67.022796" style="stroke: #000000"/>
     <use xlink:href="#mb181b35335" x="383.084014" y="67.022796" style="stroke: #000000"/>
     <use xlink:href="#mb181b35335" x="387.966776" y="78.182707" style="stroke: #000000"/>
     <use xlink:href="#mb181b35335" x="387.966776" y="78.182707" style="stroke: #000000"/>
     <use xlink:href="#mb181b35335" x="407.497825" y="75.955307" style="stroke: #000000"/>
     <use xlink:href="#mb181b35335" x="407.497825" y="75.955307" style="stroke: #000000"/>
     <use xlink:href="#mb181b35335" x="373.31849" y="103.269716" style="stroke: #000000"/>
     <use xlink:href="#mb181b35335" x="373.31849" y="103.269716" style="stroke: #000000"/>
     <use xlink:href="#mb181b35335" x="436.794399" y="44.46823" style="stroke: #000000"/>
    </g>
   </g>
   <g id="line2d_44">
    <g clip-path="url(#pb729e99871)">
     <use xlink:href="#mb181b35335" x="368.435727" y="96.400281" style="stroke: #000000"/>
     <use xlink:href="#mb181b35335" x="368.435727" y="96.400281" style="stroke: #000000"/>
     <use xlink:href="#mb181b35335" x="383.084014" y="50.624233" style="stroke: #000000"/>
     <use xlink:href="#mb181b35335" x="383.084014" y="50.624233" style="stroke: #000000"/>
     <use xlink:href="#mb181b35335" x="387.966776" y="60.110415" style="stroke: #000000"/>
     <use xlink:href="#mb181b35335" x="387.966776" y="60.110415" style="stroke: #000000"/>
     <use xlink:href="#mb181b35335" x="407.497825" y="67.194249" style="stroke: #000000"/>
     <use xlink:href="#mb181b35335" x="407.497825" y="67.194249" style="stroke: #000000"/>
     <use xlink:href="#mb181b35335" x="373.31849" y="99.761491" style="stroke: #000000"/>
     <use xlink:href="#mb181b35335" x="373.31849" y="99.761491" style="stroke: #000000"/>
     <use xlink:href="#mb181b35335" x="436.794399" y="27.089034" style="stroke: #000000"/>
    </g>
   </g>
  </g>
  <g id="axes_5">
   <g id="patch_22">
    <path d="M 472.102 107.07875 
L 565.2 107.07875 
L 565.2 23.28 
L 472.102 23.28 
z
" style="fill: #ffffff"/>
   </g>
   <g id="matplotlib.axis_9">
    <g id="xtick_21">
     <g id="line2d_45">
      <g>
       <use xlink:href="#m4aaba7f0e5" x="476.333727" y="107.07875" style="fill: #262626; stroke: #262626; stroke-width: 0.8"/>
      </g>
     </g>
     <g id="text_33">
      <!-- 0 -->
      <g style="fill: #262626" transform="translate(474.109352 118.805)scale(0.08 -0.08)">
       <use xlink:href="#ArialMT-30"/>
      </g>
     </g>
    </g>
    <g id="xtick_22">
     <g id="line2d_46">
      <g>
       <use xlink:href="#m4aaba7f0e5" x="495.864776" y="107.07875" style="fill: #262626; stroke: #262626; stroke-width: 0.8"/>
      </g>
     </g>
     <g id="text_34">
      <!-- 24 -->
      <g style="fill: #262626" transform="translate(491.416026 118.805)scale(0.08 -0.08)">
       <use xlink:href="#ArialMT-32"/>
       <use xlink:href="#ArialMT-34" x="55.615234"/>
      </g>
     </g>
    </g>
    <g id="xtick_23">
     <g id="line2d_47">
      <g>
       <use xlink:href="#m4aaba7f0e5" x="515.395825" y="107.07875" style="fill: #262626; stroke: #262626; stroke-width: 0.8"/>
      </g>
     </g>
     <g id="text_35">
      <!-- 48 -->
      <g style="fill: #262626" transform="translate(510.947075 118.805)scale(0.08 -0.08)">
       <use xlink:href="#ArialMT-34"/>
       <use xlink:href="#ArialMT-38" x="55.615234"/>
      </g>
     </g>
    </g>
    <g id="xtick_24">
     <g id="line2d_48">
      <g>
       <use xlink:href="#m4aaba7f0e5" x="534.926874" y="107.07875" style="fill: #262626; stroke: #262626; stroke-width: 0.8"/>
      </g>
     </g>
     <g id="text_36">
      <!-- 72 -->
      <g style="fill: #262626" transform="translate(530.478124 118.805)scale(0.08 -0.08)">
       <use xlink:href="#ArialMT-37"/>
       <use xlink:href="#ArialMT-32" x="55.615234"/>
      </g>
     </g>
    </g>
    <g id="xtick_25">
     <g id="line2d_49">
      <g>
       <use xlink:href="#m4aaba7f0e5" x="554.457923" y="107.07875" style="fill: #262626; stroke: #262626; stroke-width: 0.8"/>
      </g>
     </g>
     <g id="text_37">
      <!-- 96 -->
      <g style="fill: #262626" transform="translate(550.009173 118.805)scale(0.08 -0.08)">
       <use xlink:href="#ArialMT-39"/>
       <use xlink:href="#ArialMT-36" x="55.615234"/>
      </g>
     </g>
    </g>
    <g id="text_38">
     <!-- time (h) -->
     <g style="fill: #262626" transform="translate(503.400922 130.946719)scale(0.09 -0.09)">
      <use xlink:href="#ArialMT-74"/>
      <use xlink:href="#ArialMT-69" x="27.783203"/>
      <use xlink:href="#ArialMT-6d" x="50"/>
      <use xlink:href="#ArialMT-65" x="133.300781"/>
      <use xlink:href="#ArialMT-20" x="188.916016"/>
      <use xlink:href="#ArialMT-28" x="216.699219"/>
      <use xlink:href="#ArialMT-68" x="250"/>
      <use xlink:href="#ArialMT-29" x="305.615234"/>
     </g>
    </g>
   </g>
   <g id="matplotlib.axis_10">
    <g id="ytick_13">
     <g id="line2d_50">
      <g>
       <use xlink:href="#ma59491b383" x="472.102" y="98.755488" style="fill: #262626; stroke: #262626; stroke-width: 0.8"/>
      </g>
     </g>
    </g>
    <g id="ytick_14">
     <g id="line2d_51">
      <g>
       <use xlink:href="#ma59491b383" x="472.102" y="64.824611" style="fill: #262626; stroke: #262626; stroke-width: 0.8"/>
      </g>
     </g>
    </g>
    <g id="ytick_15">
     <g id="line2d_52">
      <g>
       <use xlink:href="#ma59491b383" x="472.102" y="30.893735" style="fill: #262626; stroke: #262626; stroke-width: 0.8"/>
      </g>
     </g>
    </g>
   </g>
   <g id="patch_23">
    <path d="M 472.102 107.07875 
L 472.102 23.28 
" style="fill: none; stroke: #262626; stroke-linejoin: miter; stroke-linecap: square"/>
   </g>
   <g id="patch_24">
    <path d="M 565.2 107.07875 
L 565.2 23.28 
" style="fill: none; stroke: #262626; stroke-linejoin: miter; stroke-linecap: square"/>
   </g>
   <g id="patch_25">
    <path d="M 472.102 107.07875 
L 565.2 107.07875 
" style="fill: none; stroke: #262626; stroke-linejoin: miter; stroke-linecap: square"/>
   </g>
   <g id="patch_26">
    <path d="M 472.102 23.28 
L 565.2 23.28 
" style="fill: none; stroke: #262626; stroke-linejoin: miter; stroke-linecap: square"/>
   </g>
   <g id="text_39">
    <!-- Upp1 -->
    <g style="fill: #262626" transform="translate(507.893891 17.28)scale(0.09 -0.09)">
     <defs>
      <path id="ArialMT-55" d="M 3500 4581 
L 4106 4581 
L 4106 1934 
Q 4106 1244 3950 837 
Q 3794 431 3386 176 
Q 2978 -78 2316 -78 
Q 1672 -78 1262 144 
Q 853 366 678 786 
Q 503 1206 503 1934 
L 503 4581 
L 1109 4581 
L 1109 1938 
Q 1109 1341 1220 1058 
Q 1331 775 1601 622 
Q 1872 469 2263 469 
Q 2931 469 3215 772 
Q 3500 1075 3500 1938 
L 3500 4581 
z
" transform="scale(0.015625)"/>
     </defs>
     <use xlink:href="#ArialMT-55"/>
     <use xlink:href="#ArialMT-70" x="72.216797"/>
     <use xlink:href="#ArialMT-70" x="127.832031"/>
     <use xlink:href="#ArialMT-31" x="183.447266"/>
    </g>
   </g>
   <g id="line2d_53">
    <path d="M 476.333727 98.755488 
L 477.188622 97.221447 
L 478.043516 95.722084 
L 478.89841 94.256615 
L 479.753305 92.824273 
L 480.608199 91.42431 
L 481.463094 90.055993 
L 482.317988 88.718608 
L 483.172882 87.411455 
L 484.027777 86.13385 
L 484.882671 84.885127 
L 485.737566 83.664631 
L 486.59246 82.471725 
L 487.447354 81.305785 
L 488.302249 80.166201 
L 489.157143 79.052379 
L 490.012038 77.963734 
L 490.866932 76.899699 
L 491.721826 75.859717 
L 492.576721 74.843244 
L 493.431615 73.849749 
L 494.28651 72.878712 
L 495.141404 71.929626 
L 495.996298 71.001994 
L 496.851193 70.095331 
L 497.706087 69.209164 
L 498.560982 68.34303 
L 499.415876 67.496474 
L 500.27077 66.669055 
L 501.125665 65.860341 
L 501.980559 65.069907 
L 502.835454 64.297342 
L 503.690348 63.542241 
L 504.545242 62.804209 
L 505.400137 62.082861 
L 506.255031 61.377819 
L 507.109926 60.688715 
L 507.96482 60.015188 
L 508.819714 59.356886 
L 509.674609 58.713466 
L 510.529503 58.08459 
L 511.384398 57.469931 
L 512.239292 56.869166 
L 513.094186 56.281981 
L 513.949081 55.708071 
L 514.803975 55.147133 
L 515.65887 54.598876 
L 516.513764 54.063012 
L 517.368658 53.539262 
L 518.223553 53.027351 
L 519.078447 52.527012 
L 519.933342 52.037984 
L 520.788236 51.56001 
L 521.64313 51.092841 
L 522.498025 50.636233 
L 523.352919 50.189946 
L 524.207814 49.753748 
L 525.062708 49.32741 
L 525.917602 48.91071 
L 526.772497 48.50343 
L 527.627391 48.105356 
L 528.482286 47.716281 
L 529.33718 47.336001 
L 530.192074 46.964317 
L 531.046969 46.601035 
L 531.901863 46.245966 
L 532.756758 45.898923 
L 533.611652 45.559725 
L 534.466546 45.228195 
L 535.321441 44.904159 
L 536.176335 44.587448 
L 537.03123 44.277896 
L 537.886124 43.975342 
L 538.741018 43.679628 
L 539.595913 43.390598 
L 540.450807 43.108101 
L 541.305702 42.831991 
L 542.160596 42.562122 
L 543.01549 42.298354 
L 543.870385 42.040548 
L 544.725279 41.78857 
L 545.580174 41.542288 
L 546.435068 41.301574 
L 547.289962 41.066301 
L 548.144857 40.836346 
L 548.999751 40.611589 
L 549.854646 40.391914 
L 550.70954 40.177204 
L 551.564434 39.967347 
L 552.419329 39.762235 
L 553.274223 39.561759 
L 554.129118 39.365815 
L 554.984012 39.174301 
L 555.838906 38.987115 
L 556.693801 38.804161 
L 557.548695 38.625343 
L 558.40359 38.450567 
L 559.258484 38.279742 
L 560.113378 38.112779 
L 560.968273 37.949589 
" clip-path="url(#p4ed2ee7b06)" style="fill: none; stroke: #2ca02c; stroke-width: 2; stroke-linecap: round"/>
   </g>
   <g id="PathCollection_5">
    <g clip-path="url(#p4ed2ee7b06)">
     <use xlink:href="#m6b78c5c7b1" x="476.333727" y="98.755488" style="stroke: #ffffff; stroke-width: 0.448"/>
     <use xlink:href="#m6b78c5c7b1" x="476.333727" y="98.755488" style="stroke: #ffffff; stroke-width: 0.448"/>
     <use xlink:href="#m6b78c5c7b1" x="490.982014" y="78.469883" style="stroke: #ffffff; stroke-width: 0.448"/>
     <use xlink:href="#m6b78c5c7b1" x="490.982014" y="78.469883" style="stroke: #ffffff; stroke-width: 0.448"/>
     <use xlink:href="#m6b78c5c7b1" x="495.864776" y="89.368194" style="stroke: #ffffff; stroke-width: 0.448"/>
     <use xlink:href="#m6b78c5c7b1" x="495.864776" y="89.368194" style="stroke: #ffffff; stroke-width: 0.448"/>
     <use xlink:href="#m6b78c5c7b1" x="515.395825" y="87.857177" style="stroke: #ffffff; stroke-width: 0.448"/>
     <use xlink:href="#m6b78c5c7b1" x="515.395825" y="87.857177" style="stroke: #ffffff; stroke-width: 0.448"/>
     <use xlink:href="#m6b78c5c7b1" x="481.21649" y="75.724276" style="stroke: #ffffff; stroke-width: 0.448"/>
     <use xlink:href="#m6b78c5c7b1" x="481.21649" y="75.724276" style="stroke: #ffffff; stroke-width: 0.448"/>
     <use xlink:href="#m6b78c5c7b1" x="544.692399" y="30.893735" style="stroke: #ffffff; stroke-width: 0.448"/>
    </g>
   </g>
   <g id="LineCollection_5">
    <path d="M 476.333727 98.755488 
L 476.333727 98.755488 
" clip-path="url(#p4ed2ee7b06)" style="fill: none; stroke: #000000"/>
    <path d="M 476.333727 98.755488 
L 476.333727 98.755488 
" clip-path="url(#p4ed2ee7b06)" style="fill: none; stroke: #000000"/>
    <path d="M 490.982014 80.606784 
L 490.982014 76.332983 
" clip-path="url(#p4ed2ee7b06)" style="fill: none; stroke: #000000"/>
    <path d="M 490.982014 80.606784 
L 490.982014 76.332983 
" clip-path="url(#p4ed2ee7b06)" style="fill: none; stroke: #000000"/>
    <path d="M 495.864776 89.368194 
L 495.864776 89.368194 
" clip-path="url(#p4ed2ee7b06)" style="fill: none; stroke: #000000"/>
    <path d="M 495.864776 89.368194 
L 495.864776 89.368194 
" clip-path="url(#p4ed2ee7b06)" style="fill: none; stroke: #000000"/>
    <path d="M 515.395825 103.269716 
L 515.395825 72.444638 
" clip-path="url(#p4ed2ee7b06)" style="fill: none; stroke: #000000"/>
    <path d="M 515.395825 103.269716 
L 515.395825 72.444638 
" clip-path="url(#p4ed2ee7b06)" style="fill: none; stroke: #000000"/>
    <path d="M 481.21649 87.253939 
L 481.21649 64.194612 
" clip-path="url(#p4ed2ee7b06)" style="fill: none; stroke: #000000"/>
    <path d="M 481.21649 87.253939 
L 481.21649 64.194612 
" clip-path="url(#p4ed2ee7b06)" style="fill: none; stroke: #000000"/>
    <path d="M 544.692399 34.698435 
L 544.692399 27.089034 
" clip-path="url(#p4ed2ee7b06)" style="fill: none; stroke: #000000"/>
   </g>
   <g id="line2d_54">
    <g clip-path="url(#p4ed2ee7b06)">
     <use xlink:href="#mb181b35335" x="476.333727" y="98.755488" style="stroke: #000000"/>
     <use xlink:href="#mb181b35335" x="476.333727" y="98.755488" style="stroke: #000000"/>
     <use xlink:href="#mb181b35335" x="490.982014" y="80.606784" style="stroke: #000000"/>
     <use xlink:href="#mb181b35335" x="490.982014" y="80.606784" style="stroke: #000000"/>
     <use xlink:href="#mb181b35335" x="495.864776" y="89.368194" style="stroke: #000000"/>
     <use xlink:href="#mb181b35335" x="495.864776" y="89.368194" style="stroke: #000000"/>
     <use xlink:href="#mb181b35335" x="515.395825" y="103.269716" style="stroke: #000000"/>
     <use xlink:href="#mb181b35335" x="515.395825" y="103.269716" style="stroke: #000000"/>
     <use xlink:href="#mb181b35335" x="481.21649" y="87.253939" style="stroke: #000000"/>
     <use xlink:href="#mb181b35335" x="481.21649" y="87.253939" style="stroke: #000000"/>
     <use xlink:href="#mb181b35335" x="544.692399" y="34.698435" style="stroke: #000000"/>
    </g>
   </g>
   <g id="line2d_55">
    <g clip-path="url(#p4ed2ee7b06)">
     <use xlink:href="#mb181b35335" x="476.333727" y="98.755488" style="stroke: #000000"/>
     <use xlink:href="#mb181b35335" x="476.333727" y="98.755488" style="stroke: #000000"/>
     <use xlink:href="#mb181b35335" x="490.982014" y="76.332983" style="stroke: #000000"/>
     <use xlink:href="#mb181b35335" x="490.982014" y="76.332983" style="stroke: #000000"/>
     <use xlink:href="#mb181b35335" x="495.864776" y="89.368194" style="stroke: #000000"/>
     <use xlink:href="#mb181b35335" x="495.864776" y="89.368194" style="stroke: #000000"/>
     <use xlink:href="#mb181b35335" x="515.395825" y="72.444638" style="stroke: #000000"/>
     <use xlink:href="#mb181b35335" x="515.395825" y="72.444638" style="stroke: #000000"/>
     <use xlink:href="#mb181b35335" x="481.21649" y="64.194612" style="stroke: #000000"/>
     <use xlink:href="#mb181b35335" x="481.21649" y="64.194612" style="stroke: #000000"/>
     <use xlink:href="#mb181b35335" x="544.692399" y="27.089034" style="stroke: #000000"/>
    </g>
   </g>
  </g>
 </g>
 <defs>
  <clipPath id="p159858ba56">
   <rect x="40.51" y="23.28" width="93.098" height="83.79875"/>
  </clipPath>
  <clipPath id="p3a90783f3f">
   <rect x="148.408" y="23.28" width="93.098" height="83.79875"/>
  </clipPath>
  <clipPath id="p3b02a1f6ee">
   <rect x="256.306" y="23.28" width="93.098" height="83.79875"/>
  </clipPath>
  <clipPath id="pb729e99871">
   <rect x="364.204" y="23.28" width="93.098" height="83.79875"/>
  </clipPath>
  <clipPath id="p4ed2ee7b06">
   <rect x="472.102" y="23.28" width="93.098" height="83.79875"/>
  </clipPath>
 </defs>
</svg>
