<?xml version="1.0" encoding="utf-8" standalone="no"?>
<!DOCTYPE svg PUBLIC "-//W3C//DTD SVG 1.1//EN"
  "http://www.w3.org/Graphics/SVG/1.1/DTD/svg11.dtd">
<!-- Created with matplotlib (https://matplotlib.org/) -->
<svg height="122.4pt" version="1.1" viewBox="0 0 288 122.4" width="288pt" xmlns="http://www.w3.org/2000/svg" xmlns:xlink="http://www.w3.org/1999/xlink">
 <metadata>
  <rdf:RDF xmlns:cc="http://creativecommons.org/ns#" xmlns:dc="http://purl.org/dc/elements/1.1/" xmlns:rdf="http://www.w3.org/1999/02/22-rdf-syntax-ns#">
   <cc:Work>
    <dc:type rdf:resource="http://purl.org/dc/dcmitype/StillImage"/>
    <dc:date>2023-04-23T14:36:28.859423</dc:date>
    <dc:format>image/svg+xml</dc:format>
    <dc:creator>
     <cc:Agent>
      <dc:title>Matplotlib v3.3.2, https://matplotlib.org/</dc:title>
     </cc:Agent>
    </dc:creator>
   </cc:Work>
  </rdf:RDF>
 </metadata>
 <defs>
  <style type="text/css">*{stroke-linecap:butt;stroke-linejoin:round;}</style>
 </defs>
 <g id="figure_1">
  <g id="patch_1">
   <path d="M 0 122.4 
L 288 122.4 
L 288 0 
L 0 0 
z
" style="fill:#ffffff;"/>
  </g>
  <g id="axes_1">
   <g id="patch_2">
    <path d="M 45.675 85.6 
L 112.983333 85.6 
L 112.983333 23.8 
L 45.675 23.8 
z
" style="fill:#ffffff;"/>
   </g>
   <g id="matplotlib.axis_1">
    <g id="xtick_1">
     <g id="line2d_1">
      <defs>
       <path d="M 0 0 
L 0 4 
" id="maa382eff0b" style="stroke:#262626;stroke-width:0.8;"/>
      </defs>
      <g>
       <use style="fill:#262626;stroke:#262626;stroke-width:0.8;" x="48.73447" xlink:href="#maa382eff0b" y="85.6"/>
      </g>
     </g>
     <g id="text_1">
      <!-- 0 -->
      <g style="fill:#262626;" transform="translate(46.510095 97.3975)scale(0.08 -0.08)">
       <defs>
        <path d="M 51.703125 34.421875 
Q 51.703125 24.515625 49.828125 17.75 
Q 47.953125 10.984375 44.703125 6.8125 
Q 41.453125 2.640625 37.0625 0.828125 
Q 32.671875 -0.984375 27.6875 -0.984375 
Q 22.65625 -0.984375 18.3125 0.828125 
Q 13.96875 2.640625 10.765625 6.78125 
Q 7.5625 10.9375 5.734375 17.703125 
Q 3.90625 24.46875 3.90625 34.421875 
Q 3.90625 44.828125 5.734375 51.640625 
Q 7.5625 58.453125 10.78125 62.5 
Q 14.015625 66.546875 18.40625 68.1875 
Q 22.796875 69.828125 27.984375 69.828125 
Q 32.90625 69.828125 37.21875 68.1875 
Q 41.546875 66.546875 44.765625 62.5 
Q 48 58.453125 49.84375 51.640625 
Q 51.703125 44.828125 51.703125 34.421875 
z
M 42.78125 34.421875 
Q 42.78125 42.625 41.796875 48.0625 
Q 40.828125 53.515625 38.921875 56.765625 
Q 37.015625 60.015625 34.25 61.359375 
Q 31.5 62.703125 27.984375 62.703125 
Q 24.265625 62.703125 21.4375 61.328125 
Q 18.609375 59.96875 16.671875 56.71875 
Q 14.75 53.46875 13.765625 48.015625 
Q 12.796875 42.578125 12.796875 34.421875 
Q 12.796875 26.515625 13.796875 21.09375 
Q 14.796875 15.671875 16.71875 12.375 
Q 18.65625 9.078125 21.4375 7.640625 
Q 24.21875 6.203125 27.78125 6.203125 
Q 31.25 6.203125 34.03125 7.640625 
Q 36.8125 9.078125 38.734375 12.375 
Q 40.671875 15.671875 41.71875 21.09375 
Q 42.78125 26.515625 42.78125 34.421875 
z
" id="LiberationSans-48"/>
       </defs>
       <use xlink:href="#LiberationSans-48"/>
      </g>
     </g>
    </g>
    <g id="xtick_2">
     <g id="line2d_2">
      <g>
       <use style="fill:#262626;stroke:#262626;stroke-width:0.8;" x="62.855099" xlink:href="#maa382eff0b" y="85.6"/>
      </g>
     </g>
     <g id="text_2">
      <!-- 24 -->
      <g style="fill:#262626;" transform="translate(58.406349 97.3975)scale(0.08 -0.08)">
       <defs>
        <path d="M 5.03125 0 
L 5.03125 6.203125 
Q 7.515625 11.921875 11.109375 16.28125 
Q 14.703125 20.65625 18.65625 24.1875 
Q 22.609375 27.734375 26.484375 30.765625 
Q 30.375 33.796875 33.5 36.8125 
Q 36.625 39.84375 38.546875 43.15625 
Q 40.484375 46.484375 40.484375 50.6875 
Q 40.484375 53.609375 39.59375 55.828125 
Q 38.71875 58.0625 37.0625 59.5625 
Q 35.40625 61.078125 33.078125 61.828125 
Q 30.765625 62.59375 27.9375 62.59375 
Q 25.296875 62.59375 22.96875 61.859375 
Q 20.65625 61.140625 18.84375 59.671875 
Q 17.046875 58.203125 15.890625 56.03125 
Q 14.75 53.859375 14.40625 50.984375 
L 5.421875 51.8125 
Q 5.859375 55.515625 7.46875 58.78125 
Q 9.078125 62.0625 11.90625 64.53125 
Q 14.75 67 18.71875 68.40625 
Q 22.703125 69.828125 27.9375 69.828125 
Q 33.0625 69.828125 37.0625 68.609375 
Q 41.0625 67.390625 43.8125 64.984375 
Q 46.578125 62.59375 48.046875 59.078125 
Q 49.515625 55.5625 49.515625 50.984375 
Q 49.515625 47.515625 48.265625 44.390625 
Q 47.015625 41.265625 44.9375 38.421875 
Q 42.875 35.59375 40.140625 32.953125 
Q 37.40625 30.328125 34.421875 27.8125 
Q 31.453125 25.296875 28.421875 22.828125 
Q 25.390625 20.359375 22.71875 17.859375 
Q 20.0625 15.375 17.96875 12.8125 
Q 15.875 10.25 14.703125 7.46875 
L 50.59375 7.46875 
L 50.59375 0 
z
" id="LiberationSans-50"/>
        <path d="M 43.015625 15.578125 
L 43.015625 0 
L 34.71875 0 
L 34.71875 15.578125 
L 2.296875 15.578125 
L 2.296875 22.40625 
L 33.796875 68.796875 
L 43.015625 68.796875 
L 43.015625 22.515625 
L 52.6875 22.515625 
L 52.6875 15.578125 
z
M 34.71875 58.890625 
Q 34.625 58.640625 34.234375 57.9375 
Q 33.84375 57.234375 33.34375 56.34375 
Q 32.859375 55.46875 32.34375 54.5625 
Q 31.84375 53.65625 31.453125 53.078125 
L 13.8125 27.09375 
Q 13.578125 26.703125 13.109375 26.0625 
Q 12.640625 25.4375 12.15625 24.78125 
Q 11.671875 24.125 11.171875 23.484375 
Q 10.6875 22.859375 10.40625 22.515625 
L 34.71875 22.515625 
z
" id="LiberationSans-52"/>
       </defs>
       <use xlink:href="#LiberationSans-50"/>
       <use x="55.615234" xlink:href="#LiberationSans-52"/>
      </g>
     </g>
    </g>
    <g id="xtick_3">
     <g id="line2d_3">
      <g>
       <use style="fill:#262626;stroke:#262626;stroke-width:0.8;" x="76.975728" xlink:href="#maa382eff0b" y="85.6"/>
      </g>
     </g>
     <g id="text_3">
      <!-- 48 -->
      <g style="fill:#262626;" transform="translate(72.526978 97.3975)scale(0.08 -0.08)">
       <defs>
        <path d="M 51.265625 19.1875 
Q 51.265625 14.796875 49.875 11.109375 
Q 48.484375 7.421875 45.625 4.734375 
Q 42.78125 2.046875 38.328125 0.53125 
Q 33.890625 -0.984375 27.828125 -0.984375 
Q 21.78125 -0.984375 17.359375 0.53125 
Q 12.9375 2.046875 10.03125 4.703125 
Q 7.125 7.375 5.734375 11.0625 
Q 4.34375 14.75 4.34375 19.09375 
Q 4.34375 22.859375 5.484375 25.78125 
Q 6.640625 28.71875 8.5625 30.828125 
Q 10.5 32.953125 12.96875 34.25 
Q 15.4375 35.546875 18.0625 35.984375 
L 18.0625 36.1875 
Q 15.1875 36.859375 12.90625 38.375 
Q 10.640625 39.890625 9.09375 42.015625 
Q 7.5625 44.140625 6.75 46.71875 
Q 5.953125 49.3125 5.953125 52.203125 
Q 5.953125 55.8125 7.34375 59 
Q 8.734375 62.203125 11.46875 64.625 
Q 14.203125 67.046875 18.25 68.4375 
Q 22.3125 69.828125 27.640625 69.828125 
Q 33.25 69.828125 37.375 68.40625 
Q 41.5 67 44.203125 64.578125 
Q 46.921875 62.15625 48.234375 58.9375 
Q 49.5625 55.71875 49.5625 52.09375 
Q 49.5625 49.265625 48.75 46.671875 
Q 47.953125 44.09375 46.40625 41.96875 
Q 44.875 39.84375 42.59375 38.34375 
Q 40.328125 36.859375 37.359375 36.28125 
L 37.359375 36.078125 
Q 40.328125 35.59375 42.859375 34.296875 
Q 45.40625 33.015625 47.265625 30.890625 
Q 49.125 28.765625 50.1875 25.828125 
Q 51.265625 22.90625 51.265625 19.1875 
z
M 40.4375 51.609375 
Q 40.4375 54.203125 39.765625 56.34375 
Q 39.109375 58.5 37.59375 60.03125 
Q 36.078125 61.578125 33.640625 62.421875 
Q 31.203125 63.28125 27.640625 63.28125 
Q 24.171875 63.28125 21.78125 62.421875 
Q 19.390625 61.578125 17.84375 60.03125 
Q 16.3125 58.5 15.625 56.34375 
Q 14.9375 54.203125 14.9375 51.609375 
Q 14.9375 49.5625 15.46875 47.40625 
Q 16.015625 45.265625 17.421875 43.5 
Q 18.84375 41.75 21.328125 40.625 
Q 23.828125 39.5 27.734375 39.5 
Q 31.890625 39.5 34.40625 40.625 
Q 36.921875 41.75 38.25 43.5 
Q 39.59375 45.265625 40.015625 47.40625 
Q 40.4375 49.5625 40.4375 51.609375 
z
M 42.140625 20.015625 
Q 42.140625 22.515625 41.453125 24.828125 
Q 40.765625 27.15625 39.109375 28.9375 
Q 37.453125 30.71875 34.640625 31.8125 
Q 31.84375 32.90625 27.640625 32.90625 
Q 23.78125 32.90625 21.0625 31.8125 
Q 18.359375 30.71875 16.671875 28.90625 
Q 14.984375 27.09375 14.203125 24.71875 
Q 13.421875 22.359375 13.421875 19.828125 
Q 13.421875 16.65625 14.203125 14.03125 
Q 14.984375 11.421875 16.6875 9.546875 
Q 18.40625 7.671875 21.1875 6.640625 
Q 23.96875 5.609375 27.9375 5.609375 
Q 31.9375 5.609375 34.671875 6.640625 
Q 37.40625 7.671875 39.0625 9.546875 
Q 40.71875 11.421875 41.421875 14.078125 
Q 42.140625 16.75 42.140625 20.015625 
z
" id="LiberationSans-56"/>
       </defs>
       <use xlink:href="#LiberationSans-52"/>
       <use x="55.615234" xlink:href="#LiberationSans-56"/>
      </g>
     </g>
    </g>
    <g id="xtick_4">
     <g id="line2d_4">
      <g>
       <use style="fill:#262626;stroke:#262626;stroke-width:0.8;" x="91.096358" xlink:href="#maa382eff0b" y="85.6"/>
      </g>
     </g>
     <g id="text_4">
      <!-- 72 -->
      <g style="fill:#262626;" transform="translate(86.647608 97.3975)scale(0.08 -0.08)">
       <defs>
        <path d="M 50.59375 61.671875 
Q 45.40625 53.765625 41.0625 46.453125 
Q 36.71875 39.15625 33.59375 31.75 
Q 30.46875 24.359375 28.734375 16.578125 
Q 27 8.796875 27 0 
L 17.828125 0 
Q 17.828125 8.25 19.78125 16.1875 
Q 21.734375 24.125 25.046875 31.765625 
Q 28.375 39.40625 32.765625 46.78125 
Q 37.15625 54.15625 42.09375 61.328125 
L 5.125 61.328125 
L 5.125 68.796875 
L 50.59375 68.796875 
z
" id="LiberationSans-55"/>
       </defs>
       <use xlink:href="#LiberationSans-55"/>
       <use x="55.615234" xlink:href="#LiberationSans-50"/>
      </g>
     </g>
    </g>
    <g id="xtick_5">
     <g id="line2d_5">
      <g>
       <use style="fill:#262626;stroke:#262626;stroke-width:0.8;" x="105.216987" xlink:href="#maa382eff0b" y="85.6"/>
      </g>
     </g>
     <g id="text_5">
      <!-- 96 -->
      <g style="fill:#262626;" transform="translate(100.768237 97.3975)scale(0.08 -0.08)">
       <defs>
        <path d="M 50.875 35.796875 
Q 50.875 26.609375 49.140625 19.703125 
Q 47.40625 12.796875 44.1875 8.203125 
Q 40.96875 3.609375 36.34375 1.3125 
Q 31.734375 -0.984375 25.984375 -0.984375 
Q 22.015625 -0.984375 18.84375 -0.171875 
Q 15.671875 0.640625 13.171875 2.34375 
Q 10.6875 4.046875 8.921875 6.78125 
Q 7.171875 9.515625 6.109375 13.375 
L 14.5 14.703125 
Q 15.875 10.25 18.78125 8.171875 
Q 21.6875 6.109375 26.125 6.109375 
Q 29.6875 6.109375 32.640625 7.78125 
Q 35.59375 9.46875 37.671875 12.84375 
Q 39.75 16.21875 40.921875 21.296875 
Q 42.09375 26.375 42.1875 33.203125 
Q 41.15625 30.90625 39.375 29.09375 
Q 37.59375 27.296875 35.328125 26.046875 
Q 33.0625 24.8125 30.421875 24.140625 
Q 27.78125 23.484375 25.09375 23.484375 
Q 20.40625 23.484375 16.625 25.171875 
Q 12.84375 26.859375 10.203125 29.875 
Q 7.5625 32.90625 6.125 37.171875 
Q 4.6875 41.453125 4.6875 46.6875 
Q 4.6875 52 6.21875 56.296875 
Q 7.765625 60.59375 10.6875 63.59375 
Q 13.625 66.609375 17.890625 68.21875 
Q 22.171875 69.828125 27.59375 69.828125 
Q 39.0625 69.828125 44.96875 61.328125 
Q 50.875 52.828125 50.875 35.796875 
z
M 41.3125 44.28125 
Q 41.3125 48.09375 40.40625 51.453125 
Q 39.5 54.828125 37.71875 57.3125 
Q 35.9375 59.8125 33.328125 61.25 
Q 30.71875 62.703125 27.296875 62.703125 
Q 24.125 62.703125 21.578125 61.578125 
Q 19.046875 60.453125 17.28125 58.375 
Q 15.53125 56.296875 14.578125 53.3125 
Q 13.625 50.34375 13.625 46.6875 
Q 13.625 43.21875 14.46875 40.234375 
Q 15.328125 37.25 17.03125 35.078125 
Q 18.75 32.90625 21.28125 31.65625 
Q 23.828125 30.421875 27.203125 30.421875 
Q 29.640625 30.421875 32.15625 31.25 
Q 34.671875 32.078125 36.6875 33.78125 
Q 38.71875 35.5 40.015625 38.109375 
Q 41.3125 40.71875 41.3125 44.28125 
z
" id="LiberationSans-57"/>
        <path d="M 51.21875 22.515625 
Q 51.21875 17.328125 49.78125 13 
Q 48.34375 8.6875 45.53125 5.578125 
Q 42.71875 2.484375 38.5625 0.75 
Q 34.421875 -0.984375 29 -0.984375 
Q 23 -0.984375 18.5 1.3125 
Q 14.015625 3.609375 11.03125 7.921875 
Q 8.0625 12.25 6.5625 18.53125 
Q 5.078125 24.8125 5.078125 32.8125 
Q 5.078125 42 6.765625 48.921875 
Q 8.453125 55.859375 11.625 60.5 
Q 14.796875 65.140625 19.359375 67.484375 
Q 23.921875 69.828125 29.6875 69.828125 
Q 33.203125 69.828125 36.28125 69.09375 
Q 39.359375 68.359375 41.875 66.71875 
Q 44.390625 65.09375 46.28125 62.40625 
Q 48.1875 59.71875 49.3125 55.8125 
L 40.921875 54.296875 
Q 39.546875 58.734375 36.546875 60.71875 
Q 33.546875 62.703125 29.59375 62.703125 
Q 25.984375 62.703125 23.046875 60.984375 
Q 20.125 59.28125 18.0625 55.875 
Q 16.015625 52.484375 14.90625 47.359375 
Q 13.8125 42.234375 13.8125 35.40625 
Q 16.21875 39.84375 20.5625 42.15625 
Q 24.90625 44.484375 30.515625 44.484375 
Q 35.203125 44.484375 39.015625 42.96875 
Q 42.828125 41.453125 45.53125 38.59375 
Q 48.25 35.75 49.734375 31.671875 
Q 51.21875 27.59375 51.21875 22.515625 
z
M 42.28125 22.125 
Q 42.28125 25.6875 41.40625 28.5625 
Q 40.53125 31.453125 38.765625 33.46875 
Q 37.015625 35.5 34.421875 36.59375 
Q 31.84375 37.703125 28.421875 37.703125 
Q 26.03125 37.703125 23.578125 36.984375 
Q 21.140625 36.28125 19.15625 34.6875 
Q 17.1875 33.109375 15.9375 30.515625 
Q 14.703125 27.9375 14.703125 24.21875 
Q 14.703125 20.40625 15.671875 17.109375 
Q 16.65625 13.8125 18.484375 11.375 
Q 20.3125 8.9375 22.890625 7.515625 
Q 25.484375 6.109375 28.71875 6.109375 
Q 31.890625 6.109375 34.40625 7.203125 
Q 36.921875 8.296875 38.671875 10.375 
Q 40.4375 12.453125 41.359375 15.421875 
Q 42.28125 18.40625 42.28125 22.125 
z
" id="LiberationSans-54"/>
       </defs>
       <use xlink:href="#LiberationSans-57"/>
       <use x="55.615234" xlink:href="#LiberationSans-54"/>
      </g>
     </g>
    </g>
    <g id="text_6">
     <!-- time (h) -->
     <g style="fill:#262626;" transform="translate(64.079089 109.579687)scale(0.09 -0.09)">
      <defs>
       <path d="M 27.046875 0.390625 
Q 25.046875 -0.140625 22.96875 -0.453125 
Q 20.90625 -0.78125 18.171875 -0.78125 
Q 7.625 -0.78125 7.625 11.1875 
L 7.625 46.4375 
L 1.515625 46.4375 
L 1.515625 52.828125 
L 7.953125 52.828125 
L 10.546875 64.65625 
L 16.40625 64.65625 
L 16.40625 52.828125 
L 26.171875 52.828125 
L 26.171875 46.4375 
L 16.40625 46.4375 
L 16.40625 13.09375 
Q 16.40625 9.28125 17.640625 7.734375 
Q 18.890625 6.203125 21.96875 6.203125 
Q 23.25 6.203125 24.4375 6.390625 
Q 25.640625 6.59375 27.046875 6.890625 
z
" id="LiberationSans-116"/>
       <path d="M 6.6875 64.0625 
L 6.6875 72.46875 
L 15.484375 72.46875 
L 15.484375 64.0625 
z
M 6.6875 0 
L 6.6875 52.828125 
L 15.484375 52.828125 
L 15.484375 0 
z
" id="LiberationSans-105"/>
       <path d="M 37.5 0 
L 37.5 33.5 
Q 37.5 37.359375 37.015625 39.9375 
Q 36.53125 42.53125 35.375 44.109375 
Q 34.234375 45.703125 32.375 46.359375 
Q 30.515625 47.015625 27.828125 47.015625 
Q 25.046875 47.015625 22.796875 45.921875 
Q 20.5625 44.828125 18.96875 42.75 
Q 17.390625 40.671875 16.53125 37.625 
Q 15.671875 34.578125 15.671875 30.609375 
L 15.671875 0 
L 6.9375 0 
L 6.9375 41.546875 
Q 6.9375 43.21875 6.90625 45.046875 
Q 6.890625 46.875 6.828125 48.5 
Q 6.78125 50.140625 6.734375 51.3125 
Q 6.6875 52.484375 6.640625 52.828125 
L 14.9375 52.828125 
Q 14.984375 52.59375 15.03125 51.515625 
Q 15.09375 50.4375 15.15625 49.046875 
Q 15.234375 47.65625 15.28125 46.21875 
Q 15.328125 44.78125 15.328125 43.796875 
L 15.484375 43.796875 
Q 16.65625 46.09375 18.015625 47.953125 
Q 19.390625 49.8125 21.21875 51.09375 
Q 23.046875 52.390625 25.40625 53.09375 
Q 27.78125 53.8125 30.90625 53.8125 
Q 36.921875 53.8125 40.40625 51.421875 
Q 43.890625 49.03125 45.265625 43.796875 
L 45.40625 43.796875 
Q 46.578125 46.09375 48.046875 47.953125 
Q 49.515625 49.8125 51.46875 51.09375 
Q 53.421875 52.390625 55.859375 53.09375 
Q 58.296875 53.8125 61.421875 53.8125 
Q 65.4375 53.8125 68.328125 52.734375 
Q 71.234375 51.65625 73.09375 49.40625 
Q 74.953125 47.171875 75.828125 43.625 
Q 76.703125 40.09375 76.703125 35.203125 
L 76.703125 0 
L 68.015625 0 
L 68.015625 33.5 
Q 68.015625 37.359375 67.53125 39.9375 
Q 67.046875 42.53125 65.890625 44.109375 
Q 64.75 45.703125 62.890625 46.359375 
Q 61.03125 47.015625 58.34375 47.015625 
Q 55.5625 47.015625 53.3125 45.96875 
Q 51.078125 44.921875 49.484375 42.875 
Q 47.90625 40.828125 47.046875 37.75 
Q 46.1875 34.671875 46.1875 30.609375 
L 46.1875 0 
z
" id="LiberationSans-109"/>
       <path d="M 13.484375 24.5625 
Q 13.484375 20.40625 14.328125 16.90625 
Q 15.1875 13.421875 16.96875 10.90625 
Q 18.75 8.40625 21.53125 7 
Q 24.3125 5.609375 28.21875 5.609375 
Q 33.9375 5.609375 37.375 7.90625 
Q 40.828125 10.203125 42.046875 13.71875 
L 49.75 11.53125 
Q 48.921875 9.328125 47.4375 7.109375 
Q 45.953125 4.890625 43.453125 3.09375 
Q 40.96875 1.3125 37.234375 0.15625 
Q 33.5 -0.984375 28.21875 -0.984375 
Q 16.5 -0.984375 10.375 6 
Q 4.25 12.984375 4.25 26.765625 
Q 4.25 34.1875 6.09375 39.328125 
Q 7.953125 44.484375 11.171875 47.703125 
Q 14.40625 50.921875 18.703125 52.359375 
Q 23 53.8125 27.875 53.8125 
Q 34.515625 53.8125 38.984375 51.65625 
Q 43.453125 49.515625 46.15625 45.71875 
Q 48.875 41.9375 50.015625 36.8125 
Q 51.171875 31.6875 51.171875 25.734375 
L 51.171875 24.5625 
z
M 42.09375 31.296875 
Q 41.359375 39.65625 37.84375 43.484375 
Q 34.328125 47.3125 27.734375 47.3125 
Q 25.53125 47.3125 23.109375 46.609375 
Q 20.703125 45.90625 18.65625 44.09375 
Q 16.609375 42.28125 15.1875 39.171875 
Q 13.765625 36.078125 13.578125 31.296875 
z
" id="LiberationSans-101"/>
       <path id="LiberationSans-32"/>
       <path d="M 6.203125 25.984375 
Q 6.203125 32.765625 7.21875 38.96875 
Q 8.25 45.171875 10.4375 50.875 
Q 12.640625 56.59375 16.0625 61.953125 
Q 19.484375 67.328125 24.21875 72.46875 
L 32.71875 72.46875 
Q 28.125 67.328125 24.78125 61.9375 
Q 21.4375 56.546875 19.28125 50.796875 
Q 17.140625 45.0625 16.09375 38.859375 
Q 15.046875 32.671875 15.046875 25.875 
Q 15.046875 19.09375 16.09375 12.890625 
Q 17.140625 6.6875 19.28125 0.921875 
Q 21.4375 -4.828125 24.78125 -10.203125 
Q 28.125 -15.578125 32.71875 -20.703125 
L 24.21875 -20.703125 
Q 19.484375 -15.578125 16.0625 -10.203125 
Q 12.640625 -4.828125 10.4375 0.875 
Q 8.25 6.59375 7.21875 12.765625 
Q 6.203125 18.953125 6.203125 25.78125 
z
" id="LiberationSans-40"/>
       <path d="M 15.484375 43.796875 
Q 16.9375 46.484375 18.640625 48.359375 
Q 20.359375 50.25 22.40625 51.46875 
Q 24.46875 52.6875 26.90625 53.25 
Q 29.34375 53.8125 32.375 53.8125 
Q 37.453125 53.8125 40.703125 52.4375 
Q 43.953125 51.078125 45.828125 48.609375 
Q 47.703125 46.140625 48.40625 42.71875 
Q 49.125 39.3125 49.125 35.203125 
L 49.125 0 
L 40.28125 0 
L 40.28125 33.5 
Q 40.28125 36.859375 39.859375 39.390625 
Q 39.453125 41.9375 38.28125 43.625 
Q 37.109375 45.3125 34.953125 46.15625 
Q 32.8125 47.015625 29.390625 47.015625 
Q 26.265625 47.015625 23.75 45.890625 
Q 21.234375 44.78125 19.453125 42.71875 
Q 17.671875 40.671875 16.6875 37.734375 
Q 15.71875 34.8125 15.71875 31.15625 
L 15.71875 0 
L 6.9375 0 
L 6.9375 72.46875 
L 15.71875 72.46875 
L 15.71875 53.609375 
Q 15.71875 52 15.671875 50.390625 
Q 15.625 48.78125 15.546875 47.40625 
Q 15.484375 46.046875 15.421875 45.09375 
Q 15.375 44.140625 15.328125 43.796875 
z
" id="LiberationSans-104"/>
       <path d="M 27.09375 25.78125 
Q 27.09375 18.953125 26.0625 12.765625 
Q 25.046875 6.59375 22.84375 0.875 
Q 20.65625 -4.828125 17.234375 -10.203125 
Q 13.8125 -15.578125 9.078125 -20.703125 
L 0.59375 -20.703125 
Q 5.171875 -15.578125 8.515625 -10.203125 
Q 11.859375 -4.828125 14 0.921875 
Q 16.15625 6.6875 17.203125 12.890625 
Q 18.265625 19.09375 18.265625 25.875 
Q 18.265625 32.671875 17.203125 38.859375 
Q 16.15625 45.0625 14 50.796875 
Q 11.859375 56.546875 8.515625 61.9375 
Q 5.171875 67.328125 0.59375 72.46875 
L 9.078125 72.46875 
Q 13.8125 67.328125 17.234375 61.953125 
Q 20.65625 56.59375 22.84375 50.875 
Q 25.046875 45.171875 26.0625 38.96875 
Q 27.09375 32.765625 27.09375 25.984375 
z
" id="LiberationSans-41"/>
      </defs>
      <use xlink:href="#LiberationSans-116"/>
      <use x="27.783203" xlink:href="#LiberationSans-105"/>
      <use x="50" xlink:href="#LiberationSans-109"/>
      <use x="133.300781" xlink:href="#LiberationSans-101"/>
      <use x="188.916016" xlink:href="#LiberationSans-32"/>
      <use x="216.699219" xlink:href="#LiberationSans-40"/>
      <use x="250" xlink:href="#LiberationSans-104"/>
      <use x="305.615234" xlink:href="#LiberationSans-41"/>
     </g>
    </g>
   </g>
   <g id="matplotlib.axis_2">
    <g id="ytick_1">
     <g id="line2d_6">
      <defs>
       <path d="M 0 0 
L -4 0 
" id="m0d274e80f6" style="stroke:#262626;stroke-width:0.8;"/>
      </defs>
      <g>
       <use style="fill:#262626;stroke:#262626;stroke-width:0.8;" x="45.675" xlink:href="#m0d274e80f6" y="85.6"/>
      </g>
     </g>
     <g id="text_7">
      <!-- −1.0 -->
      <g style="fill:#262626;" transform="translate(23.8825 88.49875)scale(0.08 -0.08)">
       <defs>
        <path d="M 4.9375 29.6875 
L 4.9375 36.8125 
L 53.515625 36.8125 
L 53.515625 29.6875 
z
" id="LiberationSans-8722"/>
        <path d="M 7.625 0 
L 7.625 7.46875 
L 25.140625 7.46875 
L 25.140625 60.40625 
L 9.625 49.3125 
L 9.625 57.625 
L 25.875 68.796875 
L 33.984375 68.796875 
L 33.984375 7.46875 
L 50.734375 7.46875 
L 50.734375 0 
z
" id="LiberationSans-49"/>
        <path d="M 9.125 0 
L 9.125 10.6875 
L 18.65625 10.6875 
L 18.65625 0 
z
" id="LiberationSans-46"/>
       </defs>
       <use xlink:href="#LiberationSans-8722"/>
       <use x="58.398438" xlink:href="#LiberationSans-49"/>
       <use x="114.013672" xlink:href="#LiberationSans-46"/>
       <use x="141.796875" xlink:href="#LiberationSans-48"/>
      </g>
     </g>
    </g>
    <g id="ytick_2">
     <g id="line2d_7">
      <g>
       <use style="fill:#262626;stroke:#262626;stroke-width:0.8;" x="45.675" xlink:href="#m0d274e80f6" y="71.080554"/>
      </g>
     </g>
     <g id="text_8">
      <!-- −0.5 -->
      <g style="fill:#262626;" transform="translate(23.8825 73.979304)scale(0.08 -0.08)">
       <defs>
        <path d="M 51.421875 22.40625 
Q 51.421875 17.234375 49.859375 12.9375 
Q 48.296875 8.640625 45.21875 5.53125 
Q 42.140625 2.4375 37.578125 0.71875 
Q 33.015625 -0.984375 27 -0.984375 
Q 21.578125 -0.984375 17.546875 0.28125 
Q 13.53125 1.5625 10.734375 3.78125 
Q 7.953125 6 6.3125 8.984375 
Q 4.6875 11.96875 4 15.375 
L 12.890625 16.40625 
Q 13.421875 14.453125 14.390625 12.625 
Q 15.375 10.796875 17.0625 9.34375 
Q 18.75 7.90625 21.21875 7.046875 
Q 23.6875 6.203125 27.203125 6.203125 
Q 30.609375 6.203125 33.390625 7.25 
Q 36.1875 8.296875 38.15625 10.34375 
Q 40.140625 12.40625 41.203125 15.375 
Q 42.28125 18.359375 42.28125 22.21875 
Q 42.28125 25.390625 41.25 28.046875 
Q 40.234375 30.71875 38.328125 32.640625 
Q 36.421875 34.578125 33.65625 35.640625 
Q 30.90625 36.71875 27.390625 36.71875 
Q 25.203125 36.71875 23.34375 36.328125 
Q 21.484375 35.9375 19.890625 35.25 
Q 18.3125 34.578125 17.015625 33.671875 
Q 15.71875 32.765625 14.59375 31.78125 
L 6 31.78125 
L 8.296875 68.796875 
L 47.40625 68.796875 
L 47.40625 61.328125 
L 16.3125 61.328125 
L 14.984375 39.5 
Q 17.328125 41.3125 20.84375 42.59375 
Q 24.359375 43.890625 29.203125 43.890625 
Q 34.328125 43.890625 38.421875 42.328125 
Q 42.53125 40.765625 45.40625 37.90625 
Q 48.296875 35.0625 49.859375 31.109375 
Q 51.421875 27.15625 51.421875 22.40625 
z
" id="LiberationSans-53"/>
       </defs>
       <use xlink:href="#LiberationSans-8722"/>
       <use x="58.398438" xlink:href="#LiberationSans-48"/>
       <use x="114.013672" xlink:href="#LiberationSans-46"/>
       <use x="141.796875" xlink:href="#LiberationSans-53"/>
      </g>
     </g>
    </g>
    <g id="ytick_3">
     <g id="line2d_8">
      <g>
       <use style="fill:#262626;stroke:#262626;stroke-width:0.8;" x="45.675" xlink:href="#m0d274e80f6" y="56.561108"/>
      </g>
     </g>
     <g id="text_9">
      <!-- 0.0 -->
      <g style="fill:#262626;" transform="translate(28.555 59.459858)scale(0.08 -0.08)">
       <use xlink:href="#LiberationSans-48"/>
       <use x="55.615234" xlink:href="#LiberationSans-46"/>
       <use x="83.398438" xlink:href="#LiberationSans-48"/>
      </g>
     </g>
    </g>
    <g id="ytick_4">
     <g id="line2d_9">
      <g>
       <use style="fill:#262626;stroke:#262626;stroke-width:0.8;" x="45.675" xlink:href="#m0d274e80f6" y="42.041662"/>
      </g>
     </g>
     <g id="text_10">
      <!-- 0.5 -->
      <g style="fill:#262626;" transform="translate(28.555 44.940412)scale(0.08 -0.08)">
       <use xlink:href="#LiberationSans-48"/>
       <use x="55.615234" xlink:href="#LiberationSans-46"/>
       <use x="83.398438" xlink:href="#LiberationSans-53"/>
      </g>
     </g>
    </g>
    <g id="ytick_5">
     <g id="line2d_10">
      <g>
       <use style="fill:#262626;stroke:#262626;stroke-width:0.8;" x="45.675" xlink:href="#m0d274e80f6" y="27.522216"/>
      </g>
     </g>
     <g id="text_11">
      <!-- 1.0 -->
      <g style="fill:#262626;" transform="translate(28.555 30.420966)scale(0.08 -0.08)">
       <use xlink:href="#LiberationSans-49"/>
       <use x="55.615234" xlink:href="#LiberationSans-46"/>
       <use x="83.398438" xlink:href="#LiberationSans-48"/>
      </g>
     </g>
    </g>
    <g id="text_12">
     <!-- expr. norm. -->
     <g style="fill:#262626;" transform="translate(18.015 77.207734)rotate(-90)scale(0.09 -0.09)">
      <defs>
       <path d="M 39.109375 0 
L 24.90625 21.6875 
L 10.59375 0 
L 1.125 0 
L 19.921875 27.15625 
L 2 52.828125 
L 11.71875 52.828125 
L 24.90625 32.28125 
L 37.984375 52.828125 
L 47.796875 52.828125 
L 29.890625 27.25 
L 48.921875 0 
z
" id="LiberationSans-120"/>
       <path d="M 51.421875 26.65625 
Q 51.421875 20.65625 50.4375 15.578125 
Q 49.46875 10.5 47.1875 6.828125 
Q 44.921875 3.171875 41.1875 1.09375 
Q 37.453125 -0.984375 31.984375 -0.984375 
Q 26.3125 -0.984375 22.0625 1.171875 
Q 17.828125 3.328125 15.578125 8.203125 
L 15.328125 8.203125 
Q 15.375 8.109375 15.40625 7.328125 
Q 15.4375 6.546875 15.453125 5.375 
Q 15.484375 4.203125 15.5 2.75 
Q 15.53125 1.3125 15.53125 -0.09375 
L 15.53125 -20.75 
L 6.734375 -20.75 
L 6.734375 42.046875 
Q 6.734375 43.953125 6.703125 45.703125 
Q 6.6875 47.46875 6.640625 48.90625 
Q 6.59375 50.34375 6.546875 51.359375 
Q 6.5 52.390625 6.453125 52.828125 
L 14.9375 52.828125 
Q 14.984375 52.6875 15.0625 51.796875 
Q 15.140625 50.921875 15.203125 49.671875 
Q 15.28125 48.4375 15.359375 47.015625 
Q 15.4375 45.609375 15.4375 44.34375 
L 15.625 44.34375 
Q 16.84375 46.875 18.40625 48.65625 
Q 19.96875 50.4375 21.96875 51.578125 
Q 23.96875 52.734375 26.4375 53.25 
Q 28.90625 53.765625 31.984375 53.765625 
Q 37.453125 53.765625 41.1875 51.8125 
Q 44.921875 49.859375 47.1875 46.3125 
Q 49.46875 42.78125 50.4375 37.765625 
Q 51.421875 32.765625 51.421875 26.65625 
z
M 42.1875 26.46875 
Q 42.1875 31.34375 41.59375 35.15625 
Q 41.015625 38.96875 39.578125 41.59375 
Q 38.140625 44.234375 35.734375 45.59375 
Q 33.34375 46.96875 29.734375 46.96875 
Q 26.8125 46.96875 24.21875 46.140625 
Q 21.625 45.3125 19.703125 42.96875 
Q 17.78125 40.625 16.65625 36.5 
Q 15.53125 32.375 15.53125 25.78125 
Q 15.53125 20.171875 16.453125 16.28125 
Q 17.390625 12.40625 19.171875 10.015625 
Q 20.953125 7.625 23.578125 6.5625 
Q 26.21875 5.515625 29.640625 5.515625 
Q 33.296875 5.515625 35.71875 6.921875 
Q 38.140625 8.34375 39.578125 11.03125 
Q 41.015625 13.71875 41.59375 17.59375 
Q 42.1875 21.484375 42.1875 26.46875 
z
" id="LiberationSans-112"/>
       <path d="M 6.9375 0 
L 6.9375 40.53125 
Q 6.9375 42.1875 6.90625 43.921875 
Q 6.890625 45.65625 6.828125 47.265625 
Q 6.78125 48.875 6.734375 50.28125 
Q 6.6875 51.703125 6.640625 52.828125 
L 14.9375 52.828125 
Q 14.984375 51.703125 15.0625 50.265625 
Q 15.140625 48.828125 15.203125 47.3125 
Q 15.28125 45.796875 15.296875 44.40625 
Q 15.328125 43.015625 15.328125 42.046875 
L 15.53125 42.046875 
Q 16.453125 45.0625 17.5 47.28125 
Q 18.5625 49.515625 19.96875 50.953125 
Q 21.390625 52.390625 23.34375 53.09375 
Q 25.296875 53.8125 28.078125 53.8125 
Q 29.15625 53.8125 30.125 53.640625 
Q 31.109375 53.46875 31.640625 53.328125 
L 31.640625 45.265625 
Q 30.765625 45.515625 29.59375 45.625 
Q 28.421875 45.75 26.953125 45.75 
Q 23.921875 45.75 21.796875 44.375 
Q 19.671875 43.015625 18.328125 40.59375 
Q 17 38.1875 16.359375 34.84375 
Q 15.71875 31.5 15.71875 27.546875 
L 15.71875 0 
z
" id="LiberationSans-114"/>
       <path d="M 40.28125 0 
L 40.28125 33.5 
Q 40.28125 37.359375 39.71875 39.9375 
Q 39.15625 42.53125 37.890625 44.109375 
Q 36.625 45.703125 34.546875 46.359375 
Q 32.46875 47.015625 29.390625 47.015625 
Q 26.265625 47.015625 23.75 45.921875 
Q 21.234375 44.828125 19.453125 42.75 
Q 17.671875 40.671875 16.6875 37.625 
Q 15.71875 34.578125 15.71875 30.609375 
L 15.71875 0 
L 6.9375 0 
L 6.9375 41.546875 
Q 6.9375 43.21875 6.90625 45.046875 
Q 6.890625 46.875 6.828125 48.5 
Q 6.78125 50.140625 6.734375 51.3125 
Q 6.6875 52.484375 6.640625 52.828125 
L 14.9375 52.828125 
Q 14.984375 52.59375 15.03125 51.515625 
Q 15.09375 50.4375 15.15625 49.046875 
Q 15.234375 47.65625 15.28125 46.21875 
Q 15.328125 44.78125 15.328125 43.796875 
L 15.484375 43.796875 
Q 16.75 46.09375 18.265625 47.953125 
Q 19.78125 49.8125 21.78125 51.09375 
Q 23.78125 52.390625 26.359375 53.09375 
Q 28.953125 53.8125 32.375 53.8125 
Q 36.765625 53.8125 39.9375 52.734375 
Q 43.109375 51.65625 45.15625 49.40625 
Q 47.21875 47.171875 48.171875 43.625 
Q 49.125 40.09375 49.125 35.203125 
L 49.125 0 
z
" id="LiberationSans-110"/>
       <path d="M 51.421875 26.46875 
Q 51.421875 12.59375 45.3125 5.796875 
Q 39.203125 -0.984375 27.59375 -0.984375 
Q 22.078125 -0.984375 17.71875 0.671875 
Q 13.375 2.34375 10.375 5.765625 
Q 7.375 9.1875 5.78125 14.328125 
Q 4.203125 19.484375 4.203125 26.46875 
Q 4.203125 53.8125 27.875 53.8125 
Q 34.03125 53.8125 38.5 52.09375 
Q 42.96875 50.390625 45.828125 46.96875 
Q 48.6875 43.5625 50.046875 38.421875 
Q 51.421875 33.296875 51.421875 26.46875 
z
M 42.1875 26.46875 
Q 42.1875 32.625 41.234375 36.625 
Q 40.28125 40.625 38.453125 43.015625 
Q 36.625 45.40625 33.984375 46.359375 
Q 31.34375 47.3125 28.03125 47.3125 
Q 24.65625 47.3125 21.9375 46.3125 
Q 19.234375 45.3125 17.328125 42.890625 
Q 15.4375 40.484375 14.421875 36.46875 
Q 13.421875 32.46875 13.421875 26.46875 
Q 13.421875 20.3125 14.5 16.28125 
Q 15.578125 12.25 17.453125 9.859375 
Q 19.34375 7.46875 21.90625 6.484375 
Q 24.46875 5.515625 27.484375 5.515625 
Q 30.859375 5.515625 33.59375 6.46875 
Q 36.328125 7.421875 38.234375 9.8125 
Q 40.140625 12.203125 41.15625 16.25 
Q 42.1875 20.3125 42.1875 26.46875 
z
" id="LiberationSans-111"/>
      </defs>
      <use xlink:href="#LiberationSans-101"/>
      <use x="55.615234" xlink:href="#LiberationSans-120"/>
      <use x="105.615234" xlink:href="#LiberationSans-112"/>
      <use x="161.230469" xlink:href="#LiberationSans-114"/>
      <use x="189.03125" xlink:href="#LiberationSans-46"/>
      <use x="216.814453" xlink:href="#LiberationSans-32"/>
      <use x="244.597656" xlink:href="#LiberationSans-110"/>
      <use x="300.212891" xlink:href="#LiberationSans-111"/>
      <use x="355.828125" xlink:href="#LiberationSans-114"/>
      <use x="389.128906" xlink:href="#LiberationSans-109"/>
      <use x="472.429688" xlink:href="#LiberationSans-46"/>
     </g>
    </g>
   </g>
   <g id="line2d_11">
    <path clip-path="url(#p7b54469719)" d="M 48.73447 56.561108 
L 49.352544 56.561108 
L 49.970619 56.561108 
L 50.588694 56.561108 
L 51.206768 56.561108 
L 51.824843 56.561108 
L 52.442918 56.561108 
L 53.060993 56.561104 
L 53.679067 56.561026 
L 54.297142 56.560221 
L 54.915217 56.554869 
L 55.533291 56.53022 
L 56.151366 56.44641 
L 56.769441 56.225563 
L 57.387515 55.757203 
L 58.00559 54.93342 
L 58.623665 53.702226 
L 59.241739 52.107258 
L 59.859814 50.286534 
L 60.477889 48.42959 
L 61.095963 46.717634 
L 61.714038 45.27661 
L 62.332113 44.159463 
L 62.950187 43.355555 
L 63.568262 42.814423 
L 64.186337 42.470467 
L 64.804412 42.260619 
L 65.422486 42.133155 
L 66.040561 42.049579 
L 66.658636 41.982656 
L 67.27671 41.913133 
L 67.894785 41.826706 
L 68.51286 41.711835 
L 69.130934 41.558511 
L 69.749009 41.357789 
L 70.367084 41.101855 
L 70.985158 40.784392 
L 71.603233 40.40106 
L 72.221308 39.949956 
L 72.839382 39.431936 
L 73.457457 38.850753 
L 74.075532 38.212964 
L 74.693607 37.527629 
L 75.311681 36.805815 
L 75.929756 36.059975 
L 76.547831 35.303244 
L 77.165905 34.548736 
L 77.78398 33.808889 
L 78.402055 33.094915 
L 79.020129 32.416379 
L 79.638204 31.780922 
L 80.256279 31.194143 
L 80.874353 30.659603 
L 81.492428 30.178954 
L 82.110503 29.752149 
L 82.728577 29.377704 
L 83.346652 29.052996 
L 83.964727 28.774559 
L 84.582801 28.538372 
L 85.200876 28.340108 
L 85.818951 28.175349 
L 86.437026 28.039764 
L 87.0551 27.929236 
L 87.673175 27.839955 
L 88.29125 27.76847 
L 88.909324 27.711724 
L 89.527399 27.667051 
L 90.145474 27.632164 
L 90.763548 27.605132 
L 91.381623 27.584344 
L 91.999698 27.568476 
L 92.617772 27.55645 
L 93.235847 27.547398 
L 93.853922 27.540631 
L 94.471996 27.535605 
L 95.090071 27.531897 
L 95.708146 27.529177 
L 96.326221 27.527195 
L 96.944295 27.525758 
L 97.56237 27.524723 
L 98.180445 27.523982 
L 98.798519 27.523454 
L 99.416594 27.523079 
L 100.034669 27.522815 
L 100.652743 27.52263 
L 101.270818 27.522501 
L 101.888893 27.522411 
L 102.506967 27.522349 
L 103.125042 27.522306 
L 103.743117 27.522277 
L 104.361191 27.522257 
L 104.979266 27.522243 
L 105.597341 27.522234 
L 106.215416 27.522228 
L 106.83349 27.522224 
L 107.451565 27.522221 
L 108.06964 27.522219 
L 108.687714 27.522218 
L 109.305789 27.522217 
L 109.923864 27.522217 
" style="fill:none;stroke:#800080;stroke-linecap:round;stroke-width:2;"/>
   </g>
   <g id="patch_3">
    <path d="M 45.675 85.6 
L 45.675 23.8 
" style="fill:none;stroke:#262626;stroke-linecap:square;stroke-linejoin:miter;"/>
   </g>
   <g id="patch_4">
    <path d="M 112.983333 85.6 
L 112.983333 23.8 
" style="fill:none;stroke:#262626;stroke-linecap:square;stroke-linejoin:miter;"/>
   </g>
   <g id="patch_5">
    <path d="M 45.675 85.6 
L 112.983333 85.6 
" style="fill:none;stroke:#262626;stroke-linecap:square;stroke-linejoin:miter;"/>
   </g>
   <g id="patch_6">
    <path d="M 45.675 23.8 
L 112.983333 23.8 
" style="fill:none;stroke:#262626;stroke-linecap:square;stroke-linejoin:miter;"/>
   </g>
   <g id="line2d_12">
    <path clip-path="url(#p7b54469719)" d="M 48.73447 56.561108 
L 49.352544 56.560266 
L 49.970619 56.552519 
L 50.588694 56.528743 
L 51.206768 56.479948 
L 51.824843 56.398279 
L 52.442918 56.277376 
L 53.060993 56.112475 
L 53.679067 55.900363 
L 54.297142 55.639257 
L 54.915217 55.328646 
L 55.533291 54.969116 
L 56.151366 54.562176 
L 56.769441 54.110088 
L 57.387515 53.615709 
L 58.00559 53.082349 
L 58.623665 52.513644 
L 59.241739 51.913442 
L 59.859814 51.285708 
L 60.477889 50.634442 
L 61.095963 49.96361 
L 61.714038 49.277086 
L 62.332113 48.578613 
L 62.950187 47.871759 
L 63.568262 47.159896 
L 64.186337 46.446181 
L 64.804412 45.73354 
L 65.422486 45.024661 
L 66.040561 44.321994 
L 66.658636 43.627748 
L 67.27671 42.943901 
L 67.894785 42.272201 
L 68.51286 41.614175 
L 69.130934 40.971144 
L 69.749009 40.344229 
L 70.367084 39.734367 
L 70.985158 39.14232 
L 71.603233 38.568689 
L 72.221308 38.013929 
L 72.839382 37.478356 
L 73.457457 36.962166 
L 74.075532 36.465442 
L 74.693607 35.988167 
L 75.311681 35.530234 
L 75.929756 35.091459 
L 76.547831 34.671586 
L 77.165905 34.2703 
L 77.78398 33.887235 
L 78.402055 33.52198 
L 79.020129 33.174086 
L 79.638204 32.843074 
L 80.256279 32.528443 
L 80.874353 32.229669 
L 81.492428 31.946217 
L 82.110503 31.677542 
L 82.728577 31.423091 
L 83.346652 31.182312 
L 83.964727 30.954652 
L 84.582801 30.739562 
L 85.200876 30.536499 
L 85.818951 30.344929 
L 86.437026 30.164327 
L 87.0551 29.994179 
L 87.673175 29.833985 
L 88.29125 29.683257 
L 88.909324 29.541523 
L 89.527399 29.408324 
L 90.145474 29.283219 
L 90.763548 29.165781 
L 91.381623 29.0556 
L 91.999698 28.952282 
L 92.617772 28.855448 
L 93.235847 28.764736 
L 93.853922 28.679801 
L 94.471996 28.600311 
L 95.090071 28.525952 
L 95.708146 28.456423 
L 96.326221 28.391439 
L 96.944295 28.330727 
L 97.56237 28.274031 
L 98.180445 28.221106 
L 98.798519 28.17172 
L 99.416594 28.125654 
L 100.034669 28.082701 
L 100.652743 28.042665 
L 101.270818 28.005361 
L 101.888893 27.970614 
L 102.506967 27.938261 
L 103.125042 27.908146 
L 103.743117 27.880123 
L 104.361191 27.854056 
L 104.979266 27.829815 
L 105.597341 27.807279 
L 106.215416 27.786334 
L 106.83349 27.766874 
L 107.451565 27.748798 
L 108.06964 27.732013 
L 108.687714 27.71643 
L 109.305789 27.701967 
L 109.923864 27.688548 
" style="fill:none;stroke:#1f77b4;stroke-linecap:round;stroke-width:2;"/>
   </g>
   <g id="text_13">
    <!-- Ehd4 -->
    <g style="fill:#262626;" transform="translate(68.82026 17.8)scale(0.09 -0.09)">
     <defs>
      <path d="M 3.078125 0 
L 16.40625 68.796875 
L 67.625 68.796875 
L 66.15625 61.1875 
L 24.265625 61.1875 
L 19.96875 39.109375 
L 58.9375 39.109375 
L 57.46875 31.59375 
L 18.5 31.59375 
L 13.875 7.625 
L 57.765625 7.625 
L 56.296875 0 
z
" id="LiberationSans-Italic-69"/>
      <path d="M 18.703125 43.796875 
Q 20.359375 46.09375 22.109375 47.953125 
Q 23.875 49.8125 26 51.09375 
Q 28.125 52.390625 30.6875 53.078125 
Q 33.25 53.765625 36.53125 53.765625 
Q 43.75 53.765625 47.390625 50.1875 
Q 51.03125 46.625 51.03125 39.890625 
Q 51.03125 38.140625 50.703125 35.9375 
Q 50.390625 33.734375 50 31.890625 
L 43.796875 0 
L 34.96875 0 
L 41.109375 31.5 
Q 41.5 33.40625 41.75 35.375 
Q 42 37.359375 42 38.8125 
Q 42 42.671875 39.9375 44.8125 
Q 37.890625 46.96875 33.25 46.96875 
Q 30.125 46.96875 27.359375 45.71875 
Q 24.609375 44.484375 22.359375 42.203125 
Q 20.125 39.9375 18.53125 36.734375 
Q 16.9375 33.546875 16.15625 29.59375 
L 10.40625 0 
L 1.65625 0 
L 15.71875 72.46875 
L 24.515625 72.46875 
L 20.84375 53.609375 
Q 20.5625 52 20.1875 50.390625 
Q 19.828125 48.78125 19.484375 47.4375 
Q 19.140625 46.09375 18.890625 45.109375 
Q 18.65625 44.140625 18.5625 43.796875 
z
" id="LiberationSans-Italic-104"/>
      <path d="M 19.578125 -1.03125 
Q 15.671875 -1.03125 12.640625 0.1875 
Q 9.625 1.421875 7.5625 3.65625 
Q 5.515625 5.90625 4.4375 9.109375 
Q 3.375 12.3125 3.375 16.265625 
Q 3.375 18.453125 3.59375 21.484375 
Q 3.8125 24.515625 4.390625 27.59375 
Q 5.71875 34.515625 7.859375 39.46875 
Q 10.015625 44.4375 13.03125 47.609375 
Q 16.0625 50.78125 19.96875 52.265625 
Q 23.875 53.765625 28.71875 53.765625 
Q 34.71875 53.765625 38.5 51.21875 
Q 42.28125 48.6875 43.84375 44.09375 
L 44.09375 44.09375 
Q 44.1875 44.578125 44.375 45.703125 
Q 44.578125 46.828125 44.796875 48.0625 
Q 45.015625 49.3125 45.203125 50.4375 
Q 45.40625 51.5625 45.453125 52 
L 49.46875 72.46875 
L 58.25 72.46875 
L 46.296875 10.890625 
Q 45.90625 8.984375 45.578125 7.21875 
Q 45.265625 5.46875 45.015625 4 
Q 44.78125 2.546875 44.625 1.484375 
Q 44.484375 0.4375 44.4375 0 
L 36.03125 0 
Q 36.03125 0.984375 36.296875 3.125 
Q 36.578125 5.28125 37.0625 7.8125 
L 36.8125 7.8125 
Q 35.0625 5.515625 33.21875 3.859375 
Q 31.390625 2.203125 29.34375 1.09375 
Q 27.296875 0 24.90625 -0.515625 
Q 22.515625 -1.03125 19.578125 -1.03125 
z
M 22.125 5.765625 
Q 25.25 5.765625 28.046875 6.6875 
Q 30.859375 7.625 33.25 9.890625 
Q 35.640625 12.15625 37.46875 16.015625 
Q 39.3125 19.875 40.4375 25.734375 
Q 41.359375 30.515625 41.359375 34.375 
Q 41.359375 37.546875 40.53125 39.9375 
Q 39.703125 42.328125 38.15625 43.96875 
Q 36.625 45.609375 34.453125 46.4375 
Q 32.28125 47.265625 29.640625 47.265625 
Q 26.65625 47.265625 24.1875 46.359375 
Q 21.734375 45.453125 19.75 43.234375 
Q 17.78125 41.015625 16.28125 37.28125 
Q 14.796875 33.546875 13.671875 27.875 
Q 12.546875 21.96875 12.546875 17.828125 
Q 12.546875 11.8125 14.84375 8.78125 
Q 17.140625 5.765625 22.125 5.765625 
z
" id="LiberationSans-Italic-100"/>
      <path d="M 41.3125 15.578125 
L 38.28125 0 
L 29.5 0 
L 32.515625 15.578125 
L 0.640625 15.578125 
L 1.953125 22.40625 
L 41.9375 68.796875 
L 51.65625 68.796875 
L 42.671875 22.515625 
L 51.859375 22.515625 
L 50.484375 15.578125 
z
M 40.328125 56.5 
L 11.078125 22.515625 
L 33.890625 22.515625 
z
" id="LiberationSans-Italic-52"/>
     </defs>
     <use xlink:href="#LiberationSans-Italic-69"/>
     <use x="66.699219" xlink:href="#LiberationSans-Italic-104"/>
     <use x="122.314453" xlink:href="#LiberationSans-Italic-100"/>
     <use x="177.929688" xlink:href="#LiberationSans-Italic-52"/>
    </g>
   </g>
   <g id="line2d_13">
    <path clip-path="url(#p7b54469719)" d="M 48.73447 56.561108 
L 49.352544 55.699373 
L 49.970619 54.86321 
L 50.588694 54.05186 
L 51.206768 53.264588 
L 51.824843 52.500677 
L 52.442918 51.759436 
L 53.060993 51.040192 
L 53.679067 50.342291 
L 54.297142 49.665101 
L 54.915217 49.008006 
L 55.533291 48.370411 
L 56.151366 47.751736 
L 56.769441 47.151421 
L 57.387515 46.56892 
L 58.00559 46.003706 
L 58.623665 45.455264 
L 59.241739 44.923097 
L 59.859814 44.406722 
L 60.477889 43.905671 
L 61.095963 43.419488 
L 61.714038 42.947733 
L 62.332113 42.489978 
L 62.950187 42.045807 
L 63.568262 41.614816 
L 64.186337 41.196615 
L 64.804412 40.790825 
L 65.422486 40.397076 
L 66.040561 40.015012 
L 66.658636 39.644286 
L 67.27671 39.284561 
L 67.894785 38.935511 
L 68.51286 38.596819 
L 69.130934 38.268178 
L 69.749009 37.949289 
L 70.367084 37.639863 
L 70.985158 37.33962 
L 71.603233 37.048287 
L 72.221308 36.765599 
L 72.839382 36.491299 
L 73.457457 36.22514 
L 74.075532 35.966879 
L 74.693607 35.716282 
L 75.311681 35.473121 
L 75.929756 35.237176 
L 76.547831 35.008233 
L 77.165905 34.786084 
L 77.78398 34.570527 
L 78.402055 34.361367 
L 79.020129 34.158414 
L 79.638204 33.961484 
L 80.256279 33.770397 
L 80.874353 33.584981 
L 81.492428 33.405067 
L 82.110503 33.230492 
L 82.728577 33.061098 
L 83.346652 32.89673 
L 83.964727 32.737241 
L 84.582801 32.582484 
L 85.200876 32.432319 
L 85.818951 32.286611 
L 86.437026 32.145226 
L 87.0551 32.008038 
L 87.673175 31.87492 
L 88.29125 31.745753 
L 88.909324 31.620418 
L 89.527399 31.498803 
L 90.145474 31.380797 
L 90.763548 31.266293 
L 91.381623 31.155187 
L 91.999698 31.047378 
L 92.617772 30.942768 
L 93.235847 30.841262 
L 93.853922 30.742769 
L 94.471996 30.647198 
L 95.090071 30.554464 
L 95.708146 30.464481 
L 96.326221 30.377169 
L 96.944295 30.292447 
L 97.56237 30.21024 
L 98.180445 30.130473 
L 98.798519 30.053072 
L 99.416594 29.977968 
L 100.034669 29.905093 
L 100.652743 29.834381 
L 101.270818 29.765767 
L 101.888893 29.699189 
L 102.506967 29.634587 
L 103.125042 29.571902 
L 103.743117 29.511077 
L 104.361191 29.452057 
L 104.979266 29.394789 
L 105.597341 29.33922 
L 106.215416 29.2853 
L 106.83349 29.23298 
L 107.451565 29.182213 
L 108.06964 29.132952 
L 108.687714 29.085153 
L 109.305789 29.038772 
L 109.923864 28.993768 
" style="fill:none;stroke:#2ca02c;stroke-linecap:round;stroke-width:2;"/>
   </g>
   <g id="PathCollection_1">
    <defs>
     <path d="M 0 1.581139 
C 0.419323 1.581139 0.821528 1.41454 1.118034 1.118034 
C 1.41454 0.821528 1.581139 0.419323 1.581139 0 
C 1.581139 -0.419323 1.41454 -0.821528 1.118034 -1.118034 
C 0.821528 -1.41454 0.419323 -1.581139 0 -1.581139 
C -0.419323 -1.581139 -0.821528 -1.41454 -1.118034 -1.118034 
C -1.41454 -0.821528 -1.581139 -0.419323 -1.581139 0 
C -1.581139 0.419323 -1.41454 0.821528 -1.118034 1.118034 
C -0.821528 1.41454 -0.419323 1.581139 0 1.581139 
z
" id="mbf48730bac" style="stroke:#ffffff;stroke-width:0.252982;"/>
    </defs>
    <g clip-path="url(#p7b54469719)">
     <use style="stroke:#ffffff;stroke-width:0.252982;" x="48.73447" xlink:href="#mbf48730bac" y="56.561108"/>
     <use style="stroke:#ffffff;stroke-width:0.252982;" x="48.73447" xlink:href="#mbf48730bac" y="56.561108"/>
     <use style="stroke:#ffffff;stroke-width:0.252982;" x="59.324942" xlink:href="#mbf48730bac" y="51.871398"/>
     <use style="stroke:#ffffff;stroke-width:0.252982;" x="59.324942" xlink:href="#mbf48730bac" y="51.871398"/>
     <use style="stroke:#ffffff;stroke-width:0.252982;" x="62.855099" xlink:href="#mbf48730bac" y="43.460601"/>
     <use style="stroke:#ffffff;stroke-width:0.252982;" x="62.855099" xlink:href="#mbf48730bac" y="43.460601"/>
     <use style="stroke:#ffffff;stroke-width:0.252982;" x="76.975728" xlink:href="#mbf48730bac" y="34.78108"/>
     <use style="stroke:#ffffff;stroke-width:0.252982;" x="76.975728" xlink:href="#mbf48730bac" y="34.78108"/>
     <use style="stroke:#ffffff;stroke-width:0.252982;" x="52.264627" xlink:href="#mbf48730bac" y="70.115274"/>
     <use style="stroke:#ffffff;stroke-width:0.252982;" x="52.264627" xlink:href="#mbf48730bac" y="70.115274"/>
     <use style="stroke:#ffffff;stroke-width:0.252982;" x="98.156672" xlink:href="#mbf48730bac" y="27.522216"/>
    </g>
   </g>
   <g id="LineCollection_1">
    <path clip-path="url(#p7b54469719)" d="M 48.73447 57.423705 
L 48.73447 55.698511 
" style="fill:none;stroke:#000000;"/>
    <path clip-path="url(#p7b54469719)" d="M 48.73447 57.423705 
L 48.73447 55.698511 
" style="fill:none;stroke:#000000;"/>
    <path clip-path="url(#p7b54469719)" d="M 59.324942 58.180812 
L 59.324942 45.561985 
" style="fill:none;stroke:#000000;"/>
    <path clip-path="url(#p7b54469719)" d="M 59.324942 58.180812 
L 59.324942 45.561985 
" style="fill:none;stroke:#000000;"/>
    <path clip-path="url(#p7b54469719)" d="M 62.855099 47.534769 
L 62.855099 39.386432 
" style="fill:none;stroke:#000000;"/>
    <path clip-path="url(#p7b54469719)" d="M 62.855099 47.534769 
L 62.855099 39.386432 
" style="fill:none;stroke:#000000;"/>
    <path clip-path="url(#p7b54469719)" d="M 76.975728 35.968713 
L 76.975728 33.593447 
" style="fill:none;stroke:#000000;"/>
    <path clip-path="url(#p7b54469719)" d="M 76.975728 35.968713 
L 76.975728 33.593447 
" style="fill:none;stroke:#000000;"/>
    <path clip-path="url(#p7b54469719)" d="M 52.264627 73.414294 
L 52.264627 66.816254 
" style="fill:none;stroke:#000000;"/>
    <path clip-path="url(#p7b54469719)" d="M 52.264627 73.414294 
L 52.264627 66.816254 
" style="fill:none;stroke:#000000;"/>
    <path clip-path="url(#p7b54469719)" d="M 98.156672 28.881846 
L 98.156672 26.162585 
" style="fill:none;stroke:#000000;"/>
   </g>
   <g id="line2d_14">
    <defs>
     <path d="M 2 0 
L -2 -0 
" id="m03e2f7b779" style="stroke:#000000;"/>
    </defs>
    <g clip-path="url(#p7b54469719)">
     <use style="stroke:#000000;" x="48.73447" xlink:href="#m03e2f7b779" y="57.423705"/>
     <use style="stroke:#000000;" x="48.73447" xlink:href="#m03e2f7b779" y="57.423705"/>
     <use style="stroke:#000000;" x="59.324942" xlink:href="#m03e2f7b779" y="58.180812"/>
     <use style="stroke:#000000;" x="59.324942" xlink:href="#m03e2f7b779" y="58.180812"/>
     <use style="stroke:#000000;" x="62.855099" xlink:href="#m03e2f7b779" y="47.534769"/>
     <use style="stroke:#000000;" x="62.855099" xlink:href="#m03e2f7b779" y="47.534769"/>
     <use style="stroke:#000000;" x="76.975728" xlink:href="#m03e2f7b779" y="35.968713"/>
     <use style="stroke:#000000;" x="76.975728" xlink:href="#m03e2f7b779" y="35.968713"/>
     <use style="stroke:#000000;" x="52.264627" xlink:href="#m03e2f7b779" y="73.414294"/>
     <use style="stroke:#000000;" x="52.264627" xlink:href="#m03e2f7b779" y="73.414294"/>
     <use style="stroke:#000000;" x="98.156672" xlink:href="#m03e2f7b779" y="28.881846"/>
    </g>
   </g>
   <g id="line2d_15">
    <g clip-path="url(#p7b54469719)">
     <use style="stroke:#000000;" x="48.73447" xlink:href="#m03e2f7b779" y="55.698511"/>
     <use style="stroke:#000000;" x="48.73447" xlink:href="#m03e2f7b779" y="55.698511"/>
     <use style="stroke:#000000;" x="59.324942" xlink:href="#m03e2f7b779" y="45.561985"/>
     <use style="stroke:#000000;" x="59.324942" xlink:href="#m03e2f7b779" y="45.561985"/>
     <use style="stroke:#000000;" x="62.855099" xlink:href="#m03e2f7b779" y="39.386432"/>
     <use style="stroke:#000000;" x="62.855099" xlink:href="#m03e2f7b779" y="39.386432"/>
     <use style="stroke:#000000;" x="76.975728" xlink:href="#m03e2f7b779" y="33.593447"/>
     <use style="stroke:#000000;" x="76.975728" xlink:href="#m03e2f7b779" y="33.593447"/>
     <use style="stroke:#000000;" x="52.264627" xlink:href="#m03e2f7b779" y="66.816254"/>
     <use style="stroke:#000000;" x="52.264627" xlink:href="#m03e2f7b779" y="66.816254"/>
     <use style="stroke:#000000;" x="98.156672" xlink:href="#m03e2f7b779" y="26.162585"/>
    </g>
   </g>
  </g>
  <g id="axes_2">
   <g id="patch_7">
    <path d="M 127.783333 85.6 
L 195.091667 85.6 
L 195.091667 23.8 
L 127.783333 23.8 
z
" style="fill:#ffffff;"/>
   </g>
   <g id="matplotlib.axis_3">
    <g id="xtick_6">
     <g id="line2d_16">
      <g>
       <use style="fill:#262626;stroke:#262626;stroke-width:0.8;" x="130.842803" xlink:href="#maa382eff0b" y="85.6"/>
      </g>
     </g>
     <g id="text_14">
      <!-- 0 -->
      <g style="fill:#262626;" transform="translate(128.618428 97.3975)scale(0.08 -0.08)">
       <use xlink:href="#LiberationSans-48"/>
      </g>
     </g>
    </g>
    <g id="xtick_7">
     <g id="line2d_17">
      <g>
       <use style="fill:#262626;stroke:#262626;stroke-width:0.8;" x="144.963432" xlink:href="#maa382eff0b" y="85.6"/>
      </g>
     </g>
     <g id="text_15">
      <!-- 24 -->
      <g style="fill:#262626;" transform="translate(140.514682 97.3975)scale(0.08 -0.08)">
       <use xlink:href="#LiberationSans-50"/>
       <use x="55.615234" xlink:href="#LiberationSans-52"/>
      </g>
     </g>
    </g>
    <g id="xtick_8">
     <g id="line2d_18">
      <g>
       <use style="fill:#262626;stroke:#262626;stroke-width:0.8;" x="159.084062" xlink:href="#maa382eff0b" y="85.6"/>
      </g>
     </g>
     <g id="text_16">
      <!-- 48 -->
      <g style="fill:#262626;" transform="translate(154.635312 97.3975)scale(0.08 -0.08)">
       <use xlink:href="#LiberationSans-52"/>
       <use x="55.615234" xlink:href="#LiberationSans-56"/>
      </g>
     </g>
    </g>
    <g id="xtick_9">
     <g id="line2d_19">
      <g>
       <use style="fill:#262626;stroke:#262626;stroke-width:0.8;" x="173.204691" xlink:href="#maa382eff0b" y="85.6"/>
      </g>
     </g>
     <g id="text_17">
      <!-- 72 -->
      <g style="fill:#262626;" transform="translate(168.755941 97.3975)scale(0.08 -0.08)">
       <use xlink:href="#LiberationSans-55"/>
       <use x="55.615234" xlink:href="#LiberationSans-50"/>
      </g>
     </g>
    </g>
    <g id="xtick_10">
     <g id="line2d_20">
      <g>
       <use style="fill:#262626;stroke:#262626;stroke-width:0.8;" x="187.325321" xlink:href="#maa382eff0b" y="85.6"/>
      </g>
     </g>
     <g id="text_18">
      <!-- 96 -->
      <g style="fill:#262626;" transform="translate(182.876571 97.3975)scale(0.08 -0.08)">
       <use xlink:href="#LiberationSans-57"/>
       <use x="55.615234" xlink:href="#LiberationSans-54"/>
      </g>
     </g>
    </g>
    <g id="text_19">
     <!-- time (h) -->
     <g style="fill:#262626;" transform="translate(146.187422 109.579687)scale(0.09 -0.09)">
      <use xlink:href="#LiberationSans-116"/>
      <use x="27.783203" xlink:href="#LiberationSans-105"/>
      <use x="50" xlink:href="#LiberationSans-109"/>
      <use x="133.300781" xlink:href="#LiberationSans-101"/>
      <use x="188.916016" xlink:href="#LiberationSans-32"/>
      <use x="216.699219" xlink:href="#LiberationSans-40"/>
      <use x="250" xlink:href="#LiberationSans-104"/>
      <use x="305.615234" xlink:href="#LiberationSans-41"/>
     </g>
    </g>
   </g>
   <g id="matplotlib.axis_4">
    <g id="ytick_6">
     <g id="line2d_21">
      <g>
       <use style="fill:#262626;stroke:#262626;stroke-width:0.8;" x="127.783333" xlink:href="#m0d274e80f6" y="85.6"/>
      </g>
     </g>
    </g>
    <g id="ytick_7">
     <g id="line2d_22">
      <g>
       <use style="fill:#262626;stroke:#262626;stroke-width:0.8;" x="127.783333" xlink:href="#m0d274e80f6" y="72.428568"/>
      </g>
     </g>
    </g>
    <g id="ytick_8">
     <g id="line2d_23">
      <g>
       <use style="fill:#262626;stroke:#262626;stroke-width:0.8;" x="127.783333" xlink:href="#m0d274e80f6" y="59.257136"/>
      </g>
     </g>
    </g>
    <g id="ytick_9">
     <g id="line2d_24">
      <g>
       <use style="fill:#262626;stroke:#262626;stroke-width:0.8;" x="127.783333" xlink:href="#m0d274e80f6" y="46.085704"/>
      </g>
     </g>
    </g>
    <g id="ytick_10">
     <g id="line2d_25">
      <g>
       <use style="fill:#262626;stroke:#262626;stroke-width:0.8;" x="127.783333" xlink:href="#m0d274e80f6" y="32.914273"/>
      </g>
     </g>
    </g>
   </g>
   <g id="line2d_26">
    <path clip-path="url(#p35bbfe6c5e)" d="M 130.842803 59.257136 
L 131.460878 59.257136 
L 132.078952 59.257136 
L 132.697027 59.257136 
L 133.315102 59.257136 
L 133.933176 59.257136 
L 134.551251 59.257136 
L 135.169326 59.257136 
L 135.787401 59.257136 
L 136.405475 59.257136 
L 137.02355 59.257071 
L 137.641625 59.254282 
L 138.259699 59.207489 
L 138.877774 58.854157 
L 139.495849 57.506753 
L 140.113923 54.666001 
L 140.731998 51.104054 
L 141.350073 48.283398 
L 141.968147 46.800023 
L 142.586222 46.259411 
L 143.204297 46.117805 
L 143.822371 46.090295 
L 144.440446 46.086222 
L 145.058521 46.085751 
L 145.676596 46.085708 
L 146.29467 46.085705 
L 146.912745 46.085704 
L 147.53082 46.085704 
L 148.148894 46.085704 
L 148.766969 46.085704 
L 149.385044 46.085704 
L 150.003118 46.085704 
L 150.621193 46.085704 
L 151.239268 46.085704 
L 151.857342 46.085704 
L 152.475417 46.085704 
L 153.093492 46.085704 
L 153.711566 46.085704 
L 154.329641 46.085704 
L 154.947716 46.085704 
L 155.56579 46.085704 
L 156.183865 46.085704 
L 156.80194 46.085704 
L 157.420015 46.085704 
L 158.038089 46.085704 
L 158.656164 46.085704 
L 159.274239 46.085704 
L 159.892313 46.085704 
L 160.510388 46.0857 
L 161.128463 46.085683 
L 161.746537 46.085607 
L 162.364612 46.085317 
L 162.982687 46.084326 
L 163.600761 46.08129 
L 164.218836 46.07293 
L 164.836911 46.052147 
L 165.454985 46.005336 
L 166.07306 45.909475 
L 166.691135 45.730406 
L 167.30921 45.424321 
L 167.927284 44.944155 
L 168.545359 44.250891 
L 169.163434 43.3272 
L 169.781508 42.188556 
L 170.399583 40.886767 
L 171.017658 39.50322 
L 171.635732 38.133244 
L 172.253807 36.866708 
L 172.871882 35.77127 
L 173.489956 34.883161 
L 174.108031 34.206988 
L 174.726106 33.722665 
L 175.34418 33.395748 
L 175.962255 33.187455 
L 176.58033 33.061989 
L 177.198404 32.990433 
L 177.816479 32.951738 
L 178.434554 32.931869 
L 179.052629 32.922169 
L 179.670703 32.917661 
L 180.288778 32.915664 
L 180.906853 32.91482 
L 181.524927 32.914479 
L 182.143002 32.914347 
L 182.761077 32.914298 
L 183.379151 32.914281 
L 183.997226 32.914275 
L 184.615301 32.914273 
L 185.233375 32.914273 
L 185.85145 32.914273 
L 186.469525 32.914273 
L 187.087599 32.914273 
L 187.705674 32.914273 
L 188.323749 32.914273 
L 188.941824 32.914273 
L 189.559898 32.914273 
L 190.177973 32.914273 
L 190.796048 32.914273 
L 191.414122 32.914273 
L 192.032197 32.914273 
" style="fill:none;stroke:#800080;stroke-linecap:round;stroke-width:2;"/>
   </g>
   <g id="patch_8">
    <path d="M 127.783333 85.6 
L 127.783333 23.8 
" style="fill:none;stroke:#262626;stroke-linecap:square;stroke-linejoin:miter;"/>
   </g>
   <g id="patch_9">
    <path d="M 195.091667 85.6 
L 195.091667 23.8 
" style="fill:none;stroke:#262626;stroke-linecap:square;stroke-linejoin:miter;"/>
   </g>
   <g id="patch_10">
    <path d="M 127.783333 85.6 
L 195.091667 85.6 
" style="fill:none;stroke:#262626;stroke-linecap:square;stroke-linejoin:miter;"/>
   </g>
   <g id="patch_11">
    <path d="M 127.783333 23.8 
L 195.091667 23.8 
" style="fill:none;stroke:#262626;stroke-linecap:square;stroke-linejoin:miter;"/>
   </g>
   <g id="line2d_27">
    <path clip-path="url(#p35bbfe6c5e)" d="M 130.842803 59.257136 
L 131.460878 59.181198 
L 132.078952 59.035772 
L 132.697027 58.84634 
L 133.315102 58.623467 
L 133.933176 58.37381 
L 134.551251 58.102161 
L 135.169326 57.81222 
L 135.787401 57.506966 
L 136.405475 57.188866 
L 137.02355 56.86001 
L 137.641625 56.522188 
L 138.259699 56.176958 
L 138.877774 55.825682 
L 139.495849 55.469561 
L 140.113923 55.109659 
L 140.731998 54.746925 
L 141.350073 54.382205 
L 141.968147 54.016257 
L 142.586222 53.649761 
L 143.204297 53.283329 
L 143.822371 52.917509 
L 144.440446 52.552798 
L 145.058521 52.189641 
L 145.676596 51.828437 
L 146.29467 51.469549 
L 146.912745 51.113299 
L 147.53082 50.75998 
L 148.148894 50.40985 
L 148.766969 50.063143 
L 149.385044 49.720068 
L 150.003118 49.380807 
L 150.621193 49.045525 
L 151.239268 48.714365 
L 151.857342 48.387453 
L 152.475417 48.064898 
L 153.093492 47.746796 
L 153.711566 47.433226 
L 154.329641 47.124256 
L 154.947716 46.819942 
L 155.56579 46.52033 
L 156.183865 46.225454 
L 156.80194 45.93534 
L 157.420015 45.650006 
L 158.038089 45.369463 
L 158.656164 45.093711 
L 159.274239 44.822749 
L 159.892313 44.556565 
L 160.510388 44.295145 
L 161.128463 44.038468 
L 161.746537 43.786509 
L 162.364612 43.53924 
L 162.982687 43.296626 
L 163.600761 43.058632 
L 164.218836 42.825217 
L 164.836911 42.59634 
L 165.454985 42.371955 
L 166.07306 42.152015 
L 166.691135 41.93647 
L 167.30921 41.725269 
L 167.927284 41.518358 
L 168.545359 41.315684 
L 169.163434 41.11719 
L 169.781508 40.922819 
L 170.399583 40.732514 
L 171.017658 40.546216 
L 171.635732 40.363865 
L 172.253807 40.185402 
L 172.871882 40.010766 
L 173.489956 39.839897 
L 174.108031 39.672733 
L 174.726106 39.509214 
L 175.34418 39.349278 
L 175.962255 39.192864 
L 176.58033 39.039912 
L 177.198404 38.890361 
L 177.816479 38.744149 
L 178.434554 38.601217 
L 179.052629 38.461505 
L 179.670703 38.324952 
L 180.288778 38.191501 
L 180.906853 38.061092 
L 181.524927 37.933668 
L 182.143002 37.80917 
L 182.761077 37.687541 
L 183.379151 37.568726 
L 183.997226 37.452668 
L 184.615301 37.339312 
L 185.233375 37.228604 
L 185.85145 37.120489 
L 186.469525 37.014916 
L 187.087599 36.911831 
L 187.705674 36.811183 
L 188.323749 36.712921 
L 188.941824 36.616994 
L 189.559898 36.523354 
L 190.177973 36.431951 
L 190.796048 36.342739 
L 191.414122 36.255668 
L 192.032197 36.170694 
" style="fill:none;stroke:#1f77b4;stroke-linecap:round;stroke-width:2;"/>
   </g>
   <g id="text_20">
    <!-- Focad -->
    <g style="fill:#262626;" transform="translate(148.931719 17.8)scale(0.09 -0.09)">
     <defs>
      <path d="M 24.265625 61.1875 
L 19.28125 35.59375 
L 58.15625 35.59375 
L 56.640625 27.875 
L 17.78125 27.875 
L 12.40625 0 
L 3.078125 0 
L 16.40625 68.796875 
L 65.765625 68.796875 
L 64.3125 61.1875 
z
" id="LiberationSans-Italic-70"/>
      <path d="M 52.4375 33.34375 
Q 52.4375 30.8125 52.140625 28.25 
Q 51.859375 25.6875 51.171875 22.796875 
Q 49.703125 16.359375 47.09375 11.8125 
Q 44.484375 7.28125 40.96875 4.4375 
Q 37.453125 1.609375 33.15625 0.3125 
Q 28.859375 -0.984375 23.96875 -0.984375 
Q 19.28125 -0.984375 15.46875 0.453125 
Q 11.671875 1.90625 8.953125 4.65625 
Q 6.25 7.421875 4.75 11.390625 
Q 3.265625 15.375 3.265625 20.453125 
Q 3.328125 22.75 3.546875 25.1875 
Q 3.765625 27.640625 4.34375 30.28125 
Q 5.765625 36.421875 8.25 40.84375 
Q 10.75 45.265625 14.15625 48.140625 
Q 17.578125 51.03125 21.890625 52.390625 
Q 26.21875 53.765625 31.34375 53.765625 
Q 36.53125 53.765625 40.453125 52.390625 
Q 44.390625 51.03125 47.046875 48.390625 
Q 49.703125 45.75 51.0625 41.96875 
Q 52.4375 38.1875 52.4375 33.34375 
z
M 43.359375 33.34375 
Q 43.359375 37.109375 42.53125 39.75 
Q 41.703125 42.390625 40.109375 44.0625 
Q 38.53125 45.75 36.28125 46.53125 
Q 34.03125 47.3125 31.25 47.3125 
Q 28.65625 47.3125 26.046875 46.703125 
Q 23.4375 46.09375 21.0625 44.234375 
Q 18.703125 42.390625 16.75 38.96875 
Q 14.796875 35.546875 13.484375 29.890625 
Q 12.84375 27.203125 12.578125 24.78125 
Q 12.3125 22.359375 12.3125 20.3125 
Q 12.3125 16.3125 13.234375 13.46875 
Q 14.15625 10.640625 15.796875 8.875 
Q 17.4375 7.125 19.65625 6.3125 
Q 21.875 5.515625 24.515625 5.515625 
Q 27.15625 5.515625 29.71875 6.09375 
Q 32.28125 6.6875 34.5625 8.5625 
Q 36.859375 10.453125 38.78125 13.921875 
Q 40.71875 17.390625 42.046875 23.09375 
Q 42.71875 26.03125 42.984375 28.46875 
Q 43.265625 30.90625 43.359375 33.34375 
z
" id="LiberationSans-Italic-111"/>
      <path d="M 22.90625 5.953125 
Q 25.640625 5.953125 27.828125 6.75 
Q 30.03125 7.5625 31.734375 9.03125 
Q 33.453125 10.5 34.765625 12.578125 
Q 36.078125 14.65625 37.015625 17.1875 
L 44.625 14.796875 
Q 43.265625 11.140625 41.28125 8.234375 
Q 39.3125 5.328125 36.59375 3.265625 
Q 33.890625 1.21875 30.421875 0.109375 
Q 26.953125 -0.984375 22.703125 -0.984375 
Q 17.671875 -0.984375 13.984375 0.53125 
Q 10.296875 2.046875 7.921875 4.75 
Q 5.5625 7.46875 4.40625 11.171875 
Q 3.265625 14.890625 3.265625 19.28125 
Q 3.265625 21.234375 3.4375 23.53125 
Q 3.609375 25.828125 4.046875 28.03125 
Q 5.125 33.453125 6.8125 37.453125 
Q 8.5 41.453125 10.5625 44.3125 
Q 12.640625 47.171875 15.0625 49.015625 
Q 17.484375 50.875 20.046875 51.921875 
Q 22.609375 52.984375 25.265625 53.390625 
Q 27.9375 53.8125 30.515625 53.8125 
Q 34.859375 53.8125 38.15625 52.6875 
Q 41.453125 51.5625 43.75 49.515625 
Q 46.046875 47.46875 47.34375 44.609375 
Q 48.640625 41.75 48.875 38.28125 
L 40.234375 37.0625 
Q 40.09375 39.265625 39.40625 41.0625 
Q 38.71875 42.875 37.46875 44.15625 
Q 36.234375 45.453125 34.421875 46.1875 
Q 32.625 46.921875 30.21875 46.921875 
Q 26.859375 46.921875 24.171875 45.9375 
Q 21.484375 44.96875 19.359375 42.765625 
Q 17.234375 40.578125 15.71875 37.03125 
Q 14.203125 33.5 13.1875 28.375 
Q 12.75 26.03125 12.5 23.4375 
Q 12.25 20.84375 12.25 19 
Q 12.25 12.796875 14.765625 9.375 
Q 17.28125 5.953125 22.90625 5.953125 
z
" id="LiberationSans-Italic-99"/>
      <path d="M 51.515625 0.296875 
Q 50.09375 -0.046875 48.453125 -0.265625 
Q 46.828125 -0.484375 45.265625 -0.484375 
Q 40.71875 -0.484375 38.640625 1.390625 
Q 36.578125 3.265625 36.578125 6.984375 
Q 36.578125 7.71875 36.671875 8.5625 
Q 36.765625 9.421875 36.8125 10.109375 
L 36.53125 10.109375 
Q 34.8125 7.515625 32.984375 5.46875 
Q 31.15625 3.421875 28.921875 1.96875 
Q 26.703125 0.53125 23.96875 -0.21875 
Q 21.234375 -0.984375 17.625 -0.984375 
Q 13.8125 -0.984375 10.953125 0.234375 
Q 8.109375 1.46875 6.15625 3.484375 
Q 4.203125 5.515625 3.21875 8.15625 
Q 2.25 10.796875 2.25 13.578125 
Q 2.25 17.53125 3.390625 20.40625 
Q 4.546875 23.296875 6.515625 25.34375 
Q 8.5 27.390625 11.15625 28.6875 
Q 13.8125 29.984375 16.8125 30.71875 
Q 19.828125 31.453125 23.046875 31.734375 
Q 26.265625 32.03125 29.34375 32.078125 
L 40.671875 32.234375 
L 41.015625 33.984375 
Q 41.265625 35.203125 41.4375 36.328125 
Q 41.609375 37.453125 41.609375 38.421875 
Q 41.609375 42.875 39.015625 45 
Q 36.421875 47.125 31.84375 47.125 
Q 29.4375 47.125 27.359375 46.75 
Q 25.296875 46.390625 23.65625 45.4375 
Q 22.015625 44.484375 20.765625 42.84375 
Q 19.53125 41.21875 18.75 38.71875 
L 10.0625 40.140625 
Q 10.984375 43.171875 12.59375 45.671875 
Q 14.203125 48.1875 16.84375 50 
Q 19.484375 51.8125 23.265625 52.8125 
Q 27.046875 53.8125 32.328125 53.8125 
Q 36.671875 53.8125 40.03125 52.734375 
Q 43.40625 51.65625 45.703125 49.75 
Q 48 47.859375 49.1875 45.21875 
Q 50.390625 42.578125 50.390625 39.40625 
Q 50.390625 37.890625 50.125 35.765625 
Q 49.859375 33.640625 49.46875 31.734375 
L 45.84375 13.28125 
Q 45.609375 12.203125 45.453125 11.078125 
Q 45.3125 9.96875 45.3125 8.984375 
Q 45.3125 7.171875 46.265625 6.296875 
Q 47.21875 5.421875 49.265625 5.421875 
Q 50 5.421875 50.75 5.515625 
Q 51.515625 5.609375 52.203125 5.765625 
z
M 39.5 26.171875 
L 29.78125 25.984375 
Q 27.828125 25.921875 25.734375 25.78125 
Q 23.640625 25.640625 21.609375 25.171875 
Q 19.578125 24.703125 17.75 23.921875 
Q 15.921875 23.140625 14.546875 21.796875 
Q 13.1875 20.453125 12.375 18.546875 
Q 11.578125 16.65625 11.578125 13.96875 
Q 11.578125 12.40625 12.078125 10.90625 
Q 12.59375 9.421875 13.671875 8.265625 
Q 14.75 7.125 16.328125 6.421875 
Q 17.921875 5.71875 20.0625 5.71875 
Q 24.3125 5.71875 27.484375 7.171875 
Q 30.671875 8.640625 32.90625 10.78125 
Q 35.15625 12.9375 36.453125 15.453125 
Q 37.75 17.96875 38.1875 20.0625 
z
" id="LiberationSans-Italic-97"/>
     </defs>
     <use xlink:href="#LiberationSans-Italic-70"/>
     <use x="61.083984" xlink:href="#LiberationSans-Italic-111"/>
     <use x="116.699219" xlink:href="#LiberationSans-Italic-99"/>
     <use x="166.699219" xlink:href="#LiberationSans-Italic-97"/>
     <use x="222.314453" xlink:href="#LiberationSans-Italic-100"/>
    </g>
   </g>
   <g id="line2d_28">
    <path clip-path="url(#p35bbfe6c5e)" d="M 130.842803 59.257136 
L 131.460878 58.812244 
L 132.078952 58.374864 
L 132.697027 57.944872 
L 133.315102 57.522141 
L 133.933176 57.10655 
L 134.551251 56.697978 
L 135.169326 56.296306 
L 135.787401 55.901417 
L 136.405475 55.513197 
L 137.02355 55.131534 
L 137.641625 54.756317 
L 138.259699 54.387437 
L 138.877774 54.024786 
L 139.495849 53.66826 
L 140.113923 53.317755 
L 140.731998 52.97317 
L 141.350073 52.634404 
L 141.968147 52.30136 
L 142.586222 51.97394 
L 143.204297 51.65205 
L 143.822371 51.335596 
L 144.440446 51.024487 
L 145.058521 50.718632 
L 145.676596 50.417942 
L 146.29467 50.12233 
L 146.912745 49.831711 
L 147.53082 49.546 
L 148.148894 49.265114 
L 148.766969 48.988972 
L 149.385044 48.717494 
L 150.003118 48.450601 
L 150.621193 48.188215 
L 151.239268 47.93026 
L 151.857342 47.676662 
L 152.475417 47.427346 
L 153.093492 47.182242 
L 153.711566 46.941276 
L 154.329641 46.70438 
L 154.947716 46.471486 
L 155.56579 46.242524 
L 156.183865 46.017429 
L 156.80194 45.796136 
L 157.420015 45.57858 
L 158.038089 45.364698 
L 158.656164 45.154428 
L 159.274239 44.94771 
L 159.892313 44.744483 
L 160.510388 44.544688 
L 161.128463 44.348267 
L 161.746537 44.155163 
L 162.364612 43.965321 
L 162.982687 43.778685 
L 163.600761 43.595201 
L 164.218836 43.414815 
L 164.836911 43.237476 
L 165.454985 43.063132 
L 166.07306 42.891733 
L 166.691135 42.723228 
L 167.30921 42.557569 
L 167.927284 42.394708 
L 168.545359 42.234597 
L 169.163434 42.07719 
L 169.781508 41.922442 
L 170.399583 41.770307 
L 171.017658 41.620741 
L 171.635732 41.473702 
L 172.253807 41.329145 
L 172.871882 41.18703 
L 173.489956 41.047315 
L 174.108031 40.90996 
L 174.726106 40.774925 
L 175.34418 40.64217 
L 175.962255 40.511657 
L 176.58033 40.383348 
L 177.198404 40.257206 
L 177.816479 40.133194 
L 178.434554 40.011277 
L 179.052629 39.891419 
L 179.670703 39.773585 
L 180.288778 39.657742 
L 180.906853 39.543854 
L 181.524927 39.43189 
L 182.143002 39.321817 
L 182.761077 39.213603 
L 183.379151 39.107216 
L 183.997226 39.002627 
L 184.615301 38.899803 
L 185.233375 38.798716 
L 185.85145 38.699336 
L 186.469525 38.601635 
L 187.087599 38.505584 
L 187.705674 38.411155 
L 188.323749 38.31832 
L 188.941824 38.227054 
L 189.559898 38.137329 
L 190.177973 38.049119 
L 190.796048 37.962399 
L 191.414122 37.877143 
L 192.032197 37.793327 
" style="fill:none;stroke:#2ca02c;stroke-linecap:round;stroke-width:2;"/>
   </g>
   <g id="PathCollection_2">
    <g clip-path="url(#p35bbfe6c5e)">
     <use style="stroke:#ffffff;stroke-width:0.252982;" x="130.842803" xlink:href="#mbf48730bac" y="59.257136"/>
     <use style="stroke:#ffffff;stroke-width:0.252982;" x="130.842803" xlink:href="#mbf48730bac" y="59.257136"/>
     <use style="stroke:#ffffff;stroke-width:0.252982;" x="141.433275" xlink:href="#mbf48730bac" y="48.008895"/>
     <use style="stroke:#ffffff;stroke-width:0.252982;" x="141.433275" xlink:href="#mbf48730bac" y="48.008895"/>
     <use style="stroke:#ffffff;stroke-width:0.252982;" x="144.963432" xlink:href="#mbf48730bac" y="45.926997"/>
     <use style="stroke:#ffffff;stroke-width:0.252982;" x="144.963432" xlink:href="#mbf48730bac" y="45.926997"/>
     <use style="stroke:#ffffff;stroke-width:0.252982;" x="159.084062" xlink:href="#mbf48730bac" y="47.050801"/>
     <use style="stroke:#ffffff;stroke-width:0.252982;" x="159.084062" xlink:href="#mbf48730bac" y="47.050801"/>
     <use style="stroke:#ffffff;stroke-width:0.252982;" x="134.37296" xlink:href="#mbf48730bac" y="68.857174"/>
     <use style="stroke:#ffffff;stroke-width:0.252982;" x="134.37296" xlink:href="#mbf48730bac" y="68.857174"/>
     <use style="stroke:#ffffff;stroke-width:0.252982;" x="180.265006" xlink:href="#mbf48730bac" y="32.914273"/>
    </g>
   </g>
   <g id="LineCollection_2">
    <path clip-path="url(#p35bbfe6c5e)" d="M 130.842803 60.541677 
L 130.842803 57.972596 
" style="fill:none;stroke:#000000;"/>
    <path clip-path="url(#p35bbfe6c5e)" d="M 130.842803 60.541677 
L 130.842803 57.972596 
" style="fill:none;stroke:#000000;"/>
    <path clip-path="url(#p35bbfe6c5e)" d="M 141.433275 53.759174 
L 141.433275 42.258617 
" style="fill:none;stroke:#000000;"/>
    <path clip-path="url(#p35bbfe6c5e)" d="M 141.433275 53.759174 
L 141.433275 42.258617 
" style="fill:none;stroke:#000000;"/>
    <path clip-path="url(#p35bbfe6c5e)" d="M 144.963432 56.511183 
L 144.963432 35.342811 
" style="fill:none;stroke:#000000;"/>
    <path clip-path="url(#p35bbfe6c5e)" d="M 144.963432 56.511183 
L 144.963432 35.342811 
" style="fill:none;stroke:#000000;"/>
    <path clip-path="url(#p35bbfe6c5e)" d="M 159.084062 50.288256 
L 159.084062 43.813346 
" style="fill:none;stroke:#000000;"/>
    <path clip-path="url(#p35bbfe6c5e)" d="M 159.084062 50.288256 
L 159.084062 43.813346 
" style="fill:none;stroke:#000000;"/>
    <path clip-path="url(#p35bbfe6c5e)" d="M 134.37296 75.361853 
L 134.37296 62.352495 
" style="fill:none;stroke:#000000;"/>
    <path clip-path="url(#p35bbfe6c5e)" d="M 134.37296 75.361853 
L 134.37296 62.352495 
" style="fill:none;stroke:#000000;"/>
    <path clip-path="url(#p35bbfe6c5e)" d="M 180.265006 39.573219 
L 180.265006 26.255326 
" style="fill:none;stroke:#000000;"/>
   </g>
   <g id="line2d_29">
    <g clip-path="url(#p35bbfe6c5e)">
     <use style="stroke:#000000;" x="130.842803" xlink:href="#m03e2f7b779" y="60.541677"/>
     <use style="stroke:#000000;" x="130.842803" xlink:href="#m03e2f7b779" y="60.541677"/>
     <use style="stroke:#000000;" x="141.433275" xlink:href="#m03e2f7b779" y="53.759174"/>
     <use style="stroke:#000000;" x="141.433275" xlink:href="#m03e2f7b779" y="53.759174"/>
     <use style="stroke:#000000;" x="144.963432" xlink:href="#m03e2f7b779" y="56.511183"/>
     <use style="stroke:#000000;" x="144.963432" xlink:href="#m03e2f7b779" y="56.511183"/>
     <use style="stroke:#000000;" x="159.084062" xlink:href="#m03e2f7b779" y="50.288256"/>
     <use style="stroke:#000000;" x="159.084062" xlink:href="#m03e2f7b779" y="50.288256"/>
     <use style="stroke:#000000;" x="134.37296" xlink:href="#m03e2f7b779" y="75.361853"/>
     <use style="stroke:#000000;" x="134.37296" xlink:href="#m03e2f7b779" y="75.361853"/>
     <use style="stroke:#000000;" x="180.265006" xlink:href="#m03e2f7b779" y="39.573219"/>
    </g>
   </g>
   <g id="line2d_30">
    <g clip-path="url(#p35bbfe6c5e)">
     <use style="stroke:#000000;" x="130.842803" xlink:href="#m03e2f7b779" y="57.972596"/>
     <use style="stroke:#000000;" x="130.842803" xlink:href="#m03e2f7b779" y="57.972596"/>
     <use style="stroke:#000000;" x="141.433275" xlink:href="#m03e2f7b779" y="42.258617"/>
     <use style="stroke:#000000;" x="141.433275" xlink:href="#m03e2f7b779" y="42.258617"/>
     <use style="stroke:#000000;" x="144.963432" xlink:href="#m03e2f7b779" y="35.342811"/>
     <use style="stroke:#000000;" x="144.963432" xlink:href="#m03e2f7b779" y="35.342811"/>
     <use style="stroke:#000000;" x="159.084062" xlink:href="#m03e2f7b779" y="43.813346"/>
     <use style="stroke:#000000;" x="159.084062" xlink:href="#m03e2f7b779" y="43.813346"/>
     <use style="stroke:#000000;" x="134.37296" xlink:href="#m03e2f7b779" y="62.352495"/>
     <use style="stroke:#000000;" x="134.37296" xlink:href="#m03e2f7b779" y="62.352495"/>
     <use style="stroke:#000000;" x="180.265006" xlink:href="#m03e2f7b779" y="26.255326"/>
    </g>
   </g>
  </g>
  <g id="axes_3">
   <g id="patch_12">
    <path d="M 209.891667 85.6 
L 277.2 85.6 
L 277.2 23.8 
L 209.891667 23.8 
z
" style="fill:#ffffff;"/>
   </g>
   <g id="matplotlib.axis_5">
    <g id="xtick_11">
     <g id="line2d_31">
      <g>
       <use style="fill:#262626;stroke:#262626;stroke-width:0.8;" x="212.951136" xlink:href="#maa382eff0b" y="85.6"/>
      </g>
     </g>
     <g id="text_21">
      <!-- 0 -->
      <g style="fill:#262626;" transform="translate(210.726761 97.3975)scale(0.08 -0.08)">
       <use xlink:href="#LiberationSans-48"/>
      </g>
     </g>
    </g>
    <g id="xtick_12">
     <g id="line2d_32">
      <g>
       <use style="fill:#262626;stroke:#262626;stroke-width:0.8;" x="227.071766" xlink:href="#maa382eff0b" y="85.6"/>
      </g>
     </g>
     <g id="text_22">
      <!-- 24 -->
      <g style="fill:#262626;" transform="translate(222.623016 97.3975)scale(0.08 -0.08)">
       <use xlink:href="#LiberationSans-50"/>
       <use x="55.615234" xlink:href="#LiberationSans-52"/>
      </g>
     </g>
    </g>
    <g id="xtick_13">
     <g id="line2d_33">
      <g>
       <use style="fill:#262626;stroke:#262626;stroke-width:0.8;" x="241.192395" xlink:href="#maa382eff0b" y="85.6"/>
      </g>
     </g>
     <g id="text_23">
      <!-- 48 -->
      <g style="fill:#262626;" transform="translate(236.743645 97.3975)scale(0.08 -0.08)">
       <use xlink:href="#LiberationSans-52"/>
       <use x="55.615234" xlink:href="#LiberationSans-56"/>
      </g>
     </g>
    </g>
    <g id="xtick_14">
     <g id="line2d_34">
      <g>
       <use style="fill:#262626;stroke:#262626;stroke-width:0.8;" x="255.313024" xlink:href="#maa382eff0b" y="85.6"/>
      </g>
     </g>
     <g id="text_24">
      <!-- 72 -->
      <g style="fill:#262626;" transform="translate(250.864274 97.3975)scale(0.08 -0.08)">
       <use xlink:href="#LiberationSans-55"/>
       <use x="55.615234" xlink:href="#LiberationSans-50"/>
      </g>
     </g>
    </g>
    <g id="xtick_15">
     <g id="line2d_35">
      <g>
       <use style="fill:#262626;stroke:#262626;stroke-width:0.8;" x="269.433654" xlink:href="#maa382eff0b" y="85.6"/>
      </g>
     </g>
     <g id="text_25">
      <!-- 96 -->
      <g style="fill:#262626;" transform="translate(264.984904 97.3975)scale(0.08 -0.08)">
       <use xlink:href="#LiberationSans-57"/>
       <use x="55.615234" xlink:href="#LiberationSans-54"/>
      </g>
     </g>
    </g>
    <g id="text_26">
     <!-- time (h) -->
     <g style="fill:#262626;" transform="translate(228.295755 109.579687)scale(0.09 -0.09)">
      <use xlink:href="#LiberationSans-116"/>
      <use x="27.783203" xlink:href="#LiberationSans-105"/>
      <use x="50" xlink:href="#LiberationSans-109"/>
      <use x="133.300781" xlink:href="#LiberationSans-101"/>
      <use x="188.916016" xlink:href="#LiberationSans-32"/>
      <use x="216.699219" xlink:href="#LiberationSans-40"/>
      <use x="250" xlink:href="#LiberationSans-104"/>
      <use x="305.615234" xlink:href="#LiberationSans-41"/>
     </g>
    </g>
   </g>
   <g id="matplotlib.axis_6">
    <g id="ytick_11">
     <g id="line2d_36">
      <g>
       <use style="fill:#262626;stroke:#262626;stroke-width:0.8;" x="209.891667" xlink:href="#m0d274e80f6" y="85.6"/>
      </g>
     </g>
    </g>
    <g id="ytick_12">
     <g id="line2d_37">
      <g>
       <use style="fill:#262626;stroke:#262626;stroke-width:0.8;" x="209.891667" xlink:href="#m0d274e80f6" y="71.949918"/>
      </g>
     </g>
    </g>
    <g id="ytick_13">
     <g id="line2d_38">
      <g>
       <use style="fill:#262626;stroke:#262626;stroke-width:0.8;" x="209.891667" xlink:href="#m0d274e80f6" y="58.299835"/>
      </g>
     </g>
    </g>
    <g id="ytick_14">
     <g id="line2d_39">
      <g>
       <use style="fill:#262626;stroke:#262626;stroke-width:0.8;" x="209.891667" xlink:href="#m0d274e80f6" y="44.649753"/>
      </g>
     </g>
    </g>
    <g id="ytick_15">
     <g id="line2d_40">
      <g>
       <use style="fill:#262626;stroke:#262626;stroke-width:0.8;" x="209.891667" xlink:href="#m0d274e80f6" y="30.999671"/>
      </g>
     </g>
    </g>
   </g>
   <g id="line2d_41">
    <path clip-path="url(#p4ef7172f06)" d="M 212.951136 58.299835 
L 213.569211 53.332611 
L 214.187286 52.434849 
L 214.80536 51.841662 
L 215.423435 51.388778 
L 216.04151 51.018987 
L 216.659584 50.70495 
L 217.277659 50.431275 
L 217.895734 50.188359 
L 218.513809 49.969771 
L 219.131883 49.770975 
L 219.749958 49.588638 
L 220.368033 49.420235 
L 220.986107 49.2638 
L 221.604182 49.117773 
L 222.222257 48.980891 
L 222.840331 48.852116 
L 223.458406 48.730583 
L 224.076481 48.615565 
L 224.694555 48.506442 
L 225.31263 48.402681 
L 225.930705 48.303823 
L 226.548779 48.209465 
L 227.166854 48.119255 
L 227.784929 48.03288 
L 228.403004 47.950064 
L 229.021078 47.87056 
L 229.639153 47.794146 
L 230.257228 47.720623 
L 230.875302 47.649811 
L 231.493377 47.581545 
L 232.111452 47.515677 
L 232.729526 47.452071 
L 233.347601 47.390603 
L 233.965676 47.331157 
L 234.58375 47.273628 
L 235.201825 47.21792 
L 235.8199 47.163942 
L 236.437974 47.11161 
L 237.056049 47.060847 
L 237.674124 47.011581 
L 238.292199 46.963744 
L 238.910273 46.917274 
L 239.528348 46.87211 
L 240.146423 46.828198 
L 240.764497 46.78548 
L 241.382572 46.743888 
L 242.000647 46.703301 
L 242.618721 46.663443 
L 243.236796 46.623611 
L 243.854871 46.582088 
L 244.472945 46.535044 
L 245.09102 46.474775 
L 245.709095 46.387405 
L 246.327169 46.250633 
L 246.945244 46.032737 
L 247.563319 45.6943 
L 248.181393 45.193786 
L 248.799468 44.496758 
L 249.417543 43.586725 
L 250.035618 42.474105 
L 250.653692 41.199666 
L 251.271767 39.830322 
L 251.889842 38.447924 
L 252.507916 37.13428 
L 253.125991 35.956933 
L 253.744066 34.959598 
L 254.36214 34.159174 
L 254.980215 33.548851 
L 255.59829 33.105127 
L 256.216364 32.796005 
L 256.834439 32.588125 
L 257.452514 32.451628 
L 258.070588 32.362567 
L 258.688663 32.303357 
L 259.306738 32.262029 
L 259.924813 32.23096 
L 260.542887 32.205588 
L 261.160962 32.183326 
L 261.779037 32.162784 
L 262.397111 32.14325 
L 263.015186 32.124371 
L 263.633261 32.10598 
L 264.251335 32.087996 
L 264.86941 32.070381 
L 265.487485 32.053114 
L 266.105559 32.036182 
L 266.723634 32.019575 
L 267.341709 32.003284 
L 267.959783 31.987302 
L 268.577858 31.971621 
L 269.195933 31.956233 
L 269.814007 31.941133 
L 270.432082 31.926313 
L 271.050157 31.911767 
L 271.668232 31.897488 
L 272.286306 31.883471 
L 272.904381 31.869709 
L 273.522456 31.856197 
L 274.14053 31.842929 
" style="fill:none;stroke:#800080;stroke-linecap:round;stroke-width:2;"/>
   </g>
   <g id="patch_13">
    <path d="M 209.891667 85.6 
L 209.891667 23.8 
" style="fill:none;stroke:#262626;stroke-linecap:square;stroke-linejoin:miter;"/>
   </g>
   <g id="patch_14">
    <path d="M 277.2 85.6 
L 277.2 23.8 
" style="fill:none;stroke:#262626;stroke-linecap:square;stroke-linejoin:miter;"/>
   </g>
   <g id="patch_15">
    <path d="M 209.891667 85.6 
L 277.2 85.6 
" style="fill:none;stroke:#262626;stroke-linecap:square;stroke-linejoin:miter;"/>
   </g>
   <g id="patch_16">
    <path d="M 209.891667 23.8 
L 277.2 23.8 
" style="fill:none;stroke:#262626;stroke-linecap:square;stroke-linejoin:miter;"/>
   </g>
   <g id="line2d_42">
    <path clip-path="url(#p4ef7172f06)" d="M 212.951136 58.299835 
L 213.569211 57.783152 
L 214.187286 57.276247 
L 214.80536 56.778937 
L 215.423435 56.291038 
L 216.04151 55.812373 
L 216.659584 55.342767 
L 217.277659 54.882049 
L 217.895734 54.430051 
L 218.513809 53.986607 
L 219.131883 53.551556 
L 219.749958 53.124739 
L 220.368033 52.706 
L 220.986107 52.295185 
L 221.604182 51.892146 
L 222.222257 51.496735 
L 222.840331 51.108807 
L 223.458406 50.728221 
L 224.076481 50.354838 
L 224.694555 49.988522 
L 225.31263 49.629139 
L 225.930705 49.276557 
L 226.548779 48.930648 
L 227.166854 48.591286 
L 227.784929 48.258347 
L 228.403004 47.931709 
L 229.021078 47.611253 
L 229.639153 47.296862 
L 230.257228 46.988421 
L 230.875302 46.685818 
L 231.493377 46.388942 
L 232.111452 46.097684 
L 232.729526 45.811939 
L 233.347601 45.531602 
L 233.965676 45.25657 
L 234.58375 44.986744 
L 235.201825 44.722024 
L 235.8199 44.462315 
L 236.437974 44.20752 
L 237.056049 43.957548 
L 237.674124 43.712307 
L 238.292199 43.471708 
L 238.910273 43.235662 
L 239.528348 43.004083 
L 240.146423 42.776888 
L 240.764497 42.553992 
L 241.382572 42.335315 
L 242.000647 42.120776 
L 242.618721 41.910298 
L 243.236796 41.703803 
L 243.854871 41.501216 
L 244.472945 41.302464 
L 245.09102 41.107473 
L 245.709095 40.916173 
L 246.327169 40.728493 
L 246.945244 40.544365 
L 247.563319 40.363722 
L 248.181393 40.186498 
L 248.799468 40.012628 
L 249.417543 39.842048 
L 250.035618 39.674697 
L 250.653692 39.510514 
L 251.271767 39.349437 
L 251.889842 39.19141 
L 252.507916 39.036373 
L 253.125991 38.88427 
L 253.744066 38.735046 
L 254.36214 38.588646 
L 254.980215 38.445017 
L 255.59829 38.304106 
L 256.216364 38.165862 
L 256.834439 38.030235 
L 257.452514 37.897174 
L 258.070588 37.766632 
L 258.688663 37.63856 
L 259.306738 37.512913 
L 259.924813 37.389643 
L 260.542887 37.268706 
L 261.160962 37.150058 
L 261.779037 37.033656 
L 262.397111 36.919457 
L 263.015186 36.807419 
L 263.633261 36.697501 
L 264.251335 36.589664 
L 264.86941 36.483868 
L 265.487485 36.380074 
L 266.105559 36.278244 
L 266.723634 36.178342 
L 267.341709 36.08033 
L 267.959783 35.984173 
L 268.577858 35.889837 
L 269.195933 35.797285 
L 269.814007 35.706486 
L 270.432082 35.617404 
L 271.050157 35.530009 
L 271.668232 35.444268 
L 272.286306 35.360149 
L 272.904381 35.277623 
L 273.522456 35.196658 
L 274.14053 35.117226 
" style="fill:none;stroke:#1f77b4;stroke-linecap:round;stroke-width:2;"/>
   </g>
   <g id="text_27">
    <!-- Ltbr -->
    <g style="fill:#262626;" transform="translate(235.792474 17.8)scale(0.09 -0.09)">
     <defs>
      <path d="M 3.078125 0 
L 16.40625 68.796875 
L 25.734375 68.796875 
L 13.875 7.625 
L 48.640625 7.625 
L 47.171875 0 
z
" id="LiberationSans-Italic-76"/>
      <path d="M 21.875 0.203125 
Q 20.0625 -0.25 17.90625 -0.609375 
Q 15.765625 -0.984375 13.421875 -0.984375 
Q 9.28125 -0.984375 6.90625 1.5 
Q 4.546875 4 4.546875 8.109375 
Q 4.546875 9.671875 4.78125 11.453125 
Q 5.03125 13.234375 5.28125 14.453125 
L 11.421875 46.4375 
L 5.328125 46.4375 
L 6.59375 52.828125 
L 12.796875 52.828125 
L 17.921875 64.65625 
L 23.78125 64.65625 
L 21.484375 52.828125 
L 31.25 52.828125 
L 29.984375 46.4375 
L 20.21875 46.4375 
L 14.109375 14.9375 
Q 13.921875 13.96875 13.71875 12.546875 
Q 13.53125 11.140625 13.53125 10.296875 
Q 13.53125 8.25 14.546875 7.125 
Q 15.578125 6 17.921875 6 
Q 19.1875 6 20.28125 6.171875 
Q 21.390625 6.34375 22.796875 6.6875 
z
" id="LiberationSans-Italic-116"/>
      <path d="M 36.328125 53.8125 
Q 40.234375 53.8125 43.265625 52.59375 
Q 46.296875 51.375 48.34375 49.125 
Q 50.390625 46.875 51.46875 43.671875 
Q 52.546875 40.484375 52.546875 36.53125 
Q 52.546875 34.078125 52.3125 31.171875 
Q 52.09375 28.265625 51.515625 25.203125 
Q 50.203125 18.265625 48.046875 13.296875 
Q 45.90625 8.34375 42.875 5.171875 
Q 39.84375 2 35.9375 0.5 
Q 32.03125 -0.984375 27.203125 -0.984375 
Q 21.1875 -0.984375 17.421875 1.5625 
Q 13.671875 4.109375 12.109375 8.6875 
L 11.96875 8.6875 
Q 11.71875 7.421875 11.375 5.984375 
Q 11.03125 4.546875 10.71875 3.265625 
Q 10.40625 2 10.1875 1.09375 
Q 9.96875 0.203125 9.859375 0 
L 1.421875 0 
Q 1.5625 0.4375 1.796875 1.484375 
Q 2.046875 2.546875 2.359375 4 
Q 2.6875 5.46875 3.078125 7.21875 
Q 3.46875 8.984375 3.8125 10.890625 
L 15.765625 72.46875 
L 24.5625 72.46875 
L 20.515625 51.8125 
Q 20.265625 50.390625 19.9375 49.125 
Q 19.625 47.859375 19.390625 46.921875 
Q 19.09375 45.84375 18.84375 44.96875 
L 19.046875 44.96875 
Q 20.796875 47.265625 22.625 48.921875 
Q 24.46875 50.59375 26.53125 51.6875 
Q 28.609375 52.78125 31 53.296875 
Q 33.40625 53.8125 36.328125 53.8125 
z
M 33.796875 47.015625 
Q 30.671875 47.015625 27.859375 46.09375 
Q 25.046875 45.171875 22.65625 42.890625 
Q 20.265625 40.625 18.4375 36.765625 
Q 16.609375 32.90625 15.484375 27.046875 
Q 14.546875 22.265625 14.546875 18.40625 
Q 14.546875 15.28125 15.375 12.859375 
Q 16.21875 10.453125 17.75 8.8125 
Q 19.28125 7.171875 21.453125 6.34375 
Q 23.640625 5.515625 26.265625 5.515625 
Q 29.296875 5.515625 31.734375 6.421875 
Q 34.1875 7.328125 36.15625 9.546875 
Q 38.140625 11.765625 39.640625 15.5 
Q 41.15625 19.234375 42.234375 24.90625 
Q 43.359375 30.8125 43.359375 34.96875 
Q 43.359375 40.96875 41.0625 43.984375 
Q 38.765625 47.015625 33.796875 47.015625 
z
" id="LiberationSans-Italic-98"/>
      <path d="M 35.0625 45.796875 
Q 34.234375 46.046875 33.078125 46.234375 
Q 31.9375 46.4375 30.671875 46.4375 
Q 27.546875 46.4375 25.046875 44.625 
Q 22.5625 42.828125 20.671875 40.03125 
Q 18.796875 37.25 17.578125 33.90625 
Q 16.359375 30.5625 15.828125 27.546875 
L 10.453125 0 
L 1.65625 0 
L 9.578125 40.53125 
Q 9.90625 42.234375 10.203125 43.9375 
Q 10.5 45.65625 10.765625 47.265625 
Q 11.03125 48.875 11.28125 50.3125 
Q 11.53125 51.765625 11.671875 52.828125 
L 19.96875 52.828125 
Q 19.828125 51.765625 19.609375 50.296875 
Q 19.390625 48.828125 19.140625 47.3125 
Q 18.890625 45.796875 18.671875 44.40625 
Q 18.453125 43.015625 18.265625 42.046875 
L 18.453125 42.046875 
Q 19.96875 45.0625 21.453125 47.28125 
Q 22.953125 49.515625 24.5625 50.953125 
Q 26.171875 52.390625 28 53.09375 
Q 29.828125 53.8125 32.03125 53.8125 
Q 32.5625 53.8125 33.203125 53.734375 
Q 33.84375 53.65625 34.5 53.5625 
Q 35.15625 53.46875 35.734375 53.34375 
Q 36.328125 53.21875 36.671875 53.125 
z
" id="LiberationSans-Italic-114"/>
     </defs>
     <use xlink:href="#LiberationSans-Italic-76"/>
     <use x="55.615234" xlink:href="#LiberationSans-Italic-116"/>
     <use x="83.398438" xlink:href="#LiberationSans-Italic-98"/>
     <use x="139.013672" xlink:href="#LiberationSans-Italic-114"/>
    </g>
   </g>
   <g id="line2d_43">
    <path clip-path="url(#p4ef7172f06)" d="M 212.951136 58.299835 
L 213.569211 57.783152 
L 214.187286 57.276246 
L 214.80536 56.778935 
L 215.423435 56.291036 
L 216.04151 55.812371 
L 216.659584 55.342764 
L 217.277659 54.882046 
L 217.895734 54.430048 
L 218.513809 53.986603 
L 219.131883 53.551552 
L 219.749958 53.124734 
L 220.368033 52.705994 
L 220.986107 52.29518 
L 221.604182 51.89214 
L 222.222257 51.496729 
L 222.840331 51.108801 
L 223.458406 50.728215 
L 224.076481 50.354831 
L 224.694555 49.988515 
L 225.31263 49.629131 
L 225.930705 49.27655 
L 226.548779 48.930641 
L 227.166854 48.591279 
L 227.784929 48.258339 
L 228.403004 47.931701 
L 229.021078 47.611245 
L 229.639153 47.296854 
L 230.257228 46.988413 
L 230.875302 46.685809 
L 231.493377 46.388933 
L 232.111452 46.097675 
L 232.729526 45.81193 
L 233.347601 45.531592 
L 233.965676 45.256561 
L 234.58375 44.986734 
L 235.201825 44.722015 
L 235.8199 44.462305 
L 236.437974 44.207511 
L 237.056049 43.957539 
L 237.674124 43.712298 
L 238.292199 43.471698 
L 238.910273 43.235652 
L 239.528348 43.004073 
L 240.146423 42.776878 
L 240.764497 42.553982 
L 241.382572 42.335304 
L 242.000647 42.120766 
L 242.618721 41.910288 
L 243.236796 41.703793 
L 243.854871 41.501206 
L 244.472945 41.302454 
L 245.09102 41.107463 
L 245.709095 40.916163 
L 246.327169 40.728483 
L 246.945244 40.544355 
L 247.563319 40.363712 
L 248.181393 40.186488 
L 248.799468 40.012618 
L 249.417543 39.842038 
L 250.035618 39.674687 
L 250.653692 39.510504 
L 251.271767 39.349427 
L 251.889842 39.1914 
L 252.507916 39.036363 
L 253.125991 38.88426 
L 253.744066 38.735036 
L 254.36214 38.588636 
L 254.980215 38.445007 
L 255.59829 38.304096 
L 256.216364 38.165853 
L 256.834439 38.030225 
L 257.452514 37.897165 
L 258.070588 37.766622 
L 258.688663 37.638551 
L 259.306738 37.512903 
L 259.924813 37.389634 
L 260.542887 37.268697 
L 261.160962 37.150049 
L 261.779037 37.033647 
L 262.397111 36.919448 
L 263.015186 36.80741 
L 263.633261 36.697492 
L 264.251335 36.589655 
L 264.86941 36.483859 
L 265.487485 36.380065 
L 266.105559 36.278235 
L 266.723634 36.178333 
L 267.341709 36.080321 
L 267.959783 35.984165 
L 268.577858 35.889828 
L 269.195933 35.797277 
L 269.814007 35.706477 
L 270.432082 35.617396 
L 271.050157 35.530001 
L 271.668232 35.44426 
L 272.286306 35.360141 
L 272.904381 35.277615 
L 273.522456 35.19665 
L 274.14053 35.117218 
" style="fill:none;stroke:#2ca02c;stroke-linecap:round;stroke-width:2;"/>
   </g>
   <g id="PathCollection_3">
    <g clip-path="url(#p4ef7172f06)">
     <use style="stroke:#ffffff;stroke-width:0.252982;" x="212.951136" xlink:href="#mbf48730bac" y="58.299835"/>
     <use style="stroke:#ffffff;stroke-width:0.252982;" x="212.951136" xlink:href="#mbf48730bac" y="58.299835"/>
     <use style="stroke:#ffffff;stroke-width:0.252982;" x="223.541608" xlink:href="#mbf48730bac" y="48.77762"/>
     <use style="stroke:#ffffff;stroke-width:0.252982;" x="223.541608" xlink:href="#mbf48730bac" y="48.77762"/>
     <use style="stroke:#ffffff;stroke-width:0.252982;" x="227.071766" xlink:href="#mbf48730bac" y="48.469988"/>
     <use style="stroke:#ffffff;stroke-width:0.252982;" x="227.071766" xlink:href="#mbf48730bac" y="48.469988"/>
     <use style="stroke:#ffffff;stroke-width:0.252982;" x="241.192395" xlink:href="#mbf48730bac" y="49.640607"/>
     <use style="stroke:#ffffff;stroke-width:0.252982;" x="241.192395" xlink:href="#mbf48730bac" y="49.640607"/>
     <use style="stroke:#ffffff;stroke-width:0.252982;" x="216.481294" xlink:href="#mbf48730bac" y="45.477184"/>
     <use style="stroke:#ffffff;stroke-width:0.252982;" x="216.481294" xlink:href="#mbf48730bac" y="45.477184"/>
     <use style="stroke:#ffffff;stroke-width:0.252982;" x="262.373339" xlink:href="#mbf48730bac" y="30.999671"/>
    </g>
   </g>
   <g id="LineCollection_3">
    <path clip-path="url(#p4ef7172f06)" d="M 212.951136 60.210976 
L 212.951136 56.388694 
" style="fill:none;stroke:#000000;"/>
    <path clip-path="url(#p4ef7172f06)" d="M 212.951136 60.210976 
L 212.951136 56.388694 
" style="fill:none;stroke:#000000;"/>
    <path clip-path="url(#p4ef7172f06)" d="M 223.541608 49.888621 
L 223.541608 47.66662 
" style="fill:none;stroke:#000000;"/>
    <path clip-path="url(#p4ef7172f06)" d="M 223.541608 49.888621 
L 223.541608 47.66662 
" style="fill:none;stroke:#000000;"/>
    <path clip-path="url(#p4ef7172f06)" d="M 227.071766 52.456942 
L 227.071766 44.483034 
" style="fill:none;stroke:#000000;"/>
    <path clip-path="url(#p4ef7172f06)" d="M 227.071766 52.456942 
L 227.071766 44.483034 
" style="fill:none;stroke:#000000;"/>
    <path clip-path="url(#p4ef7172f06)" d="M 241.192395 51.972055 
L 241.192395 47.309159 
" style="fill:none;stroke:#000000;"/>
    <path clip-path="url(#p4ef7172f06)" d="M 241.192395 51.972055 
L 241.192395 47.309159 
" style="fill:none;stroke:#000000;"/>
    <path clip-path="url(#p4ef7172f06)" d="M 216.481294 49.752473 
L 216.481294 41.201894 
" style="fill:none;stroke:#000000;"/>
    <path clip-path="url(#p4ef7172f06)" d="M 216.481294 49.752473 
L 216.481294 41.201894 
" style="fill:none;stroke:#000000;"/>
    <path clip-path="url(#p4ef7172f06)" d="M 262.373339 36.465486 
L 262.373339 25.533856 
" style="fill:none;stroke:#000000;"/>
   </g>
   <g id="line2d_44">
    <g clip-path="url(#p4ef7172f06)">
     <use style="stroke:#000000;" x="212.951136" xlink:href="#m03e2f7b779" y="60.210976"/>
     <use style="stroke:#000000;" x="212.951136" xlink:href="#m03e2f7b779" y="60.210976"/>
     <use style="stroke:#000000;" x="223.541608" xlink:href="#m03e2f7b779" y="49.888621"/>
     <use style="stroke:#000000;" x="223.541608" xlink:href="#m03e2f7b779" y="49.888621"/>
     <use style="stroke:#000000;" x="227.071766" xlink:href="#m03e2f7b779" y="52.456942"/>
     <use style="stroke:#000000;" x="227.071766" xlink:href="#m03e2f7b779" y="52.456942"/>
     <use style="stroke:#000000;" x="241.192395" xlink:href="#m03e2f7b779" y="51.972055"/>
     <use style="stroke:#000000;" x="241.192395" xlink:href="#m03e2f7b779" y="51.972055"/>
     <use style="stroke:#000000;" x="216.481294" xlink:href="#m03e2f7b779" y="49.752473"/>
     <use style="stroke:#000000;" x="216.481294" xlink:href="#m03e2f7b779" y="49.752473"/>
     <use style="stroke:#000000;" x="262.373339" xlink:href="#m03e2f7b779" y="36.465486"/>
    </g>
   </g>
   <g id="line2d_45">
    <g clip-path="url(#p4ef7172f06)">
     <use style="stroke:#000000;" x="212.951136" xlink:href="#m03e2f7b779" y="56.388694"/>
     <use style="stroke:#000000;" x="212.951136" xlink:href="#m03e2f7b779" y="56.388694"/>
     <use style="stroke:#000000;" x="223.541608" xlink:href="#m03e2f7b779" y="47.66662"/>
     <use style="stroke:#000000;" x="223.541608" xlink:href="#m03e2f7b779" y="47.66662"/>
     <use style="stroke:#000000;" x="227.071766" xlink:href="#m03e2f7b779" y="44.483034"/>
     <use style="stroke:#000000;" x="227.071766" xlink:href="#m03e2f7b779" y="44.483034"/>
     <use style="stroke:#000000;" x="241.192395" xlink:href="#m03e2f7b779" y="47.309159"/>
     <use style="stroke:#000000;" x="241.192395" xlink:href="#m03e2f7b779" y="47.309159"/>
     <use style="stroke:#000000;" x="216.481294" xlink:href="#m03e2f7b779" y="41.201894"/>
     <use style="stroke:#000000;" x="216.481294" xlink:href="#m03e2f7b779" y="41.201894"/>
     <use style="stroke:#000000;" x="262.373339" xlink:href="#m03e2f7b779" y="25.533856"/>
    </g>
   </g>
  </g>
 </g>
 <defs>
  <clipPath id="p7b54469719">
   <rect height="61.8" width="67.308333" x="45.675" y="23.8"/>
  </clipPath>
  <clipPath id="p35bbfe6c5e">
   <rect height="61.8" width="67.308333" x="127.783333" y="23.8"/>
  </clipPath>
  <clipPath id="p4ef7172f06">
   <rect height="61.8" width="67.308333" x="209.891667" y="23.8"/>
  </clipPath>
 </defs>
</svg>
