<?xml version="1.0" encoding="utf-8" standalone="no"?>
<!DOCTYPE svg PUBLIC "-//W3C//DTD SVG 1.1//EN"
  "http://www.w3.org/Graphics/SVG/1.1/DTD/svg11.dtd">
<svg xmlns:xlink="http://www.w3.org/1999/xlink" width="288pt" height="122.4pt" viewBox="0 0 288 122.4" xmlns="http://www.w3.org/2000/svg" version="1.1">
 <metadata>
  <rdf:RDF xmlns:dc="http://purl.org/dc/elements/1.1/" xmlns:cc="http://creativecommons.org/ns#" xmlns:rdf="http://www.w3.org/1999/02/22-rdf-syntax-ns#">
   <cc:Work>
    <dc:type rdf:resource="http://purl.org/dc/dcmitype/StillImage"/>
    <dc:date>2022-11-14T10:01:56.777782</dc:date>
    <dc:format>image/svg+xml</dc:format>
    <dc:creator>
     <cc:Agent>
      <dc:title>Matplotlib v3.5.1, https://matplotlib.org/</dc:title>
     </cc:Agent>
    </dc:creator>
   </cc:Work>
  </rdf:RDF>
 </metadata>
 <defs>
  <style type="text/css">*{stroke-linejoin: round; stroke-linecap: butt}</style>
 </defs>
 <g id="figure_1">
  <g id="patch_1">
   <path d="M 0 122.4 
L 288 122.4 
L 288 0 
L 0 0 
z
" style="fill: #ffffff"/>
  </g>
  <g id="axes_1">
   <g id="patch_2">
    <path d="M 45.19 85.47875 
L 112.66 85.47875 
L 112.66 23.28 
L 45.19 23.28 
z
" style="fill: #ffffff"/>
   </g>
   <g id="matplotlib.axis_1">
    <g id="xtick_1">
     <g id="line2d_1">
      <defs>
       <path id="m0cc266214c" d="M 0 0 
L 0 4 
" style="stroke: #262626; stroke-width: 0.8"/>
      </defs>
      <g>
       <use xlink:href="#m0cc266214c" x="48.256818" y="85.47875" style="fill: #262626; stroke: #262626; stroke-width: 0.8"/>
      </g>
     </g>
     <g id="text_1">
      <!-- 0 -->
      <g style="fill: #262626" transform="translate(46.032443 97.205)scale(0.08 -0.08)">
       <defs>
        <path id="ArialMT-30" d="M 266 2259 
Q 266 3072 433 3567 
Q 600 4063 929 4331 
Q 1259 4600 1759 4600 
Q 2128 4600 2406 4451 
Q 2684 4303 2865 4023 
Q 3047 3744 3150 3342 
Q 3253 2941 3253 2259 
Q 3253 1453 3087 958 
Q 2922 463 2592 192 
Q 2263 -78 1759 -78 
Q 1097 -78 719 397 
Q 266 969 266 2259 
z
M 844 2259 
Q 844 1131 1108 757 
Q 1372 384 1759 384 
Q 2147 384 2411 759 
Q 2675 1134 2675 2259 
Q 2675 3391 2411 3762 
Q 2147 4134 1753 4134 
Q 1366 4134 1134 3806 
Q 844 3388 844 2259 
z
" transform="scale(0.015625)"/>
       </defs>
       <use xlink:href="#ArialMT-30"/>
      </g>
     </g>
    </g>
    <g id="xtick_2">
     <g id="line2d_2">
      <g>
       <use xlink:href="#m0cc266214c" x="62.411364" y="85.47875" style="fill: #262626; stroke: #262626; stroke-width: 0.8"/>
      </g>
     </g>
     <g id="text_2">
      <!-- 24 -->
      <g style="fill: #262626" transform="translate(57.962614 97.205)scale(0.08 -0.08)">
       <defs>
        <path id="ArialMT-32" d="M 3222 541 
L 3222 0 
L 194 0 
Q 188 203 259 391 
Q 375 700 629 1000 
Q 884 1300 1366 1694 
Q 2113 2306 2375 2664 
Q 2638 3022 2638 3341 
Q 2638 3675 2398 3904 
Q 2159 4134 1775 4134 
Q 1369 4134 1125 3890 
Q 881 3647 878 3216 
L 300 3275 
Q 359 3922 746 4261 
Q 1134 4600 1788 4600 
Q 2447 4600 2831 4234 
Q 3216 3869 3216 3328 
Q 3216 3053 3103 2787 
Q 2991 2522 2730 2228 
Q 2469 1934 1863 1422 
Q 1356 997 1212 845 
Q 1069 694 975 541 
L 3222 541 
z
" transform="scale(0.015625)"/>
        <path id="ArialMT-34" d="M 2069 0 
L 2069 1097 
L 81 1097 
L 81 1613 
L 2172 4581 
L 2631 4581 
L 2631 1613 
L 3250 1613 
L 3250 1097 
L 2631 1097 
L 2631 0 
L 2069 0 
z
M 2069 1613 
L 2069 3678 
L 634 1613 
L 2069 1613 
z
" transform="scale(0.015625)"/>
       </defs>
       <use xlink:href="#ArialMT-32"/>
       <use xlink:href="#ArialMT-34" x="55.615234"/>
      </g>
     </g>
    </g>
    <g id="xtick_3">
     <g id="line2d_3">
      <g>
       <use xlink:href="#m0cc266214c" x="76.565909" y="85.47875" style="fill: #262626; stroke: #262626; stroke-width: 0.8"/>
      </g>
     </g>
     <g id="text_3">
      <!-- 48 -->
      <g style="fill: #262626" transform="translate(72.117159 97.205)scale(0.08 -0.08)">
       <defs>
        <path id="ArialMT-38" d="M 1131 2484 
Q 781 2613 612 2850 
Q 444 3088 444 3419 
Q 444 3919 803 4259 
Q 1163 4600 1759 4600 
Q 2359 4600 2725 4251 
Q 3091 3903 3091 3403 
Q 3091 3084 2923 2848 
Q 2756 2613 2416 2484 
Q 2838 2347 3058 2040 
Q 3278 1734 3278 1309 
Q 3278 722 2862 322 
Q 2447 -78 1769 -78 
Q 1091 -78 675 323 
Q 259 725 259 1325 
Q 259 1772 486 2073 
Q 713 2375 1131 2484 
z
M 1019 3438 
Q 1019 3113 1228 2906 
Q 1438 2700 1772 2700 
Q 2097 2700 2305 2904 
Q 2513 3109 2513 3406 
Q 2513 3716 2298 3927 
Q 2084 4138 1766 4138 
Q 1444 4138 1231 3931 
Q 1019 3725 1019 3438 
z
M 838 1322 
Q 838 1081 952 856 
Q 1066 631 1291 507 
Q 1516 384 1775 384 
Q 2178 384 2440 643 
Q 2703 903 2703 1303 
Q 2703 1709 2433 1975 
Q 2163 2241 1756 2241 
Q 1359 2241 1098 1978 
Q 838 1716 838 1322 
z
" transform="scale(0.015625)"/>
       </defs>
       <use xlink:href="#ArialMT-34"/>
       <use xlink:href="#ArialMT-38" x="55.615234"/>
      </g>
     </g>
    </g>
    <g id="xtick_4">
     <g id="line2d_4">
      <g>
       <use xlink:href="#m0cc266214c" x="90.720455" y="85.47875" style="fill: #262626; stroke: #262626; stroke-width: 0.8"/>
      </g>
     </g>
     <g id="text_4">
      <!-- 72 -->
      <g style="fill: #262626" transform="translate(86.271705 97.205)scale(0.08 -0.08)">
       <defs>
        <path id="ArialMT-37" d="M 303 3981 
L 303 4522 
L 3269 4522 
L 3269 4084 
Q 2831 3619 2401 2847 
Q 1972 2075 1738 1259 
Q 1569 684 1522 0 
L 944 0 
Q 953 541 1156 1306 
Q 1359 2072 1739 2783 
Q 2119 3494 2547 3981 
L 303 3981 
z
" transform="scale(0.015625)"/>
       </defs>
       <use xlink:href="#ArialMT-37"/>
       <use xlink:href="#ArialMT-32" x="55.615234"/>
      </g>
     </g>
    </g>
    <g id="xtick_5">
     <g id="line2d_5">
      <g>
       <use xlink:href="#m0cc266214c" x="104.875" y="85.47875" style="fill: #262626; stroke: #262626; stroke-width: 0.8"/>
      </g>
     </g>
     <g id="text_5">
      <!-- 96 -->
      <g style="fill: #262626" transform="translate(100.42625 97.205)scale(0.08 -0.08)">
       <defs>
        <path id="ArialMT-39" d="M 350 1059 
L 891 1109 
Q 959 728 1153 556 
Q 1347 384 1650 384 
Q 1909 384 2104 503 
Q 2300 622 2425 820 
Q 2550 1019 2634 1356 
Q 2719 1694 2719 2044 
Q 2719 2081 2716 2156 
Q 2547 1888 2255 1720 
Q 1963 1553 1622 1553 
Q 1053 1553 659 1965 
Q 266 2378 266 3053 
Q 266 3750 677 4175 
Q 1088 4600 1706 4600 
Q 2153 4600 2523 4359 
Q 2894 4119 3086 3673 
Q 3278 3228 3278 2384 
Q 3278 1506 3087 986 
Q 2897 466 2520 194 
Q 2144 -78 1638 -78 
Q 1100 -78 759 220 
Q 419 519 350 1059 
z
M 2653 3081 
Q 2653 3566 2395 3850 
Q 2138 4134 1775 4134 
Q 1400 4134 1122 3828 
Q 844 3522 844 3034 
Q 844 2597 1108 2323 
Q 1372 2050 1759 2050 
Q 2150 2050 2401 2323 
Q 2653 2597 2653 3081 
z
" transform="scale(0.015625)"/>
        <path id="ArialMT-36" d="M 3184 3459 
L 2625 3416 
Q 2550 3747 2413 3897 
Q 2184 4138 1850 4138 
Q 1581 4138 1378 3988 
Q 1113 3794 959 3422 
Q 806 3050 800 2363 
Q 1003 2672 1297 2822 
Q 1591 2972 1913 2972 
Q 2475 2972 2870 2558 
Q 3266 2144 3266 1488 
Q 3266 1056 3080 686 
Q 2894 316 2569 119 
Q 2244 -78 1831 -78 
Q 1128 -78 684 439 
Q 241 956 241 2144 
Q 241 3472 731 4075 
Q 1159 4600 1884 4600 
Q 2425 4600 2770 4297 
Q 3116 3994 3184 3459 
z
M 888 1484 
Q 888 1194 1011 928 
Q 1134 663 1356 523 
Q 1578 384 1822 384 
Q 2178 384 2434 671 
Q 2691 959 2691 1453 
Q 2691 1928 2437 2201 
Q 2184 2475 1800 2475 
Q 1419 2475 1153 2201 
Q 888 1928 888 1484 
z
" transform="scale(0.015625)"/>
       </defs>
       <use xlink:href="#ArialMT-39"/>
       <use xlink:href="#ArialMT-36" x="55.615234"/>
      </g>
     </g>
    </g>
    <g id="text_6">
     <!-- time (h) -->
     <g style="fill: #262626" transform="translate(63.674922 109.346719)scale(0.09 -0.09)">
      <defs>
       <path id="ArialMT-74" d="M 1650 503 
L 1731 6 
Q 1494 -44 1306 -44 
Q 1000 -44 831 53 
Q 663 150 594 308 
Q 525 466 525 972 
L 525 2881 
L 113 2881 
L 113 3319 
L 525 3319 
L 525 4141 
L 1084 4478 
L 1084 3319 
L 1650 3319 
L 1650 2881 
L 1084 2881 
L 1084 941 
Q 1084 700 1114 631 
Q 1144 563 1211 522 
Q 1278 481 1403 481 
Q 1497 481 1650 503 
z
" transform="scale(0.015625)"/>
       <path id="ArialMT-69" d="M 425 3934 
L 425 4581 
L 988 4581 
L 988 3934 
L 425 3934 
z
M 425 0 
L 425 3319 
L 988 3319 
L 988 0 
L 425 0 
z
" transform="scale(0.015625)"/>
       <path id="ArialMT-6d" d="M 422 0 
L 422 3319 
L 925 3319 
L 925 2853 
Q 1081 3097 1340 3245 
Q 1600 3394 1931 3394 
Q 2300 3394 2536 3241 
Q 2772 3088 2869 2813 
Q 3263 3394 3894 3394 
Q 4388 3394 4653 3120 
Q 4919 2847 4919 2278 
L 4919 0 
L 4359 0 
L 4359 2091 
Q 4359 2428 4304 2576 
Q 4250 2725 4106 2815 
Q 3963 2906 3769 2906 
Q 3419 2906 3187 2673 
Q 2956 2441 2956 1928 
L 2956 0 
L 2394 0 
L 2394 2156 
Q 2394 2531 2256 2718 
Q 2119 2906 1806 2906 
Q 1569 2906 1367 2781 
Q 1166 2656 1075 2415 
Q 984 2175 984 1722 
L 984 0 
L 422 0 
z
" transform="scale(0.015625)"/>
       <path id="ArialMT-65" d="M 2694 1069 
L 3275 997 
Q 3138 488 2766 206 
Q 2394 -75 1816 -75 
Q 1088 -75 661 373 
Q 234 822 234 1631 
Q 234 2469 665 2931 
Q 1097 3394 1784 3394 
Q 2450 3394 2872 2941 
Q 3294 2488 3294 1666 
Q 3294 1616 3291 1516 
L 816 1516 
Q 847 969 1125 678 
Q 1403 388 1819 388 
Q 2128 388 2347 550 
Q 2566 713 2694 1069 
z
M 847 1978 
L 2700 1978 
Q 2663 2397 2488 2606 
Q 2219 2931 1791 2931 
Q 1403 2931 1139 2672 
Q 875 2413 847 1978 
z
" transform="scale(0.015625)"/>
       <path id="ArialMT-20" transform="scale(0.015625)"/>
       <path id="ArialMT-28" d="M 1497 -1347 
Q 1031 -759 709 28 
Q 388 816 388 1659 
Q 388 2403 628 3084 
Q 909 3875 1497 4659 
L 1900 4659 
Q 1522 4009 1400 3731 
Q 1209 3300 1100 2831 
Q 966 2247 966 1656 
Q 966 153 1900 -1347 
L 1497 -1347 
z
" transform="scale(0.015625)"/>
       <path id="ArialMT-68" d="M 422 0 
L 422 4581 
L 984 4581 
L 984 2938 
Q 1378 3394 1978 3394 
Q 2347 3394 2619 3248 
Q 2891 3103 3008 2847 
Q 3125 2591 3125 2103 
L 3125 0 
L 2563 0 
L 2563 2103 
Q 2563 2525 2380 2717 
Q 2197 2909 1863 2909 
Q 1613 2909 1392 2779 
Q 1172 2650 1078 2428 
Q 984 2206 984 1816 
L 984 0 
L 422 0 
z
" transform="scale(0.015625)"/>
       <path id="ArialMT-29" d="M 791 -1347 
L 388 -1347 
Q 1322 153 1322 1656 
Q 1322 2244 1188 2822 
Q 1081 3291 891 3722 
Q 769 4003 388 4659 
L 791 4659 
Q 1378 3875 1659 3084 
Q 1900 2403 1900 1659 
Q 1900 816 1576 28 
Q 1253 -759 791 -1347 
z
" transform="scale(0.015625)"/>
      </defs>
      <use xlink:href="#ArialMT-74"/>
      <use xlink:href="#ArialMT-69" x="27.783203"/>
      <use xlink:href="#ArialMT-6d" x="50"/>
      <use xlink:href="#ArialMT-65" x="133.300781"/>
      <use xlink:href="#ArialMT-20" x="188.916016"/>
      <use xlink:href="#ArialMT-28" x="216.699219"/>
      <use xlink:href="#ArialMT-68" x="250"/>
      <use xlink:href="#ArialMT-29" x="305.615234"/>
     </g>
    </g>
   </g>
   <g id="matplotlib.axis_2">
    <g id="ytick_1">
     <g id="line2d_6">
      <defs>
       <path id="m0d62d18791" d="M 0 0 
L -4 0 
" style="stroke: #262626; stroke-width: 0.8"/>
      </defs>
      <g>
       <use xlink:href="#m0d62d18791" x="45.19" y="85.47875" style="fill: #262626; stroke: #262626; stroke-width: 0.8"/>
      </g>
     </g>
     <g id="text_7">
      <!-- −1.0 -->
      <g style="fill: #262626" transform="translate(23.3975 88.341875)scale(0.08 -0.08)">
       <defs>
        <path id="ArialMT-2212" d="M 3381 1997 
L 356 1997 
L 356 2522 
L 3381 2522 
L 3381 1997 
z
" transform="scale(0.015625)"/>
        <path id="ArialMT-31" d="M 2384 0 
L 1822 0 
L 1822 3584 
Q 1619 3391 1289 3197 
Q 959 3003 697 2906 
L 697 3450 
Q 1169 3672 1522 3987 
Q 1875 4303 2022 4600 
L 2384 4600 
L 2384 0 
z
" transform="scale(0.015625)"/>
        <path id="ArialMT-2e" d="M 581 0 
L 581 641 
L 1222 641 
L 1222 0 
L 581 0 
z
" transform="scale(0.015625)"/>
       </defs>
       <use xlink:href="#ArialMT-2212"/>
       <use xlink:href="#ArialMT-31" x="58.398438"/>
       <use xlink:href="#ArialMT-2e" x="114.013672"/>
       <use xlink:href="#ArialMT-30" x="141.796875"/>
      </g>
     </g>
    </g>
    <g id="ytick_2">
     <g id="line2d_7">
      <g>
       <use xlink:href="#m0d62d18791" x="45.19" y="71.291213" style="fill: #262626; stroke: #262626; stroke-width: 0.8"/>
      </g>
     </g>
     <g id="text_8">
      <!-- −0.5 -->
      <g style="fill: #262626" transform="translate(23.3975 74.154338)scale(0.08 -0.08)">
       <defs>
        <path id="ArialMT-35" d="M 266 1200 
L 856 1250 
Q 922 819 1161 601 
Q 1400 384 1738 384 
Q 2144 384 2425 690 
Q 2706 997 2706 1503 
Q 2706 1984 2436 2262 
Q 2166 2541 1728 2541 
Q 1456 2541 1237 2417 
Q 1019 2294 894 2097 
L 366 2166 
L 809 4519 
L 3088 4519 
L 3088 3981 
L 1259 3981 
L 1013 2750 
Q 1425 3038 1878 3038 
Q 2478 3038 2890 2622 
Q 3303 2206 3303 1553 
Q 3303 931 2941 478 
Q 2500 -78 1738 -78 
Q 1113 -78 717 272 
Q 322 622 266 1200 
z
" transform="scale(0.015625)"/>
       </defs>
       <use xlink:href="#ArialMT-2212"/>
       <use xlink:href="#ArialMT-30" x="58.398438"/>
       <use xlink:href="#ArialMT-2e" x="114.013672"/>
       <use xlink:href="#ArialMT-35" x="141.796875"/>
      </g>
     </g>
    </g>
    <g id="ytick_3">
     <g id="line2d_8">
      <g>
       <use xlink:href="#m0d62d18791" x="45.19" y="57.103676" style="fill: #262626; stroke: #262626; stroke-width: 0.8"/>
      </g>
     </g>
     <g id="text_9">
      <!-- 0.0 -->
      <g style="fill: #262626" transform="translate(28.07 59.966801)scale(0.08 -0.08)">
       <use xlink:href="#ArialMT-30"/>
       <use xlink:href="#ArialMT-2e" x="55.615234"/>
       <use xlink:href="#ArialMT-30" x="83.398438"/>
      </g>
     </g>
    </g>
    <g id="ytick_4">
     <g id="line2d_9">
      <g>
       <use xlink:href="#m0d62d18791" x="45.19" y="42.916138" style="fill: #262626; stroke: #262626; stroke-width: 0.8"/>
      </g>
     </g>
     <g id="text_10">
      <!-- 0.5 -->
      <g style="fill: #262626" transform="translate(28.07 45.779263)scale(0.08 -0.08)">
       <use xlink:href="#ArialMT-30"/>
       <use xlink:href="#ArialMT-2e" x="55.615234"/>
       <use xlink:href="#ArialMT-35" x="83.398438"/>
      </g>
     </g>
    </g>
    <g id="ytick_5">
     <g id="line2d_10">
      <g>
       <use xlink:href="#m0d62d18791" x="45.19" y="28.728601" style="fill: #262626; stroke: #262626; stroke-width: 0.8"/>
      </g>
     </g>
     <g id="text_11">
      <!-- 1.0 -->
      <g style="fill: #262626" transform="translate(28.07 31.591726)scale(0.08 -0.08)">
       <use xlink:href="#ArialMT-31"/>
       <use xlink:href="#ArialMT-2e" x="55.615234"/>
       <use xlink:href="#ArialMT-30" x="83.398438"/>
      </g>
     </g>
    </g>
    <g id="text_12">
     <!-- expr. norm. -->
     <g style="fill: #262626" transform="translate(17.60875 76.887109)rotate(-90)scale(0.09 -0.09)">
      <defs>
       <path id="ArialMT-78" d="M 47 0 
L 1259 1725 
L 138 3319 
L 841 3319 
L 1350 2541 
Q 1494 2319 1581 2169 
Q 1719 2375 1834 2534 
L 2394 3319 
L 3066 3319 
L 1919 1756 
L 3153 0 
L 2463 0 
L 1781 1031 
L 1600 1309 
L 728 0 
L 47 0 
z
" transform="scale(0.015625)"/>
       <path id="ArialMT-70" d="M 422 -1272 
L 422 3319 
L 934 3319 
L 934 2888 
Q 1116 3141 1344 3267 
Q 1572 3394 1897 3394 
Q 2322 3394 2647 3175 
Q 2972 2956 3137 2557 
Q 3303 2159 3303 1684 
Q 3303 1175 3120 767 
Q 2938 359 2589 142 
Q 2241 -75 1856 -75 
Q 1575 -75 1351 44 
Q 1128 163 984 344 
L 984 -1272 
L 422 -1272 
z
M 931 1641 
Q 931 1000 1190 694 
Q 1450 388 1819 388 
Q 2194 388 2461 705 
Q 2728 1022 2728 1688 
Q 2728 2322 2467 2637 
Q 2206 2953 1844 2953 
Q 1484 2953 1207 2617 
Q 931 2281 931 1641 
z
" transform="scale(0.015625)"/>
       <path id="ArialMT-72" d="M 416 0 
L 416 3319 
L 922 3319 
L 922 2816 
Q 1116 3169 1280 3281 
Q 1444 3394 1641 3394 
Q 1925 3394 2219 3213 
L 2025 2691 
Q 1819 2813 1613 2813 
Q 1428 2813 1281 2702 
Q 1134 2591 1072 2394 
Q 978 2094 978 1738 
L 978 0 
L 416 0 
z
" transform="scale(0.015625)"/>
       <path id="ArialMT-6e" d="M 422 0 
L 422 3319 
L 928 3319 
L 928 2847 
Q 1294 3394 1984 3394 
Q 2284 3394 2536 3286 
Q 2788 3178 2913 3003 
Q 3038 2828 3088 2588 
Q 3119 2431 3119 2041 
L 3119 0 
L 2556 0 
L 2556 2019 
Q 2556 2363 2490 2533 
Q 2425 2703 2258 2804 
Q 2091 2906 1866 2906 
Q 1506 2906 1245 2678 
Q 984 2450 984 1813 
L 984 0 
L 422 0 
z
" transform="scale(0.015625)"/>
       <path id="ArialMT-6f" d="M 213 1659 
Q 213 2581 725 3025 
Q 1153 3394 1769 3394 
Q 2453 3394 2887 2945 
Q 3322 2497 3322 1706 
Q 3322 1066 3130 698 
Q 2938 331 2570 128 
Q 2203 -75 1769 -75 
Q 1072 -75 642 372 
Q 213 819 213 1659 
z
M 791 1659 
Q 791 1022 1069 705 
Q 1347 388 1769 388 
Q 2188 388 2466 706 
Q 2744 1025 2744 1678 
Q 2744 2294 2464 2611 
Q 2184 2928 1769 2928 
Q 1347 2928 1069 2612 
Q 791 2297 791 1659 
z
" transform="scale(0.015625)"/>
      </defs>
      <use xlink:href="#ArialMT-65"/>
      <use xlink:href="#ArialMT-78" x="55.615234"/>
      <use xlink:href="#ArialMT-70" x="105.615234"/>
      <use xlink:href="#ArialMT-72" x="161.230469"/>
      <use xlink:href="#ArialMT-2e" x="189.03125"/>
      <use xlink:href="#ArialMT-20" x="216.814453"/>
      <use xlink:href="#ArialMT-6e" x="244.597656"/>
      <use xlink:href="#ArialMT-6f" x="300.212891"/>
      <use xlink:href="#ArialMT-72" x="355.828125"/>
      <use xlink:href="#ArialMT-6d" x="389.128906"/>
      <use xlink:href="#ArialMT-2e" x="472.429688"/>
     </g>
    </g>
   </g>
   <g id="line2d_11">
    <path d="M 48.256818 57.103676 
L 48.876377 57.103676 
L 49.495937 57.103676 
L 50.115496 57.103676 
L 50.735055 57.103676 
L 51.354614 57.103676 
L 51.974174 57.103676 
L 52.593733 57.103676 
L 53.213292 57.103676 
L 53.832851 57.103676 
L 54.45241 57.10361 
L 55.07197 57.007595 
L 55.691529 52.745437 
L 56.311088 43.936872 
L 56.930647 42.920472 
L 57.550207 42.916139 
L 58.169766 42.916138 
L 58.789325 42.916138 
L 59.408884 42.916138 
L 60.028444 42.916138 
L 60.648003 42.916138 
L 61.267562 42.916138 
L 61.887121 42.916138 
L 62.50668 42.916138 
L 63.12624 42.916138 
L 63.745799 42.916138 
L 64.365358 42.916138 
L 64.984917 42.916138 
L 65.604477 42.916138 
L 66.224036 42.916138 
L 66.843595 42.916138 
L 67.463154 42.916138 
L 68.082713 42.916138 
L 68.702273 42.916138 
L 69.321832 42.916138 
L 69.941391 42.916138 
L 70.56095 42.916138 
L 71.18051 42.916138 
L 71.800069 42.916138 
L 72.419628 42.916138 
L 73.039187 42.916138 
L 73.658747 42.916138 
L 74.278306 42.916138 
L 74.897865 42.916138 
L 75.517424 42.911415 
L 76.136983 41.848928 
L 76.756543 32.970464 
L 77.376102 28.818556 
L 77.995661 28.72866 
L 78.61522 28.728601 
L 79.23478 28.728601 
L 79.854339 28.728601 
L 80.473898 28.728601 
L 81.093457 28.728601 
L 81.713017 28.728601 
L 82.332576 28.728601 
L 82.952135 28.728601 
L 83.571694 28.728601 
L 84.191253 28.728601 
L 84.810813 28.728601 
L 85.430372 28.728601 
L 86.049931 28.728601 
L 86.66949 28.728601 
L 87.28905 28.728601 
L 87.908609 28.728601 
L 88.528168 28.728601 
L 89.147727 28.728601 
L 89.767287 28.728601 
L 90.386846 28.728601 
L 91.006405 28.728601 
L 91.625964 28.728601 
L 92.245523 28.728601 
L 92.865083 28.728601 
L 93.484642 28.728601 
L 94.104201 28.728601 
L 94.72376 28.728601 
L 95.34332 28.728601 
L 95.962879 28.728601 
L 96.582438 28.728601 
L 97.201997 28.728601 
L 97.821556 28.728601 
L 98.441116 28.728601 
L 99.060675 28.728601 
L 99.680234 28.728601 
L 100.299793 28.728601 
L 100.919353 28.728601 
L 101.538912 28.728601 
L 102.158471 28.728601 
L 102.77803 28.728601 
L 103.39759 28.728601 
L 104.017149 28.728601 
L 104.636708 28.728601 
L 105.256267 28.728601 
L 105.875826 28.728601 
L 106.495386 28.728601 
L 107.114945 28.728601 
L 107.734504 28.728601 
L 108.354063 28.728601 
L 108.973623 28.728601 
L 109.593182 28.728601 
" clip-path="url(#p0227ac6d80)" style="fill: none; stroke: #800080; stroke-width: 2; stroke-linecap: round"/>
   </g>
   <g id="patch_3">
    <path d="M 45.19 85.47875 
L 45.19 23.28 
" style="fill: none; stroke: #262626; stroke-linejoin: miter; stroke-linecap: square"/>
   </g>
   <g id="patch_4">
    <path d="M 112.66 85.47875 
L 112.66 23.28 
" style="fill: none; stroke: #262626; stroke-linejoin: miter; stroke-linecap: square"/>
   </g>
   <g id="patch_5">
    <path d="M 45.19 85.47875 
L 112.66 85.47875 
" style="fill: none; stroke: #262626; stroke-linejoin: miter; stroke-linecap: square"/>
   </g>
   <g id="patch_6">
    <path d="M 45.19 23.28 
L 112.66 23.28 
" style="fill: none; stroke: #262626; stroke-linejoin: miter; stroke-linecap: square"/>
   </g>
   <g id="line2d_12">
    <path d="M 48.256818 57.103676 
L 48.876377 56.027685 
L 49.495937 54.992495 
L 50.115496 53.996561 
L 50.735055 53.038393 
L 51.354614 52.116558 
L 51.974174 51.22968 
L 52.593733 50.376433 
L 53.213292 49.555541 
L 53.832851 48.765777 
L 54.45241 48.005961 
L 55.07197 47.274958 
L 55.691529 46.571675 
L 56.311088 45.895061 
L 56.930647 45.244103 
L 57.550207 44.617831 
L 58.169766 44.015307 
L 58.789325 43.43563 
L 59.408884 42.877935 
L 60.028444 42.341389 
L 60.648003 41.825188 
L 61.267562 41.328561 
L 61.887121 40.850767 
L 62.50668 40.391091 
L 63.12624 39.948846 
L 63.745799 39.523371 
L 64.365358 39.11403 
L 64.984917 38.720212 
L 65.604477 38.341327 
L 66.224036 37.97681 
L 66.843595 37.626115 
L 67.463154 37.288719 
L 68.082713 36.964117 
L 68.702273 36.651823 
L 69.321832 36.351373 
L 69.941391 36.062315 
L 70.56095 35.784218 
L 71.18051 35.516667 
L 71.800069 35.259262 
L 72.419628 35.011617 
L 73.039187 34.773363 
L 73.658747 34.544144 
L 74.278306 34.323617 
L 74.897865 34.111453 
L 75.517424 33.907333 
L 76.136983 33.710954 
L 76.756543 33.522022 
L 77.376102 33.340254 
L 77.995661 33.165379 
L 78.61522 32.997135 
L 79.23478 32.835271 
L 79.854339 32.679545 
L 80.473898 32.529724 
L 81.093457 32.385584 
L 81.713017 32.24691 
L 82.332576 32.113495 
L 82.952135 31.985139 
L 83.571694 31.86165 
L 84.191253 31.742844 
L 84.810813 31.628543 
L 85.430372 31.518576 
L 86.049931 31.41278 
L 86.66949 31.310995 
L 87.28905 31.21307 
L 87.908609 31.118858 
L 88.528168 31.028219 
L 89.147727 30.941017 
L 89.767287 30.857121 
L 90.386846 30.776407 
L 91.006405 30.698754 
L 91.625964 30.624045 
L 92.245523 30.552169 
L 92.865083 30.483019 
L 93.484642 30.416491 
L 94.104201 30.352486 
L 94.72376 30.290907 
L 95.34332 30.231664 
L 95.962879 30.174668 
L 96.582438 30.119833 
L 97.201997 30.067077 
L 97.821556 30.016321 
L 98.441116 29.967491 
L 99.060675 29.920511 
L 99.680234 29.875314 
L 100.299793 29.83183 
L 100.919353 29.789995 
L 101.538912 29.749747 
L 102.158471 29.711025 
L 102.77803 29.673771 
L 103.39759 29.63793 
L 104.017149 29.603448 
L 104.636708 29.570274 
L 105.256267 29.538357 
L 105.875826 29.507651 
L 106.495386 29.478109 
L 107.114945 29.449688 
L 107.734504 29.422344 
L 108.354063 29.396037 
L 108.973623 29.370728 
L 109.593182 29.346378 
" clip-path="url(#p0227ac6d80)" style="fill: none; stroke: #1f77b4; stroke-width: 2; stroke-linecap: round"/>
   </g>
   <g id="text_13">
    <!-- Txlna -->
    <g style="fill: #262626" transform="translate(67.921797 17.28)scale(0.09 -0.09)">
     <defs>
      <path id="Arial-ItalicMT-54" d="M 1453 0 
L 2300 4059 
L 797 4059 
L 906 4581 
L 4513 4581 
L 4403 4059 
L 2913 4059 
L 2066 0 
L 1453 0 
z
" transform="scale(0.015625)"/>
      <path id="Arial-ItalicMT-78" d="M -9 0 
L 1434 1684 
L 606 3319 
L 1231 3319 
L 1513 2728 
Q 1669 2397 1794 2094 
L 2750 3319 
L 3441 3319 
L 2047 1641 
L 2884 0 
L 2259 0 
L 1928 675 
Q 1822 891 1688 1209 
L 700 0 
L -9 0 
z
" transform="scale(0.015625)"/>
      <path id="Arial-ItalicMT-6c" d="M 169 0 
L 1125 4581 
L 1691 4581 
L 734 0 
L 169 0 
z
" transform="scale(0.015625)"/>
      <path id="Arial-ItalicMT-6e" d="M 213 0 
L 906 3319 
L 1419 3319 
L 1297 2741 
Q 1631 3081 1922 3237 
Q 2213 3394 2516 3394 
Q 2919 3394 3148 3175 
Q 3378 2956 3378 2591 
Q 3378 2406 3297 2009 
L 2875 0 
L 2309 0 
L 2750 2103 
Q 2816 2409 2816 2556 
Q 2816 2722 2702 2825 
Q 2588 2928 2372 2928 
Q 1938 2928 1598 2615 
Q 1259 2303 1100 1544 
L 778 0 
L 213 0 
z
" transform="scale(0.015625)"/>
      <path id="Arial-ItalicMT-61" d="M 2450 413 
Q 2156 159 1884 42 
Q 1613 -75 1303 -75 
Q 844 -75 562 195 
Q 281 466 281 888 
Q 281 1166 407 1380 
Q 534 1594 743 1723 
Q 953 1853 1256 1909 
Q 1447 1947 1980 1969 
Q 2513 1991 2744 2081 
Q 2809 2313 2809 2466 
Q 2809 2663 2666 2775 
Q 2469 2931 2091 2931 
Q 1734 2931 1507 2773 
Q 1281 2616 1178 2325 
L 606 2375 
Q 781 2869 1161 3131 
Q 1541 3394 2119 3394 
Q 2734 3394 3094 3100 
Q 3369 2881 3369 2531 
Q 3369 2266 3291 1916 
L 3106 1091 
Q 3019 697 3019 450 
Q 3019 294 3088 0 
L 2516 0 
Q 2469 163 2450 413 
z
M 2659 1681 
Q 2541 1634 2405 1609 
Q 2269 1584 1950 1556 
Q 1456 1513 1253 1445 
Q 1050 1378 947 1231 
Q 844 1084 844 906 
Q 844 669 1008 516 
Q 1172 363 1475 363 
Q 1756 363 2015 511 
Q 2275 659 2425 925 
Q 2575 1191 2659 1681 
z
" transform="scale(0.015625)"/>
     </defs>
     <use xlink:href="#Arial-ItalicMT-54"/>
     <use xlink:href="#Arial-ItalicMT-78" x="61.083984"/>
     <use xlink:href="#Arial-ItalicMT-6c" x="111.083984"/>
     <use xlink:href="#Arial-ItalicMT-6e" x="133.300781"/>
     <use xlink:href="#Arial-ItalicMT-61" x="188.916016"/>
    </g>
   </g>
   <g id="line2d_13">
    <path d="M 48.256818 57.103676 
L 48.876377 56.027688 
L 49.495937 54.992501 
L 50.115496 53.996569 
L 50.735055 53.038403 
L 51.354614 52.116571 
L 51.974174 51.229695 
L 52.593733 50.37645 
L 53.213292 49.555559 
L 53.832851 48.765797 
L 54.45241 48.005983 
L 55.07197 47.274981 
L 55.691529 46.571699 
L 56.311088 45.895086 
L 56.930647 45.244129 
L 57.550207 44.617857 
L 58.169766 44.015334 
L 58.789325 43.435658 
L 59.408884 42.877964 
L 60.028444 42.341418 
L 60.648003 41.825217 
L 61.267562 41.328591 
L 61.887121 40.850797 
L 62.50668 40.391121 
L 63.12624 39.948876 
L 63.745799 39.523401 
L 64.365358 39.114061 
L 64.984917 38.720242 
L 65.604477 38.341357 
L 66.224036 37.97684 
L 66.843595 37.626145 
L 67.463154 37.288748 
L 68.082713 36.964146 
L 68.702273 36.651853 
L 69.321832 36.351402 
L 69.941391 36.062344 
L 70.56095 35.784247 
L 71.18051 35.516695 
L 71.800069 35.25929 
L 72.419628 35.011645 
L 73.039187 34.773391 
L 73.658747 34.544171 
L 74.278306 34.323644 
L 74.897865 34.111479 
L 75.517424 33.907359 
L 76.136983 33.710979 
L 76.756543 33.522047 
L 77.376102 33.340278 
L 77.995661 33.165403 
L 78.61522 32.997158 
L 79.23478 32.835294 
L 79.854339 32.679567 
L 80.473898 32.529746 
L 81.093457 32.385606 
L 81.713017 32.246932 
L 82.332576 32.113516 
L 82.952135 31.985159 
L 83.571694 31.86167 
L 84.191253 31.742864 
L 84.810813 31.628562 
L 85.430372 31.518595 
L 86.049931 31.412798 
L 86.66949 31.311013 
L 87.28905 31.213087 
L 87.908609 31.118875 
L 88.528168 31.028236 
L 89.147727 30.941033 
L 89.767287 30.857137 
L 90.386846 30.776423 
L 91.006405 30.698769 
L 91.625964 30.62406 
L 92.245523 30.552184 
L 92.865083 30.483033 
L 93.484642 30.416505 
L 94.104201 30.352499 
L 94.72376 30.290921 
L 95.34332 30.231677 
L 95.962879 30.17468 
L 96.582438 30.119845 
L 97.201997 30.067088 
L 97.821556 30.016333 
L 98.441116 29.967502 
L 99.060675 29.920522 
L 99.680234 29.875325 
L 100.299793 29.831841 
L 100.919353 29.790006 
L 101.538912 29.749757 
L 102.158471 29.711035 
L 102.77803 29.67378 
L 103.39759 29.637939 
L 104.017149 29.603457 
L 104.636708 29.570282 
L 105.256267 29.538365 
L 105.875826 29.507659 
L 106.495386 29.478117 
L 107.114945 29.449695 
L 107.734504 29.422351 
L 108.354063 29.396044 
L 108.973623 29.370735 
L 109.593182 29.346385 
" clip-path="url(#p0227ac6d80)" style="fill: none; stroke: #2ca02c; stroke-width: 2; stroke-linecap: round"/>
   </g>
   <g id="PathCollection_1">
    <defs>
     <path id="m8daef55b7a" d="M 0 1.581139 
C 0.419323 1.581139 0.821528 1.41454 1.118034 1.118034 
C 1.41454 0.821528 1.581139 0.419323 1.581139 0 
C 1.581139 -0.419323 1.41454 -0.821528 1.118034 -1.118034 
C 0.821528 -1.41454 0.419323 -1.581139 0 -1.581139 
C -0.419323 -1.581139 -0.821528 -1.41454 -1.118034 -1.118034 
C -1.41454 -0.821528 -1.581139 -0.419323 -1.581139 0 
C -1.581139 0.419323 -1.41454 0.821528 -1.118034 1.118034 
C -0.821528 1.41454 -0.419323 1.581139 0 1.581139 
z
" style="stroke: #ffffff; stroke-width: 0.252982"/>
    </defs>
    <g clip-path="url(#p0227ac6d80)">
     <use xlink:href="#m8daef55b7a" x="48.256818" y="57.103676" style="stroke: #ffffff; stroke-width: 0.252982"/>
     <use xlink:href="#m8daef55b7a" x="48.256818" y="57.103676" style="stroke: #ffffff; stroke-width: 0.252982"/>
     <use xlink:href="#m8daef55b7a" x="58.872727" y="39.200906" style="stroke: #ffffff; stroke-width: 0.252982"/>
     <use xlink:href="#m8daef55b7a" x="58.872727" y="39.200906" style="stroke: #ffffff; stroke-width: 0.252982"/>
     <use xlink:href="#m8daef55b7a" x="62.411364" y="46.899814" style="stroke: #ffffff; stroke-width: 0.252982"/>
     <use xlink:href="#m8daef55b7a" x="62.411364" y="46.899814" style="stroke: #ffffff; stroke-width: 0.252982"/>
     <use xlink:href="#m8daef55b7a" x="76.565909" y="36.259919" style="stroke: #ffffff; stroke-width: 0.252982"/>
     <use xlink:href="#m8daef55b7a" x="76.565909" y="36.259919" style="stroke: #ffffff; stroke-width: 0.252982"/>
     <use xlink:href="#m8daef55b7a" x="51.795455" y="63.595569" style="stroke: #ffffff; stroke-width: 0.252982"/>
     <use xlink:href="#m8daef55b7a" x="51.795455" y="63.595569" style="stroke: #ffffff; stroke-width: 0.252982"/>
     <use xlink:href="#m8daef55b7a" x="97.797727" y="28.728601" style="stroke: #ffffff; stroke-width: 0.252982"/>
    </g>
   </g>
   <g id="LineCollection_1">
    <path d="M 48.256818 59.14463 
L 48.256818 55.062721 
" clip-path="url(#p0227ac6d80)" style="fill: none; stroke: #000000"/>
    <path d="M 48.256818 59.14463 
L 48.256818 55.062721 
" clip-path="url(#p0227ac6d80)" style="fill: none; stroke: #000000"/>
    <path d="M 58.872727 42.084445 
L 58.872727 36.317367 
" clip-path="url(#p0227ac6d80)" style="fill: none; stroke: #000000"/>
    <path d="M 58.872727 42.084445 
L 58.872727 36.317367 
" clip-path="url(#p0227ac6d80)" style="fill: none; stroke: #000000"/>
    <path d="M 62.411364 56.672163 
L 62.411364 37.127464 
" clip-path="url(#p0227ac6d80)" style="fill: none; stroke: #000000"/>
    <path d="M 62.411364 56.672163 
L 62.411364 37.127464 
" clip-path="url(#p0227ac6d80)" style="fill: none; stroke: #000000"/>
    <path d="M 76.565909 38.770483 
L 76.565909 33.749354 
" clip-path="url(#p0227ac6d80)" style="fill: none; stroke: #000000"/>
    <path d="M 76.565909 38.770483 
L 76.565909 33.749354 
" clip-path="url(#p0227ac6d80)" style="fill: none; stroke: #000000"/>
    <path d="M 51.795455 71.324339 
L 51.795455 55.866798 
" clip-path="url(#p0227ac6d80)" style="fill: none; stroke: #000000"/>
    <path d="M 51.795455 71.324339 
L 51.795455 55.866798 
" clip-path="url(#p0227ac6d80)" style="fill: none; stroke: #000000"/>
    <path d="M 97.797727 31.889377 
L 97.797727 25.567826 
" clip-path="url(#p0227ac6d80)" style="fill: none; stroke: #000000"/>
   </g>
   <g id="line2d_14">
    <defs>
     <path id="md97b4429f5" d="M 2 0 
L -2 -0 
" style="stroke: #000000"/>
    </defs>
    <g clip-path="url(#p0227ac6d80)">
     <use xlink:href="#md97b4429f5" x="48.256818" y="59.14463" style="stroke: #000000"/>
     <use xlink:href="#md97b4429f5" x="48.256818" y="59.14463" style="stroke: #000000"/>
     <use xlink:href="#md97b4429f5" x="58.872727" y="42.084445" style="stroke: #000000"/>
     <use xlink:href="#md97b4429f5" x="58.872727" y="42.084445" style="stroke: #000000"/>
     <use xlink:href="#md97b4429f5" x="62.411364" y="56.672163" style="stroke: #000000"/>
     <use xlink:href="#md97b4429f5" x="62.411364" y="56.672163" style="stroke: #000000"/>
     <use xlink:href="#md97b4429f5" x="76.565909" y="38.770483" style="stroke: #000000"/>
     <use xlink:href="#md97b4429f5" x="76.565909" y="38.770483" style="stroke: #000000"/>
     <use xlink:href="#md97b4429f5" x="51.795455" y="71.324339" style="stroke: #000000"/>
     <use xlink:href="#md97b4429f5" x="51.795455" y="71.324339" style="stroke: #000000"/>
     <use xlink:href="#md97b4429f5" x="97.797727" y="31.889377" style="stroke: #000000"/>
    </g>
   </g>
   <g id="line2d_15">
    <g clip-path="url(#p0227ac6d80)">
     <use xlink:href="#md97b4429f5" x="48.256818" y="55.062721" style="stroke: #000000"/>
     <use xlink:href="#md97b4429f5" x="48.256818" y="55.062721" style="stroke: #000000"/>
     <use xlink:href="#md97b4429f5" x="58.872727" y="36.317367" style="stroke: #000000"/>
     <use xlink:href="#md97b4429f5" x="58.872727" y="36.317367" style="stroke: #000000"/>
     <use xlink:href="#md97b4429f5" x="62.411364" y="37.127464" style="stroke: #000000"/>
     <use xlink:href="#md97b4429f5" x="62.411364" y="37.127464" style="stroke: #000000"/>
     <use xlink:href="#md97b4429f5" x="76.565909" y="33.749354" style="stroke: #000000"/>
     <use xlink:href="#md97b4429f5" x="76.565909" y="33.749354" style="stroke: #000000"/>
     <use xlink:href="#md97b4429f5" x="51.795455" y="55.866798" style="stroke: #000000"/>
     <use xlink:href="#md97b4429f5" x="51.795455" y="55.866798" style="stroke: #000000"/>
     <use xlink:href="#md97b4429f5" x="97.797727" y="25.567826" style="stroke: #000000"/>
    </g>
   </g>
  </g>
  <g id="axes_2">
   <g id="patch_7">
    <path d="M 127.46 85.47875 
L 194.93 85.47875 
L 194.93 23.28 
L 127.46 23.28 
z
" style="fill: #ffffff"/>
   </g>
   <g id="matplotlib.axis_3">
    <g id="xtick_6">
     <g id="line2d_16">
      <g>
       <use xlink:href="#m0cc266214c" x="130.526818" y="85.47875" style="fill: #262626; stroke: #262626; stroke-width: 0.8"/>
      </g>
     </g>
     <g id="text_14">
      <!-- 0 -->
      <g style="fill: #262626" transform="translate(128.302443 97.205)scale(0.08 -0.08)">
       <use xlink:href="#ArialMT-30"/>
      </g>
     </g>
    </g>
    <g id="xtick_7">
     <g id="line2d_17">
      <g>
       <use xlink:href="#m0cc266214c" x="144.681364" y="85.47875" style="fill: #262626; stroke: #262626; stroke-width: 0.8"/>
      </g>
     </g>
     <g id="text_15">
      <!-- 24 -->
      <g style="fill: #262626" transform="translate(140.232614 97.205)scale(0.08 -0.08)">
       <use xlink:href="#ArialMT-32"/>
       <use xlink:href="#ArialMT-34" x="55.615234"/>
      </g>
     </g>
    </g>
    <g id="xtick_8">
     <g id="line2d_18">
      <g>
       <use xlink:href="#m0cc266214c" x="158.835909" y="85.47875" style="fill: #262626; stroke: #262626; stroke-width: 0.8"/>
      </g>
     </g>
     <g id="text_16">
      <!-- 48 -->
      <g style="fill: #262626" transform="translate(154.387159 97.205)scale(0.08 -0.08)">
       <use xlink:href="#ArialMT-34"/>
       <use xlink:href="#ArialMT-38" x="55.615234"/>
      </g>
     </g>
    </g>
    <g id="xtick_9">
     <g id="line2d_19">
      <g>
       <use xlink:href="#m0cc266214c" x="172.990455" y="85.47875" style="fill: #262626; stroke: #262626; stroke-width: 0.8"/>
      </g>
     </g>
     <g id="text_17">
      <!-- 72 -->
      <g style="fill: #262626" transform="translate(168.541705 97.205)scale(0.08 -0.08)">
       <use xlink:href="#ArialMT-37"/>
       <use xlink:href="#ArialMT-32" x="55.615234"/>
      </g>
     </g>
    </g>
    <g id="xtick_10">
     <g id="line2d_20">
      <g>
       <use xlink:href="#m0cc266214c" x="187.145" y="85.47875" style="fill: #262626; stroke: #262626; stroke-width: 0.8"/>
      </g>
     </g>
     <g id="text_18">
      <!-- 96 -->
      <g style="fill: #262626" transform="translate(182.69625 97.205)scale(0.08 -0.08)">
       <use xlink:href="#ArialMT-39"/>
       <use xlink:href="#ArialMT-36" x="55.615234"/>
      </g>
     </g>
    </g>
    <g id="text_19">
     <!-- time (h) -->
     <g style="fill: #262626" transform="translate(145.944922 109.346719)scale(0.09 -0.09)">
      <use xlink:href="#ArialMT-74"/>
      <use xlink:href="#ArialMT-69" x="27.783203"/>
      <use xlink:href="#ArialMT-6d" x="50"/>
      <use xlink:href="#ArialMT-65" x="133.300781"/>
      <use xlink:href="#ArialMT-20" x="188.916016"/>
      <use xlink:href="#ArialMT-28" x="216.699219"/>
      <use xlink:href="#ArialMT-68" x="250"/>
      <use xlink:href="#ArialMT-29" x="305.615234"/>
     </g>
    </g>
   </g>
   <g id="matplotlib.axis_4">
    <g id="ytick_6">
     <g id="line2d_21">
      <g>
       <use xlink:href="#m0d62d18791" x="127.46" y="85.47875" style="fill: #262626; stroke: #262626; stroke-width: 0.8"/>
      </g>
     </g>
    </g>
    <g id="ytick_7">
     <g id="line2d_22">
      <g>
       <use xlink:href="#m0d62d18791" x="127.46" y="70.865621" style="fill: #262626; stroke: #262626; stroke-width: 0.8"/>
      </g>
     </g>
    </g>
    <g id="ytick_8">
     <g id="line2d_23">
      <g>
       <use xlink:href="#m0d62d18791" x="127.46" y="56.252491" style="fill: #262626; stroke: #262626; stroke-width: 0.8"/>
      </g>
     </g>
    </g>
    <g id="ytick_9">
     <g id="line2d_24">
      <g>
       <use xlink:href="#m0d62d18791" x="127.46" y="41.639362" style="fill: #262626; stroke: #262626; stroke-width: 0.8"/>
      </g>
     </g>
    </g>
    <g id="ytick_10">
     <g id="line2d_25">
      <g>
       <use xlink:href="#m0d62d18791" x="127.46" y="27.026232" style="fill: #262626; stroke: #262626; stroke-width: 0.8"/>
      </g>
     </g>
    </g>
   </g>
   <g id="line2d_26">
    <path d="M 130.526818 56.252491 
L 131.146377 56.252491 
L 131.765937 56.25249 
L 132.385496 56.252483 
L 133.005055 56.252453 
L 133.624614 56.25233 
L 134.244174 56.251876 
L 134.863733 56.250349 
L 135.483292 56.24568 
L 136.102851 56.232716 
L 136.72241 56.200008 
L 137.34197 56.125045 
L 137.961529 55.968956 
L 138.581088 55.673684 
L 139.200647 55.166227 
L 139.820207 54.373902 
L 140.439766 53.249973 
L 141.059325 51.80152 
L 141.678884 50.105613 
L 142.298444 48.301631 
L 142.918003 46.558241 
L 143.537562 45.027542 
L 144.157121 43.806538 
L 144.77668 42.921677 
L 145.39624 42.339085 
L 146.015799 41.990603 
L 146.635358 41.801226 
L 147.254917 41.707729 
L 147.874477 41.665793 
L 148.494036 41.648703 
L 149.113595 41.642371 
L 149.733154 41.640215 
L 150.352713 41.63945 
L 150.972273 41.638843 
L 151.591832 41.637353 
L 152.211391 41.632907 
L 152.83095 41.620533 
L 153.45051 41.589175 
L 154.070069 41.516975 
L 154.689628 41.365947 
L 155.309187 41.078931 
L 155.928747 40.58339 
L 156.548306 39.806103 
L 157.167865 38.698427 
L 157.787424 37.264339 
L 158.406983 35.577514 
L 159.026543 33.774924 
L 159.646102 32.02485 
L 160.265661 30.481203 
L 160.88522 29.244196 
L 161.50478 28.343605 
L 162.124339 27.747925 
L 162.743898 27.389971 
L 163.363457 27.194551 
L 163.983017 27.097626 
L 164.602576 27.053952 
L 165.222135 27.036073 
L 165.841694 27.029424 
L 166.461253 27.027177 
L 167.080813 27.026487 
L 167.700372 27.026295 
L 168.319931 27.026247 
L 168.93949 27.026235 
L 169.55905 27.026233 
L 170.178609 27.026233 
L 170.798168 27.026232 
L 171.417727 27.026232 
L 172.037287 27.026232 
L 172.656846 27.026232 
L 173.276405 27.026232 
L 173.895964 27.026232 
L 174.515523 27.026232 
L 175.135083 27.026232 
L 175.754642 27.026232 
L 176.374201 27.026232 
L 176.99376 27.026232 
L 177.61332 27.026232 
L 178.232879 27.026232 
L 178.852438 27.026232 
L 179.471997 27.026232 
L 180.091556 27.026232 
L 180.711116 27.026232 
L 181.330675 27.026232 
L 181.950234 27.026232 
L 182.569793 27.026232 
L 183.189353 27.026232 
L 183.808912 27.026232 
L 184.428471 27.026232 
L 185.04803 27.026232 
L 185.66759 27.026232 
L 186.287149 27.026232 
L 186.906708 27.026232 
L 187.526267 27.026232 
L 188.145826 27.026232 
L 188.765386 27.026232 
L 189.384945 27.026232 
L 190.004504 27.026232 
L 190.624063 27.026232 
L 191.243623 27.026232 
L 191.863182 27.026232 
" clip-path="url(#pd9389774f7)" style="fill: none; stroke: #800080; stroke-width: 2; stroke-linecap: round"/>
   </g>
   <g id="patch_8">
    <path d="M 127.46 85.47875 
L 127.46 23.28 
" style="fill: none; stroke: #262626; stroke-linejoin: miter; stroke-linecap: square"/>
   </g>
   <g id="patch_9">
    <path d="M 194.93 85.47875 
L 194.93 23.28 
" style="fill: none; stroke: #262626; stroke-linejoin: miter; stroke-linecap: square"/>
   </g>
   <g id="patch_10">
    <path d="M 127.46 85.47875 
L 194.93 85.47875 
" style="fill: none; stroke: #262626; stroke-linejoin: miter; stroke-linecap: square"/>
   </g>
   <g id="patch_11">
    <path d="M 127.46 23.28 
L 194.93 23.28 
" style="fill: none; stroke: #262626; stroke-linejoin: miter; stroke-linecap: square"/>
   </g>
   <g id="line2d_27">
    <path d="M 130.526818 56.252491 
L 131.146377 56.251644 
L 131.765937 56.243847 
L 132.385496 56.219917 
L 133.005055 56.170808 
L 133.624614 56.088612 
L 134.244174 55.966928 
L 134.863733 55.800963 
L 135.483292 55.587483 
L 136.102851 55.324693 
L 136.72241 55.012077 
L 137.34197 54.650228 
L 137.961529 54.240662 
L 138.581088 53.785657 
L 139.200647 53.288088 
L 139.820207 52.751287 
L 140.439766 52.178912 
L 141.059325 51.574838 
L 141.678884 50.943053 
L 142.298444 50.287585 
L 142.918003 49.612424 
L 143.537562 48.921471 
L 144.157121 48.218491 
L 144.77668 47.507076 
L 145.39624 46.790621 
L 146.015799 46.072301 
L 146.635358 45.355061 
L 147.254917 44.641608 
L 147.874477 43.934407 
L 148.494036 43.235682 
L 149.113595 42.547423 
L 149.733154 41.871388 
L 150.352713 41.209117 
L 150.972273 40.561937 
L 151.591832 39.930977 
L 152.211391 39.31718 
L 152.83095 38.721313 
L 153.45051 38.143981 
L 154.070069 37.585641 
L 154.689628 37.046612 
L 155.309187 36.527092 
L 155.928747 36.027163 
L 156.548306 35.546808 
L 157.167865 35.085921 
L 157.787424 34.644314 
L 158.406983 34.221732 
L 159.026543 33.817857 
L 159.646102 33.432321 
L 160.265661 33.064709 
L 160.88522 32.71457 
L 161.50478 32.381423 
L 162.124339 32.064761 
L 162.743898 31.76406 
L 163.363457 31.478779 
L 163.983017 31.20837 
L 164.602576 30.952277 
L 165.222135 30.709945 
L 165.841694 30.480815 
L 166.461253 30.264338 
L 167.080813 30.059965 
L 167.700372 29.867159 
L 168.319931 29.685391 
L 168.93949 29.514146 
L 169.55905 29.352918 
L 170.178609 29.201218 
L 170.798168 29.058569 
L 171.417727 28.924511 
L 172.037287 28.798599 
L 172.656846 28.680403 
L 173.276405 28.569511 
L 173.895964 28.465526 
L 174.515523 28.368067 
L 175.135083 28.27677 
L 175.754642 28.191287 
L 176.374201 28.111284 
L 176.99376 28.036445 
L 177.61332 27.966468 
L 178.232879 27.901064 
L 178.852438 27.839961 
L 179.471997 27.782899 
L 180.091556 27.729632 
L 180.711116 27.679927 
L 181.330675 27.633564 
L 181.950234 27.590334 
L 182.569793 27.55004 
L 183.189353 27.512495 
L 183.808912 27.477524 
L 184.428471 27.444962 
L 185.04803 27.414653 
L 185.66759 27.386449 
L 186.287149 27.360214 
L 186.906708 27.335816 
L 187.526267 27.313135 
L 188.145826 27.292055 
L 188.765386 27.272469 
L 189.384945 27.254276 
L 190.004504 27.237383 
L 190.624063 27.2217 
L 191.243623 27.207144 
L 191.863182 27.193638 
" clip-path="url(#pd9389774f7)" style="fill: none; stroke: #1f77b4; stroke-width: 2; stroke-linecap: round"/>
   </g>
   <g id="text_20">
    <!-- Ehd4 -->
    <g style="fill: #262626" transform="translate(150.686094 17.28)scale(0.09 -0.09)">
     <defs>
      <path id="Arial-ItalicMT-45" d="M 288 0 
L 1247 4581 
L 4553 4581 
L 4444 4059 
L 1750 4059 
L 1450 2634 
L 4075 2634 
L 3966 2113 
L 1341 2113 
L 1009 519 
L 3894 519 
L 3784 0 
L 288 0 
z
" transform="scale(0.015625)"/>
      <path id="Arial-ItalicMT-68" d="M 213 0 
L 1169 4581 
L 1734 4581 
L 1369 2822 
Q 1684 3128 1956 3261 
Q 2228 3394 2516 3394 
Q 2928 3394 3156 3176 
Q 3384 2959 3384 2603 
Q 3384 2428 3284 1959 
L 2875 0 
L 2309 0 
L 2731 2009 
Q 2822 2447 2822 2559 
Q 2822 2722 2709 2825 
Q 2597 2928 2384 2928 
Q 2078 2928 1800 2767 
Q 1522 2606 1364 2326 
Q 1206 2047 1075 1425 
L 778 0 
L 213 0 
z
" transform="scale(0.015625)"/>
      <path id="Arial-ItalicMT-64" d="M 2450 481 
Q 1966 -75 1438 -75 
Q 966 -75 652 273 
Q 338 622 338 1284 
Q 338 1891 586 2392 
Q 834 2894 1207 3144 
Q 1581 3394 1956 3394 
Q 2575 3394 2891 2797 
L 3266 4581 
L 3828 4581 
L 2872 0 
L 2350 0 
L 2450 481 
z
M 900 1391 
Q 900 1044 969 844 
Q 1038 644 1203 511 
Q 1369 378 1600 378 
Q 1984 378 2297 778 
Q 2716 1309 2716 2091 
Q 2716 2484 2509 2706 
Q 2303 2928 1991 2928 
Q 1788 2928 1620 2837 
Q 1453 2747 1289 2530 
Q 1125 2313 1012 1978 
Q 900 1644 900 1391 
z
" transform="scale(0.015625)"/>
      <path id="Arial-ItalicMT-34" d="M 1913 0 
L 2159 1169 
L 291 1169 
L 409 1728 
L 2975 4581 
L 3438 4581 
L 2828 1669 
L 3472 1669 
L 3369 1169 
L 2725 1169 
L 2478 0 
L 1913 0 
z
M 2263 1669 
L 2663 3581 
L 956 1669 
L 2263 1669 
z
" transform="scale(0.015625)"/>
     </defs>
     <use xlink:href="#Arial-ItalicMT-45"/>
     <use xlink:href="#Arial-ItalicMT-68" x="66.699219"/>
     <use xlink:href="#Arial-ItalicMT-64" x="122.314453"/>
     <use xlink:href="#Arial-ItalicMT-34" x="177.929688"/>
    </g>
   </g>
   <g id="line2d_28">
    <path d="M 130.526818 56.252491 
L 131.146377 55.385196 
L 131.765937 54.543638 
L 132.385496 53.727053 
L 133.005055 52.934701 
L 133.624614 52.165862 
L 134.244174 51.419838 
L 134.863733 50.695953 
L 135.483292 49.993549 
L 136.102851 49.311989 
L 136.72241 48.650655 
L 137.34197 48.008946 
L 137.961529 47.386279 
L 138.581088 46.782091 
L 139.200647 46.195832 
L 139.820207 45.62697 
L 140.439766 45.074989 
L 141.059325 44.539388 
L 141.678884 44.019682 
L 142.298444 43.515398 
L 142.918003 43.026078 
L 143.537562 42.55128 
L 144.157121 42.090571 
L 144.77668 41.643533 
L 145.39624 41.209762 
L 146.015799 40.788863 
L 146.635358 40.380454 
L 147.254917 39.984165 
L 147.874477 39.599635 
L 148.494036 39.226517 
L 149.113595 38.864471 
L 149.733154 38.513169 
L 150.352713 38.172292 
L 150.972273 37.84153 
L 151.591832 37.520584 
L 152.211391 37.209162 
L 152.83095 36.906981 
L 153.45051 36.613768 
L 154.070069 36.329256 
L 154.689628 36.053187 
L 155.309187 35.78531 
L 155.928747 35.525383 
L 156.548306 35.273169 
L 157.167865 35.028439 
L 157.787424 34.790972 
L 158.406983 34.560552 
L 159.026543 34.336969 
L 159.646102 34.120022 
L 160.265661 33.909512 
L 160.88522 33.705249 
L 161.50478 33.507048 
L 162.124339 33.314729 
L 162.743898 33.128116 
L 163.363457 32.947042 
L 163.983017 32.77134 
L 164.602576 32.600853 
L 165.222135 32.435425 
L 165.841694 32.274906 
L 166.461253 32.119151 
L 167.080813 31.968017 
L 167.700372 31.821369 
L 168.319931 31.679072 
L 168.93949 31.540998 
L 169.55905 31.407022 
L 170.178609 31.277021 
L 170.798168 31.150878 
L 171.417727 31.028478 
L 172.037287 30.909711 
L 172.656846 30.794468 
L 173.276405 30.682644 
L 173.895964 30.57414 
L 174.515523 30.468855 
L 175.135083 30.366694 
L 175.754642 30.267565 
L 176.374201 30.171378 
L 176.99376 30.078045 
L 177.61332 29.987482 
L 178.232879 29.899606 
L 178.852438 29.814338 
L 179.471997 29.731601 
L 180.091556 29.651318 
L 180.711116 29.573418 
L 181.330675 29.49783 
L 181.950234 29.424485 
L 182.569793 29.353316 
L 183.189353 29.28426 
L 183.808912 29.217252 
L 184.428471 29.152233 
L 185.04803 29.089144 
L 185.66759 29.027926 
L 186.287149 28.968526 
L 186.906708 28.910888 
L 187.526267 28.85496 
L 188.145826 28.800692 
L 188.765386 28.748035 
L 189.384945 28.69694 
L 190.004504 28.647362 
L 190.624063 28.599254 
L 191.243623 28.552574 
L 191.863182 28.50728 
" clip-path="url(#pd9389774f7)" style="fill: none; stroke: #2ca02c; stroke-width: 2; stroke-linecap: round"/>
   </g>
   <g id="PathCollection_2">
    <g clip-path="url(#pd9389774f7)">
     <use xlink:href="#m8daef55b7a" x="130.526818" y="56.252491" style="stroke: #ffffff; stroke-width: 0.252982"/>
     <use xlink:href="#m8daef55b7a" x="130.526818" y="56.252491" style="stroke: #ffffff; stroke-width: 0.252982"/>
     <use xlink:href="#m8daef55b7a" x="141.142727" y="51.532523" style="stroke: #ffffff; stroke-width: 0.252982"/>
     <use xlink:href="#m8daef55b7a" x="141.142727" y="51.532523" style="stroke: #ffffff; stroke-width: 0.252982"/>
     <use xlink:href="#m8daef55b7a" x="144.681364" y="43.067456" style="stroke: #ffffff; stroke-width: 0.252982"/>
     <use xlink:href="#m8daef55b7a" x="144.681364" y="43.067456" style="stroke: #ffffff; stroke-width: 0.252982"/>
     <use xlink:href="#m8daef55b7a" x="158.835909" y="34.331933" style="stroke: #ffffff; stroke-width: 0.252982"/>
     <use xlink:href="#m8daef55b7a" x="158.835909" y="34.331933" style="stroke: #ffffff; stroke-width: 0.252982"/>
     <use xlink:href="#m8daef55b7a" x="134.065455" y="69.894112" style="stroke: #ffffff; stroke-width: 0.252982"/>
     <use xlink:href="#m8daef55b7a" x="134.065455" y="69.894112" style="stroke: #ffffff; stroke-width: 0.252982"/>
     <use xlink:href="#m8daef55b7a" x="180.067727" y="27.026232" style="stroke: #ffffff; stroke-width: 0.252982"/>
    </g>
   </g>
   <g id="LineCollection_2">
    <path d="M 130.526818 57.120654 
L 130.526818 55.384329 
" clip-path="url(#pd9389774f7)" style="fill: none; stroke: #000000"/>
    <path d="M 130.526818 57.120654 
L 130.526818 55.384329 
" clip-path="url(#pd9389774f7)" style="fill: none; stroke: #000000"/>
    <path d="M 141.142727 57.882646 
L 141.142727 45.182399 
" clip-path="url(#pd9389774f7)" style="fill: none; stroke: #000000"/>
    <path d="M 141.142727 57.882646 
L 141.142727 45.182399 
" clip-path="url(#pd9389774f7)" style="fill: none; stroke: #000000"/>
    <path d="M 144.681364 47.167913 
L 144.681364 38.967 
" clip-path="url(#pd9389774f7)" style="fill: none; stroke: #000000"/>
    <path d="M 144.681364 47.167913 
L 144.681364 38.967 
" clip-path="url(#pd9389774f7)" style="fill: none; stroke: #000000"/>
    <path d="M 158.835909 35.527229 
L 158.835909 33.136637 
" clip-path="url(#pd9389774f7)" style="fill: none; stroke: #000000"/>
    <path d="M 158.835909 35.527229 
L 158.835909 33.136637 
" clip-path="url(#pd9389774f7)" style="fill: none; stroke: #000000"/>
    <path d="M 134.065455 73.214419 
L 134.065455 66.573806 
" clip-path="url(#pd9389774f7)" style="fill: none; stroke: #000000"/>
    <path d="M 134.065455 73.214419 
L 134.065455 66.573806 
" clip-path="url(#pd9389774f7)" style="fill: none; stroke: #000000"/>
    <path d="M 180.067727 28.394635 
L 180.067727 25.657829 
" clip-path="url(#pd9389774f7)" style="fill: none; stroke: #000000"/>
   </g>
   <g id="line2d_29">
    <g clip-path="url(#pd9389774f7)">
     <use xlink:href="#md97b4429f5" x="130.526818" y="57.120654" style="stroke: #000000"/>
     <use xlink:href="#md97b4429f5" x="130.526818" y="57.120654" style="stroke: #000000"/>
     <use xlink:href="#md97b4429f5" x="141.142727" y="57.882646" style="stroke: #000000"/>
     <use xlink:href="#md97b4429f5" x="141.142727" y="57.882646" style="stroke: #000000"/>
     <use xlink:href="#md97b4429f5" x="144.681364" y="47.167913" style="stroke: #000000"/>
     <use xlink:href="#md97b4429f5" x="144.681364" y="47.167913" style="stroke: #000000"/>
     <use xlink:href="#md97b4429f5" x="158.835909" y="35.527229" style="stroke: #000000"/>
     <use xlink:href="#md97b4429f5" x="158.835909" y="35.527229" style="stroke: #000000"/>
     <use xlink:href="#md97b4429f5" x="134.065455" y="73.214419" style="stroke: #000000"/>
     <use xlink:href="#md97b4429f5" x="134.065455" y="73.214419" style="stroke: #000000"/>
     <use xlink:href="#md97b4429f5" x="180.067727" y="28.394635" style="stroke: #000000"/>
    </g>
   </g>
   <g id="line2d_30">
    <g clip-path="url(#pd9389774f7)">
     <use xlink:href="#md97b4429f5" x="130.526818" y="55.384329" style="stroke: #000000"/>
     <use xlink:href="#md97b4429f5" x="130.526818" y="55.384329" style="stroke: #000000"/>
     <use xlink:href="#md97b4429f5" x="141.142727" y="45.182399" style="stroke: #000000"/>
     <use xlink:href="#md97b4429f5" x="141.142727" y="45.182399" style="stroke: #000000"/>
     <use xlink:href="#md97b4429f5" x="144.681364" y="38.967" style="stroke: #000000"/>
     <use xlink:href="#md97b4429f5" x="144.681364" y="38.967" style="stroke: #000000"/>
     <use xlink:href="#md97b4429f5" x="158.835909" y="33.136637" style="stroke: #000000"/>
     <use xlink:href="#md97b4429f5" x="158.835909" y="33.136637" style="stroke: #000000"/>
     <use xlink:href="#md97b4429f5" x="134.065455" y="66.573806" style="stroke: #000000"/>
     <use xlink:href="#md97b4429f5" x="134.065455" y="66.573806" style="stroke: #000000"/>
     <use xlink:href="#md97b4429f5" x="180.067727" y="25.657829" style="stroke: #000000"/>
    </g>
   </g>
  </g>
  <g id="axes_3">
   <g id="patch_12">
    <path d="M 209.73 85.47875 
L 277.2 85.47875 
L 277.2 23.28 
L 209.73 23.28 
z
" style="fill: #ffffff"/>
   </g>
   <g id="matplotlib.axis_5">
    <g id="xtick_11">
     <g id="line2d_31">
      <g>
       <use xlink:href="#m0cc266214c" x="212.796818" y="85.47875" style="fill: #262626; stroke: #262626; stroke-width: 0.8"/>
      </g>
     </g>
     <g id="text_21">
      <!-- 0 -->
      <g style="fill: #262626" transform="translate(210.572443 97.205)scale(0.08 -0.08)">
       <use xlink:href="#ArialMT-30"/>
      </g>
     </g>
    </g>
    <g id="xtick_12">
     <g id="line2d_32">
      <g>
       <use xlink:href="#m0cc266214c" x="226.951364" y="85.47875" style="fill: #262626; stroke: #262626; stroke-width: 0.8"/>
      </g>
     </g>
     <g id="text_22">
      <!-- 24 -->
      <g style="fill: #262626" transform="translate(222.502614 97.205)scale(0.08 -0.08)">
       <use xlink:href="#ArialMT-32"/>
       <use xlink:href="#ArialMT-34" x="55.615234"/>
      </g>
     </g>
    </g>
    <g id="xtick_13">
     <g id="line2d_33">
      <g>
       <use xlink:href="#m0cc266214c" x="241.105909" y="85.47875" style="fill: #262626; stroke: #262626; stroke-width: 0.8"/>
      </g>
     </g>
     <g id="text_23">
      <!-- 48 -->
      <g style="fill: #262626" transform="translate(236.657159 97.205)scale(0.08 -0.08)">
       <use xlink:href="#ArialMT-34"/>
       <use xlink:href="#ArialMT-38" x="55.615234"/>
      </g>
     </g>
    </g>
    <g id="xtick_14">
     <g id="line2d_34">
      <g>
       <use xlink:href="#m0cc266214c" x="255.260455" y="85.47875" style="fill: #262626; stroke: #262626; stroke-width: 0.8"/>
      </g>
     </g>
     <g id="text_24">
      <!-- 72 -->
      <g style="fill: #262626" transform="translate(250.811705 97.205)scale(0.08 -0.08)">
       <use xlink:href="#ArialMT-37"/>
       <use xlink:href="#ArialMT-32" x="55.615234"/>
      </g>
     </g>
    </g>
    <g id="xtick_15">
     <g id="line2d_35">
      <g>
       <use xlink:href="#m0cc266214c" x="269.415" y="85.47875" style="fill: #262626; stroke: #262626; stroke-width: 0.8"/>
      </g>
     </g>
     <g id="text_25">
      <!-- 96 -->
      <g style="fill: #262626" transform="translate(264.96625 97.205)scale(0.08 -0.08)">
       <use xlink:href="#ArialMT-39"/>
       <use xlink:href="#ArialMT-36" x="55.615234"/>
      </g>
     </g>
    </g>
    <g id="text_26">
     <!-- time (h) -->
     <g style="fill: #262626" transform="translate(228.214922 109.346719)scale(0.09 -0.09)">
      <use xlink:href="#ArialMT-74"/>
      <use xlink:href="#ArialMT-69" x="27.783203"/>
      <use xlink:href="#ArialMT-6d" x="50"/>
      <use xlink:href="#ArialMT-65" x="133.300781"/>
      <use xlink:href="#ArialMT-20" x="188.916016"/>
      <use xlink:href="#ArialMT-28" x="216.699219"/>
      <use xlink:href="#ArialMT-68" x="250"/>
      <use xlink:href="#ArialMT-29" x="305.615234"/>
     </g>
    </g>
   </g>
   <g id="matplotlib.axis_6">
    <g id="ytick_11">
     <g id="line2d_36">
      <g>
       <use xlink:href="#m0d62d18791" x="209.73" y="85.47875" style="fill: #262626; stroke: #262626; stroke-width: 0.8"/>
      </g>
     </g>
    </g>
    <g id="ytick_12">
     <g id="line2d_37">
      <g>
       <use xlink:href="#m0d62d18791" x="209.73" y="72.222333" style="fill: #262626; stroke: #262626; stroke-width: 0.8"/>
      </g>
     </g>
    </g>
    <g id="ytick_13">
     <g id="line2d_38">
      <g>
       <use xlink:href="#m0d62d18791" x="209.73" y="58.965915" style="fill: #262626; stroke: #262626; stroke-width: 0.8"/>
      </g>
     </g>
    </g>
    <g id="ytick_14">
     <g id="line2d_39">
      <g>
       <use xlink:href="#m0d62d18791" x="209.73" y="45.709498" style="fill: #262626; stroke: #262626; stroke-width: 0.8"/>
      </g>
     </g>
    </g>
    <g id="ytick_15">
     <g id="line2d_40">
      <g>
       <use xlink:href="#m0d62d18791" x="209.73" y="32.45308" style="fill: #262626; stroke: #262626; stroke-width: 0.8"/>
      </g>
     </g>
    </g>
   </g>
   <g id="line2d_41">
    <path d="M 212.796818 58.965915 
L 213.416377 58.965915 
L 214.035937 58.965915 
L 214.655496 58.965915 
L 215.275055 58.965915 
L 215.894614 58.965915 
L 216.514174 58.965915 
L 217.133733 58.965915 
L 217.753292 58.965915 
L 218.372851 58.965915 
L 218.99241 58.965915 
L 219.61197 58.965915 
L 220.231529 58.96589 
L 220.851088 58.963019 
L 221.470647 58.860548 
L 222.090207 57.696013 
L 222.709766 53.390997 
L 223.329325 48.13227 
L 223.948884 46.003803 
L 224.568444 45.721662 
L 225.188003 45.709659 
L 225.807562 45.709498 
L 226.427121 45.709498 
L 227.04668 45.709498 
L 227.66624 45.709498 
L 228.285799 45.709498 
L 228.905358 45.709498 
L 229.524917 45.709498 
L 230.144477 45.709498 
L 230.764036 45.709498 
L 231.383595 45.709498 
L 232.003154 45.709498 
L 232.622713 45.709498 
L 233.242273 45.709498 
L 233.861832 45.709498 
L 234.481391 45.709498 
L 235.10095 45.709498 
L 235.72051 45.709498 
L 236.340069 45.709498 
L 236.959628 45.709498 
L 237.579187 45.709498 
L 238.198747 45.709498 
L 238.818306 45.709498 
L 239.437865 45.709498 
L 240.057424 45.709498 
L 240.676983 45.709498 
L 241.296543 45.709498 
L 241.916102 45.709498 
L 242.535661 45.709498 
L 243.15522 45.709498 
L 243.77478 45.709498 
L 244.394339 45.709498 
L 245.013898 45.709498 
L 245.633457 45.709498 
L 246.253017 45.709498 
L 246.872576 45.709498 
L 247.492135 45.709498 
L 248.111694 45.709498 
L 248.731253 45.709498 
L 249.350813 45.709498 
L 249.970372 45.709498 
L 250.589931 45.709498 
L 251.20949 45.709498 
L 251.82905 45.709498 
L 252.448609 45.709498 
L 253.068168 45.709498 
L 253.687727 45.709498 
L 254.307287 45.709498 
L 254.926846 45.709498 
L 255.546405 45.709475 
L 256.165964 45.706831 
L 256.785523 45.610298 
L 257.405083 44.488301 
L 258.024642 40.247926 
L 258.644201 34.953585 
L 259.26376 32.763095 
L 259.88332 32.466181 
L 260.502879 32.453258 
L 261.122438 32.453081 
L 261.741997 32.45308 
L 262.361556 32.45308 
L 262.981116 32.45308 
L 263.600675 32.45308 
L 264.220234 32.45308 
L 264.839793 32.45308 
L 265.459353 32.45308 
L 266.078912 32.45308 
L 266.698471 32.45308 
L 267.31803 32.45308 
L 267.93759 32.45308 
L 268.557149 32.45308 
L 269.176708 32.45308 
L 269.796267 32.45308 
L 270.415826 32.45308 
L 271.035386 32.45308 
L 271.654945 32.45308 
L 272.274504 32.45308 
L 272.894063 32.45308 
L 273.513623 32.45308 
L 274.133182 32.45308 
" clip-path="url(#p2a0f696332)" style="fill: none; stroke: #800080; stroke-width: 2; stroke-linecap: round"/>
   </g>
   <g id="patch_13">
    <path d="M 209.73 85.47875 
L 209.73 23.28 
" style="fill: none; stroke: #262626; stroke-linejoin: miter; stroke-linecap: square"/>
   </g>
   <g id="patch_14">
    <path d="M 277.2 85.47875 
L 277.2 23.28 
" style="fill: none; stroke: #262626; stroke-linejoin: miter; stroke-linecap: square"/>
   </g>
   <g id="patch_15">
    <path d="M 209.73 85.47875 
L 277.2 85.47875 
" style="fill: none; stroke: #262626; stroke-linejoin: miter; stroke-linecap: square"/>
   </g>
   <g id="patch_16">
    <path d="M 209.73 23.28 
L 277.2 23.28 
" style="fill: none; stroke: #262626; stroke-linejoin: miter; stroke-linecap: square"/>
   </g>
   <g id="line2d_42">
    <path d="M 212.796818 58.965915 
L 213.416377 58.889487 
L 214.035937 58.743123 
L 214.655496 58.552469 
L 215.275055 58.328157 
L 215.894614 58.076889 
L 216.514174 57.803488 
L 217.133733 57.511676 
L 217.753292 57.204452 
L 218.372851 56.8843 
L 218.99241 56.553321 
L 219.61197 56.213321 
L 220.231529 55.865863 
L 220.851088 55.51232 
L 221.470647 55.153901 
L 222.090207 54.791677 
L 222.709766 54.426603 
L 223.329325 54.059529 
L 223.948884 53.69122 
L 224.568444 53.32236 
L 225.188003 52.953563 
L 225.807562 52.585383 
L 226.427121 52.218319 
L 227.04668 51.852818 
L 227.66624 51.489284 
L 228.285799 51.12808 
L 228.905358 50.769532 
L 229.524917 50.413932 
L 230.144477 50.061544 
L 230.764036 49.7126 
L 231.383595 49.367311 
L 232.003154 49.025861 
L 232.622713 48.688416 
L 233.242273 48.355119 
L 233.861832 48.026098 
L 234.481391 47.701462 
L 235.10095 47.381307 
L 235.72051 47.065714 
L 236.340069 46.75475 
L 236.959628 46.448473 
L 237.579187 46.146927 
L 238.198747 45.850149 
L 238.818306 45.558163 
L 239.437865 45.270988 
L 240.057424 44.988634 
L 240.676983 44.711104 
L 241.296543 44.438393 
L 241.916102 44.170492 
L 242.535661 43.907385 
L 243.15522 43.649052 
L 243.77478 43.395468 
L 244.394339 43.146602 
L 245.013898 42.902423 
L 245.633457 42.662893 
L 246.253017 42.427973 
L 246.872576 42.197619 
L 247.492135 41.971786 
L 248.111694 41.750427 
L 248.731253 41.533491 
L 249.350813 41.320927 
L 249.970372 41.112682 
L 250.589931 40.908699 
L 251.20949 40.708925 
L 251.82905 40.5133 
L 252.448609 40.321767 
L 253.068168 40.134267 
L 253.687727 39.95074 
L 254.307287 39.771125 
L 254.926846 39.595362 
L 255.546405 39.42339 
L 256.165964 39.255148 
L 256.785523 39.090574 
L 257.405083 38.929606 
L 258.024642 38.772183 
L 258.644201 38.618244 
L 259.26376 38.467728 
L 259.88332 38.320573 
L 260.502879 38.176718 
L 261.122438 38.036105 
L 261.741997 37.898671 
L 262.361556 37.764359 
L 262.981116 37.633109 
L 263.600675 37.504862 
L 264.220234 37.37956 
L 264.839793 37.257147 
L 265.459353 37.137565 
L 266.078912 37.020758 
L 266.698471 36.906671 
L 267.31803 36.795249 
L 267.93759 36.686437 
L 268.557149 36.580182 
L 269.176708 36.476432 
L 269.796267 36.375135 
L 270.415826 36.276238 
L 271.035386 36.179693 
L 271.654945 36.085448 
L 272.274504 35.993456 
L 272.894063 35.903668 
L 273.513623 35.816036 
L 274.133182 35.730513 
" clip-path="url(#p2a0f696332)" style="fill: none; stroke: #1f77b4; stroke-width: 2; stroke-linecap: round"/>
   </g>
   <g id="text_27">
    <!-- Focad -->
    <g style="fill: #262626" transform="translate(230.959219 17.28)scale(0.09 -0.09)">
     <defs>
      <path id="Arial-ItalicMT-46" d="M 291 0 
L 1247 4581 
L 4225 4581 
L 4116 4059 
L 1750 4059 
L 1447 2600 
L 3856 2600 
L 3747 2078 
L 1338 2078 
L 903 0 
L 291 0 
z
" transform="scale(0.015625)"/>
      <path id="Arial-ItalicMT-6f" d="M 313 1259 
Q 313 2231 884 2869 
Q 1356 3394 2122 3394 
Q 2722 3394 3089 3019 
Q 3456 2644 3456 2006 
Q 3456 1434 3225 942 
Q 2994 450 2567 187 
Q 2141 -75 1669 -75 
Q 1281 -75 964 90 
Q 647 256 480 559 
Q 313 863 313 1259 
z
M 878 1316 
Q 878 847 1103 605 
Q 1328 363 1675 363 
Q 1856 363 2034 436 
Q 2213 509 2366 659 
Q 2519 809 2626 1001 
Q 2734 1194 2800 1416 
Q 2897 1725 2897 2009 
Q 2897 2459 2670 2707 
Q 2444 2956 2100 2956 
Q 1834 2956 1615 2829 
Q 1397 2703 1220 2459 
Q 1044 2216 961 1892 
Q 878 1569 878 1316 
z
" transform="scale(0.015625)"/>
      <path id="Arial-ItalicMT-63" d="M 2503 1209 
L 3069 1150 
Q 2856 528 2464 226 
Q 2072 -75 1572 -75 
Q 1031 -75 695 275 
Q 359 625 359 1253 
Q 359 1797 575 2322 
Q 791 2847 1192 3120 
Q 1594 3394 2109 3394 
Q 2644 3394 2956 3092 
Q 3269 2791 3269 2294 
L 2713 2256 
Q 2709 2572 2529 2750 
Q 2350 2928 2056 2928 
Q 1716 2928 1466 2712 
Q 1216 2497 1073 2058 
Q 931 1619 931 1213 
Q 931 788 1118 575 
Q 1306 363 1581 363 
Q 1856 363 2107 572 
Q 2359 781 2503 1209 
z
" transform="scale(0.015625)"/>
     </defs>
     <use xlink:href="#Arial-ItalicMT-46"/>
     <use xlink:href="#Arial-ItalicMT-6f" x="61.083984"/>
     <use xlink:href="#Arial-ItalicMT-63" x="116.699219"/>
     <use xlink:href="#Arial-ItalicMT-61" x="166.699219"/>
     <use xlink:href="#Arial-ItalicMT-64" x="222.314453"/>
    </g>
   </g>
   <g id="line2d_43">
    <path d="M 212.796818 58.965915 
L 213.416377 58.518152 
L 214.035937 58.077951 
L 214.655496 57.645184 
L 215.275055 57.219726 
L 215.894614 56.801453 
L 216.514174 56.390244 
L 217.133733 55.98598 
L 217.753292 55.588544 
L 218.372851 55.197819 
L 218.99241 54.813694 
L 219.61197 54.436055 
L 220.231529 54.064795 
L 220.851088 53.699804 
L 221.470647 53.340978 
L 222.090207 52.988212 
L 222.709766 52.641403 
L 223.329325 52.300452 
L 223.948884 51.965258 
L 224.568444 51.635726 
L 225.188003 51.311759 
L 225.807562 50.993263 
L 226.427121 50.680146 
L 227.04668 50.372318 
L 227.66624 50.069688 
L 228.285799 49.772169 
L 228.905358 49.479675 
L 229.524917 49.19212 
L 230.144477 48.909422 
L 230.764036 48.631498 
L 231.383595 48.358268 
L 232.003154 48.089653 
L 232.622713 47.825574 
L 233.242273 47.565955 
L 233.861832 47.31072 
L 234.481391 47.059796 
L 235.10095 46.81311 
L 235.72051 46.57059 
L 236.340069 46.332166 
L 236.959628 46.097768 
L 237.579187 45.867329 
L 238.198747 45.640782 
L 238.818306 45.418061 
L 239.437865 45.199101 
L 240.057424 44.983839 
L 240.676983 44.772213 
L 241.296543 44.564161 
L 241.916102 44.359622 
L 242.535661 44.158538 
L 243.15522 43.96085 
L 243.77478 43.7665 
L 244.394339 43.575433 
L 245.013898 43.387592 
L 245.633457 43.202924 
L 246.253017 43.021375 
L 246.872576 42.842892 
L 247.492135 42.667423 
L 248.111694 42.494918 
L 248.731253 42.325326 
L 249.350813 42.158598 
L 249.970372 41.994686 
L 250.589931 41.833542 
L 251.20949 41.675119 
L 251.82905 41.519373 
L 252.448609 41.366256 
L 253.068168 41.215725 
L 253.687727 41.067737 
L 254.307287 40.922248 
L 254.926846 40.779216 
L 255.546405 40.6386 
L 256.165964 40.500358 
L 256.785523 40.364451 
L 257.405083 40.23084 
L 258.024642 40.099485 
L 258.644201 39.970348 
L 259.26376 39.843392 
L 259.88332 39.718581 
L 260.502879 39.595877 
L 261.122438 39.475245 
L 261.741997 39.356651 
L 262.361556 39.24006 
L 262.981116 39.125438 
L 263.600675 39.012751 
L 264.220234 38.901968 
L 264.839793 38.793056 
L 265.459353 38.685983 
L 266.078912 38.580718 
L 266.698471 38.477231 
L 267.31803 38.375492 
L 267.93759 38.275471 
L 268.557149 38.177139 
L 269.176708 38.080468 
L 269.796267 37.98543 
L 270.415826 37.891996 
L 271.035386 37.800141 
L 271.654945 37.709837 
L 272.274504 37.621058 
L 272.894063 37.533778 
L 273.513623 37.447973 
L 274.133182 37.363616 
" clip-path="url(#p2a0f696332)" style="fill: none; stroke: #2ca02c; stroke-width: 2; stroke-linecap: round"/>
   </g>
   <g id="PathCollection_3">
    <g clip-path="url(#p2a0f696332)">
     <use xlink:href="#m8daef55b7a" x="212.796818" y="58.965915" style="stroke: #ffffff; stroke-width: 0.252982"/>
     <use xlink:href="#m8daef55b7a" x="212.796818" y="58.965915" style="stroke: #ffffff; stroke-width: 0.252982"/>
     <use xlink:href="#m8daef55b7a" x="223.412727" y="47.645097" style="stroke: #ffffff; stroke-width: 0.252982"/>
     <use xlink:href="#m8daef55b7a" x="223.412727" y="47.645097" style="stroke: #ffffff; stroke-width: 0.252982"/>
     <use xlink:href="#m8daef55b7a" x="226.951364" y="45.549767" style="stroke: #ffffff; stroke-width: 0.252982"/>
     <use xlink:href="#m8daef55b7a" x="226.951364" y="45.549767" style="stroke: #ffffff; stroke-width: 0.252982"/>
     <use xlink:href="#m8daef55b7a" x="241.105909" y="46.680821" style="stroke: #ffffff; stroke-width: 0.252982"/>
     <use xlink:href="#m8daef55b7a" x="241.105909" y="46.680821" style="stroke: #ffffff; stroke-width: 0.252982"/>
     <use xlink:href="#m8daef55b7a" x="216.335455" y="68.627895" style="stroke: #ffffff; stroke-width: 0.252982"/>
     <use xlink:href="#m8daef55b7a" x="216.335455" y="68.627895" style="stroke: #ffffff; stroke-width: 0.252982"/>
     <use xlink:href="#m8daef55b7a" x="262.337727" y="32.45308" style="stroke: #ffffff; stroke-width: 0.252982"/>
    </g>
   </g>
   <g id="LineCollection_3">
    <path d="M 212.796818 60.258744 
L 212.796818 57.673086 
" clip-path="url(#p2a0f696332)" style="fill: none; stroke: #000000"/>
    <path d="M 212.796818 60.258744 
L 212.796818 57.673086 
" clip-path="url(#p2a0f696332)" style="fill: none; stroke: #000000"/>
    <path d="M 223.412727 53.432478 
L 223.412727 41.857717 
" clip-path="url(#p2a0f696332)" style="fill: none; stroke: #000000"/>
    <path d="M 223.412727 53.432478 
L 223.412727 41.857717 
" clip-path="url(#p2a0f696332)" style="fill: none; stroke: #000000"/>
    <path d="M 226.951364 56.202244 
L 226.951364 34.897289 
" clip-path="url(#p2a0f696332)" style="fill: none; stroke: #000000"/>
    <path d="M 226.951364 56.202244 
L 226.951364 34.897289 
" clip-path="url(#p2a0f696332)" style="fill: none; stroke: #000000"/>
    <path d="M 241.105909 49.939165 
L 241.105909 43.422478 
" clip-path="url(#p2a0f696332)" style="fill: none; stroke: #000000"/>
    <path d="M 241.105909 49.939165 
L 241.105909 43.422478 
" clip-path="url(#p2a0f696332)" style="fill: none; stroke: #000000"/>
    <path d="M 216.335455 75.174544 
L 216.335455 62.081246 
" clip-path="url(#p2a0f696332)" style="fill: none; stroke: #000000"/>
    <path d="M 216.335455 75.174544 
L 216.335455 62.081246 
" clip-path="url(#p2a0f696332)" style="fill: none; stroke: #000000"/>
    <path d="M 262.337727 39.154992 
L 262.337727 25.751169 
" clip-path="url(#p2a0f696332)" style="fill: none; stroke: #000000"/>
   </g>
   <g id="line2d_44">
    <g clip-path="url(#p2a0f696332)">
     <use xlink:href="#md97b4429f5" x="212.796818" y="60.258744" style="stroke: #000000"/>
     <use xlink:href="#md97b4429f5" x="212.796818" y="60.258744" style="stroke: #000000"/>
     <use xlink:href="#md97b4429f5" x="223.412727" y="53.432478" style="stroke: #000000"/>
     <use xlink:href="#md97b4429f5" x="223.412727" y="53.432478" style="stroke: #000000"/>
     <use xlink:href="#md97b4429f5" x="226.951364" y="56.202244" style="stroke: #000000"/>
     <use xlink:href="#md97b4429f5" x="226.951364" y="56.202244" style="stroke: #000000"/>
     <use xlink:href="#md97b4429f5" x="241.105909" y="49.939165" style="stroke: #000000"/>
     <use xlink:href="#md97b4429f5" x="241.105909" y="49.939165" style="stroke: #000000"/>
     <use xlink:href="#md97b4429f5" x="216.335455" y="75.174544" style="stroke: #000000"/>
     <use xlink:href="#md97b4429f5" x="216.335455" y="75.174544" style="stroke: #000000"/>
     <use xlink:href="#md97b4429f5" x="262.337727" y="39.154992" style="stroke: #000000"/>
    </g>
   </g>
   <g id="line2d_45">
    <g clip-path="url(#p2a0f696332)">
     <use xlink:href="#md97b4429f5" x="212.796818" y="57.673086" style="stroke: #000000"/>
     <use xlink:href="#md97b4429f5" x="212.796818" y="57.673086" style="stroke: #000000"/>
     <use xlink:href="#md97b4429f5" x="223.412727" y="41.857717" style="stroke: #000000"/>
     <use xlink:href="#md97b4429f5" x="223.412727" y="41.857717" style="stroke: #000000"/>
     <use xlink:href="#md97b4429f5" x="226.951364" y="34.897289" style="stroke: #000000"/>
     <use xlink:href="#md97b4429f5" x="226.951364" y="34.897289" style="stroke: #000000"/>
     <use xlink:href="#md97b4429f5" x="241.105909" y="43.422478" style="stroke: #000000"/>
     <use xlink:href="#md97b4429f5" x="241.105909" y="43.422478" style="stroke: #000000"/>
     <use xlink:href="#md97b4429f5" x="216.335455" y="62.081246" style="stroke: #000000"/>
     <use xlink:href="#md97b4429f5" x="216.335455" y="62.081246" style="stroke: #000000"/>
     <use xlink:href="#md97b4429f5" x="262.337727" y="25.751169" style="stroke: #000000"/>
    </g>
   </g>
  </g>
 </g>
 <defs>
  <clipPath id="p0227ac6d80">
   <rect x="45.19" y="23.28" width="67.47" height="62.19875"/>
  </clipPath>
  <clipPath id="pd9389774f7">
   <rect x="127.46" y="23.28" width="67.47" height="62.19875"/>
  </clipPath>
  <clipPath id="p2a0f696332">
   <rect x="209.73" y="23.28" width="67.47" height="62.19875"/>
  </clipPath>
 </defs>
</svg>
