<?xml version="1.0" encoding="utf-8" standalone="no"?>
<!DOCTYPE svg PUBLIC "-//W3C//DTD SVG 1.1//EN"
  "http://www.w3.org/Graphics/SVG/1.1/DTD/svg11.dtd">
<svg xmlns:xlink="http://www.w3.org/1999/xlink" width="151.2pt" height="122.4pt" viewBox="0 0 151.2 122.4" xmlns="http://www.w3.org/2000/svg" version="1.1">
 <metadata>
  <rdf:RDF xmlns:dc="http://purl.org/dc/elements/1.1/" xmlns:cc="http://creativecommons.org/ns#" xmlns:rdf="http://www.w3.org/1999/02/22-rdf-syntax-ns#">
   <cc:Work>
    <dc:type rdf:resource="http://purl.org/dc/dcmitype/StillImage"/>
    <dc:date>2023-04-29T13:44:15.459900</dc:date>
    <dc:format>image/svg+xml</dc:format>
    <dc:creator>
     <cc:Agent>
      <dc:title>Matplotlib v3.5.1, https://matplotlib.org/</dc:title>
     </cc:Agent>
    </dc:creator>
   </cc:Work>
  </rdf:RDF>
 </metadata>
 <defs>
  <style type="text/css">*{stroke-linejoin: round; stroke-linecap: butt}</style>
 </defs>
 <g id="figure_1">
  <g id="patch_1">
   <path d="M 0 122.4 
L 151.2 122.4 
L 151.2 0 
L 0 0 
z
" style="fill: #ffffff"/>
  </g>
  <g id="axes_1">
   <g id="patch_2">
    <path d="M 33.85 40.739375 
L 79.725 40.739375 
L 79.725 10.8 
L 33.85 10.8 
z
" style="fill: #ffffff"/>
   </g>
   <g id="matplotlib.axis_1">
    <g id="xtick_1">
     <g id="line2d_1">
      <defs>
       <path id="m4367133072" d="M 0 0 
L 0 4 
" style="stroke: #262626; stroke-width: 0.8"/>
      </defs>
      <g>
       <use xlink:href="#m4367133072" x="35.935227" y="40.739375" style="fill: #262626; stroke: #262626; stroke-width: 0.8"/>
      </g>
     </g>
    </g>
    <g id="xtick_2">
     <g id="line2d_2">
      <g>
       <use xlink:href="#m4367133072" x="55.183479" y="40.739375" style="fill: #262626; stroke: #262626; stroke-width: 0.8"/>
      </g>
     </g>
    </g>
    <g id="xtick_3">
     <g id="line2d_3">
      <g>
       <use xlink:href="#m4367133072" x="74.431731" y="40.739375" style="fill: #262626; stroke: #262626; stroke-width: 0.8"/>
      </g>
     </g>
    </g>
   </g>
   <g id="matplotlib.axis_2">
    <g id="ytick_1">
     <g id="line2d_4">
      <defs>
       <path id="mbd9ba47dc8" d="M 0 0 
L -4 0 
" style="stroke: #262626; stroke-width: 0.8"/>
      </defs>
      <g>
       <use xlink:href="#mbd9ba47dc8" x="33.85" y="35.590507" style="fill: #262626; stroke: #262626; stroke-width: 0.8"/>
      </g>
     </g>
     <g id="text_1">
      <!-- 0 -->
      <g style="fill: #262626" transform="translate(23.40125 38.453632)scale(0.08 -0.08)">
       <defs>
        <path id="ArialMT-30" d="M 266 2259 
Q 266 3072 433 3567 
Q 600 4063 929 4331 
Q 1259 4600 1759 4600 
Q 2128 4600 2406 4451 
Q 2684 4303 2865 4023 
Q 3047 3744 3150 3342 
Q 3253 2941 3253 2259 
Q 3253 1453 3087 958 
Q 2922 463 2592 192 
Q 2263 -78 1759 -78 
Q 1097 -78 719 397 
Q 266 969 266 2259 
z
M 844 2259 
Q 844 1131 1108 757 
Q 1372 384 1759 384 
Q 2147 384 2411 759 
Q 2675 1134 2675 2259 
Q 2675 3391 2411 3762 
Q 2147 4134 1753 4134 
Q 1366 4134 1134 3806 
Q 844 3388 844 2259 
z
" transform="scale(0.015625)"/>
       </defs>
       <use xlink:href="#ArialMT-30"/>
      </g>
     </g>
    </g>
    <g id="ytick_2">
     <g id="line2d_5">
      <g>
       <use xlink:href="#mbd9ba47dc8" x="33.85" y="13.616758" style="fill: #262626; stroke: #262626; stroke-width: 0.8"/>
      </g>
     </g>
     <g id="text_2">
      <!-- 1 -->
      <g style="fill: #262626" transform="translate(23.40125 16.479883)scale(0.08 -0.08)">
       <defs>
        <path id="ArialMT-31" d="M 2384 0 
L 1822 0 
L 1822 3584 
Q 1619 3391 1289 3197 
Q 959 3003 697 2906 
L 697 3450 
Q 1169 3672 1522 3987 
Q 1875 4303 2022 4600 
L 2384 4600 
L 2384 0 
z
" transform="scale(0.015625)"/>
       </defs>
       <use xlink:href="#ArialMT-31"/>
      </g>
     </g>
    </g>
    <g id="text_3">
     <!-- expr. norm. -->
     <g style="fill: #262626" transform="translate(17.6125 48.277422)rotate(-90)scale(0.09 -0.09)">
      <defs>
       <path id="ArialMT-65" d="M 2694 1069 
L 3275 997 
Q 3138 488 2766 206 
Q 2394 -75 1816 -75 
Q 1088 -75 661 373 
Q 234 822 234 1631 
Q 234 2469 665 2931 
Q 1097 3394 1784 3394 
Q 2450 3394 2872 2941 
Q 3294 2488 3294 1666 
Q 3294 1616 3291 1516 
L 816 1516 
Q 847 969 1125 678 
Q 1403 388 1819 388 
Q 2128 388 2347 550 
Q 2566 713 2694 1069 
z
M 847 1978 
L 2700 1978 
Q 2663 2397 2488 2606 
Q 2219 2931 1791 2931 
Q 1403 2931 1139 2672 
Q 875 2413 847 1978 
z
" transform="scale(0.015625)"/>
       <path id="ArialMT-78" d="M 47 0 
L 1259 1725 
L 138 3319 
L 841 3319 
L 1350 2541 
Q 1494 2319 1581 2169 
Q 1719 2375 1834 2534 
L 2394 3319 
L 3066 3319 
L 1919 1756 
L 3153 0 
L 2463 0 
L 1781 1031 
L 1600 1309 
L 728 0 
L 47 0 
z
" transform="scale(0.015625)"/>
       <path id="ArialMT-70" d="M 422 -1272 
L 422 3319 
L 934 3319 
L 934 2888 
Q 1116 3141 1344 3267 
Q 1572 3394 1897 3394 
Q 2322 3394 2647 3175 
Q 2972 2956 3137 2557 
Q 3303 2159 3303 1684 
Q 3303 1175 3120 767 
Q 2938 359 2589 142 
Q 2241 -75 1856 -75 
Q 1575 -75 1351 44 
Q 1128 163 984 344 
L 984 -1272 
L 422 -1272 
z
M 931 1641 
Q 931 1000 1190 694 
Q 1450 388 1819 388 
Q 2194 388 2461 705 
Q 2728 1022 2728 1688 
Q 2728 2322 2467 2637 
Q 2206 2953 1844 2953 
Q 1484 2953 1207 2617 
Q 931 2281 931 1641 
z
" transform="scale(0.015625)"/>
       <path id="ArialMT-72" d="M 416 0 
L 416 3319 
L 922 3319 
L 922 2816 
Q 1116 3169 1280 3281 
Q 1444 3394 1641 3394 
Q 1925 3394 2219 3213 
L 2025 2691 
Q 1819 2813 1613 2813 
Q 1428 2813 1281 2702 
Q 1134 2591 1072 2394 
Q 978 2094 978 1738 
L 978 0 
L 416 0 
z
" transform="scale(0.015625)"/>
       <path id="ArialMT-2e" d="M 581 0 
L 581 641 
L 1222 641 
L 1222 0 
L 581 0 
z
" transform="scale(0.015625)"/>
       <path id="ArialMT-20" transform="scale(0.015625)"/>
       <path id="ArialMT-6e" d="M 422 0 
L 422 3319 
L 928 3319 
L 928 2847 
Q 1294 3394 1984 3394 
Q 2284 3394 2536 3286 
Q 2788 3178 2913 3003 
Q 3038 2828 3088 2588 
Q 3119 2431 3119 2041 
L 3119 0 
L 2556 0 
L 2556 2019 
Q 2556 2363 2490 2533 
Q 2425 2703 2258 2804 
Q 2091 2906 1866 2906 
Q 1506 2906 1245 2678 
Q 984 2450 984 1813 
L 984 0 
L 422 0 
z
" transform="scale(0.015625)"/>
       <path id="ArialMT-6f" d="M 213 1659 
Q 213 2581 725 3025 
Q 1153 3394 1769 3394 
Q 2453 3394 2887 2945 
Q 3322 2497 3322 1706 
Q 3322 1066 3130 698 
Q 2938 331 2570 128 
Q 2203 -75 1769 -75 
Q 1072 -75 642 372 
Q 213 819 213 1659 
z
M 791 1659 
Q 791 1022 1069 705 
Q 1347 388 1769 388 
Q 2188 388 2466 706 
Q 2744 1025 2744 1678 
Q 2744 2294 2464 2611 
Q 2184 2928 1769 2928 
Q 1347 2928 1069 2612 
Q 791 2297 791 1659 
z
" transform="scale(0.015625)"/>
       <path id="ArialMT-6d" d="M 422 0 
L 422 3319 
L 925 3319 
L 925 2853 
Q 1081 3097 1340 3245 
Q 1600 3394 1931 3394 
Q 2300 3394 2536 3241 
Q 2772 3088 2869 2813 
Q 3263 3394 3894 3394 
Q 4388 3394 4653 3120 
Q 4919 2847 4919 2278 
L 4919 0 
L 4359 0 
L 4359 2091 
Q 4359 2428 4304 2576 
Q 4250 2725 4106 2815 
Q 3963 2906 3769 2906 
Q 3419 2906 3187 2673 
Q 2956 2441 2956 1928 
L 2956 0 
L 2394 0 
L 2394 2156 
Q 2394 2531 2256 2718 
Q 2119 2906 1806 2906 
Q 1569 2906 1367 2781 
Q 1166 2656 1075 2415 
Q 984 2175 984 1722 
L 984 0 
L 422 0 
z
" transform="scale(0.015625)"/>
      </defs>
      <use xlink:href="#ArialMT-65"/>
      <use xlink:href="#ArialMT-78" x="55.615234"/>
      <use xlink:href="#ArialMT-70" x="105.615234"/>
      <use xlink:href="#ArialMT-72" x="161.230469"/>
      <use xlink:href="#ArialMT-2e" x="189.03125"/>
      <use xlink:href="#ArialMT-20" x="216.814453"/>
      <use xlink:href="#ArialMT-6e" x="244.597656"/>
      <use xlink:href="#ArialMT-6f" x="300.212891"/>
      <use xlink:href="#ArialMT-72" x="355.828125"/>
      <use xlink:href="#ArialMT-6d" x="389.128906"/>
      <use xlink:href="#ArialMT-2e" x="472.429688"/>
     </g>
    </g>
   </g>
   <g id="patch_3">
    <path d="M 33.85 40.739375 
L 33.85 10.8 
" style="fill: none; stroke: #262626; stroke-linejoin: miter; stroke-linecap: square"/>
   </g>
   <g id="patch_4">
    <path d="M 79.725 40.739375 
L 79.725 10.8 
" style="fill: none; stroke: #262626; stroke-linejoin: miter; stroke-linecap: square"/>
   </g>
   <g id="patch_5">
    <path d="M 33.85 40.739375 
L 79.725 40.739375 
" style="fill: none; stroke: #262626; stroke-linejoin: miter; stroke-linecap: square"/>
   </g>
   <g id="patch_6">
    <path d="M 33.85 10.8 
L 79.725 10.8 
" style="fill: none; stroke: #262626; stroke-linejoin: miter; stroke-linecap: square"/>
   </g>
   <g id="line2d_6">
    <path d="M 35.935227 35.590507 
L 36.356485 34.583285 
L 36.777743 33.622232 
L 37.199001 32.705231 
L 37.620259 31.830263 
L 38.041517 30.995402 
L 38.462775 30.198809 
L 38.884034 29.438729 
L 39.305292 28.713489 
L 39.72655 28.021493 
L 40.147808 27.361216 
L 40.569066 26.731205 
L 40.990324 26.130071 
L 41.411582 25.556492 
L 41.83284 25.009205 
L 42.254098 24.487004 
L 42.675356 23.988739 
L 43.096614 23.513313 
L 43.517872 23.05968 
L 43.93913 22.62684 
L 44.360388 22.21384 
L 44.781646 21.819772 
L 45.202904 21.443766 
L 45.624162 21.084996 
L 46.04542 20.74267 
L 46.466678 20.416036 
L 46.887936 20.104375 
L 47.309194 19.806998 
L 47.730452 19.523253 
L 48.15171 19.252514 
L 48.572968 18.994185 
L 48.994226 18.747698 
L 49.415484 18.512508 
L 49.836742 18.288099 
L 50.258 18.073977 
L 50.679258 17.869669 
L 51.100517 17.674726 
L 51.521775 17.488719 
L 51.943033 17.311238 
L 52.364291 17.141892 
L 52.785549 16.980309 
L 53.206807 16.826132 
L 53.628065 16.679023 
L 54.049323 16.538656 
L 54.470581 16.404724 
L 54.891839 16.27693 
L 55.313097 16.154995 
L 55.734355 16.038648 
L 56.155613 15.927635 
L 56.576871 15.82171 
L 56.998129 15.72064 
L 57.419387 15.624204 
L 57.840645 15.532187 
L 58.261903 15.444389 
L 58.683161 15.360615 
L 59.104419 15.280681 
L 59.525677 15.204411 
L 59.946935 15.131637 
L 60.368193 15.062199 
L 60.789451 14.995943 
L 61.210709 14.932725 
L 61.631967 14.872404 
L 62.053225 14.814848 
L 62.474483 14.759931 
L 62.895742 14.707531 
L 63.317 14.657532 
L 63.738258 14.609826 
L 64.159516 14.564306 
L 64.580774 14.520873 
L 65.002032 14.479431 
L 65.42329 14.439888 
L 65.844548 14.402158 
L 66.265806 14.366157 
L 66.687064 14.331806 
L 67.108322 14.29903 
L 67.52958 14.267757 
L 67.950838 14.237916 
L 68.372096 14.209444 
L 68.793354 14.182277 
L 69.214612 14.156355 
L 69.63587 14.131621 
L 70.057128 14.108021 
L 70.478386 14.085503 
L 70.899644 14.064017 
L 71.320902 14.043515 
L 71.74216 14.023954 
L 72.163418 14.005289 
L 72.584676 13.98748 
L 73.005934 13.970487 
L 73.427192 13.954273 
L 73.84845 13.938802 
L 74.269708 13.92404 
L 74.690966 13.909955 
L 75.112225 13.896516 
L 75.533483 13.883692 
L 75.954741 13.871457 
L 76.375999 13.859782 
L 76.797257 13.848642 
L 77.218515 13.838013 
L 77.639773 13.827872 
" clip-path="url(#p93262d0034)" style="fill: none; stroke: #2ca02c; stroke-width: 2; stroke-linecap: round"/>
   </g>
   <g id="PathCollection_1">
    <defs>
     <path id="m81d4243b1d" d="M 0 1.581139 
C 0.419323 1.581139 0.821528 1.41454 1.118034 1.118034 
C 1.41454 0.821528 1.581139 0.419323 1.581139 0 
C 1.581139 -0.419323 1.41454 -0.821528 1.118034 -1.118034 
C 0.821528 -1.41454 0.419323 -1.581139 0 -1.581139 
C -0.419323 -1.581139 -0.821528 -1.41454 -1.118034 -1.118034 
C -1.41454 -0.821528 -1.581139 -0.419323 -1.581139 0 
C -1.581139 0.419323 -1.41454 0.821528 -1.118034 1.118034 
C -0.821528 1.41454 -0.419323 1.581139 0 1.581139 
z
" style="stroke: #ffffff; stroke-width: 0.252982"/>
    </defs>
    <g clip-path="url(#p93262d0034)">
     <use xlink:href="#m81d4243b1d" x="35.935227" y="35.590507" style="stroke: #ffffff; stroke-width: 0.252982"/>
     <use xlink:href="#m81d4243b1d" x="35.935227" y="35.590507" style="stroke: #ffffff; stroke-width: 0.252982"/>
     <use xlink:href="#m81d4243b1d" x="43.153322" y="19.161363" style="stroke: #ffffff; stroke-width: 0.252982"/>
     <use xlink:href="#m81d4243b1d" x="43.153322" y="19.161363" style="stroke: #ffffff; stroke-width: 0.252982"/>
     <use xlink:href="#m81d4243b1d" x="45.559353" y="16.918795" style="stroke: #ffffff; stroke-width: 0.252982"/>
     <use xlink:href="#m81d4243b1d" x="45.559353" y="16.918795" style="stroke: #ffffff; stroke-width: 0.252982"/>
     <use xlink:href="#m81d4243b1d" x="55.183479" y="16.496958" style="stroke: #ffffff; stroke-width: 0.252982"/>
     <use xlink:href="#m81d4243b1d" x="55.183479" y="16.496958" style="stroke: #ffffff; stroke-width: 0.252982"/>
     <use xlink:href="#m81d4243b1d" x="38.341259" y="36.268993" style="stroke: #ffffff; stroke-width: 0.252982"/>
     <use xlink:href="#m81d4243b1d" x="38.341259" y="36.268993" style="stroke: #ffffff; stroke-width: 0.252982"/>
     <use xlink:href="#m81d4243b1d" x="69.619668" y="13.616758" style="stroke: #ffffff; stroke-width: 0.252982"/>
    </g>
   </g>
   <g id="LineCollection_1">
    <path d="M 35.935227 36.468628 
L 35.935227 34.712385 
" clip-path="url(#p93262d0034)" style="fill: none; stroke: #000000"/>
    <path d="M 35.935227 36.468628 
L 35.935227 34.712385 
" clip-path="url(#p93262d0034)" style="fill: none; stroke: #000000"/>
    <path d="M 43.153322 24.706928 
L 43.153322 13.615798 
" clip-path="url(#p93262d0034)" style="fill: none; stroke: #000000"/>
    <path d="M 43.153322 24.706928 
L 43.153322 13.615798 
" clip-path="url(#p93262d0034)" style="fill: none; stroke: #000000"/>
    <path d="M 45.559353 21.67671 
L 45.559353 12.160881 
" clip-path="url(#p93262d0034)" style="fill: none; stroke: #000000"/>
    <path d="M 45.559353 21.67671 
L 45.559353 12.160881 
" clip-path="url(#p93262d0034)" style="fill: none; stroke: #000000"/>
    <path d="M 55.183479 17.563759 
L 55.183479 15.430157 
" clip-path="url(#p93262d0034)" style="fill: none; stroke: #000000"/>
    <path d="M 55.183479 17.563759 
L 55.183479 15.430157 
" clip-path="url(#p93262d0034)" style="fill: none; stroke: #000000"/>
    <path d="M 38.341259 39.378494 
L 38.341259 33.159491 
" clip-path="url(#p93262d0034)" style="fill: none; stroke: #000000"/>
    <path d="M 38.341259 39.378494 
L 38.341259 33.159491 
" clip-path="url(#p93262d0034)" style="fill: none; stroke: #000000"/>
    <path d="M 69.619668 14.407485 
L 69.619668 12.826031 
" clip-path="url(#p93262d0034)" style="fill: none; stroke: #000000"/>
   </g>
   <g id="line2d_7">
    <defs>
     <path id="md5dea37ac7" d="M 2 0 
L -2 -0 
" style="stroke: #000000"/>
    </defs>
    <g clip-path="url(#p93262d0034)">
     <use xlink:href="#md5dea37ac7" x="35.935227" y="36.468628" style="stroke: #000000"/>
     <use xlink:href="#md5dea37ac7" x="35.935227" y="36.468628" style="stroke: #000000"/>
     <use xlink:href="#md5dea37ac7" x="43.153322" y="24.706928" style="stroke: #000000"/>
     <use xlink:href="#md5dea37ac7" x="43.153322" y="24.706928" style="stroke: #000000"/>
     <use xlink:href="#md5dea37ac7" x="45.559353" y="21.67671" style="stroke: #000000"/>
     <use xlink:href="#md5dea37ac7" x="45.559353" y="21.67671" style="stroke: #000000"/>
     <use xlink:href="#md5dea37ac7" x="55.183479" y="17.563759" style="stroke: #000000"/>
     <use xlink:href="#md5dea37ac7" x="55.183479" y="17.563759" style="stroke: #000000"/>
     <use xlink:href="#md5dea37ac7" x="38.341259" y="39.378494" style="stroke: #000000"/>
     <use xlink:href="#md5dea37ac7" x="38.341259" y="39.378494" style="stroke: #000000"/>
     <use xlink:href="#md5dea37ac7" x="69.619668" y="14.407485" style="stroke: #000000"/>
    </g>
   </g>
   <g id="line2d_8">
    <g clip-path="url(#p93262d0034)">
     <use xlink:href="#md5dea37ac7" x="35.935227" y="34.712385" style="stroke: #000000"/>
     <use xlink:href="#md5dea37ac7" x="35.935227" y="34.712385" style="stroke: #000000"/>
     <use xlink:href="#md5dea37ac7" x="43.153322" y="13.615798" style="stroke: #000000"/>
     <use xlink:href="#md5dea37ac7" x="43.153322" y="13.615798" style="stroke: #000000"/>
     <use xlink:href="#md5dea37ac7" x="45.559353" y="12.160881" style="stroke: #000000"/>
     <use xlink:href="#md5dea37ac7" x="45.559353" y="12.160881" style="stroke: #000000"/>
     <use xlink:href="#md5dea37ac7" x="55.183479" y="15.430157" style="stroke: #000000"/>
     <use xlink:href="#md5dea37ac7" x="55.183479" y="15.430157" style="stroke: #000000"/>
     <use xlink:href="#md5dea37ac7" x="38.341259" y="33.159491" style="stroke: #000000"/>
     <use xlink:href="#md5dea37ac7" x="38.341259" y="33.159491" style="stroke: #000000"/>
     <use xlink:href="#md5dea37ac7" x="69.619668" y="12.826031" style="stroke: #000000"/>
    </g>
   </g>
  </g>
  <g id="axes_2">
   <g id="patch_7">
    <path d="M 94.525 40.739375 
L 140.4 40.739375 
L 140.4 10.8 
L 94.525 10.8 
z
" style="fill: #ffffff"/>
   </g>
   <g id="matplotlib.axis_3">
    <g id="xtick_4">
     <g id="line2d_9">
      <g>
       <use xlink:href="#m4367133072" x="96.610227" y="40.739375" style="fill: #262626; stroke: #262626; stroke-width: 0.8"/>
      </g>
     </g>
    </g>
    <g id="xtick_5">
     <g id="line2d_10">
      <g>
       <use xlink:href="#m4367133072" x="115.858479" y="40.739375" style="fill: #262626; stroke: #262626; stroke-width: 0.8"/>
      </g>
     </g>
    </g>
    <g id="xtick_6">
     <g id="line2d_11">
      <g>
       <use xlink:href="#m4367133072" x="135.106731" y="40.739375" style="fill: #262626; stroke: #262626; stroke-width: 0.8"/>
      </g>
     </g>
    </g>
   </g>
   <g id="matplotlib.axis_4">
    <g id="ytick_3">
     <g id="line2d_12">
      <g>
       <use xlink:href="#mbd9ba47dc8" x="94.525" y="36.912902" style="fill: #262626; stroke: #262626; stroke-width: 0.8"/>
      </g>
     </g>
    </g>
    <g id="ytick_4">
     <g id="line2d_13">
      <g>
       <use xlink:href="#mbd9ba47dc8" x="94.525" y="13.457179" style="fill: #262626; stroke: #262626; stroke-width: 0.8"/>
      </g>
     </g>
    </g>
   </g>
   <g id="patch_8">
    <path d="M 94.525 40.739375 
L 94.525 10.8 
" style="fill: none; stroke: #262626; stroke-linejoin: miter; stroke-linecap: square"/>
   </g>
   <g id="patch_9">
    <path d="M 140.4 40.739375 
L 140.4 10.8 
" style="fill: none; stroke: #262626; stroke-linejoin: miter; stroke-linecap: square"/>
   </g>
   <g id="patch_10">
    <path d="M 94.525 40.739375 
L 140.4 40.739375 
" style="fill: none; stroke: #262626; stroke-linejoin: miter; stroke-linecap: square"/>
   </g>
   <g id="patch_11">
    <path d="M 94.525 10.8 
L 140.4 10.8 
" style="fill: none; stroke: #262626; stroke-linejoin: miter; stroke-linecap: square"/>
   </g>
   <g id="line2d_14">
    <path d="M 96.610227 36.912902 
L 97.031485 36.912902 
L 97.452743 36.912902 
L 97.874001 36.912902 
L 98.295259 36.912902 
L 98.716517 36.912902 
L 99.137775 36.912902 
L 99.559034 36.912902 
L 99.980292 36.912902 
L 100.40155 36.912902 
L 100.822808 36.912902 
L 101.244066 36.912902 
L 101.665324 36.912902 
L 102.086582 36.912902 
L 102.50784 36.912902 
L 102.929098 36.912902 
L 103.350356 36.912902 
L 103.771614 36.912902 
L 104.192872 36.912902 
L 104.61413 36.912902 
L 105.035388 36.912902 
L 105.456646 36.912901 
L 105.877904 36.912896 
L 106.299162 36.912882 
L 106.72042 36.912836 
L 107.141678 36.912706 
L 107.562936 36.912366 
L 107.984194 36.911541 
L 108.405452 36.909679 
L 108.82671 36.90574 
L 109.247968 36.897906 
L 109.669226 36.883193 
L 110.090484 36.857005 
L 110.511742 36.812678 
L 110.933 36.741117 
L 111.354258 36.630622 
L 111.775517 36.46703 
L 112.196775 36.234253 
L 112.618033 35.915246 
L 113.039291 35.493356 
L 113.460549 34.953939 
L 113.881807 34.286051 
L 114.303065 33.483973 
L 114.724323 32.548374 
L 115.145581 31.486901 
L 115.566839 30.314112 
L 115.988097 29.050738 
L 116.409355 27.722363 
L 116.830613 26.357676 
L 117.251871 24.986519 
L 117.673129 23.637941 
L 118.094387 22.338464 
L 118.515645 21.110704 
L 118.936903 19.972454 
L 119.358161 18.936236 
L 119.779419 18.009308 
L 120.200677 17.194045 
L 120.621935 16.48859 
L 121.043193 15.887682 
L 121.464451 15.383545 
L 121.885709 14.966757 
L 122.306967 14.627039 
L 122.728225 14.353914 
L 123.149483 14.137226 
L 123.570742 13.967509 
L 123.992 13.836229 
L 124.413258 13.7359 
L 124.834516 13.660116 
L 125.255774 13.603521 
L 125.677032 13.561719 
L 126.09829 13.531172 
L 126.519548 13.509081 
L 126.940806 13.493266 
L 127.362064 13.482054 
L 127.783322 13.474182 
L 128.20458 13.468706 
L 128.625838 13.464931 
L 129.047096 13.462351 
L 129.468354 13.460603 
L 129.889612 13.459429 
L 130.31087 13.458647 
L 130.732128 13.45813 
L 131.153386 13.45779 
L 131.574644 13.457569 
L 131.995902 13.457427 
L 132.41716 13.457335 
L 132.838418 13.457277 
L 133.259676 13.45724 
L 133.680934 13.457216 
L 134.102192 13.457202 
L 134.52345 13.457193 
L 134.944708 13.457187 
L 135.365966 13.457184 
L 135.787225 13.457182 
L 136.208483 13.457181 
L 136.629741 13.45718 
L 137.050999 13.457179 
L 137.472257 13.457179 
L 137.893515 13.457179 
L 138.314773 13.457179 
" clip-path="url(#pb048ec8e64)" style="fill: none; stroke: #1f77b4; stroke-width: 2; stroke-linecap: round"/>
   </g>
   <g id="PathCollection_2">
    <g clip-path="url(#pb048ec8e64)">
     <use xlink:href="#m81d4243b1d" x="96.610227" y="36.912902" style="stroke: #ffffff; stroke-width: 0.252982"/>
     <use xlink:href="#m81d4243b1d" x="96.610227" y="36.912902" style="stroke: #ffffff; stroke-width: 0.252982"/>
     <use xlink:href="#m81d4243b1d" x="103.828322" y="35.647409" style="stroke: #ffffff; stroke-width: 0.252982"/>
     <use xlink:href="#m81d4243b1d" x="103.828322" y="35.647409" style="stroke: #ffffff; stroke-width: 0.252982"/>
     <use xlink:href="#m81d4243b1d" x="106.234353" y="36.739131" style="stroke: #ffffff; stroke-width: 0.252982"/>
     <use xlink:href="#m81d4243b1d" x="106.234353" y="36.739131" style="stroke: #ffffff; stroke-width: 0.252982"/>
     <use xlink:href="#m81d4243b1d" x="115.858479" y="29.447655" style="stroke: #ffffff; stroke-width: 0.252982"/>
     <use xlink:href="#m81d4243b1d" x="115.858479" y="29.447655" style="stroke: #ffffff; stroke-width: 0.252982"/>
     <use xlink:href="#m81d4243b1d" x="99.016259" y="33.04891" style="stroke: #ffffff; stroke-width: 0.252982"/>
     <use xlink:href="#m81d4243b1d" x="99.016259" y="33.04891" style="stroke: #ffffff; stroke-width: 0.252982"/>
     <use xlink:href="#m81d4243b1d" x="130.294668" y="13.457179" style="stroke: #ffffff; stroke-width: 0.252982"/>
    </g>
   </g>
   <g id="LineCollection_2">
    <path d="M 96.610227 37.607146 
L 96.610227 36.218659 
" clip-path="url(#pb048ec8e64)" style="fill: none; stroke: #000000"/>
    <path d="M 96.610227 37.607146 
L 96.610227 36.218659 
" clip-path="url(#pb048ec8e64)" style="fill: none; stroke: #000000"/>
    <path d="M 103.828322 36.742843 
L 103.828322 34.551974 
" clip-path="url(#pb048ec8e64)" style="fill: none; stroke: #000000"/>
    <path d="M 103.828322 36.742843 
L 103.828322 34.551974 
" clip-path="url(#pb048ec8e64)" style="fill: none; stroke: #000000"/>
    <path d="M 106.234353 39.378494 
L 106.234353 34.099768 
" clip-path="url(#pb048ec8e64)" style="fill: none; stroke: #000000"/>
    <path d="M 106.234353 39.378494 
L 106.234353 34.099768 
" clip-path="url(#pb048ec8e64)" style="fill: none; stroke: #000000"/>
    <path d="M 115.858479 31.841269 
L 115.858479 27.054042 
" clip-path="url(#pb048ec8e64)" style="fill: none; stroke: #000000"/>
    <path d="M 115.858479 31.841269 
L 115.858479 27.054042 
" clip-path="url(#pb048ec8e64)" style="fill: none; stroke: #000000"/>
    <path d="M 99.016259 34.73132 
L 99.016259 31.366501 
" clip-path="url(#pb048ec8e64)" style="fill: none; stroke: #000000"/>
    <path d="M 99.016259 34.73132 
L 99.016259 31.366501 
" clip-path="url(#pb048ec8e64)" style="fill: none; stroke: #000000"/>
    <path d="M 130.294668 14.753477 
L 130.294668 12.160881 
" clip-path="url(#pb048ec8e64)" style="fill: none; stroke: #000000"/>
   </g>
   <g id="line2d_15">
    <g clip-path="url(#pb048ec8e64)">
     <use xlink:href="#md5dea37ac7" x="96.610227" y="37.607146" style="stroke: #000000"/>
     <use xlink:href="#md5dea37ac7" x="96.610227" y="37.607146" style="stroke: #000000"/>
     <use xlink:href="#md5dea37ac7" x="103.828322" y="36.742843" style="stroke: #000000"/>
     <use xlink:href="#md5dea37ac7" x="103.828322" y="36.742843" style="stroke: #000000"/>
     <use xlink:href="#md5dea37ac7" x="106.234353" y="39.378494" style="stroke: #000000"/>
     <use xlink:href="#md5dea37ac7" x="106.234353" y="39.378494" style="stroke: #000000"/>
     <use xlink:href="#md5dea37ac7" x="115.858479" y="31.841269" style="stroke: #000000"/>
     <use xlink:href="#md5dea37ac7" x="115.858479" y="31.841269" style="stroke: #000000"/>
     <use xlink:href="#md5dea37ac7" x="99.016259" y="34.73132" style="stroke: #000000"/>
     <use xlink:href="#md5dea37ac7" x="99.016259" y="34.73132" style="stroke: #000000"/>
     <use xlink:href="#md5dea37ac7" x="130.294668" y="14.753477" style="stroke: #000000"/>
    </g>
   </g>
   <g id="line2d_16">
    <g clip-path="url(#pb048ec8e64)">
     <use xlink:href="#md5dea37ac7" x="96.610227" y="36.218659" style="stroke: #000000"/>
     <use xlink:href="#md5dea37ac7" x="96.610227" y="36.218659" style="stroke: #000000"/>
     <use xlink:href="#md5dea37ac7" x="103.828322" y="34.551974" style="stroke: #000000"/>
     <use xlink:href="#md5dea37ac7" x="103.828322" y="34.551974" style="stroke: #000000"/>
     <use xlink:href="#md5dea37ac7" x="106.234353" y="34.099768" style="stroke: #000000"/>
     <use xlink:href="#md5dea37ac7" x="106.234353" y="34.099768" style="stroke: #000000"/>
     <use xlink:href="#md5dea37ac7" x="115.858479" y="27.054042" style="stroke: #000000"/>
     <use xlink:href="#md5dea37ac7" x="115.858479" y="27.054042" style="stroke: #000000"/>
     <use xlink:href="#md5dea37ac7" x="99.016259" y="31.366501" style="stroke: #000000"/>
     <use xlink:href="#md5dea37ac7" x="99.016259" y="31.366501" style="stroke: #000000"/>
     <use xlink:href="#md5dea37ac7" x="130.294668" y="12.160881" style="stroke: #000000"/>
    </g>
   </g>
  </g>
  <g id="axes_3">
   <g id="patch_12">
    <path d="M 33.85 85.47875 
L 79.725 85.47875 
L 79.725 55.539375 
L 33.85 55.539375 
z
" style="fill: #ffffff"/>
   </g>
   <g id="matplotlib.axis_5">
    <g id="xtick_7">
     <g id="line2d_17">
      <g>
       <use xlink:href="#m4367133072" x="35.935227" y="85.47875" style="fill: #262626; stroke: #262626; stroke-width: 0.8"/>
      </g>
     </g>
     <g id="text_4">
      <!-- 0 -->
      <g style="fill: #262626" transform="translate(33.710852 97.205)scale(0.08 -0.08)">
       <use xlink:href="#ArialMT-30"/>
      </g>
     </g>
    </g>
    <g id="xtick_8">
     <g id="line2d_18">
      <g>
       <use xlink:href="#m4367133072" x="55.183479" y="85.47875" style="fill: #262626; stroke: #262626; stroke-width: 0.8"/>
      </g>
     </g>
     <g id="text_5">
      <!-- 48 -->
      <g style="fill: #262626" transform="translate(50.734729 97.205)scale(0.08 -0.08)">
       <defs>
        <path id="ArialMT-34" d="M 2069 0 
L 2069 1097 
L 81 1097 
L 81 1613 
L 2172 4581 
L 2631 4581 
L 2631 1613 
L 3250 1613 
L 3250 1097 
L 2631 1097 
L 2631 0 
L 2069 0 
z
M 2069 1613 
L 2069 3678 
L 634 1613 
L 2069 1613 
z
" transform="scale(0.015625)"/>
        <path id="ArialMT-38" d="M 1131 2484 
Q 781 2613 612 2850 
Q 444 3088 444 3419 
Q 444 3919 803 4259 
Q 1163 4600 1759 4600 
Q 2359 4600 2725 4251 
Q 3091 3903 3091 3403 
Q 3091 3084 2923 2848 
Q 2756 2613 2416 2484 
Q 2838 2347 3058 2040 
Q 3278 1734 3278 1309 
Q 3278 722 2862 322 
Q 2447 -78 1769 -78 
Q 1091 -78 675 323 
Q 259 725 259 1325 
Q 259 1772 486 2073 
Q 713 2375 1131 2484 
z
M 1019 3438 
Q 1019 3113 1228 2906 
Q 1438 2700 1772 2700 
Q 2097 2700 2305 2904 
Q 2513 3109 2513 3406 
Q 2513 3716 2298 3927 
Q 2084 4138 1766 4138 
Q 1444 4138 1231 3931 
Q 1019 3725 1019 3438 
z
M 838 1322 
Q 838 1081 952 856 
Q 1066 631 1291 507 
Q 1516 384 1775 384 
Q 2178 384 2440 643 
Q 2703 903 2703 1303 
Q 2703 1709 2433 1975 
Q 2163 2241 1756 2241 
Q 1359 2241 1098 1978 
Q 838 1716 838 1322 
z
" transform="scale(0.015625)"/>
       </defs>
       <use xlink:href="#ArialMT-34"/>
       <use xlink:href="#ArialMT-38" x="55.615234"/>
      </g>
     </g>
    </g>
    <g id="xtick_9">
     <g id="line2d_19">
      <g>
       <use xlink:href="#m4367133072" x="74.431731" y="85.47875" style="fill: #262626; stroke: #262626; stroke-width: 0.8"/>
      </g>
     </g>
     <g id="text_6">
      <!-- 96 -->
      <g style="fill: #262626" transform="translate(69.982981 97.205)scale(0.08 -0.08)">
       <defs>
        <path id="ArialMT-39" d="M 350 1059 
L 891 1109 
Q 959 728 1153 556 
Q 1347 384 1650 384 
Q 1909 384 2104 503 
Q 2300 622 2425 820 
Q 2550 1019 2634 1356 
Q 2719 1694 2719 2044 
Q 2719 2081 2716 2156 
Q 2547 1888 2255 1720 
Q 1963 1553 1622 1553 
Q 1053 1553 659 1965 
Q 266 2378 266 3053 
Q 266 3750 677 4175 
Q 1088 4600 1706 4600 
Q 2153 4600 2523 4359 
Q 2894 4119 3086 3673 
Q 3278 3228 3278 2384 
Q 3278 1506 3087 986 
Q 2897 466 2520 194 
Q 2144 -78 1638 -78 
Q 1100 -78 759 220 
Q 419 519 350 1059 
z
M 2653 3081 
Q 2653 3566 2395 3850 
Q 2138 4134 1775 4134 
Q 1400 4134 1122 3828 
Q 844 3522 844 3034 
Q 844 2597 1108 2323 
Q 1372 2050 1759 2050 
Q 2150 2050 2401 2323 
Q 2653 2597 2653 3081 
z
" transform="scale(0.015625)"/>
        <path id="ArialMT-36" d="M 3184 3459 
L 2625 3416 
Q 2550 3747 2413 3897 
Q 2184 4138 1850 4138 
Q 1581 4138 1378 3988 
Q 1113 3794 959 3422 
Q 806 3050 800 2363 
Q 1003 2672 1297 2822 
Q 1591 2972 1913 2972 
Q 2475 2972 2870 2558 
Q 3266 2144 3266 1488 
Q 3266 1056 3080 686 
Q 2894 316 2569 119 
Q 2244 -78 1831 -78 
Q 1128 -78 684 439 
Q 241 956 241 2144 
Q 241 3472 731 4075 
Q 1159 4600 1884 4600 
Q 2425 4600 2770 4297 
Q 3116 3994 3184 3459 
z
M 888 1484 
Q 888 1194 1011 928 
Q 1134 663 1356 523 
Q 1578 384 1822 384 
Q 2178 384 2434 671 
Q 2691 959 2691 1453 
Q 2691 1928 2437 2201 
Q 2184 2475 1800 2475 
Q 1419 2475 1153 2201 
Q 888 1928 888 1484 
z
" transform="scale(0.015625)"/>
       </defs>
       <use xlink:href="#ArialMT-39"/>
       <use xlink:href="#ArialMT-36" x="55.615234"/>
      </g>
     </g>
    </g>
    <g id="text_7">
     <!-- time (h) -->
     <g style="fill: #262626" transform="translate(41.537422 109.346719)scale(0.09 -0.09)">
      <defs>
       <path id="ArialMT-74" d="M 1650 503 
L 1731 6 
Q 1494 -44 1306 -44 
Q 1000 -44 831 53 
Q 663 150 594 308 
Q 525 466 525 972 
L 525 2881 
L 113 2881 
L 113 3319 
L 525 3319 
L 525 4141 
L 1084 4478 
L 1084 3319 
L 1650 3319 
L 1650 2881 
L 1084 2881 
L 1084 941 
Q 1084 700 1114 631 
Q 1144 563 1211 522 
Q 1278 481 1403 481 
Q 1497 481 1650 503 
z
" transform="scale(0.015625)"/>
       <path id="ArialMT-69" d="M 425 3934 
L 425 4581 
L 988 4581 
L 988 3934 
L 425 3934 
z
M 425 0 
L 425 3319 
L 988 3319 
L 988 0 
L 425 0 
z
" transform="scale(0.015625)"/>
       <path id="ArialMT-28" d="M 1497 -1347 
Q 1031 -759 709 28 
Q 388 816 388 1659 
Q 388 2403 628 3084 
Q 909 3875 1497 4659 
L 1900 4659 
Q 1522 4009 1400 3731 
Q 1209 3300 1100 2831 
Q 966 2247 966 1656 
Q 966 153 1900 -1347 
L 1497 -1347 
z
" transform="scale(0.015625)"/>
       <path id="ArialMT-68" d="M 422 0 
L 422 4581 
L 984 4581 
L 984 2938 
Q 1378 3394 1978 3394 
Q 2347 3394 2619 3248 
Q 2891 3103 3008 2847 
Q 3125 2591 3125 2103 
L 3125 0 
L 2563 0 
L 2563 2103 
Q 2563 2525 2380 2717 
Q 2197 2909 1863 2909 
Q 1613 2909 1392 2779 
Q 1172 2650 1078 2428 
Q 984 2206 984 1816 
L 984 0 
L 422 0 
z
" transform="scale(0.015625)"/>
       <path id="ArialMT-29" d="M 791 -1347 
L 388 -1347 
Q 1322 153 1322 1656 
Q 1322 2244 1188 2822 
Q 1081 3291 891 3722 
Q 769 4003 388 4659 
L 791 4659 
Q 1378 3875 1659 3084 
Q 1900 2403 1900 1659 
Q 1900 816 1576 28 
Q 1253 -759 791 -1347 
z
" transform="scale(0.015625)"/>
      </defs>
      <use xlink:href="#ArialMT-74"/>
      <use xlink:href="#ArialMT-69" x="27.783203"/>
      <use xlink:href="#ArialMT-6d" x="50"/>
      <use xlink:href="#ArialMT-65" x="133.300781"/>
      <use xlink:href="#ArialMT-20" x="188.916016"/>
      <use xlink:href="#ArialMT-28" x="216.699219"/>
      <use xlink:href="#ArialMT-68" x="250"/>
      <use xlink:href="#ArialMT-29" x="305.615234"/>
     </g>
    </g>
   </g>
   <g id="matplotlib.axis_6">
    <g id="ytick_5">
     <g id="line2d_20">
      <g>
       <use xlink:href="#mbd9ba47dc8" x="33.85" y="82.169302" style="fill: #262626; stroke: #262626; stroke-width: 0.8"/>
      </g>
     </g>
     <g id="text_8">
      <!-- 0 -->
      <g style="fill: #262626" transform="translate(23.40125 85.032427)scale(0.08 -0.08)">
       <use xlink:href="#ArialMT-30"/>
      </g>
     </g>
    </g>
    <g id="ytick_6">
     <g id="line2d_21">
      <g>
       <use xlink:href="#mbd9ba47dc8" x="33.85" y="60.00485" style="fill: #262626; stroke: #262626; stroke-width: 0.8"/>
      </g>
     </g>
     <g id="text_9">
      <!-- 1 -->
      <g style="fill: #262626" transform="translate(23.40125 62.867975)scale(0.08 -0.08)">
       <use xlink:href="#ArialMT-31"/>
      </g>
     </g>
    </g>
    <g id="text_10">
     <!-- expr. norm. -->
     <g style="fill: #262626" transform="translate(17.6125 93.016797)rotate(-90)scale(0.09 -0.09)">
      <use xlink:href="#ArialMT-65"/>
      <use xlink:href="#ArialMT-78" x="55.615234"/>
      <use xlink:href="#ArialMT-70" x="105.615234"/>
      <use xlink:href="#ArialMT-72" x="161.230469"/>
      <use xlink:href="#ArialMT-2e" x="189.03125"/>
      <use xlink:href="#ArialMT-20" x="216.814453"/>
      <use xlink:href="#ArialMT-6e" x="244.597656"/>
      <use xlink:href="#ArialMT-6f" x="300.212891"/>
      <use xlink:href="#ArialMT-72" x="355.828125"/>
      <use xlink:href="#ArialMT-6d" x="389.128906"/>
      <use xlink:href="#ArialMT-2e" x="472.429688"/>
     </g>
    </g>
   </g>
   <g id="line2d_22">
    <path d="M 35.935227 82.169302 
L 36.356485 82.169302 
L 36.777743 82.169302 
L 37.199001 82.169302 
L 37.620259 82.169302 
L 38.041517 82.169302 
L 38.462775 82.169297 
L 38.884034 82.167924 
L 39.305292 82.109121 
L 39.72655 81.460427 
L 40.147808 79.025277 
L 40.569066 75.250754 
L 40.990324 72.465873 
L 41.411582 71.374123 
L 41.83284 71.125806 
L 42.254098 71.090602 
L 42.675356 71.087301 
L 43.096614 71.087087 
L 43.517872 71.087076 
L 43.93913 71.087076 
L 44.360388 71.087076 
L 44.781646 71.087076 
L 45.202904 71.087076 
L 45.624162 71.087076 
L 46.04542 71.087076 
L 46.466678 71.087076 
L 46.887936 71.087076 
L 47.309194 71.087076 
L 47.730452 71.087076 
L 48.15171 71.087076 
L 48.572968 71.087076 
L 48.994226 71.087076 
L 49.415484 71.087076 
L 49.836742 71.087076 
L 50.258 71.087076 
L 50.679258 71.087076 
L 51.100517 71.087076 
L 51.521775 71.087076 
L 51.943033 71.087076 
L 52.364291 71.087076 
L 52.785549 71.087076 
L 53.206807 71.087076 
L 53.628065 71.087076 
L 54.049323 71.087076 
L 54.470581 71.087076 
L 54.891839 71.087075 
L 55.313097 71.087071 
L 55.734355 71.087053 
L 56.155613 71.08699 
L 56.576871 71.086775 
L 56.998129 71.086121 
L 57.419387 71.084302 
L 57.840645 71.079672 
L 58.261903 71.068846 
L 58.683161 71.045524 
L 59.104419 70.9991 
L 59.525677 70.913459 
L 59.946935 70.766657 
L 60.368193 70.532238 
L 60.789451 70.182677 
L 61.210709 69.694791 
L 61.631967 69.056052 
L 62.053225 68.270018 
L 62.474483 67.358991 
L 62.895742 66.362643 
L 63.317 65.332588 
L 63.738258 64.324204 
L 64.159516 63.387899 
L 64.580774 62.562021 
L 65.002032 61.86896 
L 65.42329 61.314837 
L 65.844548 60.892153 
L 66.265806 60.584137 
L 66.687064 60.369441 
L 67.108322 60.226126 
L 67.52958 60.134401 
L 67.950838 60.078052 
L 68.372096 60.044789 
L 68.793354 60.025902 
L 69.214612 60.015577 
L 69.63587 60.010136 
L 70.057128 60.007371 
L 70.478386 60.006015 
L 70.899644 60.005371 
L 71.320902 60.005076 
L 71.74216 60.004945 
L 72.163418 60.004889 
L 72.584676 60.004866 
L 73.005934 60.004856 
L 73.427192 60.004852 
L 73.84845 60.004851 
L 74.269708 60.00485 
L 74.690966 60.00485 
L 75.112225 60.00485 
L 75.533483 60.00485 
L 75.954741 60.00485 
L 76.375999 60.00485 
L 76.797257 60.00485 
L 77.218515 60.00485 
L 77.639773 60.00485 
" clip-path="url(#p83c512bf96)" style="fill: none; stroke: #800080; stroke-width: 2; stroke-linecap: round"/>
   </g>
   <g id="patch_13">
    <path d="M 33.85 85.47875 
L 33.85 55.539375 
" style="fill: none; stroke: #262626; stroke-linejoin: miter; stroke-linecap: square"/>
   </g>
   <g id="patch_14">
    <path d="M 79.725 85.47875 
L 79.725 55.539375 
" style="fill: none; stroke: #262626; stroke-linejoin: miter; stroke-linecap: square"/>
   </g>
   <g id="patch_15">
    <path d="M 33.85 85.47875 
L 79.725 85.47875 
" style="fill: none; stroke: #262626; stroke-linejoin: miter; stroke-linecap: square"/>
   </g>
   <g id="patch_16">
    <path d="M 33.85 55.539375 
L 79.725 55.539375 
" style="fill: none; stroke: #262626; stroke-linejoin: miter; stroke-linecap: square"/>
   </g>
   <g id="PathCollection_3">
    <g clip-path="url(#p83c512bf96)">
     <use xlink:href="#m81d4243b1d" x="35.935227" y="82.169302" style="stroke: #ffffff; stroke-width: 0.252982"/>
     <use xlink:href="#m81d4243b1d" x="35.935227" y="82.169302" style="stroke: #ffffff; stroke-width: 0.252982"/>
     <use xlink:href="#m81d4243b1d" x="43.153322" y="68.238259" style="stroke: #ffffff; stroke-width: 0.252982"/>
     <use xlink:href="#m81d4243b1d" x="43.153322" y="68.238259" style="stroke: #ffffff; stroke-width: 0.252982"/>
     <use xlink:href="#m81d4243b1d" x="45.559353" y="71.926447" style="stroke: #ffffff; stroke-width: 0.252982"/>
     <use xlink:href="#m81d4243b1d" x="45.559353" y="71.926447" style="stroke: #ffffff; stroke-width: 0.252982"/>
     <use xlink:href="#m81d4243b1d" x="55.183479" y="72.793994" style="stroke: #ffffff; stroke-width: 0.252982"/>
     <use xlink:href="#m81d4243b1d" x="55.183479" y="72.793994" style="stroke: #ffffff; stroke-width: 0.252982"/>
     <use xlink:href="#m81d4243b1d" x="38.341259" y="83.491165" style="stroke: #ffffff; stroke-width: 0.252982"/>
     <use xlink:href="#m81d4243b1d" x="38.341259" y="83.491165" style="stroke: #ffffff; stroke-width: 0.252982"/>
     <use xlink:href="#m81d4243b1d" x="69.619668" y="60.00485" style="stroke: #ffffff; stroke-width: 0.252982"/>
    </g>
   </g>
   <g id="LineCollection_3">
    <path d="M 35.935227 82.675026 
L 35.935227 81.663578 
" clip-path="url(#p83c512bf96)" style="fill: none; stroke: #000000"/>
    <path d="M 35.935227 82.675026 
L 35.935227 81.663578 
" clip-path="url(#p83c512bf96)" style="fill: none; stroke: #000000"/>
    <path d="M 43.153322 71.167674 
L 43.153322 65.308844 
" clip-path="url(#p83c512bf96)" style="fill: none; stroke: #000000"/>
    <path d="M 43.153322 71.167674 
L 43.153322 65.308844 
" clip-path="url(#p83c512bf96)" style="fill: none; stroke: #000000"/>
    <path d="M 45.559353 75.154855 
L 45.559353 68.698039 
" clip-path="url(#p83c512bf96)" style="fill: none; stroke: #000000"/>
    <path d="M 45.559353 75.154855 
L 45.559353 68.698039 
" clip-path="url(#p83c512bf96)" style="fill: none; stroke: #000000"/>
    <path d="M 55.183479 74.359056 
L 55.183479 71.228931 
" clip-path="url(#p83c512bf96)" style="fill: none; stroke: #000000"/>
    <path d="M 55.183479 74.359056 
L 55.183479 71.228931 
" clip-path="url(#p83c512bf96)" style="fill: none; stroke: #000000"/>
    <path d="M 38.341259 84.117869 
L 38.341259 82.864461 
" clip-path="url(#p83c512bf96)" style="fill: none; stroke: #000000"/>
    <path d="M 38.341259 84.117869 
L 38.341259 82.864461 
" clip-path="url(#p83c512bf96)" style="fill: none; stroke: #000000"/>
    <path d="M 69.619668 63.109445 
L 69.619668 56.900256 
" clip-path="url(#p83c512bf96)" style="fill: none; stroke: #000000"/>
   </g>
   <g id="line2d_23">
    <g clip-path="url(#p83c512bf96)">
     <use xlink:href="#md5dea37ac7" x="35.935227" y="82.675026" style="stroke: #000000"/>
     <use xlink:href="#md5dea37ac7" x="35.935227" y="82.675026" style="stroke: #000000"/>
     <use xlink:href="#md5dea37ac7" x="43.153322" y="71.167674" style="stroke: #000000"/>
     <use xlink:href="#md5dea37ac7" x="43.153322" y="71.167674" style="stroke: #000000"/>
     <use xlink:href="#md5dea37ac7" x="45.559353" y="75.154855" style="stroke: #000000"/>
     <use xlink:href="#md5dea37ac7" x="45.559353" y="75.154855" style="stroke: #000000"/>
     <use xlink:href="#md5dea37ac7" x="55.183479" y="74.359056" style="stroke: #000000"/>
     <use xlink:href="#md5dea37ac7" x="55.183479" y="74.359056" style="stroke: #000000"/>
     <use xlink:href="#md5dea37ac7" x="38.341259" y="84.117869" style="stroke: #000000"/>
     <use xlink:href="#md5dea37ac7" x="38.341259" y="84.117869" style="stroke: #000000"/>
     <use xlink:href="#md5dea37ac7" x="69.619668" y="63.109445" style="stroke: #000000"/>
    </g>
   </g>
   <g id="line2d_24">
    <g clip-path="url(#p83c512bf96)">
     <use xlink:href="#md5dea37ac7" x="35.935227" y="81.663578" style="stroke: #000000"/>
     <use xlink:href="#md5dea37ac7" x="35.935227" y="81.663578" style="stroke: #000000"/>
     <use xlink:href="#md5dea37ac7" x="43.153322" y="65.308844" style="stroke: #000000"/>
     <use xlink:href="#md5dea37ac7" x="43.153322" y="65.308844" style="stroke: #000000"/>
     <use xlink:href="#md5dea37ac7" x="45.559353" y="68.698039" style="stroke: #000000"/>
     <use xlink:href="#md5dea37ac7" x="45.559353" y="68.698039" style="stroke: #000000"/>
     <use xlink:href="#md5dea37ac7" x="55.183479" y="71.228931" style="stroke: #000000"/>
     <use xlink:href="#md5dea37ac7" x="55.183479" y="71.228931" style="stroke: #000000"/>
     <use xlink:href="#md5dea37ac7" x="38.341259" y="82.864461" style="stroke: #000000"/>
     <use xlink:href="#md5dea37ac7" x="38.341259" y="82.864461" style="stroke: #000000"/>
     <use xlink:href="#md5dea37ac7" x="69.619668" y="56.900256" style="stroke: #000000"/>
    </g>
   </g>
  </g>
  <g id="axes_4">
   <g id="patch_17">
    <path d="M 94.525 85.47875 
L 140.4 85.47875 
L 140.4 55.539375 
L 94.525 55.539375 
z
" style="fill: #ffffff"/>
   </g>
   <g id="matplotlib.axis_7">
    <g id="xtick_10">
     <g id="line2d_25">
      <g>
       <use xlink:href="#m4367133072" x="96.610227" y="85.47875" style="fill: #262626; stroke: #262626; stroke-width: 0.8"/>
      </g>
     </g>
     <g id="text_11">
      <!-- 0 -->
      <g style="fill: #262626" transform="translate(94.385852 97.205)scale(0.08 -0.08)">
       <use xlink:href="#ArialMT-30"/>
      </g>
     </g>
    </g>
    <g id="xtick_11">
     <g id="line2d_26">
      <g>
       <use xlink:href="#m4367133072" x="115.858479" y="85.47875" style="fill: #262626; stroke: #262626; stroke-width: 0.8"/>
      </g>
     </g>
     <g id="text_12">
      <!-- 48 -->
      <g style="fill: #262626" transform="translate(111.409729 97.205)scale(0.08 -0.08)">
       <use xlink:href="#ArialMT-34"/>
       <use xlink:href="#ArialMT-38" x="55.615234"/>
      </g>
     </g>
    </g>
    <g id="xtick_12">
     <g id="line2d_27">
      <g>
       <use xlink:href="#m4367133072" x="135.106731" y="85.47875" style="fill: #262626; stroke: #262626; stroke-width: 0.8"/>
      </g>
     </g>
     <g id="text_13">
      <!-- 96 -->
      <g style="fill: #262626" transform="translate(130.657981 97.205)scale(0.08 -0.08)">
       <use xlink:href="#ArialMT-39"/>
       <use xlink:href="#ArialMT-36" x="55.615234"/>
      </g>
     </g>
    </g>
    <g id="text_14">
     <!-- time (h) -->
     <g style="fill: #262626" transform="translate(102.212422 109.346719)scale(0.09 -0.09)">
      <use xlink:href="#ArialMT-74"/>
      <use xlink:href="#ArialMT-69" x="27.783203"/>
      <use xlink:href="#ArialMT-6d" x="50"/>
      <use xlink:href="#ArialMT-65" x="133.300781"/>
      <use xlink:href="#ArialMT-20" x="188.916016"/>
      <use xlink:href="#ArialMT-28" x="216.699219"/>
      <use xlink:href="#ArialMT-68" x="250"/>
      <use xlink:href="#ArialMT-29" x="305.615234"/>
     </g>
    </g>
   </g>
   <g id="matplotlib.axis_8">
    <g id="ytick_7">
     <g id="line2d_28">
      <g>
       <use xlink:href="#mbd9ba47dc8" x="94.525" y="82.505039" style="fill: #262626; stroke: #262626; stroke-width: 0.8"/>
      </g>
     </g>
    </g>
    <g id="ytick_8">
     <g id="line2d_29">
      <g>
       <use xlink:href="#mbd9ba47dc8" x="94.525" y="58.259588" style="fill: #262626; stroke: #262626; stroke-width: 0.8"/>
      </g>
     </g>
    </g>
   </g>
   <g id="patch_18">
    <path d="M 94.525 85.47875 
L 94.525 55.539375 
" style="fill: none; stroke: #262626; stroke-linejoin: miter; stroke-linecap: square"/>
   </g>
   <g id="patch_19">
    <path d="M 140.4 85.47875 
L 140.4 55.539375 
" style="fill: none; stroke: #262626; stroke-linejoin: miter; stroke-linecap: square"/>
   </g>
   <g id="patch_20">
    <path d="M 94.525 85.47875 
L 140.4 85.47875 
" style="fill: none; stroke: #262626; stroke-linejoin: miter; stroke-linecap: square"/>
   </g>
   <g id="patch_21">
    <path d="M 94.525 55.539375 
L 140.4 55.539375 
" style="fill: none; stroke: #262626; stroke-linejoin: miter; stroke-linecap: square"/>
   </g>
   <g id="line2d_30">
    <path d="M 96.610227 82.505039 
L 97.031485 81.956961 
L 97.452743 81.421273 
L 97.874001 80.897695 
L 98.295259 80.385952 
L 98.716517 79.885777 
L 99.137775 79.396909 
L 99.559034 78.919092 
L 99.980292 78.452076 
L 100.40155 77.995617 
L 100.822808 77.549477 
L 101.244066 77.113421 
L 101.665324 76.687223 
L 102.086582 76.27066 
L 102.50784 75.863513 
L 102.929098 75.465569 
L 103.350356 75.076621 
L 103.771614 74.696466 
L 104.192872 74.324904 
L 104.61413 73.961742 
L 105.035388 73.606789 
L 105.456646 73.259859 
L 105.877904 72.920772 
L 106.299162 72.589351 
L 106.72042 72.265421 
L 107.141678 71.948814 
L 107.562936 71.639364 
L 107.984194 71.336909 
L 108.405452 71.041291 
L 108.82671 70.752356 
L 109.247968 70.469952 
L 109.669226 70.193932 
L 110.090484 69.924152 
L 110.511742 69.66047 
L 110.933 69.402749 
L 111.354258 69.150853 
L 111.775517 68.904652 
L 112.196775 68.664017 
L 112.618033 68.428821 
L 113.039291 68.198941 
L 113.460549 67.974258 
L 113.881807 67.754655 
L 114.303065 67.540015 
L 114.724323 67.330227 
L 115.145581 67.125182 
L 115.566839 66.924772 
L 115.988097 66.728892 
L 116.409355 66.537441 
L 116.830613 66.350317 
L 117.251871 66.167423 
L 117.673129 65.988663 
L 118.094387 65.813944 
L 118.515645 65.643175 
L 118.936903 65.476266 
L 119.358161 65.313131 
L 119.779419 65.153683 
L 120.200677 64.997839 
L 120.621935 64.845518 
L 121.043193 64.696641 
L 121.464451 64.551129 
L 121.885709 64.408906 
L 122.306967 64.269899 
L 122.728225 64.134033 
L 123.149483 64.001239 
L 123.570742 63.871447 
L 123.992 63.744589 
L 124.413258 63.620598 
L 124.834516 63.499411 
L 125.255774 63.380963 
L 125.677032 63.265192 
L 126.09829 63.152038 
L 126.519548 63.041443 
L 126.940806 62.933347 
L 127.362064 62.827695 
L 127.783322 62.724431 
L 128.20458 62.623502 
L 128.625838 62.524854 
L 129.047096 62.428436 
L 129.468354 62.334197 
L 129.889612 62.242089 
L 130.31087 62.152063 
L 130.732128 62.064073 
L 131.153386 61.978071 
L 131.574644 61.894013 
L 131.995902 61.811855 
L 132.41716 61.731555 
L 132.838418 61.65307 
L 133.259676 61.576359 
L 133.680934 61.501382 
L 134.102192 61.4281 
L 134.52345 61.356475 
L 134.944708 61.286469 
L 135.365966 61.218045 
L 135.787225 61.151168 
L 136.208483 61.085802 
L 136.629741 61.021915 
L 137.050999 60.959471 
L 137.472257 60.898439 
L 137.893515 60.838787 
L 138.314773 60.780483 
" clip-path="url(#p7338dcb525)" style="fill: none; stroke: #2ca02c; stroke-width: 2; stroke-linecap: round"/>
   </g>
   <g id="PathCollection_4">
    <g clip-path="url(#p7338dcb525)">
     <use xlink:href="#m81d4243b1d" x="96.610227" y="82.505039" style="stroke: #ffffff; stroke-width: 0.252982"/>
     <use xlink:href="#m81d4243b1d" x="96.610227" y="82.505039" style="stroke: #ffffff; stroke-width: 0.252982"/>
     <use xlink:href="#m81d4243b1d" x="103.828322" y="75.257457" style="stroke: #ffffff; stroke-width: 0.252982"/>
     <use xlink:href="#m81d4243b1d" x="103.828322" y="75.257457" style="stroke: #ffffff; stroke-width: 0.252982"/>
     <use xlink:href="#m81d4243b1d" x="106.234353" y="79.151174" style="stroke: #ffffff; stroke-width: 0.252982"/>
     <use xlink:href="#m81d4243b1d" x="106.234353" y="79.151174" style="stroke: #ffffff; stroke-width: 0.252982"/>
     <use xlink:href="#m81d4243b1d" x="115.858479" y="78.611322" style="stroke: #ffffff; stroke-width: 0.252982"/>
     <use xlink:href="#m81d4243b1d" x="115.858479" y="78.611322" style="stroke: #ffffff; stroke-width: 0.252982"/>
     <use xlink:href="#m81d4243b1d" x="99.016259" y="74.276514" style="stroke: #ffffff; stroke-width: 0.252982"/>
     <use xlink:href="#m81d4243b1d" x="99.016259" y="74.276514" style="stroke: #ffffff; stroke-width: 0.252982"/>
     <use xlink:href="#m81d4243b1d" x="130.294668" y="58.259588" style="stroke: #ffffff; stroke-width: 0.252982"/>
    </g>
   </g>
   <g id="LineCollection_4">
    <path d="M 96.610227 82.505039 
L 96.610227 82.505039 
" clip-path="url(#p7338dcb525)" style="fill: none; stroke: #000000"/>
    <path d="M 96.610227 82.505039 
L 96.610227 82.505039 
" clip-path="url(#p7338dcb525)" style="fill: none; stroke: #000000"/>
    <path d="M 103.828322 76.020922 
L 103.828322 74.493991 
" clip-path="url(#p7338dcb525)" style="fill: none; stroke: #000000"/>
    <path d="M 103.828322 76.020922 
L 103.828322 74.493991 
" clip-path="url(#p7338dcb525)" style="fill: none; stroke: #000000"/>
    <path d="M 106.234353 79.151174 
L 106.234353 79.151174 
" clip-path="url(#p7338dcb525)" style="fill: none; stroke: #000000"/>
    <path d="M 106.234353 79.151174 
L 106.234353 79.151174 
" clip-path="url(#p7338dcb525)" style="fill: none; stroke: #000000"/>
    <path d="M 115.858479 84.117869 
L 115.858479 73.104775 
" clip-path="url(#p7338dcb525)" style="fill: none; stroke: #000000"/>
    <path d="M 115.858479 84.117869 
L 115.858479 73.104775 
" clip-path="url(#p7338dcb525)" style="fill: none; stroke: #000000"/>
    <path d="M 99.016259 78.395799 
L 99.016259 70.157229 
" clip-path="url(#p7338dcb525)" style="fill: none; stroke: #000000"/>
    <path d="M 99.016259 78.395799 
L 99.016259 70.157229 
" clip-path="url(#p7338dcb525)" style="fill: none; stroke: #000000"/>
    <path d="M 130.294668 59.618921 
L 130.294668 56.900256 
" clip-path="url(#p7338dcb525)" style="fill: none; stroke: #000000"/>
   </g>
   <g id="line2d_31">
    <g clip-path="url(#p7338dcb525)">
     <use xlink:href="#md5dea37ac7" x="96.610227" y="82.505039" style="stroke: #000000"/>
     <use xlink:href="#md5dea37ac7" x="96.610227" y="82.505039" style="stroke: #000000"/>
     <use xlink:href="#md5dea37ac7" x="103.828322" y="76.020922" style="stroke: #000000"/>
     <use xlink:href="#md5dea37ac7" x="103.828322" y="76.020922" style="stroke: #000000"/>
     <use xlink:href="#md5dea37ac7" x="106.234353" y="79.151174" style="stroke: #000000"/>
     <use xlink:href="#md5dea37ac7" x="106.234353" y="79.151174" style="stroke: #000000"/>
     <use xlink:href="#md5dea37ac7" x="115.858479" y="84.117869" style="stroke: #000000"/>
     <use xlink:href="#md5dea37ac7" x="115.858479" y="84.117869" style="stroke: #000000"/>
     <use xlink:href="#md5dea37ac7" x="99.016259" y="78.395799" style="stroke: #000000"/>
     <use xlink:href="#md5dea37ac7" x="99.016259" y="78.395799" style="stroke: #000000"/>
     <use xlink:href="#md5dea37ac7" x="130.294668" y="59.618921" style="stroke: #000000"/>
    </g>
   </g>
   <g id="line2d_32">
    <g clip-path="url(#p7338dcb525)">
     <use xlink:href="#md5dea37ac7" x="96.610227" y="82.505039" style="stroke: #000000"/>
     <use xlink:href="#md5dea37ac7" x="96.610227" y="82.505039" style="stroke: #000000"/>
     <use xlink:href="#md5dea37ac7" x="103.828322" y="74.493991" style="stroke: #000000"/>
     <use xlink:href="#md5dea37ac7" x="103.828322" y="74.493991" style="stroke: #000000"/>
     <use xlink:href="#md5dea37ac7" x="106.234353" y="79.151174" style="stroke: #000000"/>
     <use xlink:href="#md5dea37ac7" x="106.234353" y="79.151174" style="stroke: #000000"/>
     <use xlink:href="#md5dea37ac7" x="115.858479" y="73.104775" style="stroke: #000000"/>
     <use xlink:href="#md5dea37ac7" x="115.858479" y="73.104775" style="stroke: #000000"/>
     <use xlink:href="#md5dea37ac7" x="99.016259" y="70.157229" style="stroke: #000000"/>
     <use xlink:href="#md5dea37ac7" x="99.016259" y="70.157229" style="stroke: #000000"/>
     <use xlink:href="#md5dea37ac7" x="130.294668" y="56.900256" style="stroke: #000000"/>
    </g>
   </g>
  </g>
 </g>
 <defs>
  <clipPath id="p93262d0034">
   <rect x="33.85" y="10.8" width="45.875" height="29.939375"/>
  </clipPath>
  <clipPath id="pb048ec8e64">
   <rect x="94.525" y="10.8" width="45.875" height="29.939375"/>
  </clipPath>
  <clipPath id="p83c512bf96">
   <rect x="33.85" y="55.539375" width="45.875" height="29.939375"/>
  </clipPath>
  <clipPath id="p7338dcb525">
   <rect x="94.525" y="55.539375" width="45.875" height="29.939375"/>
  </clipPath>
 </defs>
</svg>
