<?xml version="1.0" encoding="utf-8" standalone="no"?>
<!DOCTYPE svg PUBLIC "-//W3C//DTD SVG 1.1//EN"
  "http://www.w3.org/Graphics/SVG/1.1/DTD/svg11.dtd">
<svg xmlns:xlink="http://www.w3.org/1999/xlink" width="288pt" height="122.4pt" viewBox="0 0 288 122.4" xmlns="http://www.w3.org/2000/svg" version="1.1">
 <metadata>
  <rdf:RDF xmlns:dc="http://purl.org/dc/elements/1.1/" xmlns:cc="http://creativecommons.org/ns#" xmlns:rdf="http://www.w3.org/1999/02/22-rdf-syntax-ns#">
   <cc:Work>
    <dc:type rdf:resource="http://purl.org/dc/dcmitype/StillImage"/>
    <dc:date>2022-11-14T10:01:57.174416</dc:date>
    <dc:format>image/svg+xml</dc:format>
    <dc:creator>
     <cc:Agent>
      <dc:title>Matplotlib v3.5.1, https://matplotlib.org/</dc:title>
     </cc:Agent>
    </dc:creator>
   </cc:Work>
  </rdf:RDF>
 </metadata>
 <defs>
  <style type="text/css">*{stroke-linejoin: round; stroke-linecap: butt}</style>
 </defs>
 <g id="figure_1">
  <g id="patch_1">
   <path d="M 0 122.4 
L 288 122.4 
L 288 0 
L 0 0 
z
" style="fill: #ffffff"/>
  </g>
  <g id="axes_1">
   <g id="patch_2">
    <path d="M 45.19 85.47875 
L 109.72 85.47875 
L 109.72 23.28 
L 45.19 23.28 
z
" style="fill: #ffffff"/>
   </g>
   <g id="matplotlib.axis_1">
    <g id="xtick_1">
     <g id="line2d_1">
      <defs>
       <path id="mc4d8702ba5" d="M 0 0 
L 0 4 
" style="stroke: #262626; stroke-width: 0.8"/>
      </defs>
      <g>
       <use xlink:href="#mc4d8702ba5" x="47.397264" y="85.47875" style="fill: #262626; stroke: #262626; stroke-width: 0.8"/>
      </g>
     </g>
     <g id="text_1">
      <!-- 0 -->
      <g style="fill: #262626" transform="translate(45.172889 97.205)scale(0.08 -0.08)">
       <defs>
        <path id="ArialMT-30" d="M 266 2259 
Q 266 3072 433 3567 
Q 600 4063 929 4331 
Q 1259 4600 1759 4600 
Q 2128 4600 2406 4451 
Q 2684 4303 2865 4023 
Q 3047 3744 3150 3342 
Q 3253 2941 3253 2259 
Q 3253 1453 3087 958 
Q 2922 463 2592 192 
Q 2263 -78 1759 -78 
Q 1097 -78 719 397 
Q 266 969 266 2259 
z
M 844 2259 
Q 844 1131 1108 757 
Q 1372 384 1759 384 
Q 2147 384 2411 759 
Q 2675 1134 2675 2259 
Q 2675 3391 2411 3762 
Q 2147 4134 1753 4134 
Q 1366 4134 1134 3806 
Q 844 3388 844 2259 
z
" transform="scale(0.015625)"/>
       </defs>
       <use xlink:href="#ArialMT-30"/>
      </g>
     </g>
    </g>
    <g id="xtick_2">
     <g id="line2d_2">
      <g>
       <use xlink:href="#mc4d8702ba5" x="62.977948" y="85.47875" style="fill: #262626; stroke: #262626; stroke-width: 0.8"/>
      </g>
     </g>
     <g id="text_2">
      <!-- 24 -->
      <g style="fill: #262626" transform="translate(58.529198 97.205)scale(0.08 -0.08)">
       <defs>
        <path id="ArialMT-32" d="M 3222 541 
L 3222 0 
L 194 0 
Q 188 203 259 391 
Q 375 700 629 1000 
Q 884 1300 1366 1694 
Q 2113 2306 2375 2664 
Q 2638 3022 2638 3341 
Q 2638 3675 2398 3904 
Q 2159 4134 1775 4134 
Q 1369 4134 1125 3890 
Q 881 3647 878 3216 
L 300 3275 
Q 359 3922 746 4261 
Q 1134 4600 1788 4600 
Q 2447 4600 2831 4234 
Q 3216 3869 3216 3328 
Q 3216 3053 3103 2787 
Q 2991 2522 2730 2228 
Q 2469 1934 1863 1422 
Q 1356 997 1212 845 
Q 1069 694 975 541 
L 3222 541 
z
" transform="scale(0.015625)"/>
        <path id="ArialMT-34" d="M 2069 0 
L 2069 1097 
L 81 1097 
L 81 1613 
L 2172 4581 
L 2631 4581 
L 2631 1613 
L 3250 1613 
L 3250 1097 
L 2631 1097 
L 2631 0 
L 2069 0 
z
M 2069 1613 
L 2069 3678 
L 634 1613 
L 2069 1613 
z
" transform="scale(0.015625)"/>
       </defs>
       <use xlink:href="#ArialMT-32"/>
       <use xlink:href="#ArialMT-34" x="55.615234"/>
      </g>
     </g>
    </g>
    <g id="xtick_3">
     <g id="line2d_3">
      <g>
       <use xlink:href="#mc4d8702ba5" x="78.558632" y="85.47875" style="fill: #262626; stroke: #262626; stroke-width: 0.8"/>
      </g>
     </g>
     <g id="text_3">
      <!-- 48 -->
      <g style="fill: #262626" transform="translate(74.109882 97.205)scale(0.08 -0.08)">
       <defs>
        <path id="ArialMT-38" d="M 1131 2484 
Q 781 2613 612 2850 
Q 444 3088 444 3419 
Q 444 3919 803 4259 
Q 1163 4600 1759 4600 
Q 2359 4600 2725 4251 
Q 3091 3903 3091 3403 
Q 3091 3084 2923 2848 
Q 2756 2613 2416 2484 
Q 2838 2347 3058 2040 
Q 3278 1734 3278 1309 
Q 3278 722 2862 322 
Q 2447 -78 1769 -78 
Q 1091 -78 675 323 
Q 259 725 259 1325 
Q 259 1772 486 2073 
Q 713 2375 1131 2484 
z
M 1019 3438 
Q 1019 3113 1228 2906 
Q 1438 2700 1772 2700 
Q 2097 2700 2305 2904 
Q 2513 3109 2513 3406 
Q 2513 3716 2298 3927 
Q 2084 4138 1766 4138 
Q 1444 4138 1231 3931 
Q 1019 3725 1019 3438 
z
M 838 1322 
Q 838 1081 952 856 
Q 1066 631 1291 507 
Q 1516 384 1775 384 
Q 2178 384 2440 643 
Q 2703 903 2703 1303 
Q 2703 1709 2433 1975 
Q 2163 2241 1756 2241 
Q 1359 2241 1098 1978 
Q 838 1716 838 1322 
z
" transform="scale(0.015625)"/>
       </defs>
       <use xlink:href="#ArialMT-34"/>
       <use xlink:href="#ArialMT-38" x="55.615234"/>
      </g>
     </g>
    </g>
    <g id="xtick_4">
     <g id="line2d_4">
      <g>
       <use xlink:href="#mc4d8702ba5" x="94.139316" y="85.47875" style="fill: #262626; stroke: #262626; stroke-width: 0.8"/>
      </g>
     </g>
     <g id="text_4">
      <!-- 72 -->
      <g style="fill: #262626" transform="translate(89.690566 97.205)scale(0.08 -0.08)">
       <defs>
        <path id="ArialMT-37" d="M 303 3981 
L 303 4522 
L 3269 4522 
L 3269 4084 
Q 2831 3619 2401 2847 
Q 1972 2075 1738 1259 
Q 1569 684 1522 0 
L 944 0 
Q 953 541 1156 1306 
Q 1359 2072 1739 2783 
Q 2119 3494 2547 3981 
L 303 3981 
z
" transform="scale(0.015625)"/>
       </defs>
       <use xlink:href="#ArialMT-37"/>
       <use xlink:href="#ArialMT-32" x="55.615234"/>
      </g>
     </g>
    </g>
    <g id="xtick_5">
     <g id="line2d_5">
      <g>
       <use xlink:href="#mc4d8702ba5" x="109.72" y="85.47875" style="fill: #262626; stroke: #262626; stroke-width: 0.8"/>
      </g>
     </g>
     <g id="text_5">
      <!-- 96 -->
      <g style="fill: #262626" transform="translate(105.27125 97.205)scale(0.08 -0.08)">
       <defs>
        <path id="ArialMT-39" d="M 350 1059 
L 891 1109 
Q 959 728 1153 556 
Q 1347 384 1650 384 
Q 1909 384 2104 503 
Q 2300 622 2425 820 
Q 2550 1019 2634 1356 
Q 2719 1694 2719 2044 
Q 2719 2081 2716 2156 
Q 2547 1888 2255 1720 
Q 1963 1553 1622 1553 
Q 1053 1553 659 1965 
Q 266 2378 266 3053 
Q 266 3750 677 4175 
Q 1088 4600 1706 4600 
Q 2153 4600 2523 4359 
Q 2894 4119 3086 3673 
Q 3278 3228 3278 2384 
Q 3278 1506 3087 986 
Q 2897 466 2520 194 
Q 2144 -78 1638 -78 
Q 1100 -78 759 220 
Q 419 519 350 1059 
z
M 2653 3081 
Q 2653 3566 2395 3850 
Q 2138 4134 1775 4134 
Q 1400 4134 1122 3828 
Q 844 3522 844 3034 
Q 844 2597 1108 2323 
Q 1372 2050 1759 2050 
Q 2150 2050 2401 2323 
Q 2653 2597 2653 3081 
z
" transform="scale(0.015625)"/>
        <path id="ArialMT-36" d="M 3184 3459 
L 2625 3416 
Q 2550 3747 2413 3897 
Q 2184 4138 1850 4138 
Q 1581 4138 1378 3988 
Q 1113 3794 959 3422 
Q 806 3050 800 2363 
Q 1003 2672 1297 2822 
Q 1591 2972 1913 2972 
Q 2475 2972 2870 2558 
Q 3266 2144 3266 1488 
Q 3266 1056 3080 686 
Q 2894 316 2569 119 
Q 2244 -78 1831 -78 
Q 1128 -78 684 439 
Q 241 956 241 2144 
Q 241 3472 731 4075 
Q 1159 4600 1884 4600 
Q 2425 4600 2770 4297 
Q 3116 3994 3184 3459 
z
M 888 1484 
Q 888 1194 1011 928 
Q 1134 663 1356 523 
Q 1578 384 1822 384 
Q 2178 384 2434 671 
Q 2691 959 2691 1453 
Q 2691 1928 2437 2201 
Q 2184 2475 1800 2475 
Q 1419 2475 1153 2201 
Q 888 1928 888 1484 
z
" transform="scale(0.015625)"/>
       </defs>
       <use xlink:href="#ArialMT-39"/>
       <use xlink:href="#ArialMT-36" x="55.615234"/>
      </g>
     </g>
    </g>
    <g id="text_6">
     <!-- time (h) -->
     <g style="fill: #262626" transform="translate(62.204922 109.346719)scale(0.09 -0.09)">
      <defs>
       <path id="ArialMT-74" d="M 1650 503 
L 1731 6 
Q 1494 -44 1306 -44 
Q 1000 -44 831 53 
Q 663 150 594 308 
Q 525 466 525 972 
L 525 2881 
L 113 2881 
L 113 3319 
L 525 3319 
L 525 4141 
L 1084 4478 
L 1084 3319 
L 1650 3319 
L 1650 2881 
L 1084 2881 
L 1084 941 
Q 1084 700 1114 631 
Q 1144 563 1211 522 
Q 1278 481 1403 481 
Q 1497 481 1650 503 
z
" transform="scale(0.015625)"/>
       <path id="ArialMT-69" d="M 425 3934 
L 425 4581 
L 988 4581 
L 988 3934 
L 425 3934 
z
M 425 0 
L 425 3319 
L 988 3319 
L 988 0 
L 425 0 
z
" transform="scale(0.015625)"/>
       <path id="ArialMT-6d" d="M 422 0 
L 422 3319 
L 925 3319 
L 925 2853 
Q 1081 3097 1340 3245 
Q 1600 3394 1931 3394 
Q 2300 3394 2536 3241 
Q 2772 3088 2869 2813 
Q 3263 3394 3894 3394 
Q 4388 3394 4653 3120 
Q 4919 2847 4919 2278 
L 4919 0 
L 4359 0 
L 4359 2091 
Q 4359 2428 4304 2576 
Q 4250 2725 4106 2815 
Q 3963 2906 3769 2906 
Q 3419 2906 3187 2673 
Q 2956 2441 2956 1928 
L 2956 0 
L 2394 0 
L 2394 2156 
Q 2394 2531 2256 2718 
Q 2119 2906 1806 2906 
Q 1569 2906 1367 2781 
Q 1166 2656 1075 2415 
Q 984 2175 984 1722 
L 984 0 
L 422 0 
z
" transform="scale(0.015625)"/>
       <path id="ArialMT-65" d="M 2694 1069 
L 3275 997 
Q 3138 488 2766 206 
Q 2394 -75 1816 -75 
Q 1088 -75 661 373 
Q 234 822 234 1631 
Q 234 2469 665 2931 
Q 1097 3394 1784 3394 
Q 2450 3394 2872 2941 
Q 3294 2488 3294 1666 
Q 3294 1616 3291 1516 
L 816 1516 
Q 847 969 1125 678 
Q 1403 388 1819 388 
Q 2128 388 2347 550 
Q 2566 713 2694 1069 
z
M 847 1978 
L 2700 1978 
Q 2663 2397 2488 2606 
Q 2219 2931 1791 2931 
Q 1403 2931 1139 2672 
Q 875 2413 847 1978 
z
" transform="scale(0.015625)"/>
       <path id="ArialMT-20" transform="scale(0.015625)"/>
       <path id="ArialMT-28" d="M 1497 -1347 
Q 1031 -759 709 28 
Q 388 816 388 1659 
Q 388 2403 628 3084 
Q 909 3875 1497 4659 
L 1900 4659 
Q 1522 4009 1400 3731 
Q 1209 3300 1100 2831 
Q 966 2247 966 1656 
Q 966 153 1900 -1347 
L 1497 -1347 
z
" transform="scale(0.015625)"/>
       <path id="ArialMT-68" d="M 422 0 
L 422 4581 
L 984 4581 
L 984 2938 
Q 1378 3394 1978 3394 
Q 2347 3394 2619 3248 
Q 2891 3103 3008 2847 
Q 3125 2591 3125 2103 
L 3125 0 
L 2563 0 
L 2563 2103 
Q 2563 2525 2380 2717 
Q 2197 2909 1863 2909 
Q 1613 2909 1392 2779 
Q 1172 2650 1078 2428 
Q 984 2206 984 1816 
L 984 0 
L 422 0 
z
" transform="scale(0.015625)"/>
       <path id="ArialMT-29" d="M 791 -1347 
L 388 -1347 
Q 1322 153 1322 1656 
Q 1322 2244 1188 2822 
Q 1081 3291 891 3722 
Q 769 4003 388 4659 
L 791 4659 
Q 1378 3875 1659 3084 
Q 1900 2403 1900 1659 
Q 1900 816 1576 28 
Q 1253 -759 791 -1347 
z
" transform="scale(0.015625)"/>
      </defs>
      <use xlink:href="#ArialMT-74"/>
      <use xlink:href="#ArialMT-69" x="27.783203"/>
      <use xlink:href="#ArialMT-6d" x="50"/>
      <use xlink:href="#ArialMT-65" x="133.300781"/>
      <use xlink:href="#ArialMT-20" x="188.916016"/>
      <use xlink:href="#ArialMT-28" x="216.699219"/>
      <use xlink:href="#ArialMT-68" x="250"/>
      <use xlink:href="#ArialMT-29" x="305.615234"/>
     </g>
    </g>
   </g>
   <g id="matplotlib.axis_2">
    <g id="ytick_1">
     <g id="line2d_6">
      <defs>
       <path id="m2c00ceda08" d="M 0 0 
L -4 0 
" style="stroke: #262626; stroke-width: 0.8"/>
      </defs>
      <g>
       <use xlink:href="#m2c00ceda08" x="45.19" y="85.47875" style="fill: #262626; stroke: #262626; stroke-width: 0.8"/>
      </g>
     </g>
     <g id="text_7">
      <!-- −1.0 -->
      <g style="fill: #262626" transform="translate(23.3975 88.341875)scale(0.08 -0.08)">
       <defs>
        <path id="ArialMT-2212" d="M 3381 1997 
L 356 1997 
L 356 2522 
L 3381 2522 
L 3381 1997 
z
" transform="scale(0.015625)"/>
        <path id="ArialMT-31" d="M 2384 0 
L 1822 0 
L 1822 3584 
Q 1619 3391 1289 3197 
Q 959 3003 697 2906 
L 697 3450 
Q 1169 3672 1522 3987 
Q 1875 4303 2022 4600 
L 2384 4600 
L 2384 0 
z
" transform="scale(0.015625)"/>
        <path id="ArialMT-2e" d="M 581 0 
L 581 641 
L 1222 641 
L 1222 0 
L 581 0 
z
" transform="scale(0.015625)"/>
       </defs>
       <use xlink:href="#ArialMT-2212"/>
       <use xlink:href="#ArialMT-31" x="58.398438"/>
       <use xlink:href="#ArialMT-2e" x="114.013672"/>
       <use xlink:href="#ArialMT-30" x="141.796875"/>
      </g>
     </g>
    </g>
    <g id="ytick_2">
     <g id="line2d_7">
      <g>
       <use xlink:href="#m2c00ceda08" x="45.19" y="72.34545" style="fill: #262626; stroke: #262626; stroke-width: 0.8"/>
      </g>
     </g>
     <g id="text_8">
      <!-- −0.5 -->
      <g style="fill: #262626" transform="translate(23.3975 75.208575)scale(0.08 -0.08)">
       <defs>
        <path id="ArialMT-35" d="M 266 1200 
L 856 1250 
Q 922 819 1161 601 
Q 1400 384 1738 384 
Q 2144 384 2425 690 
Q 2706 997 2706 1503 
Q 2706 1984 2436 2262 
Q 2166 2541 1728 2541 
Q 1456 2541 1237 2417 
Q 1019 2294 894 2097 
L 366 2166 
L 809 4519 
L 3088 4519 
L 3088 3981 
L 1259 3981 
L 1013 2750 
Q 1425 3038 1878 3038 
Q 2478 3038 2890 2622 
Q 3303 2206 3303 1553 
Q 3303 931 2941 478 
Q 2500 -78 1738 -78 
Q 1113 -78 717 272 
Q 322 622 266 1200 
z
" transform="scale(0.015625)"/>
       </defs>
       <use xlink:href="#ArialMT-2212"/>
       <use xlink:href="#ArialMT-30" x="58.398438"/>
       <use xlink:href="#ArialMT-2e" x="114.013672"/>
       <use xlink:href="#ArialMT-35" x="141.796875"/>
      </g>
     </g>
    </g>
    <g id="ytick_3">
     <g id="line2d_8">
      <g>
       <use xlink:href="#m2c00ceda08" x="45.19" y="59.212151" style="fill: #262626; stroke: #262626; stroke-width: 0.8"/>
      </g>
     </g>
     <g id="text_9">
      <!-- 0.0 -->
      <g style="fill: #262626" transform="translate(28.07 62.075276)scale(0.08 -0.08)">
       <use xlink:href="#ArialMT-30"/>
       <use xlink:href="#ArialMT-2e" x="55.615234"/>
       <use xlink:href="#ArialMT-30" x="83.398438"/>
      </g>
     </g>
    </g>
    <g id="ytick_4">
     <g id="line2d_9">
      <g>
       <use xlink:href="#m2c00ceda08" x="45.19" y="46.078851" style="fill: #262626; stroke: #262626; stroke-width: 0.8"/>
      </g>
     </g>
     <g id="text_10">
      <!-- 0.5 -->
      <g style="fill: #262626" transform="translate(28.07 48.941976)scale(0.08 -0.08)">
       <use xlink:href="#ArialMT-30"/>
       <use xlink:href="#ArialMT-2e" x="55.615234"/>
       <use xlink:href="#ArialMT-35" x="83.398438"/>
      </g>
     </g>
    </g>
    <g id="ytick_5">
     <g id="line2d_10">
      <g>
       <use xlink:href="#m2c00ceda08" x="45.19" y="32.945552" style="fill: #262626; stroke: #262626; stroke-width: 0.8"/>
      </g>
     </g>
     <g id="text_11">
      <!-- 1.0 -->
      <g style="fill: #262626" transform="translate(28.07 35.808677)scale(0.08 -0.08)">
       <use xlink:href="#ArialMT-31"/>
       <use xlink:href="#ArialMT-2e" x="55.615234"/>
       <use xlink:href="#ArialMT-30" x="83.398438"/>
      </g>
     </g>
    </g>
    <g id="text_12">
     <!-- expr. norm. -->
     <g style="fill: #262626" transform="translate(17.60875 76.887109)rotate(-90)scale(0.09 -0.09)">
      <defs>
       <path id="ArialMT-78" d="M 47 0 
L 1259 1725 
L 138 3319 
L 841 3319 
L 1350 2541 
Q 1494 2319 1581 2169 
Q 1719 2375 1834 2534 
L 2394 3319 
L 3066 3319 
L 1919 1756 
L 3153 0 
L 2463 0 
L 1781 1031 
L 1600 1309 
L 728 0 
L 47 0 
z
" transform="scale(0.015625)"/>
       <path id="ArialMT-70" d="M 422 -1272 
L 422 3319 
L 934 3319 
L 934 2888 
Q 1116 3141 1344 3267 
Q 1572 3394 1897 3394 
Q 2322 3394 2647 3175 
Q 2972 2956 3137 2557 
Q 3303 2159 3303 1684 
Q 3303 1175 3120 767 
Q 2938 359 2589 142 
Q 2241 -75 1856 -75 
Q 1575 -75 1351 44 
Q 1128 163 984 344 
L 984 -1272 
L 422 -1272 
z
M 931 1641 
Q 931 1000 1190 694 
Q 1450 388 1819 388 
Q 2194 388 2461 705 
Q 2728 1022 2728 1688 
Q 2728 2322 2467 2637 
Q 2206 2953 1844 2953 
Q 1484 2953 1207 2617 
Q 931 2281 931 1641 
z
" transform="scale(0.015625)"/>
       <path id="ArialMT-72" d="M 416 0 
L 416 3319 
L 922 3319 
L 922 2816 
Q 1116 3169 1280 3281 
Q 1444 3394 1641 3394 
Q 1925 3394 2219 3213 
L 2025 2691 
Q 1819 2813 1613 2813 
Q 1428 2813 1281 2702 
Q 1134 2591 1072 2394 
Q 978 2094 978 1738 
L 978 0 
L 416 0 
z
" transform="scale(0.015625)"/>
       <path id="ArialMT-6e" d="M 422 0 
L 422 3319 
L 928 3319 
L 928 2847 
Q 1294 3394 1984 3394 
Q 2284 3394 2536 3286 
Q 2788 3178 2913 3003 
Q 3038 2828 3088 2588 
Q 3119 2431 3119 2041 
L 3119 0 
L 2556 0 
L 2556 2019 
Q 2556 2363 2490 2533 
Q 2425 2703 2258 2804 
Q 2091 2906 1866 2906 
Q 1506 2906 1245 2678 
Q 984 2450 984 1813 
L 984 0 
L 422 0 
z
" transform="scale(0.015625)"/>
       <path id="ArialMT-6f" d="M 213 1659 
Q 213 2581 725 3025 
Q 1153 3394 1769 3394 
Q 2453 3394 2887 2945 
Q 3322 2497 3322 1706 
Q 3322 1066 3130 698 
Q 2938 331 2570 128 
Q 2203 -75 1769 -75 
Q 1072 -75 642 372 
Q 213 819 213 1659 
z
M 791 1659 
Q 791 1022 1069 705 
Q 1347 388 1769 388 
Q 2188 388 2466 706 
Q 2744 1025 2744 1678 
Q 2744 2294 2464 2611 
Q 2184 2928 1769 2928 
Q 1347 2928 1069 2612 
Q 791 2297 791 1659 
z
" transform="scale(0.015625)"/>
      </defs>
      <use xlink:href="#ArialMT-65"/>
      <use xlink:href="#ArialMT-78" x="55.615234"/>
      <use xlink:href="#ArialMT-70" x="105.615234"/>
      <use xlink:href="#ArialMT-72" x="161.230469"/>
      <use xlink:href="#ArialMT-2e" x="189.03125"/>
      <use xlink:href="#ArialMT-20" x="216.814453"/>
      <use xlink:href="#ArialMT-6e" x="244.597656"/>
      <use xlink:href="#ArialMT-6f" x="300.212891"/>
      <use xlink:href="#ArialMT-72" x="355.828125"/>
      <use xlink:href="#ArialMT-6d" x="389.128906"/>
      <use xlink:href="#ArialMT-2e" x="472.429688"/>
     </g>
    </g>
   </g>
   <g id="line2d_11">
    <path d="M 47.397264 59.212151 
L 47.843175 59.212129 
L 48.289087 53.353987 
L 48.734999 46.078932 
L 49.180911 46.078851 
L 49.626823 46.078851 
L 50.072735 46.078851 
L 50.518646 46.078851 
L 50.964558 46.078851 
L 51.41047 46.078851 
L 51.856382 46.078851 
L 52.302294 46.078851 
L 52.748206 46.078851 
L 53.194117 46.078851 
L 53.640029 46.078851 
L 54.085941 46.078851 
L 54.531853 46.078851 
L 54.977765 46.078851 
L 55.423677 46.078851 
L 55.869588 46.078851 
L 56.3155 46.078851 
L 56.761412 46.078851 
L 57.207324 46.078851 
L 57.653236 46.078851 
L 58.099148 46.078851 
L 58.545059 46.078851 
L 58.990971 46.078851 
L 59.436883 46.078851 
L 59.882795 46.078851 
L 60.328707 46.078851 
L 60.774619 46.078851 
L 61.22053 46.078851 
L 61.666442 46.078851 
L 62.112354 46.078851 
L 62.558266 46.078851 
L 63.004178 46.078851 
L 63.45009 46.078851 
L 63.896001 46.078851 
L 64.341913 46.078851 
L 64.787825 46.078851 
L 65.233737 46.078851 
L 65.679649 46.078851 
L 66.125561 46.078851 
L 66.571472 46.078851 
L 67.017384 46.078851 
L 67.463296 46.078851 
L 67.909208 46.078851 
L 68.35512 46.078851 
L 68.801032 46.078851 
L 69.246943 46.078851 
L 69.692855 46.078851 
L 70.138767 46.078851 
L 70.584679 46.078851 
L 71.030591 46.078851 
L 71.476503 46.078851 
L 71.922414 46.078851 
L 72.368326 46.078851 
L 72.814238 46.078851 
L 73.26015 46.078851 
L 73.706062 46.078851 
L 74.151974 46.078851 
L 74.597885 46.078851 
L 75.043797 46.078757 
L 75.489709 38.622382 
L 75.935621 32.945571 
L 76.381533 32.945552 
L 76.827445 32.945552 
L 77.273357 32.945552 
L 77.719268 32.945552 
L 78.16518 32.945552 
L 78.611092 32.945552 
L 79.057004 32.945552 
L 79.502916 32.945552 
L 79.948828 32.945552 
L 80.394739 32.945552 
L 80.840651 32.945552 
L 81.286563 32.945552 
L 81.732475 32.945552 
L 82.178387 32.945552 
L 82.624299 32.945552 
L 83.07021 32.945552 
L 83.516122 32.945552 
L 83.962034 32.945552 
L 84.407946 32.945552 
L 84.853858 32.945552 
L 85.29977 32.945552 
L 85.745681 32.945552 
L 86.191593 32.945552 
L 86.637505 32.945552 
L 87.083417 32.945552 
L 87.529329 32.945552 
L 87.975241 32.945552 
L 88.421152 32.945552 
L 88.867064 32.945552 
L 89.312976 32.945552 
L 89.758888 32.945552 
L 90.2048 32.945552 
L 90.650712 32.945552 
L 91.096623 32.945552 
L 91.542535 32.945552 
" clip-path="url(#p3f18d7d7c9)" style="fill: none; stroke: #800080; stroke-width: 2; stroke-linecap: round"/>
   </g>
   <g id="patch_3">
    <path d="M 45.19 85.47875 
L 45.19 23.28 
" style="fill: none; stroke: #262626; stroke-linejoin: miter; stroke-linecap: square"/>
   </g>
   <g id="patch_4">
    <path d="M 109.72 85.47875 
L 109.72 23.28 
" style="fill: none; stroke: #262626; stroke-linejoin: miter; stroke-linecap: square"/>
   </g>
   <g id="patch_5">
    <path d="M 45.19 85.47875 
L 109.72 85.47875 
" style="fill: none; stroke: #262626; stroke-linejoin: miter; stroke-linecap: square"/>
   </g>
   <g id="patch_6">
    <path d="M 45.19 23.28 
L 109.72 23.28 
" style="fill: none; stroke: #262626; stroke-linejoin: miter; stroke-linecap: square"/>
   </g>
   <g id="line2d_12">
    <path d="M 47.397264 59.212151 
L 47.843175 58.388454 
L 48.289087 57.419694 
L 48.734999 56.421489 
L 49.180911 55.423447 
L 49.626823 54.439783 
L 50.072735 53.478454 
L 50.518646 52.54419 
L 50.964558 51.639831 
L 51.41047 50.767016 
L 51.856382 49.926586 
L 52.302294 49.11883 
L 52.748206 48.343644 
L 53.194117 47.600649 
L 53.640029 46.889262 
L 54.085941 46.208757 
L 54.531853 45.558306 
L 54.977765 44.937009 
L 55.423677 44.343919 
L 55.869588 43.778062 
L 56.3155 43.238448 
L 56.761412 42.724083 
L 57.207324 42.233979 
L 57.653236 41.767157 
L 58.099148 41.322658 
L 58.545059 40.899539 
L 58.990971 40.496884 
L 59.436883 40.1138 
L 59.882795 39.749421 
L 60.328707 39.40291 
L 60.774619 39.073457 
L 61.22053 38.760282 
L 61.666442 38.462634 
L 62.112354 38.179789 
L 62.558266 37.911054 
L 63.004178 37.655762 
L 63.45009 37.413274 
L 63.896001 37.182979 
L 64.341913 36.96429 
L 64.787825 36.756646 
L 65.233737 36.559513 
L 65.679649 36.372377 
L 66.125561 36.194749 
L 66.571472 36.026163 
L 67.017384 35.866173 
L 67.463296 35.714353 
L 67.909208 35.570299 
L 68.35512 35.433624 
L 68.801032 35.30396 
L 69.246943 35.180957 
L 69.692855 35.06428 
L 70.138767 34.953612 
L 70.584679 34.848649 
L 71.030591 34.749104 
L 71.476503 34.654704 
L 71.922414 34.565186 
L 72.368326 34.480304 
L 72.814238 34.399821 
L 73.26015 34.323514 
L 73.706062 34.25117 
L 74.151974 34.182586 
L 74.597885 34.117569 
L 75.043797 34.055937 
L 75.489709 33.997516 
L 75.935621 33.942141 
L 76.381533 33.889656 
L 76.827445 33.839912 
L 77.273357 33.792767 
L 77.719268 33.748087 
L 78.16518 33.705745 
L 78.611092 33.66562 
L 79.057004 33.627597 
L 79.502916 33.591567 
L 79.948828 33.557428 
L 80.394739 33.52508 
L 80.840651 33.49443 
L 81.286563 33.465391 
L 81.732475 33.437878 
L 82.178387 33.411813 
L 82.624299 33.387119 
L 83.07021 33.363724 
L 83.516122 33.341562 
L 83.962034 33.320568 
L 84.407946 33.300681 
L 84.853858 33.281842 
L 85.29977 33.263998 
L 85.745681 33.247095 
L 86.191593 33.231085 
L 86.637505 33.21592 
L 87.083417 33.201557 
L 87.529329 33.187954 
L 87.975241 33.175069 
L 88.421152 33.162867 
L 88.867064 33.15131 
L 89.312976 33.140365 
L 89.758888 33.13 
L 90.2048 33.120184 
L 90.650712 33.110888 
L 91.096623 33.102084 
L 91.542535 33.093748 
" clip-path="url(#p3f18d7d7c9)" style="fill: none; stroke: #1f77b4; stroke-width: 2; stroke-linecap: round"/>
   </g>
   <g id="text_13">
    <!-- Capn3 -->
    <g style="fill: #262626" transform="translate(64.195469 17.28)scale(0.09 -0.09)">
     <defs>
      <path id="Arial-ItalicMT-43" d="M 3859 1613 
L 4466 1528 
Q 4178 734 3628 328 
Q 3078 -78 2394 -78 
Q 1559 -78 1070 431 
Q 581 941 581 1891 
Q 581 3128 1325 3938 
Q 1988 4659 2972 4659 
Q 3700 4659 4151 4268 
Q 4603 3878 4675 3219 
L 4103 3166 
Q 4013 3663 3730 3908 
Q 3447 4153 3000 4153 
Q 2159 4153 1641 3406 
Q 1191 2763 1191 1878 
Q 1191 1172 1537 800 
Q 1884 428 2441 428 
Q 2916 428 3300 737 
Q 3684 1047 3859 1613 
z
" transform="scale(0.015625)"/>
      <path id="Arial-ItalicMT-61" d="M 2450 413 
Q 2156 159 1884 42 
Q 1613 -75 1303 -75 
Q 844 -75 562 195 
Q 281 466 281 888 
Q 281 1166 407 1380 
Q 534 1594 743 1723 
Q 953 1853 1256 1909 
Q 1447 1947 1980 1969 
Q 2513 1991 2744 2081 
Q 2809 2313 2809 2466 
Q 2809 2663 2666 2775 
Q 2469 2931 2091 2931 
Q 1734 2931 1507 2773 
Q 1281 2616 1178 2325 
L 606 2375 
Q 781 2869 1161 3131 
Q 1541 3394 2119 3394 
Q 2734 3394 3094 3100 
Q 3369 2881 3369 2531 
Q 3369 2266 3291 1916 
L 3106 1091 
Q 3019 697 3019 450 
Q 3019 294 3088 0 
L 2516 0 
Q 2469 163 2450 413 
z
M 2659 1681 
Q 2541 1634 2405 1609 
Q 2269 1584 1950 1556 
Q 1456 1513 1253 1445 
Q 1050 1378 947 1231 
Q 844 1084 844 906 
Q 844 669 1008 516 
Q 1172 363 1475 363 
Q 1756 363 2015 511 
Q 2275 659 2425 925 
Q 2575 1191 2659 1681 
z
" transform="scale(0.015625)"/>
      <path id="Arial-ItalicMT-70" d="M -66 -1272 
L 894 3319 
L 1416 3319 
L 1319 2856 
Q 1609 3159 1839 3276 
Q 2069 3394 2325 3394 
Q 2800 3394 3112 3048 
Q 3425 2703 3425 2059 
Q 3425 1541 3253 1114 
Q 3081 688 2831 428 
Q 2581 169 2325 47 
Q 2069 -75 1800 -75 
Q 1203 -75 875 531 
L 500 -1272 
L -66 -1272 
z
M 1053 1356 
Q 1053 984 1106 841 
Q 1184 638 1362 513 
Q 1541 388 1775 388 
Q 2263 388 2563 936 
Q 2863 1484 2863 2056 
Q 2863 2478 2661 2708 
Q 2459 2938 2159 2938 
Q 1944 2938 1759 2823 
Q 1575 2709 1417 2482 
Q 1259 2256 1156 1928 
Q 1053 1600 1053 1356 
z
" transform="scale(0.015625)"/>
      <path id="Arial-ItalicMT-6e" d="M 213 0 
L 906 3319 
L 1419 3319 
L 1297 2741 
Q 1631 3081 1922 3237 
Q 2213 3394 2516 3394 
Q 2919 3394 3148 3175 
Q 3378 2956 3378 2591 
Q 3378 2406 3297 2009 
L 2875 0 
L 2309 0 
L 2750 2103 
Q 2816 2409 2816 2556 
Q 2816 2722 2702 2825 
Q 2588 2928 2372 2928 
Q 1938 2928 1598 2615 
Q 1259 2303 1100 1544 
L 778 0 
L 213 0 
z
" transform="scale(0.015625)"/>
      <path id="Arial-ItalicMT-33" d="M 350 1200 
L 900 1269 
Q 963 788 1177 580 
Q 1391 372 1738 372 
Q 2156 372 2461 672 
Q 2766 972 2766 1359 
Q 2766 1697 2537 1917 
Q 2309 2138 1925 2138 
Q 1881 2138 1744 2125 
L 1841 2597 
Q 1922 2584 1997 2584 
Q 2481 2584 2742 2820 
Q 3003 3056 3003 3400 
Q 3003 3716 2789 3931 
Q 2575 4147 2266 4147 
Q 1963 4147 1720 3926 
Q 1478 3706 1409 3303 
L 853 3416 
Q 991 3981 1381 4290 
Q 1772 4600 2306 4600 
Q 2869 4600 3217 4259 
Q 3566 3919 3566 3422 
Q 3566 3059 3377 2789 
Q 3188 2519 2809 2341 
Q 3078 2181 3211 1956 
Q 3344 1731 3344 1441 
Q 3344 825 2883 373 
Q 2422 -78 1781 -78 
Q 1159 -78 776 270 
Q 394 619 350 1200 
z
" transform="scale(0.015625)"/>
     </defs>
     <use xlink:href="#Arial-ItalicMT-43"/>
     <use xlink:href="#Arial-ItalicMT-61" x="72.216797"/>
     <use xlink:href="#Arial-ItalicMT-70" x="127.832031"/>
     <use xlink:href="#Arial-ItalicMT-6e" x="183.447266"/>
     <use xlink:href="#Arial-ItalicMT-33" x="239.0625"/>
    </g>
   </g>
   <g id="line2d_13">
    <path d="M 47.397264 59.212151 
L 47.843175 57.983003 
L 48.289087 56.811374 
L 48.734999 55.69457 
L 49.180911 54.630028 
L 49.626823 53.615301 
L 50.072735 52.648058 
L 50.518646 51.726078 
L 50.964558 50.847242 
L 51.41047 50.00953 
L 51.856382 49.21102 
L 52.302294 48.449876 
L 52.748206 47.72435 
L 53.194117 47.032775 
L 53.640029 46.373562 
L 54.085941 45.745197 
L 54.531853 45.146237 
L 54.977765 44.575304 
L 55.423677 44.031089 
L 55.869588 43.512341 
L 56.3155 43.017867 
L 56.761412 42.546532 
L 57.207324 42.097253 
L 57.653236 41.668999 
L 58.099148 41.260784 
L 58.545059 40.871672 
L 58.990971 40.500769 
L 59.436883 40.147222 
L 59.882795 39.810219 
L 60.328707 39.488986 
L 60.774619 39.182786 
L 61.22053 38.890914 
L 61.666442 38.6127 
L 62.112354 38.347505 
L 62.558266 38.09472 
L 63.004178 37.853765 
L 63.45009 37.624084 
L 63.896001 37.405152 
L 64.341913 37.196465 
L 64.787825 36.997543 
L 65.233737 36.80793 
L 65.679649 36.627189 
L 66.125561 36.454907 
L 66.571472 36.290686 
L 67.017384 36.13415 
L 67.463296 35.98494 
L 67.909208 35.842711 
L 68.35512 35.707138 
L 68.801032 35.57791 
L 69.246943 35.454728 
L 69.692855 35.337311 
L 70.138767 35.225389 
L 70.584679 35.118703 
L 71.030591 35.017011 
L 71.476503 34.920077 
L 71.922414 34.827679 
L 72.368326 34.739604 
L 72.814238 34.655651 
L 73.26015 34.575627 
L 73.706062 34.499348 
L 74.151974 34.426638 
L 74.597885 34.35733 
L 75.043797 34.291266 
L 75.489709 34.228293 
L 75.935621 34.168267 
L 76.381533 34.11105 
L 76.827445 34.05651 
L 77.273357 34.004523 
L 77.719268 33.954968 
L 78.16518 33.907733 
L 78.611092 33.862707 
L 79.057004 33.819789 
L 79.502916 33.778879 
L 79.948828 33.739883 
L 80.394739 33.702713 
L 80.840651 33.667281 
L 81.286563 33.633508 
L 81.732475 33.601315 
L 82.178387 33.570628 
L 82.624299 33.541378 
L 83.07021 33.513496 
L 83.516122 33.486919 
L 83.962034 33.461586 
L 84.407946 33.437438 
L 84.853858 33.41442 
L 85.29977 33.392479 
L 85.745681 33.371565 
L 86.191593 33.35163 
L 86.637505 33.332628 
L 87.083417 33.314514 
L 87.529329 33.297249 
L 87.975241 33.280791 
L 88.421152 33.265103 
L 88.867064 33.25015 
L 89.312976 33.235896 
L 89.758888 33.22231 
L 90.2048 33.209359 
L 90.650712 33.197014 
L 91.096623 33.185247 
L 91.542535 33.17403 
" clip-path="url(#p3f18d7d7c9)" style="fill: none; stroke: #2ca02c; stroke-width: 2; stroke-linecap: round"/>
   </g>
   <g id="PathCollection_1">
    <defs>
     <path id="m9faa8449cc" d="M 0 1.581139 
C 0.419323 1.581139 0.821528 1.41454 1.118034 1.118034 
C 1.41454 0.821528 1.581139 0.419323 1.581139 0 
C 1.581139 -0.419323 1.41454 -0.821528 1.118034 -1.118034 
C 0.821528 -1.41454 0.419323 -1.581139 0 -1.581139 
C -0.419323 -1.581139 -0.821528 -1.41454 -1.118034 -1.118034 
C -1.41454 -0.821528 -1.581139 -0.419323 -1.581139 0 
C -1.581139 0.419323 -1.41454 0.821528 -1.118034 1.118034 
C -0.821528 1.41454 -0.419323 1.581139 0 1.581139 
z
" style="stroke: #ffffff; stroke-width: 0.252982"/>
    </defs>
    <g clip-path="url(#p3f18d7d7c9)">
     <use xlink:href="#m9faa8449cc" x="47.397264" y="59.212151" style="stroke: #ffffff; stroke-width: 0.252982"/>
     <use xlink:href="#m9faa8449cc" x="47.397264" y="59.212151" style="stroke: #ffffff; stroke-width: 0.252982"/>
     <use xlink:href="#m9faa8449cc" x="59.082777" y="54.03002" style="stroke: #ffffff; stroke-width: 0.252982"/>
     <use xlink:href="#m9faa8449cc" x="59.082777" y="54.03002" style="stroke: #ffffff; stroke-width: 0.252982"/>
     <use xlink:href="#m9faa8449cc" x="62.977948" y="34.572553" style="stroke: #ffffff; stroke-width: 0.252982"/>
     <use xlink:href="#m9faa8449cc" x="62.977948" y="34.572553" style="stroke: #ffffff; stroke-width: 0.252982"/>
     <use xlink:href="#m9faa8449cc" x="78.558632" y="32.945552" style="stroke: #ffffff; stroke-width: 0.252982"/>
    </g>
   </g>
   <g id="LineCollection_1">
    <path d="M 47.397264 62.455126 
L 47.397264 55.969176 
" clip-path="url(#p3f18d7d7c9)" style="fill: none; stroke: #000000"/>
    <path d="M 47.397264 62.455126 
L 47.397264 55.969176 
" clip-path="url(#p3f18d7d7c9)" style="fill: none; stroke: #000000"/>
    <path d="M 59.082777 58.115685 
L 59.082777 49.944355 
" clip-path="url(#p3f18d7d7c9)" style="fill: none; stroke: #000000"/>
    <path d="M 59.082777 58.115685 
L 59.082777 49.944355 
" clip-path="url(#p3f18d7d7c9)" style="fill: none; stroke: #000000"/>
    <path d="M 62.977948 43.999624 
L 62.977948 25.145482 
" clip-path="url(#p3f18d7d7c9)" style="fill: none; stroke: #000000"/>
    <path d="M 62.977948 43.999624 
L 62.977948 25.145482 
" clip-path="url(#p3f18d7d7c9)" style="fill: none; stroke: #000000"/>
    <path d="M 78.558632 33.585746 
L 78.558632 32.305358 
" clip-path="url(#p3f18d7d7c9)" style="fill: none; stroke: #000000"/>
   </g>
   <g id="line2d_14">
    <defs>
     <path id="m63c6b9ab6c" d="M 2 0 
L -2 -0 
" style="stroke: #000000"/>
    </defs>
    <g clip-path="url(#p3f18d7d7c9)">
     <use xlink:href="#m63c6b9ab6c" x="47.397264" y="62.455126" style="stroke: #000000"/>
     <use xlink:href="#m63c6b9ab6c" x="47.397264" y="62.455126" style="stroke: #000000"/>
     <use xlink:href="#m63c6b9ab6c" x="59.082777" y="58.115685" style="stroke: #000000"/>
     <use xlink:href="#m63c6b9ab6c" x="59.082777" y="58.115685" style="stroke: #000000"/>
     <use xlink:href="#m63c6b9ab6c" x="62.977948" y="43.999624" style="stroke: #000000"/>
     <use xlink:href="#m63c6b9ab6c" x="62.977948" y="43.999624" style="stroke: #000000"/>
     <use xlink:href="#m63c6b9ab6c" x="78.558632" y="33.585746" style="stroke: #000000"/>
    </g>
   </g>
   <g id="line2d_15">
    <g clip-path="url(#p3f18d7d7c9)">
     <use xlink:href="#m63c6b9ab6c" x="47.397264" y="55.969176" style="stroke: #000000"/>
     <use xlink:href="#m63c6b9ab6c" x="47.397264" y="55.969176" style="stroke: #000000"/>
     <use xlink:href="#m63c6b9ab6c" x="59.082777" y="49.944355" style="stroke: #000000"/>
     <use xlink:href="#m63c6b9ab6c" x="59.082777" y="49.944355" style="stroke: #000000"/>
     <use xlink:href="#m63c6b9ab6c" x="62.977948" y="25.145482" style="stroke: #000000"/>
     <use xlink:href="#m63c6b9ab6c" x="62.977948" y="25.145482" style="stroke: #000000"/>
     <use xlink:href="#m63c6b9ab6c" x="78.558632" y="32.305358" style="stroke: #000000"/>
    </g>
   </g>
  </g>
  <g id="axes_2">
   <g id="patch_7">
    <path d="M 128.93 85.47875 
L 193.46 85.47875 
L 193.46 23.28 
L 128.93 23.28 
z
" style="fill: #ffffff"/>
   </g>
   <g id="matplotlib.axis_3">
    <g id="xtick_6">
     <g id="line2d_16">
      <g>
       <use xlink:href="#mc4d8702ba5" x="131.863182" y="85.47875" style="fill: #262626; stroke: #262626; stroke-width: 0.8"/>
      </g>
     </g>
     <g id="text_14">
      <!-- 0 -->
      <g style="fill: #262626" transform="translate(129.638807 97.205)scale(0.08 -0.08)">
       <use xlink:href="#ArialMT-30"/>
      </g>
     </g>
    </g>
    <g id="xtick_7">
     <g id="line2d_17">
      <g>
       <use xlink:href="#mc4d8702ba5" x="145.400944" y="85.47875" style="fill: #262626; stroke: #262626; stroke-width: 0.8"/>
      </g>
     </g>
     <g id="text_15">
      <!-- 24 -->
      <g style="fill: #262626" transform="translate(140.952194 97.205)scale(0.08 -0.08)">
       <use xlink:href="#ArialMT-32"/>
       <use xlink:href="#ArialMT-34" x="55.615234"/>
      </g>
     </g>
    </g>
    <g id="xtick_8">
     <g id="line2d_18">
      <g>
       <use xlink:href="#mc4d8702ba5" x="158.938706" y="85.47875" style="fill: #262626; stroke: #262626; stroke-width: 0.8"/>
      </g>
     </g>
     <g id="text_16">
      <!-- 48 -->
      <g style="fill: #262626" transform="translate(154.489956 97.205)scale(0.08 -0.08)">
       <use xlink:href="#ArialMT-34"/>
       <use xlink:href="#ArialMT-38" x="55.615234"/>
      </g>
     </g>
    </g>
    <g id="xtick_9">
     <g id="line2d_19">
      <g>
       <use xlink:href="#mc4d8702ba5" x="172.476469" y="85.47875" style="fill: #262626; stroke: #262626; stroke-width: 0.8"/>
      </g>
     </g>
     <g id="text_17">
      <!-- 72 -->
      <g style="fill: #262626" transform="translate(168.027719 97.205)scale(0.08 -0.08)">
       <use xlink:href="#ArialMT-37"/>
       <use xlink:href="#ArialMT-32" x="55.615234"/>
      </g>
     </g>
    </g>
    <g id="xtick_10">
     <g id="line2d_20">
      <g>
       <use xlink:href="#mc4d8702ba5" x="186.014231" y="85.47875" style="fill: #262626; stroke: #262626; stroke-width: 0.8"/>
      </g>
     </g>
     <g id="text_18">
      <!-- 96 -->
      <g style="fill: #262626" transform="translate(181.565481 97.205)scale(0.08 -0.08)">
       <use xlink:href="#ArialMT-39"/>
       <use xlink:href="#ArialMT-36" x="55.615234"/>
      </g>
     </g>
    </g>
    <g id="text_19">
     <!-- time (h) -->
     <g style="fill: #262626" transform="translate(145.944922 109.346719)scale(0.09 -0.09)">
      <use xlink:href="#ArialMT-74"/>
      <use xlink:href="#ArialMT-69" x="27.783203"/>
      <use xlink:href="#ArialMT-6d" x="50"/>
      <use xlink:href="#ArialMT-65" x="133.300781"/>
      <use xlink:href="#ArialMT-20" x="188.916016"/>
      <use xlink:href="#ArialMT-28" x="216.699219"/>
      <use xlink:href="#ArialMT-68" x="250"/>
      <use xlink:href="#ArialMT-29" x="305.615234"/>
     </g>
    </g>
   </g>
   <g id="matplotlib.axis_4">
    <g id="ytick_6">
     <g id="line2d_21">
      <g>
       <use xlink:href="#m2c00ceda08" x="128.93" y="85.47875" style="fill: #262626; stroke: #262626; stroke-width: 0.8"/>
      </g>
     </g>
    </g>
    <g id="ytick_7">
     <g id="line2d_22">
      <g>
       <use xlink:href="#m2c00ceda08" x="128.93" y="72.514148" style="fill: #262626; stroke: #262626; stroke-width: 0.8"/>
      </g>
     </g>
    </g>
    <g id="ytick_8">
     <g id="line2d_23">
      <g>
       <use xlink:href="#m2c00ceda08" x="128.93" y="59.549546" style="fill: #262626; stroke: #262626; stroke-width: 0.8"/>
      </g>
     </g>
    </g>
    <g id="ytick_9">
     <g id="line2d_24">
      <g>
       <use xlink:href="#m2c00ceda08" x="128.93" y="46.584944" style="fill: #262626; stroke: #262626; stroke-width: 0.8"/>
      </g>
     </g>
    </g>
    <g id="ytick_10">
     <g id="line2d_25">
      <g>
       <use xlink:href="#m2c00ceda08" x="128.93" y="33.620342" style="fill: #262626; stroke: #262626; stroke-width: 0.8"/>
      </g>
     </g>
    </g>
   </g>
   <g id="line2d_26">
    <path d="M 131.863182 59.549546 
L 132.455744 59.549546 
L 133.048306 59.549546 
L 133.640868 59.549546 
L 134.23343 59.549546 
L 134.825992 59.549546 
L 135.418554 59.549546 
L 136.011116 59.549546 
L 136.603678 59.549546 
L 137.19624 59.549546 
L 137.788802 59.549546 
L 138.381364 59.549546 
L 138.973926 59.549546 
L 139.566488 59.549546 
L 140.15905 59.549546 
L 140.751612 59.549546 
L 141.344174 59.549546 
L 141.936736 59.549546 
L 142.529298 59.549546 
L 143.12186 59.549546 
L 143.714421 59.549546 
L 144.306983 59.549546 
L 144.899545 59.549546 
L 145.492107 59.549546 
L 146.084669 59.549546 
L 146.677231 59.549546 
L 147.269793 59.549546 
L 147.862355 59.549546 
L 148.454917 59.549546 
L 149.047479 59.549546 
L 149.640041 59.549546 
L 150.232603 59.549546 
L 150.825165 59.549546 
L 151.417727 59.549546 
L 152.010289 59.549546 
L 152.602851 59.549546 
L 153.195413 59.549546 
L 153.787975 59.549546 
L 154.380537 59.549546 
L 154.973099 59.549546 
L 155.565661 59.549546 
L 156.158223 59.549546 
L 156.750785 59.549546 
L 157.343347 59.549546 
L 157.935909 59.549546 
L 158.528471 59.549546 
L 159.121033 59.549546 
L 159.713595 59.549546 
L 160.306157 59.549546 
L 160.898719 59.549546 
L 161.491281 59.549546 
L 162.083843 59.549546 
L 162.676405 59.549546 
L 163.268967 59.549546 
L 163.861529 59.549546 
L 164.454091 59.549546 
L 165.046653 59.549546 
L 165.639215 59.549546 
L 166.231777 59.549546 
L 166.824339 59.549546 
L 167.416901 59.549546 
L 168.009463 59.549546 
L 168.602025 59.549546 
L 169.194587 59.549546 
L 169.787149 59.549546 
L 170.379711 59.549546 
L 170.972273 59.549546 
L 171.564835 59.549546 
L 172.157397 59.549546 
L 172.749959 59.549546 
L 173.342521 59.549546 
L 173.935083 59.549546 
L 174.527645 59.549546 
L 175.120207 59.549546 
L 175.712769 59.549546 
L 176.305331 59.549546 
L 176.897893 59.549546 
L 177.490455 46.584944 
L 178.083017 46.584944 
L 178.675579 46.584944 
L 179.26814 33.620342 
L 179.860702 33.620342 
L 180.453264 33.620342 
L 181.045826 33.620342 
L 181.638388 33.620342 
L 182.23095 33.620342 
L 182.823512 33.620342 
L 183.416074 33.620342 
L 184.008636 33.620342 
L 184.601198 33.620342 
L 185.19376 33.620342 
L 185.786322 33.620342 
L 186.378884 33.620342 
L 186.971446 33.620342 
L 187.564008 33.620342 
L 188.15657 33.620342 
L 188.749132 33.620342 
L 189.341694 33.620342 
L 189.934256 33.620342 
L 190.526818 33.620342 
" clip-path="url(#p036be6a753)" style="fill: none; stroke: #800080; stroke-width: 2; stroke-linecap: round"/>
   </g>
   <g id="patch_8">
    <path d="M 128.93 85.47875 
L 128.93 23.28 
" style="fill: none; stroke: #262626; stroke-linejoin: miter; stroke-linecap: square"/>
   </g>
   <g id="patch_9">
    <path d="M 193.46 85.47875 
L 193.46 23.28 
" style="fill: none; stroke: #262626; stroke-linejoin: miter; stroke-linecap: square"/>
   </g>
   <g id="patch_10">
    <path d="M 128.93 85.47875 
L 193.46 85.47875 
" style="fill: none; stroke: #262626; stroke-linejoin: miter; stroke-linecap: square"/>
   </g>
   <g id="patch_11">
    <path d="M 128.93 23.28 
L 193.46 23.28 
" style="fill: none; stroke: #262626; stroke-linejoin: miter; stroke-linecap: square"/>
   </g>
   <g id="line2d_27">
    <path clip-path="url(#p036be6a753)" style="fill: none; stroke: #1f77b4; stroke-width: 2; stroke-linecap: round"/>
   </g>
   <g id="text_20">
    <!-- Ifitm3 -->
    <g style="fill: #262626" transform="translate(150.193906 17.28)scale(0.09 -0.09)">
     <defs>
      <path id="Arial-ItalicMT-49" d="M 366 0 
L 1325 4581 
L 1934 4581 
L 978 0 
L 366 0 
z
" transform="scale(0.015625)"/>
      <path id="Arial-ItalicMT-66" d="M 291 0 
L 894 2881 
L 388 2881 
L 478 3319 
L 984 3319 
L 1081 3791 
Q 1156 4144 1236 4300 
Q 1316 4456 1495 4557 
Q 1675 4659 1984 4659 
Q 2200 4659 2609 4569 
L 2506 4075 
Q 2219 4150 2025 4150 
Q 1859 4150 1773 4067 
Q 1688 3984 1625 3675 
L 1550 3319 
L 2181 3319 
L 2091 2881 
L 1459 2881 
L 856 0 
L 291 0 
z
" transform="scale(0.015625)"/>
      <path id="Arial-ItalicMT-69" d="M 1016 3941 
L 1150 4581 
L 1713 4581 
L 1578 3941 
L 1016 3941 
z
M 191 0 
L 884 3319 
L 1450 3319 
L 756 0 
L 191 0 
z
" transform="scale(0.015625)"/>
      <path id="Arial-ItalicMT-74" d="M 1534 459 
L 1441 -3 
Q 1238 -56 1047 -56 
Q 709 -56 509 109 
Q 359 234 359 450 
Q 359 559 441 953 
L 844 2881 
L 397 2881 
L 488 3319 
L 934 3319 
L 1106 4134 
L 1753 4525 
L 1500 3319 
L 2056 3319 
L 1963 2881 
L 1409 2881 
L 1025 1047 
Q 953 697 953 628 
Q 953 528 1011 475 
Q 1069 422 1200 422 
Q 1388 422 1534 459 
z
" transform="scale(0.015625)"/>
      <path id="Arial-ItalicMT-6d" d="M 209 0 
L 903 3319 
L 1469 3319 
L 1353 2772 
Q 1669 3125 1917 3259 
Q 2166 3394 2456 3394 
Q 2766 3394 2973 3230 
Q 3181 3066 3247 2772 
Q 3500 3084 3779 3239 
Q 4059 3394 4369 3394 
Q 4784 3394 4992 3197 
Q 5200 3000 5200 2644 
Q 5200 2491 5128 2138 
L 4681 0 
L 4116 0 
L 4572 2194 
Q 4631 2463 4631 2578 
Q 4631 2741 4528 2834 
Q 4425 2928 4238 2928 
Q 3984 2928 3721 2775 
Q 3459 2622 3314 2373 
Q 3169 2125 3059 1609 
L 2722 0 
L 2156 0 
L 2625 2241 
Q 2675 2469 2675 2566 
Q 2675 2728 2573 2828 
Q 2472 2928 2309 2928 
Q 2069 2928 1805 2775 
Q 1541 2622 1375 2348 
Q 1209 2075 1103 1569 
L 775 0 
L 209 0 
z
" transform="scale(0.015625)"/>
     </defs>
     <use xlink:href="#Arial-ItalicMT-49"/>
     <use xlink:href="#Arial-ItalicMT-66" x="27.783203"/>
     <use xlink:href="#Arial-ItalicMT-69" x="55.566406"/>
     <use xlink:href="#Arial-ItalicMT-74" x="77.783203"/>
     <use xlink:href="#Arial-ItalicMT-6d" x="105.566406"/>
     <use xlink:href="#Arial-ItalicMT-33" x="188.867188"/>
    </g>
   </g>
   <g id="line2d_28">
    <path d="M 131.863182 59.549546 
L 132.455744 59.549546 
L 133.048306 59.549546 
L 133.640868 59.549546 
L 134.23343 59.549546 
L 134.825992 59.549546 
L 135.418554 59.549546 
L 136.011116 59.549546 
L 136.603678 59.549546 
L 137.19624 59.549546 
L 137.788802 59.549546 
L 138.381364 59.549546 
L 138.973926 59.549546 
L 139.566488 59.549546 
L 140.15905 59.549546 
L 140.751612 59.549546 
L 141.344174 59.549546 
L 141.936736 59.549546 
L 142.529298 59.549546 
L 143.12186 59.549546 
L 143.714421 59.549546 
L 144.306983 59.549546 
L 144.899545 59.549546 
L 145.492107 59.549546 
L 146.084669 59.549546 
L 146.677231 59.549546 
L 147.269793 59.549546 
L 147.862355 59.549546 
L 148.454917 59.549546 
L 149.047479 59.549546 
L 149.640041 59.549546 
L 150.232603 59.549546 
L 150.825165 59.549546 
L 151.417727 59.549546 
L 152.010289 59.549546 
L 152.602851 59.549546 
L 153.195413 59.549546 
L 153.787975 59.549546 
L 154.380537 59.549546 
L 154.973099 59.549546 
L 155.565661 59.549546 
L 156.158223 59.549546 
L 156.750785 59.549546 
L 157.343347 59.549546 
L 157.935909 59.549546 
L 158.528471 59.549546 
L 159.121033 59.549546 
L 159.713595 59.549546 
L 160.306157 59.549546 
L 160.898719 59.549546 
L 161.491281 59.549546 
L 162.083843 59.549546 
L 162.676405 59.549546 
L 163.268967 59.549546 
L 163.861529 59.549546 
L 164.454091 59.549546 
L 165.046653 59.549546 
L 165.639215 59.549546 
L 166.231777 59.549546 
L 166.824339 59.549546 
L 167.416901 59.549546 
L 168.009463 59.549546 
L 168.602025 59.549546 
L 169.194587 59.549546 
L 169.787149 59.549546 
L 170.379711 59.549546 
L 170.972273 59.549546 
L 171.564835 59.549546 
L 172.157397 59.549546 
L 172.749959 59.549546 
L 173.342521 59.549546 
L 173.935083 59.549546 
L 174.527645 59.549546 
L 175.120207 59.549546 
L 175.712769 59.549546 
L 176.305331 59.549546 
L 176.897893 59.549546 
L 177.490455 59.549546 
L 178.083017 59.549546 
L 178.675579 59.549546 
L 179.26814 59.549546 
L 179.860702 59.549546 
L 180.453264 59.549546 
L 181.045826 59.549546 
L 181.638388 59.549546 
L 182.23095 59.549546 
L 182.823512 59.549546 
L 183.416074 59.549546 
L 184.008636 59.549546 
L 184.601198 59.549546 
L 185.19376 59.549546 
L 185.786322 59.549546 
L 186.378884 59.549546 
L 186.971446 59.549546 
L 187.564008 59.549546 
L 188.15657 59.549546 
L 188.749132 59.549546 
L 189.341694 59.549546 
L 189.934256 59.549546 
L 190.526818 59.549546 
" clip-path="url(#p036be6a753)" style="fill: none; stroke: #2ca02c; stroke-width: 2; stroke-linecap: round"/>
   </g>
   <g id="PathCollection_2">
    <g clip-path="url(#p036be6a753)">
     <use xlink:href="#m9faa8449cc" x="131.863182" y="59.549546" style="stroke: #ffffff; stroke-width: 0.252982"/>
     <use xlink:href="#m9faa8449cc" x="131.863182" y="59.549546" style="stroke: #ffffff; stroke-width: 0.252982"/>
     <use xlink:href="#m9faa8449cc" x="142.016503" y="60.040988" style="stroke: #ffffff; stroke-width: 0.252982"/>
     <use xlink:href="#m9faa8449cc" x="142.016503" y="60.040988" style="stroke: #ffffff; stroke-width: 0.252982"/>
     <use xlink:href="#m9faa8449cc" x="145.400944" y="63.991146" style="stroke: #ffffff; stroke-width: 0.252982"/>
     <use xlink:href="#m9faa8449cc" x="145.400944" y="63.991146" style="stroke: #ffffff; stroke-width: 0.252982"/>
     <use xlink:href="#m9faa8449cc" x="158.938706" y="65.323946" style="stroke: #ffffff; stroke-width: 0.252982"/>
     <use xlink:href="#m9faa8449cc" x="158.938706" y="65.323946" style="stroke: #ffffff; stroke-width: 0.252982"/>
     <use xlink:href="#m9faa8449cc" x="135.247622" y="72.011899" style="stroke: #ffffff; stroke-width: 0.252982"/>
     <use xlink:href="#m9faa8449cc" x="135.247622" y="72.011899" style="stroke: #ffffff; stroke-width: 0.252982"/>
     <use xlink:href="#m9faa8449cc" x="179.24535" y="33.620342" style="stroke: #ffffff; stroke-width: 0.252982"/>
    </g>
   </g>
   <g id="LineCollection_2">
    <path d="M 131.863182 60.589658 
L 131.863182 58.509435 
" clip-path="url(#p036be6a753)" style="fill: none; stroke: #000000"/>
    <path d="M 131.863182 60.589658 
L 131.863182 58.509435 
" clip-path="url(#p036be6a753)" style="fill: none; stroke: #000000"/>
    <path d="M 142.016503 64.161501 
L 142.016503 55.920475 
" clip-path="url(#p036be6a753)" style="fill: none; stroke: #000000"/>
    <path d="M 142.016503 64.161501 
L 142.016503 55.920475 
" clip-path="url(#p036be6a753)" style="fill: none; stroke: #000000"/>
    <path d="M 145.400944 66.026285 
L 145.400944 61.956008 
" clip-path="url(#p036be6a753)" style="fill: none; stroke: #000000"/>
    <path d="M 145.400944 66.026285 
L 145.400944 61.956008 
" clip-path="url(#p036be6a753)" style="fill: none; stroke: #000000"/>
    <path d="M 158.938706 66.127048 
L 158.938706 64.520844 
" clip-path="url(#p036be6a753)" style="fill: none; stroke: #000000"/>
    <path d="M 158.938706 66.127048 
L 158.938706 64.520844 
" clip-path="url(#p036be6a753)" style="fill: none; stroke: #000000"/>
    <path d="M 135.247622 73.00222 
L 135.247622 71.021578 
" clip-path="url(#p036be6a753)" style="fill: none; stroke: #000000"/>
    <path d="M 135.247622 73.00222 
L 135.247622 71.021578 
" clip-path="url(#p036be6a753)" style="fill: none; stroke: #000000"/>
    <path d="M 179.24535 41.59296 
L 179.24535 25.647725 
" clip-path="url(#p036be6a753)" style="fill: none; stroke: #000000"/>
   </g>
   <g id="line2d_29">
    <g clip-path="url(#p036be6a753)">
     <use xlink:href="#m63c6b9ab6c" x="131.863182" y="60.589658" style="stroke: #000000"/>
     <use xlink:href="#m63c6b9ab6c" x="131.863182" y="60.589658" style="stroke: #000000"/>
     <use xlink:href="#m63c6b9ab6c" x="142.016503" y="64.161501" style="stroke: #000000"/>
     <use xlink:href="#m63c6b9ab6c" x="142.016503" y="64.161501" style="stroke: #000000"/>
     <use xlink:href="#m63c6b9ab6c" x="145.400944" y="66.026285" style="stroke: #000000"/>
     <use xlink:href="#m63c6b9ab6c" x="145.400944" y="66.026285" style="stroke: #000000"/>
     <use xlink:href="#m63c6b9ab6c" x="158.938706" y="66.127048" style="stroke: #000000"/>
     <use xlink:href="#m63c6b9ab6c" x="158.938706" y="66.127048" style="stroke: #000000"/>
     <use xlink:href="#m63c6b9ab6c" x="135.247622" y="73.00222" style="stroke: #000000"/>
     <use xlink:href="#m63c6b9ab6c" x="135.247622" y="73.00222" style="stroke: #000000"/>
     <use xlink:href="#m63c6b9ab6c" x="179.24535" y="41.59296" style="stroke: #000000"/>
    </g>
   </g>
   <g id="line2d_30">
    <g clip-path="url(#p036be6a753)">
     <use xlink:href="#m63c6b9ab6c" x="131.863182" y="58.509435" style="stroke: #000000"/>
     <use xlink:href="#m63c6b9ab6c" x="131.863182" y="58.509435" style="stroke: #000000"/>
     <use xlink:href="#m63c6b9ab6c" x="142.016503" y="55.920475" style="stroke: #000000"/>
     <use xlink:href="#m63c6b9ab6c" x="142.016503" y="55.920475" style="stroke: #000000"/>
     <use xlink:href="#m63c6b9ab6c" x="145.400944" y="61.956008" style="stroke: #000000"/>
     <use xlink:href="#m63c6b9ab6c" x="145.400944" y="61.956008" style="stroke: #000000"/>
     <use xlink:href="#m63c6b9ab6c" x="158.938706" y="64.520844" style="stroke: #000000"/>
     <use xlink:href="#m63c6b9ab6c" x="158.938706" y="64.520844" style="stroke: #000000"/>
     <use xlink:href="#m63c6b9ab6c" x="135.247622" y="71.021578" style="stroke: #000000"/>
     <use xlink:href="#m63c6b9ab6c" x="135.247622" y="71.021578" style="stroke: #000000"/>
     <use xlink:href="#m63c6b9ab6c" x="179.24535" y="25.647725" style="stroke: #000000"/>
    </g>
   </g>
  </g>
  <g id="axes_3">
   <g id="patch_12">
    <path d="M 212.67 85.47875 
L 277.2 85.47875 
L 277.2 23.28 
L 212.67 23.28 
z
" style="fill: #ffffff"/>
   </g>
   <g id="matplotlib.axis_5">
    <g id="xtick_11">
     <g id="line2d_31">
      <g>
       <use xlink:href="#mc4d8702ba5" x="215.603182" y="85.47875" style="fill: #262626; stroke: #262626; stroke-width: 0.8"/>
      </g>
     </g>
     <g id="text_21">
      <!-- 0 -->
      <g style="fill: #262626" transform="translate(213.378807 97.205)scale(0.08 -0.08)">
       <use xlink:href="#ArialMT-30"/>
      </g>
     </g>
    </g>
    <g id="xtick_12">
     <g id="line2d_32">
      <g>
       <use xlink:href="#mc4d8702ba5" x="229.140944" y="85.47875" style="fill: #262626; stroke: #262626; stroke-width: 0.8"/>
      </g>
     </g>
     <g id="text_22">
      <!-- 24 -->
      <g style="fill: #262626" transform="translate(224.692194 97.205)scale(0.08 -0.08)">
       <use xlink:href="#ArialMT-32"/>
       <use xlink:href="#ArialMT-34" x="55.615234"/>
      </g>
     </g>
    </g>
    <g id="xtick_13">
     <g id="line2d_33">
      <g>
       <use xlink:href="#mc4d8702ba5" x="242.678706" y="85.47875" style="fill: #262626; stroke: #262626; stroke-width: 0.8"/>
      </g>
     </g>
     <g id="text_23">
      <!-- 48 -->
      <g style="fill: #262626" transform="translate(238.229956 97.205)scale(0.08 -0.08)">
       <use xlink:href="#ArialMT-34"/>
       <use xlink:href="#ArialMT-38" x="55.615234"/>
      </g>
     </g>
    </g>
    <g id="xtick_14">
     <g id="line2d_34">
      <g>
       <use xlink:href="#mc4d8702ba5" x="256.216469" y="85.47875" style="fill: #262626; stroke: #262626; stroke-width: 0.8"/>
      </g>
     </g>
     <g id="text_24">
      <!-- 72 -->
      <g style="fill: #262626" transform="translate(251.767719 97.205)scale(0.08 -0.08)">
       <use xlink:href="#ArialMT-37"/>
       <use xlink:href="#ArialMT-32" x="55.615234"/>
      </g>
     </g>
    </g>
    <g id="xtick_15">
     <g id="line2d_35">
      <g>
       <use xlink:href="#mc4d8702ba5" x="269.754231" y="85.47875" style="fill: #262626; stroke: #262626; stroke-width: 0.8"/>
      </g>
     </g>
     <g id="text_25">
      <!-- 96 -->
      <g style="fill: #262626" transform="translate(265.305481 97.205)scale(0.08 -0.08)">
       <use xlink:href="#ArialMT-39"/>
       <use xlink:href="#ArialMT-36" x="55.615234"/>
      </g>
     </g>
    </g>
    <g id="text_26">
     <!-- time (h) -->
     <g style="fill: #262626" transform="translate(229.684922 109.346719)scale(0.09 -0.09)">
      <use xlink:href="#ArialMT-74"/>
      <use xlink:href="#ArialMT-69" x="27.783203"/>
      <use xlink:href="#ArialMT-6d" x="50"/>
      <use xlink:href="#ArialMT-65" x="133.300781"/>
      <use xlink:href="#ArialMT-20" x="188.916016"/>
      <use xlink:href="#ArialMT-28" x="216.699219"/>
      <use xlink:href="#ArialMT-68" x="250"/>
      <use xlink:href="#ArialMT-29" x="305.615234"/>
     </g>
    </g>
   </g>
   <g id="matplotlib.axis_6">
    <g id="ytick_11">
     <g id="line2d_36">
      <g>
       <use xlink:href="#m2c00ceda08" x="212.67" y="85.47875" style="fill: #262626; stroke: #262626; stroke-width: 0.8"/>
      </g>
     </g>
    </g>
    <g id="ytick_12">
     <g id="line2d_37">
      <g>
       <use xlink:href="#m2c00ceda08" x="212.67" y="70.582716" style="fill: #262626; stroke: #262626; stroke-width: 0.8"/>
      </g>
     </g>
    </g>
    <g id="ytick_13">
     <g id="line2d_38">
      <g>
       <use xlink:href="#m2c00ceda08" x="212.67" y="55.686683" style="fill: #262626; stroke: #262626; stroke-width: 0.8"/>
      </g>
     </g>
    </g>
    <g id="ytick_14">
     <g id="line2d_39">
      <g>
       <use xlink:href="#m2c00ceda08" x="212.67" y="40.790649" style="fill: #262626; stroke: #262626; stroke-width: 0.8"/>
      </g>
     </g>
    </g>
    <g id="ytick_15">
     <g id="line2d_40">
      <g>
       <use xlink:href="#m2c00ceda08" x="212.67" y="25.894616" style="fill: #262626; stroke: #262626; stroke-width: 0.8"/>
      </g>
     </g>
    </g>
   </g>
   <g id="line2d_41">
    <path d="M 215.603182 55.686683 
L 216.195744 55.686683 
L 216.788306 55.686683 
L 217.380868 55.686683 
L 217.97343 55.686683 
L 218.565992 55.686683 
L 219.158554 55.686683 
L 219.751116 55.686683 
L 220.343678 55.686683 
L 220.93624 55.686683 
L 221.528802 55.686683 
L 222.121364 55.686683 
L 222.713926 55.686683 
L 223.306488 55.686683 
L 223.89905 55.686683 
L 224.491612 55.686683 
L 225.084174 55.686683 
L 225.676736 55.686683 
L 226.269298 55.686683 
L 226.86186 55.686683 
L 227.454421 55.686683 
L 228.046983 55.686683 
L 228.639545 55.686683 
L 229.232107 55.686683 
L 229.824669 55.686683 
L 230.417231 55.686683 
L 231.009793 55.686683 
L 231.602355 55.686683 
L 232.194917 55.686683 
L 232.787479 55.686683 
L 233.380041 55.686683 
L 233.972603 55.686683 
L 234.565165 55.686683 
L 235.157727 55.686683 
L 235.750289 55.686683 
L 236.342851 55.686683 
L 236.935413 55.686683 
L 237.527975 55.686683 
L 238.120537 55.686683 
L 238.713099 55.686683 
L 239.305661 55.686683 
L 239.898223 55.686683 
L 240.490785 55.686683 
L 241.083347 55.686683 
L 241.675909 55.686683 
L 242.268471 55.686683 
L 242.861033 55.686683 
L 243.453595 55.686683 
L 244.046157 55.686683 
L 244.638719 55.686683 
L 245.231281 55.686683 
L 245.823843 55.686683 
L 246.416405 55.686683 
L 247.008967 55.686683 
L 247.601529 55.686683 
L 248.194091 55.686683 
L 248.786653 55.686683 
L 249.379215 55.686683 
L 249.971777 55.686683 
L 250.564339 55.686683 
L 251.156901 55.686683 
L 251.749463 55.686683 
L 252.342025 55.686683 
L 252.934587 55.686683 
L 253.527149 55.686683 
L 254.119711 55.686683 
L 254.712273 55.686683 
L 255.304835 55.686683 
L 255.897397 55.686683 
L 256.489959 55.686683 
L 257.082521 55.686683 
L 257.675083 40.793668 
L 258.267645 40.790649 
L 258.860207 40.790649 
L 259.452769 40.790649 
L 260.045331 40.790649 
L 260.637893 40.790649 
L 261.230455 25.894616 
L 261.823017 25.894616 
L 262.415579 25.894616 
L 263.00814 25.894616 
L 263.600702 25.894616 
L 264.193264 25.894616 
L 264.785826 25.894616 
L 265.378388 25.894616 
L 265.97095 25.894616 
L 266.563512 25.894616 
L 267.156074 25.894616 
L 267.748636 25.894616 
L 268.341198 25.894616 
L 268.93376 25.894616 
L 269.526322 25.894616 
L 270.118884 25.894616 
L 270.711446 25.894616 
L 271.304008 25.894616 
L 271.89657 25.894616 
L 272.489132 25.894616 
L 273.081694 25.894616 
L 273.674256 25.894616 
L 274.266818 25.894616 
" clip-path="url(#p9e85cd5b05)" style="fill: none; stroke: #800080; stroke-width: 2; stroke-linecap: round"/>
   </g>
   <g id="patch_13">
    <path d="M 212.67 85.47875 
L 212.67 23.28 
" style="fill: none; stroke: #262626; stroke-linejoin: miter; stroke-linecap: square"/>
   </g>
   <g id="patch_14">
    <path d="M 277.2 85.47875 
L 277.2 23.28 
" style="fill: none; stroke: #262626; stroke-linejoin: miter; stroke-linecap: square"/>
   </g>
   <g id="patch_15">
    <path d="M 212.67 85.47875 
L 277.2 85.47875 
" style="fill: none; stroke: #262626; stroke-linejoin: miter; stroke-linecap: square"/>
   </g>
   <g id="patch_16">
    <path d="M 212.67 23.28 
L 277.2 23.28 
" style="fill: none; stroke: #262626; stroke-linejoin: miter; stroke-linecap: square"/>
   </g>
   <g id="line2d_42">
    <path d="M 215.603182 55.686683 
L 216.195744 55.686683 
L 216.788306 55.686683 
L 217.380868 55.686683 
L 217.97343 55.686683 
L 218.565992 55.686683 
L 219.158554 55.686683 
L 219.751116 55.686683 
L 220.343678 55.686683 
L 220.93624 55.686683 
L 221.528802 55.686683 
L 222.121364 55.686683 
L 222.713926 55.686683 
L 223.306488 55.686683 
L 223.89905 55.686683 
L 224.491612 55.686683 
L 225.084174 55.686683 
L 225.676736 55.686683 
L 226.269298 55.686683 
L 226.86186 55.686683 
L 227.454421 55.686683 
L 228.046983 55.686683 
L 228.639545 55.686683 
L 229.232107 55.686683 
L 229.824669 55.686683 
L 230.417231 55.686683 
L 231.009793 55.686683 
L 231.602355 55.686683 
L 232.194917 55.686683 
L 232.787479 55.686683 
L 233.380041 55.686683 
L 233.972603 55.686683 
L 234.565165 55.686683 
L 235.157727 55.686683 
L 235.750289 55.686683 
L 236.342851 55.686683 
L 236.935413 55.686683 
L 237.527975 55.686683 
L 238.120537 55.686683 
L 238.713099 55.686683 
L 239.305661 55.686683 
L 239.898223 55.686683 
L 240.490785 55.686683 
L 241.083347 55.686683 
L 241.675909 55.686683 
L 242.268471 55.686683 
L 242.861033 55.686683 
L 243.453595 55.686683 
L 244.046157 55.686683 
L 244.638719 55.686682 
L 245.231281 55.686678 
L 245.823843 55.686652 
L 246.416405 55.686501 
L 247.008967 55.685776 
L 247.601529 55.682775 
L 248.194091 55.672011 
L 248.786653 55.638428 
L 249.379215 55.546807 
L 249.971777 55.327238 
L 250.564339 54.862976 
L 251.156901 53.993259 
L 251.749463 52.544032 
L 252.342025 50.387893 
L 252.934587 47.513414 
L 253.527149 44.067769 
L 254.119711 40.341887 
L 254.712273 36.696119 
L 255.304835 33.458359 
L 255.897397 30.841188 
L 256.489959 28.910396 
L 257.082521 27.606966 
L 257.675083 26.79978 
L 258.267645 26.340123 
L 258.860207 26.098874 
L 259.452769 25.981916 
L 260.045331 25.92943 
L 260.637893 25.907584 
L 261.230455 25.899133 
L 261.823017 25.896089 
L 262.415579 25.895066 
L 263.00814 25.894745 
L 263.600702 25.894651 
L 264.193264 25.894625 
L 264.785826 25.894618 
L 265.378388 25.894616 
L 265.97095 25.894616 
L 266.563512 25.894616 
L 267.156074 25.894616 
L 267.748636 25.894616 
L 268.341198 25.894616 
L 268.93376 25.894616 
L 269.526322 25.894616 
L 270.118884 25.894616 
L 270.711446 25.894616 
L 271.304008 25.894616 
L 271.89657 25.894616 
L 272.489132 25.894616 
L 273.081694 25.894616 
L 273.674256 25.894616 
L 274.266818 25.894616 
" clip-path="url(#p9e85cd5b05)" style="fill: none; stroke: #1f77b4; stroke-width: 2; stroke-linecap: round"/>
   </g>
   <g id="text_27">
    <!-- Lilra6 -->
    <g style="fill: #262626" transform="translate(233.929688 17.28)scale(0.09 -0.09)">
     <defs>
      <path id="Arial-ItalicMT-4c" d="M 256 0 
L 1213 4581 
L 1825 4581 
L 978 519 
L 3356 519 
L 3247 0 
L 256 0 
z
" transform="scale(0.015625)"/>
      <path id="Arial-ItalicMT-6c" d="M 169 0 
L 1125 4581 
L 1691 4581 
L 734 0 
L 169 0 
z
" transform="scale(0.015625)"/>
      <path id="Arial-ItalicMT-72" d="M 213 0 
L 906 3319 
L 1406 3319 
L 1266 2641 
Q 1522 3025 1767 3209 
Q 2013 3394 2269 3394 
Q 2438 3394 2684 3272 
L 2453 2747 
Q 2306 2853 2131 2853 
Q 1834 2853 1521 2522 
Q 1209 2191 1031 1331 
L 750 0 
L 213 0 
z
" transform="scale(0.015625)"/>
      <path id="Arial-ItalicMT-36" d="M 1288 2656 
Q 1525 2853 1761 2951 
Q 1997 3050 2228 3050 
Q 2750 3050 3090 2694 
Q 3431 2338 3431 1734 
Q 3431 956 2925 400 
Q 2488 -78 1863 -78 
Q 1294 -78 914 339 
Q 534 756 534 1528 
Q 534 2219 778 2956 
Q 966 3522 1242 3889 
Q 1519 4256 1830 4428 
Q 2141 4600 2531 4600 
Q 3000 4600 3297 4308 
Q 3594 4016 3634 3472 
L 3109 3422 
Q 3066 3794 2898 3959 
Q 2731 4125 2491 4125 
Q 2238 4125 1981 3928 
Q 1725 3731 1540 3345 
Q 1356 2959 1288 2656 
z
M 1091 1288 
Q 1091 900 1331 636 
Q 1572 372 1875 372 
Q 2088 372 2325 533 
Q 2563 694 2728 1022 
Q 2894 1350 2894 1675 
Q 2894 2094 2664 2345 
Q 2434 2597 2109 2597 
Q 1734 2597 1412 2230 
Q 1091 1863 1091 1288 
z
" transform="scale(0.015625)"/>
     </defs>
     <use xlink:href="#Arial-ItalicMT-4c"/>
     <use xlink:href="#Arial-ItalicMT-69" x="55.615234"/>
     <use xlink:href="#Arial-ItalicMT-6c" x="77.832031"/>
     <use xlink:href="#Arial-ItalicMT-72" x="100.048828"/>
     <use xlink:href="#Arial-ItalicMT-61" x="133.349609"/>
     <use xlink:href="#Arial-ItalicMT-36" x="188.964844"/>
    </g>
   </g>
   <g id="line2d_43">
    <path d="M 215.603182 55.686683 
L 216.195744 55.001564 
L 216.788306 54.3322 
L 217.380868 53.678229 
L 217.97343 53.039298 
L 218.565992 52.415059 
L 219.158554 51.805177 
L 219.751116 51.209319 
L 220.343678 50.627164 
L 220.93624 50.058397 
L 221.528802 49.50271 
L 222.121364 48.959802 
L 222.713926 48.429379 
L 223.306488 47.911153 
L 223.89905 47.404846 
L 224.491612 46.910181 
L 225.084174 46.426892 
L 225.676736 45.954718 
L 226.269298 45.493402 
L 226.86186 45.042694 
L 227.454421 44.602351 
L 228.046983 44.172135 
L 228.639545 43.751813 
L 229.232107 43.341156 
L 229.824669 42.939943 
L 230.417231 42.547957 
L 231.009793 42.164985 
L 231.602355 41.79082 
L 232.194917 41.42526 
L 232.787479 41.068106 
L 233.380041 40.719166 
L 233.972603 40.37825 
L 234.565165 40.045174 
L 235.157727 39.719758 
L 235.750289 39.401825 
L 236.342851 39.091204 
L 236.935413 38.787726 
L 237.527975 38.491227 
L 238.120537 38.201546 
L 238.713099 37.918528 
L 239.305661 37.642017 
L 239.898223 37.371866 
L 240.490785 37.107927 
L 241.083347 36.850058 
L 241.675909 36.598119 
L 242.268471 36.351973 
L 242.861033 36.111489 
L 243.453595 35.876534 
L 244.046157 35.646983 
L 244.638719 35.422711 
L 245.231281 35.203596 
L 245.823843 34.98952 
L 246.416405 34.780367 
L 247.008967 34.576024 
L 247.601529 34.376381 
L 248.194091 34.181328 
L 248.786653 33.990761 
L 249.379215 33.804576 
L 249.971777 33.622673 
L 250.564339 33.444953 
L 251.156901 33.27132 
L 251.749463 33.101681 
L 252.342025 32.935942 
L 252.934587 32.774015 
L 253.527149 32.615811 
L 254.119711 32.461246 
L 254.712273 32.310235 
L 255.304835 32.162697 
L 255.897397 32.018552 
L 256.489959 31.877721 
L 257.082521 31.74013 
L 257.675083 31.605702 
L 258.267645 31.474366 
L 258.860207 31.34605 
L 259.452769 31.220685 
L 260.045331 31.098203 
L 260.637893 30.978538 
L 261.230455 30.861624 
L 261.823017 30.747399 
L 262.415579 30.635801 
L 263.00814 30.52677 
L 263.600702 30.420245 
L 264.193264 30.316171 
L 264.785826 30.21449 
L 265.378388 30.115147 
L 265.97095 30.018089 
L 266.563512 29.923262 
L 267.156074 29.830617 
L 267.748636 29.740102 
L 268.341198 29.651668 
L 268.93376 29.565268 
L 269.526322 29.480855 
L 270.118884 29.398384 
L 270.711446 29.317809 
L 271.304008 29.239087 
L 271.89657 29.162175 
L 272.489132 29.087032 
L 273.081694 29.013617 
L 273.674256 28.94189 
L 274.266818 28.871813 
" clip-path="url(#p9e85cd5b05)" style="fill: none; stroke: #2ca02c; stroke-width: 2; stroke-linecap: round"/>
   </g>
   <g id="PathCollection_3">
    <g clip-path="url(#p9e85cd5b05)">
     <use xlink:href="#m9faa8449cc" x="215.603182" y="55.686683" style="stroke: #ffffff; stroke-width: 0.252982"/>
     <use xlink:href="#m9faa8449cc" x="215.603182" y="55.686683" style="stroke: #ffffff; stroke-width: 0.252982"/>
     <use xlink:href="#m9faa8449cc" x="225.756503" y="52.823874" style="stroke: #ffffff; stroke-width: 0.252982"/>
     <use xlink:href="#m9faa8449cc" x="225.756503" y="52.823874" style="stroke: #ffffff; stroke-width: 0.252982"/>
     <use xlink:href="#m9faa8449cc" x="229.140944" y="65.474691" style="stroke: #ffffff; stroke-width: 0.252982"/>
     <use xlink:href="#m9faa8449cc" x="229.140944" y="65.474691" style="stroke: #ffffff; stroke-width: 0.252982"/>
     <use xlink:href="#m9faa8449cc" x="242.678706" y="65.474691" style="stroke: #ffffff; stroke-width: 0.252982"/>
     <use xlink:href="#m9faa8449cc" x="242.678706" y="65.474691" style="stroke: #ffffff; stroke-width: 0.252982"/>
     <use xlink:href="#m9faa8449cc" x="218.987622" y="65.474691" style="stroke: #ffffff; stroke-width: 0.252982"/>
     <use xlink:href="#m9faa8449cc" x="218.987622" y="65.474691" style="stroke: #ffffff; stroke-width: 0.252982"/>
     <use xlink:href="#m9faa8449cc" x="262.98535" y="25.894616" style="stroke: #ffffff; stroke-width: 0.252982"/>
    </g>
   </g>
   <g id="LineCollection_3">
    <path d="M 215.603182 55.686683 
L 215.603182 55.686683 
" clip-path="url(#p9e85cd5b05)" style="fill: none; stroke: #000000"/>
    <path d="M 215.603182 55.686683 
L 215.603182 55.686683 
" clip-path="url(#p9e85cd5b05)" style="fill: none; stroke: #000000"/>
    <path d="M 225.756503 56.872497 
L 225.756503 48.775251 
" clip-path="url(#p9e85cd5b05)" style="fill: none; stroke: #000000"/>
    <path d="M 225.756503 56.872497 
L 225.756503 48.775251 
" clip-path="url(#p9e85cd5b05)" style="fill: none; stroke: #000000"/>
    <path d="M 229.140944 65.474691 
L 229.140944 65.474691 
" clip-path="url(#p9e85cd5b05)" style="fill: none; stroke: #000000"/>
    <path d="M 229.140944 65.474691 
L 229.140944 65.474691 
" clip-path="url(#p9e85cd5b05)" style="fill: none; stroke: #000000"/>
    <path d="M 242.678706 65.474691 
L 242.678706 65.474691 
" clip-path="url(#p9e85cd5b05)" style="fill: none; stroke: #000000"/>
    <path d="M 242.678706 65.474691 
L 242.678706 65.474691 
" clip-path="url(#p9e85cd5b05)" style="fill: none; stroke: #000000"/>
    <path d="M 218.987622 65.474691 
L 218.987622 65.474691 
" clip-path="url(#p9e85cd5b05)" style="fill: none; stroke: #000000"/>
    <path d="M 218.987622 65.474691 
L 218.987622 65.474691 
" clip-path="url(#p9e85cd5b05)" style="fill: none; stroke: #000000"/>
    <path d="M 262.98535 26.499961 
L 262.98535 25.289271 
" clip-path="url(#p9e85cd5b05)" style="fill: none; stroke: #000000"/>
   </g>
   <g id="line2d_44">
    <g clip-path="url(#p9e85cd5b05)">
     <use xlink:href="#m63c6b9ab6c" x="215.603182" y="55.686683" style="stroke: #000000"/>
     <use xlink:href="#m63c6b9ab6c" x="215.603182" y="55.686683" style="stroke: #000000"/>
     <use xlink:href="#m63c6b9ab6c" x="225.756503" y="56.872497" style="stroke: #000000"/>
     <use xlink:href="#m63c6b9ab6c" x="225.756503" y="56.872497" style="stroke: #000000"/>
     <use xlink:href="#m63c6b9ab6c" x="229.140944" y="65.474691" style="stroke: #000000"/>
     <use xlink:href="#m63c6b9ab6c" x="229.140944" y="65.474691" style="stroke: #000000"/>
     <use xlink:href="#m63c6b9ab6c" x="242.678706" y="65.474691" style="stroke: #000000"/>
     <use xlink:href="#m63c6b9ab6c" x="242.678706" y="65.474691" style="stroke: #000000"/>
     <use xlink:href="#m63c6b9ab6c" x="218.987622" y="65.474691" style="stroke: #000000"/>
     <use xlink:href="#m63c6b9ab6c" x="218.987622" y="65.474691" style="stroke: #000000"/>
     <use xlink:href="#m63c6b9ab6c" x="262.98535" y="26.499961" style="stroke: #000000"/>
    </g>
   </g>
   <g id="line2d_45">
    <g clip-path="url(#p9e85cd5b05)">
     <use xlink:href="#m63c6b9ab6c" x="215.603182" y="55.686683" style="stroke: #000000"/>
     <use xlink:href="#m63c6b9ab6c" x="215.603182" y="55.686683" style="stroke: #000000"/>
     <use xlink:href="#m63c6b9ab6c" x="225.756503" y="48.775251" style="stroke: #000000"/>
     <use xlink:href="#m63c6b9ab6c" x="225.756503" y="48.775251" style="stroke: #000000"/>
     <use xlink:href="#m63c6b9ab6c" x="229.140944" y="65.474691" style="stroke: #000000"/>
     <use xlink:href="#m63c6b9ab6c" x="229.140944" y="65.474691" style="stroke: #000000"/>
     <use xlink:href="#m63c6b9ab6c" x="242.678706" y="65.474691" style="stroke: #000000"/>
     <use xlink:href="#m63c6b9ab6c" x="242.678706" y="65.474691" style="stroke: #000000"/>
     <use xlink:href="#m63c6b9ab6c" x="218.987622" y="65.474691" style="stroke: #000000"/>
     <use xlink:href="#m63c6b9ab6c" x="218.987622" y="65.474691" style="stroke: #000000"/>
     <use xlink:href="#m63c6b9ab6c" x="262.98535" y="25.289271" style="stroke: #000000"/>
    </g>
   </g>
  </g>
 </g>
 <defs>
  <clipPath id="p3f18d7d7c9">
   <rect x="45.19" y="23.28" width="64.53" height="62.19875"/>
  </clipPath>
  <clipPath id="p036be6a753">
   <rect x="128.93" y="23.28" width="64.53" height="62.19875"/>
  </clipPath>
  <clipPath id="p9e85cd5b05">
   <rect x="212.67" y="23.28" width="64.53" height="62.19875"/>
  </clipPath>
 </defs>
</svg>
