<?xml version="1.0" encoding="utf-8" standalone="no"?>
<!DOCTYPE svg PUBLIC "-//W3C//DTD SVG 1.1//EN"
  "http://www.w3.org/Graphics/SVG/1.1/DTD/svg11.dtd">
<!-- Created with matplotlib (https://matplotlib.org/) -->
<svg height="144pt" version="1.1" viewBox="0 0 576 144" width="576pt" xmlns="http://www.w3.org/2000/svg" xmlns:xlink="http://www.w3.org/1999/xlink">
 <metadata>
  <rdf:RDF xmlns:cc="http://creativecommons.org/ns#" xmlns:dc="http://purl.org/dc/elements/1.1/" xmlns:rdf="http://www.w3.org/1999/02/22-rdf-syntax-ns#">
   <cc:Work>
    <dc:type rdf:resource="http://purl.org/dc/dcmitype/StillImage"/>
    <dc:date>2021-11-22T17:46:18.046490</dc:date>
    <dc:format>image/svg+xml</dc:format>
    <dc:creator>
     <cc:Agent>
      <dc:title>Matplotlib v3.3.2, https://matplotlib.org/</dc:title>
     </cc:Agent>
    </dc:creator>
   </cc:Work>
  </rdf:RDF>
 </metadata>
 <defs>
  <style type="text/css">*{stroke-linecap:butt;stroke-linejoin:round;}</style>
 </defs>
 <g id="figure_1">
  <g id="patch_1">
   <path d="M 0 144 
L 576 144 
L 576 0 
L 0 0 
z
" style="fill:#ffffff;"/>
  </g>
  <g id="axes_1">
   <g id="patch_2">
    <path d="M 47.81 102.04 
L 137.391595 102.04 
L 137.391595 25.44 
L 47.81 25.44 
z
" style="fill:#ffffff;"/>
   </g>
   <g id="matplotlib.axis_1">
    <g id="xtick_1">
     <g id="line2d_1">
      <defs>
       <path d="M 0 0 
L 0 3.5 
" id="m976e60f3fa" style="stroke:#000000;stroke-width:0.8;"/>
      </defs>
      <g>
       <use style="stroke:#000000;stroke-width:0.8;" x="51.881891" xlink:href="#m976e60f3fa" y="102.04"/>
      </g>
     </g>
     <g id="text_1">
      <!-- 0 -->
      <g transform="translate(48.700641 116.638437)scale(0.1 -0.1)">
       <defs>
        <path d="M 31.78125 66.40625 
Q 24.171875 66.40625 20.328125 58.90625 
Q 16.5 51.421875 16.5 36.375 
Q 16.5 21.390625 20.328125 13.890625 
Q 24.171875 6.390625 31.78125 6.390625 
Q 39.453125 6.390625 43.28125 13.890625 
Q 47.125 21.390625 47.125 36.375 
Q 47.125 51.421875 43.28125 58.90625 
Q 39.453125 66.40625 31.78125 66.40625 
z
M 31.78125 74.21875 
Q 44.046875 74.21875 50.515625 64.515625 
Q 56.984375 54.828125 56.984375 36.375 
Q 56.984375 17.96875 50.515625 8.265625 
Q 44.046875 -1.421875 31.78125 -1.421875 
Q 19.53125 -1.421875 13.0625 8.265625 
Q 6.59375 17.96875 6.59375 36.375 
Q 6.59375 54.828125 13.0625 64.515625 
Q 19.53125 74.21875 31.78125 74.21875 
z
" id="DejaVuSans-48"/>
       </defs>
       <use xlink:href="#DejaVuSans-48"/>
      </g>
     </g>
    </g>
    <g id="xtick_2">
     <g id="line2d_2">
      <g>
       <use style="stroke:#000000;stroke-width:0.8;" x="91.034686" xlink:href="#m976e60f3fa" y="102.04"/>
      </g>
     </g>
     <g id="text_2">
      <!-- 50 -->
      <g transform="translate(84.672186 116.638437)scale(0.1 -0.1)">
       <defs>
        <path d="M 10.796875 72.90625 
L 49.515625 72.90625 
L 49.515625 64.59375 
L 19.828125 64.59375 
L 19.828125 46.734375 
Q 21.96875 47.46875 24.109375 47.828125 
Q 26.265625 48.1875 28.421875 48.1875 
Q 40.625 48.1875 47.75 41.5 
Q 54.890625 34.8125 54.890625 23.390625 
Q 54.890625 11.625 47.5625 5.09375 
Q 40.234375 -1.421875 26.90625 -1.421875 
Q 22.3125 -1.421875 17.546875 -0.640625 
Q 12.796875 0.140625 7.71875 1.703125 
L 7.71875 11.625 
Q 12.109375 9.234375 16.796875 8.0625 
Q 21.484375 6.890625 26.703125 6.890625 
Q 35.15625 6.890625 40.078125 11.328125 
Q 45.015625 15.765625 45.015625 23.390625 
Q 45.015625 31 40.078125 35.4375 
Q 35.15625 39.890625 26.703125 39.890625 
Q 22.75 39.890625 18.8125 39.015625 
Q 14.890625 38.140625 10.796875 36.28125 
z
" id="DejaVuSans-53"/>
       </defs>
       <use xlink:href="#DejaVuSans-53"/>
       <use x="63.623047" xlink:href="#DejaVuSans-48"/>
      </g>
     </g>
    </g>
    <g id="xtick_3">
     <g id="line2d_3">
      <g>
       <use style="stroke:#000000;stroke-width:0.8;" x="130.187481" xlink:href="#m976e60f3fa" y="102.04"/>
      </g>
     </g>
     <g id="text_3">
      <!-- 100 -->
      <g transform="translate(120.643731 116.638437)scale(0.1 -0.1)">
       <defs>
        <path d="M 12.40625 8.296875 
L 28.515625 8.296875 
L 28.515625 63.921875 
L 10.984375 60.40625 
L 10.984375 69.390625 
L 28.421875 72.90625 
L 38.28125 72.90625 
L 38.28125 8.296875 
L 54.390625 8.296875 
L 54.390625 0 
L 12.40625 0 
z
" id="DejaVuSans-49"/>
       </defs>
       <use xlink:href="#DejaVuSans-49"/>
       <use x="63.623047" xlink:href="#DejaVuSans-48"/>
       <use x="127.246094" xlink:href="#DejaVuSans-48"/>
      </g>
     </g>
    </g>
    <g id="text_4">
     <!-- time (h) -->
     <g transform="translate(72.645329 130.316563)scale(0.1 -0.1)">
      <defs>
       <path d="M 18.3125 70.21875 
L 18.3125 54.6875 
L 36.8125 54.6875 
L 36.8125 47.703125 
L 18.3125 47.703125 
L 18.3125 18.015625 
Q 18.3125 11.328125 20.140625 9.421875 
Q 21.96875 7.515625 27.59375 7.515625 
L 36.8125 7.515625 
L 36.8125 0 
L 27.59375 0 
Q 17.1875 0 13.234375 3.875 
Q 9.28125 7.765625 9.28125 18.015625 
L 9.28125 47.703125 
L 2.6875 47.703125 
L 2.6875 54.6875 
L 9.28125 54.6875 
L 9.28125 70.21875 
z
" id="DejaVuSans-116"/>
       <path d="M 9.421875 54.6875 
L 18.40625 54.6875 
L 18.40625 0 
L 9.421875 0 
z
M 9.421875 75.984375 
L 18.40625 75.984375 
L 18.40625 64.59375 
L 9.421875 64.59375 
z
" id="DejaVuSans-105"/>
       <path d="M 52 44.1875 
Q 55.375 50.25 60.0625 53.125 
Q 64.75 56 71.09375 56 
Q 79.640625 56 84.28125 50.015625 
Q 88.921875 44.046875 88.921875 33.015625 
L 88.921875 0 
L 79.890625 0 
L 79.890625 32.71875 
Q 79.890625 40.578125 77.09375 44.375 
Q 74.3125 48.1875 68.609375 48.1875 
Q 61.625 48.1875 57.5625 43.546875 
Q 53.515625 38.921875 53.515625 30.90625 
L 53.515625 0 
L 44.484375 0 
L 44.484375 32.71875 
Q 44.484375 40.625 41.703125 44.40625 
Q 38.921875 48.1875 33.109375 48.1875 
Q 26.21875 48.1875 22.15625 43.53125 
Q 18.109375 38.875 18.109375 30.90625 
L 18.109375 0 
L 9.078125 0 
L 9.078125 54.6875 
L 18.109375 54.6875 
L 18.109375 46.1875 
Q 21.1875 51.21875 25.484375 53.609375 
Q 29.78125 56 35.6875 56 
Q 41.65625 56 45.828125 52.96875 
Q 50 49.953125 52 44.1875 
z
" id="DejaVuSans-109"/>
       <path d="M 56.203125 29.59375 
L 56.203125 25.203125 
L 14.890625 25.203125 
Q 15.484375 15.921875 20.484375 11.0625 
Q 25.484375 6.203125 34.421875 6.203125 
Q 39.59375 6.203125 44.453125 7.46875 
Q 49.3125 8.734375 54.109375 11.28125 
L 54.109375 2.78125 
Q 49.265625 0.734375 44.1875 -0.34375 
Q 39.109375 -1.421875 33.890625 -1.421875 
Q 20.796875 -1.421875 13.15625 6.1875 
Q 5.515625 13.8125 5.515625 26.8125 
Q 5.515625 40.234375 12.765625 48.109375 
Q 20.015625 56 32.328125 56 
Q 43.359375 56 49.78125 48.890625 
Q 56.203125 41.796875 56.203125 29.59375 
z
M 47.21875 32.234375 
Q 47.125 39.59375 43.09375 43.984375 
Q 39.0625 48.390625 32.421875 48.390625 
Q 24.90625 48.390625 20.390625 44.140625 
Q 15.875 39.890625 15.1875 32.171875 
z
" id="DejaVuSans-101"/>
       <path id="DejaVuSans-32"/>
       <path d="M 31 75.875 
Q 24.46875 64.65625 21.28125 53.65625 
Q 18.109375 42.671875 18.109375 31.390625 
Q 18.109375 20.125 21.3125 9.0625 
Q 24.515625 -2 31 -13.1875 
L 23.1875 -13.1875 
Q 15.875 -1.703125 12.234375 9.375 
Q 8.59375 20.453125 8.59375 31.390625 
Q 8.59375 42.28125 12.203125 53.3125 
Q 15.828125 64.359375 23.1875 75.875 
z
" id="DejaVuSans-40"/>
       <path d="M 54.890625 33.015625 
L 54.890625 0 
L 45.90625 0 
L 45.90625 32.71875 
Q 45.90625 40.484375 42.875 44.328125 
Q 39.84375 48.1875 33.796875 48.1875 
Q 26.515625 48.1875 22.3125 43.546875 
Q 18.109375 38.921875 18.109375 30.90625 
L 18.109375 0 
L 9.078125 0 
L 9.078125 75.984375 
L 18.109375 75.984375 
L 18.109375 46.1875 
Q 21.34375 51.125 25.703125 53.5625 
Q 30.078125 56 35.796875 56 
Q 45.21875 56 50.046875 50.171875 
Q 54.890625 44.34375 54.890625 33.015625 
z
" id="DejaVuSans-104"/>
       <path d="M 8.015625 75.875 
L 15.828125 75.875 
Q 23.140625 64.359375 26.78125 53.3125 
Q 30.421875 42.28125 30.421875 31.390625 
Q 30.421875 20.453125 26.78125 9.375 
Q 23.140625 -1.703125 15.828125 -13.1875 
L 8.015625 -13.1875 
Q 14.5 -2 17.703125 9.0625 
Q 20.90625 20.125 20.90625 31.390625 
Q 20.90625 42.671875 17.703125 53.65625 
Q 14.5 64.65625 8.015625 75.875 
z
" id="DejaVuSans-41"/>
      </defs>
      <use xlink:href="#DejaVuSans-116"/>
      <use x="39.208984" xlink:href="#DejaVuSans-105"/>
      <use x="66.992188" xlink:href="#DejaVuSans-109"/>
      <use x="164.404297" xlink:href="#DejaVuSans-101"/>
      <use x="225.927734" xlink:href="#DejaVuSans-32"/>
      <use x="257.714844" xlink:href="#DejaVuSans-40"/>
      <use x="296.728516" xlink:href="#DejaVuSans-104"/>
      <use x="360.107422" xlink:href="#DejaVuSans-41"/>
     </g>
    </g>
   </g>
   <g id="matplotlib.axis_2">
    <g id="ytick_1">
     <g id="line2d_4">
      <defs>
       <path d="M 0 0 
L -3.5 0 
" id="mbe32b59e64" style="stroke:#000000;stroke-width:0.8;"/>
      </defs>
      <g>
       <use style="stroke:#000000;stroke-width:0.8;" x="47.81" xlink:href="#mbe32b59e64" y="88.866601"/>
      </g>
     </g>
     <g id="text_5">
      <!-- 0.0 -->
      <g transform="translate(24.906875 92.66582)scale(0.1 -0.1)">
       <defs>
        <path d="M 10.6875 12.40625 
L 21 12.40625 
L 21 0 
L 10.6875 0 
z
" id="DejaVuSans-46"/>
       </defs>
       <use xlink:href="#DejaVuSans-48"/>
       <use x="63.623047" xlink:href="#DejaVuSans-46"/>
       <use x="95.410156" xlink:href="#DejaVuSans-48"/>
      </g>
     </g>
    </g>
    <g id="ytick_2">
     <g id="line2d_5">
      <g>
       <use style="stroke:#000000;stroke-width:0.8;" x="47.81" xlink:href="#mbe32b59e64" y="60.756643"/>
      </g>
     </g>
     <g id="text_6">
      <!-- 0.5 -->
      <g transform="translate(24.906875 64.555862)scale(0.1 -0.1)">
       <use xlink:href="#DejaVuSans-48"/>
       <use x="63.623047" xlink:href="#DejaVuSans-46"/>
       <use x="95.410156" xlink:href="#DejaVuSans-53"/>
      </g>
     </g>
    </g>
    <g id="ytick_3">
     <g id="line2d_6">
      <g>
       <use style="stroke:#000000;stroke-width:0.8;" x="47.81" xlink:href="#mbe32b59e64" y="32.646685"/>
      </g>
     </g>
     <g id="text_7">
      <!-- 1.0 -->
      <g transform="translate(24.906875 36.445904)scale(0.1 -0.1)">
       <use xlink:href="#DejaVuSans-49"/>
       <use x="63.623047" xlink:href="#DejaVuSans-46"/>
       <use x="95.410156" xlink:href="#DejaVuSans-48"/>
      </g>
     </g>
    </g>
    <g id="text_8">
     <!-- expr. norm. -->
     <g transform="translate(18.827188 92.295469)rotate(-90)scale(0.1 -0.1)">
      <defs>
       <path d="M 54.890625 54.6875 
L 35.109375 28.078125 
L 55.90625 0 
L 45.3125 0 
L 29.390625 21.484375 
L 13.484375 0 
L 2.875 0 
L 24.125 28.609375 
L 4.6875 54.6875 
L 15.28125 54.6875 
L 29.78125 35.203125 
L 44.28125 54.6875 
z
" id="DejaVuSans-120"/>
       <path d="M 18.109375 8.203125 
L 18.109375 -20.796875 
L 9.078125 -20.796875 
L 9.078125 54.6875 
L 18.109375 54.6875 
L 18.109375 46.390625 
Q 20.953125 51.265625 25.265625 53.625 
Q 29.59375 56 35.59375 56 
Q 45.5625 56 51.78125 48.09375 
Q 58.015625 40.1875 58.015625 27.296875 
Q 58.015625 14.40625 51.78125 6.484375 
Q 45.5625 -1.421875 35.59375 -1.421875 
Q 29.59375 -1.421875 25.265625 0.953125 
Q 20.953125 3.328125 18.109375 8.203125 
z
M 48.6875 27.296875 
Q 48.6875 37.203125 44.609375 42.84375 
Q 40.53125 48.484375 33.40625 48.484375 
Q 26.265625 48.484375 22.1875 42.84375 
Q 18.109375 37.203125 18.109375 27.296875 
Q 18.109375 17.390625 22.1875 11.75 
Q 26.265625 6.109375 33.40625 6.109375 
Q 40.53125 6.109375 44.609375 11.75 
Q 48.6875 17.390625 48.6875 27.296875 
z
" id="DejaVuSans-112"/>
       <path d="M 41.109375 46.296875 
Q 39.59375 47.171875 37.8125 47.578125 
Q 36.03125 48 33.890625 48 
Q 26.265625 48 22.1875 43.046875 
Q 18.109375 38.09375 18.109375 28.8125 
L 18.109375 0 
L 9.078125 0 
L 9.078125 54.6875 
L 18.109375 54.6875 
L 18.109375 46.1875 
Q 20.953125 51.171875 25.484375 53.578125 
Q 30.03125 56 36.53125 56 
Q 37.453125 56 38.578125 55.875 
Q 39.703125 55.765625 41.0625 55.515625 
z
" id="DejaVuSans-114"/>
       <path d="M 54.890625 33.015625 
L 54.890625 0 
L 45.90625 0 
L 45.90625 32.71875 
Q 45.90625 40.484375 42.875 44.328125 
Q 39.84375 48.1875 33.796875 48.1875 
Q 26.515625 48.1875 22.3125 43.546875 
Q 18.109375 38.921875 18.109375 30.90625 
L 18.109375 0 
L 9.078125 0 
L 9.078125 54.6875 
L 18.109375 54.6875 
L 18.109375 46.1875 
Q 21.34375 51.125 25.703125 53.5625 
Q 30.078125 56 35.796875 56 
Q 45.21875 56 50.046875 50.171875 
Q 54.890625 44.34375 54.890625 33.015625 
z
" id="DejaVuSans-110"/>
       <path d="M 30.609375 48.390625 
Q 23.390625 48.390625 19.1875 42.75 
Q 14.984375 37.109375 14.984375 27.296875 
Q 14.984375 17.484375 19.15625 11.84375 
Q 23.34375 6.203125 30.609375 6.203125 
Q 37.796875 6.203125 41.984375 11.859375 
Q 46.1875 17.53125 46.1875 27.296875 
Q 46.1875 37.015625 41.984375 42.703125 
Q 37.796875 48.390625 30.609375 48.390625 
z
M 30.609375 56 
Q 42.328125 56 49.015625 48.375 
Q 55.71875 40.765625 55.71875 27.296875 
Q 55.71875 13.875 49.015625 6.21875 
Q 42.328125 -1.421875 30.609375 -1.421875 
Q 18.84375 -1.421875 12.171875 6.21875 
Q 5.515625 13.875 5.515625 27.296875 
Q 5.515625 40.765625 12.171875 48.375 
Q 18.84375 56 30.609375 56 
z
" id="DejaVuSans-111"/>
      </defs>
      <use xlink:href="#DejaVuSans-101"/>
      <use x="59.773438" xlink:href="#DejaVuSans-120"/>
      <use x="118.953125" xlink:href="#DejaVuSans-112"/>
      <use x="182.429688" xlink:href="#DejaVuSans-114"/>
      <use x="214.417969" xlink:href="#DejaVuSans-46"/>
      <use x="246.205078" xlink:href="#DejaVuSans-32"/>
      <use x="277.992188" xlink:href="#DejaVuSans-110"/>
      <use x="341.371094" xlink:href="#DejaVuSans-111"/>
      <use x="402.552734" xlink:href="#DejaVuSans-114"/>
      <use x="441.916016" xlink:href="#DejaVuSans-109"/>
      <use x="539.328125" xlink:href="#DejaVuSans-46"/>
     </g>
    </g>
   </g>
   <g id="patch_3">
    <path d="M 47.81 102.04 
L 47.81 25.44 
" style="fill:none;stroke:#000000;stroke-linecap:square;stroke-linejoin:miter;stroke-width:0.8;"/>
   </g>
   <g id="patch_4">
    <path d="M 137.391595 102.04 
L 137.391595 25.44 
" style="fill:none;stroke:#000000;stroke-linecap:square;stroke-linejoin:miter;stroke-width:0.8;"/>
   </g>
   <g id="patch_5">
    <path d="M 47.81 102.04 
L 137.391595 102.04 
" style="fill:none;stroke:#000000;stroke-linecap:square;stroke-linejoin:miter;stroke-width:0.8;"/>
   </g>
   <g id="patch_6">
    <path d="M 47.81 25.44 
L 137.391595 25.44 
" style="fill:none;stroke:#000000;stroke-linecap:square;stroke-linejoin:miter;stroke-width:0.8;"/>
   </g>
   <g id="text_9">
    <!-- Sdf2l1 -->
    <g transform="translate(73.56861 19.44)scale(0.12 -0.12)">
     <defs>
      <path d="M 53.515625 70.515625 
L 53.515625 60.890625 
Q 47.90625 63.578125 42.921875 64.890625 
Q 37.9375 66.21875 33.296875 66.21875 
Q 25.25 66.21875 20.875 63.09375 
Q 16.5 59.96875 16.5 54.203125 
Q 16.5 49.359375 19.40625 46.890625 
Q 22.3125 44.4375 30.421875 42.921875 
L 36.375 41.703125 
Q 47.40625 39.59375 52.65625 34.296875 
Q 57.90625 29 57.90625 20.125 
Q 57.90625 9.515625 50.796875 4.046875 
Q 43.703125 -1.421875 29.984375 -1.421875 
Q 24.8125 -1.421875 18.96875 -0.25 
Q 13.140625 0.921875 6.890625 3.21875 
L 6.890625 13.375 
Q 12.890625 10.015625 18.65625 8.296875 
Q 24.421875 6.59375 29.984375 6.59375 
Q 38.421875 6.59375 43.015625 9.90625 
Q 47.609375 13.234375 47.609375 19.390625 
Q 47.609375 24.75 44.3125 27.78125 
Q 41.015625 30.8125 33.5 32.328125 
L 27.484375 33.5 
Q 16.453125 35.6875 11.515625 40.375 
Q 6.59375 45.0625 6.59375 53.421875 
Q 6.59375 63.09375 13.40625 68.65625 
Q 20.21875 74.21875 32.171875 74.21875 
Q 37.3125 74.21875 42.625 73.28125 
Q 47.953125 72.359375 53.515625 70.515625 
z
" id="DejaVuSans-83"/>
      <path d="M 45.40625 46.390625 
L 45.40625 75.984375 
L 54.390625 75.984375 
L 54.390625 0 
L 45.40625 0 
L 45.40625 8.203125 
Q 42.578125 3.328125 38.25 0.953125 
Q 33.9375 -1.421875 27.875 -1.421875 
Q 17.96875 -1.421875 11.734375 6.484375 
Q 5.515625 14.40625 5.515625 27.296875 
Q 5.515625 40.1875 11.734375 48.09375 
Q 17.96875 56 27.875 56 
Q 33.9375 56 38.25 53.625 
Q 42.578125 51.265625 45.40625 46.390625 
z
M 14.796875 27.296875 
Q 14.796875 17.390625 18.875 11.75 
Q 22.953125 6.109375 30.078125 6.109375 
Q 37.203125 6.109375 41.296875 11.75 
Q 45.40625 17.390625 45.40625 27.296875 
Q 45.40625 37.203125 41.296875 42.84375 
Q 37.203125 48.484375 30.078125 48.484375 
Q 22.953125 48.484375 18.875 42.84375 
Q 14.796875 37.203125 14.796875 27.296875 
z
" id="DejaVuSans-100"/>
      <path d="M 37.109375 75.984375 
L 37.109375 68.5 
L 28.515625 68.5 
Q 23.6875 68.5 21.796875 66.546875 
Q 19.921875 64.59375 19.921875 59.515625 
L 19.921875 54.6875 
L 34.71875 54.6875 
L 34.71875 47.703125 
L 19.921875 47.703125 
L 19.921875 0 
L 10.890625 0 
L 10.890625 47.703125 
L 2.296875 47.703125 
L 2.296875 54.6875 
L 10.890625 54.6875 
L 10.890625 58.5 
Q 10.890625 67.625 15.140625 71.796875 
Q 19.390625 75.984375 28.609375 75.984375 
z
" id="DejaVuSans-102"/>
      <path d="M 19.1875 8.296875 
L 53.609375 8.296875 
L 53.609375 0 
L 7.328125 0 
L 7.328125 8.296875 
Q 12.9375 14.109375 22.625 23.890625 
Q 32.328125 33.6875 34.8125 36.53125 
Q 39.546875 41.84375 41.421875 45.53125 
Q 43.3125 49.21875 43.3125 52.78125 
Q 43.3125 58.59375 39.234375 62.25 
Q 35.15625 65.921875 28.609375 65.921875 
Q 23.96875 65.921875 18.8125 64.3125 
Q 13.671875 62.703125 7.8125 59.421875 
L 7.8125 69.390625 
Q 13.765625 71.78125 18.9375 73 
Q 24.125 74.21875 28.421875 74.21875 
Q 39.75 74.21875 46.484375 68.546875 
Q 53.21875 62.890625 53.21875 53.421875 
Q 53.21875 48.921875 51.53125 44.890625 
Q 49.859375 40.875 45.40625 35.40625 
Q 44.1875 33.984375 37.640625 27.21875 
Q 31.109375 20.453125 19.1875 8.296875 
z
" id="DejaVuSans-50"/>
      <path d="M 9.421875 75.984375 
L 18.40625 75.984375 
L 18.40625 0 
L 9.421875 0 
z
" id="DejaVuSans-108"/>
     </defs>
     <use xlink:href="#DejaVuSans-83"/>
     <use x="63.476562" xlink:href="#DejaVuSans-100"/>
     <use x="126.953125" xlink:href="#DejaVuSans-102"/>
     <use x="162.158203" xlink:href="#DejaVuSans-50"/>
     <use x="225.78125" xlink:href="#DejaVuSans-108"/>
     <use x="253.564453" xlink:href="#DejaVuSans-49"/>
    </g>
   </g>
   <g id="line2d_7">
    <path clip-path="url(#p0f3c5607d1)" d="M 51.881891 88.866601 
L 52.704495 86.289621 
L 53.527099 83.830764 
L 54.349703 81.484614 
L 55.172307 79.246006 
L 55.994912 77.11001 
L 56.817516 75.071922 
L 57.64012 73.127256 
L 58.462724 71.271728 
L 59.285328 69.501253 
L 60.107933 67.811932 
L 60.930537 66.200045 
L 61.753141 64.662043 
L 62.575745 63.194539 
L 63.398349 61.794302 
L 64.220953 60.458249 
L 65.043558 59.183436 
L 65.866162 57.967058 
L 66.688766 56.806436 
L 67.51137 55.699013 
L 68.333974 54.642352 
L 69.156579 53.634126 
L 69.979183 52.672115 
L 70.801787 51.754199 
L 71.624391 50.878358 
L 72.446995 50.042664 
L 73.269599 49.245276 
L 74.092204 48.484438 
L 74.914808 47.758476 
L 75.737412 47.065789 
L 76.560016 46.404853 
L 77.38262 45.774213 
L 78.205225 45.17248 
L 79.027829 44.598329 
L 79.850433 44.050496 
L 80.673037 43.527774 
L 81.495641 43.029012 
L 82.318245 42.553112 
L 83.14085 42.099026 
L 83.963454 41.665755 
L 84.786058 41.252343 
L 85.608662 40.857881 
L 86.431266 40.481501 
L 87.253871 40.122372 
L 88.076475 39.779706 
L 88.899079 39.452746 
L 89.721683 39.140773 
L 90.544287 38.8431 
L 91.366891 38.559072 
L 92.189496 38.288063 
L 93.0121 38.029477 
L 93.834704 37.782743 
L 94.657308 37.547319 
L 95.479912 37.322686 
L 96.302517 37.10835 
L 97.125121 36.903838 
L 97.947725 36.708701 
L 98.770329 36.522509 
L 99.592933 36.344851 
L 100.415537 36.175336 
L 101.238142 36.013591 
L 102.060746 35.859261 
L 102.88335 35.712004 
L 103.705954 35.571498 
L 104.528558 35.437432 
L 105.351163 35.309511 
L 106.173767 35.187454 
L 106.996371 35.070991 
L 107.818975 34.959867 
L 108.641579 34.853837 
L 109.464183 34.752666 
L 110.286788 34.656133 
L 111.109392 34.564025 
L 111.931996 34.476139 
L 112.7546 34.392282 
L 113.577204 34.312268 
L 114.399809 34.235922 
L 115.222413 34.163075 
L 116.045017 34.093568 
L 116.867621 34.027246 
L 117.690225 33.963965 
L 118.512829 33.903584 
L 119.335434 33.845971 
L 120.158038 33.790998 
L 120.980642 33.738546 
L 121.803246 33.688498 
L 122.62585 33.640744 
L 123.448455 33.595179 
L 124.271059 33.551702 
L 125.093663 33.510218 
L 125.916267 33.470636 
L 126.738871 33.432868 
L 127.561475 33.396832 
L 128.38408 33.362447 
L 129.206684 33.329638 
L 130.029288 33.298333 
L 130.851892 33.268463 
L 131.674496 33.239962 
L 132.497101 33.212768 
L 133.319705 33.18682 
" style="fill:none;stroke:#2ca02c;stroke-linecap:square;stroke-width:3;"/>
   </g>
   <g id="PathCollection_1">
    <defs>
     <path d="M 0 3 
C 0.795609 3 1.55874 2.683901 2.12132 2.12132 
C 2.683901 1.55874 3 0.795609 3 0 
C 3 -0.795609 2.683901 -1.55874 2.12132 -2.12132 
C 1.55874 -2.683901 0.795609 -3 0 -3 
C -0.795609 -3 -1.55874 -2.683901 -2.12132 -2.12132 
C -2.683901 -1.55874 -3 -0.795609 -3 0 
C -3 0.795609 -2.683901 1.55874 -2.12132 2.12132 
C -1.55874 2.683901 -0.795609 3 0 3 
z
" id="mccaa6f27ea" style="stroke:#ffffff;stroke-width:0.48;"/>
    </defs>
    <g clip-path="url(#p0f3c5607d1)">
     <use style="stroke:#ffffff;stroke-width:0.48;" x="51.881891" xlink:href="#mccaa6f27ea" y="88.866601"/>
     <use style="stroke:#ffffff;stroke-width:0.48;" x="51.881891" xlink:href="#mccaa6f27ea" y="88.866601"/>
     <use style="stroke:#ffffff;stroke-width:0.48;" x="65.976897" xlink:href="#mccaa6f27ea" y="46.832577"/>
     <use style="stroke:#ffffff;stroke-width:0.48;" x="65.976897" xlink:href="#mccaa6f27ea" y="46.832577"/>
     <use style="stroke:#ffffff;stroke-width:0.48;" x="70.675232" xlink:href="#mccaa6f27ea" y="41.09496"/>
     <use style="stroke:#ffffff;stroke-width:0.48;" x="70.675232" xlink:href="#mccaa6f27ea" y="41.09496"/>
     <use style="stroke:#ffffff;stroke-width:0.48;" x="89.468574" xlink:href="#mccaa6f27ea" y="40.015688"/>
     <use style="stroke:#ffffff;stroke-width:0.48;" x="89.468574" xlink:href="#mccaa6f27ea" y="40.015688"/>
     <use style="stroke:#ffffff;stroke-width:0.48;" x="56.580226" xlink:href="#mccaa6f27ea" y="90.60251"/>
     <use style="stroke:#ffffff;stroke-width:0.48;" x="56.580226" xlink:href="#mccaa6f27ea" y="90.60251"/>
     <use style="stroke:#ffffff;stroke-width:0.48;" x="117.658587" xlink:href="#mccaa6f27ea" y="32.646685"/>
    </g>
   </g>
   <g id="LineCollection_1">
    <path clip-path="url(#p0f3c5607d1)" d="M 51.881891 91.113278 
L 51.881891 86.619925 
" style="fill:none;stroke:#000000;stroke-width:1.5;"/>
    <path clip-path="url(#p0f3c5607d1)" d="M 51.881891 91.113278 
L 51.881891 86.619925 
" style="fill:none;stroke:#000000;stroke-width:1.5;"/>
    <path clip-path="url(#p0f3c5607d1)" d="M 65.976897 61.020926 
L 65.976897 32.644229 
" style="fill:none;stroke:#000000;stroke-width:1.5;"/>
    <path clip-path="url(#p0f3c5607d1)" d="M 65.976897 61.020926 
L 65.976897 32.644229 
" style="fill:none;stroke:#000000;stroke-width:1.5;"/>
    <path clip-path="url(#p0f3c5607d1)" d="M 70.675232 53.268102 
L 70.675232 28.921818 
" style="fill:none;stroke:#000000;stroke-width:1.5;"/>
    <path clip-path="url(#p0f3c5607d1)" d="M 70.675232 53.268102 
L 70.675232 28.921818 
" style="fill:none;stroke:#000000;stroke-width:1.5;"/>
    <path clip-path="url(#p0f3c5607d1)" d="M 89.468574 42.745102 
L 89.468574 37.286274 
" style="fill:none;stroke:#000000;stroke-width:1.5;"/>
    <path clip-path="url(#p0f3c5607d1)" d="M 89.468574 42.745102 
L 89.468574 37.286274 
" style="fill:none;stroke:#000000;stroke-width:1.5;"/>
    <path clip-path="url(#p0f3c5607d1)" d="M 56.580226 98.558182 
L 56.580226 82.646839 
" style="fill:none;stroke:#000000;stroke-width:1.5;"/>
    <path clip-path="url(#p0f3c5607d1)" d="M 56.580226 98.558182 
L 56.580226 82.646839 
" style="fill:none;stroke:#000000;stroke-width:1.5;"/>
    <path clip-path="url(#p0f3c5607d1)" d="M 117.658587 34.669763 
L 117.658587 30.623607 
" style="fill:none;stroke:#000000;stroke-width:1.5;"/>
   </g>
   <g id="line2d_8">
    <defs>
     <path d="M 10 0 
L -10 -0 
" id="meda665f5ef" style="stroke:#000000;"/>
    </defs>
    <g clip-path="url(#p0f3c5607d1)">
     <use style="stroke:#000000;" x="51.881891" xlink:href="#meda665f5ef" y="91.113278"/>
     <use style="stroke:#000000;" x="51.881891" xlink:href="#meda665f5ef" y="91.113278"/>
     <use style="stroke:#000000;" x="65.976897" xlink:href="#meda665f5ef" y="61.020926"/>
     <use style="stroke:#000000;" x="65.976897" xlink:href="#meda665f5ef" y="61.020926"/>
     <use style="stroke:#000000;" x="70.675232" xlink:href="#meda665f5ef" y="53.268102"/>
     <use style="stroke:#000000;" x="70.675232" xlink:href="#meda665f5ef" y="53.268102"/>
     <use style="stroke:#000000;" x="89.468574" xlink:href="#meda665f5ef" y="42.745102"/>
     <use style="stroke:#000000;" x="89.468574" xlink:href="#meda665f5ef" y="42.745102"/>
     <use style="stroke:#000000;" x="56.580226" xlink:href="#meda665f5ef" y="98.558182"/>
     <use style="stroke:#000000;" x="56.580226" xlink:href="#meda665f5ef" y="98.558182"/>
     <use style="stroke:#000000;" x="117.658587" xlink:href="#meda665f5ef" y="34.669763"/>
    </g>
   </g>
   <g id="line2d_9">
    <g clip-path="url(#p0f3c5607d1)">
     <use style="stroke:#000000;" x="51.881891" xlink:href="#meda665f5ef" y="86.619925"/>
     <use style="stroke:#000000;" x="51.881891" xlink:href="#meda665f5ef" y="86.619925"/>
     <use style="stroke:#000000;" x="65.976897" xlink:href="#meda665f5ef" y="32.644229"/>
     <use style="stroke:#000000;" x="65.976897" xlink:href="#meda665f5ef" y="32.644229"/>
     <use style="stroke:#000000;" x="70.675232" xlink:href="#meda665f5ef" y="28.921818"/>
     <use style="stroke:#000000;" x="70.675232" xlink:href="#meda665f5ef" y="28.921818"/>
     <use style="stroke:#000000;" x="89.468574" xlink:href="#meda665f5ef" y="37.286274"/>
     <use style="stroke:#000000;" x="89.468574" xlink:href="#meda665f5ef" y="37.286274"/>
     <use style="stroke:#000000;" x="56.580226" xlink:href="#meda665f5ef" y="82.646839"/>
     <use style="stroke:#000000;" x="56.580226" xlink:href="#meda665f5ef" y="82.646839"/>
     <use style="stroke:#000000;" x="117.658587" xlink:href="#meda665f5ef" y="30.623607"/>
    </g>
   </g>
  </g>
  <g id="axes_2">
   <g id="patch_7">
    <path d="M 154.148 102.04 
L 243.729595 102.04 
L 243.729595 25.44 
L 154.148 25.44 
z
" style="fill:#ffffff;"/>
   </g>
   <g id="matplotlib.axis_3">
    <g id="xtick_4">
     <g id="line2d_10">
      <g>
       <use style="stroke:#000000;stroke-width:0.8;" x="158.219891" xlink:href="#m976e60f3fa" y="102.04"/>
      </g>
     </g>
     <g id="text_10">
      <!-- 0 -->
      <g transform="translate(155.038641 116.638437)scale(0.1 -0.1)">
       <use xlink:href="#DejaVuSans-48"/>
      </g>
     </g>
    </g>
    <g id="xtick_5">
     <g id="line2d_11">
      <g>
       <use style="stroke:#000000;stroke-width:0.8;" x="197.372686" xlink:href="#m976e60f3fa" y="102.04"/>
      </g>
     </g>
     <g id="text_11">
      <!-- 50 -->
      <g transform="translate(191.010186 116.638437)scale(0.1 -0.1)">
       <use xlink:href="#DejaVuSans-53"/>
       <use x="63.623047" xlink:href="#DejaVuSans-48"/>
      </g>
     </g>
    </g>
    <g id="xtick_6">
     <g id="line2d_12">
      <g>
       <use style="stroke:#000000;stroke-width:0.8;" x="236.525481" xlink:href="#m976e60f3fa" y="102.04"/>
      </g>
     </g>
     <g id="text_12">
      <!-- 100 -->
      <g transform="translate(226.981731 116.638437)scale(0.1 -0.1)">
       <use xlink:href="#DejaVuSans-49"/>
       <use x="63.623047" xlink:href="#DejaVuSans-48"/>
       <use x="127.246094" xlink:href="#DejaVuSans-48"/>
      </g>
     </g>
    </g>
    <g id="text_13">
     <!-- time (h) -->
     <g transform="translate(178.983329 130.316563)scale(0.1 -0.1)">
      <use xlink:href="#DejaVuSans-116"/>
      <use x="39.208984" xlink:href="#DejaVuSans-105"/>
      <use x="66.992188" xlink:href="#DejaVuSans-109"/>
      <use x="164.404297" xlink:href="#DejaVuSans-101"/>
      <use x="225.927734" xlink:href="#DejaVuSans-32"/>
      <use x="257.714844" xlink:href="#DejaVuSans-40"/>
      <use x="296.728516" xlink:href="#DejaVuSans-104"/>
      <use x="360.107422" xlink:href="#DejaVuSans-41"/>
     </g>
    </g>
   </g>
   <g id="matplotlib.axis_4">
    <g id="ytick_4">
     <g id="line2d_13">
      <g>
       <use style="stroke:#000000;stroke-width:0.8;" x="154.148" xlink:href="#mbe32b59e64" y="92.249955"/>
      </g>
     </g>
    </g>
    <g id="ytick_5">
     <g id="line2d_14">
      <g>
       <use style="stroke:#000000;stroke-width:0.8;" x="154.148" xlink:href="#mbe32b59e64" y="62.244179"/>
      </g>
     </g>
    </g>
    <g id="ytick_6">
     <g id="line2d_15">
      <g>
       <use style="stroke:#000000;stroke-width:0.8;" x="154.148" xlink:href="#mbe32b59e64" y="32.238402"/>
      </g>
     </g>
    </g>
   </g>
   <g id="patch_8">
    <path d="M 154.148 102.04 
L 154.148 25.44 
" style="fill:none;stroke:#000000;stroke-linecap:square;stroke-linejoin:miter;stroke-width:0.8;"/>
   </g>
   <g id="patch_9">
    <path d="M 243.729595 102.04 
L 243.729595 25.44 
" style="fill:none;stroke:#000000;stroke-linecap:square;stroke-linejoin:miter;stroke-width:0.8;"/>
   </g>
   <g id="patch_10">
    <path d="M 154.148 102.04 
L 243.729595 102.04 
" style="fill:none;stroke:#000000;stroke-linecap:square;stroke-linejoin:miter;stroke-width:0.8;"/>
   </g>
   <g id="patch_11">
    <path d="M 154.148 25.44 
L 243.729595 25.44 
" style="fill:none;stroke:#000000;stroke-linecap:square;stroke-linejoin:miter;stroke-width:0.8;"/>
   </g>
   <g id="line2d_16">
    <path clip-path="url(#peb8065b52e)" d="M 158.219891 92.249955 
L 159.042495 92.249955 
L 159.865099 92.249955 
L 160.687703 92.249955 
L 161.510307 92.249955 
L 162.332912 92.249955 
L 163.155516 92.249955 
L 163.97812 92.249955 
L 164.800724 92.249955 
L 165.623328 92.249955 
L 166.445933 92.249955 
L 167.268537 92.249955 
L 168.091141 92.249955 
L 168.913745 92.249955 
L 169.736349 92.249955 
L 170.558953 92.249955 
L 171.381558 92.249955 
L 172.204162 92.249955 
L 173.026766 92.249955 
L 173.84937 92.249955 
L 174.671974 92.249955 
L 175.494579 92.249952 
L 176.317183 92.249941 
L 177.139787 92.249903 
L 177.962391 92.249786 
L 178.784995 92.249454 
L 179.607599 92.248583 
L 180.430204 92.246473 
L 181.252808 92.241708 
L 182.075412 92.23163 
L 182.898016 92.211587 
L 183.72062 92.173944 
L 184.543225 92.10694 
L 185.365829 91.99353 
L 186.188433 91.81044 
L 187.011037 91.527736 
L 187.833641 91.109183 
L 188.656245 90.513621 
L 189.47885 89.697438 
L 190.301454 88.618029 
L 191.124058 87.23793 
L 191.946662 85.529134 
L 192.769266 83.477016 
L 193.591871 81.083285 
L 194.414475 78.367504 
L 195.237079 75.366923 
L 196.059683 72.134582 
L 196.882287 68.735934 
L 197.704891 65.244382 
L 198.527496 61.736277 
L 199.3501 58.28594 
L 200.172704 54.961226 
L 200.995308 51.820001 
L 201.817912 48.907786 
L 202.640517 46.25662 
L 203.463121 43.885073 
L 204.285725 41.799218 
L 205.108329 39.994306 
L 205.930933 38.456879 
L 206.753537 37.16704 
L 207.576142 36.100684 
L 208.398746 35.231511 
L 209.22135 34.532717 
L 210.043954 33.978317 
L 210.866558 33.544095 
L 211.689163 33.208213 
L 212.511767 32.951517 
L 213.334371 32.757624 
L 214.156975 32.612823 
L 214.979579 32.50587 
L 215.802183 32.427715 
L 216.624788 32.371195 
L 217.447392 32.330732 
L 218.269996 32.302047 
L 219.0926 32.281906 
L 219.915204 32.267895 
L 220.737809 32.258236 
L 221.560413 32.251635 
L 222.383017 32.247164 
L 223.205621 32.24416 
L 224.028225 32.242158 
L 224.850829 32.240834 
L 225.673434 32.239966 
L 226.496038 32.239401 
L 227.318642 32.239035 
L 228.141246 32.238801 
L 228.96385 32.238652 
L 229.786455 32.238557 
L 230.609059 32.238498 
L 231.431663 32.238461 
L 232.254267 32.238438 
L 233.076871 32.238424 
L 233.899475 32.238415 
L 234.72208 32.23841 
L 235.544684 32.238406 
L 236.367288 32.238405 
L 237.189892 32.238403 
L 238.012496 32.238403 
L 238.835101 32.238402 
L 239.657705 32.238402 
" style="fill:none;stroke:#1f77b4;stroke-linecap:square;stroke-width:3;"/>
   </g>
   <g id="text_14">
    <!-- Alox12 -->
    <g transform="translate(178.497548 19.44)scale(0.12 -0.12)">
     <defs>
      <path d="M 34.1875 63.1875 
L 20.796875 26.90625 
L 47.609375 26.90625 
z
M 28.609375 72.90625 
L 39.796875 72.90625 
L 67.578125 0 
L 57.328125 0 
L 50.6875 18.703125 
L 17.828125 18.703125 
L 11.1875 0 
L 0.78125 0 
z
" id="DejaVuSans-65"/>
     </defs>
     <use xlink:href="#DejaVuSans-65"/>
     <use x="68.408203" xlink:href="#DejaVuSans-108"/>
     <use x="96.191406" xlink:href="#DejaVuSans-111"/>
     <use x="154.248047" xlink:href="#DejaVuSans-120"/>
     <use x="213.427734" xlink:href="#DejaVuSans-49"/>
     <use x="277.050781" xlink:href="#DejaVuSans-50"/>
    </g>
   </g>
   <g id="PathCollection_2">
    <g clip-path="url(#peb8065b52e)">
     <use style="stroke:#ffffff;stroke-width:0.48;" x="158.219891" xlink:href="#mccaa6f27ea" y="92.249955"/>
     <use style="stroke:#ffffff;stroke-width:0.48;" x="158.219891" xlink:href="#mccaa6f27ea" y="92.249955"/>
     <use style="stroke:#ffffff;stroke-width:0.48;" x="172.314897" xlink:href="#mccaa6f27ea" y="89.012186"/>
     <use style="stroke:#ffffff;stroke-width:0.48;" x="172.314897" xlink:href="#mccaa6f27ea" y="89.012186"/>
     <use style="stroke:#ffffff;stroke-width:0.48;" x="177.013232" xlink:href="#mccaa6f27ea" y="91.805361"/>
     <use style="stroke:#ffffff;stroke-width:0.48;" x="177.013232" xlink:href="#mccaa6f27ea" y="91.805361"/>
     <use style="stroke:#ffffff;stroke-width:0.48;" x="195.806574" xlink:href="#mccaa6f27ea" y="73.150094"/>
     <use style="stroke:#ffffff;stroke-width:0.48;" x="195.806574" xlink:href="#mccaa6f27ea" y="73.150094"/>
     <use style="stroke:#ffffff;stroke-width:0.48;" x="162.918226" xlink:href="#mccaa6f27ea" y="82.363918"/>
     <use style="stroke:#ffffff;stroke-width:0.48;" x="162.918226" xlink:href="#mccaa6f27ea" y="82.363918"/>
     <use style="stroke:#ffffff;stroke-width:0.48;" x="223.996587" xlink:href="#mccaa6f27ea" y="32.238402"/>
    </g>
   </g>
   <g id="LineCollection_2">
    <path clip-path="url(#peb8065b52e)" d="M 158.219891 94.02618 
L 158.219891 90.473731 
" style="fill:none;stroke:#000000;stroke-width:1.5;"/>
    <path clip-path="url(#peb8065b52e)" d="M 158.219891 94.02618 
L 158.219891 90.473731 
" style="fill:none;stroke:#000000;stroke-width:1.5;"/>
    <path clip-path="url(#peb8065b52e)" d="M 172.314897 91.814859 
L 172.314897 86.209512 
" style="fill:none;stroke:#000000;stroke-width:1.5;"/>
    <path clip-path="url(#peb8065b52e)" d="M 172.314897 91.814859 
L 172.314897 86.209512 
" style="fill:none;stroke:#000000;stroke-width:1.5;"/>
    <path clip-path="url(#peb8065b52e)" d="M 177.013232 98.558182 
L 177.013232 85.052541 
" style="fill:none;stroke:#000000;stroke-width:1.5;"/>
    <path clip-path="url(#peb8065b52e)" d="M 177.013232 98.558182 
L 177.013232 85.052541 
" style="fill:none;stroke:#000000;stroke-width:1.5;"/>
    <path clip-path="url(#peb8065b52e)" d="M 195.806574 79.274164 
L 195.806574 67.026025 
" style="fill:none;stroke:#000000;stroke-width:1.5;"/>
    <path clip-path="url(#peb8065b52e)" d="M 195.806574 79.274164 
L 195.806574 67.026025 
" style="fill:none;stroke:#000000;stroke-width:1.5;"/>
    <path clip-path="url(#peb8065b52e)" d="M 162.918226 86.668368 
L 162.918226 78.059468 
" style="fill:none;stroke:#000000;stroke-width:1.5;"/>
    <path clip-path="url(#peb8065b52e)" d="M 162.918226 86.668368 
L 162.918226 78.059468 
" style="fill:none;stroke:#000000;stroke-width:1.5;"/>
    <path clip-path="url(#peb8065b52e)" d="M 223.996587 35.554985 
L 223.996587 28.921818 
" style="fill:none;stroke:#000000;stroke-width:1.5;"/>
   </g>
   <g id="line2d_17">
    <g clip-path="url(#peb8065b52e)">
     <use style="stroke:#000000;" x="158.219891" xlink:href="#meda665f5ef" y="94.02618"/>
     <use style="stroke:#000000;" x="158.219891" xlink:href="#meda665f5ef" y="94.02618"/>
     <use style="stroke:#000000;" x="172.314897" xlink:href="#meda665f5ef" y="91.814859"/>
     <use style="stroke:#000000;" x="172.314897" xlink:href="#meda665f5ef" y="91.814859"/>
     <use style="stroke:#000000;" x="177.013232" xlink:href="#meda665f5ef" y="98.558182"/>
     <use style="stroke:#000000;" x="177.013232" xlink:href="#meda665f5ef" y="98.558182"/>
     <use style="stroke:#000000;" x="195.806574" xlink:href="#meda665f5ef" y="79.274164"/>
     <use style="stroke:#000000;" x="195.806574" xlink:href="#meda665f5ef" y="79.274164"/>
     <use style="stroke:#000000;" x="162.918226" xlink:href="#meda665f5ef" y="86.668368"/>
     <use style="stroke:#000000;" x="162.918226" xlink:href="#meda665f5ef" y="86.668368"/>
     <use style="stroke:#000000;" x="223.996587" xlink:href="#meda665f5ef" y="35.554985"/>
    </g>
   </g>
   <g id="line2d_18">
    <g clip-path="url(#peb8065b52e)">
     <use style="stroke:#000000;" x="158.219891" xlink:href="#meda665f5ef" y="90.473731"/>
     <use style="stroke:#000000;" x="158.219891" xlink:href="#meda665f5ef" y="90.473731"/>
     <use style="stroke:#000000;" x="172.314897" xlink:href="#meda665f5ef" y="86.209512"/>
     <use style="stroke:#000000;" x="172.314897" xlink:href="#meda665f5ef" y="86.209512"/>
     <use style="stroke:#000000;" x="177.013232" xlink:href="#meda665f5ef" y="85.052541"/>
     <use style="stroke:#000000;" x="177.013232" xlink:href="#meda665f5ef" y="85.052541"/>
     <use style="stroke:#000000;" x="195.806574" xlink:href="#meda665f5ef" y="67.026025"/>
     <use style="stroke:#000000;" x="195.806574" xlink:href="#meda665f5ef" y="67.026025"/>
     <use style="stroke:#000000;" x="162.918226" xlink:href="#meda665f5ef" y="78.059468"/>
     <use style="stroke:#000000;" x="162.918226" xlink:href="#meda665f5ef" y="78.059468"/>
     <use style="stroke:#000000;" x="223.996587" xlink:href="#meda665f5ef" y="28.921818"/>
    </g>
   </g>
  </g>
  <g id="axes_3">
   <g id="patch_12">
    <path d="M 260.486 102.04 
L 350.067595 102.04 
L 350.067595 25.44 
L 260.486 25.44 
z
" style="fill:#ffffff;"/>
   </g>
   <g id="matplotlib.axis_5">
    <g id="xtick_7">
     <g id="line2d_19">
      <g>
       <use style="stroke:#000000;stroke-width:0.8;" x="264.557891" xlink:href="#m976e60f3fa" y="102.04"/>
      </g>
     </g>
     <g id="text_15">
      <!-- 0 -->
      <g transform="translate(261.376641 116.638437)scale(0.1 -0.1)">
       <use xlink:href="#DejaVuSans-48"/>
      </g>
     </g>
    </g>
    <g id="xtick_8">
     <g id="line2d_20">
      <g>
       <use style="stroke:#000000;stroke-width:0.8;" x="303.710686" xlink:href="#m976e60f3fa" y="102.04"/>
      </g>
     </g>
     <g id="text_16">
      <!-- 50 -->
      <g transform="translate(297.348186 116.638437)scale(0.1 -0.1)">
       <use xlink:href="#DejaVuSans-53"/>
       <use x="63.623047" xlink:href="#DejaVuSans-48"/>
      </g>
     </g>
    </g>
    <g id="xtick_9">
     <g id="line2d_21">
      <g>
       <use style="stroke:#000000;stroke-width:0.8;" x="342.863481" xlink:href="#m976e60f3fa" y="102.04"/>
      </g>
     </g>
     <g id="text_17">
      <!-- 100 -->
      <g transform="translate(333.319731 116.638437)scale(0.1 -0.1)">
       <use xlink:href="#DejaVuSans-49"/>
       <use x="63.623047" xlink:href="#DejaVuSans-48"/>
       <use x="127.246094" xlink:href="#DejaVuSans-48"/>
      </g>
     </g>
    </g>
    <g id="text_18">
     <!-- time (h) -->
     <g transform="translate(285.321329 130.316563)scale(0.1 -0.1)">
      <use xlink:href="#DejaVuSans-116"/>
      <use x="39.208984" xlink:href="#DejaVuSans-105"/>
      <use x="66.992188" xlink:href="#DejaVuSans-109"/>
      <use x="164.404297" xlink:href="#DejaVuSans-101"/>
      <use x="225.927734" xlink:href="#DejaVuSans-32"/>
      <use x="257.714844" xlink:href="#DejaVuSans-40"/>
      <use x="296.728516" xlink:href="#DejaVuSans-104"/>
      <use x="360.107422" xlink:href="#DejaVuSans-41"/>
     </g>
    </g>
   </g>
   <g id="matplotlib.axis_6">
    <g id="ytick_7">
     <g id="line2d_22">
      <g>
       <use style="stroke:#000000;stroke-width:0.8;" x="260.486" xlink:href="#mbe32b59e64" y="92.881246"/>
      </g>
     </g>
    </g>
    <g id="ytick_8">
     <g id="line2d_23">
      <g>
       <use style="stroke:#000000;stroke-width:0.8;" x="260.486" xlink:href="#mbe32b59e64" y="64.085861"/>
      </g>
     </g>
    </g>
    <g id="ytick_9">
     <g id="line2d_24">
      <g>
       <use style="stroke:#000000;stroke-width:0.8;" x="260.486" xlink:href="#mbe32b59e64" y="35.290476"/>
      </g>
     </g>
    </g>
   </g>
   <g id="line2d_25">
    <path clip-path="url(#p73f276208e)" d="M 264.557891 92.881246 
L 265.380495 66.008547 
L 266.203099 61.450517 
L 267.025703 58.501049 
L 267.848307 56.291122 
L 268.670912 54.518623 
L 269.493516 53.039247 
L 270.31612 51.77174 
L 271.138724 50.665387 
L 271.961328 49.686205 
L 272.783933 48.810198 
L 273.606537 48.019731 
L 274.429141 47.301428 
L 275.251745 46.644874 
L 276.074349 46.041789 
L 276.896953 45.485469 
L 277.719558 44.970404 
L 278.542162 44.492002 
L 279.364766 44.046396 
L 280.18737 43.630293 
L 281.009974 43.240865 
L 281.832579 42.875665 
L 282.655183 42.532557 
L 283.477787 42.20967 
L 284.300391 41.905349 
L 285.122995 41.618127 
L 285.945599 41.346698 
L 286.768204 41.089888 
L 287.590808 40.846645 
L 288.413412 40.616018 
L 289.236016 40.397145 
L 290.05862 40.189245 
L 290.881225 39.991604 
L 291.703829 39.80357 
L 292.526433 39.624546 
L 293.349037 39.453984 
L 294.171641 39.291379 
L 294.994245 39.136266 
L 295.81685 38.988214 
L 296.639454 38.846824 
L 297.462058 38.711726 
L 298.284662 38.582578 
L 299.107266 38.459059 
L 299.929871 38.340871 
L 300.752475 38.227736 
L 301.575079 38.119394 
L 302.397683 38.015603 
L 303.220287 37.916133 
L 304.042891 37.820771 
L 304.865496 37.729317 
L 305.6881 37.641581 
L 306.510704 37.557386 
L 307.333308 37.476565 
L 308.155912 37.39896 
L 308.978517 37.324423 
L 309.801121 37.252813 
L 310.623725 37.183997 
L 311.446329 37.117849 
L 312.268933 37.054252 
L 313.091537 36.993092 
L 313.914142 36.934263 
L 314.736746 36.877664 
L 315.55935 36.823199 
L 316.381954 36.770776 
L 317.204558 36.72031 
L 318.027163 36.671718 
L 318.849767 36.624921 
L 319.672371 36.579846 
L 320.494975 36.536422 
L 321.317579 36.49458 
L 322.140183 36.454257 
L 322.962788 36.415392 
L 323.785392 36.377925 
L 324.607996 36.341802 
L 325.4306 36.306969 
L 326.253204 36.273375 
L 327.075809 36.240971 
L 327.898413 36.209711 
L 328.721017 36.179552 
L 329.543621 36.150449 
L 330.366225 36.122364 
L 331.188829 36.095256 
L 332.011434 36.06909 
L 332.834038 36.043829 
L 333.656642 36.019438 
L 334.479246 35.995887 
L 335.30185 35.973143 
L 336.124455 35.951176 
L 336.947059 35.929957 
L 337.769663 35.90946 
L 338.592267 35.889657 
L 339.414871 35.870524 
L 340.237475 35.852035 
L 341.06008 35.834168 
L 341.882684 35.8169 
L 342.705288 35.800209 
L 343.527892 35.784075 
L 344.350496 35.768478 
L 345.173101 35.753399 
L 345.995705 35.73882 
" style="fill:none;stroke:#ff7f0e;stroke-linecap:square;stroke-width:3;"/>
   </g>
   <g id="patch_13">
    <path d="M 260.486 102.04 
L 260.486 25.44 
" style="fill:none;stroke:#000000;stroke-linecap:square;stroke-linejoin:miter;stroke-width:0.8;"/>
   </g>
   <g id="patch_14">
    <path d="M 350.067595 102.04 
L 350.067595 25.44 
" style="fill:none;stroke:#000000;stroke-linecap:square;stroke-linejoin:miter;stroke-width:0.8;"/>
   </g>
   <g id="patch_15">
    <path d="M 260.486 102.04 
L 350.067595 102.04 
" style="fill:none;stroke:#000000;stroke-linecap:square;stroke-linejoin:miter;stroke-width:0.8;"/>
   </g>
   <g id="patch_16">
    <path d="M 260.486 25.44 
L 350.067595 25.44 
" style="fill:none;stroke:#000000;stroke-linecap:square;stroke-linejoin:miter;stroke-width:0.8;"/>
   </g>
   <g id="text_19">
    <!-- Olfr56 -->
    <g transform="translate(286.673048 19.44)scale(0.12 -0.12)">
     <defs>
      <path d="M 39.40625 66.21875 
Q 28.65625 66.21875 22.328125 58.203125 
Q 16.015625 50.203125 16.015625 36.375 
Q 16.015625 22.609375 22.328125 14.59375 
Q 28.65625 6.59375 39.40625 6.59375 
Q 50.140625 6.59375 56.421875 14.59375 
Q 62.703125 22.609375 62.703125 36.375 
Q 62.703125 50.203125 56.421875 58.203125 
Q 50.140625 66.21875 39.40625 66.21875 
z
M 39.40625 74.21875 
Q 54.734375 74.21875 63.90625 63.9375 
Q 73.09375 53.65625 73.09375 36.375 
Q 73.09375 19.140625 63.90625 8.859375 
Q 54.734375 -1.421875 39.40625 -1.421875 
Q 24.03125 -1.421875 14.8125 8.828125 
Q 5.609375 19.09375 5.609375 36.375 
Q 5.609375 53.65625 14.8125 63.9375 
Q 24.03125 74.21875 39.40625 74.21875 
z
" id="DejaVuSans-79"/>
      <path d="M 33.015625 40.375 
Q 26.375 40.375 22.484375 35.828125 
Q 18.609375 31.296875 18.609375 23.390625 
Q 18.609375 15.53125 22.484375 10.953125 
Q 26.375 6.390625 33.015625 6.390625 
Q 39.65625 6.390625 43.53125 10.953125 
Q 47.40625 15.53125 47.40625 23.390625 
Q 47.40625 31.296875 43.53125 35.828125 
Q 39.65625 40.375 33.015625 40.375 
z
M 52.59375 71.296875 
L 52.59375 62.3125 
Q 48.875 64.0625 45.09375 64.984375 
Q 41.3125 65.921875 37.59375 65.921875 
Q 27.828125 65.921875 22.671875 59.328125 
Q 17.53125 52.734375 16.796875 39.40625 
Q 19.671875 43.65625 24.015625 45.921875 
Q 28.375 48.1875 33.59375 48.1875 
Q 44.578125 48.1875 50.953125 41.515625 
Q 57.328125 34.859375 57.328125 23.390625 
Q 57.328125 12.15625 50.6875 5.359375 
Q 44.046875 -1.421875 33.015625 -1.421875 
Q 20.359375 -1.421875 13.671875 8.265625 
Q 6.984375 17.96875 6.984375 36.375 
Q 6.984375 53.65625 15.1875 63.9375 
Q 23.390625 74.21875 37.203125 74.21875 
Q 40.921875 74.21875 44.703125 73.484375 
Q 48.484375 72.75 52.59375 71.296875 
z
" id="DejaVuSans-54"/>
     </defs>
     <use xlink:href="#DejaVuSans-79"/>
     <use x="78.710938" xlink:href="#DejaVuSans-108"/>
     <use x="106.494141" xlink:href="#DejaVuSans-102"/>
     <use x="141.699219" xlink:href="#DejaVuSans-114"/>
     <use x="182.8125" xlink:href="#DejaVuSans-53"/>
     <use x="246.435547" xlink:href="#DejaVuSans-54"/>
    </g>
   </g>
   <g id="PathCollection_3">
    <g clip-path="url(#p73f276208e)">
     <use style="stroke:#ffffff;stroke-width:0.48;" x="264.557891" xlink:href="#mccaa6f27ea" y="92.881246"/>
     <use style="stroke:#ffffff;stroke-width:0.48;" x="264.557891" xlink:href="#mccaa6f27ea" y="92.881246"/>
     <use style="stroke:#ffffff;stroke-width:0.48;" x="278.652897" xlink:href="#mccaa6f27ea" y="48.535824"/>
     <use style="stroke:#ffffff;stroke-width:0.48;" x="278.652897" xlink:href="#mccaa6f27ea" y="48.535824"/>
     <use style="stroke:#ffffff;stroke-width:0.48;" x="283.351232" xlink:href="#mccaa6f27ea" y="36.949262"/>
     <use style="stroke:#ffffff;stroke-width:0.48;" x="283.351232" xlink:href="#mccaa6f27ea" y="36.949262"/>
     <use style="stroke:#ffffff;stroke-width:0.48;" x="302.144574" xlink:href="#mccaa6f27ea" y="38.086352"/>
     <use style="stroke:#ffffff;stroke-width:0.48;" x="302.144574" xlink:href="#mccaa6f27ea" y="38.086352"/>
     <use style="stroke:#ffffff;stroke-width:0.48;" x="269.256226" xlink:href="#mccaa6f27ea" y="48.554557"/>
     <use style="stroke:#ffffff;stroke-width:0.48;" x="269.256226" xlink:href="#mccaa6f27ea" y="48.554557"/>
     <use style="stroke:#ffffff;stroke-width:0.48;" x="330.334587" xlink:href="#mccaa6f27ea" y="35.290476"/>
    </g>
   </g>
   <g id="LineCollection_3">
    <path clip-path="url(#p73f276208e)" d="M 264.557891 98.558182 
L 264.557891 87.20431 
" style="fill:none;stroke:#000000;stroke-width:1.5;"/>
    <path clip-path="url(#p73f276208e)" d="M 264.557891 98.558182 
L 264.557891 87.20431 
" style="fill:none;stroke:#000000;stroke-width:1.5;"/>
    <path clip-path="url(#p73f276208e)" d="M 278.652897 48.535824 
L 278.652897 48.535824 
" style="fill:none;stroke:#000000;stroke-width:1.5;"/>
    <path clip-path="url(#p73f276208e)" d="M 278.652897 48.535824 
L 278.652897 48.535824 
" style="fill:none;stroke:#000000;stroke-width:1.5;"/>
    <path clip-path="url(#p73f276208e)" d="M 283.351232 44.976707 
L 283.351232 28.921818 
" style="fill:none;stroke:#000000;stroke-width:1.5;"/>
    <path clip-path="url(#p73f276208e)" d="M 283.351232 44.976707 
L 283.351232 28.921818 
" style="fill:none;stroke:#000000;stroke-width:1.5;"/>
    <path clip-path="url(#p73f276208e)" d="M 302.144574 38.804512 
L 302.144574 37.368192 
" style="fill:none;stroke:#000000;stroke-width:1.5;"/>
    <path clip-path="url(#p73f276208e)" d="M 302.144574 38.804512 
L 302.144574 37.368192 
" style="fill:none;stroke:#000000;stroke-width:1.5;"/>
    <path clip-path="url(#p73f276208e)" d="M 269.256226 58.690179 
L 269.256226 38.418935 
" style="fill:none;stroke:#000000;stroke-width:1.5;"/>
    <path clip-path="url(#p73f276208e)" d="M 269.256226 58.690179 
L 269.256226 38.418935 
" style="fill:none;stroke:#000000;stroke-width:1.5;"/>
    <path clip-path="url(#p73f276208e)" d="M 330.334587 37.160055 
L 330.334587 33.420896 
" style="fill:none;stroke:#000000;stroke-width:1.5;"/>
   </g>
   <g id="line2d_26">
    <g clip-path="url(#p73f276208e)">
     <use style="stroke:#000000;" x="264.557891" xlink:href="#meda665f5ef" y="98.558182"/>
     <use style="stroke:#000000;" x="264.557891" xlink:href="#meda665f5ef" y="98.558182"/>
     <use style="stroke:#000000;" x="278.652897" xlink:href="#meda665f5ef" y="48.535824"/>
     <use style="stroke:#000000;" x="278.652897" xlink:href="#meda665f5ef" y="48.535824"/>
     <use style="stroke:#000000;" x="283.351232" xlink:href="#meda665f5ef" y="44.976707"/>
     <use style="stroke:#000000;" x="283.351232" xlink:href="#meda665f5ef" y="44.976707"/>
     <use style="stroke:#000000;" x="302.144574" xlink:href="#meda665f5ef" y="38.804512"/>
     <use style="stroke:#000000;" x="302.144574" xlink:href="#meda665f5ef" y="38.804512"/>
     <use style="stroke:#000000;" x="269.256226" xlink:href="#meda665f5ef" y="58.690179"/>
     <use style="stroke:#000000;" x="269.256226" xlink:href="#meda665f5ef" y="58.690179"/>
     <use style="stroke:#000000;" x="330.334587" xlink:href="#meda665f5ef" y="37.160055"/>
    </g>
   </g>
   <g id="line2d_27">
    <g clip-path="url(#p73f276208e)">
     <use style="stroke:#000000;" x="264.557891" xlink:href="#meda665f5ef" y="87.20431"/>
     <use style="stroke:#000000;" x="264.557891" xlink:href="#meda665f5ef" y="87.20431"/>
     <use style="stroke:#000000;" x="278.652897" xlink:href="#meda665f5ef" y="48.535824"/>
     <use style="stroke:#000000;" x="278.652897" xlink:href="#meda665f5ef" y="48.535824"/>
     <use style="stroke:#000000;" x="283.351232" xlink:href="#meda665f5ef" y="28.921818"/>
     <use style="stroke:#000000;" x="283.351232" xlink:href="#meda665f5ef" y="28.921818"/>
     <use style="stroke:#000000;" x="302.144574" xlink:href="#meda665f5ef" y="37.368192"/>
     <use style="stroke:#000000;" x="302.144574" xlink:href="#meda665f5ef" y="37.368192"/>
     <use style="stroke:#000000;" x="269.256226" xlink:href="#meda665f5ef" y="38.418935"/>
     <use style="stroke:#000000;" x="269.256226" xlink:href="#meda665f5ef" y="38.418935"/>
     <use style="stroke:#000000;" x="330.334587" xlink:href="#meda665f5ef" y="33.420896"/>
    </g>
   </g>
  </g>
  <g id="axes_4">
   <g id="patch_17">
    <path d="M 366.824 102.04 
L 456.405595 102.04 
L 456.405595 25.44 
L 366.824 25.44 
z
" style="fill:#ffffff;"/>
   </g>
   <g id="line2d_28">
    <path clip-path="url(#p0196f17e75)" d="M 370.895891 93.572765 
L 371.718495 93.572765 
L 372.541099 93.572765 
L 373.363703 93.572765 
L 374.186307 93.572765 
L 375.008912 93.572765 
L 375.831516 93.572765 
L 376.65412 93.572765 
L 377.476724 93.572765 
L 378.299328 93.572765 
L 379.121933 93.572765 
L 379.944537 93.572765 
L 380.767141 93.494026 
L 381.589745 65.21885 
L 382.412349 65.21885 
L 383.234953 65.21885 
L 384.057558 65.21885 
L 384.880162 65.21885 
L 385.702766 65.21885 
L 386.52537 65.21885 
L 387.347974 65.21885 
L 388.170579 65.21885 
L 388.993183 65.21885 
L 389.815787 65.21885 
L 390.638391 65.21885 
L 391.460995 65.21885 
L 392.283599 65.21885 
L 393.106204 65.21885 
L 393.928808 65.21885 
L 394.751412 65.21885 
L 395.574016 65.21885 
L 396.39662 65.21885 
L 397.219225 65.21885 
L 398.041829 65.21885 
L 398.864433 65.21885 
L 399.687037 65.21885 
L 400.509641 65.21885 
L 401.332245 65.21885 
L 402.15485 65.21885 
L 402.977454 65.21885 
L 403.800058 65.21885 
L 404.622662 65.21885 
L 405.445266 65.21885 
L 406.267871 65.21885 
L 407.090475 65.21885 
L 407.913079 65.21885 
L 408.735683 65.21885 
L 409.558287 65.21885 
L 410.380891 65.21885 
L 411.203496 65.21885 
L 412.0261 65.21885 
L 412.848704 65.21885 
L 413.671308 65.21885 
L 414.493912 65.21885 
L 415.316517 65.21885 
L 416.139121 65.21885 
L 416.961725 65.21885 
L 417.784329 65.21885 
L 418.606933 65.21885 
L 419.429537 65.21885 
L 420.252142 65.21885 
L 421.074746 65.21885 
L 421.89735 65.21885 
L 422.719954 65.21885 
L 423.542558 65.21885 
L 424.365163 65.21885 
L 425.187767 65.21885 
L 426.010371 65.21885 
L 426.832975 65.21885 
L 427.655579 65.21885 
L 428.478183 65.21885 
L 429.300788 65.21885 
L 430.123392 65.21885 
L 430.945996 65.21885 
L 431.7686 65.21885 
L 432.591204 65.21885 
L 433.413809 65.21885 
L 434.236413 65.21885 
L 435.059017 65.21885 
L 435.881621 65.21885 
L 436.704225 36.865065 
L 437.526829 36.864934 
L 438.349434 36.864934 
L 439.172038 36.864934 
L 439.994642 36.864934 
L 440.817246 36.864934 
L 441.63985 36.864934 
L 442.462455 36.864934 
L 443.285059 36.864934 
L 444.107663 36.864934 
L 444.930267 36.864934 
L 445.752871 36.864934 
L 446.575475 36.864934 
L 447.39808 36.864934 
L 448.220684 36.864934 
L 449.043288 36.864934 
L 449.865892 36.864934 
L 450.688496 36.864934 
L 451.511101 36.864934 
L 452.333705 36.864934 
" style="fill:none;stroke:#800080;stroke-linecap:square;stroke-width:3;"/>
   </g>
   <g id="matplotlib.axis_7">
    <g id="xtick_10">
     <g id="line2d_29">
      <g>
       <use style="stroke:#000000;stroke-width:0.8;" x="370.895891" xlink:href="#m976e60f3fa" y="102.04"/>
      </g>
     </g>
     <g id="text_20">
      <!-- 0 -->
      <g transform="translate(367.714641 116.638437)scale(0.1 -0.1)">
       <use xlink:href="#DejaVuSans-48"/>
      </g>
     </g>
    </g>
    <g id="xtick_11">
     <g id="line2d_30">
      <g>
       <use style="stroke:#000000;stroke-width:0.8;" x="410.048686" xlink:href="#m976e60f3fa" y="102.04"/>
      </g>
     </g>
     <g id="text_21">
      <!-- 50 -->
      <g transform="translate(403.686186 116.638437)scale(0.1 -0.1)">
       <use xlink:href="#DejaVuSans-53"/>
       <use x="63.623047" xlink:href="#DejaVuSans-48"/>
      </g>
     </g>
    </g>
    <g id="xtick_12">
     <g id="line2d_31">
      <g>
       <use style="stroke:#000000;stroke-width:0.8;" x="449.201481" xlink:href="#m976e60f3fa" y="102.04"/>
      </g>
     </g>
     <g id="text_22">
      <!-- 100 -->
      <g transform="translate(439.657731 116.638437)scale(0.1 -0.1)">
       <use xlink:href="#DejaVuSans-49"/>
       <use x="63.623047" xlink:href="#DejaVuSans-48"/>
       <use x="127.246094" xlink:href="#DejaVuSans-48"/>
      </g>
     </g>
    </g>
    <g id="text_23">
     <!-- time (h) -->
     <g transform="translate(391.659329 130.316563)scale(0.1 -0.1)">
      <use xlink:href="#DejaVuSans-116"/>
      <use x="39.208984" xlink:href="#DejaVuSans-105"/>
      <use x="66.992188" xlink:href="#DejaVuSans-109"/>
      <use x="164.404297" xlink:href="#DejaVuSans-101"/>
      <use x="225.927734" xlink:href="#DejaVuSans-32"/>
      <use x="257.714844" xlink:href="#DejaVuSans-40"/>
      <use x="296.728516" xlink:href="#DejaVuSans-104"/>
      <use x="360.107422" xlink:href="#DejaVuSans-41"/>
     </g>
    </g>
   </g>
   <g id="matplotlib.axis_8">
    <g id="ytick_10">
     <g id="line2d_32">
      <g>
       <use style="stroke:#000000;stroke-width:0.8;" x="366.824" xlink:href="#mbe32b59e64" y="93.572765"/>
      </g>
     </g>
    </g>
    <g id="ytick_11">
     <g id="line2d_33">
      <g>
       <use style="stroke:#000000;stroke-width:0.8;" x="366.824" xlink:href="#mbe32b59e64" y="65.21885"/>
      </g>
     </g>
    </g>
    <g id="ytick_12">
     <g id="line2d_34">
      <g>
       <use style="stroke:#000000;stroke-width:0.8;" x="366.824" xlink:href="#mbe32b59e64" y="36.864934"/>
      </g>
     </g>
    </g>
   </g>
   <g id="patch_18">
    <path d="M 366.824 102.04 
L 366.824 25.44 
" style="fill:none;stroke:#000000;stroke-linecap:square;stroke-linejoin:miter;stroke-width:0.8;"/>
   </g>
   <g id="patch_19">
    <path d="M 456.405595 102.04 
L 456.405595 25.44 
" style="fill:none;stroke:#000000;stroke-linecap:square;stroke-linejoin:miter;stroke-width:0.8;"/>
   </g>
   <g id="patch_20">
    <path d="M 366.824 102.04 
L 456.405595 102.04 
" style="fill:none;stroke:#000000;stroke-linecap:square;stroke-linejoin:miter;stroke-width:0.8;"/>
   </g>
   <g id="patch_21">
    <path d="M 366.824 25.44 
L 456.405595 25.44 
" style="fill:none;stroke:#000000;stroke-linecap:square;stroke-linejoin:miter;stroke-width:0.8;"/>
   </g>
   <g id="text_24">
    <!-- Ktn1 -->
    <g transform="translate(397.707923 19.44)scale(0.12 -0.12)">
     <defs>
      <path d="M 9.8125 72.90625 
L 19.671875 72.90625 
L 19.671875 42.09375 
L 52.390625 72.90625 
L 65.09375 72.90625 
L 28.90625 38.921875 
L 67.671875 0 
L 54.6875 0 
L 19.671875 35.109375 
L 19.671875 0 
L 9.8125 0 
z
" id="DejaVuSans-75"/>
     </defs>
     <use xlink:href="#DejaVuSans-75"/>
     <use x="65.576172" xlink:href="#DejaVuSans-116"/>
     <use x="104.785156" xlink:href="#DejaVuSans-110"/>
     <use x="168.164062" xlink:href="#DejaVuSans-49"/>
    </g>
   </g>
   <g id="PathCollection_4">
    <g clip-path="url(#p0196f17e75)">
     <use style="stroke:#ffffff;stroke-width:0.48;" x="370.895891" xlink:href="#mccaa6f27ea" y="93.572765"/>
     <use style="stroke:#ffffff;stroke-width:0.48;" x="370.895891" xlink:href="#mccaa6f27ea" y="93.572765"/>
     <use style="stroke:#ffffff;stroke-width:0.48;" x="384.990897" xlink:href="#mccaa6f27ea" y="57.930141"/>
     <use style="stroke:#ffffff;stroke-width:0.48;" x="384.990897" xlink:href="#mccaa6f27ea" y="57.930141"/>
     <use style="stroke:#ffffff;stroke-width:0.48;" x="389.689232" xlink:href="#mccaa6f27ea" y="67.366384"/>
     <use style="stroke:#ffffff;stroke-width:0.48;" x="389.689232" xlink:href="#mccaa6f27ea" y="67.366384"/>
     <use style="stroke:#ffffff;stroke-width:0.48;" x="408.482574" xlink:href="#mccaa6f27ea" y="69.586004"/>
     <use style="stroke:#ffffff;stroke-width:0.48;" x="408.482574" xlink:href="#mccaa6f27ea" y="69.586004"/>
     <use style="stroke:#ffffff;stroke-width:0.48;" x="375.594226" xlink:href="#mccaa6f27ea" y="96.954757"/>
     <use style="stroke:#ffffff;stroke-width:0.48;" x="375.594226" xlink:href="#mccaa6f27ea" y="96.954757"/>
     <use style="stroke:#ffffff;stroke-width:0.48;" x="436.672587" xlink:href="#mccaa6f27ea" y="36.864934"/>
    </g>
   </g>
   <g id="LineCollection_4">
    <path clip-path="url(#p0196f17e75)" d="M 370.895891 94.866663 
L 370.895891 92.278867 
" style="fill:none;stroke:#000000;stroke-width:1.5;"/>
    <path clip-path="url(#p0196f17e75)" d="M 370.895891 94.866663 
L 370.895891 92.278867 
" style="fill:none;stroke:#000000;stroke-width:1.5;"/>
    <path clip-path="url(#p0196f17e75)" d="M 384.990897 65.425061 
L 384.990897 50.435221 
" style="fill:none;stroke:#000000;stroke-width:1.5;"/>
    <path clip-path="url(#p0196f17e75)" d="M 384.990897 65.425061 
L 384.990897 50.435221 
" style="fill:none;stroke:#000000;stroke-width:1.5;"/>
    <path clip-path="url(#p0196f17e75)" d="M 389.689232 75.626278 
L 389.689232 59.10649 
" style="fill:none;stroke:#000000;stroke-width:1.5;"/>
    <path clip-path="url(#p0196f17e75)" d="M 389.689232 75.626278 
L 389.689232 59.10649 
" style="fill:none;stroke:#000000;stroke-width:1.5;"/>
    <path clip-path="url(#p0196f17e75)" d="M 408.482574 73.590223 
L 408.482574 65.581785 
" style="fill:none;stroke:#000000;stroke-width:1.5;"/>
    <path clip-path="url(#p0196f17e75)" d="M 408.482574 73.590223 
L 408.482574 65.581785 
" style="fill:none;stroke:#000000;stroke-width:1.5;"/>
    <path clip-path="url(#p0196f17e75)" d="M 375.594226 98.558182 
L 375.594226 95.351331 
" style="fill:none;stroke:#000000;stroke-width:1.5;"/>
    <path clip-path="url(#p0196f17e75)" d="M 375.594226 98.558182 
L 375.594226 95.351331 
" style="fill:none;stroke:#000000;stroke-width:1.5;"/>
    <path clip-path="url(#p0196f17e75)" d="M 436.672587 44.80805 
L 436.672587 28.921818 
" style="fill:none;stroke:#000000;stroke-width:1.5;"/>
   </g>
   <g id="line2d_35">
    <g clip-path="url(#p0196f17e75)">
     <use style="stroke:#000000;" x="370.895891" xlink:href="#meda665f5ef" y="94.866663"/>
     <use style="stroke:#000000;" x="370.895891" xlink:href="#meda665f5ef" y="94.866663"/>
     <use style="stroke:#000000;" x="384.990897" xlink:href="#meda665f5ef" y="65.425061"/>
     <use style="stroke:#000000;" x="384.990897" xlink:href="#meda665f5ef" y="65.425061"/>
     <use style="stroke:#000000;" x="389.689232" xlink:href="#meda665f5ef" y="75.626278"/>
     <use style="stroke:#000000;" x="389.689232" xlink:href="#meda665f5ef" y="75.626278"/>
     <use style="stroke:#000000;" x="408.482574" xlink:href="#meda665f5ef" y="73.590223"/>
     <use style="stroke:#000000;" x="408.482574" xlink:href="#meda665f5ef" y="73.590223"/>
     <use style="stroke:#000000;" x="375.594226" xlink:href="#meda665f5ef" y="98.558182"/>
     <use style="stroke:#000000;" x="375.594226" xlink:href="#meda665f5ef" y="98.558182"/>
     <use style="stroke:#000000;" x="436.672587" xlink:href="#meda665f5ef" y="44.80805"/>
    </g>
   </g>
   <g id="line2d_36">
    <g clip-path="url(#p0196f17e75)">
     <use style="stroke:#000000;" x="370.895891" xlink:href="#meda665f5ef" y="92.278867"/>
     <use style="stroke:#000000;" x="370.895891" xlink:href="#meda665f5ef" y="92.278867"/>
     <use style="stroke:#000000;" x="384.990897" xlink:href="#meda665f5ef" y="50.435221"/>
     <use style="stroke:#000000;" x="384.990897" xlink:href="#meda665f5ef" y="50.435221"/>
     <use style="stroke:#000000;" x="389.689232" xlink:href="#meda665f5ef" y="59.10649"/>
     <use style="stroke:#000000;" x="389.689232" xlink:href="#meda665f5ef" y="59.10649"/>
     <use style="stroke:#000000;" x="408.482574" xlink:href="#meda665f5ef" y="65.581785"/>
     <use style="stroke:#000000;" x="408.482574" xlink:href="#meda665f5ef" y="65.581785"/>
     <use style="stroke:#000000;" x="375.594226" xlink:href="#meda665f5ef" y="95.351331"/>
     <use style="stroke:#000000;" x="375.594226" xlink:href="#meda665f5ef" y="95.351331"/>
     <use style="stroke:#000000;" x="436.672587" xlink:href="#meda665f5ef" y="28.921818"/>
    </g>
   </g>
  </g>
  <g id="axes_5">
   <g id="patch_22">
    <path d="M 473.162 102.04 
L 562.743595 102.04 
L 562.743595 25.44 
L 473.162 25.44 
z
" style="fill:#ffffff;"/>
   </g>
   <g id="matplotlib.axis_9">
    <g id="xtick_13">
     <g id="line2d_37">
      <g>
       <use style="stroke:#000000;stroke-width:0.8;" x="477.233891" xlink:href="#m976e60f3fa" y="102.04"/>
      </g>
     </g>
     <g id="text_25">
      <!-- 0 -->
      <g transform="translate(474.052641 116.638437)scale(0.1 -0.1)">
       <use xlink:href="#DejaVuSans-48"/>
      </g>
     </g>
    </g>
    <g id="xtick_14">
     <g id="line2d_38">
      <g>
       <use style="stroke:#000000;stroke-width:0.8;" x="516.386686" xlink:href="#m976e60f3fa" y="102.04"/>
      </g>
     </g>
     <g id="text_26">
      <!-- 50 -->
      <g transform="translate(510.024186 116.638437)scale(0.1 -0.1)">
       <use xlink:href="#DejaVuSans-53"/>
       <use x="63.623047" xlink:href="#DejaVuSans-48"/>
      </g>
     </g>
    </g>
    <g id="xtick_15">
     <g id="line2d_39">
      <g>
       <use style="stroke:#000000;stroke-width:0.8;" x="555.539481" xlink:href="#m976e60f3fa" y="102.04"/>
      </g>
     </g>
     <g id="text_27">
      <!-- 100 -->
      <g transform="translate(545.995731 116.638437)scale(0.1 -0.1)">
       <use xlink:href="#DejaVuSans-49"/>
       <use x="63.623047" xlink:href="#DejaVuSans-48"/>
       <use x="127.246094" xlink:href="#DejaVuSans-48"/>
      </g>
     </g>
    </g>
    <g id="text_28">
     <!-- time (h) -->
     <g transform="translate(497.997329 130.316563)scale(0.1 -0.1)">
      <use xlink:href="#DejaVuSans-116"/>
      <use x="39.208984" xlink:href="#DejaVuSans-105"/>
      <use x="66.992188" xlink:href="#DejaVuSans-109"/>
      <use x="164.404297" xlink:href="#DejaVuSans-101"/>
      <use x="225.927734" xlink:href="#DejaVuSans-32"/>
      <use x="257.714844" xlink:href="#DejaVuSans-40"/>
      <use x="296.728516" xlink:href="#DejaVuSans-104"/>
      <use x="360.107422" xlink:href="#DejaVuSans-41"/>
     </g>
    </g>
   </g>
   <g id="matplotlib.axis_10">
    <g id="ytick_13">
     <g id="line2d_40">
      <g>
       <use style="stroke:#000000;stroke-width:0.8;" x="473.162" xlink:href="#mbe32b59e64" y="94.431749"/>
      </g>
     </g>
    </g>
    <g id="ytick_14">
     <g id="line2d_41">
      <g>
       <use style="stroke:#000000;stroke-width:0.8;" x="473.162" xlink:href="#mbe32b59e64" y="63.415712"/>
      </g>
     </g>
    </g>
    <g id="ytick_15">
     <g id="line2d_42">
      <g>
       <use style="stroke:#000000;stroke-width:0.8;" x="473.162" xlink:href="#mbe32b59e64" y="32.399675"/>
      </g>
     </g>
    </g>
   </g>
   <g id="patch_23">
    <path d="M 473.162 102.04 
L 473.162 25.44 
" style="fill:none;stroke:#000000;stroke-linecap:square;stroke-linejoin:miter;stroke-width:0.8;"/>
   </g>
   <g id="patch_24">
    <path d="M 562.743595 102.04 
L 562.743595 25.44 
" style="fill:none;stroke:#000000;stroke-linecap:square;stroke-linejoin:miter;stroke-width:0.8;"/>
   </g>
   <g id="patch_25">
    <path d="M 473.162 102.04 
L 562.743595 102.04 
" style="fill:none;stroke:#000000;stroke-linecap:square;stroke-linejoin:miter;stroke-width:0.8;"/>
   </g>
   <g id="patch_26">
    <path d="M 473.162 25.44 
L 562.743595 25.44 
" style="fill:none;stroke:#000000;stroke-linecap:square;stroke-linejoin:miter;stroke-width:0.8;"/>
   </g>
   <g id="text_29">
    <!-- Upp1 -->
    <g transform="translate(502.125923 19.44)scale(0.12 -0.12)">
     <defs>
      <path d="M 8.6875 72.90625 
L 18.609375 72.90625 
L 18.609375 28.609375 
Q 18.609375 16.890625 22.84375 11.734375 
Q 27.09375 6.59375 36.625 6.59375 
Q 46.09375 6.59375 50.34375 11.734375 
Q 54.59375 16.890625 54.59375 28.609375 
L 54.59375 72.90625 
L 64.5 72.90625 
L 64.5 27.390625 
Q 64.5 13.140625 57.4375 5.859375 
Q 50.390625 -1.421875 36.625 -1.421875 
Q 22.796875 -1.421875 15.734375 5.859375 
Q 8.6875 13.140625 8.6875 27.390625 
z
" id="DejaVuSans-85"/>
     </defs>
     <use xlink:href="#DejaVuSans-85"/>
     <use x="73.193359" xlink:href="#DejaVuSans-112"/>
     <use x="136.669922" xlink:href="#DejaVuSans-112"/>
     <use x="200.146484" xlink:href="#DejaVuSans-49"/>
    </g>
   </g>
   <g id="line2d_43">
    <path clip-path="url(#p1202f617c5)" d="M 477.233891 94.431749 
L 478.056495 93.029491 
L 478.879099 91.658931 
L 479.701703 90.319353 
L 480.524307 89.010057 
L 481.346912 87.730358 
L 482.169516 86.479587 
L 482.99212 85.25709 
L 483.814724 84.062228 
L 484.637328 82.894377 
L 485.459933 81.752925 
L 486.282537 80.637276 
L 487.105141 79.546847 
L 487.927745 78.481067 
L 488.750349 77.43938 
L 489.572953 76.42124 
L 490.395558 75.426116 
L 491.218162 74.453487 
L 492.040766 73.502845 
L 492.86337 72.573692 
L 493.685974 71.665543 
L 494.508579 70.777924 
L 495.331183 69.910369 
L 496.153787 69.062425 
L 496.976391 68.23365 
L 497.798995 67.423609 
L 498.621599 66.63188 
L 499.444204 65.858048 
L 500.266808 65.101709 
L 501.089412 64.362467 
L 501.912016 63.639936 
L 502.73462 62.933738 
L 503.557225 62.243504 
L 504.379829 61.568873 
L 505.202433 60.909493 
L 506.025037 60.265017 
L 506.847641 59.635111 
L 507.670245 59.019443 
L 508.49285 58.417693 
L 509.315454 57.829546 
L 510.138058 57.254694 
L 510.960662 56.692837 
L 511.783266 56.143681 
L 512.605871 55.606939 
L 513.428475 55.08233 
L 514.251079 54.56958 
L 515.073683 54.068421 
L 515.896287 53.578591 
L 516.718891 53.099833 
L 517.541496 52.631899 
L 518.3641 52.174541 
L 519.186704 51.727523 
L 520.009308 51.29061 
L 520.831912 50.863573 
L 521.654517 50.44619 
L 522.477121 50.038241 
L 523.299725 49.639515 
L 524.122329 49.249802 
L 524.944933 48.868898 
L 525.767537 48.496605 
L 526.590142 48.132728 
L 527.412746 47.777077 
L 528.23535 47.429465 
L 529.057954 47.089711 
L 529.880558 46.757637 
L 530.703163 46.43307 
L 531.525767 46.115839 
L 532.348371 45.80578 
L 533.170975 45.50273 
L 533.993579 45.206531 
L 534.816183 44.917027 
L 535.638788 44.634067 
L 536.461392 44.357504 
L 537.283996 44.087193 
L 538.1066 43.822992 
L 538.929204 43.564764 
L 539.751809 43.312373 
L 540.574413 43.065687 
L 541.397017 42.824578 
L 542.219621 42.588919 
L 543.042225 42.358587 
L 543.864829 42.133462 
L 544.687434 41.913426 
L 545.510038 41.698365 
L 546.332642 41.488164 
L 547.155246 41.282715 
L 547.97785 41.081911 
L 548.800455 40.885646 
L 549.623059 40.693817 
L 550.445663 40.506325 
L 551.268267 40.323071 
L 552.090871 40.14396 
L 552.913475 39.968897 
L 553.73608 39.797792 
L 554.558684 39.630555 
L 555.381288 39.467098 
L 556.203892 39.307336 
L 557.026496 39.151186 
L 557.849101 38.998566 
L 558.671705 38.849395 
" style="fill:none;stroke:#2ca02c;stroke-linecap:square;stroke-width:3;"/>
   </g>
   <g id="PathCollection_5">
    <g clip-path="url(#p1202f617c5)">
     <use style="stroke:#ffffff;stroke-width:0.48;" x="477.233891" xlink:href="#mccaa6f27ea" y="94.431749"/>
     <use style="stroke:#ffffff;stroke-width:0.48;" x="477.233891" xlink:href="#mccaa6f27ea" y="94.431749"/>
     <use style="stroke:#ffffff;stroke-width:0.48;" x="491.328897" xlink:href="#mccaa6f27ea" y="75.888784"/>
     <use style="stroke:#ffffff;stroke-width:0.48;" x="491.328897" xlink:href="#mccaa6f27ea" y="75.888784"/>
     <use style="stroke:#ffffff;stroke-width:0.48;" x="496.027232" xlink:href="#mccaa6f27ea" y="85.850873"/>
     <use style="stroke:#ffffff;stroke-width:0.48;" x="496.027232" xlink:href="#mccaa6f27ea" y="85.850873"/>
     <use style="stroke:#ffffff;stroke-width:0.48;" x="514.820574" xlink:href="#mccaa6f27ea" y="84.469661"/>
     <use style="stroke:#ffffff;stroke-width:0.48;" x="514.820574" xlink:href="#mccaa6f27ea" y="84.469661"/>
     <use style="stroke:#ffffff;stroke-width:0.48;" x="481.932226" xlink:href="#mccaa6f27ea" y="73.379039"/>
     <use style="stroke:#ffffff;stroke-width:0.48;" x="481.932226" xlink:href="#mccaa6f27ea" y="73.379039"/>
     <use style="stroke:#ffffff;stroke-width:0.48;" x="543.010587" xlink:href="#mccaa6f27ea" y="32.399675"/>
    </g>
   </g>
   <g id="LineCollection_5">
    <path clip-path="url(#p1202f617c5)" d="M 477.233891 94.431749 
L 477.233891 94.431749 
" style="fill:none;stroke:#000000;stroke-width:1.5;"/>
    <path clip-path="url(#p1202f617c5)" d="M 477.233891 94.431749 
L 477.233891 94.431749 
" style="fill:none;stroke:#000000;stroke-width:1.5;"/>
    <path clip-path="url(#p1202f617c5)" d="M 491.328897 77.842114 
L 491.328897 73.935455 
" style="fill:none;stroke:#000000;stroke-width:1.5;"/>
    <path clip-path="url(#p1202f617c5)" d="M 491.328897 77.842114 
L 491.328897 73.935455 
" style="fill:none;stroke:#000000;stroke-width:1.5;"/>
    <path clip-path="url(#p1202f617c5)" d="M 496.027232 85.850873 
L 496.027232 85.850873 
" style="fill:none;stroke:#000000;stroke-width:1.5;"/>
    <path clip-path="url(#p1202f617c5)" d="M 496.027232 85.850873 
L 496.027232 85.850873 
" style="fill:none;stroke:#000000;stroke-width:1.5;"/>
    <path clip-path="url(#p1202f617c5)" d="M 514.820574 98.558182 
L 514.820574 70.381139 
" style="fill:none;stroke:#000000;stroke-width:1.5;"/>
    <path clip-path="url(#p1202f617c5)" d="M 514.820574 98.558182 
L 514.820574 70.381139 
" style="fill:none;stroke:#000000;stroke-width:1.5;"/>
    <path clip-path="url(#p1202f617c5)" d="M 481.932226 83.918244 
L 481.932226 62.839834 
" style="fill:none;stroke:#000000;stroke-width:1.5;"/>
    <path clip-path="url(#p1202f617c5)" d="M 481.932226 83.918244 
L 481.932226 62.839834 
" style="fill:none;stroke:#000000;stroke-width:1.5;"/>
    <path clip-path="url(#p1202f617c5)" d="M 543.010587 35.877532 
L 543.010587 28.921818 
" style="fill:none;stroke:#000000;stroke-width:1.5;"/>
   </g>
   <g id="line2d_44">
    <g clip-path="url(#p1202f617c5)">
     <use style="stroke:#000000;" x="477.233891" xlink:href="#meda665f5ef" y="94.431749"/>
     <use style="stroke:#000000;" x="477.233891" xlink:href="#meda665f5ef" y="94.431749"/>
     <use style="stroke:#000000;" x="491.328897" xlink:href="#meda665f5ef" y="77.842114"/>
     <use style="stroke:#000000;" x="491.328897" xlink:href="#meda665f5ef" y="77.842114"/>
     <use style="stroke:#000000;" x="496.027232" xlink:href="#meda665f5ef" y="85.850873"/>
     <use style="stroke:#000000;" x="496.027232" xlink:href="#meda665f5ef" y="85.850873"/>
     <use style="stroke:#000000;" x="514.820574" xlink:href="#meda665f5ef" y="98.558182"/>
     <use style="stroke:#000000;" x="514.820574" xlink:href="#meda665f5ef" y="98.558182"/>
     <use style="stroke:#000000;" x="481.932226" xlink:href="#meda665f5ef" y="83.918244"/>
     <use style="stroke:#000000;" x="481.932226" xlink:href="#meda665f5ef" y="83.918244"/>
     <use style="stroke:#000000;" x="543.010587" xlink:href="#meda665f5ef" y="35.877532"/>
    </g>
   </g>
   <g id="line2d_45">
    <g clip-path="url(#p1202f617c5)">
     <use style="stroke:#000000;" x="477.233891" xlink:href="#meda665f5ef" y="94.431749"/>
     <use style="stroke:#000000;" x="477.233891" xlink:href="#meda665f5ef" y="94.431749"/>
     <use style="stroke:#000000;" x="491.328897" xlink:href="#meda665f5ef" y="73.935455"/>
     <use style="stroke:#000000;" x="491.328897" xlink:href="#meda665f5ef" y="73.935455"/>
     <use style="stroke:#000000;" x="496.027232" xlink:href="#meda665f5ef" y="85.850873"/>
     <use style="stroke:#000000;" x="496.027232" xlink:href="#meda665f5ef" y="85.850873"/>
     <use style="stroke:#000000;" x="514.820574" xlink:href="#meda665f5ef" y="70.381139"/>
     <use style="stroke:#000000;" x="514.820574" xlink:href="#meda665f5ef" y="70.381139"/>
     <use style="stroke:#000000;" x="481.932226" xlink:href="#meda665f5ef" y="62.839834"/>
     <use style="stroke:#000000;" x="481.932226" xlink:href="#meda665f5ef" y="62.839834"/>
     <use style="stroke:#000000;" x="543.010587" xlink:href="#meda665f5ef" y="28.921818"/>
    </g>
   </g>
  </g>
 </g>
 <defs>
  <clipPath id="p0f3c5607d1">
   <rect height="76.6" width="89.581595" x="47.81" y="25.44"/>
  </clipPath>
  <clipPath id="peb8065b52e">
   <rect height="76.6" width="89.581595" x="154.148" y="25.44"/>
  </clipPath>
  <clipPath id="p73f276208e">
   <rect height="76.6" width="89.581595" x="260.486" y="25.44"/>
  </clipPath>
  <clipPath id="p0196f17e75">
   <rect height="76.6" width="89.581595" x="366.824" y="25.44"/>
  </clipPath>
  <clipPath id="p1202f617c5">
   <rect height="76.6" width="89.581595" x="473.162" y="25.44"/>
  </clipPath>
 </defs>
</svg>
