<?xml version="1.0" encoding="utf-8" standalone="no"?>
<!DOCTYPE svg PUBLIC "-//W3C//DTD SVG 1.1//EN"
  "http://www.w3.org/Graphics/SVG/1.1/DTD/svg11.dtd">
<!-- Created with matplotlib (https://matplotlib.org/) -->
<svg height="122.4pt" version="1.1" viewBox="0 0 288 122.4" width="288pt" xmlns="http://www.w3.org/2000/svg" xmlns:xlink="http://www.w3.org/1999/xlink">
 <metadata>
  <rdf:RDF xmlns:cc="http://creativecommons.org/ns#" xmlns:dc="http://purl.org/dc/elements/1.1/" xmlns:rdf="http://www.w3.org/1999/02/22-rdf-syntax-ns#">
   <cc:Work>
    <dc:type rdf:resource="http://purl.org/dc/dcmitype/StillImage"/>
    <dc:date>2023-04-23T14:36:30.962878</dc:date>
    <dc:format>image/svg+xml</dc:format>
    <dc:creator>
     <cc:Agent>
      <dc:title>Matplotlib v3.3.2, https://matplotlib.org/</dc:title>
     </cc:Agent>
    </dc:creator>
   </cc:Work>
  </rdf:RDF>
 </metadata>
 <defs>
  <style type="text/css">*{stroke-linecap:butt;stroke-linejoin:round;}</style>
 </defs>
 <g id="figure_1">
  <g id="patch_1">
   <path d="M 0 122.4 
L 288 122.4 
L 288 0 
L 0 0 
z
" style="fill:#ffffff;"/>
  </g>
  <g id="axes_1">
   <g id="patch_2">
    <path d="M 45.675 85.6 
L 112.983333 85.6 
L 112.983333 23.8 
L 45.675 23.8 
z
" style="fill:#ffffff;"/>
   </g>
   <g id="matplotlib.axis_1">
    <g id="xtick_1">
     <g id="line2d_1">
      <defs>
       <path d="M 0 0 
L 0 4 
" id="m2e65760353" style="stroke:#262626;stroke-width:0.8;"/>
      </defs>
      <g>
       <use style="fill:#262626;stroke:#262626;stroke-width:0.8;" x="48.73447" xlink:href="#m2e65760353" y="85.6"/>
      </g>
     </g>
     <g id="text_1">
      <!-- 0 -->
      <g style="fill:#262626;" transform="translate(46.510095 97.3975)scale(0.08 -0.08)">
       <defs>
        <path d="M 51.703125 34.421875 
Q 51.703125 24.515625 49.828125 17.75 
Q 47.953125 10.984375 44.703125 6.8125 
Q 41.453125 2.640625 37.0625 0.828125 
Q 32.671875 -0.984375 27.6875 -0.984375 
Q 22.65625 -0.984375 18.3125 0.828125 
Q 13.96875 2.640625 10.765625 6.78125 
Q 7.5625 10.9375 5.734375 17.703125 
Q 3.90625 24.46875 3.90625 34.421875 
Q 3.90625 44.828125 5.734375 51.640625 
Q 7.5625 58.453125 10.78125 62.5 
Q 14.015625 66.546875 18.40625 68.1875 
Q 22.796875 69.828125 27.984375 69.828125 
Q 32.90625 69.828125 37.21875 68.1875 
Q 41.546875 66.546875 44.765625 62.5 
Q 48 58.453125 49.84375 51.640625 
Q 51.703125 44.828125 51.703125 34.421875 
z
M 42.78125 34.421875 
Q 42.78125 42.625 41.796875 48.0625 
Q 40.828125 53.515625 38.921875 56.765625 
Q 37.015625 60.015625 34.25 61.359375 
Q 31.5 62.703125 27.984375 62.703125 
Q 24.265625 62.703125 21.4375 61.328125 
Q 18.609375 59.96875 16.671875 56.71875 
Q 14.75 53.46875 13.765625 48.015625 
Q 12.796875 42.578125 12.796875 34.421875 
Q 12.796875 26.515625 13.796875 21.09375 
Q 14.796875 15.671875 16.71875 12.375 
Q 18.65625 9.078125 21.4375 7.640625 
Q 24.21875 6.203125 27.78125 6.203125 
Q 31.25 6.203125 34.03125 7.640625 
Q 36.8125 9.078125 38.734375 12.375 
Q 40.671875 15.671875 41.71875 21.09375 
Q 42.78125 26.515625 42.78125 34.421875 
z
" id="LiberationSans-48"/>
       </defs>
       <use xlink:href="#LiberationSans-48"/>
      </g>
     </g>
    </g>
    <g id="xtick_2">
     <g id="line2d_2">
      <g>
       <use style="fill:#262626;stroke:#262626;stroke-width:0.8;" x="62.855099" xlink:href="#m2e65760353" y="85.6"/>
      </g>
     </g>
     <g id="text_2">
      <!-- 24 -->
      <g style="fill:#262626;" transform="translate(58.406349 97.3975)scale(0.08 -0.08)">
       <defs>
        <path d="M 5.03125 0 
L 5.03125 6.203125 
Q 7.515625 11.921875 11.109375 16.28125 
Q 14.703125 20.65625 18.65625 24.1875 
Q 22.609375 27.734375 26.484375 30.765625 
Q 30.375 33.796875 33.5 36.8125 
Q 36.625 39.84375 38.546875 43.15625 
Q 40.484375 46.484375 40.484375 50.6875 
Q 40.484375 53.609375 39.59375 55.828125 
Q 38.71875 58.0625 37.0625 59.5625 
Q 35.40625 61.078125 33.078125 61.828125 
Q 30.765625 62.59375 27.9375 62.59375 
Q 25.296875 62.59375 22.96875 61.859375 
Q 20.65625 61.140625 18.84375 59.671875 
Q 17.046875 58.203125 15.890625 56.03125 
Q 14.75 53.859375 14.40625 50.984375 
L 5.421875 51.8125 
Q 5.859375 55.515625 7.46875 58.78125 
Q 9.078125 62.0625 11.90625 64.53125 
Q 14.75 67 18.71875 68.40625 
Q 22.703125 69.828125 27.9375 69.828125 
Q 33.0625 69.828125 37.0625 68.609375 
Q 41.0625 67.390625 43.8125 64.984375 
Q 46.578125 62.59375 48.046875 59.078125 
Q 49.515625 55.5625 49.515625 50.984375 
Q 49.515625 47.515625 48.265625 44.390625 
Q 47.015625 41.265625 44.9375 38.421875 
Q 42.875 35.59375 40.140625 32.953125 
Q 37.40625 30.328125 34.421875 27.8125 
Q 31.453125 25.296875 28.421875 22.828125 
Q 25.390625 20.359375 22.71875 17.859375 
Q 20.0625 15.375 17.96875 12.8125 
Q 15.875 10.25 14.703125 7.46875 
L 50.59375 7.46875 
L 50.59375 0 
z
" id="LiberationSans-50"/>
        <path d="M 43.015625 15.578125 
L 43.015625 0 
L 34.71875 0 
L 34.71875 15.578125 
L 2.296875 15.578125 
L 2.296875 22.40625 
L 33.796875 68.796875 
L 43.015625 68.796875 
L 43.015625 22.515625 
L 52.6875 22.515625 
L 52.6875 15.578125 
z
M 34.71875 58.890625 
Q 34.625 58.640625 34.234375 57.9375 
Q 33.84375 57.234375 33.34375 56.34375 
Q 32.859375 55.46875 32.34375 54.5625 
Q 31.84375 53.65625 31.453125 53.078125 
L 13.8125 27.09375 
Q 13.578125 26.703125 13.109375 26.0625 
Q 12.640625 25.4375 12.15625 24.78125 
Q 11.671875 24.125 11.171875 23.484375 
Q 10.6875 22.859375 10.40625 22.515625 
L 34.71875 22.515625 
z
" id="LiberationSans-52"/>
       </defs>
       <use xlink:href="#LiberationSans-50"/>
       <use x="55.615234" xlink:href="#LiberationSans-52"/>
      </g>
     </g>
    </g>
    <g id="xtick_3">
     <g id="line2d_3">
      <g>
       <use style="fill:#262626;stroke:#262626;stroke-width:0.8;" x="76.975728" xlink:href="#m2e65760353" y="85.6"/>
      </g>
     </g>
     <g id="text_3">
      <!-- 48 -->
      <g style="fill:#262626;" transform="translate(72.526978 97.3975)scale(0.08 -0.08)">
       <defs>
        <path d="M 51.265625 19.1875 
Q 51.265625 14.796875 49.875 11.109375 
Q 48.484375 7.421875 45.625 4.734375 
Q 42.78125 2.046875 38.328125 0.53125 
Q 33.890625 -0.984375 27.828125 -0.984375 
Q 21.78125 -0.984375 17.359375 0.53125 
Q 12.9375 2.046875 10.03125 4.703125 
Q 7.125 7.375 5.734375 11.0625 
Q 4.34375 14.75 4.34375 19.09375 
Q 4.34375 22.859375 5.484375 25.78125 
Q 6.640625 28.71875 8.5625 30.828125 
Q 10.5 32.953125 12.96875 34.25 
Q 15.4375 35.546875 18.0625 35.984375 
L 18.0625 36.1875 
Q 15.1875 36.859375 12.90625 38.375 
Q 10.640625 39.890625 9.09375 42.015625 
Q 7.5625 44.140625 6.75 46.71875 
Q 5.953125 49.3125 5.953125 52.203125 
Q 5.953125 55.8125 7.34375 59 
Q 8.734375 62.203125 11.46875 64.625 
Q 14.203125 67.046875 18.25 68.4375 
Q 22.3125 69.828125 27.640625 69.828125 
Q 33.25 69.828125 37.375 68.40625 
Q 41.5 67 44.203125 64.578125 
Q 46.921875 62.15625 48.234375 58.9375 
Q 49.5625 55.71875 49.5625 52.09375 
Q 49.5625 49.265625 48.75 46.671875 
Q 47.953125 44.09375 46.40625 41.96875 
Q 44.875 39.84375 42.59375 38.34375 
Q 40.328125 36.859375 37.359375 36.28125 
L 37.359375 36.078125 
Q 40.328125 35.59375 42.859375 34.296875 
Q 45.40625 33.015625 47.265625 30.890625 
Q 49.125 28.765625 50.1875 25.828125 
Q 51.265625 22.90625 51.265625 19.1875 
z
M 40.4375 51.609375 
Q 40.4375 54.203125 39.765625 56.34375 
Q 39.109375 58.5 37.59375 60.03125 
Q 36.078125 61.578125 33.640625 62.421875 
Q 31.203125 63.28125 27.640625 63.28125 
Q 24.171875 63.28125 21.78125 62.421875 
Q 19.390625 61.578125 17.84375 60.03125 
Q 16.3125 58.5 15.625 56.34375 
Q 14.9375 54.203125 14.9375 51.609375 
Q 14.9375 49.5625 15.46875 47.40625 
Q 16.015625 45.265625 17.421875 43.5 
Q 18.84375 41.75 21.328125 40.625 
Q 23.828125 39.5 27.734375 39.5 
Q 31.890625 39.5 34.40625 40.625 
Q 36.921875 41.75 38.25 43.5 
Q 39.59375 45.265625 40.015625 47.40625 
Q 40.4375 49.5625 40.4375 51.609375 
z
M 42.140625 20.015625 
Q 42.140625 22.515625 41.453125 24.828125 
Q 40.765625 27.15625 39.109375 28.9375 
Q 37.453125 30.71875 34.640625 31.8125 
Q 31.84375 32.90625 27.640625 32.90625 
Q 23.78125 32.90625 21.0625 31.8125 
Q 18.359375 30.71875 16.671875 28.90625 
Q 14.984375 27.09375 14.203125 24.71875 
Q 13.421875 22.359375 13.421875 19.828125 
Q 13.421875 16.65625 14.203125 14.03125 
Q 14.984375 11.421875 16.6875 9.546875 
Q 18.40625 7.671875 21.1875 6.640625 
Q 23.96875 5.609375 27.9375 5.609375 
Q 31.9375 5.609375 34.671875 6.640625 
Q 37.40625 7.671875 39.0625 9.546875 
Q 40.71875 11.421875 41.421875 14.078125 
Q 42.140625 16.75 42.140625 20.015625 
z
" id="LiberationSans-56"/>
       </defs>
       <use xlink:href="#LiberationSans-52"/>
       <use x="55.615234" xlink:href="#LiberationSans-56"/>
      </g>
     </g>
    </g>
    <g id="xtick_4">
     <g id="line2d_4">
      <g>
       <use style="fill:#262626;stroke:#262626;stroke-width:0.8;" x="91.096358" xlink:href="#m2e65760353" y="85.6"/>
      </g>
     </g>
     <g id="text_4">
      <!-- 72 -->
      <g style="fill:#262626;" transform="translate(86.647608 97.3975)scale(0.08 -0.08)">
       <defs>
        <path d="M 50.59375 61.671875 
Q 45.40625 53.765625 41.0625 46.453125 
Q 36.71875 39.15625 33.59375 31.75 
Q 30.46875 24.359375 28.734375 16.578125 
Q 27 8.796875 27 0 
L 17.828125 0 
Q 17.828125 8.25 19.78125 16.1875 
Q 21.734375 24.125 25.046875 31.765625 
Q 28.375 39.40625 32.765625 46.78125 
Q 37.15625 54.15625 42.09375 61.328125 
L 5.125 61.328125 
L 5.125 68.796875 
L 50.59375 68.796875 
z
" id="LiberationSans-55"/>
       </defs>
       <use xlink:href="#LiberationSans-55"/>
       <use x="55.615234" xlink:href="#LiberationSans-50"/>
      </g>
     </g>
    </g>
    <g id="xtick_5">
     <g id="line2d_5">
      <g>
       <use style="fill:#262626;stroke:#262626;stroke-width:0.8;" x="105.216987" xlink:href="#m2e65760353" y="85.6"/>
      </g>
     </g>
     <g id="text_5">
      <!-- 96 -->
      <g style="fill:#262626;" transform="translate(100.768237 97.3975)scale(0.08 -0.08)">
       <defs>
        <path d="M 50.875 35.796875 
Q 50.875 26.609375 49.140625 19.703125 
Q 47.40625 12.796875 44.1875 8.203125 
Q 40.96875 3.609375 36.34375 1.3125 
Q 31.734375 -0.984375 25.984375 -0.984375 
Q 22.015625 -0.984375 18.84375 -0.171875 
Q 15.671875 0.640625 13.171875 2.34375 
Q 10.6875 4.046875 8.921875 6.78125 
Q 7.171875 9.515625 6.109375 13.375 
L 14.5 14.703125 
Q 15.875 10.25 18.78125 8.171875 
Q 21.6875 6.109375 26.125 6.109375 
Q 29.6875 6.109375 32.640625 7.78125 
Q 35.59375 9.46875 37.671875 12.84375 
Q 39.75 16.21875 40.921875 21.296875 
Q 42.09375 26.375 42.1875 33.203125 
Q 41.15625 30.90625 39.375 29.09375 
Q 37.59375 27.296875 35.328125 26.046875 
Q 33.0625 24.8125 30.421875 24.140625 
Q 27.78125 23.484375 25.09375 23.484375 
Q 20.40625 23.484375 16.625 25.171875 
Q 12.84375 26.859375 10.203125 29.875 
Q 7.5625 32.90625 6.125 37.171875 
Q 4.6875 41.453125 4.6875 46.6875 
Q 4.6875 52 6.21875 56.296875 
Q 7.765625 60.59375 10.6875 63.59375 
Q 13.625 66.609375 17.890625 68.21875 
Q 22.171875 69.828125 27.59375 69.828125 
Q 39.0625 69.828125 44.96875 61.328125 
Q 50.875 52.828125 50.875 35.796875 
z
M 41.3125 44.28125 
Q 41.3125 48.09375 40.40625 51.453125 
Q 39.5 54.828125 37.71875 57.3125 
Q 35.9375 59.8125 33.328125 61.25 
Q 30.71875 62.703125 27.296875 62.703125 
Q 24.125 62.703125 21.578125 61.578125 
Q 19.046875 60.453125 17.28125 58.375 
Q 15.53125 56.296875 14.578125 53.3125 
Q 13.625 50.34375 13.625 46.6875 
Q 13.625 43.21875 14.46875 40.234375 
Q 15.328125 37.25 17.03125 35.078125 
Q 18.75 32.90625 21.28125 31.65625 
Q 23.828125 30.421875 27.203125 30.421875 
Q 29.640625 30.421875 32.15625 31.25 
Q 34.671875 32.078125 36.6875 33.78125 
Q 38.71875 35.5 40.015625 38.109375 
Q 41.3125 40.71875 41.3125 44.28125 
z
" id="LiberationSans-57"/>
        <path d="M 51.21875 22.515625 
Q 51.21875 17.328125 49.78125 13 
Q 48.34375 8.6875 45.53125 5.578125 
Q 42.71875 2.484375 38.5625 0.75 
Q 34.421875 -0.984375 29 -0.984375 
Q 23 -0.984375 18.5 1.3125 
Q 14.015625 3.609375 11.03125 7.921875 
Q 8.0625 12.25 6.5625 18.53125 
Q 5.078125 24.8125 5.078125 32.8125 
Q 5.078125 42 6.765625 48.921875 
Q 8.453125 55.859375 11.625 60.5 
Q 14.796875 65.140625 19.359375 67.484375 
Q 23.921875 69.828125 29.6875 69.828125 
Q 33.203125 69.828125 36.28125 69.09375 
Q 39.359375 68.359375 41.875 66.71875 
Q 44.390625 65.09375 46.28125 62.40625 
Q 48.1875 59.71875 49.3125 55.8125 
L 40.921875 54.296875 
Q 39.546875 58.734375 36.546875 60.71875 
Q 33.546875 62.703125 29.59375 62.703125 
Q 25.984375 62.703125 23.046875 60.984375 
Q 20.125 59.28125 18.0625 55.875 
Q 16.015625 52.484375 14.90625 47.359375 
Q 13.8125 42.234375 13.8125 35.40625 
Q 16.21875 39.84375 20.5625 42.15625 
Q 24.90625 44.484375 30.515625 44.484375 
Q 35.203125 44.484375 39.015625 42.96875 
Q 42.828125 41.453125 45.53125 38.59375 
Q 48.25 35.75 49.734375 31.671875 
Q 51.21875 27.59375 51.21875 22.515625 
z
M 42.28125 22.125 
Q 42.28125 25.6875 41.40625 28.5625 
Q 40.53125 31.453125 38.765625 33.46875 
Q 37.015625 35.5 34.421875 36.59375 
Q 31.84375 37.703125 28.421875 37.703125 
Q 26.03125 37.703125 23.578125 36.984375 
Q 21.140625 36.28125 19.15625 34.6875 
Q 17.1875 33.109375 15.9375 30.515625 
Q 14.703125 27.9375 14.703125 24.21875 
Q 14.703125 20.40625 15.671875 17.109375 
Q 16.65625 13.8125 18.484375 11.375 
Q 20.3125 8.9375 22.890625 7.515625 
Q 25.484375 6.109375 28.71875 6.109375 
Q 31.890625 6.109375 34.40625 7.203125 
Q 36.921875 8.296875 38.671875 10.375 
Q 40.4375 12.453125 41.359375 15.421875 
Q 42.28125 18.40625 42.28125 22.125 
z
" id="LiberationSans-54"/>
       </defs>
       <use xlink:href="#LiberationSans-57"/>
       <use x="55.615234" xlink:href="#LiberationSans-54"/>
      </g>
     </g>
    </g>
    <g id="text_6">
     <!-- time (h) -->
     <g style="fill:#262626;" transform="translate(64.079089 109.579687)scale(0.09 -0.09)">
      <defs>
       <path d="M 27.046875 0.390625 
Q 25.046875 -0.140625 22.96875 -0.453125 
Q 20.90625 -0.78125 18.171875 -0.78125 
Q 7.625 -0.78125 7.625 11.1875 
L 7.625 46.4375 
L 1.515625 46.4375 
L 1.515625 52.828125 
L 7.953125 52.828125 
L 10.546875 64.65625 
L 16.40625 64.65625 
L 16.40625 52.828125 
L 26.171875 52.828125 
L 26.171875 46.4375 
L 16.40625 46.4375 
L 16.40625 13.09375 
Q 16.40625 9.28125 17.640625 7.734375 
Q 18.890625 6.203125 21.96875 6.203125 
Q 23.25 6.203125 24.4375 6.390625 
Q 25.640625 6.59375 27.046875 6.890625 
z
" id="LiberationSans-116"/>
       <path d="M 6.6875 64.0625 
L 6.6875 72.46875 
L 15.484375 72.46875 
L 15.484375 64.0625 
z
M 6.6875 0 
L 6.6875 52.828125 
L 15.484375 52.828125 
L 15.484375 0 
z
" id="LiberationSans-105"/>
       <path d="M 37.5 0 
L 37.5 33.5 
Q 37.5 37.359375 37.015625 39.9375 
Q 36.53125 42.53125 35.375 44.109375 
Q 34.234375 45.703125 32.375 46.359375 
Q 30.515625 47.015625 27.828125 47.015625 
Q 25.046875 47.015625 22.796875 45.921875 
Q 20.5625 44.828125 18.96875 42.75 
Q 17.390625 40.671875 16.53125 37.625 
Q 15.671875 34.578125 15.671875 30.609375 
L 15.671875 0 
L 6.9375 0 
L 6.9375 41.546875 
Q 6.9375 43.21875 6.90625 45.046875 
Q 6.890625 46.875 6.828125 48.5 
Q 6.78125 50.140625 6.734375 51.3125 
Q 6.6875 52.484375 6.640625 52.828125 
L 14.9375 52.828125 
Q 14.984375 52.59375 15.03125 51.515625 
Q 15.09375 50.4375 15.15625 49.046875 
Q 15.234375 47.65625 15.28125 46.21875 
Q 15.328125 44.78125 15.328125 43.796875 
L 15.484375 43.796875 
Q 16.65625 46.09375 18.015625 47.953125 
Q 19.390625 49.8125 21.21875 51.09375 
Q 23.046875 52.390625 25.40625 53.09375 
Q 27.78125 53.8125 30.90625 53.8125 
Q 36.921875 53.8125 40.40625 51.421875 
Q 43.890625 49.03125 45.265625 43.796875 
L 45.40625 43.796875 
Q 46.578125 46.09375 48.046875 47.953125 
Q 49.515625 49.8125 51.46875 51.09375 
Q 53.421875 52.390625 55.859375 53.09375 
Q 58.296875 53.8125 61.421875 53.8125 
Q 65.4375 53.8125 68.328125 52.734375 
Q 71.234375 51.65625 73.09375 49.40625 
Q 74.953125 47.171875 75.828125 43.625 
Q 76.703125 40.09375 76.703125 35.203125 
L 76.703125 0 
L 68.015625 0 
L 68.015625 33.5 
Q 68.015625 37.359375 67.53125 39.9375 
Q 67.046875 42.53125 65.890625 44.109375 
Q 64.75 45.703125 62.890625 46.359375 
Q 61.03125 47.015625 58.34375 47.015625 
Q 55.5625 47.015625 53.3125 45.96875 
Q 51.078125 44.921875 49.484375 42.875 
Q 47.90625 40.828125 47.046875 37.75 
Q 46.1875 34.671875 46.1875 30.609375 
L 46.1875 0 
z
" id="LiberationSans-109"/>
       <path d="M 13.484375 24.5625 
Q 13.484375 20.40625 14.328125 16.90625 
Q 15.1875 13.421875 16.96875 10.90625 
Q 18.75 8.40625 21.53125 7 
Q 24.3125 5.609375 28.21875 5.609375 
Q 33.9375 5.609375 37.375 7.90625 
Q 40.828125 10.203125 42.046875 13.71875 
L 49.75 11.53125 
Q 48.921875 9.328125 47.4375 7.109375 
Q 45.953125 4.890625 43.453125 3.09375 
Q 40.96875 1.3125 37.234375 0.15625 
Q 33.5 -0.984375 28.21875 -0.984375 
Q 16.5 -0.984375 10.375 6 
Q 4.25 12.984375 4.25 26.765625 
Q 4.25 34.1875 6.09375 39.328125 
Q 7.953125 44.484375 11.171875 47.703125 
Q 14.40625 50.921875 18.703125 52.359375 
Q 23 53.8125 27.875 53.8125 
Q 34.515625 53.8125 38.984375 51.65625 
Q 43.453125 49.515625 46.15625 45.71875 
Q 48.875 41.9375 50.015625 36.8125 
Q 51.171875 31.6875 51.171875 25.734375 
L 51.171875 24.5625 
z
M 42.09375 31.296875 
Q 41.359375 39.65625 37.84375 43.484375 
Q 34.328125 47.3125 27.734375 47.3125 
Q 25.53125 47.3125 23.109375 46.609375 
Q 20.703125 45.90625 18.65625 44.09375 
Q 16.609375 42.28125 15.1875 39.171875 
Q 13.765625 36.078125 13.578125 31.296875 
z
" id="LiberationSans-101"/>
       <path id="LiberationSans-32"/>
       <path d="M 6.203125 25.984375 
Q 6.203125 32.765625 7.21875 38.96875 
Q 8.25 45.171875 10.4375 50.875 
Q 12.640625 56.59375 16.0625 61.953125 
Q 19.484375 67.328125 24.21875 72.46875 
L 32.71875 72.46875 
Q 28.125 67.328125 24.78125 61.9375 
Q 21.4375 56.546875 19.28125 50.796875 
Q 17.140625 45.0625 16.09375 38.859375 
Q 15.046875 32.671875 15.046875 25.875 
Q 15.046875 19.09375 16.09375 12.890625 
Q 17.140625 6.6875 19.28125 0.921875 
Q 21.4375 -4.828125 24.78125 -10.203125 
Q 28.125 -15.578125 32.71875 -20.703125 
L 24.21875 -20.703125 
Q 19.484375 -15.578125 16.0625 -10.203125 
Q 12.640625 -4.828125 10.4375 0.875 
Q 8.25 6.59375 7.21875 12.765625 
Q 6.203125 18.953125 6.203125 25.78125 
z
" id="LiberationSans-40"/>
       <path d="M 15.484375 43.796875 
Q 16.9375 46.484375 18.640625 48.359375 
Q 20.359375 50.25 22.40625 51.46875 
Q 24.46875 52.6875 26.90625 53.25 
Q 29.34375 53.8125 32.375 53.8125 
Q 37.453125 53.8125 40.703125 52.4375 
Q 43.953125 51.078125 45.828125 48.609375 
Q 47.703125 46.140625 48.40625 42.71875 
Q 49.125 39.3125 49.125 35.203125 
L 49.125 0 
L 40.28125 0 
L 40.28125 33.5 
Q 40.28125 36.859375 39.859375 39.390625 
Q 39.453125 41.9375 38.28125 43.625 
Q 37.109375 45.3125 34.953125 46.15625 
Q 32.8125 47.015625 29.390625 47.015625 
Q 26.265625 47.015625 23.75 45.890625 
Q 21.234375 44.78125 19.453125 42.71875 
Q 17.671875 40.671875 16.6875 37.734375 
Q 15.71875 34.8125 15.71875 31.15625 
L 15.71875 0 
L 6.9375 0 
L 6.9375 72.46875 
L 15.71875 72.46875 
L 15.71875 53.609375 
Q 15.71875 52 15.671875 50.390625 
Q 15.625 48.78125 15.546875 47.40625 
Q 15.484375 46.046875 15.421875 45.09375 
Q 15.375 44.140625 15.328125 43.796875 
z
" id="LiberationSans-104"/>
       <path d="M 27.09375 25.78125 
Q 27.09375 18.953125 26.0625 12.765625 
Q 25.046875 6.59375 22.84375 0.875 
Q 20.65625 -4.828125 17.234375 -10.203125 
Q 13.8125 -15.578125 9.078125 -20.703125 
L 0.59375 -20.703125 
Q 5.171875 -15.578125 8.515625 -10.203125 
Q 11.859375 -4.828125 14 0.921875 
Q 16.15625 6.6875 17.203125 12.890625 
Q 18.265625 19.09375 18.265625 25.875 
Q 18.265625 32.671875 17.203125 38.859375 
Q 16.15625 45.0625 14 50.796875 
Q 11.859375 56.546875 8.515625 61.9375 
Q 5.171875 67.328125 0.59375 72.46875 
L 9.078125 72.46875 
Q 13.8125 67.328125 17.234375 61.953125 
Q 20.65625 56.59375 22.84375 50.875 
Q 25.046875 45.171875 26.0625 38.96875 
Q 27.09375 32.765625 27.09375 25.984375 
z
" id="LiberationSans-41"/>
      </defs>
      <use xlink:href="#LiberationSans-116"/>
      <use x="27.783203" xlink:href="#LiberationSans-105"/>
      <use x="50" xlink:href="#LiberationSans-109"/>
      <use x="133.300781" xlink:href="#LiberationSans-101"/>
      <use x="188.916016" xlink:href="#LiberationSans-32"/>
      <use x="216.699219" xlink:href="#LiberationSans-40"/>
      <use x="250" xlink:href="#LiberationSans-104"/>
      <use x="305.615234" xlink:href="#LiberationSans-41"/>
     </g>
    </g>
   </g>
   <g id="matplotlib.axis_2">
    <g id="ytick_1">
     <g id="line2d_6">
      <defs>
       <path d="M 0 0 
L -4 0 
" id="me903d42f6e" style="stroke:#262626;stroke-width:0.8;"/>
      </defs>
      <g>
       <use style="fill:#262626;stroke:#262626;stroke-width:0.8;" x="45.675" xlink:href="#me903d42f6e" y="85.6"/>
      </g>
     </g>
     <g id="text_7">
      <!-- −1.0 -->
      <g style="fill:#262626;" transform="translate(23.8825 88.49875)scale(0.08 -0.08)">
       <defs>
        <path d="M 4.9375 29.6875 
L 4.9375 36.8125 
L 53.515625 36.8125 
L 53.515625 29.6875 
z
" id="LiberationSans-8722"/>
        <path d="M 7.625 0 
L 7.625 7.46875 
L 25.140625 7.46875 
L 25.140625 60.40625 
L 9.625 49.3125 
L 9.625 57.625 
L 25.875 68.796875 
L 33.984375 68.796875 
L 33.984375 7.46875 
L 50.734375 7.46875 
L 50.734375 0 
z
" id="LiberationSans-49"/>
        <path d="M 9.125 0 
L 9.125 10.6875 
L 18.65625 10.6875 
L 18.65625 0 
z
" id="LiberationSans-46"/>
       </defs>
       <use xlink:href="#LiberationSans-8722"/>
       <use x="58.398438" xlink:href="#LiberationSans-49"/>
       <use x="114.013672" xlink:href="#LiberationSans-46"/>
       <use x="141.796875" xlink:href="#LiberationSans-48"/>
      </g>
     </g>
    </g>
    <g id="ytick_2">
     <g id="line2d_7">
      <g>
       <use style="fill:#262626;stroke:#262626;stroke-width:0.8;" x="45.675" xlink:href="#me903d42f6e" y="71.11893"/>
      </g>
     </g>
     <g id="text_8">
      <!-- −0.5 -->
      <g style="fill:#262626;" transform="translate(23.8825 74.01768)scale(0.08 -0.08)">
       <defs>
        <path d="M 51.421875 22.40625 
Q 51.421875 17.234375 49.859375 12.9375 
Q 48.296875 8.640625 45.21875 5.53125 
Q 42.140625 2.4375 37.578125 0.71875 
Q 33.015625 -0.984375 27 -0.984375 
Q 21.578125 -0.984375 17.546875 0.28125 
Q 13.53125 1.5625 10.734375 3.78125 
Q 7.953125 6 6.3125 8.984375 
Q 4.6875 11.96875 4 15.375 
L 12.890625 16.40625 
Q 13.421875 14.453125 14.390625 12.625 
Q 15.375 10.796875 17.0625 9.34375 
Q 18.75 7.90625 21.21875 7.046875 
Q 23.6875 6.203125 27.203125 6.203125 
Q 30.609375 6.203125 33.390625 7.25 
Q 36.1875 8.296875 38.15625 10.34375 
Q 40.140625 12.40625 41.203125 15.375 
Q 42.28125 18.359375 42.28125 22.21875 
Q 42.28125 25.390625 41.25 28.046875 
Q 40.234375 30.71875 38.328125 32.640625 
Q 36.421875 34.578125 33.65625 35.640625 
Q 30.90625 36.71875 27.390625 36.71875 
Q 25.203125 36.71875 23.34375 36.328125 
Q 21.484375 35.9375 19.890625 35.25 
Q 18.3125 34.578125 17.015625 33.671875 
Q 15.71875 32.765625 14.59375 31.78125 
L 6 31.78125 
L 8.296875 68.796875 
L 47.40625 68.796875 
L 47.40625 61.328125 
L 16.3125 61.328125 
L 14.984375 39.5 
Q 17.328125 41.3125 20.84375 42.59375 
Q 24.359375 43.890625 29.203125 43.890625 
Q 34.328125 43.890625 38.421875 42.328125 
Q 42.53125 40.765625 45.40625 37.90625 
Q 48.296875 35.0625 49.859375 31.109375 
Q 51.421875 27.15625 51.421875 22.40625 
z
" id="LiberationSans-53"/>
       </defs>
       <use xlink:href="#LiberationSans-8722"/>
       <use x="58.398438" xlink:href="#LiberationSans-48"/>
       <use x="114.013672" xlink:href="#LiberationSans-46"/>
       <use x="141.796875" xlink:href="#LiberationSans-53"/>
      </g>
     </g>
    </g>
    <g id="ytick_3">
     <g id="line2d_8">
      <g>
       <use style="fill:#262626;stroke:#262626;stroke-width:0.8;" x="45.675" xlink:href="#me903d42f6e" y="56.637861"/>
      </g>
     </g>
     <g id="text_9">
      <!-- 0.0 -->
      <g style="fill:#262626;" transform="translate(28.555 59.536611)scale(0.08 -0.08)">
       <use xlink:href="#LiberationSans-48"/>
       <use x="55.615234" xlink:href="#LiberationSans-46"/>
       <use x="83.398438" xlink:href="#LiberationSans-48"/>
      </g>
     </g>
    </g>
    <g id="ytick_4">
     <g id="line2d_9">
      <g>
       <use style="fill:#262626;stroke:#262626;stroke-width:0.8;" x="45.675" xlink:href="#me903d42f6e" y="42.156791"/>
      </g>
     </g>
     <g id="text_10">
      <!-- 0.5 -->
      <g style="fill:#262626;" transform="translate(28.555 45.055541)scale(0.08 -0.08)">
       <use xlink:href="#LiberationSans-48"/>
       <use x="55.615234" xlink:href="#LiberationSans-46"/>
       <use x="83.398438" xlink:href="#LiberationSans-53"/>
      </g>
     </g>
    </g>
    <g id="ytick_5">
     <g id="line2d_10">
      <g>
       <use style="fill:#262626;stroke:#262626;stroke-width:0.8;" x="45.675" xlink:href="#me903d42f6e" y="27.675721"/>
      </g>
     </g>
     <g id="text_11">
      <!-- 1.0 -->
      <g style="fill:#262626;" transform="translate(28.555 30.574471)scale(0.08 -0.08)">
       <use xlink:href="#LiberationSans-49"/>
       <use x="55.615234" xlink:href="#LiberationSans-46"/>
       <use x="83.398438" xlink:href="#LiberationSans-48"/>
      </g>
     </g>
    </g>
    <g id="text_12">
     <!-- expr. norm. -->
     <g style="fill:#262626;" transform="translate(18.015 77.207734)rotate(-90)scale(0.09 -0.09)">
      <defs>
       <path d="M 39.109375 0 
L 24.90625 21.6875 
L 10.59375 0 
L 1.125 0 
L 19.921875 27.15625 
L 2 52.828125 
L 11.71875 52.828125 
L 24.90625 32.28125 
L 37.984375 52.828125 
L 47.796875 52.828125 
L 29.890625 27.25 
L 48.921875 0 
z
" id="LiberationSans-120"/>
       <path d="M 51.421875 26.65625 
Q 51.421875 20.65625 50.4375 15.578125 
Q 49.46875 10.5 47.1875 6.828125 
Q 44.921875 3.171875 41.1875 1.09375 
Q 37.453125 -0.984375 31.984375 -0.984375 
Q 26.3125 -0.984375 22.0625 1.171875 
Q 17.828125 3.328125 15.578125 8.203125 
L 15.328125 8.203125 
Q 15.375 8.109375 15.40625 7.328125 
Q 15.4375 6.546875 15.453125 5.375 
Q 15.484375 4.203125 15.5 2.75 
Q 15.53125 1.3125 15.53125 -0.09375 
L 15.53125 -20.75 
L 6.734375 -20.75 
L 6.734375 42.046875 
Q 6.734375 43.953125 6.703125 45.703125 
Q 6.6875 47.46875 6.640625 48.90625 
Q 6.59375 50.34375 6.546875 51.359375 
Q 6.5 52.390625 6.453125 52.828125 
L 14.9375 52.828125 
Q 14.984375 52.6875 15.0625 51.796875 
Q 15.140625 50.921875 15.203125 49.671875 
Q 15.28125 48.4375 15.359375 47.015625 
Q 15.4375 45.609375 15.4375 44.34375 
L 15.625 44.34375 
Q 16.84375 46.875 18.40625 48.65625 
Q 19.96875 50.4375 21.96875 51.578125 
Q 23.96875 52.734375 26.4375 53.25 
Q 28.90625 53.765625 31.984375 53.765625 
Q 37.453125 53.765625 41.1875 51.8125 
Q 44.921875 49.859375 47.1875 46.3125 
Q 49.46875 42.78125 50.4375 37.765625 
Q 51.421875 32.765625 51.421875 26.65625 
z
M 42.1875 26.46875 
Q 42.1875 31.34375 41.59375 35.15625 
Q 41.015625 38.96875 39.578125 41.59375 
Q 38.140625 44.234375 35.734375 45.59375 
Q 33.34375 46.96875 29.734375 46.96875 
Q 26.8125 46.96875 24.21875 46.140625 
Q 21.625 45.3125 19.703125 42.96875 
Q 17.78125 40.625 16.65625 36.5 
Q 15.53125 32.375 15.53125 25.78125 
Q 15.53125 20.171875 16.453125 16.28125 
Q 17.390625 12.40625 19.171875 10.015625 
Q 20.953125 7.625 23.578125 6.5625 
Q 26.21875 5.515625 29.640625 5.515625 
Q 33.296875 5.515625 35.71875 6.921875 
Q 38.140625 8.34375 39.578125 11.03125 
Q 41.015625 13.71875 41.59375 17.59375 
Q 42.1875 21.484375 42.1875 26.46875 
z
" id="LiberationSans-112"/>
       <path d="M 6.9375 0 
L 6.9375 40.53125 
Q 6.9375 42.1875 6.90625 43.921875 
Q 6.890625 45.65625 6.828125 47.265625 
Q 6.78125 48.875 6.734375 50.28125 
Q 6.6875 51.703125 6.640625 52.828125 
L 14.9375 52.828125 
Q 14.984375 51.703125 15.0625 50.265625 
Q 15.140625 48.828125 15.203125 47.3125 
Q 15.28125 45.796875 15.296875 44.40625 
Q 15.328125 43.015625 15.328125 42.046875 
L 15.53125 42.046875 
Q 16.453125 45.0625 17.5 47.28125 
Q 18.5625 49.515625 19.96875 50.953125 
Q 21.390625 52.390625 23.34375 53.09375 
Q 25.296875 53.8125 28.078125 53.8125 
Q 29.15625 53.8125 30.125 53.640625 
Q 31.109375 53.46875 31.640625 53.328125 
L 31.640625 45.265625 
Q 30.765625 45.515625 29.59375 45.625 
Q 28.421875 45.75 26.953125 45.75 
Q 23.921875 45.75 21.796875 44.375 
Q 19.671875 43.015625 18.328125 40.59375 
Q 17 38.1875 16.359375 34.84375 
Q 15.71875 31.5 15.71875 27.546875 
L 15.71875 0 
z
" id="LiberationSans-114"/>
       <path d="M 40.28125 0 
L 40.28125 33.5 
Q 40.28125 37.359375 39.71875 39.9375 
Q 39.15625 42.53125 37.890625 44.109375 
Q 36.625 45.703125 34.546875 46.359375 
Q 32.46875 47.015625 29.390625 47.015625 
Q 26.265625 47.015625 23.75 45.921875 
Q 21.234375 44.828125 19.453125 42.75 
Q 17.671875 40.671875 16.6875 37.625 
Q 15.71875 34.578125 15.71875 30.609375 
L 15.71875 0 
L 6.9375 0 
L 6.9375 41.546875 
Q 6.9375 43.21875 6.90625 45.046875 
Q 6.890625 46.875 6.828125 48.5 
Q 6.78125 50.140625 6.734375 51.3125 
Q 6.6875 52.484375 6.640625 52.828125 
L 14.9375 52.828125 
Q 14.984375 52.59375 15.03125 51.515625 
Q 15.09375 50.4375 15.15625 49.046875 
Q 15.234375 47.65625 15.28125 46.21875 
Q 15.328125 44.78125 15.328125 43.796875 
L 15.484375 43.796875 
Q 16.75 46.09375 18.265625 47.953125 
Q 19.78125 49.8125 21.78125 51.09375 
Q 23.78125 52.390625 26.359375 53.09375 
Q 28.953125 53.8125 32.375 53.8125 
Q 36.765625 53.8125 39.9375 52.734375 
Q 43.109375 51.65625 45.15625 49.40625 
Q 47.21875 47.171875 48.171875 43.625 
Q 49.125 40.09375 49.125 35.203125 
L 49.125 0 
z
" id="LiberationSans-110"/>
       <path d="M 51.421875 26.46875 
Q 51.421875 12.59375 45.3125 5.796875 
Q 39.203125 -0.984375 27.59375 -0.984375 
Q 22.078125 -0.984375 17.71875 0.671875 
Q 13.375 2.34375 10.375 5.765625 
Q 7.375 9.1875 5.78125 14.328125 
Q 4.203125 19.484375 4.203125 26.46875 
Q 4.203125 53.8125 27.875 53.8125 
Q 34.03125 53.8125 38.5 52.09375 
Q 42.96875 50.390625 45.828125 46.96875 
Q 48.6875 43.5625 50.046875 38.421875 
Q 51.421875 33.296875 51.421875 26.46875 
z
M 42.1875 26.46875 
Q 42.1875 32.625 41.234375 36.625 
Q 40.28125 40.625 38.453125 43.015625 
Q 36.625 45.40625 33.984375 46.359375 
Q 31.34375 47.3125 28.03125 47.3125 
Q 24.65625 47.3125 21.9375 46.3125 
Q 19.234375 45.3125 17.328125 42.890625 
Q 15.4375 40.484375 14.421875 36.46875 
Q 13.421875 32.46875 13.421875 26.46875 
Q 13.421875 20.3125 14.5 16.28125 
Q 15.578125 12.25 17.453125 9.859375 
Q 19.34375 7.46875 21.90625 6.484375 
Q 24.46875 5.515625 27.484375 5.515625 
Q 30.859375 5.515625 33.59375 6.46875 
Q 36.328125 7.421875 38.234375 9.8125 
Q 40.140625 12.203125 41.15625 16.25 
Q 42.1875 20.3125 42.1875 26.46875 
z
" id="LiberationSans-111"/>
      </defs>
      <use xlink:href="#LiberationSans-101"/>
      <use x="55.615234" xlink:href="#LiberationSans-120"/>
      <use x="105.615234" xlink:href="#LiberationSans-112"/>
      <use x="161.230469" xlink:href="#LiberationSans-114"/>
      <use x="189.03125" xlink:href="#LiberationSans-46"/>
      <use x="216.814453" xlink:href="#LiberationSans-32"/>
      <use x="244.597656" xlink:href="#LiberationSans-110"/>
      <use x="300.212891" xlink:href="#LiberationSans-111"/>
      <use x="355.828125" xlink:href="#LiberationSans-114"/>
      <use x="389.128906" xlink:href="#LiberationSans-109"/>
      <use x="472.429688" xlink:href="#LiberationSans-46"/>
     </g>
    </g>
   </g>
   <g id="line2d_11">
    <path clip-path="url(#p01b86f0dee)" d="M 48.73447 56.637861 
L 49.352544 56.637861 
L 49.970619 56.637861 
L 50.588694 56.637861 
L 51.206768 56.637861 
L 51.824843 56.637861 
L 52.442918 56.637861 
L 53.060993 56.637861 
L 53.679067 56.637861 
L 54.297142 56.637861 
L 54.915217 56.637861 
L 55.533291 56.637861 
L 56.151366 56.637861 
L 56.769441 56.63786 
L 57.387515 56.637859 
L 58.00559 56.637792 
L 58.623665 56.636484 
L 59.241739 56.621661 
L 59.859814 56.51788 
L 60.477889 56.045565 
L 61.095963 54.586728 
L 61.714038 51.413809 
L 62.332113 46.397322 
L 62.950187 40.470274 
L 63.568262 35.108697 
L 64.186337 31.315288 
L 64.804412 29.176035 
L 65.422486 28.198119 
L 66.040561 27.830254 
L 66.658636 27.714831 
L 67.27671 27.684253 
L 67.894785 27.677337 
L 68.51286 27.675989 
L 69.130934 27.67576 
L 69.749009 27.675726 
L 70.367084 27.675722 
L 70.985158 27.675721 
L 71.603233 27.675721 
L 72.221308 27.675721 
L 72.839382 27.675721 
L 73.457457 27.675721 
L 74.075532 27.675721 
L 74.693607 27.675721 
L 75.311681 27.675721 
L 75.929756 27.675721 
L 76.547831 27.675721 
L 77.165905 27.675721 
L 77.78398 27.675721 
L 78.402055 27.675721 
L 79.020129 27.675721 
L 79.638204 27.675721 
L 80.256279 27.675721 
L 80.874353 27.675721 
L 81.492428 27.675721 
L 82.110503 27.675721 
L 82.728577 27.675721 
L 83.346652 27.675721 
L 83.964727 27.675721 
L 84.582801 27.675721 
L 85.200876 27.675721 
L 85.818951 27.675721 
L 86.437026 27.675721 
L 87.0551 27.675721 
L 87.673175 27.675721 
L 88.29125 27.675721 
L 88.909324 27.675721 
L 89.527399 27.675721 
L 90.145474 27.675721 
L 90.763548 27.675721 
L 91.381623 27.675721 
L 91.999698 27.675721 
L 92.617772 27.675721 
L 93.235847 27.675721 
L 93.853922 27.675721 
L 94.471996 27.675721 
L 95.090071 27.675721 
L 95.708146 27.675721 
L 96.326221 27.675721 
L 96.944295 27.675721 
L 97.56237 27.675721 
L 98.180445 27.675721 
L 98.798519 27.675721 
L 99.416594 27.675721 
L 100.034669 27.675721 
L 100.652743 27.675721 
L 101.270818 27.675721 
L 101.888893 27.675721 
L 102.506967 27.675721 
L 103.125042 27.675721 
L 103.743117 27.675721 
L 104.361191 27.675721 
L 104.979266 27.675721 
L 105.597341 27.675721 
L 106.215416 27.675721 
L 106.83349 27.675721 
L 107.451565 27.675721 
L 108.06964 27.675721 
L 108.687714 27.675721 
L 109.305789 27.675721 
L 109.923864 27.675721 
" style="fill:none;stroke:#800080;stroke-linecap:round;stroke-width:2;"/>
   </g>
   <g id="patch_3">
    <path d="M 45.675 85.6 
L 45.675 23.8 
" style="fill:none;stroke:#262626;stroke-linecap:square;stroke-linejoin:miter;"/>
   </g>
   <g id="patch_4">
    <path d="M 112.983333 85.6 
L 112.983333 23.8 
" style="fill:none;stroke:#262626;stroke-linecap:square;stroke-linejoin:miter;"/>
   </g>
   <g id="patch_5">
    <path d="M 45.675 85.6 
L 112.983333 85.6 
" style="fill:none;stroke:#262626;stroke-linecap:square;stroke-linejoin:miter;"/>
   </g>
   <g id="patch_6">
    <path d="M 45.675 23.8 
L 112.983333 23.8 
" style="fill:none;stroke:#262626;stroke-linecap:square;stroke-linejoin:miter;"/>
   </g>
   <g id="line2d_12">
    <path clip-path="url(#p01b86f0dee)" d="M 48.73447 56.637861 
L 49.352544 56.633744 
L 49.970619 56.610424 
L 50.588694 56.556542 
L 51.206768 56.464874 
L 51.824843 56.330982 
L 52.442918 56.152491 
L 53.060993 55.928586 
L 53.679067 55.659644 
L 54.297142 55.346951 
L 54.915217 54.992471 
L 55.533291 54.598672 
L 56.151366 54.168372 
L 56.769441 53.704629 
L 57.387515 53.210641 
L 58.00559 52.689671 
L 58.623665 52.144987 
L 59.241739 51.57981 
L 59.859814 50.997279 
L 60.477889 50.400421 
L 61.095963 49.792128 
L 61.714038 49.175141 
L 62.332113 48.552041 
L 62.950187 47.92524 
L 63.568262 47.29698 
L 64.186337 46.669327 
L 64.804412 46.044181 
L 65.422486 45.423269 
L 66.040561 44.80816 
L 66.658636 44.200264 
L 67.27671 43.600839 
L 67.894785 43.011003 
L 68.51286 42.431736 
L 69.130934 41.863891 
L 69.749009 41.308199 
L 70.367084 40.765282 
L 70.985158 40.235656 
L 71.603233 39.71974 
L 72.221308 39.217866 
L 72.839382 38.730283 
L 73.457457 38.257163 
L 74.075532 37.798614 
L 74.693607 37.354678 
L 75.311681 36.925345 
L 75.929756 36.51055 
L 76.547831 36.110188 
L 77.165905 35.72411 
L 77.78398 35.352134 
L 78.402055 34.994046 
L 79.020129 34.649605 
L 79.638204 34.318547 
L 80.256279 34.000588 
L 80.874353 33.695428 
L 81.492428 33.402752 
L 82.110503 33.122235 
L 82.728577 32.853542 
L 83.346652 32.596332 
L 83.964727 32.35026 
L 84.582801 32.114977 
L 85.200876 31.890135 
L 85.818951 31.675384 
L 86.437026 31.470376 
L 87.0551 31.274767 
L 87.673175 31.088216 
L 88.29125 30.910385 
L 88.909324 30.740944 
L 89.527399 30.579567 
L 90.145474 30.425936 
L 90.763548 30.279739 
L 91.381623 30.140672 
L 91.999698 30.008438 
L 92.617772 29.882749 
L 93.235847 29.763325 
L 93.853922 29.649893 
L 94.471996 29.542191 
L 95.090071 29.439963 
L 95.708146 29.342963 
L 96.326221 29.250953 
L 96.944295 29.163703 
L 97.56237 29.080992 
L 98.180445 29.002607 
L 98.798519 28.928344 
L 99.416594 28.858004 
L 100.034669 28.7914 
L 100.652743 28.728349 
L 101.270818 28.668678 
L 101.888893 28.61222 
L 102.506967 28.558814 
L 103.125042 28.508309 
L 103.743117 28.460559 
L 104.361191 28.415422 
L 104.979266 28.372766 
L 105.597341 28.332464 
L 106.215416 28.294394 
L 106.83349 28.25844 
L 107.451565 28.224491 
L 108.06964 28.192443 
L 108.687714 28.162194 
L 109.305789 28.133649 
L 109.923864 28.106718 
" style="fill:none;stroke:#1f77b4;stroke-linecap:round;stroke-width:2;"/>
   </g>
   <g id="text_13">
    <!-- Msr1 -->
    <g style="fill:#262626;" transform="translate(69.330026 17.8)scale(0.09 -0.09)">
     <defs>
      <path d="M 61.578125 0 
L 70.359375 45.3125 
Q 70.84375 47.796875 71.375 50.390625 
Q 71.921875 52.984375 72.40625 55.125 
Q 72.953125 57.625 73.53125 59.96875 
Q 72.3125 57.421875 71.046875 54.9375 
Q 69.96875 52.78125 68.75 50.4375 
Q 67.53125 48.09375 66.453125 46.296875 
L 39.703125 0 
L 33.640625 0 
L 24.609375 46.296875 
Q 24.3125 47.75 23.96875 50.0625 
Q 23.640625 52.390625 23.34375 54.59375 
Q 23 57.171875 22.609375 59.96875 
Q 22.21875 57.234375 21.78125 54.546875 
Q 21.390625 52.25 20.96875 49.75 
Q 20.5625 47.265625 20.171875 45.3125 
L 11.375 0 
L 3.078125 0 
L 16.40625 68.796875 
L 27.9375 68.796875 
L 37.15625 21.09375 
Q 37.3125 20.359375 37.578125 18.71875 
Q 37.84375 17.09375 38.09375 15.375 
Q 38.375 13.421875 38.71875 11.078125 
Q 39.75 13.234375 40.671875 15.1875 
Q 41.5 16.890625 42.359375 18.625 
Q 43.21875 20.359375 43.796875 21.484375 
L 70.796875 68.796875 
L 83.296875 68.796875 
L 69.96875 0 
z
" id="LiberationSans-Italic-77"/>
      <path d="M 44.28125 15.484375 
Q 44.28125 11.328125 42.625 8.21875 
Q 40.96875 5.125 37.90625 3.078125 
Q 34.859375 1.03125 30.515625 0.015625 
Q 26.171875 -0.984375 20.75 -0.984375 
Q 16.21875 -0.984375 12.796875 -0.1875 
Q 9.375 0.59375 6.90625 2.078125 
Q 4.4375 3.5625 2.796875 5.78125 
Q 1.171875 8.015625 0.25 10.890625 
L 7.421875 13.625 
Q 8.15625 11.671875 9.296875 10.125 
Q 10.453125 8.59375 12.125 7.546875 
Q 13.8125 6.5 16.125 5.953125 
Q 18.453125 5.421875 21.53125 5.421875 
Q 24.65625 5.421875 27.265625 5.9375 
Q 29.890625 6.453125 31.765625 7.5625 
Q 33.640625 8.6875 34.6875 10.4375 
Q 35.75 12.203125 35.75 14.703125 
Q 35.75 16.65625 34.8125 18.046875 
Q 33.890625 19.4375 32.203125 20.484375 
Q 30.515625 21.53125 28.09375 22.4375 
Q 25.6875 23.34375 22.703125 24.265625 
Q 19.53125 25.296875 16.671875 26.515625 
Q 13.8125 27.734375 11.640625 29.4375 
Q 9.46875 31.15625 8.171875 33.46875 
Q 6.890625 35.796875 6.890625 38.921875 
Q 6.890625 42.921875 8.625 45.71875 
Q 10.359375 48.53125 13.3125 50.28125 
Q 16.265625 52.046875 20.1875 52.84375 
Q 24.125 53.65625 28.515625 53.65625 
Q 32.515625 53.65625 35.828125 52.96875 
Q 39.15625 52.296875 41.640625 50.796875 
Q 44.140625 49.3125 45.75 46.9375 
Q 47.359375 44.578125 47.953125 41.21875 
L 39.984375 39.984375 
Q 38.921875 43.84375 35.9375 45.546875 
Q 32.953125 47.265625 27.9375 47.265625 
Q 25.34375 47.265625 23.0625 46.875 
Q 20.796875 46.484375 19.09375 45.609375 
Q 17.390625 44.734375 16.375 43.3125 
Q 15.375 41.890625 15.375 39.890625 
Q 15.375 37.890625 16.296875 36.546875 
Q 17.234375 35.203125 18.921875 34.171875 
Q 20.609375 33.15625 22.96875 32.34375 
Q 25.34375 31.546875 28.265625 30.609375 
Q 31.0625 29.734375 33.90625 28.5625 
Q 36.765625 27.390625 39.0625 25.65625 
Q 41.359375 23.921875 42.8125 21.453125 
Q 44.28125 19 44.28125 15.484375 
z
" id="LiberationSans-Italic-115"/>
      <path d="M 35.0625 45.796875 
Q 34.234375 46.046875 33.078125 46.234375 
Q 31.9375 46.4375 30.671875 46.4375 
Q 27.546875 46.4375 25.046875 44.625 
Q 22.5625 42.828125 20.671875 40.03125 
Q 18.796875 37.25 17.578125 33.90625 
Q 16.359375 30.5625 15.828125 27.546875 
L 10.453125 0 
L 1.65625 0 
L 9.578125 40.53125 
Q 9.90625 42.234375 10.203125 43.9375 
Q 10.5 45.65625 10.765625 47.265625 
Q 11.03125 48.875 11.28125 50.3125 
Q 11.53125 51.765625 11.671875 52.828125 
L 19.96875 52.828125 
Q 19.828125 51.765625 19.609375 50.296875 
Q 19.390625 48.828125 19.140625 47.3125 
Q 18.890625 45.796875 18.671875 44.40625 
Q 18.453125 43.015625 18.265625 42.046875 
L 18.453125 42.046875 
Q 19.96875 45.0625 21.453125 47.28125 
Q 22.953125 49.515625 24.5625 50.953125 
Q 26.171875 52.390625 28 53.09375 
Q 29.828125 53.8125 32.03125 53.8125 
Q 32.5625 53.8125 33.203125 53.734375 
Q 33.84375 53.65625 34.5 53.5625 
Q 35.15625 53.46875 35.734375 53.34375 
Q 36.328125 53.21875 36.671875 53.125 
z
" id="LiberationSans-Italic-114"/>
      <path d="M 2.59375 0 
L 4.046875 7.46875 
L 21.578125 7.46875 
L 31.734375 59.71875 
L 14.109375 48.828125 
L 15.828125 57.625 
L 34.234375 68.796875 
L 42.328125 68.796875 
L 30.421875 7.46875 
L 47.171875 7.46875 
L 45.703125 0 
z
" id="LiberationSans-Italic-49"/>
     </defs>
     <use xlink:href="#LiberationSans-Italic-77"/>
     <use x="83.300781" xlink:href="#LiberationSans-Italic-115"/>
     <use x="133.300781" xlink:href="#LiberationSans-Italic-114"/>
     <use x="166.601562" xlink:href="#LiberationSans-Italic-49"/>
    </g>
   </g>
   <g id="line2d_13">
    <path clip-path="url(#p01b86f0dee)" d="M 48.73447 56.637861 
L 49.352544 55.878123 
L 49.970619 55.138316 
L 50.588694 54.417915 
L 51.206768 53.716412 
L 51.824843 53.03331 
L 52.442918 52.368128 
L 53.060993 51.720395 
L 53.679067 51.089653 
L 54.297142 50.475457 
L 54.915217 49.877372 
L 55.533291 49.294977 
L 56.151366 48.727859 
L 56.769441 48.175618 
L 57.387515 47.637863 
L 58.00559 47.114214 
L 58.623665 46.604302 
L 59.241739 46.107766 
L 59.859814 45.624255 
L 60.477889 45.153428 
L 61.095963 44.694952 
L 61.714038 44.248502 
L 62.332113 43.813763 
L 62.950187 43.390429 
L 63.568262 42.978199 
L 64.186337 42.576784 
L 64.804412 42.185898 
L 65.422486 41.805266 
L 66.040561 41.434618 
L 66.658636 41.073694 
L 67.27671 40.722237 
L 67.894785 40.38 
L 68.51286 40.04674 
L 69.130934 39.722223 
L 69.749009 39.406218 
L 70.367084 39.098503 
L 70.985158 38.798859 
L 71.603233 38.507076 
L 72.221308 38.222947 
L 72.839382 37.946272 
L 73.457457 37.676854 
L 74.075532 37.414503 
L 74.693607 37.159035 
L 75.311681 36.910268 
L 75.929756 36.668027 
L 76.547831 36.43214 
L 77.165905 36.202441 
L 77.78398 35.978767 
L 78.402055 35.760961 
L 79.020129 35.548868 
L 79.638204 35.342339 
L 80.256279 35.141228 
L 80.874353 34.945392 
L 81.492428 34.754694 
L 82.110503 34.568997 
L 82.728577 34.388172 
L 83.346652 34.212091 
L 83.964727 34.040628 
L 84.582801 33.873664 
L 85.200876 33.711079 
L 85.818951 33.552759 
L 86.437026 33.398592 
L 87.0551 33.248469 
L 87.673175 33.102284 
L 88.29125 32.959934 
L 88.909324 32.821318 
L 89.527399 32.686339 
L 90.145474 32.5549 
L 90.763548 32.426909 
L 91.381623 32.302275 
L 91.999698 32.180911 
L 92.617772 32.062731 
L 93.235847 31.94765 
L 93.853922 31.835589 
L 94.471996 31.726467 
L 95.090071 31.620207 
L 95.708146 31.516735 
L 96.326221 31.415977 
L 96.944295 31.317863 
L 97.56237 31.222322 
L 98.180445 31.129287 
L 98.798519 31.038693 
L 99.416594 30.950475 
L 100.034669 30.864571 
L 100.652743 30.780921 
L 101.270818 30.699465 
L 101.888893 30.620146 
L 102.506967 30.542908 
L 103.125042 30.467696 
L 103.743117 30.394456 
L 104.361191 30.323138 
L 104.979266 30.253691 
L 105.597341 30.186066 
L 106.215416 30.120214 
L 106.83349 30.05609 
L 107.451565 29.993648 
L 108.06964 29.932844 
L 108.687714 29.873635 
L 109.305789 29.815979 
L 109.923864 29.759836 
" style="fill:none;stroke:#2ca02c;stroke-linecap:round;stroke-width:2;"/>
   </g>
   <g id="PathCollection_1">
    <defs>
     <path d="M 0 1.581139 
C 0.419323 1.581139 0.821528 1.41454 1.118034 1.118034 
C 1.41454 0.821528 1.581139 0.419323 1.581139 0 
C 1.581139 -0.419323 1.41454 -0.821528 1.118034 -1.118034 
C 0.821528 -1.41454 0.419323 -1.581139 0 -1.581139 
C -0.419323 -1.581139 -0.821528 -1.41454 -1.118034 -1.118034 
C -1.41454 -0.821528 -1.581139 -0.419323 -1.581139 0 
C -1.581139 0.419323 -1.41454 0.821528 -1.118034 1.118034 
C -0.821528 1.41454 -0.419323 1.581139 0 1.581139 
z
" id="m1e9359b5d9" style="stroke:#ffffff;stroke-width:0.252982;"/>
    </defs>
    <g clip-path="url(#p01b86f0dee)">
     <use style="stroke:#ffffff;stroke-width:0.252982;" x="48.73447" xlink:href="#m1e9359b5d9" y="56.637861"/>
     <use style="stroke:#ffffff;stroke-width:0.252982;" x="48.73447" xlink:href="#m1e9359b5d9" y="56.637861"/>
     <use style="stroke:#ffffff;stroke-width:0.252982;" x="59.324942" xlink:href="#m1e9359b5d9" y="56.637861"/>
     <use style="stroke:#ffffff;stroke-width:0.252982;" x="59.324942" xlink:href="#m1e9359b5d9" y="56.637861"/>
     <use style="stroke:#ffffff;stroke-width:0.252982;" x="62.855099" xlink:href="#m1e9359b5d9" y="41.380531"/>
     <use style="stroke:#ffffff;stroke-width:0.252982;" x="62.855099" xlink:href="#m1e9359b5d9" y="41.380531"/>
     <use style="stroke:#ffffff;stroke-width:0.252982;" x="76.975728" xlink:href="#m1e9359b5d9" y="50.73552"/>
     <use style="stroke:#ffffff;stroke-width:0.252982;" x="76.975728" xlink:href="#m1e9359b5d9" y="50.73552"/>
     <use style="stroke:#ffffff;stroke-width:0.252982;" x="52.264627" xlink:href="#m1e9359b5d9" y="56.637861"/>
     <use style="stroke:#ffffff;stroke-width:0.252982;" x="52.264627" xlink:href="#m1e9359b5d9" y="56.637861"/>
     <use style="stroke:#ffffff;stroke-width:0.252982;" x="98.156672" xlink:href="#m1e9359b5d9" y="27.675721"/>
    </g>
   </g>
   <g id="LineCollection_1">
    <path clip-path="url(#p01b86f0dee)" d="M 48.73447 56.637861 
L 48.73447 56.637861 
" style="fill:none;stroke:#000000;"/>
    <path clip-path="url(#p01b86f0dee)" d="M 48.73447 56.637861 
L 48.73447 56.637861 
" style="fill:none;stroke:#000000;"/>
    <path clip-path="url(#p01b86f0dee)" d="M 59.324942 56.637861 
L 59.324942 56.637861 
" style="fill:none;stroke:#000000;"/>
    <path clip-path="url(#p01b86f0dee)" d="M 59.324942 56.637861 
L 59.324942 56.637861 
" style="fill:none;stroke:#000000;"/>
    <path clip-path="url(#p01b86f0dee)" d="M 62.855099 46.263313 
L 62.855099 36.49775 
" style="fill:none;stroke:#000000;"/>
    <path clip-path="url(#p01b86f0dee)" d="M 62.855099 46.263313 
L 62.855099 36.49775 
" style="fill:none;stroke:#000000;"/>
    <path clip-path="url(#p01b86f0dee)" d="M 76.975728 59.08269 
L 76.975728 42.38835 
" style="fill:none;stroke:#000000;"/>
    <path clip-path="url(#p01b86f0dee)" d="M 76.975728 59.08269 
L 76.975728 42.38835 
" style="fill:none;stroke:#000000;"/>
    <path clip-path="url(#p01b86f0dee)" d="M 52.264627 56.637861 
L 52.264627 56.637861 
" style="fill:none;stroke:#000000;"/>
    <path clip-path="url(#p01b86f0dee)" d="M 52.264627 56.637861 
L 52.264627 56.637861 
" style="fill:none;stroke:#000000;"/>
    <path clip-path="url(#p01b86f0dee)" d="M 98.156672 29.871314 
L 98.156672 25.480128 
" style="fill:none;stroke:#000000;"/>
   </g>
   <g id="line2d_14">
    <defs>
     <path d="M 2 0 
L -2 -0 
" id="m27fb48db79" style="stroke:#000000;"/>
    </defs>
    <g clip-path="url(#p01b86f0dee)">
     <use style="stroke:#000000;" x="48.73447" xlink:href="#m27fb48db79" y="56.637861"/>
     <use style="stroke:#000000;" x="48.73447" xlink:href="#m27fb48db79" y="56.637861"/>
     <use style="stroke:#000000;" x="59.324942" xlink:href="#m27fb48db79" y="56.637861"/>
     <use style="stroke:#000000;" x="59.324942" xlink:href="#m27fb48db79" y="56.637861"/>
     <use style="stroke:#000000;" x="62.855099" xlink:href="#m27fb48db79" y="46.263313"/>
     <use style="stroke:#000000;" x="62.855099" xlink:href="#m27fb48db79" y="46.263313"/>
     <use style="stroke:#000000;" x="76.975728" xlink:href="#m27fb48db79" y="59.08269"/>
     <use style="stroke:#000000;" x="76.975728" xlink:href="#m27fb48db79" y="59.08269"/>
     <use style="stroke:#000000;" x="52.264627" xlink:href="#m27fb48db79" y="56.637861"/>
     <use style="stroke:#000000;" x="52.264627" xlink:href="#m27fb48db79" y="56.637861"/>
     <use style="stroke:#000000;" x="98.156672" xlink:href="#m27fb48db79" y="29.871314"/>
    </g>
   </g>
   <g id="line2d_15">
    <g clip-path="url(#p01b86f0dee)">
     <use style="stroke:#000000;" x="48.73447" xlink:href="#m27fb48db79" y="56.637861"/>
     <use style="stroke:#000000;" x="48.73447" xlink:href="#m27fb48db79" y="56.637861"/>
     <use style="stroke:#000000;" x="59.324942" xlink:href="#m27fb48db79" y="56.637861"/>
     <use style="stroke:#000000;" x="59.324942" xlink:href="#m27fb48db79" y="56.637861"/>
     <use style="stroke:#000000;" x="62.855099" xlink:href="#m27fb48db79" y="36.49775"/>
     <use style="stroke:#000000;" x="62.855099" xlink:href="#m27fb48db79" y="36.49775"/>
     <use style="stroke:#000000;" x="76.975728" xlink:href="#m27fb48db79" y="42.38835"/>
     <use style="stroke:#000000;" x="76.975728" xlink:href="#m27fb48db79" y="42.38835"/>
     <use style="stroke:#000000;" x="52.264627" xlink:href="#m27fb48db79" y="56.637861"/>
     <use style="stroke:#000000;" x="52.264627" xlink:href="#m27fb48db79" y="56.637861"/>
     <use style="stroke:#000000;" x="98.156672" xlink:href="#m27fb48db79" y="25.480128"/>
    </g>
   </g>
  </g>
  <g id="axes_2">
   <g id="patch_7">
    <path d="M 127.783333 85.6 
L 195.091667 85.6 
L 195.091667 23.8 
L 127.783333 23.8 
z
" style="fill:#ffffff;"/>
   </g>
   <g id="matplotlib.axis_3">
    <g id="xtick_6">
     <g id="line2d_16">
      <g>
       <use style="fill:#262626;stroke:#262626;stroke-width:0.8;" x="130.842803" xlink:href="#m2e65760353" y="85.6"/>
      </g>
     </g>
     <g id="text_14">
      <!-- 0 -->
      <g style="fill:#262626;" transform="translate(128.618428 97.3975)scale(0.08 -0.08)">
       <use xlink:href="#LiberationSans-48"/>
      </g>
     </g>
    </g>
    <g id="xtick_7">
     <g id="line2d_17">
      <g>
       <use style="fill:#262626;stroke:#262626;stroke-width:0.8;" x="144.963432" xlink:href="#m2e65760353" y="85.6"/>
      </g>
     </g>
     <g id="text_15">
      <!-- 24 -->
      <g style="fill:#262626;" transform="translate(140.514682 97.3975)scale(0.08 -0.08)">
       <use xlink:href="#LiberationSans-50"/>
       <use x="55.615234" xlink:href="#LiberationSans-52"/>
      </g>
     </g>
    </g>
    <g id="xtick_8">
     <g id="line2d_18">
      <g>
       <use style="fill:#262626;stroke:#262626;stroke-width:0.8;" x="159.084062" xlink:href="#m2e65760353" y="85.6"/>
      </g>
     </g>
     <g id="text_16">
      <!-- 48 -->
      <g style="fill:#262626;" transform="translate(154.635312 97.3975)scale(0.08 -0.08)">
       <use xlink:href="#LiberationSans-52"/>
       <use x="55.615234" xlink:href="#LiberationSans-56"/>
      </g>
     </g>
    </g>
    <g id="xtick_9">
     <g id="line2d_19">
      <g>
       <use style="fill:#262626;stroke:#262626;stroke-width:0.8;" x="173.204691" xlink:href="#m2e65760353" y="85.6"/>
      </g>
     </g>
     <g id="text_17">
      <!-- 72 -->
      <g style="fill:#262626;" transform="translate(168.755941 97.3975)scale(0.08 -0.08)">
       <use xlink:href="#LiberationSans-55"/>
       <use x="55.615234" xlink:href="#LiberationSans-50"/>
      </g>
     </g>
    </g>
    <g id="xtick_10">
     <g id="line2d_20">
      <g>
       <use style="fill:#262626;stroke:#262626;stroke-width:0.8;" x="187.325321" xlink:href="#m2e65760353" y="85.6"/>
      </g>
     </g>
     <g id="text_18">
      <!-- 96 -->
      <g style="fill:#262626;" transform="translate(182.876571 97.3975)scale(0.08 -0.08)">
       <use xlink:href="#LiberationSans-57"/>
       <use x="55.615234" xlink:href="#LiberationSans-54"/>
      </g>
     </g>
    </g>
    <g id="text_19">
     <!-- time (h) -->
     <g style="fill:#262626;" transform="translate(146.187422 109.579687)scale(0.09 -0.09)">
      <use xlink:href="#LiberationSans-116"/>
      <use x="27.783203" xlink:href="#LiberationSans-105"/>
      <use x="50" xlink:href="#LiberationSans-109"/>
      <use x="133.300781" xlink:href="#LiberationSans-101"/>
      <use x="188.916016" xlink:href="#LiberationSans-32"/>
      <use x="216.699219" xlink:href="#LiberationSans-40"/>
      <use x="250" xlink:href="#LiberationSans-104"/>
      <use x="305.615234" xlink:href="#LiberationSans-41"/>
     </g>
    </g>
   </g>
   <g id="matplotlib.axis_4">
    <g id="ytick_6">
     <g id="line2d_21">
      <g>
       <use style="fill:#262626;stroke:#262626;stroke-width:0.8;" x="127.783333" xlink:href="#me903d42f6e" y="85.6"/>
      </g>
     </g>
    </g>
    <g id="ytick_7">
     <g id="line2d_22">
      <g>
       <use style="fill:#262626;stroke:#262626;stroke-width:0.8;" x="127.783333" xlink:href="#me903d42f6e" y="71.772606"/>
      </g>
     </g>
    </g>
    <g id="ytick_8">
     <g id="line2d_23">
      <g>
       <use style="fill:#262626;stroke:#262626;stroke-width:0.8;" x="127.783333" xlink:href="#me903d42f6e" y="57.945212"/>
      </g>
     </g>
    </g>
    <g id="ytick_9">
     <g id="line2d_24">
      <g>
       <use style="fill:#262626;stroke:#262626;stroke-width:0.8;" x="127.783333" xlink:href="#me903d42f6e" y="44.117817"/>
      </g>
     </g>
    </g>
    <g id="ytick_10">
     <g id="line2d_25">
      <g>
       <use style="fill:#262626;stroke:#262626;stroke-width:0.8;" x="127.783333" xlink:href="#me903d42f6e" y="30.290423"/>
      </g>
     </g>
    </g>
   </g>
   <g id="line2d_26">
    <path clip-path="url(#p4920c7ea0c)" d="M 130.842803 57.945212 
L 131.460878 57.945212 
L 132.078952 57.945212 
L 132.697027 57.945212 
L 133.315102 57.945212 
L 133.933176 57.945212 
L 134.551251 57.945212 
L 135.169326 57.945212 
L 135.787401 57.945212 
L 136.405475 57.945212 
L 137.02355 57.945212 
L 137.641625 57.945212 
L 138.259699 57.945212 
L 138.877774 57.945212 
L 139.495849 57.945212 
L 140.113923 57.945212 
L 140.731998 57.945212 
L 141.350073 57.945212 
L 141.968147 57.945211 
L 142.586222 57.945208 
L 143.204297 57.945197 
L 143.822371 57.945157 
L 144.440446 57.945023 
L 145.058521 57.944623 
L 145.676596 57.943544 
L 146.29467 57.940877 
L 146.912745 57.934799 
L 147.53082 57.921953 
L 148.148894 57.896636 
L 148.766969 57.849876 
L 149.385044 57.768581 
L 150.003118 57.635005 
L 150.621193 57.426832 
L 151.239268 57.118101 
L 151.857342 56.681094 
L 152.475417 56.089082 
L 153.093492 55.319615 
L 153.711566 54.357877 
L 154.329641 53.19951 
L 154.947716 51.852417 
L 155.56579 50.33715 
L 156.183865 48.685799 
L 156.80194 46.93951 
L 157.420015 45.145032 
L 158.038089 43.350782 
L 158.656164 41.602998 
L 159.274239 39.942437 
L 159.892313 38.401965 
L 160.510388 37.005199 
L 161.128463 35.766182 
L 161.746537 34.689959 
L 162.364612 33.773819 
L 162.982687 33.008929 
L 163.600761 32.382116 
L 164.218836 31.877592 
L 164.836911 31.478458 
L 165.454985 31.167914 
L 166.07306 30.930148 
L 166.691135 30.750903 
L 167.30921 30.617783 
L 167.927284 30.520339 
L 168.545359 30.449999 
L 169.163434 30.399907 
L 169.781508 30.364697 
L 170.399583 30.34026 
L 171.017658 30.323507 
L 171.635732 30.312157 
L 172.253807 30.304557 
L 172.871882 30.299523 
L 173.489956 30.296226 
L 174.108031 30.294089 
L 174.726106 30.292717 
L 175.34418 30.291846 
L 175.962255 30.291298 
L 176.58033 30.290957 
L 177.198404 30.290746 
L 177.816479 30.290617 
L 178.434554 30.290538 
L 179.052629 30.290491 
L 179.670703 30.290463 
L 180.288778 30.290446 
L 180.906853 30.290437 
L 181.524927 30.290431 
L 182.143002 30.290428 
L 182.761077 30.290426 
L 183.379151 30.290425 
L 183.997226 30.290424 
L 184.615301 30.290424 
L 185.233375 30.290424 
L 185.85145 30.290423 
L 186.469525 30.290423 
L 187.087599 30.290423 
L 187.705674 30.290423 
L 188.323749 30.290423 
L 188.941824 30.290423 
L 189.559898 30.290423 
L 190.177973 30.290423 
L 190.796048 30.290423 
L 191.414122 30.290423 
L 192.032197 30.290423 
" style="fill:none;stroke:#800080;stroke-linecap:round;stroke-width:2;"/>
   </g>
   <g id="patch_8">
    <path d="M 127.783333 85.6 
L 127.783333 23.8 
" style="fill:none;stroke:#262626;stroke-linecap:square;stroke-linejoin:miter;"/>
   </g>
   <g id="patch_9">
    <path d="M 195.091667 85.6 
L 195.091667 23.8 
" style="fill:none;stroke:#262626;stroke-linecap:square;stroke-linejoin:miter;"/>
   </g>
   <g id="patch_10">
    <path d="M 127.783333 85.6 
L 195.091667 85.6 
" style="fill:none;stroke:#262626;stroke-linecap:square;stroke-linejoin:miter;"/>
   </g>
   <g id="patch_11">
    <path d="M 127.783333 23.8 
L 195.091667 23.8 
" style="fill:none;stroke:#262626;stroke-linecap:square;stroke-linejoin:miter;"/>
   </g>
   <g id="line2d_27">
    <path clip-path="url(#p4920c7ea0c)" d="M 130.842803 57.945212 
L 131.460878 57.945212 
L 132.078952 57.945212 
L 132.697027 57.945212 
L 133.315102 57.945212 
L 133.933176 57.945212 
L 134.551251 57.945212 
L 135.169326 57.945212 
L 135.787401 57.945212 
L 136.405475 57.945212 
L 137.02355 57.945212 
L 137.641625 57.945212 
L 138.259699 57.945212 
L 138.877774 57.945212 
L 139.495849 57.945212 
L 140.113923 57.945212 
L 140.731998 57.945212 
L 141.350073 57.945212 
L 141.968147 57.945212 
L 142.586222 57.945211 
L 143.204297 57.945207 
L 143.822371 57.945193 
L 144.440446 57.945139 
L 145.058521 57.944963 
L 145.676596 57.944438 
L 146.29467 57.943022 
L 146.912745 57.939528 
L 147.53082 57.931585 
L 148.148894 57.914852 
L 148.766969 57.882019 
L 149.385044 57.821708 
L 150.003118 57.717551 
L 150.621193 57.547767 
L 151.239268 57.285599 
L 151.857342 56.900877 
L 152.475417 56.362741 
L 153.093492 55.643303 
L 153.711566 54.721723 
L 154.329641 53.587994 
L 154.947716 52.245722 
L 155.56579 50.713314 
L 156.183865 49.023276 
L 156.80194 47.219697 
L 157.420015 45.354318 
L 158.038089 43.481815 
L 158.656164 41.655027 
L 159.274239 39.920775 
L 159.892313 38.316761 
L 160.510388 36.869805 
L 161.128463 35.595408 
L 161.746537 34.498478 
L 162.364612 33.574894 
L 162.982687 32.813569 
L 163.600761 32.198655 
L 164.218836 31.71164 
L 164.836911 31.333139 
L 165.454985 31.044279 
L 166.07306 30.827666 
L 166.691135 30.667958 
L 167.30921 30.552117 
L 167.927284 30.469411 
L 168.545359 30.411257 
L 169.163434 30.370967 
L 169.781508 30.343449 
L 170.399583 30.324913 
L 171.017658 30.312594 
L 171.635732 30.304512 
L 172.253807 30.299277 
L 172.871882 30.295926 
L 173.489956 30.293807 
L 174.108031 30.292483 
L 174.726106 30.291664 
L 175.34418 30.291164 
L 175.962255 30.290861 
L 176.58033 30.290679 
L 177.198404 30.290572 
L 177.816479 30.290509 
L 178.434554 30.290472 
L 179.052629 30.290451 
L 179.670703 30.290439 
L 180.288778 30.290432 
L 180.906853 30.290428 
L 181.524927 30.290426 
L 182.143002 30.290425 
L 182.761077 30.290424 
L 183.379151 30.290424 
L 183.997226 30.290424 
L 184.615301 30.290423 
L 185.233375 30.290423 
L 185.85145 30.290423 
L 186.469525 30.290423 
L 187.087599 30.290423 
L 187.705674 30.290423 
L 188.323749 30.290423 
L 188.941824 30.290423 
L 189.559898 30.290423 
L 190.177973 30.290423 
L 190.796048 30.290423 
L 191.414122 30.290423 
L 192.032197 30.290423 
" style="fill:none;stroke:#1f77b4;stroke-linecap:round;stroke-width:2;"/>
   </g>
   <g id="text_20">
    <!-- Vsir -->
    <g style="fill:#262626;" transform="translate(153.687656 17.8)scale(0.09 -0.09)">
     <defs>
      <path d="M 33.0625 0 
L 23.390625 0 
L 8.640625 68.796875 
L 18.109375 68.796875 
L 27.78125 20.359375 
Q 28.125 18.171875 28.421875 15.984375 
Q 28.71875 13.8125 28.953125 12.109375 
Q 29.25 10.109375 29.5 8.203125 
Q 30.421875 10.015625 31.5 12.015625 
Q 32.421875 13.71875 33.5625 15.890625 
Q 34.71875 18.0625 35.984375 20.359375 
L 64.3125 68.796875 
L 74.46875 68.796875 
z
" id="LiberationSans-Italic-86"/>
      <path d="M 14.015625 64.0625 
L 15.671875 72.46875 
L 24.46875 72.46875 
L 22.796875 64.0625 
z
M 1.609375 0 
L 11.859375 52.828125 
L 20.65625 52.828125 
L 10.359375 0 
z
" id="LiberationSans-Italic-105"/>
     </defs>
     <use xlink:href="#LiberationSans-Italic-86"/>
     <use x="66.699219" xlink:href="#LiberationSans-Italic-115"/>
     <use x="116.699219" xlink:href="#LiberationSans-Italic-105"/>
     <use x="138.916016" xlink:href="#LiberationSans-Italic-114"/>
    </g>
   </g>
   <g id="line2d_28">
    <path clip-path="url(#p4920c7ea0c)" d="M 130.842803 57.945212 
L 131.460878 57.361911 
L 132.078952 56.790914 
L 132.697027 56.23196 
L 133.315102 55.684796 
L 133.933176 55.149173 
L 134.551251 54.624847 
L 135.169326 54.111581 
L 135.787401 53.60914 
L 136.405475 53.117297 
L 137.02355 52.635828 
L 137.641625 52.164514 
L 138.259699 51.703141 
L 138.877774 51.2515 
L 139.495849 50.809385 
L 140.113923 50.376595 
L 140.731998 49.952933 
L 141.350073 49.538207 
L 141.968147 49.132229 
L 142.586222 48.734814 
L 143.204297 48.345781 
L 143.822371 47.964954 
L 144.440446 47.592159 
L 145.058521 47.227228 
L 145.676596 46.869993 
L 146.29467 46.520293 
L 146.912745 46.17797 
L 147.53082 45.842866 
L 148.148894 45.514831 
L 148.766969 45.193715 
L 149.385044 44.879372 
L 150.003118 44.571659 
L 150.621193 44.270436 
L 151.239268 43.975567 
L 151.857342 43.686917 
L 152.475417 43.404355 
L 153.093492 43.127754 
L 153.711566 42.856986 
L 154.329641 42.59193 
L 154.947716 42.332464 
L 155.56579 42.078471 
L 156.183865 41.829835 
L 156.80194 41.586443 
L 157.420015 41.348185 
L 158.038089 41.114953 
L 158.656164 40.886639 
L 159.274239 40.663142 
L 159.892313 40.444358 
L 160.510388 40.23019 
L 161.128463 40.020538 
L 161.746537 39.815308 
L 162.364612 39.614408 
L 162.982687 39.417744 
L 163.600761 39.225229 
L 164.218836 39.036774 
L 164.836911 38.852294 
L 165.454985 38.671706 
L 166.07306 38.494926 
L 166.691135 38.321875 
L 167.30921 38.152474 
L 167.927284 37.986646 
L 168.545359 37.824316 
L 169.163434 37.665409 
L 169.781508 37.509855 
L 170.399583 37.357581 
L 171.017658 37.208519 
L 171.635732 37.062601 
L 172.253807 36.919761 
L 172.871882 36.779934 
L 173.489956 36.643056 
L 174.108031 36.509065 
L 174.726106 36.3779 
L 175.34418 36.249502 
L 175.962255 36.123811 
L 176.58033 36.000772 
L 177.198404 35.880329 
L 177.816479 35.762425 
L 178.434554 35.647009 
L 179.052629 35.534026 
L 179.670703 35.423427 
L 180.288778 35.315161 
L 180.906853 35.209178 
L 181.524927 35.105431 
L 182.143002 35.003872 
L 182.761077 34.904455 
L 183.379151 34.807135 
L 183.997226 34.711867 
L 184.615301 34.618609 
L 185.233375 34.527318 
L 185.85145 34.437953 
L 186.469525 34.350472 
L 187.087599 34.264837 
L 187.705674 34.181008 
L 188.323749 34.098947 
L 188.941824 34.018617 
L 189.559898 33.939981 
L 190.177973 33.863004 
L 190.796048 33.78765 
L 191.414122 33.713886 
L 192.032197 33.641677 
" style="fill:none;stroke:#2ca02c;stroke-linecap:round;stroke-width:2;"/>
   </g>
   <g id="PathCollection_2">
    <g clip-path="url(#p4920c7ea0c)">
     <use style="stroke:#ffffff;stroke-width:0.252982;" x="130.842803" xlink:href="#m1e9359b5d9" y="57.945212"/>
     <use style="stroke:#ffffff;stroke-width:0.252982;" x="130.842803" xlink:href="#m1e9359b5d9" y="57.945212"/>
     <use style="stroke:#ffffff;stroke-width:0.252982;" x="141.433275" xlink:href="#m1e9359b5d9" y="75.599301"/>
     <use style="stroke:#ffffff;stroke-width:0.252982;" x="141.433275" xlink:href="#m1e9359b5d9" y="75.599301"/>
     <use style="stroke:#ffffff;stroke-width:0.252982;" x="144.963432" xlink:href="#m1e9359b5d9" y="58.960541"/>
     <use style="stroke:#ffffff;stroke-width:0.252982;" x="144.963432" xlink:href="#m1e9359b5d9" y="58.960541"/>
     <use style="stroke:#ffffff;stroke-width:0.252982;" x="159.084062" xlink:href="#m1e9359b5d9" y="40.442068"/>
     <use style="stroke:#ffffff;stroke-width:0.252982;" x="159.084062" xlink:href="#m1e9359b5d9" y="40.442068"/>
     <use style="stroke:#ffffff;stroke-width:0.252982;" x="134.37296" xlink:href="#m1e9359b5d9" y="75.679074"/>
     <use style="stroke:#ffffff;stroke-width:0.252982;" x="134.37296" xlink:href="#m1e9359b5d9" y="75.679074"/>
     <use style="stroke:#ffffff;stroke-width:0.252982;" x="180.265006" xlink:href="#m1e9359b5d9" y="30.290423"/>
    </g>
   </g>
   <g id="LineCollection_2">
    <path clip-path="url(#p4920c7ea0c)" d="M 130.842803 58.12208 
L 130.842803 57.768343 
" style="fill:none;stroke:#000000;"/>
    <path clip-path="url(#p4920c7ea0c)" d="M 130.842803 58.12208 
L 130.842803 57.768343 
" style="fill:none;stroke:#000000;"/>
    <path clip-path="url(#p4920c7ea0c)" d="M 141.433275 77.671529 
L 141.433275 73.527074 
" style="fill:none;stroke:#000000;"/>
    <path clip-path="url(#p4920c7ea0c)" d="M 141.433275 77.671529 
L 141.433275 73.527074 
" style="fill:none;stroke:#000000;"/>
    <path clip-path="url(#p4920c7ea0c)" d="M 144.963432 63.69037 
L 144.963432 54.230712 
" style="fill:none;stroke:#000000;"/>
    <path clip-path="url(#p4920c7ea0c)" d="M 144.963432 63.69037 
L 144.963432 54.230712 
" style="fill:none;stroke:#000000;"/>
    <path clip-path="url(#p4920c7ea0c)" d="M 159.084062 40.687046 
L 159.084062 40.197089 
" style="fill:none;stroke:#000000;"/>
    <path clip-path="url(#p4920c7ea0c)" d="M 159.084062 40.687046 
L 159.084062 40.197089 
" style="fill:none;stroke:#000000;"/>
    <path clip-path="url(#p4920c7ea0c)" d="M 134.37296 79.216472 
L 134.37296 72.141676 
" style="fill:none;stroke:#000000;"/>
    <path clip-path="url(#p4920c7ea0c)" d="M 134.37296 79.216472 
L 134.37296 72.141676 
" style="fill:none;stroke:#000000;"/>
    <path clip-path="url(#p4920c7ea0c)" d="M 180.265006 34.141967 
L 180.265006 26.43888 
" style="fill:none;stroke:#000000;"/>
   </g>
   <g id="line2d_29">
    <g clip-path="url(#p4920c7ea0c)">
     <use style="stroke:#000000;" x="130.842803" xlink:href="#m27fb48db79" y="58.12208"/>
     <use style="stroke:#000000;" x="130.842803" xlink:href="#m27fb48db79" y="58.12208"/>
     <use style="stroke:#000000;" x="141.433275" xlink:href="#m27fb48db79" y="77.671529"/>
     <use style="stroke:#000000;" x="141.433275" xlink:href="#m27fb48db79" y="77.671529"/>
     <use style="stroke:#000000;" x="144.963432" xlink:href="#m27fb48db79" y="63.69037"/>
     <use style="stroke:#000000;" x="144.963432" xlink:href="#m27fb48db79" y="63.69037"/>
     <use style="stroke:#000000;" x="159.084062" xlink:href="#m27fb48db79" y="40.687046"/>
     <use style="stroke:#000000;" x="159.084062" xlink:href="#m27fb48db79" y="40.687046"/>
     <use style="stroke:#000000;" x="134.37296" xlink:href="#m27fb48db79" y="79.216472"/>
     <use style="stroke:#000000;" x="134.37296" xlink:href="#m27fb48db79" y="79.216472"/>
     <use style="stroke:#000000;" x="180.265006" xlink:href="#m27fb48db79" y="34.141967"/>
    </g>
   </g>
   <g id="line2d_30">
    <g clip-path="url(#p4920c7ea0c)">
     <use style="stroke:#000000;" x="130.842803" xlink:href="#m27fb48db79" y="57.768343"/>
     <use style="stroke:#000000;" x="130.842803" xlink:href="#m27fb48db79" y="57.768343"/>
     <use style="stroke:#000000;" x="141.433275" xlink:href="#m27fb48db79" y="73.527074"/>
     <use style="stroke:#000000;" x="141.433275" xlink:href="#m27fb48db79" y="73.527074"/>
     <use style="stroke:#000000;" x="144.963432" xlink:href="#m27fb48db79" y="54.230712"/>
     <use style="stroke:#000000;" x="144.963432" xlink:href="#m27fb48db79" y="54.230712"/>
     <use style="stroke:#000000;" x="159.084062" xlink:href="#m27fb48db79" y="40.197089"/>
     <use style="stroke:#000000;" x="159.084062" xlink:href="#m27fb48db79" y="40.197089"/>
     <use style="stroke:#000000;" x="134.37296" xlink:href="#m27fb48db79" y="72.141676"/>
     <use style="stroke:#000000;" x="134.37296" xlink:href="#m27fb48db79" y="72.141676"/>
     <use style="stroke:#000000;" x="180.265006" xlink:href="#m27fb48db79" y="26.43888"/>
    </g>
   </g>
  </g>
  <g id="axes_3">
   <g id="patch_12">
    <path d="M 209.891667 85.6 
L 277.2 85.6 
L 277.2 23.8 
L 209.891667 23.8 
z
" style="fill:#ffffff;"/>
   </g>
   <g id="matplotlib.axis_5">
    <g id="xtick_11">
     <g id="line2d_31">
      <g>
       <use style="fill:#262626;stroke:#262626;stroke-width:0.8;" x="212.951136" xlink:href="#m2e65760353" y="85.6"/>
      </g>
     </g>
     <g id="text_21">
      <!-- 0 -->
      <g style="fill:#262626;" transform="translate(210.726761 97.3975)scale(0.08 -0.08)">
       <use xlink:href="#LiberationSans-48"/>
      </g>
     </g>
    </g>
    <g id="xtick_12">
     <g id="line2d_32">
      <g>
       <use style="fill:#262626;stroke:#262626;stroke-width:0.8;" x="227.071766" xlink:href="#m2e65760353" y="85.6"/>
      </g>
     </g>
     <g id="text_22">
      <!-- 24 -->
      <g style="fill:#262626;" transform="translate(222.623016 97.3975)scale(0.08 -0.08)">
       <use xlink:href="#LiberationSans-50"/>
       <use x="55.615234" xlink:href="#LiberationSans-52"/>
      </g>
     </g>
    </g>
    <g id="xtick_13">
     <g id="line2d_33">
      <g>
       <use style="fill:#262626;stroke:#262626;stroke-width:0.8;" x="241.192395" xlink:href="#m2e65760353" y="85.6"/>
      </g>
     </g>
     <g id="text_23">
      <!-- 48 -->
      <g style="fill:#262626;" transform="translate(236.743645 97.3975)scale(0.08 -0.08)">
       <use xlink:href="#LiberationSans-52"/>
       <use x="55.615234" xlink:href="#LiberationSans-56"/>
      </g>
     </g>
    </g>
    <g id="xtick_14">
     <g id="line2d_34">
      <g>
       <use style="fill:#262626;stroke:#262626;stroke-width:0.8;" x="255.313024" xlink:href="#m2e65760353" y="85.6"/>
      </g>
     </g>
     <g id="text_24">
      <!-- 72 -->
      <g style="fill:#262626;" transform="translate(250.864274 97.3975)scale(0.08 -0.08)">
       <use xlink:href="#LiberationSans-55"/>
       <use x="55.615234" xlink:href="#LiberationSans-50"/>
      </g>
     </g>
    </g>
    <g id="xtick_15">
     <g id="line2d_35">
      <g>
       <use style="fill:#262626;stroke:#262626;stroke-width:0.8;" x="269.433654" xlink:href="#m2e65760353" y="85.6"/>
      </g>
     </g>
     <g id="text_25">
      <!-- 96 -->
      <g style="fill:#262626;" transform="translate(264.984904 97.3975)scale(0.08 -0.08)">
       <use xlink:href="#LiberationSans-57"/>
       <use x="55.615234" xlink:href="#LiberationSans-54"/>
      </g>
     </g>
    </g>
    <g id="text_26">
     <!-- time (h) -->
     <g style="fill:#262626;" transform="translate(228.295755 109.579687)scale(0.09 -0.09)">
      <use xlink:href="#LiberationSans-116"/>
      <use x="27.783203" xlink:href="#LiberationSans-105"/>
      <use x="50" xlink:href="#LiberationSans-109"/>
      <use x="133.300781" xlink:href="#LiberationSans-101"/>
      <use x="188.916016" xlink:href="#LiberationSans-32"/>
      <use x="216.699219" xlink:href="#LiberationSans-40"/>
      <use x="250" xlink:href="#LiberationSans-104"/>
      <use x="305.615234" xlink:href="#LiberationSans-41"/>
     </g>
    </g>
   </g>
   <g id="matplotlib.axis_6">
    <g id="ytick_11">
     <g id="line2d_36">
      <g>
       <use style="fill:#262626;stroke:#262626;stroke-width:0.8;" x="209.891667" xlink:href="#me903d42f6e" y="85.6"/>
      </g>
     </g>
    </g>
    <g id="ytick_12">
     <g id="line2d_37">
      <g>
       <use style="fill:#262626;stroke:#262626;stroke-width:0.8;" x="209.891667" xlink:href="#me903d42f6e" y="72.444863"/>
      </g>
     </g>
    </g>
    <g id="ytick_13">
     <g id="line2d_38">
      <g>
       <use style="fill:#262626;stroke:#262626;stroke-width:0.8;" x="209.891667" xlink:href="#me903d42f6e" y="59.289725"/>
      </g>
     </g>
    </g>
    <g id="ytick_14">
     <g id="line2d_39">
      <g>
       <use style="fill:#262626;stroke:#262626;stroke-width:0.8;" x="209.891667" xlink:href="#me903d42f6e" y="46.134588"/>
      </g>
     </g>
    </g>
    <g id="ytick_15">
     <g id="line2d_40">
      <g>
       <use style="fill:#262626;stroke:#262626;stroke-width:0.8;" x="209.891667" xlink:href="#me903d42f6e" y="32.979451"/>
      </g>
     </g>
    </g>
   </g>
   <g id="line2d_41">
    <path clip-path="url(#pfe8c05a4e9)" d="M 212.951136 59.289725 
L 213.569211 59.289725 
L 214.187286 59.289725 
L 214.80536 59.289725 
L 215.423435 59.289725 
L 216.04151 59.289725 
L 216.659584 59.289725 
L 217.277659 59.289725 
L 217.895734 59.289725 
L 218.513809 59.289725 
L 219.131883 59.289725 
L 219.749958 59.289725 
L 220.368033 59.289725 
L 220.986107 59.289725 
L 221.604182 59.289725 
L 222.222257 59.289725 
L 222.840331 59.289725 
L 223.458406 59.289725 
L 224.076481 59.289725 
L 224.694555 59.289725 
L 225.31263 59.289725 
L 225.930705 59.289725 
L 226.548779 59.289725 
L 227.166854 59.289725 
L 227.784929 59.289725 
L 228.403004 59.289725 
L 229.021078 59.289725 
L 229.639153 59.289725 
L 230.257228 59.289725 
L 230.875302 59.289725 
L 231.493377 59.289725 
L 232.111452 59.289725 
L 232.729526 59.289725 
L 233.347601 59.289725 
L 233.965676 59.289725 
L 234.58375 59.289725 
L 235.201825 59.289725 
L 235.8199 59.289725 
L 236.437974 59.289725 
L 237.056049 59.289724 
L 237.674124 59.289719 
L 238.292199 59.289704 
L 238.910273 59.289658 
L 239.528348 59.289526 
L 240.146423 59.289173 
L 240.764497 59.288296 
L 241.382572 59.286246 
L 242.000647 59.281741 
L 242.618721 59.272406 
L 243.236796 59.254124 
L 243.854871 59.220202 
L 244.472945 59.160446 
L 245.09102 59.060306 
L 245.709095 58.900351 
L 246.327169 58.656392 
L 246.945244 58.300504 
L 247.563319 57.803134 
L 248.181393 57.136208 
L 248.799468 56.276929 
L 249.417543 55.211698 
L 250.035618 53.939456 
L 250.653692 52.473743 
L 251.271767 50.842978 
L 251.889842 49.088762 
L 252.507916 47.262403 
L 253.125991 45.420178 
L 253.744066 43.618104 
L 254.36214 41.90699 
L 254.980215 40.328487 
L 255.59829 38.912567 
L 256.216364 37.676586 
L 256.834439 36.625837 
L 257.452514 35.755224 
L 258.070588 35.051671 
L 258.688663 34.496775 
L 259.306738 34.069355 
L 259.924813 33.747621 
L 260.542887 33.510809 
L 261.160962 33.34027 
L 261.779037 33.220043 
L 262.397111 33.137025 
L 263.015186 33.080848 
L 263.633261 33.043576 
L 264.251335 33.019319 
L 264.86941 33.003827 
L 265.487485 32.994111 
L 266.105559 32.988127 
L 266.723634 32.984504 
L 267.341709 32.982349 
L 267.959783 32.981088 
L 268.577858 32.980361 
L 269.195933 32.97995 
L 269.814007 32.979721 
L 270.432082 32.979595 
L 271.050157 32.979526 
L 271.668232 32.97949 
L 272.286306 32.979471 
L 272.904381 32.979461 
L 273.522456 32.979456 
L 274.14053 32.979453 
" style="fill:none;stroke:#800080;stroke-linecap:round;stroke-width:2;"/>
   </g>
   <g id="patch_13">
    <path d="M 209.891667 85.6 
L 209.891667 23.8 
" style="fill:none;stroke:#262626;stroke-linecap:square;stroke-linejoin:miter;"/>
   </g>
   <g id="patch_14">
    <path d="M 277.2 85.6 
L 277.2 23.8 
" style="fill:none;stroke:#262626;stroke-linecap:square;stroke-linejoin:miter;"/>
   </g>
   <g id="patch_15">
    <path d="M 209.891667 85.6 
L 277.2 85.6 
" style="fill:none;stroke:#262626;stroke-linecap:square;stroke-linejoin:miter;"/>
   </g>
   <g id="patch_16">
    <path d="M 209.891667 23.8 
L 277.2 23.8 
" style="fill:none;stroke:#262626;stroke-linecap:square;stroke-linejoin:miter;"/>
   </g>
   <g id="line2d_42">
    <path clip-path="url(#pfe8c05a4e9)" d="M 212.951136 59.289725 
L 213.569211 59.289725 
L 214.187286 59.289725 
L 214.80536 59.289725 
L 215.423435 59.289725 
L 216.04151 59.289725 
L 216.659584 59.289725 
L 217.277659 59.289725 
L 217.895734 59.289725 
L 218.513809 59.289725 
L 219.131883 59.289725 
L 219.749958 59.289725 
L 220.368033 59.289725 
L 220.986107 59.289725 
L 221.604182 59.289725 
L 222.222257 59.289725 
L 222.840331 59.289725 
L 223.458406 59.289725 
L 224.076481 59.289725 
L 224.694555 59.289725 
L 225.31263 59.289725 
L 225.930705 59.289725 
L 226.548779 59.289725 
L 227.166854 59.289725 
L 227.784929 59.289725 
L 228.403004 59.289725 
L 229.021078 59.289725 
L 229.639153 59.289725 
L 230.257228 59.289725 
L 230.875302 59.289725 
L 231.493377 59.289725 
L 232.111452 59.289725 
L 232.729526 59.289725 
L 233.347601 59.289725 
L 233.965676 59.289725 
L 234.58375 59.289725 
L 235.201825 59.289725 
L 235.8199 59.289725 
L 236.437974 59.289725 
L 237.056049 59.289725 
L 237.674124 59.289725 
L 238.292199 59.289725 
L 238.910273 59.289725 
L 239.528348 59.289725 
L 240.146423 59.289725 
L 240.764497 59.289725 
L 241.382572 59.289725 
L 242.000647 59.289725 
L 242.618721 59.289725 
L 243.236796 59.28972 
L 243.854871 59.289696 
L 244.472945 59.289585 
L 245.09102 59.289126 
L 245.709095 59.287455 
L 246.327169 59.282048 
L 246.945244 59.26642 
L 247.563319 59.225928 
L 248.181393 59.131509 
L 248.799468 58.932643 
L 249.417543 58.553007 
L 250.035618 57.893976 
L 250.653692 56.85038 
L 251.271767 55.338431 
L 251.889842 53.328655 
L 252.507916 50.87092 
L 253.125991 48.098771 
L 253.744066 45.207706 
L 254.36214 42.413376 
L 254.980215 39.90467 
L 255.59829 37.80812 
L 256.216364 36.173806 
L 256.834439 34.983127 
L 257.452514 34.170856 
L 258.070588 33.651052 
L 258.688663 33.338471 
L 259.306738 33.161544 
L 259.924813 33.067132 
L 260.542887 33.019563 
L 261.160962 32.996898 
L 261.779037 32.986673 
L 262.397111 32.982298 
L 263.015186 32.980521 
L 263.633261 32.979834 
L 264.251335 32.979582 
L 264.86941 32.979494 
L 265.487485 32.979464 
L 266.105559 32.979455 
L 266.723634 32.979452 
L 267.341709 32.979451 
L 267.959783 32.979451 
L 268.577858 32.979451 
L 269.195933 32.979451 
L 269.814007 32.979451 
L 270.432082 32.979451 
L 271.050157 32.979451 
L 271.668232 32.979451 
L 272.286306 32.979451 
L 272.904381 32.979451 
L 273.522456 32.979451 
L 274.14053 32.979451 
" style="fill:none;stroke:#1f77b4;stroke-linecap:round;stroke-width:2;"/>
   </g>
   <g id="text_27">
    <!-- Tcf12 -->
    <g style="fill:#262626;" transform="translate(232.702943 17.8)scale(0.09 -0.09)">
     <defs>
      <path d="M 41.890625 61.1875 
L 29.984375 0 
L 20.703125 0 
L 32.625 61.1875 
L 8.984375 61.1875 
L 10.453125 68.796875 
L 67 68.796875 
L 65.53125 61.1875 
z
" id="LiberationSans-Italic-84"/>
      <path d="M 22.90625 5.953125 
Q 25.640625 5.953125 27.828125 6.75 
Q 30.03125 7.5625 31.734375 9.03125 
Q 33.453125 10.5 34.765625 12.578125 
Q 36.078125 14.65625 37.015625 17.1875 
L 44.625 14.796875 
Q 43.265625 11.140625 41.28125 8.234375 
Q 39.3125 5.328125 36.59375 3.265625 
Q 33.890625 1.21875 30.421875 0.109375 
Q 26.953125 -0.984375 22.703125 -0.984375 
Q 17.671875 -0.984375 13.984375 0.53125 
Q 10.296875 2.046875 7.921875 4.75 
Q 5.5625 7.46875 4.40625 11.171875 
Q 3.265625 14.890625 3.265625 19.28125 
Q 3.265625 21.234375 3.4375 23.53125 
Q 3.609375 25.828125 4.046875 28.03125 
Q 5.125 33.453125 6.8125 37.453125 
Q 8.5 41.453125 10.5625 44.3125 
Q 12.640625 47.171875 15.0625 49.015625 
Q 17.484375 50.875 20.046875 51.921875 
Q 22.609375 52.984375 25.265625 53.390625 
Q 27.9375 53.8125 30.515625 53.8125 
Q 34.859375 53.8125 38.15625 52.6875 
Q 41.453125 51.5625 43.75 49.515625 
Q 46.046875 47.46875 47.34375 44.609375 
Q 48.640625 41.75 48.875 38.28125 
L 40.234375 37.0625 
Q 40.09375 39.265625 39.40625 41.0625 
Q 38.71875 42.875 37.46875 44.15625 
Q 36.234375 45.453125 34.421875 46.1875 
Q 32.625 46.921875 30.21875 46.921875 
Q 26.859375 46.921875 24.171875 45.9375 
Q 21.484375 44.96875 19.359375 42.765625 
Q 17.234375 40.578125 15.71875 37.03125 
Q 14.203125 33.5 13.1875 28.375 
Q 12.75 26.03125 12.5 23.4375 
Q 12.25 20.84375 12.25 19 
Q 12.25 12.796875 14.765625 9.375 
Q 17.28125 5.953125 22.90625 5.953125 
z
" id="LiberationSans-Italic-99"/>
      <path d="M 21.1875 46.4375 
L 12.15625 0 
L 3.375 0 
L 12.40625 46.4375 
L 4.984375 46.4375 
L 6.25 52.828125 
L 13.671875 52.828125 
L 14.796875 58.796875 
Q 15.375 61.671875 16.296875 64.15625 
Q 17.234375 66.65625 18.96875 68.5 
Q 20.703125 70.359375 23.4375 71.40625 
Q 26.171875 72.46875 30.375 72.46875 
Q 31.9375 72.46875 33.5625 72.3125 
Q 35.203125 72.171875 36.421875 71.875 
L 35.15625 65.1875 
Q 34.71875 65.28125 34.15625 65.328125 
Q 33.59375 65.375 32.953125 65.453125 
Q 32.328125 65.53125 31.734375 65.546875 
Q 31.15625 65.578125 30.71875 65.578125 
Q 28.859375 65.578125 27.609375 65.03125 
Q 26.375 64.5 25.5625 63.46875 
Q 24.75 62.453125 24.265625 60.953125 
Q 23.78125 59.46875 23.390625 57.5625 
L 22.46875 52.828125 
L 32.765625 52.828125 
L 31.5 46.4375 
z
" id="LiberationSans-Italic-102"/>
      <path d="M -0.59375 0 
L 0.59375 6.203125 
Q 3.265625 10.75 6.578125 14.3125 
Q 9.90625 17.875 13.515625 20.78125 
Q 17.140625 23.6875 20.875 26.078125 
Q 24.609375 28.46875 28.09375 30.6875 
Q 31.59375 32.90625 34.640625 35.109375 
Q 37.703125 37.3125 39.984375 39.796875 
Q 42.28125 42.28125 43.59375 45.234375 
Q 44.921875 48.1875 44.921875 51.90625 
Q 44.921875 54.390625 44.09375 56.359375 
Q 43.265625 58.34375 41.765625 59.734375 
Q 40.28125 61.140625 38.203125 61.859375 
Q 36.140625 62.59375 33.640625 62.59375 
Q 28.328125 62.59375 24.359375 59.6875 
Q 20.40625 56.78125 18.609375 50.984375 
L 10.296875 52.78125 
Q 11.46875 56.5 13.46875 59.625 
Q 15.484375 62.75 18.40625 65.015625 
Q 21.34375 67.28125 25.265625 68.546875 
Q 29.203125 69.828125 34.1875 69.828125 
Q 38.53125 69.828125 42.1875 68.609375 
Q 45.84375 67.390625 48.5 65.109375 
Q 51.171875 62.84375 52.65625 59.6875 
Q 54.15625 56.546875 54.15625 52.640625 
Q 54.15625 48.484375 52.703125 44.96875 
Q 51.265625 41.453125 48.828125 38.453125 
Q 46.390625 35.453125 43.15625 32.8125 
Q 39.9375 30.171875 36.375 27.734375 
Q 32.8125 25.296875 29.09375 22.953125 
Q 25.390625 20.609375 21.96875 18.15625 
Q 18.5625 15.71875 15.671875 13.109375 
Q 12.796875 10.5 10.84375 7.46875 
L 46.34375 7.46875 
L 44.921875 0 
z
" id="LiberationSans-Italic-50"/>
     </defs>
     <use xlink:href="#LiberationSans-Italic-84"/>
     <use x="51.958984" xlink:href="#LiberationSans-Italic-99"/>
     <use x="101.958984" xlink:href="#LiberationSans-Italic-102"/>
     <use x="129.742188" xlink:href="#LiberationSans-Italic-49"/>
     <use x="185.357422" xlink:href="#LiberationSans-Italic-50"/>
    </g>
   </g>
   <g id="line2d_43">
    <path clip-path="url(#pfe8c05a4e9)" d="M 212.951136 59.289725 
L 213.569211 59.289725 
L 214.187286 59.289725 
L 214.80536 59.289725 
L 215.423435 59.289725 
L 216.04151 59.289725 
L 216.659584 59.289725 
L 217.277659 59.289725 
L 217.895734 59.289725 
L 218.513809 59.289725 
L 219.131883 59.289725 
L 219.749958 59.289725 
L 220.368033 59.289725 
L 220.986107 59.289725 
L 221.604182 59.289725 
L 222.222257 59.289725 
L 222.840331 59.289725 
L 223.458406 59.289725 
L 224.076481 59.289725 
L 224.694555 59.289725 
L 225.31263 59.289725 
L 225.930705 59.289725 
L 226.548779 59.289725 
L 227.166854 59.289725 
L 227.784929 59.289725 
L 228.403004 59.289725 
L 229.021078 59.289725 
L 229.639153 59.289725 
L 230.257228 59.289725 
L 230.875302 59.289725 
L 231.493377 59.289725 
L 232.111452 59.289725 
L 232.729526 59.289725 
L 233.347601 59.289725 
L 233.965676 59.289725 
L 234.58375 59.289725 
L 235.201825 59.289725 
L 235.8199 59.289725 
L 236.437974 59.289725 
L 237.056049 59.289725 
L 237.674124 59.289725 
L 238.292199 59.289725 
L 238.910273 59.289725 
L 239.528348 59.289725 
L 240.146423 59.289725 
L 240.764497 59.289725 
L 241.382572 59.289725 
L 242.000647 59.289725 
L 242.618721 59.289725 
L 243.236796 59.289725 
L 243.854871 59.289725 
L 244.472945 59.289725 
L 245.09102 59.289725 
L 245.709095 59.289725 
L 246.327169 59.289725 
L 246.945244 59.289725 
L 247.563319 59.289725 
L 248.181393 59.289725 
L 248.799468 59.289725 
L 249.417543 59.289725 
L 250.035618 59.289725 
L 250.653692 59.289725 
L 251.271767 59.289725 
L 251.889842 59.289725 
L 252.507916 59.289725 
L 253.125991 59.289725 
L 253.744066 59.289725 
L 254.36214 59.289725 
L 254.980215 59.289725 
L 255.59829 59.289725 
L 256.216364 59.289725 
L 256.834439 59.289725 
L 257.452514 59.289725 
L 258.070588 59.289725 
L 258.688663 59.289725 
L 259.306738 59.289725 
L 259.924813 59.289725 
L 260.542887 59.289725 
L 261.160962 59.289725 
L 261.779037 59.289725 
L 262.397111 59.289725 
L 263.015186 59.289725 
L 263.633261 59.289725 
L 264.251335 59.289725 
L 264.86941 59.289725 
L 265.487485 59.289725 
L 266.105559 59.289725 
L 266.723634 59.289725 
L 267.341709 59.289725 
L 267.959783 59.289725 
L 268.577858 59.289725 
L 269.195933 59.289725 
L 269.814007 59.289725 
L 270.432082 59.289725 
L 271.050157 59.289725 
L 271.668232 59.289725 
L 272.286306 59.289725 
L 272.904381 59.289725 
L 273.522456 59.289725 
L 274.14053 59.289725 
" style="fill:none;stroke:#2ca02c;stroke-linecap:round;stroke-width:2;"/>
   </g>
   <g id="PathCollection_3">
    <g clip-path="url(#pfe8c05a4e9)">
     <use style="stroke:#ffffff;stroke-width:0.252982;" x="212.951136" xlink:href="#m1e9359b5d9" y="59.289725"/>
     <use style="stroke:#ffffff;stroke-width:0.252982;" x="212.951136" xlink:href="#m1e9359b5d9" y="59.289725"/>
     <use style="stroke:#ffffff;stroke-width:0.252982;" x="223.541608" xlink:href="#m1e9359b5d9" y="77.683704"/>
     <use style="stroke:#ffffff;stroke-width:0.252982;" x="223.541608" xlink:href="#m1e9359b5d9" y="77.683704"/>
     <use style="stroke:#ffffff;stroke-width:0.252982;" x="227.071766" xlink:href="#m1e9359b5d9" y="70.003972"/>
     <use style="stroke:#ffffff;stroke-width:0.252982;" x="227.071766" xlink:href="#m1e9359b5d9" y="70.003972"/>
     <use style="stroke:#ffffff;stroke-width:0.252982;" x="241.192395" xlink:href="#m1e9359b5d9" y="60.959651"/>
     <use style="stroke:#ffffff;stroke-width:0.252982;" x="241.192395" xlink:href="#m1e9359b5d9" y="60.959651"/>
     <use style="stroke:#ffffff;stroke-width:0.252982;" x="216.481294" xlink:href="#m1e9359b5d9" y="62.255478"/>
     <use style="stroke:#ffffff;stroke-width:0.252982;" x="216.481294" xlink:href="#m1e9359b5d9" y="62.255478"/>
     <use style="stroke:#ffffff;stroke-width:0.252982;" x="262.373339" xlink:href="#m1e9359b5d9" y="32.979451"/>
    </g>
   </g>
   <g id="LineCollection_3">
    <path clip-path="url(#pfe8c05a4e9)" d="M 212.951136 64.856433 
L 212.951136 53.723018 
" style="fill:none;stroke:#000000;"/>
    <path clip-path="url(#pfe8c05a4e9)" d="M 212.951136 64.856433 
L 212.951136 53.723018 
" style="fill:none;stroke:#000000;"/>
    <path clip-path="url(#pfe8c05a4e9)" d="M 223.541608 78.914387 
L 223.541608 76.453021 
" style="fill:none;stroke:#000000;"/>
    <path clip-path="url(#pfe8c05a4e9)" d="M 223.541608 78.914387 
L 223.541608 76.453021 
" style="fill:none;stroke:#000000;"/>
    <path clip-path="url(#pfe8c05a4e9)" d="M 227.071766 78.823691 
L 227.071766 61.184252 
" style="fill:none;stroke:#000000;"/>
    <path clip-path="url(#pfe8c05a4e9)" d="M 227.071766 78.823691 
L 227.071766 61.184252 
" style="fill:none;stroke:#000000;"/>
    <path clip-path="url(#pfe8c05a4e9)" d="M 241.192395 63.944463 
L 241.192395 57.974839 
" style="fill:none;stroke:#000000;"/>
    <path clip-path="url(#pfe8c05a4e9)" d="M 241.192395 63.944463 
L 241.192395 57.974839 
" style="fill:none;stroke:#000000;"/>
    <path clip-path="url(#pfe8c05a4e9)" d="M 216.481294 64.719576 
L 216.481294 59.791381 
" style="fill:none;stroke:#000000;"/>
    <path clip-path="url(#pfe8c05a4e9)" d="M 216.481294 64.719576 
L 216.481294 59.791381 
" style="fill:none;stroke:#000000;"/>
    <path clip-path="url(#pfe8c05a4e9)" d="M 262.373339 39.534407 
L 262.373339 26.424495 
" style="fill:none;stroke:#000000;"/>
   </g>
   <g id="line2d_44">
    <g clip-path="url(#pfe8c05a4e9)">
     <use style="stroke:#000000;" x="212.951136" xlink:href="#m27fb48db79" y="64.856433"/>
     <use style="stroke:#000000;" x="212.951136" xlink:href="#m27fb48db79" y="64.856433"/>
     <use style="stroke:#000000;" x="223.541608" xlink:href="#m27fb48db79" y="78.914387"/>
     <use style="stroke:#000000;" x="223.541608" xlink:href="#m27fb48db79" y="78.914387"/>
     <use style="stroke:#000000;" x="227.071766" xlink:href="#m27fb48db79" y="78.823691"/>
     <use style="stroke:#000000;" x="227.071766" xlink:href="#m27fb48db79" y="78.823691"/>
     <use style="stroke:#000000;" x="241.192395" xlink:href="#m27fb48db79" y="63.944463"/>
     <use style="stroke:#000000;" x="241.192395" xlink:href="#m27fb48db79" y="63.944463"/>
     <use style="stroke:#000000;" x="216.481294" xlink:href="#m27fb48db79" y="64.719576"/>
     <use style="stroke:#000000;" x="216.481294" xlink:href="#m27fb48db79" y="64.719576"/>
     <use style="stroke:#000000;" x="262.373339" xlink:href="#m27fb48db79" y="39.534407"/>
    </g>
   </g>
   <g id="line2d_45">
    <g clip-path="url(#pfe8c05a4e9)">
     <use style="stroke:#000000;" x="212.951136" xlink:href="#m27fb48db79" y="53.723018"/>
     <use style="stroke:#000000;" x="212.951136" xlink:href="#m27fb48db79" y="53.723018"/>
     <use style="stroke:#000000;" x="223.541608" xlink:href="#m27fb48db79" y="76.453021"/>
     <use style="stroke:#000000;" x="223.541608" xlink:href="#m27fb48db79" y="76.453021"/>
     <use style="stroke:#000000;" x="227.071766" xlink:href="#m27fb48db79" y="61.184252"/>
     <use style="stroke:#000000;" x="227.071766" xlink:href="#m27fb48db79" y="61.184252"/>
     <use style="stroke:#000000;" x="241.192395" xlink:href="#m27fb48db79" y="57.974839"/>
     <use style="stroke:#000000;" x="241.192395" xlink:href="#m27fb48db79" y="57.974839"/>
     <use style="stroke:#000000;" x="216.481294" xlink:href="#m27fb48db79" y="59.791381"/>
     <use style="stroke:#000000;" x="216.481294" xlink:href="#m27fb48db79" y="59.791381"/>
     <use style="stroke:#000000;" x="262.373339" xlink:href="#m27fb48db79" y="26.424495"/>
    </g>
   </g>
  </g>
 </g>
 <defs>
  <clipPath id="p01b86f0dee">
   <rect height="61.8" width="67.308333" x="45.675" y="23.8"/>
  </clipPath>
  <clipPath id="p4920c7ea0c">
   <rect height="61.8" width="67.308333" x="127.783333" y="23.8"/>
  </clipPath>
  <clipPath id="pfe8c05a4e9">
   <rect height="61.8" width="67.308333" x="209.891667" y="23.8"/>
  </clipPath>
 </defs>
</svg>
