<?xml version="1.0" encoding="utf-8" standalone="no"?>
<!DOCTYPE svg PUBLIC "-//W3C//DTD SVG 1.1//EN"
  "http://www.w3.org/Graphics/SVG/1.1/DTD/svg11.dtd">
<svg xmlns:xlink="http://www.w3.org/1999/xlink" width="288pt" height="122.4pt" viewBox="0 0 288 122.4" xmlns="http://www.w3.org/2000/svg" version="1.1">
 <metadata>
  <rdf:RDF xmlns:dc="http://purl.org/dc/elements/1.1/" xmlns:cc="http://creativecommons.org/ns#" xmlns:rdf="http://www.w3.org/1999/02/22-rdf-syntax-ns#">
   <cc:Work>
    <dc:type rdf:resource="http://purl.org/dc/dcmitype/StillImage"/>
    <dc:date>2023-04-29T13:43:27.103615</dc:date>
    <dc:format>image/svg+xml</dc:format>
    <dc:creator>
     <cc:Agent>
      <dc:title>Matplotlib v3.5.1, https://matplotlib.org/</dc:title>
     </cc:Agent>
    </dc:creator>
   </cc:Work>
  </rdf:RDF>
 </metadata>
 <defs>
  <style type="text/css">*{stroke-linejoin: round; stroke-linecap: butt}</style>
 </defs>
 <g id="figure_1">
  <g id="patch_1">
   <path d="M 0 122.4 
L 288 122.4 
L 288 0 
L 0 0 
z
" style="fill: #ffffff"/>
  </g>
  <g id="axes_1">
   <g id="patch_2">
    <path d="M 45.19 85.47875 
L 112.66 85.47875 
L 112.66 23.64 
L 45.19 23.64 
z
" style="fill: #ffffff"/>
   </g>
   <g id="matplotlib.axis_1">
    <g id="xtick_1">
     <g id="line2d_1">
      <defs>
       <path id="m0160ddcd12" d="M 0 0 
L 0 4 
" style="stroke: #262626; stroke-width: 0.8"/>
      </defs>
      <g>
       <use xlink:href="#m0160ddcd12" x="48.256818" y="85.47875" style="fill: #262626; stroke: #262626; stroke-width: 0.8"/>
      </g>
     </g>
     <g id="text_1">
      <!-- 0 -->
      <g style="fill: #262626" transform="translate(46.032443 97.205)scale(0.08 -0.08)">
       <defs>
        <path id="ArialMT-30" d="M 266 2259 
Q 266 3072 433 3567 
Q 600 4063 929 4331 
Q 1259 4600 1759 4600 
Q 2128 4600 2406 4451 
Q 2684 4303 2865 4023 
Q 3047 3744 3150 3342 
Q 3253 2941 3253 2259 
Q 3253 1453 3087 958 
Q 2922 463 2592 192 
Q 2263 -78 1759 -78 
Q 1097 -78 719 397 
Q 266 969 266 2259 
z
M 844 2259 
Q 844 1131 1108 757 
Q 1372 384 1759 384 
Q 2147 384 2411 759 
Q 2675 1134 2675 2259 
Q 2675 3391 2411 3762 
Q 2147 4134 1753 4134 
Q 1366 4134 1134 3806 
Q 844 3388 844 2259 
z
" transform="scale(0.015625)"/>
       </defs>
       <use xlink:href="#ArialMT-30"/>
      </g>
     </g>
    </g>
    <g id="xtick_2">
     <g id="line2d_2">
      <g>
       <use xlink:href="#m0160ddcd12" x="62.411364" y="85.47875" style="fill: #262626; stroke: #262626; stroke-width: 0.8"/>
      </g>
     </g>
     <g id="text_2">
      <!-- 24 -->
      <g style="fill: #262626" transform="translate(57.962614 97.205)scale(0.08 -0.08)">
       <defs>
        <path id="ArialMT-32" d="M 3222 541 
L 3222 0 
L 194 0 
Q 188 203 259 391 
Q 375 700 629 1000 
Q 884 1300 1366 1694 
Q 2113 2306 2375 2664 
Q 2638 3022 2638 3341 
Q 2638 3675 2398 3904 
Q 2159 4134 1775 4134 
Q 1369 4134 1125 3890 
Q 881 3647 878 3216 
L 300 3275 
Q 359 3922 746 4261 
Q 1134 4600 1788 4600 
Q 2447 4600 2831 4234 
Q 3216 3869 3216 3328 
Q 3216 3053 3103 2787 
Q 2991 2522 2730 2228 
Q 2469 1934 1863 1422 
Q 1356 997 1212 845 
Q 1069 694 975 541 
L 3222 541 
z
" transform="scale(0.015625)"/>
        <path id="ArialMT-34" d="M 2069 0 
L 2069 1097 
L 81 1097 
L 81 1613 
L 2172 4581 
L 2631 4581 
L 2631 1613 
L 3250 1613 
L 3250 1097 
L 2631 1097 
L 2631 0 
L 2069 0 
z
M 2069 1613 
L 2069 3678 
L 634 1613 
L 2069 1613 
z
" transform="scale(0.015625)"/>
       </defs>
       <use xlink:href="#ArialMT-32"/>
       <use xlink:href="#ArialMT-34" x="55.615234"/>
      </g>
     </g>
    </g>
    <g id="xtick_3">
     <g id="line2d_3">
      <g>
       <use xlink:href="#m0160ddcd12" x="76.565909" y="85.47875" style="fill: #262626; stroke: #262626; stroke-width: 0.8"/>
      </g>
     </g>
     <g id="text_3">
      <!-- 48 -->
      <g style="fill: #262626" transform="translate(72.117159 97.205)scale(0.08 -0.08)">
       <defs>
        <path id="ArialMT-38" d="M 1131 2484 
Q 781 2613 612 2850 
Q 444 3088 444 3419 
Q 444 3919 803 4259 
Q 1163 4600 1759 4600 
Q 2359 4600 2725 4251 
Q 3091 3903 3091 3403 
Q 3091 3084 2923 2848 
Q 2756 2613 2416 2484 
Q 2838 2347 3058 2040 
Q 3278 1734 3278 1309 
Q 3278 722 2862 322 
Q 2447 -78 1769 -78 
Q 1091 -78 675 323 
Q 259 725 259 1325 
Q 259 1772 486 2073 
Q 713 2375 1131 2484 
z
M 1019 3438 
Q 1019 3113 1228 2906 
Q 1438 2700 1772 2700 
Q 2097 2700 2305 2904 
Q 2513 3109 2513 3406 
Q 2513 3716 2298 3927 
Q 2084 4138 1766 4138 
Q 1444 4138 1231 3931 
Q 1019 3725 1019 3438 
z
M 838 1322 
Q 838 1081 952 856 
Q 1066 631 1291 507 
Q 1516 384 1775 384 
Q 2178 384 2440 643 
Q 2703 903 2703 1303 
Q 2703 1709 2433 1975 
Q 2163 2241 1756 2241 
Q 1359 2241 1098 1978 
Q 838 1716 838 1322 
z
" transform="scale(0.015625)"/>
       </defs>
       <use xlink:href="#ArialMT-34"/>
       <use xlink:href="#ArialMT-38" x="55.615234"/>
      </g>
     </g>
    </g>
    <g id="xtick_4">
     <g id="line2d_4">
      <g>
       <use xlink:href="#m0160ddcd12" x="90.720455" y="85.47875" style="fill: #262626; stroke: #262626; stroke-width: 0.8"/>
      </g>
     </g>
     <g id="text_4">
      <!-- 72 -->
      <g style="fill: #262626" transform="translate(86.271705 97.205)scale(0.08 -0.08)">
       <defs>
        <path id="ArialMT-37" d="M 303 3981 
L 303 4522 
L 3269 4522 
L 3269 4084 
Q 2831 3619 2401 2847 
Q 1972 2075 1738 1259 
Q 1569 684 1522 0 
L 944 0 
Q 953 541 1156 1306 
Q 1359 2072 1739 2783 
Q 2119 3494 2547 3981 
L 303 3981 
z
" transform="scale(0.015625)"/>
       </defs>
       <use xlink:href="#ArialMT-37"/>
       <use xlink:href="#ArialMT-32" x="55.615234"/>
      </g>
     </g>
    </g>
    <g id="xtick_5">
     <g id="line2d_5">
      <g>
       <use xlink:href="#m0160ddcd12" x="104.875" y="85.47875" style="fill: #262626; stroke: #262626; stroke-width: 0.8"/>
      </g>
     </g>
     <g id="text_5">
      <!-- 96 -->
      <g style="fill: #262626" transform="translate(100.42625 97.205)scale(0.08 -0.08)">
       <defs>
        <path id="ArialMT-39" d="M 350 1059 
L 891 1109 
Q 959 728 1153 556 
Q 1347 384 1650 384 
Q 1909 384 2104 503 
Q 2300 622 2425 820 
Q 2550 1019 2634 1356 
Q 2719 1694 2719 2044 
Q 2719 2081 2716 2156 
Q 2547 1888 2255 1720 
Q 1963 1553 1622 1553 
Q 1053 1553 659 1965 
Q 266 2378 266 3053 
Q 266 3750 677 4175 
Q 1088 4600 1706 4600 
Q 2153 4600 2523 4359 
Q 2894 4119 3086 3673 
Q 3278 3228 3278 2384 
Q 3278 1506 3087 986 
Q 2897 466 2520 194 
Q 2144 -78 1638 -78 
Q 1100 -78 759 220 
Q 419 519 350 1059 
z
M 2653 3081 
Q 2653 3566 2395 3850 
Q 2138 4134 1775 4134 
Q 1400 4134 1122 3828 
Q 844 3522 844 3034 
Q 844 2597 1108 2323 
Q 1372 2050 1759 2050 
Q 2150 2050 2401 2323 
Q 2653 2597 2653 3081 
z
" transform="scale(0.015625)"/>
        <path id="ArialMT-36" d="M 3184 3459 
L 2625 3416 
Q 2550 3747 2413 3897 
Q 2184 4138 1850 4138 
Q 1581 4138 1378 3988 
Q 1113 3794 959 3422 
Q 806 3050 800 2363 
Q 1003 2672 1297 2822 
Q 1591 2972 1913 2972 
Q 2475 2972 2870 2558 
Q 3266 2144 3266 1488 
Q 3266 1056 3080 686 
Q 2894 316 2569 119 
Q 2244 -78 1831 -78 
Q 1128 -78 684 439 
Q 241 956 241 2144 
Q 241 3472 731 4075 
Q 1159 4600 1884 4600 
Q 2425 4600 2770 4297 
Q 3116 3994 3184 3459 
z
M 888 1484 
Q 888 1194 1011 928 
Q 1134 663 1356 523 
Q 1578 384 1822 384 
Q 2178 384 2434 671 
Q 2691 959 2691 1453 
Q 2691 1928 2437 2201 
Q 2184 2475 1800 2475 
Q 1419 2475 1153 2201 
Q 888 1928 888 1484 
z
" transform="scale(0.015625)"/>
       </defs>
       <use xlink:href="#ArialMT-39"/>
       <use xlink:href="#ArialMT-36" x="55.615234"/>
      </g>
     </g>
    </g>
    <g id="text_6">
     <!-- time (h) -->
     <g style="fill: #262626" transform="translate(63.674922 109.346719)scale(0.09 -0.09)">
      <defs>
       <path id="ArialMT-74" d="M 1650 503 
L 1731 6 
Q 1494 -44 1306 -44 
Q 1000 -44 831 53 
Q 663 150 594 308 
Q 525 466 525 972 
L 525 2881 
L 113 2881 
L 113 3319 
L 525 3319 
L 525 4141 
L 1084 4478 
L 1084 3319 
L 1650 3319 
L 1650 2881 
L 1084 2881 
L 1084 941 
Q 1084 700 1114 631 
Q 1144 563 1211 522 
Q 1278 481 1403 481 
Q 1497 481 1650 503 
z
" transform="scale(0.015625)"/>
       <path id="ArialMT-69" d="M 425 3934 
L 425 4581 
L 988 4581 
L 988 3934 
L 425 3934 
z
M 425 0 
L 425 3319 
L 988 3319 
L 988 0 
L 425 0 
z
" transform="scale(0.015625)"/>
       <path id="ArialMT-6d" d="M 422 0 
L 422 3319 
L 925 3319 
L 925 2853 
Q 1081 3097 1340 3245 
Q 1600 3394 1931 3394 
Q 2300 3394 2536 3241 
Q 2772 3088 2869 2813 
Q 3263 3394 3894 3394 
Q 4388 3394 4653 3120 
Q 4919 2847 4919 2278 
L 4919 0 
L 4359 0 
L 4359 2091 
Q 4359 2428 4304 2576 
Q 4250 2725 4106 2815 
Q 3963 2906 3769 2906 
Q 3419 2906 3187 2673 
Q 2956 2441 2956 1928 
L 2956 0 
L 2394 0 
L 2394 2156 
Q 2394 2531 2256 2718 
Q 2119 2906 1806 2906 
Q 1569 2906 1367 2781 
Q 1166 2656 1075 2415 
Q 984 2175 984 1722 
L 984 0 
L 422 0 
z
" transform="scale(0.015625)"/>
       <path id="ArialMT-65" d="M 2694 1069 
L 3275 997 
Q 3138 488 2766 206 
Q 2394 -75 1816 -75 
Q 1088 -75 661 373 
Q 234 822 234 1631 
Q 234 2469 665 2931 
Q 1097 3394 1784 3394 
Q 2450 3394 2872 2941 
Q 3294 2488 3294 1666 
Q 3294 1616 3291 1516 
L 816 1516 
Q 847 969 1125 678 
Q 1403 388 1819 388 
Q 2128 388 2347 550 
Q 2566 713 2694 1069 
z
M 847 1978 
L 2700 1978 
Q 2663 2397 2488 2606 
Q 2219 2931 1791 2931 
Q 1403 2931 1139 2672 
Q 875 2413 847 1978 
z
" transform="scale(0.015625)"/>
       <path id="ArialMT-20" transform="scale(0.015625)"/>
       <path id="ArialMT-28" d="M 1497 -1347 
Q 1031 -759 709 28 
Q 388 816 388 1659 
Q 388 2403 628 3084 
Q 909 3875 1497 4659 
L 1900 4659 
Q 1522 4009 1400 3731 
Q 1209 3300 1100 2831 
Q 966 2247 966 1656 
Q 966 153 1900 -1347 
L 1497 -1347 
z
" transform="scale(0.015625)"/>
       <path id="ArialMT-68" d="M 422 0 
L 422 4581 
L 984 4581 
L 984 2938 
Q 1378 3394 1978 3394 
Q 2347 3394 2619 3248 
Q 2891 3103 3008 2847 
Q 3125 2591 3125 2103 
L 3125 0 
L 2563 0 
L 2563 2103 
Q 2563 2525 2380 2717 
Q 2197 2909 1863 2909 
Q 1613 2909 1392 2779 
Q 1172 2650 1078 2428 
Q 984 2206 984 1816 
L 984 0 
L 422 0 
z
" transform="scale(0.015625)"/>
       <path id="ArialMT-29" d="M 791 -1347 
L 388 -1347 
Q 1322 153 1322 1656 
Q 1322 2244 1188 2822 
Q 1081 3291 891 3722 
Q 769 4003 388 4659 
L 791 4659 
Q 1378 3875 1659 3084 
Q 1900 2403 1900 1659 
Q 1900 816 1576 28 
Q 1253 -759 791 -1347 
z
" transform="scale(0.015625)"/>
      </defs>
      <use xlink:href="#ArialMT-74"/>
      <use xlink:href="#ArialMT-69" x="27.783203"/>
      <use xlink:href="#ArialMT-6d" x="50"/>
      <use xlink:href="#ArialMT-65" x="133.300781"/>
      <use xlink:href="#ArialMT-20" x="188.916016"/>
      <use xlink:href="#ArialMT-28" x="216.699219"/>
      <use xlink:href="#ArialMT-68" x="250"/>
      <use xlink:href="#ArialMT-29" x="305.615234"/>
     </g>
    </g>
   </g>
   <g id="matplotlib.axis_2">
    <g id="ytick_1">
     <g id="line2d_6">
      <defs>
       <path id="m5f838e1681" d="M 0 0 
L -4 0 
" style="stroke: #262626; stroke-width: 0.8"/>
      </defs>
      <g>
       <use xlink:href="#m5f838e1681" x="45.19" y="81.285415" style="fill: #262626; stroke: #262626; stroke-width: 0.8"/>
      </g>
     </g>
     <g id="text_7">
      <!-- −1.0 -->
      <g style="fill: #262626" transform="translate(23.3975 84.14854)scale(0.08 -0.08)">
       <defs>
        <path id="ArialMT-2212" d="M 3381 1997 
L 356 1997 
L 356 2522 
L 3381 2522 
L 3381 1997 
z
" transform="scale(0.015625)"/>
        <path id="ArialMT-31" d="M 2384 0 
L 1822 0 
L 1822 3584 
Q 1619 3391 1289 3197 
Q 959 3003 697 2906 
L 697 3450 
Q 1169 3672 1522 3987 
Q 1875 4303 2022 4600 
L 2384 4600 
L 2384 0 
z
" transform="scale(0.015625)"/>
        <path id="ArialMT-2e" d="M 581 0 
L 581 641 
L 1222 641 
L 1222 0 
L 581 0 
z
" transform="scale(0.015625)"/>
       </defs>
       <use xlink:href="#ArialMT-2212"/>
       <use xlink:href="#ArialMT-31" x="58.398438"/>
       <use xlink:href="#ArialMT-2e" x="114.013672"/>
       <use xlink:href="#ArialMT-30" x="141.796875"/>
      </g>
     </g>
    </g>
    <g id="ytick_2">
     <g id="line2d_7">
      <g>
       <use xlink:href="#m5f838e1681" x="45.19" y="68.522063" style="fill: #262626; stroke: #262626; stroke-width: 0.8"/>
      </g>
     </g>
     <g id="text_8">
      <!-- −0.5 -->
      <g style="fill: #262626" transform="translate(23.3975 71.385188)scale(0.08 -0.08)">
       <defs>
        <path id="ArialMT-35" d="M 266 1200 
L 856 1250 
Q 922 819 1161 601 
Q 1400 384 1738 384 
Q 2144 384 2425 690 
Q 2706 997 2706 1503 
Q 2706 1984 2436 2262 
Q 2166 2541 1728 2541 
Q 1456 2541 1237 2417 
Q 1019 2294 894 2097 
L 366 2166 
L 809 4519 
L 3088 4519 
L 3088 3981 
L 1259 3981 
L 1013 2750 
Q 1425 3038 1878 3038 
Q 2478 3038 2890 2622 
Q 3303 2206 3303 1553 
Q 3303 931 2941 478 
Q 2500 -78 1738 -78 
Q 1113 -78 717 272 
Q 322 622 266 1200 
z
" transform="scale(0.015625)"/>
       </defs>
       <use xlink:href="#ArialMT-2212"/>
       <use xlink:href="#ArialMT-30" x="58.398438"/>
       <use xlink:href="#ArialMT-2e" x="114.013672"/>
       <use xlink:href="#ArialMT-35" x="141.796875"/>
      </g>
     </g>
    </g>
    <g id="ytick_3">
     <g id="line2d_8">
      <g>
       <use xlink:href="#m5f838e1681" x="45.19" y="55.75871" style="fill: #262626; stroke: #262626; stroke-width: 0.8"/>
      </g>
     </g>
     <g id="text_9">
      <!-- 0.0 -->
      <g style="fill: #262626" transform="translate(28.07 58.621835)scale(0.08 -0.08)">
       <use xlink:href="#ArialMT-30"/>
       <use xlink:href="#ArialMT-2e" x="55.615234"/>
       <use xlink:href="#ArialMT-30" x="83.398438"/>
      </g>
     </g>
    </g>
    <g id="ytick_4">
     <g id="line2d_9">
      <g>
       <use xlink:href="#m5f838e1681" x="45.19" y="42.995357" style="fill: #262626; stroke: #262626; stroke-width: 0.8"/>
      </g>
     </g>
     <g id="text_10">
      <!-- 0.5 -->
      <g style="fill: #262626" transform="translate(28.07 45.858482)scale(0.08 -0.08)">
       <use xlink:href="#ArialMT-30"/>
       <use xlink:href="#ArialMT-2e" x="55.615234"/>
       <use xlink:href="#ArialMT-35" x="83.398438"/>
      </g>
     </g>
    </g>
    <g id="ytick_5">
     <g id="line2d_10">
      <g>
       <use xlink:href="#m5f838e1681" x="45.19" y="30.232004" style="fill: #262626; stroke: #262626; stroke-width: 0.8"/>
      </g>
     </g>
     <g id="text_11">
      <!-- 1.0 -->
      <g style="fill: #262626" transform="translate(28.07 33.095129)scale(0.08 -0.08)">
       <use xlink:href="#ArialMT-31"/>
       <use xlink:href="#ArialMT-2e" x="55.615234"/>
       <use xlink:href="#ArialMT-30" x="83.398438"/>
      </g>
     </g>
    </g>
    <g id="text_12">
     <!-- expr. norm. -->
     <g style="fill: #262626" transform="translate(17.60875 77.067109)rotate(-90)scale(0.09 -0.09)">
      <defs>
       <path id="ArialMT-78" d="M 47 0 
L 1259 1725 
L 138 3319 
L 841 3319 
L 1350 2541 
Q 1494 2319 1581 2169 
Q 1719 2375 1834 2534 
L 2394 3319 
L 3066 3319 
L 1919 1756 
L 3153 0 
L 2463 0 
L 1781 1031 
L 1600 1309 
L 728 0 
L 47 0 
z
" transform="scale(0.015625)"/>
       <path id="ArialMT-70" d="M 422 -1272 
L 422 3319 
L 934 3319 
L 934 2888 
Q 1116 3141 1344 3267 
Q 1572 3394 1897 3394 
Q 2322 3394 2647 3175 
Q 2972 2956 3137 2557 
Q 3303 2159 3303 1684 
Q 3303 1175 3120 767 
Q 2938 359 2589 142 
Q 2241 -75 1856 -75 
Q 1575 -75 1351 44 
Q 1128 163 984 344 
L 984 -1272 
L 422 -1272 
z
M 931 1641 
Q 931 1000 1190 694 
Q 1450 388 1819 388 
Q 2194 388 2461 705 
Q 2728 1022 2728 1688 
Q 2728 2322 2467 2637 
Q 2206 2953 1844 2953 
Q 1484 2953 1207 2617 
Q 931 2281 931 1641 
z
" transform="scale(0.015625)"/>
       <path id="ArialMT-72" d="M 416 0 
L 416 3319 
L 922 3319 
L 922 2816 
Q 1116 3169 1280 3281 
Q 1444 3394 1641 3394 
Q 1925 3394 2219 3213 
L 2025 2691 
Q 1819 2813 1613 2813 
Q 1428 2813 1281 2702 
Q 1134 2591 1072 2394 
Q 978 2094 978 1738 
L 978 0 
L 416 0 
z
" transform="scale(0.015625)"/>
       <path id="ArialMT-6e" d="M 422 0 
L 422 3319 
L 928 3319 
L 928 2847 
Q 1294 3394 1984 3394 
Q 2284 3394 2536 3286 
Q 2788 3178 2913 3003 
Q 3038 2828 3088 2588 
Q 3119 2431 3119 2041 
L 3119 0 
L 2556 0 
L 2556 2019 
Q 2556 2363 2490 2533 
Q 2425 2703 2258 2804 
Q 2091 2906 1866 2906 
Q 1506 2906 1245 2678 
Q 984 2450 984 1813 
L 984 0 
L 422 0 
z
" transform="scale(0.015625)"/>
       <path id="ArialMT-6f" d="M 213 1659 
Q 213 2581 725 3025 
Q 1153 3394 1769 3394 
Q 2453 3394 2887 2945 
Q 3322 2497 3322 1706 
Q 3322 1066 3130 698 
Q 2938 331 2570 128 
Q 2203 -75 1769 -75 
Q 1072 -75 642 372 
Q 213 819 213 1659 
z
M 791 1659 
Q 791 1022 1069 705 
Q 1347 388 1769 388 
Q 2188 388 2466 706 
Q 2744 1025 2744 1678 
Q 2744 2294 2464 2611 
Q 2184 2928 1769 2928 
Q 1347 2928 1069 2612 
Q 791 2297 791 1659 
z
" transform="scale(0.015625)"/>
      </defs>
      <use xlink:href="#ArialMT-65"/>
      <use xlink:href="#ArialMT-78" x="55.615234"/>
      <use xlink:href="#ArialMT-70" x="105.615234"/>
      <use xlink:href="#ArialMT-72" x="161.230469"/>
      <use xlink:href="#ArialMT-2e" x="189.03125"/>
      <use xlink:href="#ArialMT-20" x="216.814453"/>
      <use xlink:href="#ArialMT-6e" x="244.597656"/>
      <use xlink:href="#ArialMT-6f" x="300.212891"/>
      <use xlink:href="#ArialMT-72" x="355.828125"/>
      <use xlink:href="#ArialMT-6d" x="389.128906"/>
      <use xlink:href="#ArialMT-2e" x="472.429688"/>
     </g>
    </g>
   </g>
   <g id="line2d_11">
    <path d="M 48.256818 55.75871 
L 48.876377 55.75871 
L 49.495937 55.75871 
L 50.115496 55.75871 
L 50.735055 55.75871 
L 51.354614 55.75871 
L 51.974174 55.75871 
L 52.593733 55.75871 
L 53.213292 55.75871 
L 53.832851 55.75871 
L 54.45241 55.75871 
L 55.07197 55.75871 
L 55.691529 55.75871 
L 56.311088 55.75871 
L 56.930647 55.75871 
L 57.550207 55.75871 
L 58.169766 55.75871 
L 58.789325 55.75871 
L 59.408884 55.75871 
L 60.028444 55.75871 
L 60.648003 55.75871 
L 61.267562 55.75871 
L 61.887121 55.75871 
L 62.50668 55.75871 
L 63.12624 55.75871 
L 63.745799 55.75871 
L 64.365358 55.75871 
L 64.984917 55.75871 
L 65.604477 55.75871 
L 66.224036 55.75871 
L 66.843595 55.75871 
L 67.463154 55.75871 
L 68.082713 55.75871 
L 68.702273 55.75871 
L 69.321832 55.75871 
L 69.941391 55.75871 
L 70.56095 55.75871 
L 71.18051 55.75871 
L 71.800069 55.75871 
L 72.419628 55.75871 
L 73.039187 55.75871 
L 73.658747 55.75871 
L 74.278306 55.75871 
L 74.897865 55.75871 
L 75.517424 55.758709 
L 76.136983 55.758707 
L 76.756543 55.758698 
L 77.376102 55.758664 
L 77.995661 55.758545 
L 78.61522 55.758165 
L 79.23478 55.757051 
L 79.854339 55.754051 
L 80.473898 55.7466 
L 81.093457 55.729476 
L 81.713017 55.692967 
L 82.332576 55.620548 
L 82.952135 55.486552 
L 83.571694 55.254715 
L 84.191253 54.878762 
L 84.810813 54.306092 
L 85.430372 53.484966 
L 86.049931 52.374473 
L 86.66949 50.955257 
L 87.28905 49.238169 
L 87.908609 47.26803 
L 88.528168 45.120815 
L 89.147727 42.894378 
L 89.767287 40.694738 
L 90.386846 38.621154 
L 91.006405 36.753418 
L 91.625964 35.143878 
L 92.245523 33.81518 
L 92.865083 32.763192 
L 93.484642 31.963437 
L 94.104201 31.378991 
L 94.72376 30.967998 
L 95.34332 30.689598 
L 95.962879 30.507764 
L 96.582438 30.393144 
L 97.201997 30.323349 
L 97.821556 30.28226 
L 98.441116 30.258852 
L 99.060675 30.245938 
L 99.680234 30.239033 
L 100.299793 30.235453 
L 100.919353 30.23365 
L 101.538912 30.232769 
L 102.158471 30.23235 
L 102.77803 30.232156 
L 103.39759 30.232069 
L 104.017149 30.232031 
L 104.636708 30.232015 
L 105.256267 30.232008 
L 105.875826 30.232005 
L 106.495386 30.232004 
L 107.114945 30.232004 
L 107.734504 30.232004 
L 108.354063 30.232004 
L 108.973623 30.232004 
L 109.593182 30.232004 
" clip-path="url(#pfd0234969e)" style="fill: none; stroke: #800080; stroke-width: 2; stroke-linecap: round"/>
   </g>
   <g id="patch_3">
    <path d="M 45.19 85.47875 
L 45.19 23.64 
" style="fill: none; stroke: #262626; stroke-linejoin: miter; stroke-linecap: square"/>
   </g>
   <g id="patch_4">
    <path d="M 112.66 85.47875 
L 112.66 23.64 
" style="fill: none; stroke: #262626; stroke-linejoin: miter; stroke-linecap: square"/>
   </g>
   <g id="patch_5">
    <path d="M 45.19 85.47875 
L 112.66 85.47875 
" style="fill: none; stroke: #262626; stroke-linejoin: miter; stroke-linecap: square"/>
   </g>
   <g id="patch_6">
    <path d="M 45.19 23.64 
L 112.66 23.64 
" style="fill: none; stroke: #262626; stroke-linejoin: miter; stroke-linecap: square"/>
   </g>
   <g id="line2d_12">
    <path clip-path="url(#pfd0234969e)" style="fill: none; stroke: #1f77b4; stroke-width: 2; stroke-linecap: round"/>
   </g>
   <g id="text_13">
    <!-- Cited2 -->
    <g style="fill: #262626" transform="translate(65.917891 17.64)scale(0.09 -0.09)">
     <defs>
      <path id="Arial-ItalicMT-43" d="M 3859 1613 
L 4466 1528 
Q 4178 734 3628 328 
Q 3078 -78 2394 -78 
Q 1559 -78 1070 431 
Q 581 941 581 1891 
Q 581 3128 1325 3938 
Q 1988 4659 2972 4659 
Q 3700 4659 4151 4268 
Q 4603 3878 4675 3219 
L 4103 3166 
Q 4013 3663 3730 3908 
Q 3447 4153 3000 4153 
Q 2159 4153 1641 3406 
Q 1191 2763 1191 1878 
Q 1191 1172 1537 800 
Q 1884 428 2441 428 
Q 2916 428 3300 737 
Q 3684 1047 3859 1613 
z
" transform="scale(0.015625)"/>
      <path id="Arial-ItalicMT-69" d="M 1016 3941 
L 1150 4581 
L 1713 4581 
L 1578 3941 
L 1016 3941 
z
M 191 0 
L 884 3319 
L 1450 3319 
L 756 0 
L 191 0 
z
" transform="scale(0.015625)"/>
      <path id="Arial-ItalicMT-74" d="M 1534 459 
L 1441 -3 
Q 1238 -56 1047 -56 
Q 709 -56 509 109 
Q 359 234 359 450 
Q 359 559 441 953 
L 844 2881 
L 397 2881 
L 488 3319 
L 934 3319 
L 1106 4134 
L 1753 4525 
L 1500 3319 
L 2056 3319 
L 1963 2881 
L 1409 2881 
L 1025 1047 
Q 953 697 953 628 
Q 953 528 1011 475 
Q 1069 422 1200 422 
Q 1388 422 1534 459 
z
" transform="scale(0.015625)"/>
      <path id="Arial-ItalicMT-65" d="M 2650 1128 
L 3200 1072 
Q 3081 663 2654 294 
Q 2228 -75 1638 -75 
Q 1269 -75 961 95 
Q 653 266 492 591 
Q 331 916 331 1331 
Q 331 1875 582 2386 
Q 834 2897 1234 3145 
Q 1634 3394 2100 3394 
Q 2694 3394 3048 3025 
Q 3403 2656 3403 2019 
Q 3403 1775 3359 1519 
L 916 1519 
Q 903 1422 903 1344 
Q 903 878 1117 633 
Q 1331 388 1641 388 
Q 1931 388 2212 578 
Q 2494 769 2650 1128 
z
M 1006 1950 
L 2869 1950 
Q 2872 2038 2872 2075 
Q 2872 2500 2659 2726 
Q 2447 2953 2113 2953 
Q 1750 2953 1451 2703 
Q 1153 2453 1006 1950 
z
" transform="scale(0.015625)"/>
      <path id="Arial-ItalicMT-64" d="M 2450 481 
Q 1966 -75 1438 -75 
Q 966 -75 652 273 
Q 338 622 338 1284 
Q 338 1891 586 2392 
Q 834 2894 1207 3144 
Q 1581 3394 1956 3394 
Q 2575 3394 2891 2797 
L 3266 4581 
L 3828 4581 
L 2872 0 
L 2350 0 
L 2450 481 
z
M 900 1391 
Q 900 1044 969 844 
Q 1038 644 1203 511 
Q 1369 378 1600 378 
Q 1984 378 2297 778 
Q 2716 1309 2716 2091 
Q 2716 2484 2509 2706 
Q 2303 2928 1991 2928 
Q 1788 2928 1620 2837 
Q 1453 2747 1289 2530 
Q 1125 2313 1012 1978 
Q 900 1644 900 1391 
z
" transform="scale(0.015625)"/>
      <path id="Arial-ItalicMT-32" d="M 375 0 
Q 463 409 617 686 
Q 772 963 1028 1211 
Q 1284 1459 2016 2044 
Q 2459 2397 2622 2566 
Q 2856 2809 2963 3044 
Q 3034 3203 3034 3391 
Q 3034 3706 2811 3926 
Q 2588 4147 2263 4147 
Q 1941 4147 1700 3923 
Q 1459 3700 1356 3206 
L 803 3288 
Q 884 3897 1276 4248 
Q 1669 4600 2253 4600 
Q 2644 4600 2961 4437 
Q 3278 4275 3437 3981 
Q 3597 3688 3597 3375 
Q 3597 2919 3272 2497 
Q 3072 2234 2097 1463 
Q 1678 1131 1473 918 
Q 1269 706 1166 519 
L 3216 519 
L 3106 0 
L 375 0 
z
" transform="scale(0.015625)"/>
     </defs>
     <use xlink:href="#Arial-ItalicMT-43"/>
     <use xlink:href="#Arial-ItalicMT-69" x="72.216797"/>
     <use xlink:href="#Arial-ItalicMT-74" x="94.433594"/>
     <use xlink:href="#Arial-ItalicMT-65" x="122.216797"/>
     <use xlink:href="#Arial-ItalicMT-64" x="177.832031"/>
     <use xlink:href="#Arial-ItalicMT-32" x="233.447266"/>
    </g>
   </g>
   <g id="line2d_13">
    <path d="M 48.256818 55.75871 
L 48.876377 55.75871 
L 49.495937 55.75871 
L 50.115496 55.75871 
L 50.735055 55.75871 
L 51.354614 55.75871 
L 51.974174 55.75871 
L 52.593733 55.75871 
L 53.213292 55.75871 
L 53.832851 55.75871 
L 54.45241 55.75871 
L 55.07197 55.75871 
L 55.691529 55.75871 
L 56.311088 55.75871 
L 56.930647 55.75871 
L 57.550207 55.75871 
L 58.169766 55.75871 
L 58.789325 55.75871 
L 59.408884 55.75871 
L 60.028444 55.75871 
L 60.648003 55.75871 
L 61.267562 55.75871 
L 61.887121 55.75871 
L 62.50668 55.75871 
L 63.12624 55.75871 
L 63.745799 55.75871 
L 64.365358 55.75871 
L 64.984917 55.75871 
L 65.604477 55.75871 
L 66.224036 55.75871 
L 66.843595 55.75871 
L 67.463154 55.75871 
L 68.082713 55.75871 
L 68.702273 55.75871 
L 69.321832 55.75871 
L 69.941391 55.75871 
L 70.56095 55.75871 
L 71.18051 55.75871 
L 71.800069 55.75871 
L 72.419628 55.75871 
L 73.039187 55.75871 
L 73.658747 55.75871 
L 74.278306 55.75871 
L 74.897865 55.75871 
L 75.517424 55.75871 
L 76.136983 55.75871 
L 76.756543 55.75871 
L 77.376102 55.75871 
L 77.995661 55.75871 
L 78.61522 55.75871 
L 79.23478 55.75871 
L 79.854339 55.75871 
L 80.473898 55.75871 
L 81.093457 55.75871 
L 81.713017 55.75871 
L 82.332576 55.75871 
L 82.952135 55.75871 
L 83.571694 55.75871 
L 84.191253 55.75871 
L 84.810813 55.75871 
L 85.430372 55.75871 
L 86.049931 55.75871 
L 86.66949 55.75871 
L 87.28905 55.75871 
L 87.908609 55.75871 
L 88.528168 55.75871 
L 89.147727 55.75871 
L 89.767287 55.75871 
L 90.386846 55.75871 
L 91.006405 55.75871 
L 91.625964 55.75871 
L 92.245523 55.75871 
L 92.865083 55.75871 
L 93.484642 55.75871 
L 94.104201 55.75871 
L 94.72376 55.75871 
L 95.34332 55.75871 
L 95.962879 55.75871 
L 96.582438 55.75871 
L 97.201997 55.75871 
L 97.821556 55.75871 
L 98.441116 55.75871 
L 99.060675 55.75871 
L 99.680234 55.75871 
L 100.299793 55.75871 
L 100.919353 55.75871 
L 101.538912 55.75871 
L 102.158471 55.75871 
L 102.77803 55.75871 
L 103.39759 55.75871 
L 104.017149 55.75871 
L 104.636708 55.75871 
L 105.256267 55.75871 
L 105.875826 55.75871 
L 106.495386 55.75871 
L 107.114945 55.75871 
L 107.734504 55.75871 
L 108.354063 55.75871 
L 108.973623 55.75871 
L 109.593182 55.75871 
" clip-path="url(#pfd0234969e)" style="fill: none; stroke: #2ca02c; stroke-width: 2; stroke-linecap: round"/>
   </g>
   <g id="PathCollection_1">
    <defs>
     <path id="meb8ee13fc3" d="M 0 1.581139 
C 0.419323 1.581139 0.821528 1.41454 1.118034 1.118034 
C 1.41454 0.821528 1.581139 0.419323 1.581139 0 
C 1.581139 -0.419323 1.41454 -0.821528 1.118034 -1.118034 
C 0.821528 -1.41454 0.419323 -1.581139 0 -1.581139 
C -0.419323 -1.581139 -0.821528 -1.41454 -1.118034 -1.118034 
C -1.41454 -0.821528 -1.581139 -0.419323 -1.581139 0 
C -1.581139 0.419323 -1.41454 0.821528 -1.118034 1.118034 
C -0.821528 1.41454 -0.419323 1.581139 0 1.581139 
z
" style="stroke: #ffffff; stroke-width: 0.252982"/>
    </defs>
    <g clip-path="url(#pfd0234969e)">
     <use xlink:href="#meb8ee13fc3" x="48.256818" y="55.75871" style="stroke: #ffffff; stroke-width: 0.252982"/>
     <use xlink:href="#meb8ee13fc3" x="48.256818" y="55.75871" style="stroke: #ffffff; stroke-width: 0.252982"/>
     <use xlink:href="#meb8ee13fc3" x="58.872727" y="77.167249" style="stroke: #ffffff; stroke-width: 0.252982"/>
     <use xlink:href="#meb8ee13fc3" x="58.872727" y="77.167249" style="stroke: #ffffff; stroke-width: 0.252982"/>
     <use xlink:href="#meb8ee13fc3" x="62.411364" y="70.509899" style="stroke: #ffffff; stroke-width: 0.252982"/>
     <use xlink:href="#meb8ee13fc3" x="62.411364" y="70.509899" style="stroke: #ffffff; stroke-width: 0.252982"/>
     <use xlink:href="#meb8ee13fc3" x="76.565909" y="64.382731" style="stroke: #ffffff; stroke-width: 0.252982"/>
     <use xlink:href="#meb8ee13fc3" x="76.565909" y="64.382731" style="stroke: #ffffff; stroke-width: 0.252982"/>
     <use xlink:href="#meb8ee13fc3" x="51.795455" y="62.979627" style="stroke: #ffffff; stroke-width: 0.252982"/>
     <use xlink:href="#meb8ee13fc3" x="51.795455" y="62.979627" style="stroke: #ffffff; stroke-width: 0.252982"/>
     <use xlink:href="#meb8ee13fc3" x="97.797727" y="30.232004" style="stroke: #ffffff; stroke-width: 0.252982"/>
    </g>
   </g>
   <g id="LineCollection_1">
    <path d="M 48.256818 56.322285 
L 48.256818 55.195134 
" clip-path="url(#pfd0234969e)" style="fill: none; stroke: #000000"/>
    <path d="M 48.256818 56.322285 
L 48.256818 55.195134 
" clip-path="url(#pfd0234969e)" style="fill: none; stroke: #000000"/>
    <path d="M 58.872727 82.667898 
L 58.872727 71.666599 
" clip-path="url(#pfd0234969e)" style="fill: none; stroke: #000000"/>
    <path d="M 58.872727 82.667898 
L 58.872727 71.666599 
" clip-path="url(#pfd0234969e)" style="fill: none; stroke: #000000"/>
    <path d="M 62.411364 75.803873 
L 62.411364 65.215924 
" clip-path="url(#pfd0234969e)" style="fill: none; stroke: #000000"/>
    <path d="M 62.411364 75.803873 
L 62.411364 65.215924 
" clip-path="url(#pfd0234969e)" style="fill: none; stroke: #000000"/>
    <path d="M 76.565909 65.102536 
L 76.565909 63.662925 
" clip-path="url(#pfd0234969e)" style="fill: none; stroke: #000000"/>
    <path d="M 76.565909 65.102536 
L 76.565909 63.662925 
" clip-path="url(#pfd0234969e)" style="fill: none; stroke: #000000"/>
    <path d="M 51.795455 67.082167 
L 51.795455 58.877088 
" clip-path="url(#pfd0234969e)" style="fill: none; stroke: #000000"/>
    <path d="M 51.795455 67.082167 
L 51.795455 58.877088 
" clip-path="url(#pfd0234969e)" style="fill: none; stroke: #000000"/>
    <path d="M 97.797727 34.013155 
L 97.797727 26.450852 
" clip-path="url(#pfd0234969e)" style="fill: none; stroke: #000000"/>
   </g>
   <g id="line2d_14">
    <defs>
     <path id="m3c2b3bce59" d="M 2 0 
L -2 -0 
" style="stroke: #000000"/>
    </defs>
    <g clip-path="url(#pfd0234969e)">
     <use xlink:href="#m3c2b3bce59" x="48.256818" y="56.322285" style="stroke: #000000"/>
     <use xlink:href="#m3c2b3bce59" x="48.256818" y="56.322285" style="stroke: #000000"/>
     <use xlink:href="#m3c2b3bce59" x="58.872727" y="82.667898" style="stroke: #000000"/>
     <use xlink:href="#m3c2b3bce59" x="58.872727" y="82.667898" style="stroke: #000000"/>
     <use xlink:href="#m3c2b3bce59" x="62.411364" y="75.803873" style="stroke: #000000"/>
     <use xlink:href="#m3c2b3bce59" x="62.411364" y="75.803873" style="stroke: #000000"/>
     <use xlink:href="#m3c2b3bce59" x="76.565909" y="65.102536" style="stroke: #000000"/>
     <use xlink:href="#m3c2b3bce59" x="76.565909" y="65.102536" style="stroke: #000000"/>
     <use xlink:href="#m3c2b3bce59" x="51.795455" y="67.082167" style="stroke: #000000"/>
     <use xlink:href="#m3c2b3bce59" x="51.795455" y="67.082167" style="stroke: #000000"/>
     <use xlink:href="#m3c2b3bce59" x="97.797727" y="34.013155" style="stroke: #000000"/>
    </g>
   </g>
   <g id="line2d_15">
    <g clip-path="url(#pfd0234969e)">
     <use xlink:href="#m3c2b3bce59" x="48.256818" y="55.195134" style="stroke: #000000"/>
     <use xlink:href="#m3c2b3bce59" x="48.256818" y="55.195134" style="stroke: #000000"/>
     <use xlink:href="#m3c2b3bce59" x="58.872727" y="71.666599" style="stroke: #000000"/>
     <use xlink:href="#m3c2b3bce59" x="58.872727" y="71.666599" style="stroke: #000000"/>
     <use xlink:href="#m3c2b3bce59" x="62.411364" y="65.215924" style="stroke: #000000"/>
     <use xlink:href="#m3c2b3bce59" x="62.411364" y="65.215924" style="stroke: #000000"/>
     <use xlink:href="#m3c2b3bce59" x="76.565909" y="63.662925" style="stroke: #000000"/>
     <use xlink:href="#m3c2b3bce59" x="76.565909" y="63.662925" style="stroke: #000000"/>
     <use xlink:href="#m3c2b3bce59" x="51.795455" y="58.877088" style="stroke: #000000"/>
     <use xlink:href="#m3c2b3bce59" x="51.795455" y="58.877088" style="stroke: #000000"/>
     <use xlink:href="#m3c2b3bce59" x="97.797727" y="26.450852" style="stroke: #000000"/>
    </g>
   </g>
  </g>
  <g id="axes_2">
   <g id="patch_7">
    <path d="M 127.46 85.47875 
L 194.93 85.47875 
L 194.93 23.64 
L 127.46 23.64 
z
" style="fill: #ffffff"/>
   </g>
   <g id="matplotlib.axis_3">
    <g id="xtick_6">
     <g id="line2d_16">
      <g>
       <use xlink:href="#m0160ddcd12" x="130.526818" y="85.47875" style="fill: #262626; stroke: #262626; stroke-width: 0.8"/>
      </g>
     </g>
     <g id="text_14">
      <!-- 0 -->
      <g style="fill: #262626" transform="translate(128.302443 97.205)scale(0.08 -0.08)">
       <use xlink:href="#ArialMT-30"/>
      </g>
     </g>
    </g>
    <g id="xtick_7">
     <g id="line2d_17">
      <g>
       <use xlink:href="#m0160ddcd12" x="144.681364" y="85.47875" style="fill: #262626; stroke: #262626; stroke-width: 0.8"/>
      </g>
     </g>
     <g id="text_15">
      <!-- 24 -->
      <g style="fill: #262626" transform="translate(140.232614 97.205)scale(0.08 -0.08)">
       <use xlink:href="#ArialMT-32"/>
       <use xlink:href="#ArialMT-34" x="55.615234"/>
      </g>
     </g>
    </g>
    <g id="xtick_8">
     <g id="line2d_18">
      <g>
       <use xlink:href="#m0160ddcd12" x="158.835909" y="85.47875" style="fill: #262626; stroke: #262626; stroke-width: 0.8"/>
      </g>
     </g>
     <g id="text_16">
      <!-- 48 -->
      <g style="fill: #262626" transform="translate(154.387159 97.205)scale(0.08 -0.08)">
       <use xlink:href="#ArialMT-34"/>
       <use xlink:href="#ArialMT-38" x="55.615234"/>
      </g>
     </g>
    </g>
    <g id="xtick_9">
     <g id="line2d_19">
      <g>
       <use xlink:href="#m0160ddcd12" x="172.990455" y="85.47875" style="fill: #262626; stroke: #262626; stroke-width: 0.8"/>
      </g>
     </g>
     <g id="text_17">
      <!-- 72 -->
      <g style="fill: #262626" transform="translate(168.541705 97.205)scale(0.08 -0.08)">
       <use xlink:href="#ArialMT-37"/>
       <use xlink:href="#ArialMT-32" x="55.615234"/>
      </g>
     </g>
    </g>
    <g id="xtick_10">
     <g id="line2d_20">
      <g>
       <use xlink:href="#m0160ddcd12" x="187.145" y="85.47875" style="fill: #262626; stroke: #262626; stroke-width: 0.8"/>
      </g>
     </g>
     <g id="text_18">
      <!-- 96 -->
      <g style="fill: #262626" transform="translate(182.69625 97.205)scale(0.08 -0.08)">
       <use xlink:href="#ArialMT-39"/>
       <use xlink:href="#ArialMT-36" x="55.615234"/>
      </g>
     </g>
    </g>
    <g id="text_19">
     <!-- time (h) -->
     <g style="fill: #262626" transform="translate(145.944922 109.346719)scale(0.09 -0.09)">
      <use xlink:href="#ArialMT-74"/>
      <use xlink:href="#ArialMT-69" x="27.783203"/>
      <use xlink:href="#ArialMT-6d" x="50"/>
      <use xlink:href="#ArialMT-65" x="133.300781"/>
      <use xlink:href="#ArialMT-20" x="188.916016"/>
      <use xlink:href="#ArialMT-28" x="216.699219"/>
      <use xlink:href="#ArialMT-68" x="250"/>
      <use xlink:href="#ArialMT-29" x="305.615234"/>
     </g>
    </g>
   </g>
   <g id="matplotlib.axis_4">
    <g id="ytick_6">
     <g id="line2d_21">
      <g>
       <use xlink:href="#m5f838e1681" x="127.46" y="85.47875" style="fill: #262626; stroke: #262626; stroke-width: 0.8"/>
      </g>
     </g>
    </g>
    <g id="ytick_7">
     <g id="line2d_22">
      <g>
       <use xlink:href="#m5f838e1681" x="127.46" y="72.386756" style="fill: #262626; stroke: #262626; stroke-width: 0.8"/>
      </g>
     </g>
    </g>
    <g id="ytick_8">
     <g id="line2d_23">
      <g>
       <use xlink:href="#m5f838e1681" x="127.46" y="59.294761" style="fill: #262626; stroke: #262626; stroke-width: 0.8"/>
      </g>
     </g>
    </g>
    <g id="ytick_9">
     <g id="line2d_24">
      <g>
       <use xlink:href="#m5f838e1681" x="127.46" y="46.202767" style="fill: #262626; stroke: #262626; stroke-width: 0.8"/>
      </g>
     </g>
    </g>
    <g id="ytick_10">
     <g id="line2d_25">
      <g>
       <use xlink:href="#m5f838e1681" x="127.46" y="33.110773" style="fill: #262626; stroke: #262626; stroke-width: 0.8"/>
      </g>
     </g>
    </g>
   </g>
   <g id="line2d_26">
    <path d="M 130.526818 59.294761 
L 131.146377 59.294761 
L 131.765937 59.294761 
L 132.385496 59.294761 
L 133.005055 59.294761 
L 133.624614 59.294761 
L 134.244174 59.294761 
L 134.863733 59.294761 
L 135.483292 59.294761 
L 136.102851 59.294761 
L 136.72241 59.294761 
L 137.34197 59.294761 
L 137.961529 59.294761 
L 138.581088 59.294761 
L 139.200647 59.294761 
L 139.820207 59.294761 
L 140.439766 59.294761 
L 141.059325 59.294761 
L 141.678884 59.294761 
L 142.298444 59.294761 
L 142.918003 59.294761 
L 143.537562 59.294761 
L 144.157121 59.294761 
L 144.77668 59.294761 
L 145.39624 59.294761 
L 146.015799 59.294761 
L 146.635358 59.294761 
L 147.254917 59.29476 
L 147.874477 59.294755 
L 148.494036 59.294739 
L 149.113595 59.29469 
L 149.733154 59.294547 
L 150.352713 59.294165 
L 150.972273 59.293219 
L 151.591832 59.29103 
L 152.211391 59.286288 
L 152.83095 59.276626 
L 153.45051 59.258053 
L 154.070069 59.224262 
L 154.689628 59.16591 
L 155.309187 59.070016 
L 155.928747 58.919669 
L 156.548306 58.694277 
L 157.167865 58.370497 
L 157.787424 57.923936 
L 158.406983 57.33151 
L 159.026543 56.574241 
L 159.646102 55.640063 
L 160.265661 54.526219 
L 160.88522 53.240792 
L 161.50478 51.803072 
L 162.124339 50.242637 
L 162.743898 48.597237 
L 163.363457 46.909782 
L 163.983017 45.224856 
L 164.602576 43.585226 
L 165.222135 42.028786 
L 165.841694 40.586259 
L 166.461253 39.279835 
L 167.080813 38.122771 
L 167.700372 37.11984 
L 168.319931 36.268434 
L 168.93949 35.560082 
L 169.55905 34.982132 
L 170.178609 34.5194 
L 170.798168 34.155635 
L 171.417727 33.874698 
L 172.037287 33.66143 
L 172.656846 33.502211 
L 173.276405 33.385252 
L 173.895964 33.300679 
L 174.515523 33.240451 
L 175.135083 33.198192 
L 175.754642 33.168967 
L 176.374201 33.149037 
L 176.99376 33.135631 
L 177.61332 33.126732 
L 178.232879 33.120901 
L 178.852438 33.117128 
L 179.471997 33.114716 
L 180.091556 33.113194 
L 180.711116 33.112243 
L 181.330675 33.111656 
L 181.950234 33.111299 
L 182.569793 33.111082 
L 183.189353 33.110953 
L 183.808912 33.110877 
L 184.428471 33.110832 
L 185.04803 33.110806 
L 185.66759 33.110792 
L 186.287149 33.110783 
L 186.906708 33.110778 
L 187.526267 33.110776 
L 188.145826 33.110774 
L 188.765386 33.110773 
L 189.384945 33.110773 
L 190.004504 33.110773 
L 190.624063 33.110773 
L 191.243623 33.110773 
L 191.863182 33.110773 
" clip-path="url(#pae3816bc07)" style="fill: none; stroke: #800080; stroke-width: 2; stroke-linecap: round"/>
   </g>
   <g id="patch_8">
    <path d="M 127.46 85.47875 
L 127.46 23.64 
" style="fill: none; stroke: #262626; stroke-linejoin: miter; stroke-linecap: square"/>
   </g>
   <g id="patch_9">
    <path d="M 194.93 85.47875 
L 194.93 23.64 
" style="fill: none; stroke: #262626; stroke-linejoin: miter; stroke-linecap: square"/>
   </g>
   <g id="patch_10">
    <path d="M 127.46 85.47875 
L 194.93 85.47875 
" style="fill: none; stroke: #262626; stroke-linejoin: miter; stroke-linecap: square"/>
   </g>
   <g id="patch_11">
    <path d="M 127.46 23.64 
L 194.93 23.64 
" style="fill: none; stroke: #262626; stroke-linejoin: miter; stroke-linecap: square"/>
   </g>
   <g id="line2d_27">
    <path d="M 130.526818 59.294761 
L 131.146377 59.294761 
L 131.765937 59.294761 
L 132.385496 59.294761 
L 133.005055 59.294761 
L 133.624614 59.294761 
L 134.244174 59.294761 
L 134.863733 59.294761 
L 135.483292 59.294761 
L 136.102851 59.294761 
L 136.72241 59.294761 
L 137.34197 59.294761 
L 137.961529 59.294761 
L 138.581088 59.294761 
L 139.200647 59.294761 
L 139.820207 59.294761 
L 140.439766 59.294761 
L 141.059325 59.294761 
L 141.678884 59.294761 
L 142.298444 59.294761 
L 142.918003 59.294761 
L 143.537562 59.294761 
L 144.157121 59.294761 
L 144.77668 59.294761 
L 145.39624 59.294761 
L 146.015799 59.29476 
L 146.635358 59.294758 
L 147.254917 59.29475 
L 147.874477 59.294725 
L 148.494036 59.294654 
L 149.113595 59.294469 
L 149.733154 59.294018 
L 150.352713 59.292987 
L 150.972273 59.290767 
L 151.591832 59.286257 
L 152.211391 59.277572 
L 152.83095 59.261678 
L 153.45051 59.233957 
L 154.070069 59.187761 
L 154.689628 59.114023 
L 155.309187 59.001044 
L 155.928747 58.834545 
L 156.548306 58.598091 
L 157.167865 58.273923 
L 157.787424 57.8442 
L 158.406983 57.292554 
L 159.026543 56.605795 
L 159.646102 55.775572 
L 160.265661 54.799743 
L 160.88522 53.683275 
L 161.50478 52.438505 
L 162.124339 51.084723 
L 162.743898 49.647093 
L 163.363457 48.155051 
L 163.983017 46.640356 
L 164.602576 45.13502 
L 165.222135 43.669336 
L 165.841694 42.270189 
L 166.461253 40.959794 
L 167.080813 39.754918 
L 167.700372 38.666605 
L 168.319931 37.700346 
L 168.93949 36.856612 
L 169.55905 36.131636 
L 170.178609 35.518343 
L 170.798168 35.007308 
L 171.417727 34.587672 
L 172.037287 34.247948 
L 172.656846 33.976681 
L 173.276405 33.762956 
L 173.895964 33.596738 
L 174.515523 33.469089 
L 175.135083 33.372254 
L 175.754642 33.299665 
L 176.374201 33.245879 
L 176.99376 33.206472 
L 177.61332 33.177916 
L 178.232879 33.157443 
L 178.852438 33.142917 
L 179.471997 33.132714 
L 180.091556 33.125619 
L 180.711116 33.120732 
L 181.330675 33.117398 
L 181.950234 33.115144 
L 182.569793 33.113633 
L 183.189353 33.11263 
L 183.808912 33.111969 
L 184.428471 33.111538 
L 185.04803 33.111258 
L 185.66759 33.111078 
L 186.287149 33.110964 
L 186.906708 33.110891 
L 187.526267 33.110846 
L 188.145826 33.110817 
L 188.765386 33.1108 
L 189.384945 33.110789 
L 190.004504 33.110782 
L 190.624063 33.110778 
L 191.243623 33.110776 
L 191.863182 33.110775 
" clip-path="url(#pae3816bc07)" style="fill: none; stroke: #1f77b4; stroke-width: 2; stroke-linecap: round"/>
   </g>
   <g id="text_20">
    <!-- Runx3 -->
    <g style="fill: #262626" transform="translate(148.187891 17.64)scale(0.09 -0.09)">
     <defs>
      <path id="Arial-ItalicMT-52" d="M 300 0 
L 1259 4581 
L 3181 4581 
Q 3750 4581 4044 4486 
Q 4338 4391 4505 4128 
Q 4672 3866 4672 3466 
Q 4672 2906 4306 2537 
Q 3941 2169 3125 2059 
Q 3375 1875 3503 1697 
Q 3791 1294 3966 863 
L 4316 0 
L 3631 0 
L 3303 853 
Q 3125 1316 2897 1653 
Q 2741 1888 2578 1961 
Q 2416 2034 2050 2034 
L 1338 2034 
L 913 0 
L 300 0 
z
M 1441 2531 
L 2288 2531 
Q 2875 2531 3053 2547 
Q 3400 2581 3622 2703 
Q 3844 2825 3966 3031 
Q 4088 3238 4088 3475 
Q 4088 3675 3997 3823 
Q 3906 3972 3759 4025 
Q 3613 4078 3259 4078 
L 1766 4078 
L 1441 2531 
z
" transform="scale(0.015625)"/>
      <path id="Arial-ItalicMT-75" d="M 2478 600 
Q 1881 -75 1256 -75 
Q 872 -75 636 145 
Q 400 366 400 684 
Q 400 894 506 1403 
L 906 3319 
L 1472 3319 
L 1028 1197 
Q 972 931 972 784 
Q 972 597 1086 492 
Q 1200 388 1422 388 
Q 1659 388 1886 503 
Q 2113 619 2277 816 
Q 2441 1013 2544 1281 
Q 2613 1453 2703 1884 
L 3003 3319 
L 3569 3319 
L 2875 0 
L 2353 0 
L 2478 600 
z
" transform="scale(0.015625)"/>
      <path id="Arial-ItalicMT-6e" d="M 213 0 
L 906 3319 
L 1419 3319 
L 1297 2741 
Q 1631 3081 1922 3237 
Q 2213 3394 2516 3394 
Q 2919 3394 3148 3175 
Q 3378 2956 3378 2591 
Q 3378 2406 3297 2009 
L 2875 0 
L 2309 0 
L 2750 2103 
Q 2816 2409 2816 2556 
Q 2816 2722 2702 2825 
Q 2588 2928 2372 2928 
Q 1938 2928 1598 2615 
Q 1259 2303 1100 1544 
L 778 0 
L 213 0 
z
" transform="scale(0.015625)"/>
      <path id="Arial-ItalicMT-78" d="M -9 0 
L 1434 1684 
L 606 3319 
L 1231 3319 
L 1513 2728 
Q 1669 2397 1794 2094 
L 2750 3319 
L 3441 3319 
L 2047 1641 
L 2884 0 
L 2259 0 
L 1928 675 
Q 1822 891 1688 1209 
L 700 0 
L -9 0 
z
" transform="scale(0.015625)"/>
      <path id="Arial-ItalicMT-33" d="M 350 1200 
L 900 1269 
Q 963 788 1177 580 
Q 1391 372 1738 372 
Q 2156 372 2461 672 
Q 2766 972 2766 1359 
Q 2766 1697 2537 1917 
Q 2309 2138 1925 2138 
Q 1881 2138 1744 2125 
L 1841 2597 
Q 1922 2584 1997 2584 
Q 2481 2584 2742 2820 
Q 3003 3056 3003 3400 
Q 3003 3716 2789 3931 
Q 2575 4147 2266 4147 
Q 1963 4147 1720 3926 
Q 1478 3706 1409 3303 
L 853 3416 
Q 991 3981 1381 4290 
Q 1772 4600 2306 4600 
Q 2869 4600 3217 4259 
Q 3566 3919 3566 3422 
Q 3566 3059 3377 2789 
Q 3188 2519 2809 2341 
Q 3078 2181 3211 1956 
Q 3344 1731 3344 1441 
Q 3344 825 2883 373 
Q 2422 -78 1781 -78 
Q 1159 -78 776 270 
Q 394 619 350 1200 
z
" transform="scale(0.015625)"/>
     </defs>
     <use xlink:href="#Arial-ItalicMT-52"/>
     <use xlink:href="#Arial-ItalicMT-75" x="72.216797"/>
     <use xlink:href="#Arial-ItalicMT-6e" x="127.832031"/>
     <use xlink:href="#Arial-ItalicMT-78" x="183.447266"/>
     <use xlink:href="#Arial-ItalicMT-33" x="233.447266"/>
    </g>
   </g>
   <g id="line2d_28">
    <path d="M 130.526818 59.294761 
L 131.146377 59.294761 
L 131.765937 59.294761 
L 132.385496 59.294761 
L 133.005055 59.294761 
L 133.624614 59.294761 
L 134.244174 59.294761 
L 134.863733 59.294761 
L 135.483292 59.294761 
L 136.102851 59.294761 
L 136.72241 59.294761 
L 137.34197 59.294761 
L 137.961529 59.294761 
L 138.581088 59.294761 
L 139.200647 59.294761 
L 139.820207 59.294761 
L 140.439766 59.294761 
L 141.059325 59.294761 
L 141.678884 59.294761 
L 142.298444 59.294761 
L 142.918003 59.294761 
L 143.537562 59.294761 
L 144.157121 59.294761 
L 144.77668 59.294761 
L 145.39624 59.294761 
L 146.015799 59.294761 
L 146.635358 59.294761 
L 147.254917 59.294761 
L 147.874477 59.294761 
L 148.494036 59.294761 
L 149.113595 59.294761 
L 149.733154 59.294761 
L 150.352713 59.294761 
L 150.972273 59.294761 
L 151.591832 59.294761 
L 152.211391 59.294761 
L 152.83095 59.294761 
L 153.45051 59.294761 
L 154.070069 59.294761 
L 154.689628 59.294761 
L 155.309187 59.294761 
L 155.928747 59.294761 
L 156.548306 59.294761 
L 157.167865 59.294761 
L 157.787424 59.294761 
L 158.406983 59.294761 
L 159.026543 59.294761 
L 159.646102 59.294761 
L 160.265661 59.294761 
L 160.88522 59.294761 
L 161.50478 59.294761 
L 162.124339 59.294761 
L 162.743898 59.294761 
L 163.363457 59.294761 
L 163.983017 59.294761 
L 164.602576 59.294761 
L 165.222135 59.294761 
L 165.841694 59.294761 
L 166.461253 59.294761 
L 167.080813 59.294761 
L 167.700372 59.294761 
L 168.319931 59.294761 
L 168.93949 59.294761 
L 169.55905 59.294761 
L 170.178609 59.294761 
L 170.798168 59.294761 
L 171.417727 59.294761 
L 172.037287 59.294761 
L 172.656846 59.294761 
L 173.276405 59.294761 
L 173.895964 59.294761 
L 174.515523 59.294761 
L 175.135083 59.294761 
L 175.754642 59.294761 
L 176.374201 59.294761 
L 176.99376 59.294761 
L 177.61332 59.294761 
L 178.232879 59.294761 
L 178.852438 59.294761 
L 179.471997 59.294761 
L 180.091556 59.294761 
L 180.711116 59.294761 
L 181.330675 59.294761 
L 181.950234 59.294761 
L 182.569793 59.294761 
L 183.189353 59.294761 
L 183.808912 59.294761 
L 184.428471 59.294761 
L 185.04803 59.294761 
L 185.66759 59.294761 
L 186.287149 59.294761 
L 186.906708 59.294761 
L 187.526267 59.294761 
L 188.145826 59.294761 
L 188.765386 59.294761 
L 189.384945 59.294761 
L 190.004504 59.294761 
L 190.624063 59.294761 
L 191.243623 59.294761 
L 191.863182 59.294761 
" clip-path="url(#pae3816bc07)" style="fill: none; stroke: #2ca02c; stroke-width: 2; stroke-linecap: round"/>
   </g>
   <g id="PathCollection_2">
    <g clip-path="url(#pae3816bc07)">
     <use xlink:href="#meb8ee13fc3" x="130.526818" y="59.294761" style="stroke: #ffffff; stroke-width: 0.252982"/>
     <use xlink:href="#meb8ee13fc3" x="130.526818" y="59.294761" style="stroke: #ffffff; stroke-width: 0.252982"/>
     <use xlink:href="#meb8ee13fc3" x="141.142727" y="70.202567" style="stroke: #ffffff; stroke-width: 0.252982"/>
     <use xlink:href="#meb8ee13fc3" x="141.142727" y="70.202567" style="stroke: #ffffff; stroke-width: 0.252982"/>
     <use xlink:href="#meb8ee13fc3" x="144.681364" y="65.046345" style="stroke: #ffffff; stroke-width: 0.252982"/>
     <use xlink:href="#meb8ee13fc3" x="144.681364" y="65.046345" style="stroke: #ffffff; stroke-width: 0.252982"/>
     <use xlink:href="#meb8ee13fc3" x="158.835909" y="56.831662" style="stroke: #ffffff; stroke-width: 0.252982"/>
     <use xlink:href="#meb8ee13fc3" x="158.835909" y="56.831662" style="stroke: #ffffff; stroke-width: 0.252982"/>
     <use xlink:href="#meb8ee13fc3" x="134.065455" y="45.235824" style="stroke: #ffffff; stroke-width: 0.252982"/>
     <use xlink:href="#meb8ee13fc3" x="134.065455" y="45.235824" style="stroke: #ffffff; stroke-width: 0.252982"/>
     <use xlink:href="#meb8ee13fc3" x="180.067727" y="33.110773" style="stroke: #ffffff; stroke-width: 0.252982"/>
    </g>
   </g>
   <g id="LineCollection_2">
    <path d="M 130.526818 59.828322 
L 130.526818 58.761201 
" clip-path="url(#pae3816bc07)" style="fill: none; stroke: #000000"/>
    <path d="M 130.526818 59.828322 
L 130.526818 58.761201 
" clip-path="url(#pae3816bc07)" style="fill: none; stroke: #000000"/>
    <path d="M 141.142727 70.561697 
L 141.142727 69.843436 
" clip-path="url(#pae3816bc07)" style="fill: none; stroke: #000000"/>
    <path d="M 141.142727 70.561697 
L 141.142727 69.843436 
" clip-path="url(#pae3816bc07)" style="fill: none; stroke: #000000"/>
    <path d="M 144.681364 71.979213 
L 144.681364 58.113478 
" clip-path="url(#pae3816bc07)" style="fill: none; stroke: #000000"/>
    <path d="M 144.681364 71.979213 
L 144.681364 58.113478 
" clip-path="url(#pae3816bc07)" style="fill: none; stroke: #000000"/>
    <path d="M 158.835909 59.259162 
L 158.835909 54.404162 
" clip-path="url(#pae3816bc07)" style="fill: none; stroke: #000000"/>
    <path d="M 158.835909 59.259162 
L 158.835909 54.404162 
" clip-path="url(#pae3816bc07)" style="fill: none; stroke: #000000"/>
    <path d="M 134.065455 47.578217 
L 134.065455 42.89343 
" clip-path="url(#pae3816bc07)" style="fill: none; stroke: #000000"/>
    <path d="M 134.065455 47.578217 
L 134.065455 42.89343 
" clip-path="url(#pae3816bc07)" style="fill: none; stroke: #000000"/>
    <path d="M 180.067727 40.279678 
L 180.067727 25.941867 
" clip-path="url(#pae3816bc07)" style="fill: none; stroke: #000000"/>
   </g>
   <g id="line2d_29">
    <g clip-path="url(#pae3816bc07)">
     <use xlink:href="#m3c2b3bce59" x="130.526818" y="59.828322" style="stroke: #000000"/>
     <use xlink:href="#m3c2b3bce59" x="130.526818" y="59.828322" style="stroke: #000000"/>
     <use xlink:href="#m3c2b3bce59" x="141.142727" y="70.561697" style="stroke: #000000"/>
     <use xlink:href="#m3c2b3bce59" x="141.142727" y="70.561697" style="stroke: #000000"/>
     <use xlink:href="#m3c2b3bce59" x="144.681364" y="71.979213" style="stroke: #000000"/>
     <use xlink:href="#m3c2b3bce59" x="144.681364" y="71.979213" style="stroke: #000000"/>
     <use xlink:href="#m3c2b3bce59" x="158.835909" y="59.259162" style="stroke: #000000"/>
     <use xlink:href="#m3c2b3bce59" x="158.835909" y="59.259162" style="stroke: #000000"/>
     <use xlink:href="#m3c2b3bce59" x="134.065455" y="47.578217" style="stroke: #000000"/>
     <use xlink:href="#m3c2b3bce59" x="134.065455" y="47.578217" style="stroke: #000000"/>
     <use xlink:href="#m3c2b3bce59" x="180.067727" y="40.279678" style="stroke: #000000"/>
    </g>
   </g>
   <g id="line2d_30">
    <g clip-path="url(#pae3816bc07)">
     <use xlink:href="#m3c2b3bce59" x="130.526818" y="58.761201" style="stroke: #000000"/>
     <use xlink:href="#m3c2b3bce59" x="130.526818" y="58.761201" style="stroke: #000000"/>
     <use xlink:href="#m3c2b3bce59" x="141.142727" y="69.843436" style="stroke: #000000"/>
     <use xlink:href="#m3c2b3bce59" x="141.142727" y="69.843436" style="stroke: #000000"/>
     <use xlink:href="#m3c2b3bce59" x="144.681364" y="58.113478" style="stroke: #000000"/>
     <use xlink:href="#m3c2b3bce59" x="144.681364" y="58.113478" style="stroke: #000000"/>
     <use xlink:href="#m3c2b3bce59" x="158.835909" y="54.404162" style="stroke: #000000"/>
     <use xlink:href="#m3c2b3bce59" x="158.835909" y="54.404162" style="stroke: #000000"/>
     <use xlink:href="#m3c2b3bce59" x="134.065455" y="42.89343" style="stroke: #000000"/>
     <use xlink:href="#m3c2b3bce59" x="134.065455" y="42.89343" style="stroke: #000000"/>
     <use xlink:href="#m3c2b3bce59" x="180.067727" y="25.941867" style="stroke: #000000"/>
    </g>
   </g>
  </g>
  <g id="axes_3">
   <g id="patch_12">
    <path d="M 209.73 85.47875 
L 277.2 85.47875 
L 277.2 23.64 
L 209.73 23.64 
z
" style="fill: #ffffff"/>
   </g>
   <g id="matplotlib.axis_5">
    <g id="xtick_11">
     <g id="line2d_31">
      <g>
       <use xlink:href="#m0160ddcd12" x="212.796818" y="85.47875" style="fill: #262626; stroke: #262626; stroke-width: 0.8"/>
      </g>
     </g>
     <g id="text_21">
      <!-- 0 -->
      <g style="fill: #262626" transform="translate(210.572443 97.205)scale(0.08 -0.08)">
       <use xlink:href="#ArialMT-30"/>
      </g>
     </g>
    </g>
    <g id="xtick_12">
     <g id="line2d_32">
      <g>
       <use xlink:href="#m0160ddcd12" x="226.951364" y="85.47875" style="fill: #262626; stroke: #262626; stroke-width: 0.8"/>
      </g>
     </g>
     <g id="text_22">
      <!-- 24 -->
      <g style="fill: #262626" transform="translate(222.502614 97.205)scale(0.08 -0.08)">
       <use xlink:href="#ArialMT-32"/>
       <use xlink:href="#ArialMT-34" x="55.615234"/>
      </g>
     </g>
    </g>
    <g id="xtick_13">
     <g id="line2d_33">
      <g>
       <use xlink:href="#m0160ddcd12" x="241.105909" y="85.47875" style="fill: #262626; stroke: #262626; stroke-width: 0.8"/>
      </g>
     </g>
     <g id="text_23">
      <!-- 48 -->
      <g style="fill: #262626" transform="translate(236.657159 97.205)scale(0.08 -0.08)">
       <use xlink:href="#ArialMT-34"/>
       <use xlink:href="#ArialMT-38" x="55.615234"/>
      </g>
     </g>
    </g>
    <g id="xtick_14">
     <g id="line2d_34">
      <g>
       <use xlink:href="#m0160ddcd12" x="255.260455" y="85.47875" style="fill: #262626; stroke: #262626; stroke-width: 0.8"/>
      </g>
     </g>
     <g id="text_24">
      <!-- 72 -->
      <g style="fill: #262626" transform="translate(250.811705 97.205)scale(0.08 -0.08)">
       <use xlink:href="#ArialMT-37"/>
       <use xlink:href="#ArialMT-32" x="55.615234"/>
      </g>
     </g>
    </g>
    <g id="xtick_15">
     <g id="line2d_35">
      <g>
       <use xlink:href="#m0160ddcd12" x="269.415" y="85.47875" style="fill: #262626; stroke: #262626; stroke-width: 0.8"/>
      </g>
     </g>
     <g id="text_25">
      <!-- 96 -->
      <g style="fill: #262626" transform="translate(264.96625 97.205)scale(0.08 -0.08)">
       <use xlink:href="#ArialMT-39"/>
       <use xlink:href="#ArialMT-36" x="55.615234"/>
      </g>
     </g>
    </g>
    <g id="text_26">
     <!-- time (h) -->
     <g style="fill: #262626" transform="translate(228.214922 109.346719)scale(0.09 -0.09)">
      <use xlink:href="#ArialMT-74"/>
      <use xlink:href="#ArialMT-69" x="27.783203"/>
      <use xlink:href="#ArialMT-6d" x="50"/>
      <use xlink:href="#ArialMT-65" x="133.300781"/>
      <use xlink:href="#ArialMT-20" x="188.916016"/>
      <use xlink:href="#ArialMT-28" x="216.699219"/>
      <use xlink:href="#ArialMT-68" x="250"/>
      <use xlink:href="#ArialMT-29" x="305.615234"/>
     </g>
    </g>
   </g>
   <g id="matplotlib.axis_6">
    <g id="ytick_11">
     <g id="line2d_36">
      <g>
       <use xlink:href="#m5f838e1681" x="209.73" y="78.348534" style="fill: #262626; stroke: #262626; stroke-width: 0.8"/>
      </g>
     </g>
    </g>
    <g id="ytick_12">
     <g id="line2d_37">
      <g>
       <use xlink:href="#m5f838e1681" x="209.73" y="66.866219" style="fill: #262626; stroke: #262626; stroke-width: 0.8"/>
      </g>
     </g>
    </g>
    <g id="ytick_13">
     <g id="line2d_38">
      <g>
       <use xlink:href="#m5f838e1681" x="209.73" y="55.383903" style="fill: #262626; stroke: #262626; stroke-width: 0.8"/>
      </g>
     </g>
    </g>
    <g id="ytick_14">
     <g id="line2d_39">
      <g>
       <use xlink:href="#m5f838e1681" x="209.73" y="43.901588" style="fill: #262626; stroke: #262626; stroke-width: 0.8"/>
      </g>
     </g>
    </g>
    <g id="ytick_15">
     <g id="line2d_40">
      <g>
       <use xlink:href="#m5f838e1681" x="209.73" y="32.419273" style="fill: #262626; stroke: #262626; stroke-width: 0.8"/>
      </g>
     </g>
    </g>
   </g>
   <g id="line2d_41">
    <path d="M 212.796818 55.383903 
L 213.416377 55.383903 
L 214.035937 55.383903 
L 214.655496 55.383903 
L 215.275055 55.383903 
L 215.894614 55.383903 
L 216.514174 55.383903 
L 217.133733 55.383903 
L 217.753292 55.383903 
L 218.372851 55.383903 
L 218.99241 55.383903 
L 219.61197 55.383903 
L 220.231529 55.383903 
L 220.851088 55.383903 
L 221.470647 55.383903 
L 222.090207 55.383903 
L 222.709766 55.383903 
L 223.329325 55.383903 
L 223.948884 55.383903 
L 224.568444 55.383903 
L 225.188003 55.383903 
L 225.807562 55.383903 
L 226.427121 55.383903 
L 227.04668 55.383903 
L 227.66624 55.383903 
L 228.285799 55.383903 
L 228.905358 55.383903 
L 229.524917 55.383903 
L 230.144477 55.383903 
L 230.764036 55.383903 
L 231.383595 55.383903 
L 232.003154 55.383903 
L 232.622713 55.383903 
L 233.242273 55.383903 
L 233.861832 55.383903 
L 234.481391 55.383903 
L 235.10095 55.383903 
L 235.72051 55.383901 
L 236.340069 55.383896 
L 236.959628 55.383881 
L 237.579187 55.383838 
L 238.198747 55.383729 
L 238.818306 55.383463 
L 239.437865 55.382851 
L 240.057424 55.381519 
L 240.676983 55.378769 
L 241.296543 55.373366 
L 241.916102 55.363247 
L 242.535661 55.345144 
L 243.15522 55.314152 
L 243.77478 55.263284 
L 244.394339 55.183105 
L 245.013898 55.061547 
L 245.633457 54.884023 
L 246.253017 54.63394 
L 246.872576 54.293651 
L 247.492135 53.845843 
L 248.111694 53.275246 
L 248.731253 52.57047 
L 249.350813 51.725735 
L 249.970372 50.742225 
L 250.589931 49.628848 
L 251.20949 48.402225 
L 251.82905 47.085899 
L 252.448609 45.708817 
L 253.068168 44.30327 
L 253.687727 42.902562 
L 254.307287 41.538669 
L 254.926846 40.240165 
L 255.546405 39.030618 
L 256.165964 37.927574 
L 256.785523 36.942167 
L 257.405083 36.079301 
L 258.024642 35.338306 
L 258.644201 34.713905 
L 259.26376 34.197357 
L 259.88332 33.77763 
L 260.502879 33.44248 
L 261.122438 33.179378 
L 261.741997 32.976232 
L 262.361556 32.821892 
L 262.981116 32.706467 
L 263.600675 32.62146 
L 264.220234 32.559787 
L 264.839793 32.515692 
L 265.459353 32.484613 
L 266.078912 32.463011 
L 266.698471 32.4482 
L 267.31803 32.438178 
L 267.93759 32.431486 
L 268.557149 32.427072 
L 269.176708 32.424198 
L 269.796267 32.422349 
L 270.415826 32.421173 
L 271.035386 32.420434 
L 271.654945 32.419975 
L 272.274504 32.419693 
L 272.894063 32.419522 
L 273.513623 32.419419 
L 274.133182 32.419358 
" clip-path="url(#p503b447dbc)" style="fill: none; stroke: #800080; stroke-width: 2; stroke-linecap: round"/>
   </g>
   <g id="patch_13">
    <path d="M 209.73 85.47875 
L 209.73 23.64 
" style="fill: none; stroke: #262626; stroke-linejoin: miter; stroke-linecap: square"/>
   </g>
   <g id="patch_14">
    <path d="M 277.2 85.47875 
L 277.2 23.64 
" style="fill: none; stroke: #262626; stroke-linejoin: miter; stroke-linecap: square"/>
   </g>
   <g id="patch_15">
    <path d="M 209.73 85.47875 
L 277.2 85.47875 
" style="fill: none; stroke: #262626; stroke-linejoin: miter; stroke-linecap: square"/>
   </g>
   <g id="patch_16">
    <path d="M 209.73 23.64 
L 277.2 23.64 
" style="fill: none; stroke: #262626; stroke-linejoin: miter; stroke-linecap: square"/>
   </g>
   <g id="line2d_42">
    <path clip-path="url(#p503b447dbc)" style="fill: none; stroke: #1f77b4; stroke-width: 2; stroke-linecap: round"/>
   </g>
   <g id="text_27">
    <!-- Epsti1 -->
    <g style="fill: #262626" transform="translate(230.958516 17.64)scale(0.09 -0.09)">
     <defs>
      <path id="Arial-ItalicMT-45" d="M 288 0 
L 1247 4581 
L 4553 4581 
L 4444 4059 
L 1750 4059 
L 1450 2634 
L 4075 2634 
L 3966 2113 
L 1341 2113 
L 1009 519 
L 3894 519 
L 3784 0 
L 288 0 
z
" transform="scale(0.015625)"/>
      <path id="Arial-ItalicMT-70" d="M -66 -1272 
L 894 3319 
L 1416 3319 
L 1319 2856 
Q 1609 3159 1839 3276 
Q 2069 3394 2325 3394 
Q 2800 3394 3112 3048 
Q 3425 2703 3425 2059 
Q 3425 1541 3253 1114 
Q 3081 688 2831 428 
Q 2581 169 2325 47 
Q 2069 -75 1800 -75 
Q 1203 -75 875 531 
L 500 -1272 
L -66 -1272 
z
M 1053 1356 
Q 1053 984 1106 841 
Q 1184 638 1362 513 
Q 1541 388 1775 388 
Q 2263 388 2563 936 
Q 2863 1484 2863 2056 
Q 2863 2478 2661 2708 
Q 2459 2938 2159 2938 
Q 1944 2938 1759 2823 
Q 1575 2709 1417 2482 
Q 1259 2256 1156 1928 
Q 1053 1600 1053 1356 
z
" transform="scale(0.015625)"/>
      <path id="Arial-ItalicMT-73" d="M 266 1134 
L 831 1169 
Q 831 925 906 753 
Q 981 581 1182 472 
Q 1384 363 1653 363 
Q 2028 363 2215 513 
Q 2403 663 2403 866 
Q 2403 1013 2291 1144 
Q 2175 1275 1726 1467 
Q 1278 1659 1153 1738 
Q 944 1866 837 2039 
Q 731 2213 731 2438 
Q 731 2831 1043 3112 
Q 1356 3394 1919 3394 
Q 2544 3394 2870 3105 
Q 3197 2816 3209 2344 
L 2656 2306 
Q 2644 2606 2444 2781 
Q 2244 2956 1878 2956 
Q 1584 2956 1421 2822 
Q 1259 2688 1259 2531 
Q 1259 2375 1400 2256 
Q 1494 2175 1884 2006 
Q 2534 1725 2703 1563 
Q 2972 1303 2972 931 
Q 2972 684 2820 446 
Q 2669 209 2358 67 
Q 2047 -75 1625 -75 
Q 1050 -75 647 209 
Q 244 494 266 1134 
z
" transform="scale(0.015625)"/>
      <path id="Arial-ItalicMT-31" d="M 1541 0 
L 2266 3459 
Q 1797 3091 947 2869 
L 1053 3381 
Q 1475 3550 1886 3822 
Q 2297 4094 2503 4297 
Q 2628 4422 2741 4600 
L 3069 4600 
L 2109 0 
L 1541 0 
z
" transform="scale(0.015625)"/>
     </defs>
     <use xlink:href="#Arial-ItalicMT-45"/>
     <use xlink:href="#Arial-ItalicMT-70" x="66.699219"/>
     <use xlink:href="#Arial-ItalicMT-73" x="122.314453"/>
     <use xlink:href="#Arial-ItalicMT-74" x="172.314453"/>
     <use xlink:href="#Arial-ItalicMT-69" x="200.097656"/>
     <use xlink:href="#Arial-ItalicMT-31" x="222.314453"/>
    </g>
   </g>
   <g id="line2d_43">
    <path d="M 212.796818 55.383903 
L 213.416377 55.276782 
L 214.035937 55.170161 
L 214.655496 55.064037 
L 215.275055 54.958408 
L 215.894614 54.853272 
L 216.514174 54.748626 
L 217.133733 54.644468 
L 217.753292 54.540796 
L 218.372851 54.437608 
L 218.99241 54.334901 
L 219.61197 54.232673 
L 220.231529 54.130922 
L 220.851088 54.029646 
L 221.470647 53.928842 
L 222.090207 53.828508 
L 222.709766 53.728643 
L 223.329325 53.629243 
L 223.948884 53.530307 
L 224.568444 53.431832 
L 225.188003 53.333817 
L 225.807562 53.236258 
L 226.427121 53.139155 
L 227.04668 53.042505 
L 227.66624 52.946306 
L 228.285799 52.850555 
L 228.905358 52.755251 
L 229.524917 52.660392 
L 230.144477 52.565975 
L 230.764036 52.471999 
L 231.383595 52.378461 
L 232.003154 52.285359 
L 232.622713 52.192691 
L 233.242273 52.100456 
L 233.861832 52.008651 
L 234.481391 51.917274 
L 235.10095 51.826324 
L 235.72051 51.735797 
L 236.340069 51.645693 
L 236.959628 51.55601 
L 237.579187 51.466744 
L 238.198747 51.377895 
L 238.818306 51.289461 
L 239.437865 51.201439 
L 240.057424 51.113827 
L 240.676983 51.026624 
L 241.296543 50.939828 
L 241.916102 50.853437 
L 242.535661 50.767449 
L 243.15522 50.681862 
L 243.77478 50.596674 
L 244.394339 50.511884 
L 245.013898 50.427489 
L 245.633457 50.343487 
L 246.253017 50.259878 
L 246.872576 50.176659 
L 247.492135 50.093827 
L 248.111694 50.011382 
L 248.731253 49.929322 
L 249.350813 49.847645 
L 249.970372 49.766348 
L 250.589931 49.685431 
L 251.20949 49.604891 
L 251.82905 49.524727 
L 252.448609 49.444936 
L 253.068168 49.365518 
L 253.687727 49.286471 
L 254.307287 49.207792 
L 254.926846 49.12948 
L 255.546405 49.051533 
L 256.165964 48.97395 
L 256.785523 48.896729 
L 257.405083 48.819868 
L 258.024642 48.743366 
L 258.644201 48.667221 
L 259.26376 48.59143 
L 259.88332 48.515993 
L 260.502879 48.440909 
L 261.122438 48.366174 
L 261.741997 48.291788 
L 262.361556 48.217749 
L 262.981116 48.144055 
L 263.600675 48.070705 
L 264.220234 47.997697 
L 264.839793 47.92503 
L 265.459353 47.852702 
L 266.078912 47.780711 
L 266.698471 47.709056 
L 267.31803 47.637735 
L 267.93759 47.566747 
L 268.557149 47.49609 
L 269.176708 47.425762 
L 269.796267 47.355763 
L 270.415826 47.28609 
L 271.035386 47.216742 
L 271.654945 47.147718 
L 272.274504 47.079015 
L 272.894063 47.010633 
L 273.513623 46.94257 
L 274.133182 46.874825 
" clip-path="url(#p503b447dbc)" style="fill: none; stroke: #2ca02c; stroke-width: 2; stroke-linecap: round"/>
   </g>
   <g id="PathCollection_3">
    <g clip-path="url(#p503b447dbc)">
     <use xlink:href="#meb8ee13fc3" x="212.796818" y="55.383903" style="stroke: #ffffff; stroke-width: 0.252982"/>
     <use xlink:href="#meb8ee13fc3" x="212.796818" y="55.383903" style="stroke: #ffffff; stroke-width: 0.252982"/>
     <use xlink:href="#meb8ee13fc3" x="223.412727" y="69.446772" style="stroke: #ffffff; stroke-width: 0.252982"/>
     <use xlink:href="#meb8ee13fc3" x="223.412727" y="69.446772" style="stroke: #ffffff; stroke-width: 0.252982"/>
     <use xlink:href="#meb8ee13fc3" x="226.951364" y="73.16024" style="stroke: #ffffff; stroke-width: 0.252982"/>
     <use xlink:href="#meb8ee13fc3" x="226.951364" y="73.16024" style="stroke: #ffffff; stroke-width: 0.252982"/>
     <use xlink:href="#meb8ee13fc3" x="241.105909" y="65.300061" style="stroke: #ffffff; stroke-width: 0.252982"/>
     <use xlink:href="#meb8ee13fc3" x="241.105909" y="65.300061" style="stroke: #ffffff; stroke-width: 0.252982"/>
     <use xlink:href="#meb8ee13fc3" x="216.335455" y="35.35823" style="stroke: #ffffff; stroke-width: 0.252982"/>
     <use xlink:href="#meb8ee13fc3" x="216.335455" y="35.35823" style="stroke: #ffffff; stroke-width: 0.252982"/>
     <use xlink:href="#meb8ee13fc3" x="262.337727" y="32.419273" style="stroke: #ffffff; stroke-width: 0.252982"/>
    </g>
   </g>
   <g id="LineCollection_3">
    <path d="M 212.796818 57.470745 
L 212.796818 53.297062 
" clip-path="url(#p503b447dbc)" style="fill: none; stroke: #000000"/>
    <path d="M 212.796818 57.470745 
L 212.796818 53.297062 
" clip-path="url(#p503b447dbc)" style="fill: none; stroke: #000000"/>
    <path d="M 223.412727 74.173627 
L 223.412727 64.719916 
" clip-path="url(#p503b447dbc)" style="fill: none; stroke: #000000"/>
    <path d="M 223.412727 74.173627 
L 223.412727 64.719916 
" clip-path="url(#p503b447dbc)" style="fill: none; stroke: #000000"/>
    <path d="M 226.951364 82.667898 
L 226.951364 63.652583 
" clip-path="url(#p503b447dbc)" style="fill: none; stroke: #000000"/>
    <path d="M 226.951364 82.667898 
L 226.951364 63.652583 
" clip-path="url(#p503b447dbc)" style="fill: none; stroke: #000000"/>
    <path d="M 241.105909 66.43754 
L 241.105909 64.162582 
" clip-path="url(#p503b447dbc)" style="fill: none; stroke: #000000"/>
    <path d="M 241.105909 66.43754 
L 241.105909 64.162582 
" clip-path="url(#p503b447dbc)" style="fill: none; stroke: #000000"/>
    <path d="M 216.335455 44.265607 
L 216.335455 26.450852 
" clip-path="url(#p503b447dbc)" style="fill: none; stroke: #000000"/>
    <path d="M 216.335455 44.265607 
L 216.335455 26.450852 
" clip-path="url(#p503b447dbc)" style="fill: none; stroke: #000000"/>
    <path d="M 262.337727 33.852477 
L 262.337727 30.986068 
" clip-path="url(#p503b447dbc)" style="fill: none; stroke: #000000"/>
   </g>
   <g id="line2d_44">
    <g clip-path="url(#p503b447dbc)">
     <use xlink:href="#m3c2b3bce59" x="212.796818" y="57.470745" style="stroke: #000000"/>
     <use xlink:href="#m3c2b3bce59" x="212.796818" y="57.470745" style="stroke: #000000"/>
     <use xlink:href="#m3c2b3bce59" x="223.412727" y="74.173627" style="stroke: #000000"/>
     <use xlink:href="#m3c2b3bce59" x="223.412727" y="74.173627" style="stroke: #000000"/>
     <use xlink:href="#m3c2b3bce59" x="226.951364" y="82.667898" style="stroke: #000000"/>
     <use xlink:href="#m3c2b3bce59" x="226.951364" y="82.667898" style="stroke: #000000"/>
     <use xlink:href="#m3c2b3bce59" x="241.105909" y="66.43754" style="stroke: #000000"/>
     <use xlink:href="#m3c2b3bce59" x="241.105909" y="66.43754" style="stroke: #000000"/>
     <use xlink:href="#m3c2b3bce59" x="216.335455" y="44.265607" style="stroke: #000000"/>
     <use xlink:href="#m3c2b3bce59" x="216.335455" y="44.265607" style="stroke: #000000"/>
     <use xlink:href="#m3c2b3bce59" x="262.337727" y="33.852477" style="stroke: #000000"/>
    </g>
   </g>
   <g id="line2d_45">
    <g clip-path="url(#p503b447dbc)">
     <use xlink:href="#m3c2b3bce59" x="212.796818" y="53.297062" style="stroke: #000000"/>
     <use xlink:href="#m3c2b3bce59" x="212.796818" y="53.297062" style="stroke: #000000"/>
     <use xlink:href="#m3c2b3bce59" x="223.412727" y="64.719916" style="stroke: #000000"/>
     <use xlink:href="#m3c2b3bce59" x="223.412727" y="64.719916" style="stroke: #000000"/>
     <use xlink:href="#m3c2b3bce59" x="226.951364" y="63.652583" style="stroke: #000000"/>
     <use xlink:href="#m3c2b3bce59" x="226.951364" y="63.652583" style="stroke: #000000"/>
     <use xlink:href="#m3c2b3bce59" x="241.105909" y="64.162582" style="stroke: #000000"/>
     <use xlink:href="#m3c2b3bce59" x="241.105909" y="64.162582" style="stroke: #000000"/>
     <use xlink:href="#m3c2b3bce59" x="216.335455" y="26.450852" style="stroke: #000000"/>
     <use xlink:href="#m3c2b3bce59" x="216.335455" y="26.450852" style="stroke: #000000"/>
     <use xlink:href="#m3c2b3bce59" x="262.337727" y="30.986068" style="stroke: #000000"/>
    </g>
   </g>
  </g>
 </g>
 <defs>
  <clipPath id="pfd0234969e">
   <rect x="45.19" y="23.64" width="67.47" height="61.83875"/>
  </clipPath>
  <clipPath id="pae3816bc07">
   <rect x="127.46" y="23.64" width="67.47" height="61.83875"/>
  </clipPath>
  <clipPath id="p503b447dbc">
   <rect x="209.73" y="23.64" width="67.47" height="61.83875"/>
  </clipPath>
 </defs>
</svg>
