<?xml version="1.0" encoding="utf-8" standalone="no"?>
<!DOCTYPE svg PUBLIC "-//W3C//DTD SVG 1.1//EN"
  "http://www.w3.org/Graphics/SVG/1.1/DTD/svg11.dtd">
<svg xmlns:xlink="http://www.w3.org/1999/xlink" width="151.2pt" height="144pt" viewBox="0 0 151.2 144" xmlns="http://www.w3.org/2000/svg" version="1.1">
 <metadata>
  <rdf:RDF xmlns:dc="http://purl.org/dc/elements/1.1/" xmlns:cc="http://creativecommons.org/ns#" xmlns:rdf="http://www.w3.org/1999/02/22-rdf-syntax-ns#">
   <cc:Work>
    <dc:type rdf:resource="http://purl.org/dc/dcmitype/StillImage"/>
    <dc:date>2022-09-02T15:09:17.845910</dc:date>
    <dc:format>image/svg+xml</dc:format>
    <dc:creator>
     <cc:Agent>
      <dc:title>Matplotlib v3.5.1, https://matplotlib.org/</dc:title>
     </cc:Agent>
    </dc:creator>
   </cc:Work>
  </rdf:RDF>
 </metadata>
 <defs>
  <style type="text/css">*{stroke-linejoin: round; stroke-linecap: butt}</style>
 </defs>
 <g id="figure_1">
  <g id="patch_1">
   <path d="M 0 144 
L 151.2 144 
L 151.2 0 
L 0 0 
z
" style="fill: #ffffff"/>
  </g>
  <g id="axes_1">
   <g id="patch_2">
    <path d="M 40.51 51.539375 
L 83.055 51.539375 
L 83.055 23.28 
L 40.51 23.28 
z
" style="fill: #ffffff"/>
   </g>
   <g id="matplotlib.axis_1">
    <g id="xtick_1">
     <g id="line2d_1">
      <defs>
       <path id="m916594972e" d="M 0 0 
L 0 4 
" style="stroke: #262626; stroke-width: 0.8"/>
      </defs>
      <g>
       <use xlink:href="#m916594972e" x="42.443864" y="51.539375" style="fill: #262626; stroke: #262626; stroke-width: 0.8"/>
      </g>
     </g>
    </g>
    <g id="xtick_2">
     <g id="line2d_2">
      <g>
       <use xlink:href="#m916594972e" x="51.369388" y="51.539375" style="fill: #262626; stroke: #262626; stroke-width: 0.8"/>
      </g>
     </g>
    </g>
    <g id="xtick_3">
     <g id="line2d_3">
      <g>
       <use xlink:href="#m916594972e" x="60.294913" y="51.539375" style="fill: #262626; stroke: #262626; stroke-width: 0.8"/>
      </g>
     </g>
    </g>
    <g id="xtick_4">
     <g id="line2d_4">
      <g>
       <use xlink:href="#m916594972e" x="69.220437" y="51.539375" style="fill: #262626; stroke: #262626; stroke-width: 0.8"/>
      </g>
     </g>
    </g>
    <g id="xtick_5">
     <g id="line2d_5">
      <g>
       <use xlink:href="#m916594972e" x="78.145962" y="51.539375" style="fill: #262626; stroke: #262626; stroke-width: 0.8"/>
      </g>
     </g>
    </g>
   </g>
   <g id="matplotlib.axis_2">
    <g id="ytick_1">
     <g id="line2d_6">
      <defs>
       <path id="m227e3227ae" d="M 0 0 
L -4 0 
" style="stroke: #262626; stroke-width: 0.8"/>
      </defs>
      <g>
       <use xlink:href="#m227e3227ae" x="40.51" y="46.679427" style="fill: #262626; stroke: #262626; stroke-width: 0.8"/>
      </g>
     </g>
     <g id="text_1">
      <!-- 0.0 -->
      <g style="fill: #262626" transform="translate(23.39 49.542552)scale(0.08 -0.08)">
       <defs>
        <path id="ArialMT-30" d="M 266 2259 
Q 266 3072 433 3567 
Q 600 4063 929 4331 
Q 1259 4600 1759 4600 
Q 2128 4600 2406 4451 
Q 2684 4303 2865 4023 
Q 3047 3744 3150 3342 
Q 3253 2941 3253 2259 
Q 3253 1453 3087 958 
Q 2922 463 2592 192 
Q 2263 -78 1759 -78 
Q 1097 -78 719 397 
Q 266 969 266 2259 
z
M 844 2259 
Q 844 1131 1108 757 
Q 1372 384 1759 384 
Q 2147 384 2411 759 
Q 2675 1134 2675 2259 
Q 2675 3391 2411 3762 
Q 2147 4134 1753 4134 
Q 1366 4134 1134 3806 
Q 844 3388 844 2259 
z
" transform="scale(0.015625)"/>
        <path id="ArialMT-2e" d="M 581 0 
L 581 641 
L 1222 641 
L 1222 0 
L 581 0 
z
" transform="scale(0.015625)"/>
       </defs>
       <use xlink:href="#ArialMT-30"/>
       <use xlink:href="#ArialMT-2e" x="55.615234"/>
       <use xlink:href="#ArialMT-30" x="83.398438"/>
      </g>
     </g>
    </g>
    <g id="ytick_2">
     <g id="line2d_7">
      <g>
       <use xlink:href="#m227e3227ae" x="40.51" y="36.309063" style="fill: #262626; stroke: #262626; stroke-width: 0.8"/>
      </g>
     </g>
     <g id="text_2">
      <!-- 0.5 -->
      <g style="fill: #262626" transform="translate(23.39 39.172188)scale(0.08 -0.08)">
       <defs>
        <path id="ArialMT-35" d="M 266 1200 
L 856 1250 
Q 922 819 1161 601 
Q 1400 384 1738 384 
Q 2144 384 2425 690 
Q 2706 997 2706 1503 
Q 2706 1984 2436 2262 
Q 2166 2541 1728 2541 
Q 1456 2541 1237 2417 
Q 1019 2294 894 2097 
L 366 2166 
L 809 4519 
L 3088 4519 
L 3088 3981 
L 1259 3981 
L 1013 2750 
Q 1425 3038 1878 3038 
Q 2478 3038 2890 2622 
Q 3303 2206 3303 1553 
Q 3303 931 2941 478 
Q 2500 -78 1738 -78 
Q 1113 -78 717 272 
Q 322 622 266 1200 
z
" transform="scale(0.015625)"/>
       </defs>
       <use xlink:href="#ArialMT-30"/>
       <use xlink:href="#ArialMT-2e" x="55.615234"/>
       <use xlink:href="#ArialMT-35" x="83.398438"/>
      </g>
     </g>
    </g>
    <g id="ytick_3">
     <g id="line2d_8">
      <g>
       <use xlink:href="#m227e3227ae" x="40.51" y="25.9387" style="fill: #262626; stroke: #262626; stroke-width: 0.8"/>
      </g>
     </g>
     <g id="text_3">
      <!-- 1.0 -->
      <g style="fill: #262626" transform="translate(23.39 28.801825)scale(0.08 -0.08)">
       <defs>
        <path id="ArialMT-31" d="M 2384 0 
L 1822 0 
L 1822 3584 
Q 1619 3391 1289 3197 
Q 959 3003 697 2906 
L 697 3450 
Q 1169 3672 1522 3987 
Q 1875 4303 2022 4600 
L 2384 4600 
L 2384 0 
z
" transform="scale(0.015625)"/>
       </defs>
       <use xlink:href="#ArialMT-31"/>
       <use xlink:href="#ArialMT-2e" x="55.615234"/>
       <use xlink:href="#ArialMT-30" x="83.398438"/>
      </g>
     </g>
    </g>
    <g id="text_4">
     <!-- expr. norm. -->
     <g style="fill: #262626" transform="translate(17.60125 59.917422)rotate(-90)scale(0.09 -0.09)">
      <defs>
       <path id="ArialMT-65" d="M 2694 1069 
L 3275 997 
Q 3138 488 2766 206 
Q 2394 -75 1816 -75 
Q 1088 -75 661 373 
Q 234 822 234 1631 
Q 234 2469 665 2931 
Q 1097 3394 1784 3394 
Q 2450 3394 2872 2941 
Q 3294 2488 3294 1666 
Q 3294 1616 3291 1516 
L 816 1516 
Q 847 969 1125 678 
Q 1403 388 1819 388 
Q 2128 388 2347 550 
Q 2566 713 2694 1069 
z
M 847 1978 
L 2700 1978 
Q 2663 2397 2488 2606 
Q 2219 2931 1791 2931 
Q 1403 2931 1139 2672 
Q 875 2413 847 1978 
z
" transform="scale(0.015625)"/>
       <path id="ArialMT-78" d="M 47 0 
L 1259 1725 
L 138 3319 
L 841 3319 
L 1350 2541 
Q 1494 2319 1581 2169 
Q 1719 2375 1834 2534 
L 2394 3319 
L 3066 3319 
L 1919 1756 
L 3153 0 
L 2463 0 
L 1781 1031 
L 1600 1309 
L 728 0 
L 47 0 
z
" transform="scale(0.015625)"/>
       <path id="ArialMT-70" d="M 422 -1272 
L 422 3319 
L 934 3319 
L 934 2888 
Q 1116 3141 1344 3267 
Q 1572 3394 1897 3394 
Q 2322 3394 2647 3175 
Q 2972 2956 3137 2557 
Q 3303 2159 3303 1684 
Q 3303 1175 3120 767 
Q 2938 359 2589 142 
Q 2241 -75 1856 -75 
Q 1575 -75 1351 44 
Q 1128 163 984 344 
L 984 -1272 
L 422 -1272 
z
M 931 1641 
Q 931 1000 1190 694 
Q 1450 388 1819 388 
Q 2194 388 2461 705 
Q 2728 1022 2728 1688 
Q 2728 2322 2467 2637 
Q 2206 2953 1844 2953 
Q 1484 2953 1207 2617 
Q 931 2281 931 1641 
z
" transform="scale(0.015625)"/>
       <path id="ArialMT-72" d="M 416 0 
L 416 3319 
L 922 3319 
L 922 2816 
Q 1116 3169 1280 3281 
Q 1444 3394 1641 3394 
Q 1925 3394 2219 3213 
L 2025 2691 
Q 1819 2813 1613 2813 
Q 1428 2813 1281 2702 
Q 1134 2591 1072 2394 
Q 978 2094 978 1738 
L 978 0 
L 416 0 
z
" transform="scale(0.015625)"/>
       <path id="ArialMT-20" transform="scale(0.015625)"/>
       <path id="ArialMT-6e" d="M 422 0 
L 422 3319 
L 928 3319 
L 928 2847 
Q 1294 3394 1984 3394 
Q 2284 3394 2536 3286 
Q 2788 3178 2913 3003 
Q 3038 2828 3088 2588 
Q 3119 2431 3119 2041 
L 3119 0 
L 2556 0 
L 2556 2019 
Q 2556 2363 2490 2533 
Q 2425 2703 2258 2804 
Q 2091 2906 1866 2906 
Q 1506 2906 1245 2678 
Q 984 2450 984 1813 
L 984 0 
L 422 0 
z
" transform="scale(0.015625)"/>
       <path id="ArialMT-6f" d="M 213 1659 
Q 213 2581 725 3025 
Q 1153 3394 1769 3394 
Q 2453 3394 2887 2945 
Q 3322 2497 3322 1706 
Q 3322 1066 3130 698 
Q 2938 331 2570 128 
Q 2203 -75 1769 -75 
Q 1072 -75 642 372 
Q 213 819 213 1659 
z
M 791 1659 
Q 791 1022 1069 705 
Q 1347 388 1769 388 
Q 2188 388 2466 706 
Q 2744 1025 2744 1678 
Q 2744 2294 2464 2611 
Q 2184 2928 1769 2928 
Q 1347 2928 1069 2612 
Q 791 2297 791 1659 
z
" transform="scale(0.015625)"/>
       <path id="ArialMT-6d" d="M 422 0 
L 422 3319 
L 925 3319 
L 925 2853 
Q 1081 3097 1340 3245 
Q 1600 3394 1931 3394 
Q 2300 3394 2536 3241 
Q 2772 3088 2869 2813 
Q 3263 3394 3894 3394 
Q 4388 3394 4653 3120 
Q 4919 2847 4919 2278 
L 4919 0 
L 4359 0 
L 4359 2091 
Q 4359 2428 4304 2576 
Q 4250 2725 4106 2815 
Q 3963 2906 3769 2906 
Q 3419 2906 3187 2673 
Q 2956 2441 2956 1928 
L 2956 0 
L 2394 0 
L 2394 2156 
Q 2394 2531 2256 2718 
Q 2119 2906 1806 2906 
Q 1569 2906 1367 2781 
Q 1166 2656 1075 2415 
Q 984 2175 984 1722 
L 984 0 
L 422 0 
z
" transform="scale(0.015625)"/>
      </defs>
      <use xlink:href="#ArialMT-65"/>
      <use xlink:href="#ArialMT-78" x="55.615234"/>
      <use xlink:href="#ArialMT-70" x="105.615234"/>
      <use xlink:href="#ArialMT-72" x="161.230469"/>
      <use xlink:href="#ArialMT-2e" x="189.03125"/>
      <use xlink:href="#ArialMT-20" x="216.814453"/>
      <use xlink:href="#ArialMT-6e" x="244.597656"/>
      <use xlink:href="#ArialMT-6f" x="300.212891"/>
      <use xlink:href="#ArialMT-72" x="355.828125"/>
      <use xlink:href="#ArialMT-6d" x="389.128906"/>
      <use xlink:href="#ArialMT-2e" x="472.429688"/>
     </g>
    </g>
   </g>
   <g id="patch_3">
    <path d="M 40.51 51.539375 
L 40.51 23.28 
" style="fill: none; stroke: #262626; stroke-linejoin: miter; stroke-linecap: square"/>
   </g>
   <g id="patch_4">
    <path d="M 83.055 51.539375 
L 83.055 23.28 
" style="fill: none; stroke: #262626; stroke-linejoin: miter; stroke-linecap: square"/>
   </g>
   <g id="patch_5">
    <path d="M 40.51 51.539375 
L 83.055 51.539375 
" style="fill: none; stroke: #262626; stroke-linejoin: miter; stroke-linecap: square"/>
   </g>
   <g id="patch_6">
    <path d="M 40.51 23.28 
L 83.055 23.28 
" style="fill: none; stroke: #262626; stroke-linejoin: miter; stroke-linecap: square"/>
   </g>
   <g id="text_5">
    <!-- Sdf2l1 -->
    <g style="fill: #262626" transform="translate(49.023594 17.28)scale(0.09 -0.09)">
     <defs>
      <path id="Arial-ItalicMT-53" d="M 450 1481 
L 1050 1538 
L 1044 1378 
Q 1044 1113 1166 892 
Q 1288 672 1569 551 
Q 1850 431 2238 431 
Q 2788 431 3077 672 
Q 3366 913 3366 1222 
Q 3366 1438 3213 1616 
Q 3056 1791 2359 2091 
Q 1819 2325 1622 2450 
Q 1313 2653 1166 2892 
Q 1019 3131 1019 3438 
Q 1019 3791 1212 4075 
Q 1406 4359 1779 4509 
Q 2153 4659 2622 4659 
Q 3181 4659 3565 4471 
Q 3950 4284 4123 3971 
Q 4297 3659 4297 3375 
Q 4297 3347 4294 3281 
L 3703 3234 
Q 3703 3428 3669 3538 
Q 3606 3728 3475 3859 
Q 3344 3991 3114 4070 
Q 2884 4150 2600 4150 
Q 2100 4150 1822 3925 
Q 1609 3753 1609 3469 
Q 1609 3300 1696 3167 
Q 1784 3034 2013 2906 
Q 2175 2816 2784 2547 
Q 3278 2328 3466 2203 
Q 3716 2038 3850 1802 
Q 3984 1566 3984 1266 
Q 3984 894 3757 580 
Q 3531 266 3131 94 
Q 2731 -78 2216 -78 
Q 1438 -78 945 261 
Q 453 600 450 1481 
z
" transform="scale(0.015625)"/>
      <path id="Arial-ItalicMT-64" d="M 2450 481 
Q 1966 -75 1438 -75 
Q 966 -75 652 273 
Q 338 622 338 1284 
Q 338 1891 586 2392 
Q 834 2894 1207 3144 
Q 1581 3394 1956 3394 
Q 2575 3394 2891 2797 
L 3266 4581 
L 3828 4581 
L 2872 0 
L 2350 0 
L 2450 481 
z
M 900 1391 
Q 900 1044 969 844 
Q 1038 644 1203 511 
Q 1369 378 1600 378 
Q 1984 378 2297 778 
Q 2716 1309 2716 2091 
Q 2716 2484 2509 2706 
Q 2303 2928 1991 2928 
Q 1788 2928 1620 2837 
Q 1453 2747 1289 2530 
Q 1125 2313 1012 1978 
Q 900 1644 900 1391 
z
" transform="scale(0.015625)"/>
      <path id="Arial-ItalicMT-66" d="M 291 0 
L 894 2881 
L 388 2881 
L 478 3319 
L 984 3319 
L 1081 3791 
Q 1156 4144 1236 4300 
Q 1316 4456 1495 4557 
Q 1675 4659 1984 4659 
Q 2200 4659 2609 4569 
L 2506 4075 
Q 2219 4150 2025 4150 
Q 1859 4150 1773 4067 
Q 1688 3984 1625 3675 
L 1550 3319 
L 2181 3319 
L 2091 2881 
L 1459 2881 
L 856 0 
L 291 0 
z
" transform="scale(0.015625)"/>
      <path id="Arial-ItalicMT-32" d="M 375 0 
Q 463 409 617 686 
Q 772 963 1028 1211 
Q 1284 1459 2016 2044 
Q 2459 2397 2622 2566 
Q 2856 2809 2963 3044 
Q 3034 3203 3034 3391 
Q 3034 3706 2811 3926 
Q 2588 4147 2263 4147 
Q 1941 4147 1700 3923 
Q 1459 3700 1356 3206 
L 803 3288 
Q 884 3897 1276 4248 
Q 1669 4600 2253 4600 
Q 2644 4600 2961 4437 
Q 3278 4275 3437 3981 
Q 3597 3688 3597 3375 
Q 3597 2919 3272 2497 
Q 3072 2234 2097 1463 
Q 1678 1131 1473 918 
Q 1269 706 1166 519 
L 3216 519 
L 3106 0 
L 375 0 
z
" transform="scale(0.015625)"/>
      <path id="Arial-ItalicMT-6c" d="M 169 0 
L 1125 4581 
L 1691 4581 
L 734 0 
L 169 0 
z
" transform="scale(0.015625)"/>
      <path id="Arial-ItalicMT-31" d="M 1541 0 
L 2266 3459 
Q 1797 3091 947 2869 
L 1053 3381 
Q 1475 3550 1886 3822 
Q 2297 4094 2503 4297 
Q 2628 4422 2741 4600 
L 3069 4600 
L 2109 0 
L 1541 0 
z
" transform="scale(0.015625)"/>
     </defs>
     <use xlink:href="#Arial-ItalicMT-53"/>
     <use xlink:href="#Arial-ItalicMT-64" x="66.699219"/>
     <use xlink:href="#Arial-ItalicMT-66" x="122.314453"/>
     <use xlink:href="#Arial-ItalicMT-32" x="150.097656"/>
     <use xlink:href="#Arial-ItalicMT-6c" x="205.712891"/>
     <use xlink:href="#Arial-ItalicMT-31" x="227.929688"/>
    </g>
   </g>
   <g id="line2d_9">
    <path d="M 42.443864 46.679427 
L 42.834543 45.728724 
L 43.225223 44.821599 
L 43.615902 43.956054 
L 44.006582 43.130184 
L 44.397261 42.342169 
L 44.787941 41.590276 
L 45.17862 40.872847 
L 45.5693 40.188303 
L 45.959979 39.535137 
L 46.350659 38.91191 
L 46.741338 38.317251 
L 47.132018 37.749849 
L 47.522697 37.208455 
L 47.913377 36.691878 
L 48.304056 36.198979 
L 48.694736 35.728674 
L 49.085416 35.279926 
L 49.476095 34.851748 
L 49.866775 34.443196 
L 50.257454 34.053371 
L 50.648134 33.681415 
L 51.038813 33.326508 
L 51.429493 32.98787 
L 51.820172 32.664753 
L 52.210852 32.356448 
L 52.601531 32.062275 
L 52.992211 31.781585 
L 53.38289 31.513762 
L 53.77357 31.258215 
L 54.164249 31.014382 
L 54.554929 30.781725 
L 54.945608 30.559733 
L 55.336288 30.347917 
L 55.726967 30.145809 
L 56.117647 29.952966 
L 56.508326 29.768962 
L 56.899006 29.593392 
L 57.289685 29.42587 
L 57.680365 29.266027 
L 58.071045 29.113511 
L 58.461724 28.967986 
L 58.852404 28.829131 
L 59.243083 28.696641 
L 59.633763 28.570223 
L 60.024442 28.449601 
L 60.415122 28.334508 
L 60.805801 28.22469 
L 61.196481 28.119906 
L 61.58716 28.019925 
L 61.97784 27.924527 
L 62.368519 27.833501 
L 62.759199 27.746648 
L 63.149878 27.663777 
L 63.540558 27.584703 
L 63.931237 27.509255 
L 64.321917 27.437264 
L 64.712596 27.368574 
L 65.103276 27.303032 
L 65.493955 27.240495 
L 65.884635 27.180824 
L 66.275315 27.123888 
L 66.665994 27.069562 
L 67.056674 27.017726 
L 67.447353 26.968266 
L 67.838033 26.921073 
L 68.228712 26.876044 
L 68.619392 26.833078 
L 69.010071 26.792082 
L 69.400751 26.752965 
L 69.79143 26.715641 
L 70.18211 26.680028 
L 70.572789 26.646048 
L 70.963469 26.613625 
L 71.354148 26.582688 
L 71.744828 26.553169 
L 72.135507 26.525003 
L 72.526187 26.498129 
L 72.916866 26.472486 
L 73.307546 26.448018 
L 73.698225 26.424672 
L 74.088905 26.402397 
L 74.479584 26.381142 
L 74.870264 26.360862 
L 75.260944 26.341511 
L 75.651623 26.323047 
L 76.042303 26.305429 
L 76.432982 26.288619 
L 76.823662 26.27258 
L 77.214341 26.257276 
L 77.605021 26.242673 
L 77.9957 26.22874 
L 78.38638 26.215445 
L 78.777059 26.20276 
L 79.167739 26.190656 
L 79.558418 26.179107 
L 79.949098 26.168087 
L 80.339777 26.157573 
L 80.730457 26.14754 
L 81.121136 26.137967 
" clip-path="url(#p8ec7cefdfc)" style="fill: none; stroke: #2ca02c; stroke-width: 2; stroke-linecap: round"/>
   </g>
   <g id="PathCollection_1">
    <defs>
     <path id="m6f8c362ba6" d="M 0 1.581139 
C 0.419323 1.581139 0.821528 1.41454 1.118034 1.118034 
C 1.41454 0.821528 1.581139 0.419323 1.581139 0 
C 1.581139 -0.419323 1.41454 -0.821528 1.118034 -1.118034 
C 0.821528 -1.41454 0.419323 -1.581139 0 -1.581139 
C -0.419323 -1.581139 -0.821528 -1.41454 -1.118034 -1.118034 
C -1.41454 -0.821528 -1.581139 -0.419323 -1.581139 0 
C -1.581139 0.419323 -1.41454 0.821528 -1.118034 1.118034 
C -0.821528 1.41454 -0.419323 1.581139 0 1.581139 
z
" style="stroke: #ffffff; stroke-width: 0.252982"/>
    </defs>
    <g clip-path="url(#p8ec7cefdfc)">
     <use xlink:href="#m6f8c362ba6" x="42.443864" y="46.679427" style="stroke: #ffffff; stroke-width: 0.252982"/>
     <use xlink:href="#m6f8c362ba6" x="42.443864" y="46.679427" style="stroke: #ffffff; stroke-width: 0.252982"/>
     <use xlink:href="#m6f8c362ba6" x="49.138007" y="31.172178" style="stroke: #ffffff; stroke-width: 0.252982"/>
     <use xlink:href="#m6f8c362ba6" x="49.138007" y="31.172178" style="stroke: #ffffff; stroke-width: 0.252982"/>
     <use xlink:href="#m6f8c362ba6" x="51.369388" y="29.055449" style="stroke: #ffffff; stroke-width: 0.252982"/>
     <use xlink:href="#m6f8c362ba6" x="51.369388" y="29.055449" style="stroke: #ffffff; stroke-width: 0.252982"/>
     <use xlink:href="#m6f8c362ba6" x="60.294913" y="28.657282" style="stroke: #ffffff; stroke-width: 0.252982"/>
     <use xlink:href="#m6f8c362ba6" x="60.294913" y="28.657282" style="stroke: #ffffff; stroke-width: 0.252982"/>
     <use xlink:href="#m6f8c362ba6" x="44.675245" y="47.319841" style="stroke: #ffffff; stroke-width: 0.252982"/>
     <use xlink:href="#m6f8c362ba6" x="44.675245" y="47.319841" style="stroke: #ffffff; stroke-width: 0.252982"/>
     <use xlink:href="#m6f8c362ba6" x="73.683199" y="25.9387" style="stroke: #ffffff; stroke-width: 0.252982"/>
    </g>
   </g>
   <g id="LineCollection_1">
    <path d="M 42.443864 47.508274 
L 42.443864 45.85058 
" clip-path="url(#p8ec7cefdfc)" style="fill: none; stroke: #000000"/>
    <path d="M 42.443864 47.508274 
L 42.443864 45.85058 
" clip-path="url(#p8ec7cefdfc)" style="fill: none; stroke: #000000"/>
    <path d="M 49.138007 36.406563 
L 49.138007 25.937794 
" clip-path="url(#p8ec7cefdfc)" style="fill: none; stroke: #000000"/>
    <path d="M 49.138007 36.406563 
L 49.138007 25.937794 
" clip-path="url(#p8ec7cefdfc)" style="fill: none; stroke: #000000"/>
    <path d="M 51.369388 33.546381 
L 51.369388 24.564517 
" clip-path="url(#p8ec7cefdfc)" style="fill: none; stroke: #000000"/>
    <path d="M 51.369388 33.546381 
L 51.369388 24.564517 
" clip-path="url(#p8ec7cefdfc)" style="fill: none; stroke: #000000"/>
    <path d="M 60.294913 29.664221 
L 60.294913 27.650343 
" clip-path="url(#p8ec7cefdfc)" style="fill: none; stroke: #000000"/>
    <path d="M 60.294913 29.664221 
L 60.294913 27.650343 
" clip-path="url(#p8ec7cefdfc)" style="fill: none; stroke: #000000"/>
    <path d="M 44.675245 50.254858 
L 44.675245 44.384824 
" clip-path="url(#p8ec7cefdfc)" style="fill: none; stroke: #000000"/>
    <path d="M 44.675245 50.254858 
L 44.675245 44.384824 
" clip-path="url(#p8ec7cefdfc)" style="fill: none; stroke: #000000"/>
    <path d="M 73.683199 26.685057 
L 73.683199 25.192343 
" clip-path="url(#p8ec7cefdfc)" style="fill: none; stroke: #000000"/>
   </g>
   <g id="line2d_10">
    <defs>
     <path id="me42f3dcafd" d="M 2 0 
L -2 -0 
" style="stroke: #000000"/>
    </defs>
    <g clip-path="url(#p8ec7cefdfc)">
     <use xlink:href="#me42f3dcafd" x="42.443864" y="47.508274" style="stroke: #000000"/>
     <use xlink:href="#me42f3dcafd" x="42.443864" y="47.508274" style="stroke: #000000"/>
     <use xlink:href="#me42f3dcafd" x="49.138007" y="36.406563" style="stroke: #000000"/>
     <use xlink:href="#me42f3dcafd" x="49.138007" y="36.406563" style="stroke: #000000"/>
     <use xlink:href="#me42f3dcafd" x="51.369388" y="33.546381" style="stroke: #000000"/>
     <use xlink:href="#me42f3dcafd" x="51.369388" y="33.546381" style="stroke: #000000"/>
     <use xlink:href="#me42f3dcafd" x="60.294913" y="29.664221" style="stroke: #000000"/>
     <use xlink:href="#me42f3dcafd" x="60.294913" y="29.664221" style="stroke: #000000"/>
     <use xlink:href="#me42f3dcafd" x="44.675245" y="50.254858" style="stroke: #000000"/>
     <use xlink:href="#me42f3dcafd" x="44.675245" y="50.254858" style="stroke: #000000"/>
     <use xlink:href="#me42f3dcafd" x="73.683199" y="26.685057" style="stroke: #000000"/>
    </g>
   </g>
   <g id="line2d_11">
    <g clip-path="url(#p8ec7cefdfc)">
     <use xlink:href="#me42f3dcafd" x="42.443864" y="45.85058" style="stroke: #000000"/>
     <use xlink:href="#me42f3dcafd" x="42.443864" y="45.85058" style="stroke: #000000"/>
     <use xlink:href="#me42f3dcafd" x="49.138007" y="25.937794" style="stroke: #000000"/>
     <use xlink:href="#me42f3dcafd" x="49.138007" y="25.937794" style="stroke: #000000"/>
     <use xlink:href="#me42f3dcafd" x="51.369388" y="24.564517" style="stroke: #000000"/>
     <use xlink:href="#me42f3dcafd" x="51.369388" y="24.564517" style="stroke: #000000"/>
     <use xlink:href="#me42f3dcafd" x="60.294913" y="27.650343" style="stroke: #000000"/>
     <use xlink:href="#me42f3dcafd" x="60.294913" y="27.650343" style="stroke: #000000"/>
     <use xlink:href="#me42f3dcafd" x="44.675245" y="44.384824" style="stroke: #000000"/>
     <use xlink:href="#me42f3dcafd" x="44.675245" y="44.384824" style="stroke: #000000"/>
     <use xlink:href="#me42f3dcafd" x="73.683199" y="25.192343" style="stroke: #000000"/>
    </g>
   </g>
  </g>
  <g id="axes_2">
   <g id="patch_7">
    <path d="M 97.855 51.539375 
L 140.4 51.539375 
L 140.4 23.28 
L 97.855 23.28 
z
" style="fill: #ffffff"/>
   </g>
   <g id="matplotlib.axis_3">
    <g id="xtick_6">
     <g id="line2d_12">
      <g>
       <use xlink:href="#m916594972e" x="99.788864" y="51.539375" style="fill: #262626; stroke: #262626; stroke-width: 0.8"/>
      </g>
     </g>
    </g>
    <g id="xtick_7">
     <g id="line2d_13">
      <g>
       <use xlink:href="#m916594972e" x="108.714388" y="51.539375" style="fill: #262626; stroke: #262626; stroke-width: 0.8"/>
      </g>
     </g>
    </g>
    <g id="xtick_8">
     <g id="line2d_14">
      <g>
       <use xlink:href="#m916594972e" x="117.639913" y="51.539375" style="fill: #262626; stroke: #262626; stroke-width: 0.8"/>
      </g>
     </g>
    </g>
    <g id="xtick_9">
     <g id="line2d_15">
      <g>
       <use xlink:href="#m916594972e" x="126.565437" y="51.539375" style="fill: #262626; stroke: #262626; stroke-width: 0.8"/>
      </g>
     </g>
    </g>
    <g id="xtick_10">
     <g id="line2d_16">
      <g>
       <use xlink:href="#m916594972e" x="135.490962" y="51.539375" style="fill: #262626; stroke: #262626; stroke-width: 0.8"/>
      </g>
     </g>
    </g>
   </g>
   <g id="matplotlib.axis_4">
    <g id="ytick_4">
     <g id="line2d_17">
      <g>
       <use xlink:href="#m227e3227ae" x="97.855" y="47.927619" style="fill: #262626; stroke: #262626; stroke-width: 0.8"/>
      </g>
     </g>
    </g>
    <g id="ytick_5">
     <g id="line2d_18">
      <g>
       <use xlink:href="#m227e3227ae" x="97.855" y="36.857847" style="fill: #262626; stroke: #262626; stroke-width: 0.8"/>
      </g>
     </g>
    </g>
    <g id="ytick_6">
     <g id="line2d_19">
      <g>
       <use xlink:href="#m227e3227ae" x="97.855" y="25.788076" style="fill: #262626; stroke: #262626; stroke-width: 0.8"/>
      </g>
     </g>
    </g>
   </g>
   <g id="patch_8">
    <path d="M 97.855 51.539375 
L 97.855 23.28 
" style="fill: none; stroke: #262626; stroke-linejoin: miter; stroke-linecap: square"/>
   </g>
   <g id="patch_9">
    <path d="M 140.4 51.539375 
L 140.4 23.28 
" style="fill: none; stroke: #262626; stroke-linejoin: miter; stroke-linecap: square"/>
   </g>
   <g id="patch_10">
    <path d="M 97.855 51.539375 
L 140.4 51.539375 
" style="fill: none; stroke: #262626; stroke-linejoin: miter; stroke-linecap: square"/>
   </g>
   <g id="patch_11">
    <path d="M 97.855 23.28 
L 140.4 23.28 
" style="fill: none; stroke: #262626; stroke-linejoin: miter; stroke-linecap: square"/>
   </g>
   <g id="line2d_20">
    <path d="M 99.788864 47.927619 
L 100.179543 47.927619 
L 100.570223 47.927619 
L 100.960902 47.927619 
L 101.351582 47.927619 
L 101.742261 47.927619 
L 102.132941 47.927619 
L 102.52362 47.927619 
L 102.9143 47.927619 
L 103.304979 47.927619 
L 103.695659 47.927619 
L 104.086338 47.927619 
L 104.477018 47.927619 
L 104.867697 47.927619 
L 105.258377 47.927619 
L 105.649056 47.927619 
L 106.039736 47.927619 
L 106.430416 47.927619 
L 106.821095 47.927619 
L 107.211775 47.927619 
L 107.602454 47.927618 
L 107.993134 47.927617 
L 108.383813 47.927613 
L 108.774493 47.927599 
L 109.165172 47.927556 
L 109.555852 47.927433 
L 109.946531 47.927112 
L 110.337211 47.926334 
L 110.72789 47.924576 
L 111.11857 47.920858 
L 111.509249 47.913464 
L 111.899929 47.899576 
L 112.290608 47.874857 
L 112.681288 47.833018 
L 113.071967 47.765472 
L 113.462647 47.661176 
L 113.853326 47.506763 
L 114.244006 47.287048 
L 114.634685 46.985941 
L 115.025365 46.587724 
L 115.416045 46.078576 
L 115.806724 45.448164 
L 116.197404 44.691094 
L 116.588083 43.807995 
L 116.978763 42.806086 
L 117.369442 41.699107 
L 117.760122 40.506628 
L 118.150801 39.252794 
L 118.541481 37.964686 
L 118.93216 36.670471 
L 119.32284 35.397568 
L 119.713519 34.171011 
L 120.104199 33.012146 
L 120.494878 31.937767 
L 120.885558 30.959695 
L 121.276237 30.084781 
L 121.666917 29.315265 
L 122.057596 28.649394 
L 122.448276 28.082205 
L 122.838955 27.606355 
L 123.229635 27.212954 
L 123.620315 26.892298 
L 124.010994 26.634498 
L 124.401674 26.429967 
L 124.792353 26.269774 
L 125.183033 26.145859 
L 125.573712 26.051159 
L 125.964392 25.979628 
L 126.355071 25.926207 
L 126.745751 25.88675 
L 127.13643 25.857917 
L 127.52711 25.837066 
L 127.917789 25.822138 
L 128.308469 25.811556 
L 128.699148 25.804125 
L 129.089828 25.798956 
L 129.480507 25.795393 
L 129.871187 25.792958 
L 130.261866 25.791308 
L 130.652546 25.7902 
L 131.043225 25.789461 
L 131.433905 25.788973 
L 131.824584 25.788653 
L 132.215264 25.788444 
L 132.605944 25.788309 
L 132.996623 25.788223 
L 133.387303 25.788168 
L 133.777982 25.788133 
L 134.168662 25.788111 
L 134.559341 25.788097 
L 134.950021 25.788089 
L 135.3407 25.788084 
L 135.73138 25.78808 
L 136.122059 25.788078 
L 136.512739 25.788077 
L 136.903418 25.788077 
L 137.294098 25.788076 
L 137.684777 25.788076 
L 138.075457 25.788076 
L 138.466136 25.788076 
" clip-path="url(#pfe38d01f7e)" style="fill: none; stroke: #1f77b4; stroke-width: 2; stroke-linecap: round"/>
   </g>
   <g id="text_6">
    <!-- Alox12 -->
    <g style="fill: #262626" transform="translate(105.36875 17.28)scale(0.09 -0.09)">
     <defs>
      <path id="Arial-ItalicMT-41" d="M -128 0 
L 2469 4581 
L 3191 4581 
L 3947 0 
L 3353 0 
L 3131 1319 
L 1278 1319 
L 544 0 
L -128 0 
z
M 1541 1791 
L 3056 1791 
L 2878 2941 
Q 2775 3625 2750 4081 
Q 2594 3688 2294 3147 
L 1541 1791 
z
" transform="scale(0.015625)"/>
      <path id="Arial-ItalicMT-6f" d="M 313 1259 
Q 313 2231 884 2869 
Q 1356 3394 2122 3394 
Q 2722 3394 3089 3019 
Q 3456 2644 3456 2006 
Q 3456 1434 3225 942 
Q 2994 450 2567 187 
Q 2141 -75 1669 -75 
Q 1281 -75 964 90 
Q 647 256 480 559 
Q 313 863 313 1259 
z
M 878 1316 
Q 878 847 1103 605 
Q 1328 363 1675 363 
Q 1856 363 2034 436 
Q 2213 509 2366 659 
Q 2519 809 2626 1001 
Q 2734 1194 2800 1416 
Q 2897 1725 2897 2009 
Q 2897 2459 2670 2707 
Q 2444 2956 2100 2956 
Q 1834 2956 1615 2829 
Q 1397 2703 1220 2459 
Q 1044 2216 961 1892 
Q 878 1569 878 1316 
z
" transform="scale(0.015625)"/>
      <path id="Arial-ItalicMT-78" d="M -9 0 
L 1434 1684 
L 606 3319 
L 1231 3319 
L 1513 2728 
Q 1669 2397 1794 2094 
L 2750 3319 
L 3441 3319 
L 2047 1641 
L 2884 0 
L 2259 0 
L 1928 675 
Q 1822 891 1688 1209 
L 700 0 
L -9 0 
z
" transform="scale(0.015625)"/>
     </defs>
     <use xlink:href="#Arial-ItalicMT-41"/>
     <use xlink:href="#Arial-ItalicMT-6c" x="66.699219"/>
     <use xlink:href="#Arial-ItalicMT-6f" x="88.916016"/>
     <use xlink:href="#Arial-ItalicMT-78" x="144.53125"/>
     <use xlink:href="#Arial-ItalicMT-31" x="194.53125"/>
     <use xlink:href="#Arial-ItalicMT-32" x="250.146484"/>
    </g>
   </g>
   <g id="PathCollection_2">
    <g clip-path="url(#pfe38d01f7e)">
     <use xlink:href="#m6f8c362ba6" x="99.788864" y="47.927619" style="stroke: #ffffff; stroke-width: 0.252982"/>
     <use xlink:href="#m6f8c362ba6" x="99.788864" y="47.927619" style="stroke: #ffffff; stroke-width: 0.252982"/>
     <use xlink:href="#m6f8c362ba6" x="106.483007" y="46.733136" style="stroke: #ffffff; stroke-width: 0.252982"/>
     <use xlink:href="#m6f8c362ba6" x="106.483007" y="46.733136" style="stroke: #ffffff; stroke-width: 0.252982"/>
     <use xlink:href="#m6f8c362ba6" x="108.714388" y="47.763598" style="stroke: #ffffff; stroke-width: 0.252982"/>
     <use xlink:href="#m6f8c362ba6" x="108.714388" y="47.763598" style="stroke: #ffffff; stroke-width: 0.252982"/>
     <use xlink:href="#m6f8c362ba6" x="117.639913" y="40.881272" style="stroke: #ffffff; stroke-width: 0.252982"/>
     <use xlink:href="#m6f8c362ba6" x="117.639913" y="40.881272" style="stroke: #ffffff; stroke-width: 0.252982"/>
     <use xlink:href="#m6f8c362ba6" x="102.020245" y="44.280448" style="stroke: #ffffff; stroke-width: 0.252982"/>
     <use xlink:href="#m6f8c362ba6" x="102.020245" y="44.280448" style="stroke: #ffffff; stroke-width: 0.252982"/>
     <use xlink:href="#m6f8c362ba6" x="131.028199" y="25.788076" style="stroke: #ffffff; stroke-width: 0.252982"/>
    </g>
   </g>
   <g id="LineCollection_2">
    <path d="M 99.788864 48.582906 
L 99.788864 47.272332 
" clip-path="url(#pfe38d01f7e)" style="fill: none; stroke: #000000"/>
    <path d="M 99.788864 48.582906 
L 99.788864 47.272332 
" clip-path="url(#pfe38d01f7e)" style="fill: none; stroke: #000000"/>
    <path d="M 106.483007 47.767102 
L 106.483007 45.69917 
" clip-path="url(#pfe38d01f7e)" style="fill: none; stroke: #000000"/>
    <path d="M 106.483007 47.767102 
L 106.483007 45.69917 
" clip-path="url(#pfe38d01f7e)" style="fill: none; stroke: #000000"/>
    <path d="M 108.714388 50.254858 
L 108.714388 45.272339 
" clip-path="url(#pfe38d01f7e)" style="fill: none; stroke: #000000"/>
    <path d="M 108.714388 50.254858 
L 108.714388 45.272339 
" clip-path="url(#pfe38d01f7e)" style="fill: none; stroke: #000000"/>
    <path d="M 117.639913 43.140572 
L 117.639913 38.621972 
" clip-path="url(#pfe38d01f7e)" style="fill: none; stroke: #000000"/>
    <path d="M 117.639913 43.140572 
L 117.639913 38.621972 
" clip-path="url(#pfe38d01f7e)" style="fill: none; stroke: #000000"/>
    <path d="M 102.020245 45.868452 
L 102.020245 42.692445 
" clip-path="url(#pfe38d01f7e)" style="fill: none; stroke: #000000"/>
    <path d="M 102.020245 45.868452 
L 102.020245 42.692445 
" clip-path="url(#pfe38d01f7e)" style="fill: none; stroke: #000000"/>
    <path d="M 131.028199 27.011634 
L 131.028199 24.564517 
" clip-path="url(#pfe38d01f7e)" style="fill: none; stroke: #000000"/>
   </g>
   <g id="line2d_21">
    <g clip-path="url(#pfe38d01f7e)">
     <use xlink:href="#me42f3dcafd" x="99.788864" y="48.582906" style="stroke: #000000"/>
     <use xlink:href="#me42f3dcafd" x="99.788864" y="48.582906" style="stroke: #000000"/>
     <use xlink:href="#me42f3dcafd" x="106.483007" y="47.767102" style="stroke: #000000"/>
     <use xlink:href="#me42f3dcafd" x="106.483007" y="47.767102" style="stroke: #000000"/>
     <use xlink:href="#me42f3dcafd" x="108.714388" y="50.254858" style="stroke: #000000"/>
     <use xlink:href="#me42f3dcafd" x="108.714388" y="50.254858" style="stroke: #000000"/>
     <use xlink:href="#me42f3dcafd" x="117.639913" y="43.140572" style="stroke: #000000"/>
     <use xlink:href="#me42f3dcafd" x="117.639913" y="43.140572" style="stroke: #000000"/>
     <use xlink:href="#me42f3dcafd" x="102.020245" y="45.868452" style="stroke: #000000"/>
     <use xlink:href="#me42f3dcafd" x="102.020245" y="45.868452" style="stroke: #000000"/>
     <use xlink:href="#me42f3dcafd" x="131.028199" y="27.011634" style="stroke: #000000"/>
    </g>
   </g>
   <g id="line2d_22">
    <g clip-path="url(#pfe38d01f7e)">
     <use xlink:href="#me42f3dcafd" x="99.788864" y="47.272332" style="stroke: #000000"/>
     <use xlink:href="#me42f3dcafd" x="99.788864" y="47.272332" style="stroke: #000000"/>
     <use xlink:href="#me42f3dcafd" x="106.483007" y="45.69917" style="stroke: #000000"/>
     <use xlink:href="#me42f3dcafd" x="106.483007" y="45.69917" style="stroke: #000000"/>
     <use xlink:href="#me42f3dcafd" x="108.714388" y="45.272339" style="stroke: #000000"/>
     <use xlink:href="#me42f3dcafd" x="108.714388" y="45.272339" style="stroke: #000000"/>
     <use xlink:href="#me42f3dcafd" x="117.639913" y="38.621972" style="stroke: #000000"/>
     <use xlink:href="#me42f3dcafd" x="117.639913" y="38.621972" style="stroke: #000000"/>
     <use xlink:href="#me42f3dcafd" x="102.020245" y="42.692445" style="stroke: #000000"/>
     <use xlink:href="#me42f3dcafd" x="102.020245" y="42.692445" style="stroke: #000000"/>
     <use xlink:href="#me42f3dcafd" x="131.028199" y="24.564517" style="stroke: #000000"/>
    </g>
   </g>
  </g>
  <g id="axes_3">
   <g id="patch_12">
    <path d="M 40.51 107.07875 
L 83.055 107.07875 
L 83.055 78.819375 
L 40.51 78.819375 
z
" style="fill: #ffffff"/>
   </g>
   <g id="matplotlib.axis_5">
    <g id="xtick_11">
     <g id="line2d_23">
      <g>
       <use xlink:href="#m916594972e" x="42.443864" y="107.07875" style="fill: #262626; stroke: #262626; stroke-width: 0.8"/>
      </g>
     </g>
     <g id="text_7">
      <!-- 0 -->
      <g style="fill: #262626" transform="translate(40.219489 118.805)scale(0.08 -0.08)">
       <use xlink:href="#ArialMT-30"/>
      </g>
     </g>
    </g>
    <g id="xtick_12">
     <g id="line2d_24">
      <g>
       <use xlink:href="#m916594972e" x="51.369388" y="107.07875" style="fill: #262626; stroke: #262626; stroke-width: 0.8"/>
      </g>
     </g>
     <g id="text_8">
      <!-- 24 -->
      <g style="fill: #262626" transform="translate(46.920638 118.805)scale(0.08 -0.08)">
       <defs>
        <path id="ArialMT-32" d="M 3222 541 
L 3222 0 
L 194 0 
Q 188 203 259 391 
Q 375 700 629 1000 
Q 884 1300 1366 1694 
Q 2113 2306 2375 2664 
Q 2638 3022 2638 3341 
Q 2638 3675 2398 3904 
Q 2159 4134 1775 4134 
Q 1369 4134 1125 3890 
Q 881 3647 878 3216 
L 300 3275 
Q 359 3922 746 4261 
Q 1134 4600 1788 4600 
Q 2447 4600 2831 4234 
Q 3216 3869 3216 3328 
Q 3216 3053 3103 2787 
Q 2991 2522 2730 2228 
Q 2469 1934 1863 1422 
Q 1356 997 1212 845 
Q 1069 694 975 541 
L 3222 541 
z
" transform="scale(0.015625)"/>
        <path id="ArialMT-34" d="M 2069 0 
L 2069 1097 
L 81 1097 
L 81 1613 
L 2172 4581 
L 2631 4581 
L 2631 1613 
L 3250 1613 
L 3250 1097 
L 2631 1097 
L 2631 0 
L 2069 0 
z
M 2069 1613 
L 2069 3678 
L 634 1613 
L 2069 1613 
z
" transform="scale(0.015625)"/>
       </defs>
       <use xlink:href="#ArialMT-32"/>
       <use xlink:href="#ArialMT-34" x="55.615234"/>
      </g>
     </g>
    </g>
    <g id="xtick_13">
     <g id="line2d_25">
      <g>
       <use xlink:href="#m916594972e" x="60.294913" y="107.07875" style="fill: #262626; stroke: #262626; stroke-width: 0.8"/>
      </g>
     </g>
     <g id="text_9">
      <!-- 48 -->
      <g style="fill: #262626" transform="translate(55.846163 118.805)scale(0.08 -0.08)">
       <defs>
        <path id="ArialMT-38" d="M 1131 2484 
Q 781 2613 612 2850 
Q 444 3088 444 3419 
Q 444 3919 803 4259 
Q 1163 4600 1759 4600 
Q 2359 4600 2725 4251 
Q 3091 3903 3091 3403 
Q 3091 3084 2923 2848 
Q 2756 2613 2416 2484 
Q 2838 2347 3058 2040 
Q 3278 1734 3278 1309 
Q 3278 722 2862 322 
Q 2447 -78 1769 -78 
Q 1091 -78 675 323 
Q 259 725 259 1325 
Q 259 1772 486 2073 
Q 713 2375 1131 2484 
z
M 1019 3438 
Q 1019 3113 1228 2906 
Q 1438 2700 1772 2700 
Q 2097 2700 2305 2904 
Q 2513 3109 2513 3406 
Q 2513 3716 2298 3927 
Q 2084 4138 1766 4138 
Q 1444 4138 1231 3931 
Q 1019 3725 1019 3438 
z
M 838 1322 
Q 838 1081 952 856 
Q 1066 631 1291 507 
Q 1516 384 1775 384 
Q 2178 384 2440 643 
Q 2703 903 2703 1303 
Q 2703 1709 2433 1975 
Q 2163 2241 1756 2241 
Q 1359 2241 1098 1978 
Q 838 1716 838 1322 
z
" transform="scale(0.015625)"/>
       </defs>
       <use xlink:href="#ArialMT-34"/>
       <use xlink:href="#ArialMT-38" x="55.615234"/>
      </g>
     </g>
    </g>
    <g id="xtick_14">
     <g id="line2d_26">
      <g>
       <use xlink:href="#m916594972e" x="69.220437" y="107.07875" style="fill: #262626; stroke: #262626; stroke-width: 0.8"/>
      </g>
     </g>
     <g id="text_10">
      <!-- 72 -->
      <g style="fill: #262626" transform="translate(64.771687 118.805)scale(0.08 -0.08)">
       <defs>
        <path id="ArialMT-37" d="M 303 3981 
L 303 4522 
L 3269 4522 
L 3269 4084 
Q 2831 3619 2401 2847 
Q 1972 2075 1738 1259 
Q 1569 684 1522 0 
L 944 0 
Q 953 541 1156 1306 
Q 1359 2072 1739 2783 
Q 2119 3494 2547 3981 
L 303 3981 
z
" transform="scale(0.015625)"/>
       </defs>
       <use xlink:href="#ArialMT-37"/>
       <use xlink:href="#ArialMT-32" x="55.615234"/>
      </g>
     </g>
    </g>
    <g id="xtick_15">
     <g id="line2d_27">
      <g>
       <use xlink:href="#m916594972e" x="78.145962" y="107.07875" style="fill: #262626; stroke: #262626; stroke-width: 0.8"/>
      </g>
     </g>
     <g id="text_11">
      <!-- 96 -->
      <g style="fill: #262626" transform="translate(73.697212 118.805)scale(0.08 -0.08)">
       <defs>
        <path id="ArialMT-39" d="M 350 1059 
L 891 1109 
Q 959 728 1153 556 
Q 1347 384 1650 384 
Q 1909 384 2104 503 
Q 2300 622 2425 820 
Q 2550 1019 2634 1356 
Q 2719 1694 2719 2044 
Q 2719 2081 2716 2156 
Q 2547 1888 2255 1720 
Q 1963 1553 1622 1553 
Q 1053 1553 659 1965 
Q 266 2378 266 3053 
Q 266 3750 677 4175 
Q 1088 4600 1706 4600 
Q 2153 4600 2523 4359 
Q 2894 4119 3086 3673 
Q 3278 3228 3278 2384 
Q 3278 1506 3087 986 
Q 2897 466 2520 194 
Q 2144 -78 1638 -78 
Q 1100 -78 759 220 
Q 419 519 350 1059 
z
M 2653 3081 
Q 2653 3566 2395 3850 
Q 2138 4134 1775 4134 
Q 1400 4134 1122 3828 
Q 844 3522 844 3034 
Q 844 2597 1108 2323 
Q 1372 2050 1759 2050 
Q 2150 2050 2401 2323 
Q 2653 2597 2653 3081 
z
" transform="scale(0.015625)"/>
        <path id="ArialMT-36" d="M 3184 3459 
L 2625 3416 
Q 2550 3747 2413 3897 
Q 2184 4138 1850 4138 
Q 1581 4138 1378 3988 
Q 1113 3794 959 3422 
Q 806 3050 800 2363 
Q 1003 2672 1297 2822 
Q 1591 2972 1913 2972 
Q 2475 2972 2870 2558 
Q 3266 2144 3266 1488 
Q 3266 1056 3080 686 
Q 2894 316 2569 119 
Q 2244 -78 1831 -78 
Q 1128 -78 684 439 
Q 241 956 241 2144 
Q 241 3472 731 4075 
Q 1159 4600 1884 4600 
Q 2425 4600 2770 4297 
Q 3116 3994 3184 3459 
z
M 888 1484 
Q 888 1194 1011 928 
Q 1134 663 1356 523 
Q 1578 384 1822 384 
Q 2178 384 2434 671 
Q 2691 959 2691 1453 
Q 2691 1928 2437 2201 
Q 2184 2475 1800 2475 
Q 1419 2475 1153 2201 
Q 888 1928 888 1484 
z
" transform="scale(0.015625)"/>
       </defs>
       <use xlink:href="#ArialMT-39"/>
       <use xlink:href="#ArialMT-36" x="55.615234"/>
      </g>
     </g>
    </g>
    <g id="text_12">
     <!-- time (h) -->
     <g style="fill: #262626" transform="translate(46.532422 130.946719)scale(0.09 -0.09)">
      <defs>
       <path id="ArialMT-74" d="M 1650 503 
L 1731 6 
Q 1494 -44 1306 -44 
Q 1000 -44 831 53 
Q 663 150 594 308 
Q 525 466 525 972 
L 525 2881 
L 113 2881 
L 113 3319 
L 525 3319 
L 525 4141 
L 1084 4478 
L 1084 3319 
L 1650 3319 
L 1650 2881 
L 1084 2881 
L 1084 941 
Q 1084 700 1114 631 
Q 1144 563 1211 522 
Q 1278 481 1403 481 
Q 1497 481 1650 503 
z
" transform="scale(0.015625)"/>
       <path id="ArialMT-69" d="M 425 3934 
L 425 4581 
L 988 4581 
L 988 3934 
L 425 3934 
z
M 425 0 
L 425 3319 
L 988 3319 
L 988 0 
L 425 0 
z
" transform="scale(0.015625)"/>
       <path id="ArialMT-28" d="M 1497 -1347 
Q 1031 -759 709 28 
Q 388 816 388 1659 
Q 388 2403 628 3084 
Q 909 3875 1497 4659 
L 1900 4659 
Q 1522 4009 1400 3731 
Q 1209 3300 1100 2831 
Q 966 2247 966 1656 
Q 966 153 1900 -1347 
L 1497 -1347 
z
" transform="scale(0.015625)"/>
       <path id="ArialMT-68" d="M 422 0 
L 422 4581 
L 984 4581 
L 984 2938 
Q 1378 3394 1978 3394 
Q 2347 3394 2619 3248 
Q 2891 3103 3008 2847 
Q 3125 2591 3125 2103 
L 3125 0 
L 2563 0 
L 2563 2103 
Q 2563 2525 2380 2717 
Q 2197 2909 1863 2909 
Q 1613 2909 1392 2779 
Q 1172 2650 1078 2428 
Q 984 2206 984 1816 
L 984 0 
L 422 0 
z
" transform="scale(0.015625)"/>
       <path id="ArialMT-29" d="M 791 -1347 
L 388 -1347 
Q 1322 153 1322 1656 
Q 1322 2244 1188 2822 
Q 1081 3291 891 3722 
Q 769 4003 388 4659 
L 791 4659 
Q 1378 3875 1659 3084 
Q 1900 2403 1900 1659 
Q 1900 816 1576 28 
Q 1253 -759 791 -1347 
z
" transform="scale(0.015625)"/>
      </defs>
      <use xlink:href="#ArialMT-74"/>
      <use xlink:href="#ArialMT-69" x="27.783203"/>
      <use xlink:href="#ArialMT-6d" x="50"/>
      <use xlink:href="#ArialMT-65" x="133.300781"/>
      <use xlink:href="#ArialMT-20" x="188.916016"/>
      <use xlink:href="#ArialMT-28" x="216.699219"/>
      <use xlink:href="#ArialMT-68" x="250"/>
      <use xlink:href="#ArialMT-29" x="305.615234"/>
     </g>
    </g>
   </g>
   <g id="matplotlib.axis_6">
    <g id="ytick_7">
     <g id="line2d_28">
      <g>
       <use xlink:href="#m227e3227ae" x="40.51" y="103.955006" style="fill: #262626; stroke: #262626; stroke-width: 0.8"/>
      </g>
     </g>
     <g id="text_13">
      <!-- 0.0 -->
      <g style="fill: #262626" transform="translate(23.39 106.818131)scale(0.08 -0.08)">
       <use xlink:href="#ArialMT-30"/>
       <use xlink:href="#ArialMT-2e" x="55.615234"/>
       <use xlink:href="#ArialMT-30" x="83.398438"/>
      </g>
     </g>
    </g>
    <g id="ytick_8">
     <g id="line2d_29">
      <g>
       <use xlink:href="#m227e3227ae" x="40.51" y="93.494642" style="fill: #262626; stroke: #262626; stroke-width: 0.8"/>
      </g>
     </g>
     <g id="text_14">
      <!-- 0.5 -->
      <g style="fill: #262626" transform="translate(23.39 96.357767)scale(0.08 -0.08)">
       <use xlink:href="#ArialMT-30"/>
       <use xlink:href="#ArialMT-2e" x="55.615234"/>
       <use xlink:href="#ArialMT-35" x="83.398438"/>
      </g>
     </g>
    </g>
    <g id="ytick_9">
     <g id="line2d_30">
      <g>
       <use xlink:href="#m227e3227ae" x="40.51" y="83.034277" style="fill: #262626; stroke: #262626; stroke-width: 0.8"/>
      </g>
     </g>
     <g id="text_15">
      <!-- 1.0 -->
      <g style="fill: #262626" transform="translate(23.39 85.897402)scale(0.08 -0.08)">
       <use xlink:href="#ArialMT-31"/>
       <use xlink:href="#ArialMT-2e" x="55.615234"/>
       <use xlink:href="#ArialMT-30" x="83.398438"/>
      </g>
     </g>
    </g>
    <g id="text_16">
     <!-- expr. norm. -->
     <g style="fill: #262626" transform="translate(17.60125 115.456797)rotate(-90)scale(0.09 -0.09)">
      <use xlink:href="#ArialMT-65"/>
      <use xlink:href="#ArialMT-78" x="55.615234"/>
      <use xlink:href="#ArialMT-70" x="105.615234"/>
      <use xlink:href="#ArialMT-72" x="161.230469"/>
      <use xlink:href="#ArialMT-2e" x="189.03125"/>
      <use xlink:href="#ArialMT-20" x="216.814453"/>
      <use xlink:href="#ArialMT-6e" x="244.597656"/>
      <use xlink:href="#ArialMT-6f" x="300.212891"/>
      <use xlink:href="#ArialMT-72" x="355.828125"/>
      <use xlink:href="#ArialMT-6d" x="389.128906"/>
      <use xlink:href="#ArialMT-2e" x="472.429688"/>
     </g>
    </g>
   </g>
   <g id="line2d_31">
    <path d="M 42.443864 103.955006 
L 42.834543 103.955006 
L 43.225223 103.955006 
L 43.615902 103.955006 
L 44.006582 103.955006 
L 44.397261 103.955006 
L 44.787941 103.955006 
L 45.17862 103.955006 
L 45.5693 103.955006 
L 45.959979 103.955006 
L 46.350659 103.955006 
L 46.741338 103.955006 
L 47.132018 103.925958 
L 47.522697 93.494642 
L 47.913377 93.494642 
L 48.304056 93.494642 
L 48.694736 93.494642 
L 49.085416 93.494642 
L 49.476095 93.494642 
L 49.866775 93.494642 
L 50.257454 93.494642 
L 50.648134 93.494642 
L 51.038813 93.494642 
L 51.429493 93.494642 
L 51.820172 93.494642 
L 52.210852 93.494642 
L 52.601531 93.494642 
L 52.992211 93.494642 
L 53.38289 93.494642 
L 53.77357 93.494642 
L 54.164249 93.494642 
L 54.554929 93.494642 
L 54.945608 93.494642 
L 55.336288 93.494642 
L 55.726967 93.494642 
L 56.117647 93.494642 
L 56.508326 93.494642 
L 56.899006 93.494642 
L 57.289685 93.494642 
L 57.680365 93.494642 
L 58.071045 93.494642 
L 58.461724 93.494642 
L 58.852404 93.494642 
L 59.243083 93.494642 
L 59.633763 93.494642 
L 60.024442 93.494642 
L 60.415122 93.494642 
L 60.805801 93.494642 
L 61.196481 93.494642 
L 61.58716 93.494642 
L 61.97784 93.494642 
L 62.368519 93.494642 
L 62.759199 93.494642 
L 63.149878 93.494642 
L 63.540558 93.494642 
L 63.931237 93.494642 
L 64.321917 93.494642 
L 64.712596 93.494642 
L 65.103276 93.494642 
L 65.493955 93.494642 
L 65.884635 93.494642 
L 66.275315 93.494642 
L 66.665994 93.494642 
L 67.056674 93.494642 
L 67.447353 93.494642 
L 67.838033 93.494642 
L 68.228712 93.494642 
L 68.619392 93.494642 
L 69.010071 93.494642 
L 69.400751 93.494642 
L 69.79143 93.494642 
L 70.18211 93.494642 
L 70.572789 93.494642 
L 70.963469 93.494642 
L 71.354148 93.494642 
L 71.744828 93.494642 
L 72.135507 93.494642 
L 72.526187 93.494642 
L 72.916866 93.494642 
L 73.307546 93.494642 
L 73.698225 83.034325 
L 74.088905 83.034277 
L 74.479584 83.034277 
L 74.870264 83.034277 
L 75.260944 83.034277 
L 75.651623 83.034277 
L 76.042303 83.034277 
L 76.432982 83.034277 
L 76.823662 83.034277 
L 77.214341 83.034277 
L 77.605021 83.034277 
L 77.9957 83.034277 
L 78.38638 83.034277 
L 78.777059 83.034277 
L 79.167739 83.034277 
L 79.558418 83.034277 
L 79.949098 83.034277 
L 80.339777 83.034277 
L 80.730457 83.034277 
L 81.121136 83.034277 
" clip-path="url(#p88443a32d6)" style="fill: none; stroke: #800080; stroke-width: 2; stroke-linecap: round"/>
   </g>
   <g id="patch_13">
    <path d="M 40.51 107.07875 
L 40.51 78.819375 
" style="fill: none; stroke: #262626; stroke-linejoin: miter; stroke-linecap: square"/>
   </g>
   <g id="patch_14">
    <path d="M 83.055 107.07875 
L 83.055 78.819375 
" style="fill: none; stroke: #262626; stroke-linejoin: miter; stroke-linecap: square"/>
   </g>
   <g id="patch_15">
    <path d="M 40.51 107.07875 
L 83.055 107.07875 
" style="fill: none; stroke: #262626; stroke-linejoin: miter; stroke-linecap: square"/>
   </g>
   <g id="patch_16">
    <path d="M 40.51 78.819375 
L 83.055 78.819375 
" style="fill: none; stroke: #262626; stroke-linejoin: miter; stroke-linecap: square"/>
   </g>
   <g id="text_17">
    <!-- Ktn1 -->
    <g style="fill: #262626" transform="translate(52.525859 72.819375)scale(0.09 -0.09)">
     <defs>
      <path id="Arial-ItalicMT-4b" d="M 284 0 
L 1241 4581 
L 1853 4581 
L 1394 2375 
L 3881 4581 
L 4744 4581 
L 2616 2716 
L 4175 0 
L 3491 0 
L 2169 2322 
L 1209 1488 
L 897 0 
L 284 0 
z
" transform="scale(0.015625)"/>
      <path id="Arial-ItalicMT-74" d="M 1534 459 
L 1441 -3 
Q 1238 -56 1047 -56 
Q 709 -56 509 109 
Q 359 234 359 450 
Q 359 559 441 953 
L 844 2881 
L 397 2881 
L 488 3319 
L 934 3319 
L 1106 4134 
L 1753 4525 
L 1500 3319 
L 2056 3319 
L 1963 2881 
L 1409 2881 
L 1025 1047 
Q 953 697 953 628 
Q 953 528 1011 475 
Q 1069 422 1200 422 
Q 1388 422 1534 459 
z
" transform="scale(0.015625)"/>
      <path id="Arial-ItalicMT-6e" d="M 213 0 
L 906 3319 
L 1419 3319 
L 1297 2741 
Q 1631 3081 1922 3237 
Q 2213 3394 2516 3394 
Q 2919 3394 3148 3175 
Q 3378 2956 3378 2591 
Q 3378 2406 3297 2009 
L 2875 0 
L 2309 0 
L 2750 2103 
Q 2816 2409 2816 2556 
Q 2816 2722 2702 2825 
Q 2588 2928 2372 2928 
Q 1938 2928 1598 2615 
Q 1259 2303 1100 1544 
L 778 0 
L 213 0 
z
" transform="scale(0.015625)"/>
     </defs>
     <use xlink:href="#Arial-ItalicMT-4b"/>
     <use xlink:href="#Arial-ItalicMT-74" x="66.699219"/>
     <use xlink:href="#Arial-ItalicMT-6e" x="94.482422"/>
     <use xlink:href="#Arial-ItalicMT-31" x="150.097656"/>
    </g>
   </g>
   <g id="PathCollection_3">
    <g clip-path="url(#p88443a32d6)">
     <use xlink:href="#m6f8c362ba6" x="42.443864" y="103.955006" style="stroke: #ffffff; stroke-width: 0.252982"/>
     <use xlink:href="#m6f8c362ba6" x="42.443864" y="103.955006" style="stroke: #ffffff; stroke-width: 0.252982"/>
     <use xlink:href="#m6f8c362ba6" x="49.138007" y="90.805682" style="stroke: #ffffff; stroke-width: 0.252982"/>
     <use xlink:href="#m6f8c362ba6" x="49.138007" y="90.805682" style="stroke: #ffffff; stroke-width: 0.252982"/>
     <use xlink:href="#m6f8c362ba6" x="51.369388" y="94.286913" style="stroke: #ffffff; stroke-width: 0.252982"/>
     <use xlink:href="#m6f8c362ba6" x="51.369388" y="94.286913" style="stroke: #ffffff; stroke-width: 0.252982"/>
     <use xlink:href="#m6f8c362ba6" x="60.294913" y="95.105778" style="stroke: #ffffff; stroke-width: 0.252982"/>
     <use xlink:href="#m6f8c362ba6" x="60.294913" y="95.105778" style="stroke: #ffffff; stroke-width: 0.252982"/>
     <use xlink:href="#m6f8c362ba6" x="44.675245" y="105.202695" style="stroke: #ffffff; stroke-width: 0.252982"/>
     <use xlink:href="#m6f8c362ba6" x="44.675245" y="105.202695" style="stroke: #ffffff; stroke-width: 0.252982"/>
     <use xlink:href="#m6f8c362ba6" x="73.683199" y="83.034277" style="stroke: #ffffff; stroke-width: 0.252982"/>
    </g>
   </g>
   <g id="LineCollection_3">
    <path d="M 42.443864 104.432353 
L 42.443864 103.47766 
" clip-path="url(#p88443a32d6)" style="fill: none; stroke: #000000"/>
    <path d="M 42.443864 104.432353 
L 42.443864 103.47766 
" clip-path="url(#p88443a32d6)" style="fill: none; stroke: #000000"/>
    <path d="M 49.138007 93.570718 
L 49.138007 88.040646 
" clip-path="url(#p88443a32d6)" style="fill: none; stroke: #000000"/>
    <path d="M 49.138007 93.570718 
L 49.138007 88.040646 
" clip-path="url(#p88443a32d6)" style="fill: none; stroke: #000000"/>
    <path d="M 51.369388 97.334164 
L 51.369388 91.239662 
" clip-path="url(#p88443a32d6)" style="fill: none; stroke: #000000"/>
    <path d="M 51.369388 97.334164 
L 51.369388 91.239662 
" clip-path="url(#p88443a32d6)" style="fill: none; stroke: #000000"/>
    <path d="M 60.294913 96.58302 
L 60.294913 93.628536 
" clip-path="url(#p88443a32d6)" style="fill: none; stroke: #000000"/>
    <path d="M 60.294913 96.58302 
L 60.294913 93.628536 
" clip-path="url(#p88443a32d6)" style="fill: none; stroke: #000000"/>
    <path d="M 44.675245 105.794233 
L 44.675245 104.611157 
" clip-path="url(#p88443a32d6)" style="fill: none; stroke: #000000"/>
    <path d="M 44.675245 105.794233 
L 44.675245 104.611157 
" clip-path="url(#p88443a32d6)" style="fill: none; stroke: #000000"/>
    <path d="M 73.683199 85.964662 
L 73.683199 80.103892 
" clip-path="url(#p88443a32d6)" style="fill: none; stroke: #000000"/>
   </g>
   <g id="line2d_32">
    <g clip-path="url(#p88443a32d6)">
     <use xlink:href="#me42f3dcafd" x="42.443864" y="104.432353" style="stroke: #000000"/>
     <use xlink:href="#me42f3dcafd" x="42.443864" y="104.432353" style="stroke: #000000"/>
     <use xlink:href="#me42f3dcafd" x="49.138007" y="93.570718" style="stroke: #000000"/>
     <use xlink:href="#me42f3dcafd" x="49.138007" y="93.570718" style="stroke: #000000"/>
     <use xlink:href="#me42f3dcafd" x="51.369388" y="97.334164" style="stroke: #000000"/>
     <use xlink:href="#me42f3dcafd" x="51.369388" y="97.334164" style="stroke: #000000"/>
     <use xlink:href="#me42f3dcafd" x="60.294913" y="96.58302" style="stroke: #000000"/>
     <use xlink:href="#me42f3dcafd" x="60.294913" y="96.58302" style="stroke: #000000"/>
     <use xlink:href="#me42f3dcafd" x="44.675245" y="105.794233" style="stroke: #000000"/>
     <use xlink:href="#me42f3dcafd" x="44.675245" y="105.794233" style="stroke: #000000"/>
     <use xlink:href="#me42f3dcafd" x="73.683199" y="85.964662" style="stroke: #000000"/>
    </g>
   </g>
   <g id="line2d_33">
    <g clip-path="url(#p88443a32d6)">
     <use xlink:href="#me42f3dcafd" x="42.443864" y="103.47766" style="stroke: #000000"/>
     <use xlink:href="#me42f3dcafd" x="42.443864" y="103.47766" style="stroke: #000000"/>
     <use xlink:href="#me42f3dcafd" x="49.138007" y="88.040646" style="stroke: #000000"/>
     <use xlink:href="#me42f3dcafd" x="49.138007" y="88.040646" style="stroke: #000000"/>
     <use xlink:href="#me42f3dcafd" x="51.369388" y="91.239662" style="stroke: #000000"/>
     <use xlink:href="#me42f3dcafd" x="51.369388" y="91.239662" style="stroke: #000000"/>
     <use xlink:href="#me42f3dcafd" x="60.294913" y="93.628536" style="stroke: #000000"/>
     <use xlink:href="#me42f3dcafd" x="60.294913" y="93.628536" style="stroke: #000000"/>
     <use xlink:href="#me42f3dcafd" x="44.675245" y="104.611157" style="stroke: #000000"/>
     <use xlink:href="#me42f3dcafd" x="44.675245" y="104.611157" style="stroke: #000000"/>
     <use xlink:href="#me42f3dcafd" x="73.683199" y="80.103892" style="stroke: #000000"/>
    </g>
   </g>
  </g>
  <g id="axes_4">
   <g id="patch_17">
    <path d="M 97.855 107.07875 
L 140.4 107.07875 
L 140.4 78.819375 
L 97.855 78.819375 
z
" style="fill: #ffffff"/>
   </g>
   <g id="matplotlib.axis_7">
    <g id="xtick_16">
     <g id="line2d_34">
      <g>
       <use xlink:href="#m916594972e" x="99.788864" y="107.07875" style="fill: #262626; stroke: #262626; stroke-width: 0.8"/>
      </g>
     </g>
     <g id="text_18">
      <!-- 0 -->
      <g style="fill: #262626" transform="translate(97.564489 118.805)scale(0.08 -0.08)">
       <use xlink:href="#ArialMT-30"/>
      </g>
     </g>
    </g>
    <g id="xtick_17">
     <g id="line2d_35">
      <g>
       <use xlink:href="#m916594972e" x="108.714388" y="107.07875" style="fill: #262626; stroke: #262626; stroke-width: 0.8"/>
      </g>
     </g>
     <g id="text_19">
      <!-- 24 -->
      <g style="fill: #262626" transform="translate(104.265638 118.805)scale(0.08 -0.08)">
       <use xlink:href="#ArialMT-32"/>
       <use xlink:href="#ArialMT-34" x="55.615234"/>
      </g>
     </g>
    </g>
    <g id="xtick_18">
     <g id="line2d_36">
      <g>
       <use xlink:href="#m916594972e" x="117.639913" y="107.07875" style="fill: #262626; stroke: #262626; stroke-width: 0.8"/>
      </g>
     </g>
     <g id="text_20">
      <!-- 48 -->
      <g style="fill: #262626" transform="translate(113.191163 118.805)scale(0.08 -0.08)">
       <use xlink:href="#ArialMT-34"/>
       <use xlink:href="#ArialMT-38" x="55.615234"/>
      </g>
     </g>
    </g>
    <g id="xtick_19">
     <g id="line2d_37">
      <g>
       <use xlink:href="#m916594972e" x="126.565437" y="107.07875" style="fill: #262626; stroke: #262626; stroke-width: 0.8"/>
      </g>
     </g>
     <g id="text_21">
      <!-- 72 -->
      <g style="fill: #262626" transform="translate(122.116687 118.805)scale(0.08 -0.08)">
       <use xlink:href="#ArialMT-37"/>
       <use xlink:href="#ArialMT-32" x="55.615234"/>
      </g>
     </g>
    </g>
    <g id="xtick_20">
     <g id="line2d_38">
      <g>
       <use xlink:href="#m916594972e" x="135.490962" y="107.07875" style="fill: #262626; stroke: #262626; stroke-width: 0.8"/>
      </g>
     </g>
     <g id="text_22">
      <!-- 96 -->
      <g style="fill: #262626" transform="translate(131.042212 118.805)scale(0.08 -0.08)">
       <use xlink:href="#ArialMT-39"/>
       <use xlink:href="#ArialMT-36" x="55.615234"/>
      </g>
     </g>
    </g>
    <g id="text_23">
     <!-- time (h) -->
     <g style="fill: #262626" transform="translate(103.877422 130.946719)scale(0.09 -0.09)">
      <use xlink:href="#ArialMT-74"/>
      <use xlink:href="#ArialMT-69" x="27.783203"/>
      <use xlink:href="#ArialMT-6d" x="50"/>
      <use xlink:href="#ArialMT-65" x="133.300781"/>
      <use xlink:href="#ArialMT-20" x="188.916016"/>
      <use xlink:href="#ArialMT-28" x="216.699219"/>
      <use xlink:href="#ArialMT-68" x="250"/>
      <use xlink:href="#ArialMT-29" x="305.615234"/>
     </g>
    </g>
   </g>
   <g id="matplotlib.axis_8">
    <g id="ytick_10">
     <g id="line2d_39">
      <g>
       <use xlink:href="#m227e3227ae" x="97.855" y="104.271904" style="fill: #262626; stroke: #262626; stroke-width: 0.8"/>
      </g>
     </g>
    </g>
    <g id="ytick_11">
     <g id="line2d_40">
      <g>
       <use xlink:href="#m227e3227ae" x="97.855" y="92.829426" style="fill: #262626; stroke: #262626; stroke-width: 0.8"/>
      </g>
     </g>
    </g>
    <g id="ytick_12">
     <g id="line2d_41">
      <g>
       <use xlink:href="#m227e3227ae" x="97.855" y="81.386948" style="fill: #262626; stroke: #262626; stroke-width: 0.8"/>
      </g>
     </g>
    </g>
   </g>
   <g id="patch_18">
    <path d="M 97.855 107.07875 
L 97.855 78.819375 
" style="fill: none; stroke: #262626; stroke-linejoin: miter; stroke-linecap: square"/>
   </g>
   <g id="patch_19">
    <path d="M 140.4 107.07875 
L 140.4 78.819375 
" style="fill: none; stroke: #262626; stroke-linejoin: miter; stroke-linecap: square"/>
   </g>
   <g id="patch_20">
    <path d="M 97.855 107.07875 
L 140.4 107.07875 
" style="fill: none; stroke: #262626; stroke-linejoin: miter; stroke-linecap: square"/>
   </g>
   <g id="patch_21">
    <path d="M 97.855 78.819375 
L 140.4 78.819375 
" style="fill: none; stroke: #262626; stroke-linejoin: miter; stroke-linecap: square"/>
   </g>
   <g id="text_24">
    <!-- Upp1 -->
    <g style="fill: #262626" transform="translate(108.370391 72.819375)scale(0.09 -0.09)">
     <defs>
      <path id="Arial-ItalicMT-55" d="M 1269 4581 
L 1881 4581 
L 1294 1766 
Q 1222 1416 1222 1247 
Q 1222 878 1512 653 
Q 1803 428 2244 428 
Q 2594 428 2895 589 
Q 3197 750 3372 1062 
Q 3547 1375 3688 2059 
L 4216 4581 
L 4828 4581 
L 4269 1894 
Q 4125 1206 3890 804 
Q 3656 403 3240 161 
Q 2825 -81 2275 -81 
Q 1756 -81 1376 91 
Q 997 263 808 566 
Q 619 869 619 1253 
Q 619 1494 747 2081 
L 1269 4581 
z
" transform="scale(0.015625)"/>
      <path id="Arial-ItalicMT-70" d="M -66 -1272 
L 894 3319 
L 1416 3319 
L 1319 2856 
Q 1609 3159 1839 3276 
Q 2069 3394 2325 3394 
Q 2800 3394 3112 3048 
Q 3425 2703 3425 2059 
Q 3425 1541 3253 1114 
Q 3081 688 2831 428 
Q 2581 169 2325 47 
Q 2069 -75 1800 -75 
Q 1203 -75 875 531 
L 500 -1272 
L -66 -1272 
z
M 1053 1356 
Q 1053 984 1106 841 
Q 1184 638 1362 513 
Q 1541 388 1775 388 
Q 2263 388 2563 936 
Q 2863 1484 2863 2056 
Q 2863 2478 2661 2708 
Q 2459 2938 2159 2938 
Q 1944 2938 1759 2823 
Q 1575 2709 1417 2482 
Q 1259 2256 1156 1928 
Q 1053 1600 1053 1356 
z
" transform="scale(0.015625)"/>
     </defs>
     <use xlink:href="#Arial-ItalicMT-55"/>
     <use xlink:href="#Arial-ItalicMT-70" x="72.216797"/>
     <use xlink:href="#Arial-ItalicMT-70" x="127.832031"/>
     <use xlink:href="#Arial-ItalicMT-31" x="183.447266"/>
    </g>
   </g>
   <g id="line2d_42">
    <path d="M 99.788864 104.271904 
L 100.179543 103.754581 
L 100.570223 103.248952 
L 100.960902 102.754753 
L 101.351582 102.271726 
L 101.742261 101.799618 
L 102.132941 101.338181 
L 102.52362 100.887176 
L 102.9143 100.446366 
L 103.304979 100.015521 
L 103.695659 99.594415 
L 104.086338 99.182828 
L 104.477018 98.780546 
L 104.867697 98.387357 
L 105.258377 98.003056 
L 105.649056 97.627443 
L 106.039736 97.26032 
L 106.430416 96.901497 
L 106.821095 96.550784 
L 107.211775 96.208 
L 107.602454 95.872965 
L 107.993134 95.545503 
L 108.383813 95.225443 
L 108.774493 94.912619 
L 109.165172 94.606866 
L 109.555852 94.308025 
L 109.946531 94.015939 
L 110.337211 93.730456 
L 110.72789 93.451426 
L 111.11857 93.178704 
L 111.509249 92.912147 
L 111.899929 92.651615 
L 112.290608 92.396973 
L 112.681288 92.148088 
L 113.071967 91.904828 
L 113.462647 91.667067 
L 113.853326 91.434681 
L 114.244006 91.207548 
L 114.634685 90.98555 
L 115.025365 90.76857 
L 115.416045 90.556495 
L 115.806724 90.349214 
L 116.197404 90.146618 
L 116.588083 89.948603 
L 116.978763 89.755063 
L 117.369442 89.565899 
L 117.760122 89.381011 
L 118.150801 89.200302 
L 118.541481 89.023678 
L 118.93216 88.851047 
L 119.32284 88.682318 
L 119.713519 88.517403 
L 120.104199 88.356217 
L 120.494878 88.198674 
L 120.885558 88.044692 
L 121.276237 87.894191 
L 121.666917 87.747093 
L 122.057596 87.603319 
L 122.448276 87.462796 
L 122.838955 87.325449 
L 123.229635 87.191207 
L 123.620315 87.059999 
L 124.010994 86.931758 
L 124.401674 86.806415 
L 124.792353 86.683906 
L 125.183033 86.564166 
L 125.573712 86.447133 
L 125.964392 86.332746 
L 126.355071 86.220944 
L 126.745751 86.11167 
L 127.13643 86.004866 
L 127.52711 85.900476 
L 127.917789 85.798446 
L 128.308469 85.698723 
L 128.699148 85.601253 
L 129.089828 85.505987 
L 129.480507 85.412875 
L 129.871187 85.321867 
L 130.261866 85.232917 
L 130.652546 85.145977 
L 131.043225 85.061003 
L 131.433905 84.97795 
L 131.824584 84.896774 
L 132.215264 84.817433 
L 132.605944 84.739885 
L 132.996623 84.664091 
L 133.387303 84.59001 
L 133.777982 84.517603 
L 134.168662 84.446834 
L 134.559341 84.377664 
L 134.950021 84.310058 
L 135.3407 84.24398 
L 135.73138 84.179395 
L 136.122059 84.116271 
L 136.512739 84.054574 
L 136.903418 83.994271 
L 137.294098 83.935331 
L 137.684777 83.877724 
L 138.075457 83.821419 
L 138.466136 83.766387 
" clip-path="url(#pb217d357e4)" style="fill: none; stroke: #2ca02c; stroke-width: 2; stroke-linecap: round"/>
   </g>
   <g id="PathCollection_4">
    <g clip-path="url(#pb217d357e4)">
     <use xlink:href="#m6f8c362ba6" x="99.788864" y="104.271904" style="stroke: #ffffff; stroke-width: 0.252982"/>
     <use xlink:href="#m6f8c362ba6" x="99.788864" y="104.271904" style="stroke: #ffffff; stroke-width: 0.252982"/>
     <use xlink:href="#m6f8c362ba6" x="106.483007" y="97.431008" style="stroke: #ffffff; stroke-width: 0.252982"/>
     <use xlink:href="#m6f8c362ba6" x="106.483007" y="97.431008" style="stroke: #ffffff; stroke-width: 0.252982"/>
     <use xlink:href="#m6f8c362ba6" x="108.714388" y="101.106236" style="stroke: #ffffff; stroke-width: 0.252982"/>
     <use xlink:href="#m6f8c362ba6" x="108.714388" y="101.106236" style="stroke: #ffffff; stroke-width: 0.252982"/>
     <use xlink:href="#m6f8c362ba6" x="117.639913" y="100.596677" style="stroke: #ffffff; stroke-width: 0.252982"/>
     <use xlink:href="#m6f8c362ba6" x="117.639913" y="100.596677" style="stroke: #ffffff; stroke-width: 0.252982"/>
     <use xlink:href="#m6f8c362ba6" x="102.020245" y="96.50511" style="stroke: #ffffff; stroke-width: 0.252982"/>
     <use xlink:href="#m6f8c362ba6" x="102.020245" y="96.50511" style="stroke: #ffffff; stroke-width: 0.252982"/>
     <use xlink:href="#m6f8c362ba6" x="131.028199" y="81.386948" style="stroke: #ffffff; stroke-width: 0.252982"/>
    </g>
   </g>
   <g id="LineCollection_4">
    <path d="M 99.788864 104.271904 
L 99.788864 104.271904 
" clip-path="url(#pb217d357e4)" style="fill: none; stroke: #000000"/>
    <path d="M 99.788864 104.271904 
L 99.788864 104.271904 
" clip-path="url(#pb217d357e4)" style="fill: none; stroke: #000000"/>
    <path d="M 106.483007 98.151633 
L 106.483007 96.710383 
" clip-path="url(#pb217d357e4)" style="fill: none; stroke: #000000"/>
    <path d="M 106.483007 98.151633 
L 106.483007 96.710383 
" clip-path="url(#pb217d357e4)" style="fill: none; stroke: #000000"/>
    <path d="M 108.714388 101.106236 
L 108.714388 101.106236 
" clip-path="url(#pb217d357e4)" style="fill: none; stroke: #000000"/>
    <path d="M 108.714388 101.106236 
L 108.714388 101.106236 
" clip-path="url(#pb217d357e4)" style="fill: none; stroke: #000000"/>
    <path d="M 117.639913 105.794233 
L 117.639913 95.399121 
" clip-path="url(#pb217d357e4)" style="fill: none; stroke: #000000"/>
    <path d="M 117.639913 105.794233 
L 117.639913 95.399121 
" clip-path="url(#pb217d357e4)" style="fill: none; stroke: #000000"/>
    <path d="M 102.020245 100.393247 
L 102.020245 92.616972 
" clip-path="url(#pb217d357e4)" style="fill: none; stroke: #000000"/>
    <path d="M 102.020245 100.393247 
L 102.020245 92.616972 
" clip-path="url(#pb217d357e4)" style="fill: none; stroke: #000000"/>
    <path d="M 131.028199 82.670003 
L 131.028199 80.103892 
" clip-path="url(#pb217d357e4)" style="fill: none; stroke: #000000"/>
   </g>
   <g id="line2d_43">
    <g clip-path="url(#pb217d357e4)">
     <use xlink:href="#me42f3dcafd" x="99.788864" y="104.271904" style="stroke: #000000"/>
     <use xlink:href="#me42f3dcafd" x="99.788864" y="104.271904" style="stroke: #000000"/>
     <use xlink:href="#me42f3dcafd" x="106.483007" y="98.151633" style="stroke: #000000"/>
     <use xlink:href="#me42f3dcafd" x="106.483007" y="98.151633" style="stroke: #000000"/>
     <use xlink:href="#me42f3dcafd" x="108.714388" y="101.106236" style="stroke: #000000"/>
     <use xlink:href="#me42f3dcafd" x="108.714388" y="101.106236" style="stroke: #000000"/>
     <use xlink:href="#me42f3dcafd" x="117.639913" y="105.794233" style="stroke: #000000"/>
     <use xlink:href="#me42f3dcafd" x="117.639913" y="105.794233" style="stroke: #000000"/>
     <use xlink:href="#me42f3dcafd" x="102.020245" y="100.393247" style="stroke: #000000"/>
     <use xlink:href="#me42f3dcafd" x="102.020245" y="100.393247" style="stroke: #000000"/>
     <use xlink:href="#me42f3dcafd" x="131.028199" y="82.670003" style="stroke: #000000"/>
    </g>
   </g>
   <g id="line2d_44">
    <g clip-path="url(#pb217d357e4)">
     <use xlink:href="#me42f3dcafd" x="99.788864" y="104.271904" style="stroke: #000000"/>
     <use xlink:href="#me42f3dcafd" x="99.788864" y="104.271904" style="stroke: #000000"/>
     <use xlink:href="#me42f3dcafd" x="106.483007" y="96.710383" style="stroke: #000000"/>
     <use xlink:href="#me42f3dcafd" x="106.483007" y="96.710383" style="stroke: #000000"/>
     <use xlink:href="#me42f3dcafd" x="108.714388" y="101.106236" style="stroke: #000000"/>
     <use xlink:href="#me42f3dcafd" x="108.714388" y="101.106236" style="stroke: #000000"/>
     <use xlink:href="#me42f3dcafd" x="117.639913" y="95.399121" style="stroke: #000000"/>
     <use xlink:href="#me42f3dcafd" x="117.639913" y="95.399121" style="stroke: #000000"/>
     <use xlink:href="#me42f3dcafd" x="102.020245" y="92.616972" style="stroke: #000000"/>
     <use xlink:href="#me42f3dcafd" x="102.020245" y="92.616972" style="stroke: #000000"/>
     <use xlink:href="#me42f3dcafd" x="131.028199" y="80.103892" style="stroke: #000000"/>
    </g>
   </g>
  </g>
 </g>
 <defs>
  <clipPath id="p8ec7cefdfc">
   <rect x="40.51" y="23.28" width="42.545" height="28.259375"/>
  </clipPath>
  <clipPath id="pfe38d01f7e">
   <rect x="97.855" y="23.28" width="42.545" height="28.259375"/>
  </clipPath>
  <clipPath id="p88443a32d6">
   <rect x="40.51" y="78.819375" width="42.545" height="28.259375"/>
  </clipPath>
  <clipPath id="pb217d357e4">
   <rect x="97.855" y="78.819375" width="42.545" height="28.259375"/>
  </clipPath>
 </defs>
</svg>
