<?xml version="1.0" encoding="utf-8" standalone="no"?>
<!DOCTYPE svg PUBLIC "-//W3C//DTD SVG 1.1//EN"
  "http://www.w3.org/Graphics/SVG/1.1/DTD/svg11.dtd">
<svg xmlns:xlink="http://www.w3.org/1999/xlink" width="288pt" height="122.4pt" viewBox="0 0 288 122.4" xmlns="http://www.w3.org/2000/svg" version="1.1">
 <metadata>
  <rdf:RDF xmlns:dc="http://purl.org/dc/elements/1.1/" xmlns:cc="http://creativecommons.org/ns#" xmlns:rdf="http://www.w3.org/1999/02/22-rdf-syntax-ns#">
   <cc:Work>
    <dc:type rdf:resource="http://purl.org/dc/dcmitype/StillImage"/>
    <dc:date>2023-04-29T13:43:26.656689</dc:date>
    <dc:format>image/svg+xml</dc:format>
    <dc:creator>
     <cc:Agent>
      <dc:title>Matplotlib v3.5.1, https://matplotlib.org/</dc:title>
     </cc:Agent>
    </dc:creator>
   </cc:Work>
  </rdf:RDF>
 </metadata>
 <defs>
  <style type="text/css">*{stroke-linejoin: round; stroke-linecap: butt}</style>
 </defs>
 <g id="figure_1">
  <g id="patch_1">
   <path d="M 0 122.4 
L 288 122.4 
L 288 0 
L 0 0 
z
" style="fill: #ffffff"/>
  </g>
  <g id="axes_1">
   <g id="patch_2">
    <path d="M 45.19 85.47875 
L 109.72 85.47875 
L 109.72 23.28 
L 45.19 23.28 
z
" style="fill: #ffffff"/>
   </g>
   <g id="matplotlib.axis_1">
    <g id="xtick_1">
     <g id="line2d_1">
      <defs>
       <path id="md6833c2e91" d="M 0 0 
L 0 4 
" style="stroke: #262626; stroke-width: 0.8"/>
      </defs>
      <g>
       <use xlink:href="#md6833c2e91" x="47.397264" y="85.47875" style="fill: #262626; stroke: #262626; stroke-width: 0.8"/>
      </g>
     </g>
     <g id="text_1">
      <!-- 0 -->
      <g style="fill: #262626" transform="translate(45.172889 97.205)scale(0.08 -0.08)">
       <defs>
        <path id="ArialMT-30" d="M 266 2259 
Q 266 3072 433 3567 
Q 600 4063 929 4331 
Q 1259 4600 1759 4600 
Q 2128 4600 2406 4451 
Q 2684 4303 2865 4023 
Q 3047 3744 3150 3342 
Q 3253 2941 3253 2259 
Q 3253 1453 3087 958 
Q 2922 463 2592 192 
Q 2263 -78 1759 -78 
Q 1097 -78 719 397 
Q 266 969 266 2259 
z
M 844 2259 
Q 844 1131 1108 757 
Q 1372 384 1759 384 
Q 2147 384 2411 759 
Q 2675 1134 2675 2259 
Q 2675 3391 2411 3762 
Q 2147 4134 1753 4134 
Q 1366 4134 1134 3806 
Q 844 3388 844 2259 
z
" transform="scale(0.015625)"/>
       </defs>
       <use xlink:href="#ArialMT-30"/>
      </g>
     </g>
    </g>
    <g id="xtick_2">
     <g id="line2d_2">
      <g>
       <use xlink:href="#md6833c2e91" x="62.977948" y="85.47875" style="fill: #262626; stroke: #262626; stroke-width: 0.8"/>
      </g>
     </g>
     <g id="text_2">
      <!-- 24 -->
      <g style="fill: #262626" transform="translate(58.529198 97.205)scale(0.08 -0.08)">
       <defs>
        <path id="ArialMT-32" d="M 3222 541 
L 3222 0 
L 194 0 
Q 188 203 259 391 
Q 375 700 629 1000 
Q 884 1300 1366 1694 
Q 2113 2306 2375 2664 
Q 2638 3022 2638 3341 
Q 2638 3675 2398 3904 
Q 2159 4134 1775 4134 
Q 1369 4134 1125 3890 
Q 881 3647 878 3216 
L 300 3275 
Q 359 3922 746 4261 
Q 1134 4600 1788 4600 
Q 2447 4600 2831 4234 
Q 3216 3869 3216 3328 
Q 3216 3053 3103 2787 
Q 2991 2522 2730 2228 
Q 2469 1934 1863 1422 
Q 1356 997 1212 845 
Q 1069 694 975 541 
L 3222 541 
z
" transform="scale(0.015625)"/>
        <path id="ArialMT-34" d="M 2069 0 
L 2069 1097 
L 81 1097 
L 81 1613 
L 2172 4581 
L 2631 4581 
L 2631 1613 
L 3250 1613 
L 3250 1097 
L 2631 1097 
L 2631 0 
L 2069 0 
z
M 2069 1613 
L 2069 3678 
L 634 1613 
L 2069 1613 
z
" transform="scale(0.015625)"/>
       </defs>
       <use xlink:href="#ArialMT-32"/>
       <use xlink:href="#ArialMT-34" x="55.615234"/>
      </g>
     </g>
    </g>
    <g id="xtick_3">
     <g id="line2d_3">
      <g>
       <use xlink:href="#md6833c2e91" x="78.558632" y="85.47875" style="fill: #262626; stroke: #262626; stroke-width: 0.8"/>
      </g>
     </g>
     <g id="text_3">
      <!-- 48 -->
      <g style="fill: #262626" transform="translate(74.109882 97.205)scale(0.08 -0.08)">
       <defs>
        <path id="ArialMT-38" d="M 1131 2484 
Q 781 2613 612 2850 
Q 444 3088 444 3419 
Q 444 3919 803 4259 
Q 1163 4600 1759 4600 
Q 2359 4600 2725 4251 
Q 3091 3903 3091 3403 
Q 3091 3084 2923 2848 
Q 2756 2613 2416 2484 
Q 2838 2347 3058 2040 
Q 3278 1734 3278 1309 
Q 3278 722 2862 322 
Q 2447 -78 1769 -78 
Q 1091 -78 675 323 
Q 259 725 259 1325 
Q 259 1772 486 2073 
Q 713 2375 1131 2484 
z
M 1019 3438 
Q 1019 3113 1228 2906 
Q 1438 2700 1772 2700 
Q 2097 2700 2305 2904 
Q 2513 3109 2513 3406 
Q 2513 3716 2298 3927 
Q 2084 4138 1766 4138 
Q 1444 4138 1231 3931 
Q 1019 3725 1019 3438 
z
M 838 1322 
Q 838 1081 952 856 
Q 1066 631 1291 507 
Q 1516 384 1775 384 
Q 2178 384 2440 643 
Q 2703 903 2703 1303 
Q 2703 1709 2433 1975 
Q 2163 2241 1756 2241 
Q 1359 2241 1098 1978 
Q 838 1716 838 1322 
z
" transform="scale(0.015625)"/>
       </defs>
       <use xlink:href="#ArialMT-34"/>
       <use xlink:href="#ArialMT-38" x="55.615234"/>
      </g>
     </g>
    </g>
    <g id="xtick_4">
     <g id="line2d_4">
      <g>
       <use xlink:href="#md6833c2e91" x="94.139316" y="85.47875" style="fill: #262626; stroke: #262626; stroke-width: 0.8"/>
      </g>
     </g>
     <g id="text_4">
      <!-- 72 -->
      <g style="fill: #262626" transform="translate(89.690566 97.205)scale(0.08 -0.08)">
       <defs>
        <path id="ArialMT-37" d="M 303 3981 
L 303 4522 
L 3269 4522 
L 3269 4084 
Q 2831 3619 2401 2847 
Q 1972 2075 1738 1259 
Q 1569 684 1522 0 
L 944 0 
Q 953 541 1156 1306 
Q 1359 2072 1739 2783 
Q 2119 3494 2547 3981 
L 303 3981 
z
" transform="scale(0.015625)"/>
       </defs>
       <use xlink:href="#ArialMT-37"/>
       <use xlink:href="#ArialMT-32" x="55.615234"/>
      </g>
     </g>
    </g>
    <g id="xtick_5">
     <g id="line2d_5">
      <g>
       <use xlink:href="#md6833c2e91" x="109.72" y="85.47875" style="fill: #262626; stroke: #262626; stroke-width: 0.8"/>
      </g>
     </g>
     <g id="text_5">
      <!-- 96 -->
      <g style="fill: #262626" transform="translate(105.27125 97.205)scale(0.08 -0.08)">
       <defs>
        <path id="ArialMT-39" d="M 350 1059 
L 891 1109 
Q 959 728 1153 556 
Q 1347 384 1650 384 
Q 1909 384 2104 503 
Q 2300 622 2425 820 
Q 2550 1019 2634 1356 
Q 2719 1694 2719 2044 
Q 2719 2081 2716 2156 
Q 2547 1888 2255 1720 
Q 1963 1553 1622 1553 
Q 1053 1553 659 1965 
Q 266 2378 266 3053 
Q 266 3750 677 4175 
Q 1088 4600 1706 4600 
Q 2153 4600 2523 4359 
Q 2894 4119 3086 3673 
Q 3278 3228 3278 2384 
Q 3278 1506 3087 986 
Q 2897 466 2520 194 
Q 2144 -78 1638 -78 
Q 1100 -78 759 220 
Q 419 519 350 1059 
z
M 2653 3081 
Q 2653 3566 2395 3850 
Q 2138 4134 1775 4134 
Q 1400 4134 1122 3828 
Q 844 3522 844 3034 
Q 844 2597 1108 2323 
Q 1372 2050 1759 2050 
Q 2150 2050 2401 2323 
Q 2653 2597 2653 3081 
z
" transform="scale(0.015625)"/>
        <path id="ArialMT-36" d="M 3184 3459 
L 2625 3416 
Q 2550 3747 2413 3897 
Q 2184 4138 1850 4138 
Q 1581 4138 1378 3988 
Q 1113 3794 959 3422 
Q 806 3050 800 2363 
Q 1003 2672 1297 2822 
Q 1591 2972 1913 2972 
Q 2475 2972 2870 2558 
Q 3266 2144 3266 1488 
Q 3266 1056 3080 686 
Q 2894 316 2569 119 
Q 2244 -78 1831 -78 
Q 1128 -78 684 439 
Q 241 956 241 2144 
Q 241 3472 731 4075 
Q 1159 4600 1884 4600 
Q 2425 4600 2770 4297 
Q 3116 3994 3184 3459 
z
M 888 1484 
Q 888 1194 1011 928 
Q 1134 663 1356 523 
Q 1578 384 1822 384 
Q 2178 384 2434 671 
Q 2691 959 2691 1453 
Q 2691 1928 2437 2201 
Q 2184 2475 1800 2475 
Q 1419 2475 1153 2201 
Q 888 1928 888 1484 
z
" transform="scale(0.015625)"/>
       </defs>
       <use xlink:href="#ArialMT-39"/>
       <use xlink:href="#ArialMT-36" x="55.615234"/>
      </g>
     </g>
    </g>
    <g id="text_6">
     <!-- time (h) -->
     <g style="fill: #262626" transform="translate(62.204922 109.346719)scale(0.09 -0.09)">
      <defs>
       <path id="ArialMT-74" d="M 1650 503 
L 1731 6 
Q 1494 -44 1306 -44 
Q 1000 -44 831 53 
Q 663 150 594 308 
Q 525 466 525 972 
L 525 2881 
L 113 2881 
L 113 3319 
L 525 3319 
L 525 4141 
L 1084 4478 
L 1084 3319 
L 1650 3319 
L 1650 2881 
L 1084 2881 
L 1084 941 
Q 1084 700 1114 631 
Q 1144 563 1211 522 
Q 1278 481 1403 481 
Q 1497 481 1650 503 
z
" transform="scale(0.015625)"/>
       <path id="ArialMT-69" d="M 425 3934 
L 425 4581 
L 988 4581 
L 988 3934 
L 425 3934 
z
M 425 0 
L 425 3319 
L 988 3319 
L 988 0 
L 425 0 
z
" transform="scale(0.015625)"/>
       <path id="ArialMT-6d" d="M 422 0 
L 422 3319 
L 925 3319 
L 925 2853 
Q 1081 3097 1340 3245 
Q 1600 3394 1931 3394 
Q 2300 3394 2536 3241 
Q 2772 3088 2869 2813 
Q 3263 3394 3894 3394 
Q 4388 3394 4653 3120 
Q 4919 2847 4919 2278 
L 4919 0 
L 4359 0 
L 4359 2091 
Q 4359 2428 4304 2576 
Q 4250 2725 4106 2815 
Q 3963 2906 3769 2906 
Q 3419 2906 3187 2673 
Q 2956 2441 2956 1928 
L 2956 0 
L 2394 0 
L 2394 2156 
Q 2394 2531 2256 2718 
Q 2119 2906 1806 2906 
Q 1569 2906 1367 2781 
Q 1166 2656 1075 2415 
Q 984 2175 984 1722 
L 984 0 
L 422 0 
z
" transform="scale(0.015625)"/>
       <path id="ArialMT-65" d="M 2694 1069 
L 3275 997 
Q 3138 488 2766 206 
Q 2394 -75 1816 -75 
Q 1088 -75 661 373 
Q 234 822 234 1631 
Q 234 2469 665 2931 
Q 1097 3394 1784 3394 
Q 2450 3394 2872 2941 
Q 3294 2488 3294 1666 
Q 3294 1616 3291 1516 
L 816 1516 
Q 847 969 1125 678 
Q 1403 388 1819 388 
Q 2128 388 2347 550 
Q 2566 713 2694 1069 
z
M 847 1978 
L 2700 1978 
Q 2663 2397 2488 2606 
Q 2219 2931 1791 2931 
Q 1403 2931 1139 2672 
Q 875 2413 847 1978 
z
" transform="scale(0.015625)"/>
       <path id="ArialMT-20" transform="scale(0.015625)"/>
       <path id="ArialMT-28" d="M 1497 -1347 
Q 1031 -759 709 28 
Q 388 816 388 1659 
Q 388 2403 628 3084 
Q 909 3875 1497 4659 
L 1900 4659 
Q 1522 4009 1400 3731 
Q 1209 3300 1100 2831 
Q 966 2247 966 1656 
Q 966 153 1900 -1347 
L 1497 -1347 
z
" transform="scale(0.015625)"/>
       <path id="ArialMT-68" d="M 422 0 
L 422 4581 
L 984 4581 
L 984 2938 
Q 1378 3394 1978 3394 
Q 2347 3394 2619 3248 
Q 2891 3103 3008 2847 
Q 3125 2591 3125 2103 
L 3125 0 
L 2563 0 
L 2563 2103 
Q 2563 2525 2380 2717 
Q 2197 2909 1863 2909 
Q 1613 2909 1392 2779 
Q 1172 2650 1078 2428 
Q 984 2206 984 1816 
L 984 0 
L 422 0 
z
" transform="scale(0.015625)"/>
       <path id="ArialMT-29" d="M 791 -1347 
L 388 -1347 
Q 1322 153 1322 1656 
Q 1322 2244 1188 2822 
Q 1081 3291 891 3722 
Q 769 4003 388 4659 
L 791 4659 
Q 1378 3875 1659 3084 
Q 1900 2403 1900 1659 
Q 1900 816 1576 28 
Q 1253 -759 791 -1347 
z
" transform="scale(0.015625)"/>
      </defs>
      <use xlink:href="#ArialMT-74"/>
      <use xlink:href="#ArialMT-69" x="27.783203"/>
      <use xlink:href="#ArialMT-6d" x="50"/>
      <use xlink:href="#ArialMT-65" x="133.300781"/>
      <use xlink:href="#ArialMT-20" x="188.916016"/>
      <use xlink:href="#ArialMT-28" x="216.699219"/>
      <use xlink:href="#ArialMT-68" x="250"/>
      <use xlink:href="#ArialMT-29" x="305.615234"/>
     </g>
    </g>
   </g>
   <g id="matplotlib.axis_2">
    <g id="ytick_1">
     <g id="line2d_6">
      <defs>
       <path id="m33dccd4c63" d="M 0 0 
L -4 0 
" style="stroke: #262626; stroke-width: 0.8"/>
      </defs>
      <g>
       <use xlink:href="#m33dccd4c63" x="45.19" y="85.47875" style="fill: #262626; stroke: #262626; stroke-width: 0.8"/>
      </g>
     </g>
     <g id="text_7">
      <!-- −1.0 -->
      <g style="fill: #262626" transform="translate(23.3975 88.341875)scale(0.08 -0.08)">
       <defs>
        <path id="ArialMT-2212" d="M 3381 1997 
L 356 1997 
L 356 2522 
L 3381 2522 
L 3381 1997 
z
" transform="scale(0.015625)"/>
        <path id="ArialMT-31" d="M 2384 0 
L 1822 0 
L 1822 3584 
Q 1619 3391 1289 3197 
Q 959 3003 697 2906 
L 697 3450 
Q 1169 3672 1522 3987 
Q 1875 4303 2022 4600 
L 2384 4600 
L 2384 0 
z
" transform="scale(0.015625)"/>
        <path id="ArialMT-2e" d="M 581 0 
L 581 641 
L 1222 641 
L 1222 0 
L 581 0 
z
" transform="scale(0.015625)"/>
       </defs>
       <use xlink:href="#ArialMT-2212"/>
       <use xlink:href="#ArialMT-31" x="58.398438"/>
       <use xlink:href="#ArialMT-2e" x="114.013672"/>
       <use xlink:href="#ArialMT-30" x="141.796875"/>
      </g>
     </g>
    </g>
    <g id="ytick_2">
     <g id="line2d_7">
      <g>
       <use xlink:href="#m33dccd4c63" x="45.19" y="70.576096" style="fill: #262626; stroke: #262626; stroke-width: 0.8"/>
      </g>
     </g>
     <g id="text_8">
      <!-- −0.5 -->
      <g style="fill: #262626" transform="translate(23.3975 73.439221)scale(0.08 -0.08)">
       <defs>
        <path id="ArialMT-35" d="M 266 1200 
L 856 1250 
Q 922 819 1161 601 
Q 1400 384 1738 384 
Q 2144 384 2425 690 
Q 2706 997 2706 1503 
Q 2706 1984 2436 2262 
Q 2166 2541 1728 2541 
Q 1456 2541 1237 2417 
Q 1019 2294 894 2097 
L 366 2166 
L 809 4519 
L 3088 4519 
L 3088 3981 
L 1259 3981 
L 1013 2750 
Q 1425 3038 1878 3038 
Q 2478 3038 2890 2622 
Q 3303 2206 3303 1553 
Q 3303 931 2941 478 
Q 2500 -78 1738 -78 
Q 1113 -78 717 272 
Q 322 622 266 1200 
z
" transform="scale(0.015625)"/>
       </defs>
       <use xlink:href="#ArialMT-2212"/>
       <use xlink:href="#ArialMT-30" x="58.398438"/>
       <use xlink:href="#ArialMT-2e" x="114.013672"/>
       <use xlink:href="#ArialMT-35" x="141.796875"/>
      </g>
     </g>
    </g>
    <g id="ytick_3">
     <g id="line2d_8">
      <g>
       <use xlink:href="#m33dccd4c63" x="45.19" y="55.673442" style="fill: #262626; stroke: #262626; stroke-width: 0.8"/>
      </g>
     </g>
     <g id="text_9">
      <!-- 0.0 -->
      <g style="fill: #262626" transform="translate(28.07 58.536567)scale(0.08 -0.08)">
       <use xlink:href="#ArialMT-30"/>
       <use xlink:href="#ArialMT-2e" x="55.615234"/>
       <use xlink:href="#ArialMT-30" x="83.398438"/>
      </g>
     </g>
    </g>
    <g id="ytick_4">
     <g id="line2d_9">
      <g>
       <use xlink:href="#m33dccd4c63" x="45.19" y="40.770788" style="fill: #262626; stroke: #262626; stroke-width: 0.8"/>
      </g>
     </g>
     <g id="text_10">
      <!-- 0.5 -->
      <g style="fill: #262626" transform="translate(28.07 43.633913)scale(0.08 -0.08)">
       <use xlink:href="#ArialMT-30"/>
       <use xlink:href="#ArialMT-2e" x="55.615234"/>
       <use xlink:href="#ArialMT-35" x="83.398438"/>
      </g>
     </g>
    </g>
    <g id="ytick_5">
     <g id="line2d_10">
      <g>
       <use xlink:href="#m33dccd4c63" x="45.19" y="25.868134" style="fill: #262626; stroke: #262626; stroke-width: 0.8"/>
      </g>
     </g>
     <g id="text_11">
      <!-- 1.0 -->
      <g style="fill: #262626" transform="translate(28.07 28.731259)scale(0.08 -0.08)">
       <use xlink:href="#ArialMT-31"/>
       <use xlink:href="#ArialMT-2e" x="55.615234"/>
       <use xlink:href="#ArialMT-30" x="83.398438"/>
      </g>
     </g>
    </g>
    <g id="text_12">
     <!-- expr. norm. -->
     <g style="fill: #262626" transform="translate(17.60875 76.887109)rotate(-90)scale(0.09 -0.09)">
      <defs>
       <path id="ArialMT-78" d="M 47 0 
L 1259 1725 
L 138 3319 
L 841 3319 
L 1350 2541 
Q 1494 2319 1581 2169 
Q 1719 2375 1834 2534 
L 2394 3319 
L 3066 3319 
L 1919 1756 
L 3153 0 
L 2463 0 
L 1781 1031 
L 1600 1309 
L 728 0 
L 47 0 
z
" transform="scale(0.015625)"/>
       <path id="ArialMT-70" d="M 422 -1272 
L 422 3319 
L 934 3319 
L 934 2888 
Q 1116 3141 1344 3267 
Q 1572 3394 1897 3394 
Q 2322 3394 2647 3175 
Q 2972 2956 3137 2557 
Q 3303 2159 3303 1684 
Q 3303 1175 3120 767 
Q 2938 359 2589 142 
Q 2241 -75 1856 -75 
Q 1575 -75 1351 44 
Q 1128 163 984 344 
L 984 -1272 
L 422 -1272 
z
M 931 1641 
Q 931 1000 1190 694 
Q 1450 388 1819 388 
Q 2194 388 2461 705 
Q 2728 1022 2728 1688 
Q 2728 2322 2467 2637 
Q 2206 2953 1844 2953 
Q 1484 2953 1207 2617 
Q 931 2281 931 1641 
z
" transform="scale(0.015625)"/>
       <path id="ArialMT-72" d="M 416 0 
L 416 3319 
L 922 3319 
L 922 2816 
Q 1116 3169 1280 3281 
Q 1444 3394 1641 3394 
Q 1925 3394 2219 3213 
L 2025 2691 
Q 1819 2813 1613 2813 
Q 1428 2813 1281 2702 
Q 1134 2591 1072 2394 
Q 978 2094 978 1738 
L 978 0 
L 416 0 
z
" transform="scale(0.015625)"/>
       <path id="ArialMT-6e" d="M 422 0 
L 422 3319 
L 928 3319 
L 928 2847 
Q 1294 3394 1984 3394 
Q 2284 3394 2536 3286 
Q 2788 3178 2913 3003 
Q 3038 2828 3088 2588 
Q 3119 2431 3119 2041 
L 3119 0 
L 2556 0 
L 2556 2019 
Q 2556 2363 2490 2533 
Q 2425 2703 2258 2804 
Q 2091 2906 1866 2906 
Q 1506 2906 1245 2678 
Q 984 2450 984 1813 
L 984 0 
L 422 0 
z
" transform="scale(0.015625)"/>
       <path id="ArialMT-6f" d="M 213 1659 
Q 213 2581 725 3025 
Q 1153 3394 1769 3394 
Q 2453 3394 2887 2945 
Q 3322 2497 3322 1706 
Q 3322 1066 3130 698 
Q 2938 331 2570 128 
Q 2203 -75 1769 -75 
Q 1072 -75 642 372 
Q 213 819 213 1659 
z
M 791 1659 
Q 791 1022 1069 705 
Q 1347 388 1769 388 
Q 2188 388 2466 706 
Q 2744 1025 2744 1678 
Q 2744 2294 2464 2611 
Q 2184 2928 1769 2928 
Q 1347 2928 1069 2612 
Q 791 2297 791 1659 
z
" transform="scale(0.015625)"/>
      </defs>
      <use xlink:href="#ArialMT-65"/>
      <use xlink:href="#ArialMT-78" x="55.615234"/>
      <use xlink:href="#ArialMT-70" x="105.615234"/>
      <use xlink:href="#ArialMT-72" x="161.230469"/>
      <use xlink:href="#ArialMT-2e" x="189.03125"/>
      <use xlink:href="#ArialMT-20" x="216.814453"/>
      <use xlink:href="#ArialMT-6e" x="244.597656"/>
      <use xlink:href="#ArialMT-6f" x="300.212891"/>
      <use xlink:href="#ArialMT-72" x="355.828125"/>
      <use xlink:href="#ArialMT-6d" x="389.128906"/>
      <use xlink:href="#ArialMT-2e" x="472.429688"/>
     </g>
    </g>
   </g>
   <g id="line2d_11">
    <path d="M 47.397264 55.673442 
L 47.843175 55.673442 
L 48.289087 55.673442 
L 48.734999 55.673437 
L 49.180911 55.673389 
L 49.626823 55.673149 
L 50.072735 55.672304 
L 50.518646 55.669985 
L 50.964558 55.664667 
L 51.41047 55.654019 
L 51.856382 55.634841 
L 52.302294 55.603115 
L 52.748206 55.55417 
L 53.194117 55.48293 
L 53.640029 55.384231 
L 54.085941 55.253161 
L 54.531853 55.085376 
L 54.977765 54.877391 
L 55.423677 54.626788 
L 55.869588 54.332363 
L 56.3155 53.99418 
L 56.761412 53.613557 
L 57.207324 53.192984 
L 57.653236 52.73598 
L 58.099148 52.246924 
L 58.545059 51.73085 
L 58.990971 51.193243 
L 59.436883 50.639832 
L 59.882795 50.076398 
L 60.328707 49.508601 
L 60.774619 48.941836 
L 61.22053 48.381112 
L 61.666442 47.830963 
L 62.112354 47.295385 
L 62.558266 46.7778 
L 63.004178 46.281041 
L 63.45009 45.807354 
L 63.896001 45.358379 
L 64.341913 44.935035 
L 64.787825 44.537027 
L 65.233737 44.161389 
L 65.679649 43.79912 
L 66.125561 43.429215 
L 66.571472 43.011038 
L 67.017384 42.479234 
L 67.463296 41.748226 
L 67.909208 40.731998 
L 68.35512 39.376958 
L 68.801032 37.694748 
L 69.246943 35.776436 
L 69.692855 33.776377 
L 70.138767 31.870209 
L 70.584679 30.206013 
L 71.030591 28.870146 
L 71.476503 27.879183 
L 71.922414 27.194987 
L 72.368326 26.750698 
L 72.814238 26.474998 
L 73.26015 26.307495 
L 73.706062 26.204441 
L 74.151974 26.137769 
L 74.597885 26.091179 
L 75.043797 26.055934 
L 75.489709 26.027603 
L 75.935621 26.003982 
L 76.381533 25.983925 
L 76.827445 25.966766 
L 77.273357 25.952055 
L 77.719268 25.939445 
L 78.16518 25.928649 
L 78.611092 25.919418 
L 79.057004 25.911538 
L 79.502916 25.904822 
L 79.948828 25.899105 
L 80.394739 25.894248 
L 80.840651 25.890126 
L 81.286563 25.886633 
L 81.732475 25.883677 
L 82.178387 25.881178 
L 82.624299 25.87907 
L 83.07021 25.877292 
L 83.516122 25.875796 
L 83.962034 25.874537 
L 84.407946 25.87348 
L 84.853858 25.872593 
L 85.29977 25.871849 
L 85.745681 25.871227 
L 86.191593 25.870707 
L 86.637505 25.870272 
L 87.083417 25.869909 
L 87.529329 25.869606 
L 87.975241 25.869354 
L 88.421152 25.869145 
L 88.867064 25.86897 
L 89.312976 25.868826 
L 89.758888 25.868705 
L 90.2048 25.868606 
L 90.650712 25.868523 
L 91.096623 25.868455 
L 91.542535 25.868398 
" clip-path="url(#peca6d385cd)" style="fill: none; stroke: #800080; stroke-width: 2; stroke-linecap: round"/>
   </g>
   <g id="patch_3">
    <path d="M 45.19 85.47875 
L 45.19 23.28 
" style="fill: none; stroke: #262626; stroke-linejoin: miter; stroke-linecap: square"/>
   </g>
   <g id="patch_4">
    <path d="M 109.72 85.47875 
L 109.72 23.28 
" style="fill: none; stroke: #262626; stroke-linejoin: miter; stroke-linecap: square"/>
   </g>
   <g id="patch_5">
    <path d="M 45.19 85.47875 
L 109.72 85.47875 
" style="fill: none; stroke: #262626; stroke-linejoin: miter; stroke-linecap: square"/>
   </g>
   <g id="patch_6">
    <path d="M 45.19 23.28 
L 109.72 23.28 
" style="fill: none; stroke: #262626; stroke-linejoin: miter; stroke-linecap: square"/>
   </g>
   <g id="line2d_12">
    <path d="M 47.397264 55.673442 
L 47.843175 55.673442 
L 48.289087 55.673442 
L 48.734999 55.673442 
L 49.180911 55.673442 
L 49.626823 55.673441 
L 50.072735 55.673437 
L 50.518646 55.673412 
L 50.964558 55.673315 
L 51.41047 55.673002 
L 51.856382 55.672148 
L 52.302294 55.670109 
L 52.748206 55.665739 
L 53.194117 55.657188 
L 53.640029 55.641694 
L 54.085941 55.615418 
L 54.531853 55.573345 
L 54.977765 55.509283 
L 55.423677 55.41598 
L 55.869588 55.285354 
L 56.3155 55.108837 
L 56.761412 54.877791 
L 57.207324 54.583972 
L 57.653236 54.220003 
L 58.099148 53.779813 
L 58.545059 53.259016 
L 58.990971 52.655186 
L 59.436883 51.968039 
L 59.882795 51.199486 
L 60.328707 50.35358 
L 60.774619 49.436356 
L 61.22053 48.455593 
L 61.666442 47.420497 
L 62.112354 46.341358 
L 62.558266 45.229172 
L 63.004178 44.095275 
L 63.45009 42.950989 
L 63.896001 41.807305 
L 64.341913 40.674605 
L 64.787825 39.56244 
L 65.233737 38.479359 
L 65.679649 37.432788 
L 66.125561 36.428966 
L 66.571472 35.47292 
L 67.017384 34.568486 
L 67.463296 33.718358 
L 67.909208 32.924167 
L 68.35512 32.186578 
L 68.801032 31.505399 
L 69.246943 30.879698 
L 69.692855 30.30792 
L 70.138767 29.788004 
L 70.584679 29.317496 
L 71.030591 28.893649 
L 71.476503 28.513515 
L 71.922414 28.174034 
L 72.368326 27.872095 
L 72.814238 27.604605 
L 73.26015 27.368535 
L 73.706062 27.16096 
L 74.151974 26.979088 
L 74.597885 26.820281 
L 75.043797 26.682076 
L 75.489709 26.562186 
L 75.935621 26.458506 
L 76.381533 26.369116 
L 76.827445 26.29227 
L 77.273357 26.226396 
L 77.719268 26.170082 
L 78.16518 26.122069 
L 78.611092 26.081239 
L 79.057004 26.046605 
L 79.502916 26.017298 
L 79.948828 25.992559 
L 80.394739 25.971723 
L 80.840651 25.954214 
L 81.286563 25.939533 
L 81.732475 25.92725 
L 82.178387 25.916994 
L 82.624299 25.908448 
L 83.07021 25.90134 
L 83.516122 25.895441 
L 83.962034 25.890554 
L 84.407946 25.886513 
L 84.853858 25.883176 
L 85.29977 25.880427 
L 85.745681 25.878166 
L 86.191593 25.876309 
L 86.637505 25.874786 
L 87.083417 25.873539 
L 87.529329 25.87252 
L 87.975241 25.871688 
L 88.421152 25.871011 
L 88.867064 25.870459 
L 89.312976 25.870011 
L 89.758888 25.869648 
L 90.2048 25.869353 
L 90.650712 25.869114 
L 91.096623 25.868922 
L 91.542535 25.868766 
" clip-path="url(#peca6d385cd)" style="fill: none; stroke: #1f77b4; stroke-width: 2; stroke-linecap: round"/>
   </g>
   <g id="text_13">
    <!-- Lmbr1l -->
    <g style="fill: #262626" transform="translate(63.701172 17.28)scale(0.09 -0.09)">
     <defs>
      <path id="Arial-ItalicMT-4c" d="M 256 0 
L 1213 4581 
L 1825 4581 
L 978 519 
L 3356 519 
L 3247 0 
L 256 0 
z
" transform="scale(0.015625)"/>
      <path id="Arial-ItalicMT-6d" d="M 209 0 
L 903 3319 
L 1469 3319 
L 1353 2772 
Q 1669 3125 1917 3259 
Q 2166 3394 2456 3394 
Q 2766 3394 2973 3230 
Q 3181 3066 3247 2772 
Q 3500 3084 3779 3239 
Q 4059 3394 4369 3394 
Q 4784 3394 4992 3197 
Q 5200 3000 5200 2644 
Q 5200 2491 5128 2138 
L 4681 0 
L 4116 0 
L 4572 2194 
Q 4631 2463 4631 2578 
Q 4631 2741 4528 2834 
Q 4425 2928 4238 2928 
Q 3984 2928 3721 2775 
Q 3459 2622 3314 2373 
Q 3169 2125 3059 1609 
L 2722 0 
L 2156 0 
L 2625 2241 
Q 2675 2469 2675 2566 
Q 2675 2728 2573 2828 
Q 2472 2928 2309 2928 
Q 2069 2928 1805 2775 
Q 1541 2622 1375 2348 
Q 1209 2075 1103 1569 
L 775 0 
L 209 0 
z
" transform="scale(0.015625)"/>
      <path id="Arial-ItalicMT-62" d="M 213 0 
L 1169 4581 
L 1734 4581 
L 1394 2944 
Q 1663 3191 1881 3292 
Q 2100 3394 2338 3394 
Q 2803 3394 3114 3047 
Q 3425 2700 3425 2038 
Q 3425 1597 3300 1231 
Q 3175 866 2990 617 
Q 2806 369 2609 220 
Q 2413 72 2206 -1 
Q 2000 -75 1809 -75 
Q 1481 -75 1231 98 
Q 981 272 841 628 
L 709 0 
L 213 0 
z
M 1050 1363 
L 1047 1256 
Q 1047 831 1250 609 
Q 1453 388 1756 388 
Q 2053 388 2301 595 
Q 2550 803 2709 1243 
Q 2869 1684 2869 2056 
Q 2869 2475 2667 2706 
Q 2466 2938 2169 2938 
Q 1863 2938 1606 2702 
Q 1350 2466 1178 1975 
Q 1050 1609 1050 1363 
z
" transform="scale(0.015625)"/>
      <path id="Arial-ItalicMT-72" d="M 213 0 
L 906 3319 
L 1406 3319 
L 1266 2641 
Q 1522 3025 1767 3209 
Q 2013 3394 2269 3394 
Q 2438 3394 2684 3272 
L 2453 2747 
Q 2306 2853 2131 2853 
Q 1834 2853 1521 2522 
Q 1209 2191 1031 1331 
L 750 0 
L 213 0 
z
" transform="scale(0.015625)"/>
      <path id="Arial-ItalicMT-31" d="M 1541 0 
L 2266 3459 
Q 1797 3091 947 2869 
L 1053 3381 
Q 1475 3550 1886 3822 
Q 2297 4094 2503 4297 
Q 2628 4422 2741 4600 
L 3069 4600 
L 2109 0 
L 1541 0 
z
" transform="scale(0.015625)"/>
      <path id="Arial-ItalicMT-6c" d="M 169 0 
L 1125 4581 
L 1691 4581 
L 734 0 
L 169 0 
z
" transform="scale(0.015625)"/>
     </defs>
     <use xlink:href="#Arial-ItalicMT-4c"/>
     <use xlink:href="#Arial-ItalicMT-6d" x="55.615234"/>
     <use xlink:href="#Arial-ItalicMT-62" x="138.916016"/>
     <use xlink:href="#Arial-ItalicMT-72" x="194.53125"/>
     <use xlink:href="#Arial-ItalicMT-31" x="227.832031"/>
     <use xlink:href="#Arial-ItalicMT-6c" x="283.447266"/>
    </g>
   </g>
   <g id="line2d_13">
    <path d="M 47.397264 55.673442 
L 47.843175 54.655117 
L 48.289087 53.671583 
L 48.734999 52.721653 
L 49.180911 51.804178 
L 49.626823 50.91805 
L 50.072735 50.062197 
L 50.518646 49.235584 
L 50.964558 48.437214 
L 51.41047 47.666121 
L 51.856382 46.921373 
L 52.302294 46.20207 
L 52.748206 45.507343 
L 53.194117 44.836351 
L 53.640029 44.188285 
L 54.085941 43.56236 
L 54.531853 42.957821 
L 54.977765 42.373936 
L 55.423677 41.810001 
L 55.869588 41.265332 
L 56.3155 40.739273 
L 56.761412 40.231187 
L 57.207324 39.74046 
L 57.653236 39.2665 
L 58.099148 38.808732 
L 58.545059 38.366605 
L 58.990971 37.939583 
L 59.436883 37.527151 
L 59.882795 37.12881 
L 60.328707 36.744079 
L 60.774619 36.372493 
L 61.22053 36.013602 
L 61.666442 35.666973 
L 62.112354 35.332186 
L 62.558266 35.008838 
L 63.004178 34.696538 
L 63.45009 34.394907 
L 63.896001 34.103582 
L 64.341913 33.822211 
L 64.787825 33.550453 
L 65.233737 33.287979 
L 65.679649 33.034473 
L 66.125561 32.789629 
L 66.571472 32.55315 
L 67.017384 32.32475 
L 67.463296 32.104154 
L 67.909208 31.891095 
L 68.35512 31.685315 
L 68.801032 31.486566 
L 69.246943 31.294607 
L 69.692855 31.109206 
L 70.138767 30.93014 
L 70.584679 30.757192 
L 71.030591 30.590153 
L 71.476503 30.428821 
L 71.922414 30.273001 
L 72.368326 30.122505 
L 72.814238 29.97715 
L 73.26015 29.836762 
L 73.706062 29.70117 
L 74.151974 29.570211 
L 74.597885 29.443726 
L 75.043797 29.321563 
L 75.489709 29.203573 
L 75.935621 29.089615 
L 76.381533 28.97955 
L 76.827445 28.873246 
L 77.273357 28.770574 
L 77.719268 28.671409 
L 78.16518 28.575633 
L 78.611092 28.483129 
L 79.057004 28.393785 
L 79.502916 28.307494 
L 79.948828 28.224151 
L 80.394739 28.143655 
L 80.840651 28.06591 
L 81.286563 27.990821 
L 81.732475 27.918298 
L 82.178387 27.848252 
L 82.624299 27.780599 
L 83.07021 27.715258 
L 83.516122 27.65215 
L 83.962034 27.591197 
L 84.407946 27.532327 
L 84.853858 27.475468 
L 85.29977 27.420552 
L 85.745681 27.367513 
L 86.191593 27.316285 
L 86.637505 27.266808 
L 87.083417 27.219021 
L 87.529329 27.172866 
L 87.975241 27.128289 
L 88.421152 27.085235 
L 88.867064 27.043651 
L 89.312976 27.003489 
L 89.758888 26.964698 
L 90.2048 26.927233 
L 90.650712 26.891048 
L 91.096623 26.856099 
L 91.542535 26.822345 
" clip-path="url(#peca6d385cd)" style="fill: none; stroke: #2ca02c; stroke-width: 2; stroke-linecap: round"/>
   </g>
   <g id="PathCollection_1">
    <defs>
     <path id="mc138f34e74" d="M 0 1.581139 
C 0.419323 1.581139 0.821528 1.41454 1.118034 1.118034 
C 1.41454 0.821528 1.581139 0.419323 1.581139 0 
C 1.581139 -0.419323 1.41454 -0.821528 1.118034 -1.118034 
C 0.821528 -1.41454 0.419323 -1.581139 0 -1.581139 
C -0.419323 -1.581139 -0.821528 -1.41454 -1.118034 -1.118034 
C -1.41454 -0.821528 -1.581139 -0.419323 -1.581139 0 
C -1.581139 0.419323 -1.41454 0.821528 -1.118034 1.118034 
C -0.821528 1.41454 -0.419323 1.581139 0 1.581139 
z
" style="stroke: #ffffff; stroke-width: 0.252982"/>
    </defs>
    <g clip-path="url(#peca6d385cd)">
     <use xlink:href="#mc138f34e74" x="47.397264" y="55.673442" style="stroke: #ffffff; stroke-width: 0.252982"/>
     <use xlink:href="#mc138f34e74" x="47.397264" y="55.673442" style="stroke: #ffffff; stroke-width: 0.252982"/>
     <use xlink:href="#mc138f34e74" x="59.082777" y="50.981638" style="stroke: #ffffff; stroke-width: 0.252982"/>
     <use xlink:href="#mc138f34e74" x="59.082777" y="50.981638" style="stroke: #ffffff; stroke-width: 0.252982"/>
     <use xlink:href="#mc138f34e74" x="62.977948" y="46.618306" style="stroke: #ffffff; stroke-width: 0.252982"/>
     <use xlink:href="#mc138f34e74" x="62.977948" y="46.618306" style="stroke: #ffffff; stroke-width: 0.252982"/>
     <use xlink:href="#mc138f34e74" x="78.558632" y="25.868134" style="stroke: #ffffff; stroke-width: 0.252982"/>
    </g>
   </g>
   <g id="LineCollection_1">
    <path d="M 47.397264 56.059462 
L 47.397264 55.287422 
" clip-path="url(#peca6d385cd)" style="fill: none; stroke: #000000"/>
    <path d="M 47.397264 56.059462 
L 47.397264 55.287422 
" clip-path="url(#peca6d385cd)" style="fill: none; stroke: #000000"/>
    <path d="M 59.082777 55.808872 
L 59.082777 46.154403 
" clip-path="url(#peca6d385cd)" style="fill: none; stroke: #000000"/>
    <path d="M 59.082777 55.808872 
L 59.082777 46.154403 
" clip-path="url(#peca6d385cd)" style="fill: none; stroke: #000000"/>
    <path d="M 62.977948 54.209809 
L 62.977948 39.026802 
" clip-path="url(#peca6d385cd)" style="fill: none; stroke: #000000"/>
    <path d="M 62.977948 54.209809 
L 62.977948 39.026802 
" clip-path="url(#peca6d385cd)" style="fill: none; stroke: #000000"/>
    <path d="M 78.558632 26.895341 
L 78.558632 24.840927 
" clip-path="url(#peca6d385cd)" style="fill: none; stroke: #000000"/>
   </g>
   <g id="line2d_14">
    <defs>
     <path id="m3cb570d0a1" d="M 2 0 
L -2 -0 
" style="stroke: #000000"/>
    </defs>
    <g clip-path="url(#peca6d385cd)">
     <use xlink:href="#m3cb570d0a1" x="47.397264" y="56.059462" style="stroke: #000000"/>
     <use xlink:href="#m3cb570d0a1" x="47.397264" y="56.059462" style="stroke: #000000"/>
     <use xlink:href="#m3cb570d0a1" x="59.082777" y="55.808872" style="stroke: #000000"/>
     <use xlink:href="#m3cb570d0a1" x="59.082777" y="55.808872" style="stroke: #000000"/>
     <use xlink:href="#m3cb570d0a1" x="62.977948" y="54.209809" style="stroke: #000000"/>
     <use xlink:href="#m3cb570d0a1" x="62.977948" y="54.209809" style="stroke: #000000"/>
     <use xlink:href="#m3cb570d0a1" x="78.558632" y="26.895341" style="stroke: #000000"/>
    </g>
   </g>
   <g id="line2d_15">
    <g clip-path="url(#peca6d385cd)">
     <use xlink:href="#m3cb570d0a1" x="47.397264" y="55.287422" style="stroke: #000000"/>
     <use xlink:href="#m3cb570d0a1" x="47.397264" y="55.287422" style="stroke: #000000"/>
     <use xlink:href="#m3cb570d0a1" x="59.082777" y="46.154403" style="stroke: #000000"/>
     <use xlink:href="#m3cb570d0a1" x="59.082777" y="46.154403" style="stroke: #000000"/>
     <use xlink:href="#m3cb570d0a1" x="62.977948" y="39.026802" style="stroke: #000000"/>
     <use xlink:href="#m3cb570d0a1" x="62.977948" y="39.026802" style="stroke: #000000"/>
     <use xlink:href="#m3cb570d0a1" x="78.558632" y="24.840927" style="stroke: #000000"/>
    </g>
   </g>
  </g>
  <g id="axes_2">
   <g id="patch_7">
    <path d="M 128.93 85.47875 
L 193.46 85.47875 
L 193.46 23.28 
L 128.93 23.28 
z
" style="fill: #ffffff"/>
   </g>
   <g id="matplotlib.axis_3">
    <g id="xtick_6">
     <g id="line2d_16">
      <g>
       <use xlink:href="#md6833c2e91" x="131.863182" y="85.47875" style="fill: #262626; stroke: #262626; stroke-width: 0.8"/>
      </g>
     </g>
     <g id="text_14">
      <!-- 0 -->
      <g style="fill: #262626" transform="translate(129.638807 97.205)scale(0.08 -0.08)">
       <use xlink:href="#ArialMT-30"/>
      </g>
     </g>
    </g>
    <g id="xtick_7">
     <g id="line2d_17">
      <g>
       <use xlink:href="#md6833c2e91" x="145.400944" y="85.47875" style="fill: #262626; stroke: #262626; stroke-width: 0.8"/>
      </g>
     </g>
     <g id="text_15">
      <!-- 24 -->
      <g style="fill: #262626" transform="translate(140.952194 97.205)scale(0.08 -0.08)">
       <use xlink:href="#ArialMT-32"/>
       <use xlink:href="#ArialMT-34" x="55.615234"/>
      </g>
     </g>
    </g>
    <g id="xtick_8">
     <g id="line2d_18">
      <g>
       <use xlink:href="#md6833c2e91" x="158.938706" y="85.47875" style="fill: #262626; stroke: #262626; stroke-width: 0.8"/>
      </g>
     </g>
     <g id="text_16">
      <!-- 48 -->
      <g style="fill: #262626" transform="translate(154.489956 97.205)scale(0.08 -0.08)">
       <use xlink:href="#ArialMT-34"/>
       <use xlink:href="#ArialMT-38" x="55.615234"/>
      </g>
     </g>
    </g>
    <g id="xtick_9">
     <g id="line2d_19">
      <g>
       <use xlink:href="#md6833c2e91" x="172.476469" y="85.47875" style="fill: #262626; stroke: #262626; stroke-width: 0.8"/>
      </g>
     </g>
     <g id="text_17">
      <!-- 72 -->
      <g style="fill: #262626" transform="translate(168.027719 97.205)scale(0.08 -0.08)">
       <use xlink:href="#ArialMT-37"/>
       <use xlink:href="#ArialMT-32" x="55.615234"/>
      </g>
     </g>
    </g>
    <g id="xtick_10">
     <g id="line2d_20">
      <g>
       <use xlink:href="#md6833c2e91" x="186.014231" y="85.47875" style="fill: #262626; stroke: #262626; stroke-width: 0.8"/>
      </g>
     </g>
     <g id="text_18">
      <!-- 96 -->
      <g style="fill: #262626" transform="translate(181.565481 97.205)scale(0.08 -0.08)">
       <use xlink:href="#ArialMT-39"/>
       <use xlink:href="#ArialMT-36" x="55.615234"/>
      </g>
     </g>
    </g>
    <g id="text_19">
     <!-- time (h) -->
     <g style="fill: #262626" transform="translate(145.944922 109.346719)scale(0.09 -0.09)">
      <use xlink:href="#ArialMT-74"/>
      <use xlink:href="#ArialMT-69" x="27.783203"/>
      <use xlink:href="#ArialMT-6d" x="50"/>
      <use xlink:href="#ArialMT-65" x="133.300781"/>
      <use xlink:href="#ArialMT-20" x="188.916016"/>
      <use xlink:href="#ArialMT-28" x="216.699219"/>
      <use xlink:href="#ArialMT-68" x="250"/>
      <use xlink:href="#ArialMT-29" x="305.615234"/>
     </g>
    </g>
   </g>
   <g id="matplotlib.axis_4">
    <g id="ytick_6">
     <g id="line2d_21">
      <g>
       <use xlink:href="#m33dccd4c63" x="128.93" y="85.47875" style="fill: #262626; stroke: #262626; stroke-width: 0.8"/>
      </g>
     </g>
    </g>
    <g id="ytick_7">
     <g id="line2d_22">
      <g>
       <use xlink:href="#m33dccd4c63" x="128.93" y="70.949653" style="fill: #262626; stroke: #262626; stroke-width: 0.8"/>
      </g>
     </g>
    </g>
    <g id="ytick_8">
     <g id="line2d_23">
      <g>
       <use xlink:href="#m33dccd4c63" x="128.93" y="56.420557" style="fill: #262626; stroke: #262626; stroke-width: 0.8"/>
      </g>
     </g>
    </g>
    <g id="ytick_9">
     <g id="line2d_24">
      <g>
       <use xlink:href="#m33dccd4c63" x="128.93" y="41.89146" style="fill: #262626; stroke: #262626; stroke-width: 0.8"/>
      </g>
     </g>
    </g>
    <g id="ytick_10">
     <g id="line2d_25">
      <g>
       <use xlink:href="#m33dccd4c63" x="128.93" y="27.362364" style="fill: #262626; stroke: #262626; stroke-width: 0.8"/>
      </g>
     </g>
    </g>
   </g>
   <g id="line2d_26">
    <path d="M 131.863182 56.420557 
L 132.455744 56.420557 
L 133.048306 56.420557 
L 133.640868 56.420557 
L 134.23343 56.420557 
L 134.825992 56.420556 
L 135.418554 56.420496 
L 136.011116 56.419195 
L 136.603678 56.405698 
L 137.19624 56.326855 
L 137.788802 56.034634 
L 138.381364 55.285937 
L 138.973926 53.872612 
L 139.566488 51.808689 
L 140.15905 49.386549 
L 140.751612 47.031965 
L 141.344174 45.088994 
L 141.936736 43.700452 
L 142.529298 42.826664 
L 143.12186 42.335699 
L 143.714421 42.086467 
L 144.306983 41.971009 
L 144.899545 41.921776 
L 145.492107 41.902305 
L 146.084669 41.895112 
L 146.677231 41.892606 
L 147.269793 41.891746 
L 147.862355 41.891377 
L 148.454917 41.891022 
L 149.047479 41.890369 
L 149.640041 41.889025 
L 150.232603 41.886351 
L 150.825165 41.881289 
L 151.417727 41.872178 
L 152.010289 41.856535 
L 152.602851 41.830852 
L 153.195413 41.790422 
L 153.787975 41.72926 
L 154.380537 41.640157 
L 154.973099 41.514897 
L 155.565661 41.344674 
L 156.158223 41.120675 
L 156.750785 40.8348 
L 157.343347 40.480447 
L 157.935909 40.053266 
L 158.528471 39.551788 
L 159.121033 38.977849 
L 159.713595 38.336741 
L 160.306157 37.637068 
L 160.898719 36.890314 
L 161.491281 36.110177 
L 162.083843 35.311727 
L 162.676405 34.510503 
L 163.268967 33.721606 
L 163.861529 32.958902 
L 164.454091 32.234376 
L 165.046653 31.557684 
L 165.639215 30.935913 
L 166.231777 30.373546 
L 166.824339 29.872596 
L 167.416901 29.432874 
L 168.009463 29.052347 
L 168.602025 28.727548 
L 169.194587 28.453981 
L 169.787149 28.226518 
L 170.379711 28.039738 
L 170.972273 27.888209 
L 171.564835 27.766714 
L 172.157397 27.670403 
L 172.749959 27.594896 
L 173.342521 27.536331 
L 173.935083 27.491378 
L 174.527645 27.457222 
L 175.120207 27.431523 
L 175.712769 27.412372 
L 176.305331 27.398234 
L 176.897893 27.38789 
L 177.490455 27.380389 
L 178.083017 27.374996 
L 178.675579 27.371151 
L 179.26814 27.368432 
L 179.860702 27.366525 
L 180.453264 27.365197 
L 181.045826 27.36428 
L 181.638388 27.363651 
L 182.23095 27.363223 
L 182.823512 27.362933 
L 183.416074 27.362739 
L 184.008636 27.36261 
L 184.601198 27.362524 
L 185.19376 27.362467 
L 185.786322 27.36243 
L 186.378884 27.362406 
L 186.971446 27.362391 
L 187.564008 27.362381 
L 188.15657 27.362374 
L 188.749132 27.36237 
L 189.341694 27.362368 
L 189.934256 27.362366 
L 190.526818 27.362365 
" clip-path="url(#pbe0e6cd2bf)" style="fill: none; stroke: #800080; stroke-width: 2; stroke-linecap: round"/>
   </g>
   <g id="patch_8">
    <path d="M 128.93 85.47875 
L 128.93 23.28 
" style="fill: none; stroke: #262626; stroke-linejoin: miter; stroke-linecap: square"/>
   </g>
   <g id="patch_9">
    <path d="M 193.46 85.47875 
L 193.46 23.28 
" style="fill: none; stroke: #262626; stroke-linejoin: miter; stroke-linecap: square"/>
   </g>
   <g id="patch_10">
    <path d="M 128.93 85.47875 
L 193.46 85.47875 
" style="fill: none; stroke: #262626; stroke-linejoin: miter; stroke-linecap: square"/>
   </g>
   <g id="patch_11">
    <path d="M 128.93 23.28 
L 193.46 23.28 
" style="fill: none; stroke: #262626; stroke-linejoin: miter; stroke-linecap: square"/>
   </g>
   <g id="line2d_27">
    <path d="M 131.863182 56.420557 
L 132.455744 56.420547 
L 133.048306 56.420296 
L 133.640868 56.418819 
L 134.23343 56.414084 
L 134.825992 56.403023 
L 135.418554 56.38171 
L 136.011116 56.345634 
L 136.603678 56.289991 
L 137.19624 56.209956 
L 137.788802 56.100935 
L 138.381364 55.958767 
L 138.973926 55.779873 
L 139.566488 55.561368 
L 140.15905 55.30112 
L 140.751612 54.997778 
L 141.344174 54.650767 
L 141.936736 54.260251 
L 142.529298 53.827089 
L 143.12186 53.352759 
L 143.714421 52.839292 
L 144.306983 52.289184 
L 144.899545 51.705316 
L 145.492107 51.090875 
L 146.084669 50.449268 
L 146.677231 49.784056 
L 147.269793 49.098878 
L 147.862355 48.397396 
L 148.454917 47.683239 
L 149.047479 46.959953 
L 149.640041 46.230964 
L 150.232603 45.499543 
L 150.825165 44.768783 
L 151.417727 44.041574 
L 152.010289 43.320593 
L 152.602851 42.608288 
L 153.195413 41.90688 
L 153.787975 41.218356 
L 154.380537 40.544475 
L 154.973099 39.886769 
L 155.565661 39.246553 
L 156.158223 38.624933 
L 156.750785 38.022814 
L 157.343347 37.440919 
L 157.935909 36.87979 
L 158.528471 36.339813 
L 159.121033 35.821222 
L 159.713595 35.324116 
L 160.306157 34.848473 
L 160.898719 34.394158 
L 161.491281 33.960941 
L 162.083843 33.548506 
L 162.676405 33.156461 
L 163.268967 32.784352 
L 163.861529 32.431668 
L 164.454091 32.097855 
L 165.046653 31.782322 
L 165.639215 31.484449 
L 166.231777 31.203593 
L 166.824339 30.939098 
L 167.416901 30.690298 
L 168.009463 30.45652 
L 168.602025 30.237095 
L 169.194587 30.031355 
L 169.787149 29.83864 
L 170.379711 29.658303 
L 170.972273 29.489709 
L 171.564835 29.332236 
L 172.157397 29.185283 
L 172.749959 29.048264 
L 173.342521 28.920617 
L 173.935083 28.801795 
L 174.527645 28.691278 
L 175.120207 28.588563 
L 175.712769 28.493171 
L 176.305331 28.404645 
L 176.897893 28.322549 
L 177.490455 28.246468 
L 178.083017 28.176009 
L 178.675579 28.110799 
L 179.26814 28.050486 
L 179.860702 27.994737 
L 180.453264 27.943237 
L 181.045826 27.895692 
L 181.638388 27.851822 
L 182.23095 27.811367 
L 182.823512 27.774081 
L 183.416074 27.739734 
L 184.008636 27.708112 
L 184.601198 27.679013 
L 185.19376 27.65225 
L 185.786322 27.627646 
L 186.378884 27.605039 
L 186.971446 27.584277 
L 187.564008 27.565217 
L 188.15657 27.547727 
L 188.749132 27.531687 
L 189.341694 27.516981 
L 189.934256 27.503505 
L 190.526818 27.49116 
" clip-path="url(#pbe0e6cd2bf)" style="fill: none; stroke: #1f77b4; stroke-width: 2; stroke-linecap: round"/>
   </g>
   <g id="text_20">
    <!-- Gatad1 -->
    <g style="fill: #262626" transform="translate(146.435 17.28)scale(0.09 -0.09)">
     <defs>
      <path id="Arial-ItalicMT-47" d="M 2622 1806 
L 2731 2325 
L 4738 2325 
L 4347 459 
Q 3969 222 3484 72 
Q 3000 -78 2531 -78 
Q 1531 -78 1038 525 
Q 622 1034 622 1834 
Q 622 2659 986 3336 
Q 1350 4013 1904 4336 
Q 2459 4659 3138 4659 
Q 3625 4659 4012 4482 
Q 4400 4306 4606 4011 
Q 4813 3716 4903 3241 
L 4303 3175 
Q 4206 3647 3901 3898 
Q 3597 4150 3119 4150 
Q 2622 4150 2190 3879 
Q 1759 3609 1501 3064 
Q 1244 2519 1244 1825 
Q 1244 1134 1584 781 
Q 1925 428 2525 428 
Q 3122 428 3809 822 
L 4016 1806 
L 2622 1806 
z
" transform="scale(0.015625)"/>
      <path id="Arial-ItalicMT-61" d="M 2450 413 
Q 2156 159 1884 42 
Q 1613 -75 1303 -75 
Q 844 -75 562 195 
Q 281 466 281 888 
Q 281 1166 407 1380 
Q 534 1594 743 1723 
Q 953 1853 1256 1909 
Q 1447 1947 1980 1969 
Q 2513 1991 2744 2081 
Q 2809 2313 2809 2466 
Q 2809 2663 2666 2775 
Q 2469 2931 2091 2931 
Q 1734 2931 1507 2773 
Q 1281 2616 1178 2325 
L 606 2375 
Q 781 2869 1161 3131 
Q 1541 3394 2119 3394 
Q 2734 3394 3094 3100 
Q 3369 2881 3369 2531 
Q 3369 2266 3291 1916 
L 3106 1091 
Q 3019 697 3019 450 
Q 3019 294 3088 0 
L 2516 0 
Q 2469 163 2450 413 
z
M 2659 1681 
Q 2541 1634 2405 1609 
Q 2269 1584 1950 1556 
Q 1456 1513 1253 1445 
Q 1050 1378 947 1231 
Q 844 1084 844 906 
Q 844 669 1008 516 
Q 1172 363 1475 363 
Q 1756 363 2015 511 
Q 2275 659 2425 925 
Q 2575 1191 2659 1681 
z
" transform="scale(0.015625)"/>
      <path id="Arial-ItalicMT-74" d="M 1534 459 
L 1441 -3 
Q 1238 -56 1047 -56 
Q 709 -56 509 109 
Q 359 234 359 450 
Q 359 559 441 953 
L 844 2881 
L 397 2881 
L 488 3319 
L 934 3319 
L 1106 4134 
L 1753 4525 
L 1500 3319 
L 2056 3319 
L 1963 2881 
L 1409 2881 
L 1025 1047 
Q 953 697 953 628 
Q 953 528 1011 475 
Q 1069 422 1200 422 
Q 1388 422 1534 459 
z
" transform="scale(0.015625)"/>
      <path id="Arial-ItalicMT-64" d="M 2450 481 
Q 1966 -75 1438 -75 
Q 966 -75 652 273 
Q 338 622 338 1284 
Q 338 1891 586 2392 
Q 834 2894 1207 3144 
Q 1581 3394 1956 3394 
Q 2575 3394 2891 2797 
L 3266 4581 
L 3828 4581 
L 2872 0 
L 2350 0 
L 2450 481 
z
M 900 1391 
Q 900 1044 969 844 
Q 1038 644 1203 511 
Q 1369 378 1600 378 
Q 1984 378 2297 778 
Q 2716 1309 2716 2091 
Q 2716 2484 2509 2706 
Q 2303 2928 1991 2928 
Q 1788 2928 1620 2837 
Q 1453 2747 1289 2530 
Q 1125 2313 1012 1978 
Q 900 1644 900 1391 
z
" transform="scale(0.015625)"/>
     </defs>
     <use xlink:href="#Arial-ItalicMT-47"/>
     <use xlink:href="#Arial-ItalicMT-61" x="77.783203"/>
     <use xlink:href="#Arial-ItalicMT-74" x="133.398438"/>
     <use xlink:href="#Arial-ItalicMT-61" x="161.181641"/>
     <use xlink:href="#Arial-ItalicMT-64" x="216.796875"/>
     <use xlink:href="#Arial-ItalicMT-31" x="272.412109"/>
    </g>
   </g>
   <g id="line2d_28">
    <path d="M 131.863182 56.420557 
L 132.455744 55.748099 
L 133.048306 55.091203 
L 133.640868 54.449509 
L 134.23343 53.822665 
L 134.825992 53.210327 
L 135.418554 52.612159 
L 136.011116 52.027835 
L 136.603678 51.457032 
L 137.19624 50.899439 
L 137.788802 50.35475 
L 138.381364 49.822666 
L 138.973926 49.302895 
L 139.566488 48.795152 
L 140.15905 48.29916 
L 140.751612 47.814645 
L 141.344174 47.341344 
L 141.936736 46.878995 
L 142.529298 46.427346 
L 143.12186 45.986148 
L 143.714421 45.555161 
L 144.306983 45.134148 
L 144.899545 44.722877 
L 145.492107 44.321125 
L 146.084669 43.928669 
L 146.677231 43.545295 
L 147.269793 43.170794 
L 147.862355 42.804959 
L 148.454917 42.44759 
L 149.047479 42.098491 
L 149.640041 41.757472 
L 150.232603 41.424343 
L 150.825165 41.098924 
L 151.417727 40.781036 
L 152.010289 40.470505 
L 152.602851 40.167159 
L 153.195413 39.870834 
L 153.787975 39.581366 
L 154.380537 39.298596 
L 154.973099 39.022371 
L 155.565661 38.752538 
L 156.158223 38.488949 
L 156.750785 38.23146 
L 157.343347 37.97993 
L 157.935909 37.734221 
L 158.528471 37.494198 
L 159.121033 37.25973 
L 159.713595 37.030687 
L 160.306157 36.806945 
L 160.898719 36.588381 
L 161.491281 36.374875 
L 162.083843 36.166309 
L 162.676405 35.96257 
L 163.268967 35.763546 
L 163.861529 35.569128 
L 164.454091 35.379209 
L 165.046653 35.193685 
L 165.639215 35.012455 
L 166.231777 34.835418 
L 166.824339 34.662479 
L 167.416901 34.493541 
L 168.009463 34.328513 
L 168.602025 34.167304 
L 169.194587 34.009826 
L 169.787149 33.855992 
L 170.379711 33.705718 
L 170.972273 33.558921 
L 171.564835 33.415522 
L 172.157397 33.275441 
L 172.749959 33.138602 
L 173.342521 33.00493 
L 173.935083 32.874351 
L 174.527645 32.746794 
L 175.120207 32.622189 
L 175.712769 32.500467 
L 176.305331 32.381562 
L 176.897893 32.265409 
L 177.490455 32.151944 
L 178.083017 32.041105 
L 178.675579 31.932831 
L 179.26814 31.827062 
L 179.860702 31.723741 
L 180.453264 31.622811 
L 181.045826 31.524217 
L 181.638388 31.427904 
L 182.23095 31.33382 
L 182.823512 31.241914 
L 183.416074 31.152134 
L 184.008636 31.064432 
L 184.601198 30.97876 
L 185.19376 30.89507 
L 185.786322 30.813317 
L 186.378884 30.733456 
L 186.971446 30.655443 
L 187.564008 30.579235 
L 188.15657 30.504791 
L 188.749132 30.43207 
L 189.341694 30.361031 
L 189.934256 30.291637 
L 190.526818 30.223848 
" clip-path="url(#pbe0e6cd2bf)" style="fill: none; stroke: #2ca02c; stroke-width: 2; stroke-linecap: round"/>
   </g>
   <g id="PathCollection_2">
    <g clip-path="url(#pbe0e6cd2bf)">
     <use xlink:href="#mc138f34e74" x="131.863182" y="56.420557" style="stroke: #ffffff; stroke-width: 0.252982"/>
     <use xlink:href="#mc138f34e74" x="131.863182" y="56.420557" style="stroke: #ffffff; stroke-width: 0.252982"/>
     <use xlink:href="#mc138f34e74" x="142.016503" y="43.514336" style="stroke: #ffffff; stroke-width: 0.252982"/>
     <use xlink:href="#mc138f34e74" x="142.016503" y="43.514336" style="stroke: #ffffff; stroke-width: 0.252982"/>
     <use xlink:href="#mc138f34e74" x="145.400944" y="44.13288" style="stroke: #ffffff; stroke-width: 0.252982"/>
     <use xlink:href="#mc138f34e74" x="145.400944" y="44.13288" style="stroke: #ffffff; stroke-width: 0.252982"/>
     <use xlink:href="#mc138f34e74" x="158.938706" y="39.162439" style="stroke: #ffffff; stroke-width: 0.252982"/>
     <use xlink:href="#mc138f34e74" x="158.938706" y="39.162439" style="stroke: #ffffff; stroke-width: 0.252982"/>
     <use xlink:href="#mc138f34e74" x="135.247622" y="69.112291" style="stroke: #ffffff; stroke-width: 0.252982"/>
     <use xlink:href="#mc138f34e74" x="135.247622" y="69.112291" style="stroke: #ffffff; stroke-width: 0.252982"/>
     <use xlink:href="#mc138f34e74" x="179.24535" y="27.362364" style="stroke: #ffffff; stroke-width: 0.252982"/>
    </g>
   </g>
   <g id="LineCollection_2">
    <path d="M 131.863182 58.157381 
L 131.863182 54.683733 
" clip-path="url(#pbe0e6cd2bf)" style="fill: none; stroke: #000000"/>
    <path d="M 131.863182 58.157381 
L 131.863182 54.683733 
" clip-path="url(#pbe0e6cd2bf)" style="fill: none; stroke: #000000"/>
    <path d="M 142.016503 53.797892 
L 142.016503 33.23078 
" clip-path="url(#pbe0e6cd2bf)" style="fill: none; stroke: #000000"/>
    <path d="M 142.016503 53.797892 
L 142.016503 33.23078 
" clip-path="url(#pbe0e6cd2bf)" style="fill: none; stroke: #000000"/>
    <path d="M 145.400944 55.028771 
L 145.400944 33.236989 
" clip-path="url(#pbe0e6cd2bf)" style="fill: none; stroke: #000000"/>
    <path d="M 145.400944 55.028771 
L 145.400944 33.236989 
" clip-path="url(#pbe0e6cd2bf)" style="fill: none; stroke: #000000"/>
    <path d="M 158.938706 44.974773 
L 158.938706 33.350104 
" clip-path="url(#pbe0e6cd2bf)" style="fill: none; stroke: #000000"/>
    <path d="M 158.938706 44.974773 
L 158.938706 33.350104 
" clip-path="url(#pbe0e6cd2bf)" style="fill: none; stroke: #000000"/>
    <path d="M 135.247622 71.328597 
L 135.247622 66.895985 
" clip-path="url(#pbe0e6cd2bf)" style="fill: none; stroke: #000000"/>
    <path d="M 135.247622 71.328597 
L 135.247622 66.895985 
" clip-path="url(#pbe0e6cd2bf)" style="fill: none; stroke: #000000"/>
    <path d="M 179.24535 29.156699 
L 179.24535 25.568028 
" clip-path="url(#pbe0e6cd2bf)" style="fill: none; stroke: #000000"/>
   </g>
   <g id="line2d_29">
    <g clip-path="url(#pbe0e6cd2bf)">
     <use xlink:href="#m3cb570d0a1" x="131.863182" y="58.157381" style="stroke: #000000"/>
     <use xlink:href="#m3cb570d0a1" x="131.863182" y="58.157381" style="stroke: #000000"/>
     <use xlink:href="#m3cb570d0a1" x="142.016503" y="53.797892" style="stroke: #000000"/>
     <use xlink:href="#m3cb570d0a1" x="142.016503" y="53.797892" style="stroke: #000000"/>
     <use xlink:href="#m3cb570d0a1" x="145.400944" y="55.028771" style="stroke: #000000"/>
     <use xlink:href="#m3cb570d0a1" x="145.400944" y="55.028771" style="stroke: #000000"/>
     <use xlink:href="#m3cb570d0a1" x="158.938706" y="44.974773" style="stroke: #000000"/>
     <use xlink:href="#m3cb570d0a1" x="158.938706" y="44.974773" style="stroke: #000000"/>
     <use xlink:href="#m3cb570d0a1" x="135.247622" y="71.328597" style="stroke: #000000"/>
     <use xlink:href="#m3cb570d0a1" x="135.247622" y="71.328597" style="stroke: #000000"/>
     <use xlink:href="#m3cb570d0a1" x="179.24535" y="29.156699" style="stroke: #000000"/>
    </g>
   </g>
   <g id="line2d_30">
    <g clip-path="url(#pbe0e6cd2bf)">
     <use xlink:href="#m3cb570d0a1" x="131.863182" y="54.683733" style="stroke: #000000"/>
     <use xlink:href="#m3cb570d0a1" x="131.863182" y="54.683733" style="stroke: #000000"/>
     <use xlink:href="#m3cb570d0a1" x="142.016503" y="33.23078" style="stroke: #000000"/>
     <use xlink:href="#m3cb570d0a1" x="142.016503" y="33.23078" style="stroke: #000000"/>
     <use xlink:href="#m3cb570d0a1" x="145.400944" y="33.236989" style="stroke: #000000"/>
     <use xlink:href="#m3cb570d0a1" x="145.400944" y="33.236989" style="stroke: #000000"/>
     <use xlink:href="#m3cb570d0a1" x="158.938706" y="33.350104" style="stroke: #000000"/>
     <use xlink:href="#m3cb570d0a1" x="158.938706" y="33.350104" style="stroke: #000000"/>
     <use xlink:href="#m3cb570d0a1" x="135.247622" y="66.895985" style="stroke: #000000"/>
     <use xlink:href="#m3cb570d0a1" x="135.247622" y="66.895985" style="stroke: #000000"/>
     <use xlink:href="#m3cb570d0a1" x="179.24535" y="25.568028" style="stroke: #000000"/>
    </g>
   </g>
  </g>
  <g id="axes_3">
   <g id="patch_12">
    <path d="M 212.67 85.47875 
L 277.2 85.47875 
L 277.2 23.28 
L 212.67 23.28 
z
" style="fill: #ffffff"/>
   </g>
   <g id="matplotlib.axis_5">
    <g id="xtick_11">
     <g id="line2d_31">
      <g>
       <use xlink:href="#md6833c2e91" x="215.603182" y="85.47875" style="fill: #262626; stroke: #262626; stroke-width: 0.8"/>
      </g>
     </g>
     <g id="text_21">
      <!-- 0 -->
      <g style="fill: #262626" transform="translate(213.378807 97.205)scale(0.08 -0.08)">
       <use xlink:href="#ArialMT-30"/>
      </g>
     </g>
    </g>
    <g id="xtick_12">
     <g id="line2d_32">
      <g>
       <use xlink:href="#md6833c2e91" x="229.140944" y="85.47875" style="fill: #262626; stroke: #262626; stroke-width: 0.8"/>
      </g>
     </g>
     <g id="text_22">
      <!-- 24 -->
      <g style="fill: #262626" transform="translate(224.692194 97.205)scale(0.08 -0.08)">
       <use xlink:href="#ArialMT-32"/>
       <use xlink:href="#ArialMT-34" x="55.615234"/>
      </g>
     </g>
    </g>
    <g id="xtick_13">
     <g id="line2d_33">
      <g>
       <use xlink:href="#md6833c2e91" x="242.678706" y="85.47875" style="fill: #262626; stroke: #262626; stroke-width: 0.8"/>
      </g>
     </g>
     <g id="text_23">
      <!-- 48 -->
      <g style="fill: #262626" transform="translate(238.229956 97.205)scale(0.08 -0.08)">
       <use xlink:href="#ArialMT-34"/>
       <use xlink:href="#ArialMT-38" x="55.615234"/>
      </g>
     </g>
    </g>
    <g id="xtick_14">
     <g id="line2d_34">
      <g>
       <use xlink:href="#md6833c2e91" x="256.216469" y="85.47875" style="fill: #262626; stroke: #262626; stroke-width: 0.8"/>
      </g>
     </g>
     <g id="text_24">
      <!-- 72 -->
      <g style="fill: #262626" transform="translate(251.767719 97.205)scale(0.08 -0.08)">
       <use xlink:href="#ArialMT-37"/>
       <use xlink:href="#ArialMT-32" x="55.615234"/>
      </g>
     </g>
    </g>
    <g id="xtick_15">
     <g id="line2d_35">
      <g>
       <use xlink:href="#md6833c2e91" x="269.754231" y="85.47875" style="fill: #262626; stroke: #262626; stroke-width: 0.8"/>
      </g>
     </g>
     <g id="text_25">
      <!-- 96 -->
      <g style="fill: #262626" transform="translate(265.305481 97.205)scale(0.08 -0.08)">
       <use xlink:href="#ArialMT-39"/>
       <use xlink:href="#ArialMT-36" x="55.615234"/>
      </g>
     </g>
    </g>
    <g id="text_26">
     <!-- time (h) -->
     <g style="fill: #262626" transform="translate(229.684922 109.346719)scale(0.09 -0.09)">
      <use xlink:href="#ArialMT-74"/>
      <use xlink:href="#ArialMT-69" x="27.783203"/>
      <use xlink:href="#ArialMT-6d" x="50"/>
      <use xlink:href="#ArialMT-65" x="133.300781"/>
      <use xlink:href="#ArialMT-20" x="188.916016"/>
      <use xlink:href="#ArialMT-28" x="216.699219"/>
      <use xlink:href="#ArialMT-68" x="250"/>
      <use xlink:href="#ArialMT-29" x="305.615234"/>
     </g>
    </g>
   </g>
   <g id="matplotlib.axis_6">
    <g id="ytick_11">
     <g id="line2d_36">
      <g>
       <use xlink:href="#m33dccd4c63" x="212.67" y="85.47875" style="fill: #262626; stroke: #262626; stroke-width: 0.8"/>
      </g>
     </g>
    </g>
    <g id="ytick_12">
     <g id="line2d_37">
      <g>
       <use xlink:href="#m33dccd4c63" x="212.67" y="71.008873" style="fill: #262626; stroke: #262626; stroke-width: 0.8"/>
      </g>
     </g>
    </g>
    <g id="ytick_13">
     <g id="line2d_38">
      <g>
       <use xlink:href="#m33dccd4c63" x="212.67" y="56.538995" style="fill: #262626; stroke: #262626; stroke-width: 0.8"/>
      </g>
     </g>
    </g>
    <g id="ytick_14">
     <g id="line2d_39">
      <g>
       <use xlink:href="#m33dccd4c63" x="212.67" y="42.069118" style="fill: #262626; stroke: #262626; stroke-width: 0.8"/>
      </g>
     </g>
    </g>
    <g id="ytick_15">
     <g id="line2d_40">
      <g>
       <use xlink:href="#m33dccd4c63" x="212.67" y="27.599241" style="fill: #262626; stroke: #262626; stroke-width: 0.8"/>
      </g>
     </g>
    </g>
   </g>
   <g id="line2d_41">
    <path d="M 215.603182 56.538995 
L 216.195744 56.538995 
L 216.788306 56.538995 
L 217.380868 56.538995 
L 217.97343 56.538995 
L 218.565992 56.538995 
L 219.158554 56.538995 
L 219.751116 56.538995 
L 220.343678 56.538995 
L 220.93624 56.538995 
L 221.528802 56.538995 
L 222.121364 56.538995 
L 222.713926 56.538995 
L 223.306488 56.538995 
L 223.89905 56.538995 
L 224.491612 56.538995 
L 225.084174 56.538995 
L 225.676736 56.538995 
L 226.269298 56.538995 
L 226.86186 56.538995 
L 227.454421 56.538995 
L 228.046983 56.538995 
L 228.639545 56.538995 
L 229.232107 56.538992 
L 229.824669 56.538985 
L 230.417231 56.538964 
L 231.009793 56.53891 
L 231.602355 56.538776 
L 232.194917 56.538467 
L 232.787479 56.537798 
L 233.380041 56.53643 
L 233.972603 56.533777 
L 234.565165 56.52888 
L 235.157727 56.520247 
L 235.750289 56.505673 
L 236.342851 56.482028 
L 236.935413 56.44506 
L 237.527975 56.389205 
L 238.120537 56.30743 
L 238.713099 56.191122 
L 239.305661 56.030053 
L 239.898223 55.812425 
L 240.490785 55.525043 
L 241.083347 55.15366 
L 241.675909 54.68354 
L 242.268471 54.100278 
L 242.861033 53.390875 
L 243.453595 52.545039 
L 244.046157 51.55658 
L 244.638719 50.42474 
L 245.231281 49.155246 
L 245.823843 47.760894 
L 246.416405 46.261485 
L 247.008967 44.683065 
L 247.601529 43.056496 
L 248.194091 41.4155 
L 248.786653 39.794416 
L 249.379215 38.22592 
L 249.971777 36.738992 
L 250.564339 35.357328 
L 251.156901 34.098338 
L 251.749463 32.972774 
L 252.342025 31.984937 
L 252.934587 31.133367 
L 253.527149 30.41186 
L 254.119711 29.810656 
L 254.712273 29.317653 
L 255.304835 28.91953 
L 255.897397 28.602698 
L 256.489959 28.354047 
L 257.082521 28.161464 
L 257.675083 28.014154 
L 258.267645 27.902787 
L 258.860207 27.819513 
L 259.452769 27.757877 
L 260.045331 27.712689 
L 260.637893 27.679847 
L 261.230455 27.65617 
L 261.823017 27.639226 
L 262.415579 27.627181 
L 263.00814 27.618672 
L 263.600702 27.612694 
L 264.193264 27.608516 
L 264.785826 27.60561 
L 265.378388 27.603598 
L 265.97095 27.60221 
L 266.563512 27.601257 
L 267.156074 27.600604 
L 267.748636 27.60016 
L 268.341198 27.599858 
L 268.93376 27.599654 
L 269.526322 27.599516 
L 270.118884 27.599423 
L 270.711446 27.599362 
L 271.304008 27.59932 
L 271.89657 27.599293 
L 272.489132 27.599275 
L 273.081694 27.599263 
L 273.674256 27.599255 
L 274.266818 27.59925 
" clip-path="url(#p3117e0842b)" style="fill: none; stroke: #800080; stroke-width: 2; stroke-linecap: round"/>
   </g>
   <g id="patch_13">
    <path d="M 212.67 85.47875 
L 212.67 23.28 
" style="fill: none; stroke: #262626; stroke-linejoin: miter; stroke-linecap: square"/>
   </g>
   <g id="patch_14">
    <path d="M 277.2 85.47875 
L 277.2 23.28 
" style="fill: none; stroke: #262626; stroke-linejoin: miter; stroke-linecap: square"/>
   </g>
   <g id="patch_15">
    <path d="M 212.67 85.47875 
L 277.2 85.47875 
" style="fill: none; stroke: #262626; stroke-linejoin: miter; stroke-linecap: square"/>
   </g>
   <g id="patch_16">
    <path d="M 212.67 23.28 
L 277.2 23.28 
" style="fill: none; stroke: #262626; stroke-linejoin: miter; stroke-linecap: square"/>
   </g>
   <g id="line2d_42">
    <path d="M 215.603182 56.538995 
L 216.195744 55.94985 
L 216.788306 55.372699 
L 217.380868 54.807297 
L 217.97343 54.253405 
L 218.565992 53.710789 
L 219.158554 53.17922 
L 219.751116 52.658472 
L 220.343678 52.148325 
L 220.93624 51.648564 
L 221.528802 51.158977 
L 222.121364 50.679356 
L 222.713926 50.209499 
L 223.306488 49.749208 
L 223.89905 49.298287 
L 224.491612 48.856546 
L 225.084174 48.423797 
L 225.676736 47.999858 
L 226.269298 47.58455 
L 226.86186 47.177696 
L 227.454421 46.779125 
L 228.046983 46.388668 
L 228.639545 46.00616 
L 229.232107 45.631438 
L 229.824669 45.264346 
L 230.417231 44.904726 
L 231.009793 44.552427 
L 231.602355 44.2073 
L 232.194917 43.869199 
L 232.787479 43.537981 
L 233.380041 43.213506 
L 233.972603 42.895637 
L 234.565165 42.584238 
L 235.157727 42.279179 
L 235.750289 41.98033 
L 236.342851 41.687565 
L 236.935413 41.40076 
L 237.527975 41.119794 
L 238.120537 40.844547 
L 238.713099 40.574904 
L 239.305661 40.31075 
L 239.898223 40.051974 
L 240.490785 39.798466 
L 241.083347 39.550119 
L 241.675909 39.306827 
L 242.268471 39.068488 
L 242.861033 38.835001 
L 243.453595 38.606268 
L 244.046157 38.382191 
L 244.638719 38.162675 
L 245.231281 37.947629 
L 245.823843 37.73696 
L 246.416405 37.53058 
L 247.008967 37.328401 
L 247.601529 37.130339 
L 248.194091 36.936308 
L 248.786653 36.746227 
L 249.379215 36.560016 
L 249.971777 36.377596 
L 250.564339 36.19889 
L 251.156901 36.023821 
L 251.749463 35.852317 
L 252.342025 35.684303 
L 252.934587 35.519711 
L 253.527149 35.358469 
L 254.119711 35.200509 
L 254.712273 35.045765 
L 255.304835 34.894172 
L 255.897397 34.745664 
L 256.489959 34.60018 
L 257.082521 34.457657 
L 257.675083 34.318036 
L 258.267645 34.181257 
L 258.860207 34.047263 
L 259.452769 33.915996 
L 260.045331 33.787402 
L 260.637893 33.661426 
L 261.230455 33.538014 
L 261.823017 33.417115 
L 262.415579 33.298677 
L 263.00814 33.18265 
L 263.600702 33.068985 
L 264.193264 32.957633 
L 264.785826 32.848549 
L 265.378388 32.741686 
L 265.97095 32.636998 
L 266.563512 32.534441 
L 267.156074 32.433972 
L 267.748636 32.335548 
L 268.341198 32.239128 
L 268.93376 32.144671 
L 269.526322 32.052137 
L 270.118884 31.961486 
L 270.711446 31.872681 
L 271.304008 31.785684 
L 271.89657 31.700458 
L 272.489132 31.616967 
L 273.081694 31.535176 
L 273.674256 31.455049 
L 274.266818 31.376554 
" clip-path="url(#p3117e0842b)" style="fill: none; stroke: #1f77b4; stroke-width: 2; stroke-linecap: round"/>
   </g>
   <g id="text_27">
    <!-- Gad2 -->
    <g style="fill: #262626" transform="translate(233.927578 17.28)scale(0.09 -0.09)">
     <defs>
      <path id="Arial-ItalicMT-32" d="M 375 0 
Q 463 409 617 686 
Q 772 963 1028 1211 
Q 1284 1459 2016 2044 
Q 2459 2397 2622 2566 
Q 2856 2809 2963 3044 
Q 3034 3203 3034 3391 
Q 3034 3706 2811 3926 
Q 2588 4147 2263 4147 
Q 1941 4147 1700 3923 
Q 1459 3700 1356 3206 
L 803 3288 
Q 884 3897 1276 4248 
Q 1669 4600 2253 4600 
Q 2644 4600 2961 4437 
Q 3278 4275 3437 3981 
Q 3597 3688 3597 3375 
Q 3597 2919 3272 2497 
Q 3072 2234 2097 1463 
Q 1678 1131 1473 918 
Q 1269 706 1166 519 
L 3216 519 
L 3106 0 
L 375 0 
z
" transform="scale(0.015625)"/>
     </defs>
     <use xlink:href="#Arial-ItalicMT-47"/>
     <use xlink:href="#Arial-ItalicMT-61" x="77.783203"/>
     <use xlink:href="#Arial-ItalicMT-64" x="133.398438"/>
     <use xlink:href="#Arial-ItalicMT-32" x="189.013672"/>
    </g>
   </g>
   <g id="line2d_43">
    <path d="M 215.603182 56.538995 
L 216.195744 55.949851 
L 216.788306 55.3727 
L 217.380868 54.807299 
L 217.97343 54.253407 
L 218.565992 53.710792 
L 219.158554 53.179223 
L 219.751116 52.658476 
L 220.343678 52.148329 
L 220.93624 51.648568 
L 221.528802 51.158981 
L 222.121364 50.679361 
L 222.713926 50.209505 
L 223.306488 49.749214 
L 223.89905 49.298293 
L 224.491612 48.856552 
L 225.084174 48.423804 
L 225.676736 47.999865 
L 226.269298 47.584557 
L 226.86186 47.177704 
L 227.454421 46.779133 
L 228.046983 46.388676 
L 228.639545 46.006168 
L 229.232107 45.631447 
L 229.824669 45.264354 
L 230.417231 44.904734 
L 231.009793 44.552436 
L 231.602355 44.207309 
L 232.194917 43.869208 
L 232.787479 43.53799 
L 233.380041 43.213515 
L 233.972603 42.895646 
L 234.565165 42.584248 
L 235.157727 42.279189 
L 235.750289 41.98034 
L 236.342851 41.687575 
L 236.935413 41.40077 
L 237.527975 41.119804 
L 238.120537 40.844557 
L 238.713099 40.574914 
L 239.305661 40.31076 
L 239.898223 40.051984 
L 240.490785 39.798476 
L 241.083347 39.550129 
L 241.675909 39.306837 
L 242.268471 39.068498 
L 242.861033 38.835011 
L 243.453595 38.606278 
L 244.046157 38.382201 
L 244.638719 38.162686 
L 245.231281 37.947639 
L 245.823843 37.73697 
L 246.416405 37.53059 
L 247.008967 37.328412 
L 247.601529 37.130349 
L 248.194091 36.936318 
L 248.786653 36.746238 
L 249.379215 36.560026 
L 249.971777 36.377606 
L 250.564339 36.1989 
L 251.156901 36.023831 
L 251.749463 35.852326 
L 252.342025 35.684313 
L 252.934587 35.51972 
L 253.527149 35.358478 
L 254.119711 35.200519 
L 254.712273 35.045775 
L 255.304835 34.894181 
L 255.897397 34.745674 
L 256.489959 34.600189 
L 257.082521 34.457667 
L 257.675083 34.318045 
L 258.267645 34.181267 
L 258.860207 34.047272 
L 259.452769 33.916006 
L 260.045331 33.787411 
L 260.637893 33.661435 
L 261.230455 33.538023 
L 261.823017 33.417124 
L 262.415579 33.298685 
L 263.00814 33.182658 
L 263.600702 33.068993 
L 264.193264 32.957642 
L 264.785826 32.848558 
L 265.378388 32.741694 
L 265.97095 32.637006 
L 266.563512 32.534449 
L 267.156074 32.43398 
L 267.748636 32.335556 
L 268.341198 32.239136 
L 268.93376 32.144679 
L 269.526322 32.052145 
L 270.118884 31.961494 
L 270.711446 31.872689 
L 271.304008 31.785692 
L 271.89657 31.700466 
L 272.489132 31.616975 
L 273.081694 31.535183 
L 273.674256 31.455057 
L 274.266818 31.376561 
" clip-path="url(#p3117e0842b)" style="fill: none; stroke: #2ca02c; stroke-width: 2; stroke-linecap: round"/>
   </g>
   <g id="PathCollection_3">
    <g clip-path="url(#p3117e0842b)">
     <use xlink:href="#mc138f34e74" x="215.603182" y="56.538995" style="stroke: #ffffff; stroke-width: 0.252982"/>
     <use xlink:href="#mc138f34e74" x="215.603182" y="56.538995" style="stroke: #ffffff; stroke-width: 0.252982"/>
     <use xlink:href="#mc138f34e74" x="225.756503" y="56.538995" style="stroke: #ffffff; stroke-width: 0.252982"/>
     <use xlink:href="#mc138f34e74" x="225.756503" y="56.538995" style="stroke: #ffffff; stroke-width: 0.252982"/>
     <use xlink:href="#mc138f34e74" x="229.140944" y="51.919474" style="stroke: #ffffff; stroke-width: 0.252982"/>
     <use xlink:href="#mc138f34e74" x="229.140944" y="51.919474" style="stroke: #ffffff; stroke-width: 0.252982"/>
     <use xlink:href="#mc138f34e74" x="242.678706" y="53.624402" style="stroke: #ffffff; stroke-width: 0.252982"/>
     <use xlink:href="#mc138f34e74" x="242.678706" y="53.624402" style="stroke: #ffffff; stroke-width: 0.252982"/>
     <use xlink:href="#mc138f34e74" x="218.987622" y="46.090286" style="stroke: #ffffff; stroke-width: 0.252982"/>
     <use xlink:href="#mc138f34e74" x="218.987622" y="46.090286" style="stroke: #ffffff; stroke-width: 0.252982"/>
     <use xlink:href="#mc138f34e74" x="262.98535" y="27.599241" style="stroke: #ffffff; stroke-width: 0.252982"/>
    </g>
   </g>
   <g id="LineCollection_3">
    <path d="M 215.603182 56.538995 
L 215.603182 56.538995 
" clip-path="url(#p3117e0842b)" style="fill: none; stroke: #000000"/>
    <path d="M 215.603182 56.538995 
L 215.603182 56.538995 
" clip-path="url(#p3117e0842b)" style="fill: none; stroke: #000000"/>
    <path d="M 225.756503 56.538995 
L 225.756503 56.538995 
" clip-path="url(#p3117e0842b)" style="fill: none; stroke: #000000"/>
    <path d="M 225.756503 56.538995 
L 225.756503 56.538995 
" clip-path="url(#p3117e0842b)" style="fill: none; stroke: #000000"/>
    <path d="M 229.140944 58.452464 
L 229.140944 45.386483 
" clip-path="url(#p3117e0842b)" style="fill: none; stroke: #000000"/>
    <path d="M 229.140944 58.452464 
L 229.140944 45.386483 
" clip-path="url(#p3117e0842b)" style="fill: none; stroke: #000000"/>
    <path d="M 242.678706 57.74626 
L 242.678706 49.502544 
" clip-path="url(#p3117e0842b)" style="fill: none; stroke: #000000"/>
    <path d="M 242.678706 57.74626 
L 242.678706 49.502544 
" clip-path="url(#p3117e0842b)" style="fill: none; stroke: #000000"/>
    <path d="M 218.987622 47.801012 
L 218.987622 44.37956 
" clip-path="url(#p3117e0842b)" style="fill: none; stroke: #000000"/>
    <path d="M 218.987622 47.801012 
L 218.987622 44.37956 
" clip-path="url(#p3117e0842b)" style="fill: none; stroke: #000000"/>
    <path d="M 262.98535 30.243603 
L 262.98535 24.954879 
" clip-path="url(#p3117e0842b)" style="fill: none; stroke: #000000"/>
   </g>
   <g id="line2d_44">
    <g clip-path="url(#p3117e0842b)">
     <use xlink:href="#m3cb570d0a1" x="215.603182" y="56.538995" style="stroke: #000000"/>
     <use xlink:href="#m3cb570d0a1" x="215.603182" y="56.538995" style="stroke: #000000"/>
     <use xlink:href="#m3cb570d0a1" x="225.756503" y="56.538995" style="stroke: #000000"/>
     <use xlink:href="#m3cb570d0a1" x="225.756503" y="56.538995" style="stroke: #000000"/>
     <use xlink:href="#m3cb570d0a1" x="229.140944" y="58.452464" style="stroke: #000000"/>
     <use xlink:href="#m3cb570d0a1" x="229.140944" y="58.452464" style="stroke: #000000"/>
     <use xlink:href="#m3cb570d0a1" x="242.678706" y="57.74626" style="stroke: #000000"/>
     <use xlink:href="#m3cb570d0a1" x="242.678706" y="57.74626" style="stroke: #000000"/>
     <use xlink:href="#m3cb570d0a1" x="218.987622" y="47.801012" style="stroke: #000000"/>
     <use xlink:href="#m3cb570d0a1" x="218.987622" y="47.801012" style="stroke: #000000"/>
     <use xlink:href="#m3cb570d0a1" x="262.98535" y="30.243603" style="stroke: #000000"/>
    </g>
   </g>
   <g id="line2d_45">
    <g clip-path="url(#p3117e0842b)">
     <use xlink:href="#m3cb570d0a1" x="215.603182" y="56.538995" style="stroke: #000000"/>
     <use xlink:href="#m3cb570d0a1" x="215.603182" y="56.538995" style="stroke: #000000"/>
     <use xlink:href="#m3cb570d0a1" x="225.756503" y="56.538995" style="stroke: #000000"/>
     <use xlink:href="#m3cb570d0a1" x="225.756503" y="56.538995" style="stroke: #000000"/>
     <use xlink:href="#m3cb570d0a1" x="229.140944" y="45.386483" style="stroke: #000000"/>
     <use xlink:href="#m3cb570d0a1" x="229.140944" y="45.386483" style="stroke: #000000"/>
     <use xlink:href="#m3cb570d0a1" x="242.678706" y="49.502544" style="stroke: #000000"/>
     <use xlink:href="#m3cb570d0a1" x="242.678706" y="49.502544" style="stroke: #000000"/>
     <use xlink:href="#m3cb570d0a1" x="218.987622" y="44.37956" style="stroke: #000000"/>
     <use xlink:href="#m3cb570d0a1" x="218.987622" y="44.37956" style="stroke: #000000"/>
     <use xlink:href="#m3cb570d0a1" x="262.98535" y="24.954879" style="stroke: #000000"/>
    </g>
   </g>
  </g>
 </g>
 <defs>
  <clipPath id="peca6d385cd">
   <rect x="45.19" y="23.28" width="64.53" height="62.19875"/>
  </clipPath>
  <clipPath id="pbe0e6cd2bf">
   <rect x="128.93" y="23.28" width="64.53" height="62.19875"/>
  </clipPath>
  <clipPath id="p3117e0842b">
   <rect x="212.67" y="23.28" width="64.53" height="62.19875"/>
  </clipPath>
 </defs>
</svg>
