<?xml version="1.0" encoding="utf-8" standalone="no"?>
<!DOCTYPE svg PUBLIC "-//W3C//DTD SVG 1.1//EN"
  "http://www.w3.org/Graphics/SVG/1.1/DTD/svg11.dtd">
<svg xmlns:xlink="http://www.w3.org/1999/xlink" width="180pt" height="180pt" viewBox="0 0 180 180" xmlns="http://www.w3.org/2000/svg" version="1.1">
 <metadata>
  <rdf:RDF xmlns:dc="http://purl.org/dc/elements/1.1/" xmlns:cc="http://creativecommons.org/ns#" xmlns:rdf="http://www.w3.org/1999/02/22-rdf-syntax-ns#">
   <cc:Work>
    <dc:type rdf:resource="http://purl.org/dc/dcmitype/StillImage"/>
    <dc:date>2022-11-14T10:01:55.428607</dc:date>
    <dc:format>image/svg+xml</dc:format>
    <dc:creator>
     <cc:Agent>
      <dc:title>Matplotlib v3.5.1, https://matplotlib.org/</dc:title>
     </cc:Agent>
    </dc:creator>
   </cc:Work>
  </rdf:RDF>
 </metadata>
 <defs>
  <style type="text/css">*{stroke-linejoin: round; stroke-linecap: butt}</style>
 </defs>
 <g id="figure_1">
  <g id="patch_1">
   <path d="M 0 180 
L 180 180 
L 180 0 
L 0 0 
z
" style="fill: #ffffff"/>
  </g>
  <g id="axes_1">
   <g id="patch_2">
    <path d="M 40.51 69.539375 
L 97.455 69.539375 
L 97.455 23.28 
L 40.51 23.28 
z
" style="fill: #ffffff"/>
   </g>
   <g id="matplotlib.axis_1">
    <g id="xtick_1">
     <g id="line2d_1">
      <defs>
       <path id="m74e9390b8e" d="M 0 0 
L 0 4 
" style="stroke: #262626; stroke-width: 0.8"/>
      </defs>
      <g>
       <use xlink:href="#m74e9390b8e" x="43.098409" y="69.539375" style="fill: #262626; stroke: #262626; stroke-width: 0.8"/>
      </g>
     </g>
    </g>
    <g id="xtick_2">
     <g id="line2d_2">
      <g>
       <use xlink:href="#m74e9390b8e" x="55.044913" y="69.539375" style="fill: #262626; stroke: #262626; stroke-width: 0.8"/>
      </g>
     </g>
    </g>
    <g id="xtick_3">
     <g id="line2d_3">
      <g>
       <use xlink:href="#m74e9390b8e" x="66.991416" y="69.539375" style="fill: #262626; stroke: #262626; stroke-width: 0.8"/>
      </g>
     </g>
    </g>
    <g id="xtick_4">
     <g id="line2d_4">
      <g>
       <use xlink:href="#m74e9390b8e" x="78.93792" y="69.539375" style="fill: #262626; stroke: #262626; stroke-width: 0.8"/>
      </g>
     </g>
    </g>
    <g id="xtick_5">
     <g id="line2d_5">
      <g>
       <use xlink:href="#m74e9390b8e" x="90.884423" y="69.539375" style="fill: #262626; stroke: #262626; stroke-width: 0.8"/>
      </g>
     </g>
    </g>
   </g>
   <g id="matplotlib.axis_2">
    <g id="ytick_1">
     <g id="line2d_6">
      <defs>
       <path id="me06852cf45" d="M 0 0 
L -4 0 
" style="stroke: #262626; stroke-width: 0.8"/>
      </defs>
      <g>
       <use xlink:href="#me06852cf45" x="40.51" y="61.58385" style="fill: #262626; stroke: #262626; stroke-width: 0.8"/>
      </g>
     </g>
     <g id="text_1">
      <!-- 0.0 -->
      <g style="fill: #262626" transform="translate(23.39 64.446975)scale(0.08 -0.08)">
       <defs>
        <path id="ArialMT-30" d="M 266 2259 
Q 266 3072 433 3567 
Q 600 4063 929 4331 
Q 1259 4600 1759 4600 
Q 2128 4600 2406 4451 
Q 2684 4303 2865 4023 
Q 3047 3744 3150 3342 
Q 3253 2941 3253 2259 
Q 3253 1453 3087 958 
Q 2922 463 2592 192 
Q 2263 -78 1759 -78 
Q 1097 -78 719 397 
Q 266 969 266 2259 
z
M 844 2259 
Q 844 1131 1108 757 
Q 1372 384 1759 384 
Q 2147 384 2411 759 
Q 2675 1134 2675 2259 
Q 2675 3391 2411 3762 
Q 2147 4134 1753 4134 
Q 1366 4134 1134 3806 
Q 844 3388 844 2259 
z
" transform="scale(0.015625)"/>
        <path id="ArialMT-2e" d="M 581 0 
L 581 641 
L 1222 641 
L 1222 0 
L 581 0 
z
" transform="scale(0.015625)"/>
       </defs>
       <use xlink:href="#ArialMT-30"/>
       <use xlink:href="#ArialMT-2e" x="55.615234"/>
       <use xlink:href="#ArialMT-30" x="83.398438"/>
      </g>
     </g>
    </g>
    <g id="ytick_2">
     <g id="line2d_7">
      <g>
       <use xlink:href="#me06852cf45" x="40.51" y="44.608014" style="fill: #262626; stroke: #262626; stroke-width: 0.8"/>
      </g>
     </g>
     <g id="text_2">
      <!-- 0.5 -->
      <g style="fill: #262626" transform="translate(23.39 47.471139)scale(0.08 -0.08)">
       <defs>
        <path id="ArialMT-35" d="M 266 1200 
L 856 1250 
Q 922 819 1161 601 
Q 1400 384 1738 384 
Q 2144 384 2425 690 
Q 2706 997 2706 1503 
Q 2706 1984 2436 2262 
Q 2166 2541 1728 2541 
Q 1456 2541 1237 2417 
Q 1019 2294 894 2097 
L 366 2166 
L 809 4519 
L 3088 4519 
L 3088 3981 
L 1259 3981 
L 1013 2750 
Q 1425 3038 1878 3038 
Q 2478 3038 2890 2622 
Q 3303 2206 3303 1553 
Q 3303 931 2941 478 
Q 2500 -78 1738 -78 
Q 1113 -78 717 272 
Q 322 622 266 1200 
z
" transform="scale(0.015625)"/>
       </defs>
       <use xlink:href="#ArialMT-30"/>
       <use xlink:href="#ArialMT-2e" x="55.615234"/>
       <use xlink:href="#ArialMT-35" x="83.398438"/>
      </g>
     </g>
    </g>
    <g id="ytick_3">
     <g id="line2d_8">
      <g>
       <use xlink:href="#me06852cf45" x="40.51" y="27.632177" style="fill: #262626; stroke: #262626; stroke-width: 0.8"/>
      </g>
     </g>
     <g id="text_3">
      <!-- 1.0 -->
      <g style="fill: #262626" transform="translate(23.39 30.495302)scale(0.08 -0.08)">
       <defs>
        <path id="ArialMT-31" d="M 2384 0 
L 1822 0 
L 1822 3584 
Q 1619 3391 1289 3197 
Q 959 3003 697 2906 
L 697 3450 
Q 1169 3672 1522 3987 
Q 1875 4303 2022 4600 
L 2384 4600 
L 2384 0 
z
" transform="scale(0.015625)"/>
       </defs>
       <use xlink:href="#ArialMT-31"/>
       <use xlink:href="#ArialMT-2e" x="55.615234"/>
       <use xlink:href="#ArialMT-30" x="83.398438"/>
      </g>
     </g>
    </g>
    <g id="text_4">
     <!-- expr. norm. -->
     <g style="fill: #262626" transform="translate(17.60125 68.917422)rotate(-90)scale(0.09 -0.09)">
      <defs>
       <path id="ArialMT-65" d="M 2694 1069 
L 3275 997 
Q 3138 488 2766 206 
Q 2394 -75 1816 -75 
Q 1088 -75 661 373 
Q 234 822 234 1631 
Q 234 2469 665 2931 
Q 1097 3394 1784 3394 
Q 2450 3394 2872 2941 
Q 3294 2488 3294 1666 
Q 3294 1616 3291 1516 
L 816 1516 
Q 847 969 1125 678 
Q 1403 388 1819 388 
Q 2128 388 2347 550 
Q 2566 713 2694 1069 
z
M 847 1978 
L 2700 1978 
Q 2663 2397 2488 2606 
Q 2219 2931 1791 2931 
Q 1403 2931 1139 2672 
Q 875 2413 847 1978 
z
" transform="scale(0.015625)"/>
       <path id="ArialMT-78" d="M 47 0 
L 1259 1725 
L 138 3319 
L 841 3319 
L 1350 2541 
Q 1494 2319 1581 2169 
Q 1719 2375 1834 2534 
L 2394 3319 
L 3066 3319 
L 1919 1756 
L 3153 0 
L 2463 0 
L 1781 1031 
L 1600 1309 
L 728 0 
L 47 0 
z
" transform="scale(0.015625)"/>
       <path id="ArialMT-70" d="M 422 -1272 
L 422 3319 
L 934 3319 
L 934 2888 
Q 1116 3141 1344 3267 
Q 1572 3394 1897 3394 
Q 2322 3394 2647 3175 
Q 2972 2956 3137 2557 
Q 3303 2159 3303 1684 
Q 3303 1175 3120 767 
Q 2938 359 2589 142 
Q 2241 -75 1856 -75 
Q 1575 -75 1351 44 
Q 1128 163 984 344 
L 984 -1272 
L 422 -1272 
z
M 931 1641 
Q 931 1000 1190 694 
Q 1450 388 1819 388 
Q 2194 388 2461 705 
Q 2728 1022 2728 1688 
Q 2728 2322 2467 2637 
Q 2206 2953 1844 2953 
Q 1484 2953 1207 2617 
Q 931 2281 931 1641 
z
" transform="scale(0.015625)"/>
       <path id="ArialMT-72" d="M 416 0 
L 416 3319 
L 922 3319 
L 922 2816 
Q 1116 3169 1280 3281 
Q 1444 3394 1641 3394 
Q 1925 3394 2219 3213 
L 2025 2691 
Q 1819 2813 1613 2813 
Q 1428 2813 1281 2702 
Q 1134 2591 1072 2394 
Q 978 2094 978 1738 
L 978 0 
L 416 0 
z
" transform="scale(0.015625)"/>
       <path id="ArialMT-20" transform="scale(0.015625)"/>
       <path id="ArialMT-6e" d="M 422 0 
L 422 3319 
L 928 3319 
L 928 2847 
Q 1294 3394 1984 3394 
Q 2284 3394 2536 3286 
Q 2788 3178 2913 3003 
Q 3038 2828 3088 2588 
Q 3119 2431 3119 2041 
L 3119 0 
L 2556 0 
L 2556 2019 
Q 2556 2363 2490 2533 
Q 2425 2703 2258 2804 
Q 2091 2906 1866 2906 
Q 1506 2906 1245 2678 
Q 984 2450 984 1813 
L 984 0 
L 422 0 
z
" transform="scale(0.015625)"/>
       <path id="ArialMT-6f" d="M 213 1659 
Q 213 2581 725 3025 
Q 1153 3394 1769 3394 
Q 2453 3394 2887 2945 
Q 3322 2497 3322 1706 
Q 3322 1066 3130 698 
Q 2938 331 2570 128 
Q 2203 -75 1769 -75 
Q 1072 -75 642 372 
Q 213 819 213 1659 
z
M 791 1659 
Q 791 1022 1069 705 
Q 1347 388 1769 388 
Q 2188 388 2466 706 
Q 2744 1025 2744 1678 
Q 2744 2294 2464 2611 
Q 2184 2928 1769 2928 
Q 1347 2928 1069 2612 
Q 791 2297 791 1659 
z
" transform="scale(0.015625)"/>
       <path id="ArialMT-6d" d="M 422 0 
L 422 3319 
L 925 3319 
L 925 2853 
Q 1081 3097 1340 3245 
Q 1600 3394 1931 3394 
Q 2300 3394 2536 3241 
Q 2772 3088 2869 2813 
Q 3263 3394 3894 3394 
Q 4388 3394 4653 3120 
Q 4919 2847 4919 2278 
L 4919 0 
L 4359 0 
L 4359 2091 
Q 4359 2428 4304 2576 
Q 4250 2725 4106 2815 
Q 3963 2906 3769 2906 
Q 3419 2906 3187 2673 
Q 2956 2441 2956 1928 
L 2956 0 
L 2394 0 
L 2394 2156 
Q 2394 2531 2256 2718 
Q 2119 2906 1806 2906 
Q 1569 2906 1367 2781 
Q 1166 2656 1075 2415 
Q 984 2175 984 1722 
L 984 0 
L 422 0 
z
" transform="scale(0.015625)"/>
      </defs>
      <use xlink:href="#ArialMT-65"/>
      <use xlink:href="#ArialMT-78" x="55.615234"/>
      <use xlink:href="#ArialMT-70" x="105.615234"/>
      <use xlink:href="#ArialMT-72" x="161.230469"/>
      <use xlink:href="#ArialMT-2e" x="189.03125"/>
      <use xlink:href="#ArialMT-20" x="216.814453"/>
      <use xlink:href="#ArialMT-6e" x="244.597656"/>
      <use xlink:href="#ArialMT-6f" x="300.212891"/>
      <use xlink:href="#ArialMT-72" x="355.828125"/>
      <use xlink:href="#ArialMT-6d" x="389.128906"/>
      <use xlink:href="#ArialMT-2e" x="472.429688"/>
     </g>
    </g>
   </g>
   <g id="patch_3">
    <path d="M 40.51 69.539375 
L 40.51 23.28 
" style="fill: none; stroke: #262626; stroke-linejoin: miter; stroke-linecap: square"/>
   </g>
   <g id="patch_4">
    <path d="M 97.455 69.539375 
L 97.455 23.28 
" style="fill: none; stroke: #262626; stroke-linejoin: miter; stroke-linecap: square"/>
   </g>
   <g id="patch_5">
    <path d="M 40.51 69.539375 
L 97.455 69.539375 
" style="fill: none; stroke: #262626; stroke-linejoin: miter; stroke-linecap: square"/>
   </g>
   <g id="patch_6">
    <path d="M 40.51 23.28 
L 97.455 23.28 
" style="fill: none; stroke: #262626; stroke-linejoin: miter; stroke-linecap: square"/>
   </g>
   <g id="text_5">
    <!-- Sdf2l1 -->
    <g style="fill: #262626" transform="translate(56.223594 17.28)scale(0.09 -0.09)">
     <defs>
      <path id="Arial-ItalicMT-53" d="M 450 1481 
L 1050 1538 
L 1044 1378 
Q 1044 1113 1166 892 
Q 1288 672 1569 551 
Q 1850 431 2238 431 
Q 2788 431 3077 672 
Q 3366 913 3366 1222 
Q 3366 1438 3213 1616 
Q 3056 1791 2359 2091 
Q 1819 2325 1622 2450 
Q 1313 2653 1166 2892 
Q 1019 3131 1019 3438 
Q 1019 3791 1212 4075 
Q 1406 4359 1779 4509 
Q 2153 4659 2622 4659 
Q 3181 4659 3565 4471 
Q 3950 4284 4123 3971 
Q 4297 3659 4297 3375 
Q 4297 3347 4294 3281 
L 3703 3234 
Q 3703 3428 3669 3538 
Q 3606 3728 3475 3859 
Q 3344 3991 3114 4070 
Q 2884 4150 2600 4150 
Q 2100 4150 1822 3925 
Q 1609 3753 1609 3469 
Q 1609 3300 1696 3167 
Q 1784 3034 2013 2906 
Q 2175 2816 2784 2547 
Q 3278 2328 3466 2203 
Q 3716 2038 3850 1802 
Q 3984 1566 3984 1266 
Q 3984 894 3757 580 
Q 3531 266 3131 94 
Q 2731 -78 2216 -78 
Q 1438 -78 945 261 
Q 453 600 450 1481 
z
" transform="scale(0.015625)"/>
      <path id="Arial-ItalicMT-64" d="M 2450 481 
Q 1966 -75 1438 -75 
Q 966 -75 652 273 
Q 338 622 338 1284 
Q 338 1891 586 2392 
Q 834 2894 1207 3144 
Q 1581 3394 1956 3394 
Q 2575 3394 2891 2797 
L 3266 4581 
L 3828 4581 
L 2872 0 
L 2350 0 
L 2450 481 
z
M 900 1391 
Q 900 1044 969 844 
Q 1038 644 1203 511 
Q 1369 378 1600 378 
Q 1984 378 2297 778 
Q 2716 1309 2716 2091 
Q 2716 2484 2509 2706 
Q 2303 2928 1991 2928 
Q 1788 2928 1620 2837 
Q 1453 2747 1289 2530 
Q 1125 2313 1012 1978 
Q 900 1644 900 1391 
z
" transform="scale(0.015625)"/>
      <path id="Arial-ItalicMT-66" d="M 291 0 
L 894 2881 
L 388 2881 
L 478 3319 
L 984 3319 
L 1081 3791 
Q 1156 4144 1236 4300 
Q 1316 4456 1495 4557 
Q 1675 4659 1984 4659 
Q 2200 4659 2609 4569 
L 2506 4075 
Q 2219 4150 2025 4150 
Q 1859 4150 1773 4067 
Q 1688 3984 1625 3675 
L 1550 3319 
L 2181 3319 
L 2091 2881 
L 1459 2881 
L 856 0 
L 291 0 
z
" transform="scale(0.015625)"/>
      <path id="Arial-ItalicMT-32" d="M 375 0 
Q 463 409 617 686 
Q 772 963 1028 1211 
Q 1284 1459 2016 2044 
Q 2459 2397 2622 2566 
Q 2856 2809 2963 3044 
Q 3034 3203 3034 3391 
Q 3034 3706 2811 3926 
Q 2588 4147 2263 4147 
Q 1941 4147 1700 3923 
Q 1459 3700 1356 3206 
L 803 3288 
Q 884 3897 1276 4248 
Q 1669 4600 2253 4600 
Q 2644 4600 2961 4437 
Q 3278 4275 3437 3981 
Q 3597 3688 3597 3375 
Q 3597 2919 3272 2497 
Q 3072 2234 2097 1463 
Q 1678 1131 1473 918 
Q 1269 706 1166 519 
L 3216 519 
L 3106 0 
L 375 0 
z
" transform="scale(0.015625)"/>
      <path id="Arial-ItalicMT-6c" d="M 169 0 
L 1125 4581 
L 1691 4581 
L 734 0 
L 169 0 
z
" transform="scale(0.015625)"/>
      <path id="Arial-ItalicMT-31" d="M 1541 0 
L 2266 3459 
Q 1797 3091 947 2869 
L 1053 3381 
Q 1475 3550 1886 3822 
Q 2297 4094 2503 4297 
Q 2628 4422 2741 4600 
L 3069 4600 
L 2109 0 
L 1541 0 
z
" transform="scale(0.015625)"/>
     </defs>
     <use xlink:href="#Arial-ItalicMT-53"/>
     <use xlink:href="#Arial-ItalicMT-64" x="66.699219"/>
     <use xlink:href="#Arial-ItalicMT-66" x="122.314453"/>
     <use xlink:href="#Arial-ItalicMT-32" x="150.097656"/>
     <use xlink:href="#Arial-ItalicMT-6c" x="205.712891"/>
     <use xlink:href="#Arial-ItalicMT-31" x="227.929688"/>
    </g>
   </g>
   <g id="line2d_9">
    <path d="M 43.098409 61.58385 
L 43.62132 60.027591 
L 44.144231 58.542666 
L 44.667142 57.125807 
L 45.190053 55.773893 
L 45.712964 54.483947 
L 46.235875 53.253129 
L 46.758786 52.078729 
L 47.281697 50.95816 
L 47.804607 49.888956 
L 48.327518 48.868761 
L 48.850429 47.895329 
L 49.37334 46.966517 
L 49.896251 46.080279 
L 50.419162 45.234665 
L 50.942073 44.427811 
L 51.464984 43.657941 
L 51.987895 42.92336 
L 52.510806 42.222451 
L 53.033717 41.553669 
L 53.556628 40.915543 
L 54.079539 40.306667 
L 54.602449 39.7257 
L 55.12536 39.171363 
L 55.648271 38.642436 
L 56.171182 38.137753 
L 56.694093 37.656204 
L 57.217004 37.196727 
L 57.739915 36.758312 
L 58.262826 36.339993 
L 58.785737 35.940849 
L 59.308648 35.56 
L 59.831559 35.196608 
L 60.35447 34.849874 
L 60.877381 34.519033 
L 61.400292 34.203357 
L 61.923202 33.90215 
L 62.446113 33.61475 
L 62.969024 33.340524 
L 63.491935 33.078868 
L 64.014846 32.829205 
L 64.537757 32.590986 
L 65.060668 32.363687 
L 65.583579 32.146806 
L 66.10649 31.939867 
L 66.629401 31.742413 
L 67.152312 31.55401 
L 67.675223 31.374243 
L 68.198134 31.202716 
L 68.721045 31.039052 
L 69.243955 30.882889 
L 69.766866 30.733885 
L 70.289777 30.59171 
L 70.812688 30.456053 
L 71.335599 30.326613 
L 71.85851 30.203107 
L 72.381421 30.085262 
L 72.904332 29.972819 
L 73.427243 29.86553 
L 73.950154 29.763158 
L 74.473065 29.665479 
L 74.995976 29.572278 
L 75.518887 29.483349 
L 76.041798 29.398496 
L 76.564708 29.317532 
L 77.087619 29.240279 
L 77.61053 29.166568 
L 78.133441 29.096235 
L 78.656352 29.029127 
L 79.179263 28.965094 
L 79.702174 28.903996 
L 80.225085 28.845699 
L 80.747996 28.790075 
L 81.270907 28.736999 
L 81.793818 28.686357 
L 82.316729 28.638036 
L 82.83964 28.59193 
L 83.362551 28.547937 
L 83.885461 28.505961 
L 84.408372 28.465909 
L 84.931283 28.427693 
L 85.454194 28.391228 
L 85.977105 28.356435 
L 86.500016 28.323237 
L 87.022927 28.291561 
L 87.545838 28.261336 
L 88.068749 28.232497 
L 88.59166 28.20498 
L 89.114571 28.178724 
L 89.637482 28.153672 
L 90.160393 28.129768 
L 90.683303 28.106959 
L 91.206214 28.085197 
L 91.729125 28.064431 
L 92.252036 28.044618 
L 92.774947 28.025713 
L 93.297858 28.007674 
L 93.820769 27.990462 
L 94.34368 27.974039 
L 94.866591 27.958369 
" clip-path="url(#pdc55e28417)" style="fill: none; stroke: #2ca02c; stroke-width: 2; stroke-linecap: round"/>
   </g>
   <g id="PathCollection_1">
    <defs>
     <path id="m802b67f48f" d="M 0 1.581139 
C 0.419323 1.581139 0.821528 1.41454 1.118034 1.118034 
C 1.41454 0.821528 1.581139 0.419323 1.581139 0 
C 1.581139 -0.419323 1.41454 -0.821528 1.118034 -1.118034 
C 0.821528 -1.41454 0.419323 -1.581139 0 -1.581139 
C -0.419323 -1.581139 -0.821528 -1.41454 -1.118034 -1.118034 
C -1.41454 -0.821528 -1.581139 -0.419323 -1.581139 0 
C -1.581139 0.419323 -1.41454 0.821528 -1.118034 1.118034 
C -0.821528 1.41454 -0.419323 1.581139 0 1.581139 
z
" style="stroke: #ffffff; stroke-width: 0.252982"/>
    </defs>
    <g clip-path="url(#pdc55e28417)">
     <use xlink:href="#m802b67f48f" x="43.098409" y="61.58385" style="stroke: #ffffff; stroke-width: 0.252982"/>
     <use xlink:href="#m802b67f48f" x="43.098409" y="61.58385" style="stroke: #ffffff; stroke-width: 0.252982"/>
     <use xlink:href="#m802b67f48f" x="52.058287" y="36.199155" style="stroke: #ffffff; stroke-width: 0.252982"/>
     <use xlink:href="#m802b67f48f" x="52.058287" y="36.199155" style="stroke: #ffffff; stroke-width: 0.252982"/>
     <use xlink:href="#m802b67f48f" x="55.044913" y="32.73416" style="stroke: #ffffff; stroke-width: 0.252982"/>
     <use xlink:href="#m802b67f48f" x="55.044913" y="32.73416" style="stroke: #ffffff; stroke-width: 0.252982"/>
     <use xlink:href="#m802b67f48f" x="66.991416" y="32.082379" style="stroke: #ffffff; stroke-width: 0.252982"/>
     <use xlink:href="#m802b67f48f" x="66.991416" y="32.082379" style="stroke: #ffffff; stroke-width: 0.252982"/>
     <use xlink:href="#m802b67f48f" x="46.085035" y="62.63218" style="stroke: #ffffff; stroke-width: 0.252982"/>
     <use xlink:href="#m802b67f48f" x="46.085035" y="62.63218" style="stroke: #ffffff; stroke-width: 0.252982"/>
     <use xlink:href="#m802b67f48f" x="84.911171" y="27.632177" style="stroke: #ffffff; stroke-width: 0.252982"/>
    </g>
   </g>
   <g id="LineCollection_1">
    <path d="M 43.098409 62.940637 
L 43.098409 60.227064 
" clip-path="url(#pdc55e28417)" style="fill: none; stroke: #000000"/>
    <path d="M 43.098409 62.940637 
L 43.098409 60.227064 
" clip-path="url(#pdc55e28417)" style="fill: none; stroke: #000000"/>
    <path d="M 52.058287 44.767616 
L 52.058287 27.630694 
" clip-path="url(#pdc55e28417)" style="fill: none; stroke: #000000"/>
    <path d="M 52.058287 44.767616 
L 52.058287 27.630694 
" clip-path="url(#pdc55e28417)" style="fill: none; stroke: #000000"/>
    <path d="M 55.044913 40.085622 
L 55.044913 25.382699 
" clip-path="url(#pdc55e28417)" style="fill: none; stroke: #000000"/>
    <path d="M 55.044913 40.085622 
L 55.044913 25.382699 
" clip-path="url(#pdc55e28417)" style="fill: none; stroke: #000000"/>
    <path d="M 66.991416 33.730695 
L 66.991416 30.434063 
" clip-path="url(#pdc55e28417)" style="fill: none; stroke: #000000"/>
    <path d="M 66.991416 33.730695 
L 66.991416 30.434063 
" clip-path="url(#pdc55e28417)" style="fill: none; stroke: #000000"/>
    <path d="M 46.085035 67.436676 
L 46.085035 57.827684 
" clip-path="url(#pdc55e28417)" style="fill: none; stroke: #000000"/>
    <path d="M 46.085035 67.436676 
L 46.085035 57.827684 
" clip-path="url(#pdc55e28417)" style="fill: none; stroke: #000000"/>
    <path d="M 84.911171 28.85393 
L 84.911171 26.410423 
" clip-path="url(#pdc55e28417)" style="fill: none; stroke: #000000"/>
   </g>
   <g id="line2d_10">
    <defs>
     <path id="m98604490a1" d="M 2 0 
L -2 -0 
" style="stroke: #000000"/>
    </defs>
    <g clip-path="url(#pdc55e28417)">
     <use xlink:href="#m98604490a1" x="43.098409" y="62.940637" style="stroke: #000000"/>
     <use xlink:href="#m98604490a1" x="43.098409" y="62.940637" style="stroke: #000000"/>
     <use xlink:href="#m98604490a1" x="52.058287" y="44.767616" style="stroke: #000000"/>
     <use xlink:href="#m98604490a1" x="52.058287" y="44.767616" style="stroke: #000000"/>
     <use xlink:href="#m98604490a1" x="55.044913" y="40.085622" style="stroke: #000000"/>
     <use xlink:href="#m98604490a1" x="55.044913" y="40.085622" style="stroke: #000000"/>
     <use xlink:href="#m98604490a1" x="66.991416" y="33.730695" style="stroke: #000000"/>
     <use xlink:href="#m98604490a1" x="66.991416" y="33.730695" style="stroke: #000000"/>
     <use xlink:href="#m98604490a1" x="46.085035" y="67.436676" style="stroke: #000000"/>
     <use xlink:href="#m98604490a1" x="46.085035" y="67.436676" style="stroke: #000000"/>
     <use xlink:href="#m98604490a1" x="84.911171" y="28.85393" style="stroke: #000000"/>
    </g>
   </g>
   <g id="line2d_11">
    <g clip-path="url(#pdc55e28417)">
     <use xlink:href="#m98604490a1" x="43.098409" y="60.227064" style="stroke: #000000"/>
     <use xlink:href="#m98604490a1" x="43.098409" y="60.227064" style="stroke: #000000"/>
     <use xlink:href="#m98604490a1" x="52.058287" y="27.630694" style="stroke: #000000"/>
     <use xlink:href="#m98604490a1" x="52.058287" y="27.630694" style="stroke: #000000"/>
     <use xlink:href="#m98604490a1" x="55.044913" y="25.382699" style="stroke: #000000"/>
     <use xlink:href="#m98604490a1" x="55.044913" y="25.382699" style="stroke: #000000"/>
     <use xlink:href="#m98604490a1" x="66.991416" y="30.434063" style="stroke: #000000"/>
     <use xlink:href="#m98604490a1" x="66.991416" y="30.434063" style="stroke: #000000"/>
     <use xlink:href="#m98604490a1" x="46.085035" y="57.827684" style="stroke: #000000"/>
     <use xlink:href="#m98604490a1" x="46.085035" y="57.827684" style="stroke: #000000"/>
     <use xlink:href="#m98604490a1" x="84.911171" y="26.410423" style="stroke: #000000"/>
    </g>
   </g>
  </g>
  <g id="axes_2">
   <g id="patch_7">
    <path d="M 112.255 69.539375 
L 169.2 69.539375 
L 169.2 23.28 
L 112.255 23.28 
z
" style="fill: #ffffff"/>
   </g>
   <g id="matplotlib.axis_3">
    <g id="xtick_6">
     <g id="line2d_12">
      <g>
       <use xlink:href="#m74e9390b8e" x="114.843409" y="69.539375" style="fill: #262626; stroke: #262626; stroke-width: 0.8"/>
      </g>
     </g>
    </g>
    <g id="xtick_7">
     <g id="line2d_13">
      <g>
       <use xlink:href="#m74e9390b8e" x="126.789913" y="69.539375" style="fill: #262626; stroke: #262626; stroke-width: 0.8"/>
      </g>
     </g>
    </g>
    <g id="xtick_8">
     <g id="line2d_14">
      <g>
       <use xlink:href="#m74e9390b8e" x="138.736416" y="69.539375" style="fill: #262626; stroke: #262626; stroke-width: 0.8"/>
      </g>
     </g>
    </g>
    <g id="xtick_9">
     <g id="line2d_15">
      <g>
       <use xlink:href="#m74e9390b8e" x="150.68292" y="69.539375" style="fill: #262626; stroke: #262626; stroke-width: 0.8"/>
      </g>
     </g>
    </g>
    <g id="xtick_10">
     <g id="line2d_16">
      <g>
       <use xlink:href="#m74e9390b8e" x="162.629423" y="69.539375" style="fill: #262626; stroke: #262626; stroke-width: 0.8"/>
      </g>
     </g>
    </g>
   </g>
   <g id="matplotlib.axis_4">
    <g id="ytick_4">
     <g id="line2d_17">
      <g>
       <use xlink:href="#me06852cf45" x="112.255" y="63.627086" style="fill: #262626; stroke: #262626; stroke-width: 0.8"/>
      </g>
     </g>
    </g>
    <g id="ytick_5">
     <g id="line2d_18">
      <g>
       <use xlink:href="#me06852cf45" x="112.255" y="45.506349" style="fill: #262626; stroke: #262626; stroke-width: 0.8"/>
      </g>
     </g>
    </g>
    <g id="ytick_6">
     <g id="line2d_19">
      <g>
       <use xlink:href="#me06852cf45" x="112.255" y="27.385611" style="fill: #262626; stroke: #262626; stroke-width: 0.8"/>
      </g>
     </g>
    </g>
   </g>
   <g id="patch_8">
    <path d="M 112.255 69.539375 
L 112.255 23.28 
" style="fill: none; stroke: #262626; stroke-linejoin: miter; stroke-linecap: square"/>
   </g>
   <g id="patch_9">
    <path d="M 169.2 69.539375 
L 169.2 23.28 
" style="fill: none; stroke: #262626; stroke-linejoin: miter; stroke-linecap: square"/>
   </g>
   <g id="patch_10">
    <path d="M 112.255 69.539375 
L 169.2 69.539375 
" style="fill: none; stroke: #262626; stroke-linejoin: miter; stroke-linecap: square"/>
   </g>
   <g id="patch_11">
    <path d="M 112.255 23.28 
L 169.2 23.28 
" style="fill: none; stroke: #262626; stroke-linejoin: miter; stroke-linecap: square"/>
   </g>
   <g id="line2d_20">
    <path d="M 114.843409 63.627086 
L 115.36632 63.627086 
L 115.889231 63.627086 
L 116.412142 63.627086 
L 116.935053 63.627086 
L 117.457964 63.627086 
L 117.980875 63.627086 
L 118.503786 63.627086 
L 119.026697 63.627086 
L 119.549607 63.627086 
L 120.072518 63.627086 
L 120.595429 63.627086 
L 121.11834 63.627086 
L 121.641251 63.627086 
L 122.164162 63.627086 
L 122.687073 63.627086 
L 123.209984 63.627086 
L 123.732895 63.627086 
L 124.255806 63.627086 
L 124.778717 63.627086 
L 125.301628 63.627085 
L 125.824539 63.627084 
L 126.347449 63.627077 
L 126.87036 63.627054 
L 127.393271 63.626984 
L 127.916182 63.626783 
L 128.439093 63.626257 
L 128.962004 63.624983 
L 129.484915 63.622105 
L 130.007826 63.616019 
L 130.530737 63.603915 
L 131.053648 63.581182 
L 131.576559 63.540718 
L 132.09947 63.472228 
L 132.622381 63.361659 
L 133.145292 63.190931 
L 133.668202 62.938164 
L 134.191113 62.578499 
L 134.714024 62.0856 
L 135.236935 61.433736 
L 135.759846 60.600282 
L 136.282757 59.568326 
L 136.805668 58.329035 
L 137.328579 56.883441 
L 137.85149 55.243358 
L 138.374401 53.431282 
L 138.897312 51.479245 
L 139.420223 49.426774 
L 139.943134 47.318196 
L 140.466045 45.199622 
L 140.988955 43.115936 
L 141.511866 41.108113 
L 142.034777 39.211102 
L 142.557688 37.452391 
L 143.080599 35.851329 
L 143.60351 34.419132 
L 144.126421 33.159467 
L 144.649332 32.069466 
L 145.172243 31.141001 
L 145.695154 30.362056 
L 146.218065 29.718075 
L 146.740976 29.193175 
L 147.263887 28.771167 
L 147.786798 28.436361 
L 148.309708 28.17413 
L 148.832619 27.971288 
L 149.35553 27.816267 
L 149.878441 27.699174 
L 150.401352 27.611727 
L 150.924263 27.547138 
L 151.447174 27.499939 
L 151.970085 27.465806 
L 152.492996 27.44137 
L 153.015907 27.424047 
L 153.538818 27.411884 
L 154.061729 27.403422 
L 154.58464 27.397589 
L 155.107551 27.393603 
L 155.630461 27.390903 
L 156.153372 27.389088 
L 156.676283 27.387879 
L 157.199194 27.38708 
L 157.722105 27.386556 
L 158.245016 27.386214 
L 158.767927 27.385994 
L 159.290838 27.385852 
L 159.813749 27.385762 
L 160.33666 27.385705 
L 160.859571 27.385669 
L 161.382482 27.385647 
L 161.905393 27.385633 
L 162.428303 27.385624 
L 162.951214 27.385619 
L 163.474125 27.385616 
L 163.997036 27.385614 
L 164.519947 27.385613 
L 165.042858 27.385612 
L 165.565769 27.385612 
L 166.08868 27.385612 
L 166.611591 27.385611 
" clip-path="url(#p3b48eefb27)" style="fill: none; stroke: #1f77b4; stroke-width: 2; stroke-linecap: round"/>
   </g>
   <g id="text_6">
    <!-- Alox12 -->
    <g style="fill: #262626" transform="translate(126.96875 17.28)scale(0.09 -0.09)">
     <defs>
      <path id="Arial-ItalicMT-41" d="M -128 0 
L 2469 4581 
L 3191 4581 
L 3947 0 
L 3353 0 
L 3131 1319 
L 1278 1319 
L 544 0 
L -128 0 
z
M 1541 1791 
L 3056 1791 
L 2878 2941 
Q 2775 3625 2750 4081 
Q 2594 3688 2294 3147 
L 1541 1791 
z
" transform="scale(0.015625)"/>
      <path id="Arial-ItalicMT-6f" d="M 313 1259 
Q 313 2231 884 2869 
Q 1356 3394 2122 3394 
Q 2722 3394 3089 3019 
Q 3456 2644 3456 2006 
Q 3456 1434 3225 942 
Q 2994 450 2567 187 
Q 2141 -75 1669 -75 
Q 1281 -75 964 90 
Q 647 256 480 559 
Q 313 863 313 1259 
z
M 878 1316 
Q 878 847 1103 605 
Q 1328 363 1675 363 
Q 1856 363 2034 436 
Q 2213 509 2366 659 
Q 2519 809 2626 1001 
Q 2734 1194 2800 1416 
Q 2897 1725 2897 2009 
Q 2897 2459 2670 2707 
Q 2444 2956 2100 2956 
Q 1834 2956 1615 2829 
Q 1397 2703 1220 2459 
Q 1044 2216 961 1892 
Q 878 1569 878 1316 
z
" transform="scale(0.015625)"/>
      <path id="Arial-ItalicMT-78" d="M -9 0 
L 1434 1684 
L 606 3319 
L 1231 3319 
L 1513 2728 
Q 1669 2397 1794 2094 
L 2750 3319 
L 3441 3319 
L 2047 1641 
L 2884 0 
L 2259 0 
L 1928 675 
Q 1822 891 1688 1209 
L 700 0 
L -9 0 
z
" transform="scale(0.015625)"/>
     </defs>
     <use xlink:href="#Arial-ItalicMT-41"/>
     <use xlink:href="#Arial-ItalicMT-6c" x="66.699219"/>
     <use xlink:href="#Arial-ItalicMT-6f" x="88.916016"/>
     <use xlink:href="#Arial-ItalicMT-78" x="144.53125"/>
     <use xlink:href="#Arial-ItalicMT-31" x="194.53125"/>
     <use xlink:href="#Arial-ItalicMT-32" x="250.146484"/>
    </g>
   </g>
   <g id="PathCollection_2">
    <g clip-path="url(#p3b48eefb27)">
     <use xlink:href="#m802b67f48f" x="114.843409" y="63.627086" style="stroke: #ffffff; stroke-width: 0.252982"/>
     <use xlink:href="#m802b67f48f" x="114.843409" y="63.627086" style="stroke: #ffffff; stroke-width: 0.252982"/>
     <use xlink:href="#m802b67f48f" x="123.803287" y="61.67177" style="stroke: #ffffff; stroke-width: 0.252982"/>
     <use xlink:href="#m802b67f48f" x="123.803287" y="61.67177" style="stroke: #ffffff; stroke-width: 0.252982"/>
     <use xlink:href="#m802b67f48f" x="126.789913" y="63.358592" style="stroke: #ffffff; stroke-width: 0.252982"/>
     <use xlink:href="#m802b67f48f" x="126.789913" y="63.358592" style="stroke: #ffffff; stroke-width: 0.252982"/>
     <use xlink:href="#m802b67f48f" x="138.736416" y="52.092521" style="stroke: #ffffff; stroke-width: 0.252982"/>
     <use xlink:href="#m802b67f48f" x="138.736416" y="52.092521" style="stroke: #ffffff; stroke-width: 0.252982"/>
     <use xlink:href="#m802b67f48f" x="117.830035" y="57.656826" style="stroke: #ffffff; stroke-width: 0.252982"/>
     <use xlink:href="#m802b67f48f" x="117.830035" y="57.656826" style="stroke: #ffffff; stroke-width: 0.252982"/>
     <use xlink:href="#m802b67f48f" x="156.656171" y="27.385611" style="stroke: #ffffff; stroke-width: 0.252982"/>
    </g>
   </g>
   <g id="LineCollection_2">
    <path d="M 114.843409 64.699762 
L 114.843409 62.554409 
" clip-path="url(#p3b48eefb27)" style="fill: none; stroke: #000000"/>
    <path d="M 114.843409 64.699762 
L 114.843409 62.554409 
" clip-path="url(#p3b48eefb27)" style="fill: none; stroke: #000000"/>
    <path d="M 123.803287 63.364328 
L 123.803287 59.979212 
" clip-path="url(#p3b48eefb27)" style="fill: none; stroke: #000000"/>
    <path d="M 123.803287 63.364328 
L 123.803287 59.979212 
" clip-path="url(#p3b48eefb27)" style="fill: none; stroke: #000000"/>
    <path d="M 126.789913 67.436676 
L 126.789913 59.280507 
" clip-path="url(#p3b48eefb27)" style="fill: none; stroke: #000000"/>
    <path d="M 126.789913 67.436676 
L 126.789913 59.280507 
" clip-path="url(#p3b48eefb27)" style="fill: none; stroke: #000000"/>
    <path d="M 138.736416 55.790898 
L 138.736416 48.394145 
" clip-path="url(#p3b48eefb27)" style="fill: none; stroke: #000000"/>
    <path d="M 138.736416 55.790898 
L 138.736416 48.394145 
" clip-path="url(#p3b48eefb27)" style="fill: none; stroke: #000000"/>
    <path d="M 117.830035 60.256319 
L 117.830035 55.057333 
" clip-path="url(#p3b48eefb27)" style="fill: none; stroke: #000000"/>
    <path d="M 117.830035 60.256319 
L 117.830035 55.057333 
" clip-path="url(#p3b48eefb27)" style="fill: none; stroke: #000000"/>
    <path d="M 156.656171 29.388523 
L 156.656171 25.382699 
" clip-path="url(#p3b48eefb27)" style="fill: none; stroke: #000000"/>
   </g>
   <g id="line2d_21">
    <g clip-path="url(#p3b48eefb27)">
     <use xlink:href="#m98604490a1" x="114.843409" y="64.699762" style="stroke: #000000"/>
     <use xlink:href="#m98604490a1" x="114.843409" y="64.699762" style="stroke: #000000"/>
     <use xlink:href="#m98604490a1" x="123.803287" y="63.364328" style="stroke: #000000"/>
     <use xlink:href="#m98604490a1" x="123.803287" y="63.364328" style="stroke: #000000"/>
     <use xlink:href="#m98604490a1" x="126.789913" y="67.436676" style="stroke: #000000"/>
     <use xlink:href="#m98604490a1" x="126.789913" y="67.436676" style="stroke: #000000"/>
     <use xlink:href="#m98604490a1" x="138.736416" y="55.790898" style="stroke: #000000"/>
     <use xlink:href="#m98604490a1" x="138.736416" y="55.790898" style="stroke: #000000"/>
     <use xlink:href="#m98604490a1" x="117.830035" y="60.256319" style="stroke: #000000"/>
     <use xlink:href="#m98604490a1" x="117.830035" y="60.256319" style="stroke: #000000"/>
     <use xlink:href="#m98604490a1" x="156.656171" y="29.388523" style="stroke: #000000"/>
    </g>
   </g>
   <g id="line2d_22">
    <g clip-path="url(#p3b48eefb27)">
     <use xlink:href="#m98604490a1" x="114.843409" y="62.554409" style="stroke: #000000"/>
     <use xlink:href="#m98604490a1" x="114.843409" y="62.554409" style="stroke: #000000"/>
     <use xlink:href="#m98604490a1" x="123.803287" y="59.979212" style="stroke: #000000"/>
     <use xlink:href="#m98604490a1" x="123.803287" y="59.979212" style="stroke: #000000"/>
     <use xlink:href="#m98604490a1" x="126.789913" y="59.280507" style="stroke: #000000"/>
     <use xlink:href="#m98604490a1" x="126.789913" y="59.280507" style="stroke: #000000"/>
     <use xlink:href="#m98604490a1" x="138.736416" y="48.394145" style="stroke: #000000"/>
     <use xlink:href="#m98604490a1" x="138.736416" y="48.394145" style="stroke: #000000"/>
     <use xlink:href="#m98604490a1" x="117.830035" y="55.057333" style="stroke: #000000"/>
     <use xlink:href="#m98604490a1" x="117.830035" y="55.057333" style="stroke: #000000"/>
     <use xlink:href="#m98604490a1" x="156.656171" y="25.382699" style="stroke: #000000"/>
    </g>
   </g>
  </g>
  <g id="axes_3">
   <g id="patch_12">
    <path d="M 40.51 143.07875 
L 97.455 143.07875 
L 97.455 96.819375 
L 40.51 96.819375 
z
" style="fill: #ffffff"/>
   </g>
   <g id="matplotlib.axis_5">
    <g id="xtick_11">
     <g id="line2d_23">
      <g>
       <use xlink:href="#m74e9390b8e" x="43.098409" y="143.07875" style="fill: #262626; stroke: #262626; stroke-width: 0.8"/>
      </g>
     </g>
     <g id="text_7">
      <!-- 0 -->
      <g style="fill: #262626" transform="translate(40.874034 154.805)scale(0.08 -0.08)">
       <use xlink:href="#ArialMT-30"/>
      </g>
     </g>
    </g>
    <g id="xtick_12">
     <g id="line2d_24">
      <g>
       <use xlink:href="#m74e9390b8e" x="55.044913" y="143.07875" style="fill: #262626; stroke: #262626; stroke-width: 0.8"/>
      </g>
     </g>
     <g id="text_8">
      <!-- 24 -->
      <g style="fill: #262626" transform="translate(50.596163 154.805)scale(0.08 -0.08)">
       <defs>
        <path id="ArialMT-32" d="M 3222 541 
L 3222 0 
L 194 0 
Q 188 203 259 391 
Q 375 700 629 1000 
Q 884 1300 1366 1694 
Q 2113 2306 2375 2664 
Q 2638 3022 2638 3341 
Q 2638 3675 2398 3904 
Q 2159 4134 1775 4134 
Q 1369 4134 1125 3890 
Q 881 3647 878 3216 
L 300 3275 
Q 359 3922 746 4261 
Q 1134 4600 1788 4600 
Q 2447 4600 2831 4234 
Q 3216 3869 3216 3328 
Q 3216 3053 3103 2787 
Q 2991 2522 2730 2228 
Q 2469 1934 1863 1422 
Q 1356 997 1212 845 
Q 1069 694 975 541 
L 3222 541 
z
" transform="scale(0.015625)"/>
        <path id="ArialMT-34" d="M 2069 0 
L 2069 1097 
L 81 1097 
L 81 1613 
L 2172 4581 
L 2631 4581 
L 2631 1613 
L 3250 1613 
L 3250 1097 
L 2631 1097 
L 2631 0 
L 2069 0 
z
M 2069 1613 
L 2069 3678 
L 634 1613 
L 2069 1613 
z
" transform="scale(0.015625)"/>
       </defs>
       <use xlink:href="#ArialMT-32"/>
       <use xlink:href="#ArialMT-34" x="55.615234"/>
      </g>
     </g>
    </g>
    <g id="xtick_13">
     <g id="line2d_25">
      <g>
       <use xlink:href="#m74e9390b8e" x="66.991416" y="143.07875" style="fill: #262626; stroke: #262626; stroke-width: 0.8"/>
      </g>
     </g>
     <g id="text_9">
      <!-- 48 -->
      <g style="fill: #262626" transform="translate(62.542666 154.805)scale(0.08 -0.08)">
       <defs>
        <path id="ArialMT-38" d="M 1131 2484 
Q 781 2613 612 2850 
Q 444 3088 444 3419 
Q 444 3919 803 4259 
Q 1163 4600 1759 4600 
Q 2359 4600 2725 4251 
Q 3091 3903 3091 3403 
Q 3091 3084 2923 2848 
Q 2756 2613 2416 2484 
Q 2838 2347 3058 2040 
Q 3278 1734 3278 1309 
Q 3278 722 2862 322 
Q 2447 -78 1769 -78 
Q 1091 -78 675 323 
Q 259 725 259 1325 
Q 259 1772 486 2073 
Q 713 2375 1131 2484 
z
M 1019 3438 
Q 1019 3113 1228 2906 
Q 1438 2700 1772 2700 
Q 2097 2700 2305 2904 
Q 2513 3109 2513 3406 
Q 2513 3716 2298 3927 
Q 2084 4138 1766 4138 
Q 1444 4138 1231 3931 
Q 1019 3725 1019 3438 
z
M 838 1322 
Q 838 1081 952 856 
Q 1066 631 1291 507 
Q 1516 384 1775 384 
Q 2178 384 2440 643 
Q 2703 903 2703 1303 
Q 2703 1709 2433 1975 
Q 2163 2241 1756 2241 
Q 1359 2241 1098 1978 
Q 838 1716 838 1322 
z
" transform="scale(0.015625)"/>
       </defs>
       <use xlink:href="#ArialMT-34"/>
       <use xlink:href="#ArialMT-38" x="55.615234"/>
      </g>
     </g>
    </g>
    <g id="xtick_14">
     <g id="line2d_26">
      <g>
       <use xlink:href="#m74e9390b8e" x="78.93792" y="143.07875" style="fill: #262626; stroke: #262626; stroke-width: 0.8"/>
      </g>
     </g>
     <g id="text_10">
      <!-- 72 -->
      <g style="fill: #262626" transform="translate(74.48917 154.805)scale(0.08 -0.08)">
       <defs>
        <path id="ArialMT-37" d="M 303 3981 
L 303 4522 
L 3269 4522 
L 3269 4084 
Q 2831 3619 2401 2847 
Q 1972 2075 1738 1259 
Q 1569 684 1522 0 
L 944 0 
Q 953 541 1156 1306 
Q 1359 2072 1739 2783 
Q 2119 3494 2547 3981 
L 303 3981 
z
" transform="scale(0.015625)"/>
       </defs>
       <use xlink:href="#ArialMT-37"/>
       <use xlink:href="#ArialMT-32" x="55.615234"/>
      </g>
     </g>
    </g>
    <g id="xtick_15">
     <g id="line2d_27">
      <g>
       <use xlink:href="#m74e9390b8e" x="90.884423" y="143.07875" style="fill: #262626; stroke: #262626; stroke-width: 0.8"/>
      </g>
     </g>
     <g id="text_11">
      <!-- 96 -->
      <g style="fill: #262626" transform="translate(86.435673 154.805)scale(0.08 -0.08)">
       <defs>
        <path id="ArialMT-39" d="M 350 1059 
L 891 1109 
Q 959 728 1153 556 
Q 1347 384 1650 384 
Q 1909 384 2104 503 
Q 2300 622 2425 820 
Q 2550 1019 2634 1356 
Q 2719 1694 2719 2044 
Q 2719 2081 2716 2156 
Q 2547 1888 2255 1720 
Q 1963 1553 1622 1553 
Q 1053 1553 659 1965 
Q 266 2378 266 3053 
Q 266 3750 677 4175 
Q 1088 4600 1706 4600 
Q 2153 4600 2523 4359 
Q 2894 4119 3086 3673 
Q 3278 3228 3278 2384 
Q 3278 1506 3087 986 
Q 2897 466 2520 194 
Q 2144 -78 1638 -78 
Q 1100 -78 759 220 
Q 419 519 350 1059 
z
M 2653 3081 
Q 2653 3566 2395 3850 
Q 2138 4134 1775 4134 
Q 1400 4134 1122 3828 
Q 844 3522 844 3034 
Q 844 2597 1108 2323 
Q 1372 2050 1759 2050 
Q 2150 2050 2401 2323 
Q 2653 2597 2653 3081 
z
" transform="scale(0.015625)"/>
        <path id="ArialMT-36" d="M 3184 3459 
L 2625 3416 
Q 2550 3747 2413 3897 
Q 2184 4138 1850 4138 
Q 1581 4138 1378 3988 
Q 1113 3794 959 3422 
Q 806 3050 800 2363 
Q 1003 2672 1297 2822 
Q 1591 2972 1913 2972 
Q 2475 2972 2870 2558 
Q 3266 2144 3266 1488 
Q 3266 1056 3080 686 
Q 2894 316 2569 119 
Q 2244 -78 1831 -78 
Q 1128 -78 684 439 
Q 241 956 241 2144 
Q 241 3472 731 4075 
Q 1159 4600 1884 4600 
Q 2425 4600 2770 4297 
Q 3116 3994 3184 3459 
z
M 888 1484 
Q 888 1194 1011 928 
Q 1134 663 1356 523 
Q 1578 384 1822 384 
Q 2178 384 2434 671 
Q 2691 959 2691 1453 
Q 2691 1928 2437 2201 
Q 2184 2475 1800 2475 
Q 1419 2475 1153 2201 
Q 888 1928 888 1484 
z
" transform="scale(0.015625)"/>
       </defs>
       <use xlink:href="#ArialMT-39"/>
       <use xlink:href="#ArialMT-36" x="55.615234"/>
      </g>
     </g>
    </g>
    <g id="text_12">
     <!-- time (h) -->
     <g style="fill: #262626" transform="translate(53.732422 166.946719)scale(0.09 -0.09)">
      <defs>
       <path id="ArialMT-74" d="M 1650 503 
L 1731 6 
Q 1494 -44 1306 -44 
Q 1000 -44 831 53 
Q 663 150 594 308 
Q 525 466 525 972 
L 525 2881 
L 113 2881 
L 113 3319 
L 525 3319 
L 525 4141 
L 1084 4478 
L 1084 3319 
L 1650 3319 
L 1650 2881 
L 1084 2881 
L 1084 941 
Q 1084 700 1114 631 
Q 1144 563 1211 522 
Q 1278 481 1403 481 
Q 1497 481 1650 503 
z
" transform="scale(0.015625)"/>
       <path id="ArialMT-69" d="M 425 3934 
L 425 4581 
L 988 4581 
L 988 3934 
L 425 3934 
z
M 425 0 
L 425 3319 
L 988 3319 
L 988 0 
L 425 0 
z
" transform="scale(0.015625)"/>
       <path id="ArialMT-28" d="M 1497 -1347 
Q 1031 -759 709 28 
Q 388 816 388 1659 
Q 388 2403 628 3084 
Q 909 3875 1497 4659 
L 1900 4659 
Q 1522 4009 1400 3731 
Q 1209 3300 1100 2831 
Q 966 2247 966 1656 
Q 966 153 1900 -1347 
L 1497 -1347 
z
" transform="scale(0.015625)"/>
       <path id="ArialMT-68" d="M 422 0 
L 422 4581 
L 984 4581 
L 984 2938 
Q 1378 3394 1978 3394 
Q 2347 3394 2619 3248 
Q 2891 3103 3008 2847 
Q 3125 2591 3125 2103 
L 3125 0 
L 2563 0 
L 2563 2103 
Q 2563 2525 2380 2717 
Q 2197 2909 1863 2909 
Q 1613 2909 1392 2779 
Q 1172 2650 1078 2428 
Q 984 2206 984 1816 
L 984 0 
L 422 0 
z
" transform="scale(0.015625)"/>
       <path id="ArialMT-29" d="M 791 -1347 
L 388 -1347 
Q 1322 153 1322 1656 
Q 1322 2244 1188 2822 
Q 1081 3291 891 3722 
Q 769 4003 388 4659 
L 791 4659 
Q 1378 3875 1659 3084 
Q 1900 2403 1900 1659 
Q 1900 816 1576 28 
Q 1253 -759 791 -1347 
z
" transform="scale(0.015625)"/>
      </defs>
      <use xlink:href="#ArialMT-74"/>
      <use xlink:href="#ArialMT-69" x="27.783203"/>
      <use xlink:href="#ArialMT-6d" x="50"/>
      <use xlink:href="#ArialMT-65" x="133.300781"/>
      <use xlink:href="#ArialMT-20" x="188.916016"/>
      <use xlink:href="#ArialMT-28" x="216.699219"/>
      <use xlink:href="#ArialMT-68" x="250"/>
      <use xlink:href="#ArialMT-29" x="305.615234"/>
     </g>
    </g>
   </g>
   <g id="matplotlib.axis_6">
    <g id="ytick_7">
     <g id="line2d_28">
      <g>
       <use xlink:href="#me06852cf45" x="40.51" y="137.965317" style="fill: #262626; stroke: #262626; stroke-width: 0.8"/>
      </g>
     </g>
     <g id="text_13">
      <!-- 0.0 -->
      <g style="fill: #262626" transform="translate(23.39 140.828442)scale(0.08 -0.08)">
       <use xlink:href="#ArialMT-30"/>
       <use xlink:href="#ArialMT-2e" x="55.615234"/>
       <use xlink:href="#ArialMT-30" x="83.398438"/>
      </g>
     </g>
    </g>
    <g id="ytick_8">
     <g id="line2d_29">
      <g>
       <use xlink:href="#me06852cf45" x="40.51" y="120.842152" style="fill: #262626; stroke: #262626; stroke-width: 0.8"/>
      </g>
     </g>
     <g id="text_14">
      <!-- 0.5 -->
      <g style="fill: #262626" transform="translate(23.39 123.705277)scale(0.08 -0.08)">
       <use xlink:href="#ArialMT-30"/>
       <use xlink:href="#ArialMT-2e" x="55.615234"/>
       <use xlink:href="#ArialMT-35" x="83.398438"/>
      </g>
     </g>
    </g>
    <g id="ytick_9">
     <g id="line2d_30">
      <g>
       <use xlink:href="#me06852cf45" x="40.51" y="103.718988" style="fill: #262626; stroke: #262626; stroke-width: 0.8"/>
      </g>
     </g>
     <g id="text_15">
      <!-- 1.0 -->
      <g style="fill: #262626" transform="translate(23.39 106.582113)scale(0.08 -0.08)">
       <use xlink:href="#ArialMT-31"/>
       <use xlink:href="#ArialMT-2e" x="55.615234"/>
       <use xlink:href="#ArialMT-30" x="83.398438"/>
      </g>
     </g>
    </g>
    <g id="text_16">
     <!-- expr. norm. -->
     <g style="fill: #262626" transform="translate(17.60125 142.456797)rotate(-90)scale(0.09 -0.09)">
      <use xlink:href="#ArialMT-65"/>
      <use xlink:href="#ArialMT-78" x="55.615234"/>
      <use xlink:href="#ArialMT-70" x="105.615234"/>
      <use xlink:href="#ArialMT-72" x="161.230469"/>
      <use xlink:href="#ArialMT-2e" x="189.03125"/>
      <use xlink:href="#ArialMT-20" x="216.814453"/>
      <use xlink:href="#ArialMT-6e" x="244.597656"/>
      <use xlink:href="#ArialMT-6f" x="300.212891"/>
      <use xlink:href="#ArialMT-72" x="355.828125"/>
      <use xlink:href="#ArialMT-6d" x="389.128906"/>
      <use xlink:href="#ArialMT-2e" x="472.429688"/>
     </g>
    </g>
   </g>
   <g id="line2d_31">
    <path d="M 43.098409 137.965317 
L 43.62132 137.965317 
L 44.144231 137.965317 
L 44.667142 137.965317 
L 45.190053 137.965317 
L 45.712964 137.965317 
L 46.235875 137.965317 
L 46.758786 137.965317 
L 47.281697 137.965317 
L 47.804607 137.965317 
L 48.327518 137.965317 
L 48.850429 137.965317 
L 49.37334 137.917765 
L 49.896251 120.842152 
L 50.419162 120.842152 
L 50.942073 120.842152 
L 51.464984 120.842152 
L 51.987895 120.842152 
L 52.510806 120.842152 
L 53.033717 120.842152 
L 53.556628 120.842152 
L 54.079539 120.842152 
L 54.602449 120.842152 
L 55.12536 120.842152 
L 55.648271 120.842152 
L 56.171182 120.842152 
L 56.694093 120.842152 
L 57.217004 120.842152 
L 57.739915 120.842152 
L 58.262826 120.842152 
L 58.785737 120.842152 
L 59.308648 120.842152 
L 59.831559 120.842152 
L 60.35447 120.842152 
L 60.877381 120.842152 
L 61.400292 120.842152 
L 61.923202 120.842152 
L 62.446113 120.842152 
L 62.969024 120.842152 
L 63.491935 120.842152 
L 64.014846 120.842152 
L 64.537757 120.842152 
L 65.060668 120.842152 
L 65.583579 120.842152 
L 66.10649 120.842152 
L 66.629401 120.842152 
L 67.152312 120.842152 
L 67.675223 120.842152 
L 68.198134 120.842152 
L 68.721045 120.842152 
L 69.243955 120.842152 
L 69.766866 120.842152 
L 70.289777 120.842152 
L 70.812688 120.842152 
L 71.335599 120.842152 
L 71.85851 120.842152 
L 72.381421 120.842152 
L 72.904332 120.842152 
L 73.427243 120.842152 
L 73.950154 120.842152 
L 74.473065 120.842152 
L 74.995976 120.842152 
L 75.518887 120.842152 
L 76.041798 120.842152 
L 76.564708 120.842152 
L 77.087619 120.842152 
L 77.61053 120.842152 
L 78.133441 120.842152 
L 78.656352 120.842152 
L 79.179263 120.842152 
L 79.702174 120.842152 
L 80.225085 120.842152 
L 80.747996 120.842152 
L 81.270907 120.842152 
L 81.793818 120.842152 
L 82.316729 120.842152 
L 82.83964 120.842152 
L 83.362551 120.842152 
L 83.885461 120.842152 
L 84.408372 120.842152 
L 84.931283 103.719066 
L 85.454194 103.718988 
L 85.977105 103.718988 
L 86.500016 103.718988 
L 87.022927 103.718988 
L 87.545838 103.718988 
L 88.068749 103.718988 
L 88.59166 103.718988 
L 89.114571 103.718988 
L 89.637482 103.718988 
L 90.160393 103.718988 
L 90.683303 103.718988 
L 91.206214 103.718988 
L 91.729125 103.718988 
L 92.252036 103.718988 
L 92.774947 103.718988 
L 93.297858 103.718988 
L 93.820769 103.718988 
L 94.34368 103.718988 
L 94.866591 103.718988 
" clip-path="url(#pc9094d6770)" style="fill: none; stroke: #800080; stroke-width: 2; stroke-linecap: round"/>
   </g>
   <g id="patch_13">
    <path d="M 40.51 143.07875 
L 40.51 96.819375 
" style="fill: none; stroke: #262626; stroke-linejoin: miter; stroke-linecap: square"/>
   </g>
   <g id="patch_14">
    <path d="M 97.455 143.07875 
L 97.455 96.819375 
" style="fill: none; stroke: #262626; stroke-linejoin: miter; stroke-linecap: square"/>
   </g>
   <g id="patch_15">
    <path d="M 40.51 143.07875 
L 97.455 143.07875 
" style="fill: none; stroke: #262626; stroke-linejoin: miter; stroke-linecap: square"/>
   </g>
   <g id="patch_16">
    <path d="M 40.51 96.819375 
L 97.455 96.819375 
" style="fill: none; stroke: #262626; stroke-linejoin: miter; stroke-linecap: square"/>
   </g>
   <g id="text_17">
    <!-- Ktn1 -->
    <g style="fill: #262626" transform="translate(59.725859 90.819375)scale(0.09 -0.09)">
     <defs>
      <path id="Arial-ItalicMT-4b" d="M 284 0 
L 1241 4581 
L 1853 4581 
L 1394 2375 
L 3881 4581 
L 4744 4581 
L 2616 2716 
L 4175 0 
L 3491 0 
L 2169 2322 
L 1209 1488 
L 897 0 
L 284 0 
z
" transform="scale(0.015625)"/>
      <path id="Arial-ItalicMT-74" d="M 1534 459 
L 1441 -3 
Q 1238 -56 1047 -56 
Q 709 -56 509 109 
Q 359 234 359 450 
Q 359 559 441 953 
L 844 2881 
L 397 2881 
L 488 3319 
L 934 3319 
L 1106 4134 
L 1753 4525 
L 1500 3319 
L 2056 3319 
L 1963 2881 
L 1409 2881 
L 1025 1047 
Q 953 697 953 628 
Q 953 528 1011 475 
Q 1069 422 1200 422 
Q 1388 422 1534 459 
z
" transform="scale(0.015625)"/>
      <path id="Arial-ItalicMT-6e" d="M 213 0 
L 906 3319 
L 1419 3319 
L 1297 2741 
Q 1631 3081 1922 3237 
Q 2213 3394 2516 3394 
Q 2919 3394 3148 3175 
Q 3378 2956 3378 2591 
Q 3378 2406 3297 2009 
L 2875 0 
L 2309 0 
L 2750 2103 
Q 2816 2409 2816 2556 
Q 2816 2722 2702 2825 
Q 2588 2928 2372 2928 
Q 1938 2928 1598 2615 
Q 1259 2303 1100 1544 
L 778 0 
L 213 0 
z
" transform="scale(0.015625)"/>
     </defs>
     <use xlink:href="#Arial-ItalicMT-4b"/>
     <use xlink:href="#Arial-ItalicMT-74" x="66.699219"/>
     <use xlink:href="#Arial-ItalicMT-6e" x="94.482422"/>
     <use xlink:href="#Arial-ItalicMT-31" x="150.097656"/>
    </g>
   </g>
   <g id="PathCollection_3">
    <g clip-path="url(#pc9094d6770)">
     <use xlink:href="#m802b67f48f" x="43.098409" y="137.965317" style="stroke: #ffffff; stroke-width: 0.252982"/>
     <use xlink:href="#m802b67f48f" x="43.098409" y="137.965317" style="stroke: #ffffff; stroke-width: 0.252982"/>
     <use xlink:href="#m802b67f48f" x="52.058287" y="116.440441" style="stroke: #ffffff; stroke-width: 0.252982"/>
     <use xlink:href="#m802b67f48f" x="52.058287" y="116.440441" style="stroke: #ffffff; stroke-width: 0.252982"/>
     <use xlink:href="#m802b67f48f" x="55.044913" y="122.139066" style="stroke: #ffffff; stroke-width: 0.252982"/>
     <use xlink:href="#m802b67f48f" x="55.044913" y="122.139066" style="stroke: #ffffff; stroke-width: 0.252982"/>
     <use xlink:href="#m802b67f48f" x="66.991416" y="123.479513" style="stroke: #ffffff; stroke-width: 0.252982"/>
     <use xlink:href="#m802b67f48f" x="66.991416" y="123.479513" style="stroke: #ffffff; stroke-width: 0.252982"/>
     <use xlink:href="#m802b67f48f" x="46.085035" y="140.007729" style="stroke: #ffffff; stroke-width: 0.252982"/>
     <use xlink:href="#m802b67f48f" x="46.085035" y="140.007729" style="stroke: #ffffff; stroke-width: 0.252982"/>
     <use xlink:href="#m802b67f48f" x="84.911171" y="103.718988" style="stroke: #ffffff; stroke-width: 0.252982"/>
    </g>
   </g>
   <g id="LineCollection_3">
    <path d="M 43.098409 138.746712 
L 43.098409 137.183921 
" clip-path="url(#pc9094d6770)" style="fill: none; stroke: #000000"/>
    <path d="M 43.098409 138.746712 
L 43.098409 137.183921 
" clip-path="url(#pc9094d6770)" style="fill: none; stroke: #000000"/>
    <path d="M 52.058287 120.966685 
L 52.058287 111.914196 
" clip-path="url(#pc9094d6770)" style="fill: none; stroke: #000000"/>
    <path d="M 52.058287 120.966685 
L 52.058287 111.914196 
" clip-path="url(#pc9094d6770)" style="fill: none; stroke: #000000"/>
    <path d="M 55.044913 127.127284 
L 55.044913 117.150848 
" clip-path="url(#pc9094d6770)" style="fill: none; stroke: #000000"/>
    <path d="M 55.044913 127.127284 
L 55.044913 117.150848 
" clip-path="url(#pc9094d6770)" style="fill: none; stroke: #000000"/>
    <path d="M 66.991416 125.897694 
L 66.991416 121.061332 
" clip-path="url(#pc9094d6770)" style="fill: none; stroke: #000000"/>
    <path d="M 66.991416 125.897694 
L 66.991416 121.061332 
" clip-path="url(#pc9094d6770)" style="fill: none; stroke: #000000"/>
    <path d="M 46.085035 140.976051 
L 46.085035 139.039408 
" clip-path="url(#pc9094d6770)" style="fill: none; stroke: #000000"/>
    <path d="M 46.085035 140.976051 
L 46.085035 139.039408 
" clip-path="url(#pc9094d6770)" style="fill: none; stroke: #000000"/>
    <path d="M 84.911171 108.515901 
L 84.911171 98.922074 
" clip-path="url(#pc9094d6770)" style="fill: none; stroke: #000000"/>
   </g>
   <g id="line2d_32">
    <g clip-path="url(#pc9094d6770)">
     <use xlink:href="#m98604490a1" x="43.098409" y="138.746712" style="stroke: #000000"/>
     <use xlink:href="#m98604490a1" x="43.098409" y="138.746712" style="stroke: #000000"/>
     <use xlink:href="#m98604490a1" x="52.058287" y="120.966685" style="stroke: #000000"/>
     <use xlink:href="#m98604490a1" x="52.058287" y="120.966685" style="stroke: #000000"/>
     <use xlink:href="#m98604490a1" x="55.044913" y="127.127284" style="stroke: #000000"/>
     <use xlink:href="#m98604490a1" x="55.044913" y="127.127284" style="stroke: #000000"/>
     <use xlink:href="#m98604490a1" x="66.991416" y="125.897694" style="stroke: #000000"/>
     <use xlink:href="#m98604490a1" x="66.991416" y="125.897694" style="stroke: #000000"/>
     <use xlink:href="#m98604490a1" x="46.085035" y="140.976051" style="stroke: #000000"/>
     <use xlink:href="#m98604490a1" x="46.085035" y="140.976051" style="stroke: #000000"/>
     <use xlink:href="#m98604490a1" x="84.911171" y="108.515901" style="stroke: #000000"/>
    </g>
   </g>
   <g id="line2d_33">
    <g clip-path="url(#pc9094d6770)">
     <use xlink:href="#m98604490a1" x="43.098409" y="137.183921" style="stroke: #000000"/>
     <use xlink:href="#m98604490a1" x="43.098409" y="137.183921" style="stroke: #000000"/>
     <use xlink:href="#m98604490a1" x="52.058287" y="111.914196" style="stroke: #000000"/>
     <use xlink:href="#m98604490a1" x="52.058287" y="111.914196" style="stroke: #000000"/>
     <use xlink:href="#m98604490a1" x="55.044913" y="117.150848" style="stroke: #000000"/>
     <use xlink:href="#m98604490a1" x="55.044913" y="117.150848" style="stroke: #000000"/>
     <use xlink:href="#m98604490a1" x="66.991416" y="121.061332" style="stroke: #000000"/>
     <use xlink:href="#m98604490a1" x="66.991416" y="121.061332" style="stroke: #000000"/>
     <use xlink:href="#m98604490a1" x="46.085035" y="139.039408" style="stroke: #000000"/>
     <use xlink:href="#m98604490a1" x="46.085035" y="139.039408" style="stroke: #000000"/>
     <use xlink:href="#m98604490a1" x="84.911171" y="98.922074" style="stroke: #000000"/>
    </g>
   </g>
  </g>
  <g id="axes_4">
   <g id="patch_17">
    <path d="M 112.255 143.07875 
L 169.2 143.07875 
L 169.2 96.819375 
L 112.255 96.819375 
z
" style="fill: #ffffff"/>
   </g>
   <g id="matplotlib.axis_7">
    <g id="xtick_16">
     <g id="line2d_34">
      <g>
       <use xlink:href="#m74e9390b8e" x="114.843409" y="143.07875" style="fill: #262626; stroke: #262626; stroke-width: 0.8"/>
      </g>
     </g>
     <g id="text_18">
      <!-- 0 -->
      <g style="fill: #262626" transform="translate(112.619034 154.805)scale(0.08 -0.08)">
       <use xlink:href="#ArialMT-30"/>
      </g>
     </g>
    </g>
    <g id="xtick_17">
     <g id="line2d_35">
      <g>
       <use xlink:href="#m74e9390b8e" x="126.789913" y="143.07875" style="fill: #262626; stroke: #262626; stroke-width: 0.8"/>
      </g>
     </g>
     <g id="text_19">
      <!-- 24 -->
      <g style="fill: #262626" transform="translate(122.341163 154.805)scale(0.08 -0.08)">
       <use xlink:href="#ArialMT-32"/>
       <use xlink:href="#ArialMT-34" x="55.615234"/>
      </g>
     </g>
    </g>
    <g id="xtick_18">
     <g id="line2d_36">
      <g>
       <use xlink:href="#m74e9390b8e" x="138.736416" y="143.07875" style="fill: #262626; stroke: #262626; stroke-width: 0.8"/>
      </g>
     </g>
     <g id="text_20">
      <!-- 48 -->
      <g style="fill: #262626" transform="translate(134.287666 154.805)scale(0.08 -0.08)">
       <use xlink:href="#ArialMT-34"/>
       <use xlink:href="#ArialMT-38" x="55.615234"/>
      </g>
     </g>
    </g>
    <g id="xtick_19">
     <g id="line2d_37">
      <g>
       <use xlink:href="#m74e9390b8e" x="150.68292" y="143.07875" style="fill: #262626; stroke: #262626; stroke-width: 0.8"/>
      </g>
     </g>
     <g id="text_21">
      <!-- 72 -->
      <g style="fill: #262626" transform="translate(146.23417 154.805)scale(0.08 -0.08)">
       <use xlink:href="#ArialMT-37"/>
       <use xlink:href="#ArialMT-32" x="55.615234"/>
      </g>
     </g>
    </g>
    <g id="xtick_20">
     <g id="line2d_38">
      <g>
       <use xlink:href="#m74e9390b8e" x="162.629423" y="143.07875" style="fill: #262626; stroke: #262626; stroke-width: 0.8"/>
      </g>
     </g>
     <g id="text_22">
      <!-- 96 -->
      <g style="fill: #262626" transform="translate(158.180673 154.805)scale(0.08 -0.08)">
       <use xlink:href="#ArialMT-39"/>
       <use xlink:href="#ArialMT-36" x="55.615234"/>
      </g>
     </g>
    </g>
    <g id="text_23">
     <!-- time (h) -->
     <g style="fill: #262626" transform="translate(125.477422 166.946719)scale(0.09 -0.09)">
      <use xlink:href="#ArialMT-74"/>
      <use xlink:href="#ArialMT-69" x="27.783203"/>
      <use xlink:href="#ArialMT-6d" x="50"/>
      <use xlink:href="#ArialMT-65" x="133.300781"/>
      <use xlink:href="#ArialMT-20" x="188.916016"/>
      <use xlink:href="#ArialMT-28" x="216.699219"/>
      <use xlink:href="#ArialMT-68" x="250"/>
      <use xlink:href="#ArialMT-29" x="305.615234"/>
     </g>
    </g>
   </g>
   <g id="matplotlib.axis_8">
    <g id="ytick_10">
     <g id="line2d_39">
      <g>
       <use xlink:href="#me06852cf45" x="112.255" y="138.484064" style="fill: #262626; stroke: #262626; stroke-width: 0.8"/>
      </g>
     </g>
    </g>
    <g id="ytick_11">
     <g id="line2d_40">
      <g>
       <use xlink:href="#me06852cf45" x="112.255" y="119.753222" style="fill: #262626; stroke: #262626; stroke-width: 0.8"/>
      </g>
     </g>
    </g>
    <g id="ytick_12">
     <g id="line2d_41">
      <g>
       <use xlink:href="#me06852cf45" x="112.255" y="101.02238" style="fill: #262626; stroke: #262626; stroke-width: 0.8"/>
      </g>
     </g>
    </g>
   </g>
   <g id="patch_18">
    <path d="M 112.255 143.07875 
L 112.255 96.819375 
" style="fill: none; stroke: #262626; stroke-linejoin: miter; stroke-linecap: square"/>
   </g>
   <g id="patch_19">
    <path d="M 169.2 143.07875 
L 169.2 96.819375 
" style="fill: none; stroke: #262626; stroke-linejoin: miter; stroke-linecap: square"/>
   </g>
   <g id="patch_20">
    <path d="M 112.255 143.07875 
L 169.2 143.07875 
" style="fill: none; stroke: #262626; stroke-linejoin: miter; stroke-linecap: square"/>
   </g>
   <g id="patch_21">
    <path d="M 112.255 96.819375 
L 169.2 96.819375 
" style="fill: none; stroke: #262626; stroke-linejoin: miter; stroke-linecap: square"/>
   </g>
   <g id="text_24">
    <!-- Upp1 -->
    <g style="fill: #262626" transform="translate(129.970391 90.819375)scale(0.09 -0.09)">
     <defs>
      <path id="Arial-ItalicMT-55" d="M 1269 4581 
L 1881 4581 
L 1294 1766 
Q 1222 1416 1222 1247 
Q 1222 878 1512 653 
Q 1803 428 2244 428 
Q 2594 428 2895 589 
Q 3197 750 3372 1062 
Q 3547 1375 3688 2059 
L 4216 4581 
L 4828 4581 
L 4269 1894 
Q 4125 1206 3890 804 
Q 3656 403 3240 161 
Q 2825 -81 2275 -81 
Q 1756 -81 1376 91 
Q 997 263 808 566 
Q 619 869 619 1253 
Q 619 1494 747 2081 
L 1269 4581 
z
" transform="scale(0.015625)"/>
      <path id="Arial-ItalicMT-70" d="M -66 -1272 
L 894 3319 
L 1416 3319 
L 1319 2856 
Q 1609 3159 1839 3276 
Q 2069 3394 2325 3394 
Q 2800 3394 3112 3048 
Q 3425 2703 3425 2059 
Q 3425 1541 3253 1114 
Q 3081 688 2831 428 
Q 2581 169 2325 47 
Q 2069 -75 1800 -75 
Q 1203 -75 875 531 
L 500 -1272 
L -66 -1272 
z
M 1053 1356 
Q 1053 984 1106 841 
Q 1184 638 1362 513 
Q 1541 388 1775 388 
Q 2263 388 2563 936 
Q 2863 1484 2863 2056 
Q 2863 2478 2661 2708 
Q 2459 2938 2159 2938 
Q 1944 2938 1759 2823 
Q 1575 2709 1417 2482 
Q 1259 2256 1156 1928 
Q 1053 1600 1053 1356 
z
" transform="scale(0.015625)"/>
     </defs>
     <use xlink:href="#Arial-ItalicMT-55"/>
     <use xlink:href="#Arial-ItalicMT-70" x="72.216797"/>
     <use xlink:href="#Arial-ItalicMT-70" x="127.832031"/>
     <use xlink:href="#Arial-ItalicMT-31" x="183.447266"/>
    </g>
   </g>
   <g id="line2d_42">
    <path d="M 114.843409 138.484064 
L 115.36632 137.637229 
L 115.889231 136.809536 
L 116.412142 136.000554 
L 116.935053 135.209859 
L 117.457964 134.437039 
L 117.980875 133.681688 
L 118.503786 132.943412 
L 119.026697 132.221825 
L 119.549607 131.516549 
L 120.072518 130.827217 
L 120.595429 130.153468 
L 121.11834 129.494948 
L 121.641251 128.851315 
L 122.164162 128.222232 
L 122.687073 127.607369 
L 123.209984 127.006405 
L 123.732895 126.419026 
L 124.255806 125.844925 
L 124.778717 125.283802 
L 125.301628 124.735364 
L 125.824539 124.199323 
L 126.347449 123.675399 
L 126.87036 123.163319 
L 127.393271 122.662815 
L 127.916182 122.173625 
L 128.439093 121.695493 
L 128.962004 121.228169 
L 129.484915 120.77141 
L 130.007826 120.324976 
L 130.530737 119.888633 
L 131.053648 119.462154 
L 131.576559 119.045316 
L 132.09947 118.637901 
L 132.622381 118.239696 
L 133.145292 117.850492 
L 133.668202 117.470086 
L 134.191113 117.098279 
L 134.714024 116.734877 
L 135.236935 116.379691 
L 135.759846 116.032533 
L 136.282757 115.693223 
L 136.805668 115.361583 
L 137.328579 115.03744 
L 137.85149 114.720624 
L 138.374401 114.41097 
L 138.897312 114.108316 
L 139.420223 113.812503 
L 139.943134 113.523378 
L 140.466045 113.240788 
L 140.988955 112.964586 
L 141.511866 112.694628 
L 142.034777 112.430773 
L 142.557688 112.172882 
L 143.080599 111.92082 
L 143.60351 111.674457 
L 144.126421 111.433663 
L 144.649332 111.198312 
L 145.172243 110.968281 
L 145.695154 110.74345 
L 146.218065 110.523702 
L 146.740976 110.308921 
L 147.263887 110.098995 
L 147.786798 109.893815 
L 148.309708 109.693273 
L 148.832619 109.497264 
L 149.35553 109.305686 
L 149.878441 109.118439 
L 150.401352 108.935424 
L 150.924263 108.756547 
L 151.447174 108.581713 
L 151.970085 108.410831 
L 152.492996 108.243813 
L 153.015907 108.080569 
L 153.538818 107.921016 
L 154.061729 107.76507 
L 154.58464 107.612649 
L 155.107551 107.463674 
L 155.630461 107.318066 
L 156.153372 107.175749 
L 156.676283 107.03665 
L 157.199194 106.900695 
L 157.722105 106.767814 
L 158.245016 106.637936 
L 158.767927 106.510994 
L 159.290838 106.386922 
L 159.813749 106.265655 
L 160.33666 106.147128 
L 160.859571 106.031282 
L 161.382482 105.918054 
L 161.905393 105.807385 
L 162.428303 105.699218 
L 162.951214 105.593496 
L 163.474125 105.490165 
L 163.997036 105.389169 
L 164.519947 105.290456 
L 165.042858 105.193974 
L 165.565769 105.099674 
L 166.08868 105.007505 
L 166.611591 104.91742 
" clip-path="url(#p3db3afe587)" style="fill: none; stroke: #2ca02c; stroke-width: 2; stroke-linecap: round"/>
   </g>
   <g id="PathCollection_4">
    <g clip-path="url(#p3db3afe587)">
     <use xlink:href="#m802b67f48f" x="114.843409" y="138.484064" style="stroke: #ffffff; stroke-width: 0.252982"/>
     <use xlink:href="#m802b67f48f" x="114.843409" y="138.484064" style="stroke: #ffffff; stroke-width: 0.252982"/>
     <use xlink:href="#m802b67f48f" x="123.803287" y="127.285814" style="stroke: #ffffff; stroke-width: 0.252982"/>
     <use xlink:href="#m802b67f48f" x="123.803287" y="127.285814" style="stroke: #ffffff; stroke-width: 0.252982"/>
     <use xlink:href="#m802b67f48f" x="126.789913" y="133.302002" style="stroke: #ffffff; stroke-width: 0.252982"/>
     <use xlink:href="#m802b67f48f" x="126.789913" y="133.302002" style="stroke: #ffffff; stroke-width: 0.252982"/>
     <use xlink:href="#m802b67f48f" x="138.736416" y="132.467876" style="stroke: #ffffff; stroke-width: 0.252982"/>
     <use xlink:href="#m802b67f48f" x="138.736416" y="132.467876" style="stroke: #ffffff; stroke-width: 0.252982"/>
     <use xlink:href="#m802b67f48f" x="117.830035" y="125.770158" style="stroke: #ffffff; stroke-width: 0.252982"/>
     <use xlink:href="#m802b67f48f" x="117.830035" y="125.770158" style="stroke: #ffffff; stroke-width: 0.252982"/>
     <use xlink:href="#m802b67f48f" x="156.656171" y="101.02238" style="stroke: #ffffff; stroke-width: 0.252982"/>
    </g>
   </g>
   <g id="LineCollection_4">
    <path d="M 114.843409 138.484064 
L 114.843409 138.484064 
" clip-path="url(#p3db3afe587)" style="fill: none; stroke: #000000"/>
    <path d="M 114.843409 138.484064 
L 114.843409 138.484064 
" clip-path="url(#p3db3afe587)" style="fill: none; stroke: #000000"/>
    <path d="M 123.803287 128.465446 
L 123.803287 126.106182 
" clip-path="url(#p3db3afe587)" style="fill: none; stroke: #000000"/>
    <path d="M 123.803287 128.465446 
L 123.803287 126.106182 
" clip-path="url(#p3db3afe587)" style="fill: none; stroke: #000000"/>
    <path d="M 126.789913 133.302002 
L 126.789913 133.302002 
" clip-path="url(#p3db3afe587)" style="fill: none; stroke: #000000"/>
    <path d="M 126.789913 133.302002 
L 126.789913 133.302002 
" clip-path="url(#p3db3afe587)" style="fill: none; stroke: #000000"/>
    <path d="M 138.736416 140.976051 
L 138.736416 123.959702 
" clip-path="url(#p3db3afe587)" style="fill: none; stroke: #000000"/>
    <path d="M 138.736416 140.976051 
L 138.736416 123.959702 
" clip-path="url(#p3db3afe587)" style="fill: none; stroke: #000000"/>
    <path d="M 117.830035 132.134871 
L 117.830035 119.405445 
" clip-path="url(#p3db3afe587)" style="fill: none; stroke: #000000"/>
    <path d="M 117.830035 132.134871 
L 117.830035 119.405445 
" clip-path="url(#p3db3afe587)" style="fill: none; stroke: #000000"/>
    <path d="M 156.656171 103.122687 
L 156.656171 98.922074 
" clip-path="url(#p3db3afe587)" style="fill: none; stroke: #000000"/>
   </g>
   <g id="line2d_43">
    <g clip-path="url(#p3db3afe587)">
     <use xlink:href="#m98604490a1" x="114.843409" y="138.484064" style="stroke: #000000"/>
     <use xlink:href="#m98604490a1" x="114.843409" y="138.484064" style="stroke: #000000"/>
     <use xlink:href="#m98604490a1" x="123.803287" y="128.465446" style="stroke: #000000"/>
     <use xlink:href="#m98604490a1" x="123.803287" y="128.465446" style="stroke: #000000"/>
     <use xlink:href="#m98604490a1" x="126.789913" y="133.302002" style="stroke: #000000"/>
     <use xlink:href="#m98604490a1" x="126.789913" y="133.302002" style="stroke: #000000"/>
     <use xlink:href="#m98604490a1" x="138.736416" y="140.976051" style="stroke: #000000"/>
     <use xlink:href="#m98604490a1" x="138.736416" y="140.976051" style="stroke: #000000"/>
     <use xlink:href="#m98604490a1" x="117.830035" y="132.134871" style="stroke: #000000"/>
     <use xlink:href="#m98604490a1" x="117.830035" y="132.134871" style="stroke: #000000"/>
     <use xlink:href="#m98604490a1" x="156.656171" y="103.122687" style="stroke: #000000"/>
    </g>
   </g>
   <g id="line2d_44">
    <g clip-path="url(#p3db3afe587)">
     <use xlink:href="#m98604490a1" x="114.843409" y="138.484064" style="stroke: #000000"/>
     <use xlink:href="#m98604490a1" x="114.843409" y="138.484064" style="stroke: #000000"/>
     <use xlink:href="#m98604490a1" x="123.803287" y="126.106182" style="stroke: #000000"/>
     <use xlink:href="#m98604490a1" x="123.803287" y="126.106182" style="stroke: #000000"/>
     <use xlink:href="#m98604490a1" x="126.789913" y="133.302002" style="stroke: #000000"/>
     <use xlink:href="#m98604490a1" x="126.789913" y="133.302002" style="stroke: #000000"/>
     <use xlink:href="#m98604490a1" x="138.736416" y="123.959702" style="stroke: #000000"/>
     <use xlink:href="#m98604490a1" x="138.736416" y="123.959702" style="stroke: #000000"/>
     <use xlink:href="#m98604490a1" x="117.830035" y="119.405445" style="stroke: #000000"/>
     <use xlink:href="#m98604490a1" x="117.830035" y="119.405445" style="stroke: #000000"/>
     <use xlink:href="#m98604490a1" x="156.656171" y="98.922074" style="stroke: #000000"/>
    </g>
   </g>
  </g>
 </g>
 <defs>
  <clipPath id="pdc55e28417">
   <rect x="40.51" y="23.28" width="56.945" height="46.259375"/>
  </clipPath>
  <clipPath id="p3b48eefb27">
   <rect x="112.255" y="23.28" width="56.945" height="46.259375"/>
  </clipPath>
  <clipPath id="pc9094d6770">
   <rect x="40.51" y="96.819375" width="56.945" height="46.259375"/>
  </clipPath>
  <clipPath id="p3db3afe587">
   <rect x="112.255" y="96.819375" width="56.945" height="46.259375"/>
  </clipPath>
 </defs>
</svg>
