<?xml version="1.0" encoding="utf-8" standalone="no"?>
<!DOCTYPE svg PUBLIC "-//W3C//DTD SVG 1.1//EN"
  "http://www.w3.org/Graphics/SVG/1.1/DTD/svg11.dtd">
<!-- Created with matplotlib (https://matplotlib.org/) -->
<svg height="257.647188pt" version="1.1" viewBox="0 0 163.411875 257.647188" width="163.411875pt" xmlns="http://www.w3.org/2000/svg" xmlns:xlink="http://www.w3.org/1999/xlink">
 <metadata>
  <rdf:RDF xmlns:cc="http://creativecommons.org/ns#" xmlns:dc="http://purl.org/dc/elements/1.1/" xmlns:rdf="http://www.w3.org/1999/02/22-rdf-syntax-ns#">
   <cc:Work>
    <dc:type rdf:resource="http://purl.org/dc/dcmitype/StillImage"/>
    <dc:date>2023-04-23T13:49:57.869159</dc:date>
    <dc:format>image/svg+xml</dc:format>
    <dc:creator>
     <cc:Agent>
      <dc:title>Matplotlib v3.3.2, https://matplotlib.org/</dc:title>
     </cc:Agent>
    </dc:creator>
   </cc:Work>
  </rdf:RDF>
 </metadata>
 <defs>
  <style type="text/css">*{stroke-linecap:butt;stroke-linejoin:round;}</style>
 </defs>
 <g id="figure_1">
  <g id="patch_1">
   <path d="M 0 257.647188 
L 163.411875 257.647188 
L 163.411875 0 
L 0 0 
z
" style="fill:#ffffff;"/>
  </g>
  <g id="axes_1">
   <g id="patch_2">
    <path d="M 44.32625 224.6 
L 136.55125 224.6 
L 136.55125 7.2 
L 44.32625 7.2 
z
" style="fill:#ffffff;"/>
   </g>
   <g id="matplotlib.axis_1">
    <g id="xtick_1">
     <g id="line2d_1">
      <defs>
       <path d="M 0 0 
L 0 4 
" id="m0d16e469bc" style="stroke:#262626;stroke-width:0.8;"/>
      </defs>
      <g>
       <use style="fill:#262626;stroke:#262626;stroke-width:0.8;" x="44.32625" xlink:href="#m0d16e469bc" y="224.6"/>
      </g>
     </g>
     <g id="text_1">
      <!-- 0 -->
      <g style="fill:#262626;" transform="translate(42.101875 236.3975)scale(0.08 -0.08)">
       <defs>
        <path d="M 51.703125 34.421875 
Q 51.703125 24.515625 49.828125 17.75 
Q 47.953125 10.984375 44.703125 6.8125 
Q 41.453125 2.640625 37.0625 0.828125 
Q 32.671875 -0.984375 27.6875 -0.984375 
Q 22.65625 -0.984375 18.3125 0.828125 
Q 13.96875 2.640625 10.765625 6.78125 
Q 7.5625 10.9375 5.734375 17.703125 
Q 3.90625 24.46875 3.90625 34.421875 
Q 3.90625 44.828125 5.734375 51.640625 
Q 7.5625 58.453125 10.78125 62.5 
Q 14.015625 66.546875 18.40625 68.1875 
Q 22.796875 69.828125 27.984375 69.828125 
Q 32.90625 69.828125 37.21875 68.1875 
Q 41.546875 66.546875 44.765625 62.5 
Q 48 58.453125 49.84375 51.640625 
Q 51.703125 44.828125 51.703125 34.421875 
z
M 42.78125 34.421875 
Q 42.78125 42.625 41.796875 48.0625 
Q 40.828125 53.515625 38.921875 56.765625 
Q 37.015625 60.015625 34.25 61.359375 
Q 31.5 62.703125 27.984375 62.703125 
Q 24.265625 62.703125 21.4375 61.328125 
Q 18.609375 59.96875 16.671875 56.71875 
Q 14.75 53.46875 13.765625 48.015625 
Q 12.796875 42.578125 12.796875 34.421875 
Q 12.796875 26.515625 13.796875 21.09375 
Q 14.796875 15.671875 16.71875 12.375 
Q 18.65625 9.078125 21.4375 7.640625 
Q 24.21875 6.203125 27.78125 6.203125 
Q 31.25 6.203125 34.03125 7.640625 
Q 36.8125 9.078125 38.734375 12.375 
Q 40.671875 15.671875 41.71875 21.09375 
Q 42.78125 26.515625 42.78125 34.421875 
z
" id="LiberationSans-48"/>
       </defs>
       <use xlink:href="#LiberationSans-48"/>
      </g>
     </g>
    </g>
    <g id="xtick_2">
     <g id="line2d_2">
      <g>
       <use style="fill:#262626;stroke:#262626;stroke-width:0.8;" x="90.43875" xlink:href="#m0d16e469bc" y="224.6"/>
      </g>
     </g>
     <g id="text_2">
      <!-- 50 -->
      <g style="fill:#262626;" transform="translate(85.99 236.3975)scale(0.08 -0.08)">
       <defs>
        <path d="M 51.421875 22.40625 
Q 51.421875 17.234375 49.859375 12.9375 
Q 48.296875 8.640625 45.21875 5.53125 
Q 42.140625 2.4375 37.578125 0.71875 
Q 33.015625 -0.984375 27 -0.984375 
Q 21.578125 -0.984375 17.546875 0.28125 
Q 13.53125 1.5625 10.734375 3.78125 
Q 7.953125 6 6.3125 8.984375 
Q 4.6875 11.96875 4 15.375 
L 12.890625 16.40625 
Q 13.421875 14.453125 14.390625 12.625 
Q 15.375 10.796875 17.0625 9.34375 
Q 18.75 7.90625 21.21875 7.046875 
Q 23.6875 6.203125 27.203125 6.203125 
Q 30.609375 6.203125 33.390625 7.25 
Q 36.1875 8.296875 38.15625 10.34375 
Q 40.140625 12.40625 41.203125 15.375 
Q 42.28125 18.359375 42.28125 22.21875 
Q 42.28125 25.390625 41.25 28.046875 
Q 40.234375 30.71875 38.328125 32.640625 
Q 36.421875 34.578125 33.65625 35.640625 
Q 30.90625 36.71875 27.390625 36.71875 
Q 25.203125 36.71875 23.34375 36.328125 
Q 21.484375 35.9375 19.890625 35.25 
Q 18.3125 34.578125 17.015625 33.671875 
Q 15.71875 32.765625 14.59375 31.78125 
L 6 31.78125 
L 8.296875 68.796875 
L 47.40625 68.796875 
L 47.40625 61.328125 
L 16.3125 61.328125 
L 14.984375 39.5 
Q 17.328125 41.3125 20.84375 42.59375 
Q 24.359375 43.890625 29.203125 43.890625 
Q 34.328125 43.890625 38.421875 42.328125 
Q 42.53125 40.765625 45.40625 37.90625 
Q 48.296875 35.0625 49.859375 31.109375 
Q 51.421875 27.15625 51.421875 22.40625 
z
" id="LiberationSans-53"/>
       </defs>
       <use xlink:href="#LiberationSans-53"/>
       <use x="55.615234" xlink:href="#LiberationSans-48"/>
      </g>
     </g>
    </g>
    <g id="xtick_3">
     <g id="line2d_3">
      <g>
       <use style="fill:#262626;stroke:#262626;stroke-width:0.8;" x="136.55125" xlink:href="#m0d16e469bc" y="224.6"/>
      </g>
     </g>
     <g id="text_3">
      <!-- 100 -->
      <g style="fill:#262626;" transform="translate(129.878125 236.3975)scale(0.08 -0.08)">
       <defs>
        <path d="M 7.625 0 
L 7.625 7.46875 
L 25.140625 7.46875 
L 25.140625 60.40625 
L 9.625 49.3125 
L 9.625 57.625 
L 25.875 68.796875 
L 33.984375 68.796875 
L 33.984375 7.46875 
L 50.734375 7.46875 
L 50.734375 0 
z
" id="LiberationSans-49"/>
       </defs>
       <use xlink:href="#LiberationSans-49"/>
       <use x="55.615234" xlink:href="#LiberationSans-48"/>
       <use x="111.230469" xlink:href="#LiberationSans-48"/>
      </g>
     </g>
    </g>
    <g id="text_4">
     <!-- gamma distributed (% of studies) -->
     <g style="fill:#262626;" transform="translate(24.665625 248.579688)scale(0.09 -0.09)">
      <defs>
       <path d="M 26.765625 -20.75 
Q 22.21875 -20.75 18.703125 -19.8125 
Q 15.1875 -18.890625 12.6875 -17.15625 
Q 10.203125 -15.4375 8.640625 -13.03125 
Q 7.078125 -10.640625 6.390625 -7.71875 
L 15.234375 -6.453125 
Q 16.109375 -10.109375 19.109375 -12.078125 
Q 22.125 -14.0625 27 -14.0625 
Q 29.984375 -14.0625 32.421875 -13.234375 
Q 34.859375 -12.40625 36.5625 -10.5625 
Q 38.28125 -8.734375 39.203125 -5.796875 
Q 40.140625 -2.875 40.140625 1.3125 
L 40.140625 9.8125 
L 40.046875 9.8125 
Q 39.0625 7.8125 37.625 5.984375 
Q 36.1875 4.15625 34.109375 2.734375 
Q 32.03125 1.3125 29.296875 0.453125 
Q 26.5625 -0.390625 23.046875 -0.390625 
Q 18.015625 -0.390625 14.421875 1.296875 
Q 10.84375 2.984375 8.5625 6.34375 
Q 6.296875 9.71875 5.25 14.71875 
Q 4.203125 19.734375 4.203125 26.3125 
Q 4.203125 32.671875 5.25 37.75 
Q 6.296875 42.828125 8.65625 46.359375 
Q 11.03125 49.90625 14.8125 51.78125 
Q 18.609375 53.65625 24.03125 53.65625 
Q 29.640625 53.65625 33.765625 51.09375 
Q 37.890625 48.53125 40.140625 43.796875 
L 40.234375 43.796875 
Q 40.234375 45.015625 40.296875 46.53125 
Q 40.375 48.046875 40.453125 49.390625 
Q 40.53125 50.734375 40.625 51.703125 
Q 40.71875 52.6875 40.828125 52.828125 
L 49.171875 52.828125 
Q 49.125 52.390625 49.078125 51.34375 
Q 49.03125 50.296875 48.96875 48.828125 
Q 48.921875 47.359375 48.890625 45.578125 
Q 48.875 43.796875 48.875 41.890625 
L 48.875 1.515625 
Q 48.875 -9.578125 43.421875 -15.15625 
Q 37.984375 -20.75 26.765625 -20.75 
z
M 40.140625 26.421875 
Q 40.140625 31.9375 38.9375 35.859375 
Q 37.75 39.796875 35.796875 42.28125 
Q 33.84375 44.78125 31.328125 45.953125 
Q 28.8125 47.125 26.171875 47.125 
Q 22.796875 47.125 20.375 45.953125 
Q 17.96875 44.78125 16.375 42.265625 
Q 14.796875 39.75 14.03125 35.8125 
Q 13.28125 31.890625 13.28125 26.421875 
Q 13.28125 20.703125 14.03125 16.8125 
Q 14.796875 12.9375 16.359375 10.546875 
Q 17.921875 8.15625 20.3125 7.125 
Q 22.703125 6.109375 26.03125 6.109375 
Q 28.65625 6.109375 31.171875 7.21875 
Q 33.6875 8.34375 35.6875 10.78125 
Q 37.703125 13.234375 38.921875 17.09375 
Q 40.140625 20.953125 40.140625 26.421875 
z
" id="LiberationSans-103"/>
       <path d="M 20.21875 -0.984375 
Q 12.25 -0.984375 8.25 3.21875 
Q 4.25 7.421875 4.25 14.75 
Q 4.25 19.96875 6.21875 23.3125 
Q 8.203125 26.65625 11.390625 28.5625 
Q 14.59375 30.46875 18.6875 31.203125 
Q 22.796875 31.9375 27.046875 32.03125 
L 38.921875 32.234375 
L 38.921875 35.109375 
Q 38.921875 38.375 38.234375 40.671875 
Q 37.546875 42.96875 36.125 44.375 
Q 34.71875 45.796875 32.59375 46.453125 
Q 30.46875 47.125 27.59375 47.125 
Q 25.046875 47.125 23 46.75 
Q 20.953125 46.390625 19.4375 45.4375 
Q 17.921875 44.484375 16.984375 42.84375 
Q 16.0625 41.21875 15.765625 38.71875 
L 6.59375 39.546875 
Q 7.078125 42.671875 8.4375 45.28125 
Q 9.8125 47.90625 12.328125 49.796875 
Q 14.84375 51.703125 18.625 52.75 
Q 22.40625 53.8125 27.78125 53.8125 
Q 37.75 53.8125 42.765625 49.234375 
Q 47.796875 44.671875 47.796875 36.03125 
L 47.796875 13.28125 
Q 47.796875 9.375 48.828125 7.390625 
Q 49.859375 5.421875 52.734375 5.421875 
Q 53.46875 5.421875 54.203125 5.515625 
Q 54.9375 5.609375 55.609375 5.765625 
L 55.609375 0.296875 
Q 53.953125 -0.09375 52.3125 -0.28125 
Q 50.6875 -0.484375 48.828125 -0.484375 
Q 46.34375 -0.484375 44.5625 0.171875 
Q 42.78125 0.828125 41.65625 2.171875 
Q 40.53125 3.515625 39.9375 5.484375 
Q 39.359375 7.46875 39.203125 10.109375 
L 38.921875 10.109375 
Q 37.5 7.5625 35.8125 5.515625 
Q 34.125 3.46875 31.875 2.03125 
Q 29.640625 0.59375 26.78125 -0.1875 
Q 23.921875 -0.984375 20.21875 -0.984375 
z
M 22.21875 5.609375 
Q 26.421875 5.609375 29.5625 7.140625 
Q 32.71875 8.6875 34.78125 11.078125 
Q 36.859375 13.484375 37.890625 16.3125 
Q 38.921875 19.140625 38.921875 21.734375 
L 38.921875 26.078125 
L 29.296875 25.875 
Q 26.078125 25.828125 23.171875 25.40625 
Q 20.265625 25 18.0625 23.78125 
Q 15.875 22.5625 14.578125 20.359375 
Q 13.28125 18.171875 13.28125 14.59375 
Q 13.28125 10.296875 15.59375 7.953125 
Q 17.921875 5.609375 22.21875 5.609375 
z
" id="LiberationSans-97"/>
       <path d="M 37.5 0 
L 37.5 33.5 
Q 37.5 37.359375 37.015625 39.9375 
Q 36.53125 42.53125 35.375 44.109375 
Q 34.234375 45.703125 32.375 46.359375 
Q 30.515625 47.015625 27.828125 47.015625 
Q 25.046875 47.015625 22.796875 45.921875 
Q 20.5625 44.828125 18.96875 42.75 
Q 17.390625 40.671875 16.53125 37.625 
Q 15.671875 34.578125 15.671875 30.609375 
L 15.671875 0 
L 6.9375 0 
L 6.9375 41.546875 
Q 6.9375 43.21875 6.90625 45.046875 
Q 6.890625 46.875 6.828125 48.5 
Q 6.78125 50.140625 6.734375 51.3125 
Q 6.6875 52.484375 6.640625 52.828125 
L 14.9375 52.828125 
Q 14.984375 52.59375 15.03125 51.515625 
Q 15.09375 50.4375 15.15625 49.046875 
Q 15.234375 47.65625 15.28125 46.21875 
Q 15.328125 44.78125 15.328125 43.796875 
L 15.484375 43.796875 
Q 16.65625 46.09375 18.015625 47.953125 
Q 19.390625 49.8125 21.21875 51.09375 
Q 23.046875 52.390625 25.40625 53.09375 
Q 27.78125 53.8125 30.90625 53.8125 
Q 36.921875 53.8125 40.40625 51.421875 
Q 43.890625 49.03125 45.265625 43.796875 
L 45.40625 43.796875 
Q 46.578125 46.09375 48.046875 47.953125 
Q 49.515625 49.8125 51.46875 51.09375 
Q 53.421875 52.390625 55.859375 53.09375 
Q 58.296875 53.8125 61.421875 53.8125 
Q 65.4375 53.8125 68.328125 52.734375 
Q 71.234375 51.65625 73.09375 49.40625 
Q 74.953125 47.171875 75.828125 43.625 
Q 76.703125 40.09375 76.703125 35.203125 
L 76.703125 0 
L 68.015625 0 
L 68.015625 33.5 
Q 68.015625 37.359375 67.53125 39.9375 
Q 67.046875 42.53125 65.890625 44.109375 
Q 64.75 45.703125 62.890625 46.359375 
Q 61.03125 47.015625 58.34375 47.015625 
Q 55.5625 47.015625 53.3125 45.96875 
Q 51.078125 44.921875 49.484375 42.875 
Q 47.90625 40.828125 47.046875 37.75 
Q 46.1875 34.671875 46.1875 30.609375 
L 46.1875 0 
z
" id="LiberationSans-109"/>
       <path id="LiberationSans-32"/>
       <path d="M 40.09375 8.5 
Q 37.640625 3.421875 33.609375 1.21875 
Q 29.59375 -0.984375 23.640625 -0.984375 
Q 13.625 -0.984375 8.90625 5.75 
Q 4.203125 12.5 4.203125 26.171875 
Q 4.203125 53.8125 23.640625 53.8125 
Q 29.640625 53.8125 33.640625 51.609375 
Q 37.640625 49.421875 40.09375 44.625 
L 40.1875 44.625 
Q 40.1875 45.125 40.15625 46.171875 
Q 40.140625 47.21875 40.109375 48.359375 
Q 40.09375 49.515625 40.09375 50.53125 
Q 40.09375 51.5625 40.09375 52 
L 40.09375 72.46875 
L 48.875 72.46875 
L 48.875 10.890625 
Q 48.875 8.984375 48.890625 7.21875 
Q 48.921875 5.46875 48.96875 4 
Q 49.03125 2.546875 49.078125 1.484375 
Q 49.125 0.4375 49.171875 0 
L 40.765625 0 
Q 40.671875 0.484375 40.59375 1.390625 
Q 40.53125 2.296875 40.453125 3.46875 
Q 40.375 4.640625 40.328125 5.9375 
Q 40.28125 7.234375 40.28125 8.5 
z
M 13.421875 26.46875 
Q 13.421875 21 14.109375 17.09375 
Q 14.796875 13.1875 16.3125 10.671875 
Q 17.828125 8.15625 20.171875 6.984375 
Q 22.515625 5.8125 25.875 5.8125 
Q 29.34375 5.8125 32 6.9375 
Q 34.671875 8.0625 36.453125 10.578125 
Q 38.234375 13.09375 39.15625 17.140625 
Q 40.09375 21.1875 40.09375 27.046875 
Q 40.09375 32.671875 39.15625 36.546875 
Q 38.234375 40.4375 36.421875 42.828125 
Q 34.625 45.21875 32 46.265625 
Q 29.390625 47.3125 25.984375 47.3125 
Q 22.75 47.3125 20.40625 46.1875 
Q 18.0625 45.0625 16.5 42.578125 
Q 14.9375 40.09375 14.171875 36.109375 
Q 13.421875 32.125 13.421875 26.46875 
z
" id="LiberationSans-100"/>
       <path d="M 6.6875 64.0625 
L 6.6875 72.46875 
L 15.484375 72.46875 
L 15.484375 64.0625 
z
M 6.6875 0 
L 6.6875 52.828125 
L 15.484375 52.828125 
L 15.484375 0 
z
" id="LiberationSans-105"/>
       <path d="M 46.390625 14.59375 
Q 46.390625 10.890625 44.9375 7.984375 
Q 43.5 5.078125 40.765625 3.09375 
Q 38.03125 1.125 34.046875 0.0625 
Q 30.078125 -0.984375 24.953125 -0.984375 
Q 20.359375 -0.984375 16.671875 -0.265625 
Q 12.984375 0.4375 10.203125 2 
Q 7.421875 3.5625 5.53125 6.125 
Q 3.65625 8.6875 2.78125 12.40625 
L 10.546875 13.921875 
Q 11.671875 9.671875 15.1875 7.6875 
Q 18.703125 5.71875 24.953125 5.71875 
Q 27.78125 5.71875 30.140625 6.109375 
Q 32.515625 6.5 34.21875 7.453125 
Q 35.9375 8.40625 36.890625 9.984375 
Q 37.84375 11.578125 37.84375 13.921875 
Q 37.84375 16.3125 36.71875 17.84375 
Q 35.59375 19.390625 33.59375 20.40625 
Q 31.59375 21.4375 28.734375 22.1875 
Q 25.875 22.953125 22.46875 23.875 
Q 19.28125 24.703125 16.15625 25.734375 
Q 13.03125 26.765625 10.515625 28.4375 
Q 8.015625 30.125 6.453125 32.609375 
Q 4.890625 35.109375 4.890625 38.875 
Q 4.890625 46.09375 10.03125 49.875 
Q 15.1875 53.65625 25.046875 53.65625 
Q 33.796875 53.65625 38.9375 50.578125 
Q 44.09375 47.515625 45.453125 40.71875 
L 37.546875 39.75 
Q 37.109375 41.796875 35.9375 43.1875 
Q 34.765625 44.578125 33.109375 45.4375 
Q 31.453125 46.296875 29.375 46.65625 
Q 27.296875 47.015625 25.046875 47.015625 
Q 19.09375 47.015625 16.25 45.203125 
Q 13.421875 43.40625 13.421875 39.75 
Q 13.421875 37.59375 14.46875 36.203125 
Q 15.53125 34.8125 17.40625 33.859375 
Q 19.28125 32.90625 21.921875 32.203125 
Q 24.5625 31.5 27.734375 30.71875 
Q 29.828125 30.171875 32.03125 29.5625 
Q 34.234375 28.953125 36.296875 28.09375 
Q 38.375 27.25 40.203125 26.09375 
Q 42.046875 24.953125 43.40625 23.34375 
Q 44.78125 21.734375 45.578125 19.578125 
Q 46.390625 17.4375 46.390625 14.59375 
z
" id="LiberationSans-115"/>
       <path d="M 27.046875 0.390625 
Q 25.046875 -0.140625 22.96875 -0.453125 
Q 20.90625 -0.78125 18.171875 -0.78125 
Q 7.625 -0.78125 7.625 11.1875 
L 7.625 46.4375 
L 1.515625 46.4375 
L 1.515625 52.828125 
L 7.953125 52.828125 
L 10.546875 64.65625 
L 16.40625 64.65625 
L 16.40625 52.828125 
L 26.171875 52.828125 
L 26.171875 46.4375 
L 16.40625 46.4375 
L 16.40625 13.09375 
Q 16.40625 9.28125 17.640625 7.734375 
Q 18.890625 6.203125 21.96875 6.203125 
Q 23.25 6.203125 24.4375 6.390625 
Q 25.640625 6.59375 27.046875 6.890625 
z
" id="LiberationSans-116"/>
       <path d="M 6.9375 0 
L 6.9375 40.53125 
Q 6.9375 42.1875 6.90625 43.921875 
Q 6.890625 45.65625 6.828125 47.265625 
Q 6.78125 48.875 6.734375 50.28125 
Q 6.6875 51.703125 6.640625 52.828125 
L 14.9375 52.828125 
Q 14.984375 51.703125 15.0625 50.265625 
Q 15.140625 48.828125 15.203125 47.3125 
Q 15.28125 45.796875 15.296875 44.40625 
Q 15.328125 43.015625 15.328125 42.046875 
L 15.53125 42.046875 
Q 16.453125 45.0625 17.5 47.28125 
Q 18.5625 49.515625 19.96875 50.953125 
Q 21.390625 52.390625 23.34375 53.09375 
Q 25.296875 53.8125 28.078125 53.8125 
Q 29.15625 53.8125 30.125 53.640625 
Q 31.109375 53.46875 31.640625 53.328125 
L 31.640625 45.265625 
Q 30.765625 45.515625 29.59375 45.625 
Q 28.421875 45.75 26.953125 45.75 
Q 23.921875 45.75 21.796875 44.375 
Q 19.671875 43.015625 18.328125 40.59375 
Q 17 38.1875 16.359375 34.84375 
Q 15.71875 31.5 15.71875 27.546875 
L 15.71875 0 
z
" id="LiberationSans-114"/>
       <path d="M 51.421875 26.65625 
Q 51.421875 -0.984375 31.984375 -0.984375 
Q 25.984375 -0.984375 22 1.1875 
Q 18.015625 3.375 15.53125 8.203125 
L 15.4375 8.203125 
Q 15.4375 6.9375 15.359375 5.5625 
Q 15.28125 4.203125 15.203125 3.03125 
Q 15.140625 1.859375 15.0625 1.03125 
Q 14.984375 0.203125 14.9375 0 
L 6.453125 0 
Q 6.5 0.4375 6.546875 1.484375 
Q 6.59375 2.546875 6.640625 4 
Q 6.6875 5.46875 6.703125 7.21875 
Q 6.734375 8.984375 6.734375 10.890625 
L 6.734375 72.46875 
L 15.53125 72.46875 
L 15.53125 51.8125 
Q 15.53125 50.34375 15.5 49 
Q 15.484375 47.65625 15.4375 46.625 
Q 15.375 45.40625 15.328125 44.34375 
L 15.53125 44.34375 
Q 17.96875 49.421875 22 51.609375 
Q 26.03125 53.8125 31.984375 53.8125 
Q 42 53.8125 46.703125 47.0625 
Q 51.421875 40.328125 51.421875 26.65625 
z
M 42.1875 26.375 
Q 42.1875 31.84375 41.5 35.75 
Q 40.828125 39.65625 39.3125 42.15625 
Q 37.796875 44.671875 35.453125 45.84375 
Q 33.109375 47.015625 29.734375 47.015625 
Q 26.265625 47.015625 23.609375 45.890625 
Q 20.953125 44.78125 19.171875 42.28125 
Q 17.390625 39.796875 16.453125 35.734375 
Q 15.53125 31.6875 15.53125 25.828125 
Q 15.53125 20.171875 16.453125 16.3125 
Q 17.390625 12.453125 19.171875 10.03125 
Q 20.953125 7.625 23.578125 6.5625 
Q 26.21875 5.515625 29.640625 5.515625 
Q 32.859375 5.515625 35.203125 6.640625 
Q 37.546875 7.765625 39.109375 10.25 
Q 40.671875 12.75 41.421875 16.71875 
Q 42.1875 20.703125 42.1875 26.375 
z
" id="LiberationSans-98"/>
       <path d="M 15.328125 52.828125 
L 15.328125 19.34375 
Q 15.328125 15.484375 15.890625 12.890625 
Q 16.453125 10.296875 17.71875 8.703125 
Q 19 7.125 21.0625 6.46875 
Q 23.140625 5.8125 26.21875 5.8125 
Q 29.34375 5.8125 31.859375 6.90625 
Q 34.375 8.015625 36.15625 10.078125 
Q 37.9375 12.15625 38.90625 15.203125 
Q 39.890625 18.265625 39.890625 22.21875 
L 39.890625 52.828125 
L 48.6875 52.828125 
L 48.6875 11.28125 
Q 48.6875 9.625 48.703125 7.78125 
Q 48.734375 5.953125 48.78125 4.3125 
Q 48.828125 2.6875 48.875 1.515625 
Q 48.921875 0.34375 48.96875 0 
L 40.671875 0 
Q 40.625 0.25 40.578125 1.3125 
Q 40.53125 2.390625 40.453125 3.78125 
Q 40.375 5.171875 40.328125 6.609375 
Q 40.28125 8.0625 40.28125 9.03125 
L 40.140625 9.03125 
Q 38.875 6.734375 37.359375 4.875 
Q 35.84375 3.03125 33.84375 1.734375 
Q 31.84375 0.4375 29.25 -0.265625 
Q 26.65625 -0.984375 23.25 -0.984375 
Q 18.84375 -0.984375 15.671875 0.09375 
Q 12.5 1.171875 10.453125 3.421875 
Q 8.40625 5.671875 7.453125 9.1875 
Q 6.5 12.703125 6.5 17.625 
L 6.5 52.828125 
z
" id="LiberationSans-117"/>
       <path d="M 13.484375 24.5625 
Q 13.484375 20.40625 14.328125 16.90625 
Q 15.1875 13.421875 16.96875 10.90625 
Q 18.75 8.40625 21.53125 7 
Q 24.3125 5.609375 28.21875 5.609375 
Q 33.9375 5.609375 37.375 7.90625 
Q 40.828125 10.203125 42.046875 13.71875 
L 49.75 11.53125 
Q 48.921875 9.328125 47.4375 7.109375 
Q 45.953125 4.890625 43.453125 3.09375 
Q 40.96875 1.3125 37.234375 0.15625 
Q 33.5 -0.984375 28.21875 -0.984375 
Q 16.5 -0.984375 10.375 6 
Q 4.25 12.984375 4.25 26.765625 
Q 4.25 34.1875 6.09375 39.328125 
Q 7.953125 44.484375 11.171875 47.703125 
Q 14.40625 50.921875 18.703125 52.359375 
Q 23 53.8125 27.875 53.8125 
Q 34.515625 53.8125 38.984375 51.65625 
Q 43.453125 49.515625 46.15625 45.71875 
Q 48.875 41.9375 50.015625 36.8125 
Q 51.171875 31.6875 51.171875 25.734375 
L 51.171875 24.5625 
z
M 42.09375 31.296875 
Q 41.359375 39.65625 37.84375 43.484375 
Q 34.328125 47.3125 27.734375 47.3125 
Q 25.53125 47.3125 23.109375 46.609375 
Q 20.703125 45.90625 18.65625 44.09375 
Q 16.609375 42.28125 15.1875 39.171875 
Q 13.765625 36.078125 13.578125 31.296875 
z
" id="LiberationSans-101"/>
       <path d="M 6.203125 25.984375 
Q 6.203125 32.765625 7.21875 38.96875 
Q 8.25 45.171875 10.4375 50.875 
Q 12.640625 56.59375 16.0625 61.953125 
Q 19.484375 67.328125 24.21875 72.46875 
L 32.71875 72.46875 
Q 28.125 67.328125 24.78125 61.9375 
Q 21.4375 56.546875 19.28125 50.796875 
Q 17.140625 45.0625 16.09375 38.859375 
Q 15.046875 32.671875 15.046875 25.875 
Q 15.046875 19.09375 16.09375 12.890625 
Q 17.140625 6.6875 19.28125 0.921875 
Q 21.4375 -4.828125 24.78125 -10.203125 
Q 28.125 -15.578125 32.71875 -20.703125 
L 24.21875 -20.703125 
Q 19.484375 -15.578125 16.0625 -10.203125 
Q 12.640625 -4.828125 10.4375 0.875 
Q 8.25 6.59375 7.21875 12.765625 
Q 6.203125 18.953125 6.203125 25.78125 
z
" id="LiberationSans-40"/>
       <path d="M 85.359375 21.1875 
Q 85.359375 15.09375 84.109375 10.90625 
Q 82.859375 6.734375 80.734375 4.171875 
Q 78.609375 1.609375 75.78125 0.5 
Q 72.953125 -0.59375 69.734375 -0.59375 
Q 66.5 -0.59375 63.6875 0.5 
Q 60.890625 1.609375 58.8125 4.140625 
Q 56.734375 6.6875 55.53125 10.859375 
Q 54.34375 15.046875 54.34375 21.1875 
Q 54.34375 27.6875 55.515625 31.9375 
Q 56.6875 36.1875 58.78125 38.703125 
Q 60.890625 41.21875 63.75 42.21875 
Q 66.609375 43.21875 69.921875 43.21875 
Q 73.140625 43.21875 75.953125 42.21875 
Q 78.765625 41.21875 80.828125 38.703125 
Q 82.90625 36.1875 84.125 31.9375 
Q 85.359375 27.6875 85.359375 21.1875 
z
M 25.734375 0 
L 18.171875 0 
L 63.1875 68.796875 
L 70.84375 68.796875 
z
M 19.234375 69.390625 
Q 22.359375 69.390625 25.140625 68.390625 
Q 27.9375 67.390625 30.03125 64.890625 
Q 32.125 62.40625 33.3125 58.203125 
Q 34.515625 54 34.515625 47.609375 
Q 34.515625 41.453125 33.296875 37.25 
Q 32.078125 33.0625 30 30.4375 
Q 27.9375 27.828125 25.09375 26.703125 
Q 22.265625 25.59375 19.046875 25.59375 
Q 15.765625 25.59375 12.9375 26.703125 
Q 10.109375 27.828125 8.03125 30.421875 
Q 5.953125 33.015625 4.75 37.203125 
Q 3.5625 41.40625 3.5625 47.609375 
Q 3.5625 54 4.75 58.203125 
Q 5.953125 62.40625 8.046875 64.890625 
Q 10.15625 67.390625 13.03125 68.390625 
Q 15.921875 69.390625 19.234375 69.390625 
z
M 78.125 21.1875 
Q 78.125 26.03125 77.578125 29.21875 
Q 77.046875 32.421875 76 34.328125 
Q 74.953125 36.234375 73.40625 37.015625 
Q 71.875 37.796875 69.921875 37.796875 
Q 67.875 37.796875 66.3125 36.984375 
Q 64.75 36.1875 63.671875 34.28125 
Q 62.59375 32.375 62.0625 29.171875 
Q 61.53125 25.984375 61.53125 21.1875 
Q 61.53125 16.546875 62.078125 13.421875 
Q 62.640625 10.296875 63.6875 8.375 
Q 64.75 6.453125 66.28125 5.609375 
Q 67.828125 4.78125 69.828125 4.78125 
Q 71.734375 4.78125 73.265625 5.609375 
Q 74.8125 6.453125 75.875 8.375 
Q 76.953125 10.296875 77.53125 13.421875 
Q 78.125 16.546875 78.125 21.1875 
z
M 27.34375 47.609375 
Q 27.34375 52.390625 26.796875 55.5625 
Q 26.265625 58.734375 25.234375 60.640625 
Q 24.21875 62.546875 22.703125 63.328125 
Q 21.1875 64.109375 19.234375 64.109375 
Q 17.140625 64.109375 15.546875 63.296875 
Q 13.96875 62.5 12.890625 60.59375 
Q 11.8125 58.6875 11.28125 55.515625 
Q 10.75 52.34375 10.75 47.609375 
Q 10.75 42.96875 11.296875 39.796875 
Q 11.859375 36.625 12.90625 34.6875 
Q 13.96875 32.765625 15.53125 31.9375 
Q 17.09375 31.109375 19.140625 31.109375 
Q 21 31.109375 22.515625 31.9375 
Q 24.03125 32.765625 25.09375 34.6875 
Q 26.171875 36.625 26.75 39.796875 
Q 27.34375 42.96875 27.34375 47.609375 
z
" id="LiberationSans-37"/>
       <path d="M 51.421875 26.46875 
Q 51.421875 12.59375 45.3125 5.796875 
Q 39.203125 -0.984375 27.59375 -0.984375 
Q 22.078125 -0.984375 17.71875 0.671875 
Q 13.375 2.34375 10.375 5.765625 
Q 7.375 9.1875 5.78125 14.328125 
Q 4.203125 19.484375 4.203125 26.46875 
Q 4.203125 53.8125 27.875 53.8125 
Q 34.03125 53.8125 38.5 52.09375 
Q 42.96875 50.390625 45.828125 46.96875 
Q 48.6875 43.5625 50.046875 38.421875 
Q 51.421875 33.296875 51.421875 26.46875 
z
M 42.1875 26.46875 
Q 42.1875 32.625 41.234375 36.625 
Q 40.28125 40.625 38.453125 43.015625 
Q 36.625 45.40625 33.984375 46.359375 
Q 31.34375 47.3125 28.03125 47.3125 
Q 24.65625 47.3125 21.9375 46.3125 
Q 19.234375 45.3125 17.328125 42.890625 
Q 15.4375 40.484375 14.421875 36.46875 
Q 13.421875 32.46875 13.421875 26.46875 
Q 13.421875 20.3125 14.5 16.28125 
Q 15.578125 12.25 17.453125 9.859375 
Q 19.34375 7.46875 21.90625 6.484375 
Q 24.46875 5.515625 27.484375 5.515625 
Q 30.859375 5.515625 33.59375 6.46875 
Q 36.328125 7.421875 38.234375 9.8125 
Q 40.140625 12.203125 41.15625 16.25 
Q 42.1875 20.3125 42.1875 26.46875 
z
" id="LiberationSans-111"/>
       <path d="M 17.625 46.4375 
L 17.625 0 
L 8.84375 0 
L 8.84375 46.4375 
L 1.421875 46.4375 
L 1.421875 52.828125 
L 8.84375 52.828125 
L 8.84375 58.796875 
Q 8.84375 61.671875 9.375 64.140625 
Q 9.90625 66.609375 11.34375 68.4375 
Q 12.796875 70.265625 15.28125 71.3125 
Q 17.78125 72.359375 21.734375 72.359375 
Q 23.296875 72.359375 24.96875 72.21875 
Q 26.65625 72.078125 27.9375 71.78125 
L 27.9375 65.09375 
Q 27.09375 65.234375 26 65.359375 
Q 24.90625 65.484375 24.03125 65.484375 
Q 22.078125 65.484375 20.828125 64.9375 
Q 19.578125 64.40625 18.875 63.40625 
Q 18.171875 62.40625 17.890625 60.9375 
Q 17.625 59.46875 17.625 57.5625 
L 17.625 52.828125 
L 27.9375 52.828125 
L 27.9375 46.4375 
z
" id="LiberationSans-102"/>
       <path d="M 27.09375 25.78125 
Q 27.09375 18.953125 26.0625 12.765625 
Q 25.046875 6.59375 22.84375 0.875 
Q 20.65625 -4.828125 17.234375 -10.203125 
Q 13.8125 -15.578125 9.078125 -20.703125 
L 0.59375 -20.703125 
Q 5.171875 -15.578125 8.515625 -10.203125 
Q 11.859375 -4.828125 14 0.921875 
Q 16.15625 6.6875 17.203125 12.890625 
Q 18.265625 19.09375 18.265625 25.875 
Q 18.265625 32.671875 17.203125 38.859375 
Q 16.15625 45.0625 14 50.796875 
Q 11.859375 56.546875 8.515625 61.9375 
Q 5.171875 67.328125 0.59375 72.46875 
L 9.078125 72.46875 
Q 13.8125 67.328125 17.234375 61.953125 
Q 20.65625 56.59375 22.84375 50.875 
Q 25.046875 45.171875 26.0625 38.96875 
Q 27.09375 32.765625 27.09375 25.984375 
z
" id="LiberationSans-41"/>
      </defs>
      <use xlink:href="#LiberationSans-103"/>
      <use x="55.615234" xlink:href="#LiberationSans-97"/>
      <use x="111.230469" xlink:href="#LiberationSans-109"/>
      <use x="194.53125" xlink:href="#LiberationSans-109"/>
      <use x="277.832031" xlink:href="#LiberationSans-97"/>
      <use x="333.447266" xlink:href="#LiberationSans-32"/>
      <use x="361.230469" xlink:href="#LiberationSans-100"/>
      <use x="416.845703" xlink:href="#LiberationSans-105"/>
      <use x="439.0625" xlink:href="#LiberationSans-115"/>
      <use x="489.0625" xlink:href="#LiberationSans-116"/>
      <use x="516.845703" xlink:href="#LiberationSans-114"/>
      <use x="550.146484" xlink:href="#LiberationSans-105"/>
      <use x="572.363281" xlink:href="#LiberationSans-98"/>
      <use x="627.978516" xlink:href="#LiberationSans-117"/>
      <use x="683.59375" xlink:href="#LiberationSans-116"/>
      <use x="711.376953" xlink:href="#LiberationSans-101"/>
      <use x="766.992188" xlink:href="#LiberationSans-100"/>
      <use x="822.607422" xlink:href="#LiberationSans-32"/>
      <use x="850.390625" xlink:href="#LiberationSans-40"/>
      <use x="883.691406" xlink:href="#LiberationSans-37"/>
      <use x="972.607422" xlink:href="#LiberationSans-32"/>
      <use x="1000.390625" xlink:href="#LiberationSans-111"/>
      <use x="1056.005859" xlink:href="#LiberationSans-102"/>
      <use x="1083.789062" xlink:href="#LiberationSans-32"/>
      <use x="1111.572266" xlink:href="#LiberationSans-115"/>
      <use x="1161.572266" xlink:href="#LiberationSans-116"/>
      <use x="1189.355469" xlink:href="#LiberationSans-117"/>
      <use x="1244.970703" xlink:href="#LiberationSans-100"/>
      <use x="1300.585938" xlink:href="#LiberationSans-105"/>
      <use x="1322.802734" xlink:href="#LiberationSans-101"/>
      <use x="1378.417969" xlink:href="#LiberationSans-115"/>
      <use x="1428.417969" xlink:href="#LiberationSans-41"/>
     </g>
    </g>
   </g>
   <g id="matplotlib.axis_2">
    <g id="ytick_1">
     <g id="line2d_4">
      <defs>
       <path d="M 0 0 
L -4 0 
" id="m9260d3987c" style="stroke:#262626;stroke-width:0.8;"/>
      </defs>
      <g>
       <use style="fill:#262626;stroke:#262626;stroke-width:0.8;" x="44.32625" xlink:href="#m9260d3987c" y="10.823333"/>
      </g>
     </g>
     <g id="text_5">
      <!-- Ccl5 -->
      <g style="fill:#262626;" transform="translate(22.3225 13.722083)scale(0.08 -0.08)">
       <defs>
        <path d="M 66.3125 16.453125 
Q 63.921875 12.890625 60.9375 9.71875 
Q 57.953125 6.546875 54.125 4.171875 
Q 50.296875 1.8125 45.390625 0.40625 
Q 40.484375 -0.984375 34.1875 -0.984375 
Q 26.953125 -0.984375 21.546875 1.265625 
Q 16.15625 3.515625 12.59375 7.390625 
Q 9.03125 11.28125 7.265625 16.53125 
Q 5.515625 21.78125 5.515625 27.78125 
Q 5.515625 33.84375 6.828125 39.3125 
Q 8.15625 44.78125 10.59375 49.4375 
Q 13.03125 54.109375 16.546875 57.890625 
Q 20.0625 61.671875 24.484375 64.296875 
Q 28.90625 66.9375 34.125 68.375 
Q 39.359375 69.828125 45.21875 69.828125 
Q 51.515625 69.828125 56.25 68.375 
Q 60.984375 66.9375 64.34375 64.59375 
Q 67.71875 62.25 69.765625 59.21875 
Q 71.828125 56.203125 72.75 52.984375 
L 63.96875 50.296875 
Q 63.234375 52.59375 61.71875 54.71875 
Q 60.203125 56.84375 57.828125 58.515625 
Q 55.46875 60.203125 52.21875 61.203125 
Q 48.96875 62.203125 44.734375 62.203125 
Q 37.59375 62.203125 32.03125 59.59375 
Q 26.46875 56.984375 22.609375 52.359375 
Q 18.75 47.75 16.75 41.421875 
Q 14.75 35.109375 14.75 27.640625 
Q 14.75 23.046875 16.015625 19.1875 
Q 17.28125 15.328125 19.796875 12.515625 
Q 22.3125 9.71875 26.0625 8.15625 
Q 29.828125 6.59375 34.8125 6.59375 
Q 39.203125 6.59375 42.859375 7.78125 
Q 46.53125 8.984375 49.578125 10.953125 
Q 52.640625 12.9375 55.046875 15.5 
Q 57.46875 18.0625 59.328125 20.796875 
z
" id="LiberationSans-Italic-67"/>
        <path d="M 22.90625 5.953125 
Q 25.640625 5.953125 27.828125 6.75 
Q 30.03125 7.5625 31.734375 9.03125 
Q 33.453125 10.5 34.765625 12.578125 
Q 36.078125 14.65625 37.015625 17.1875 
L 44.625 14.796875 
Q 43.265625 11.140625 41.28125 8.234375 
Q 39.3125 5.328125 36.59375 3.265625 
Q 33.890625 1.21875 30.421875 0.109375 
Q 26.953125 -0.984375 22.703125 -0.984375 
Q 17.671875 -0.984375 13.984375 0.53125 
Q 10.296875 2.046875 7.921875 4.75 
Q 5.5625 7.46875 4.40625 11.171875 
Q 3.265625 14.890625 3.265625 19.28125 
Q 3.265625 21.234375 3.4375 23.53125 
Q 3.609375 25.828125 4.046875 28.03125 
Q 5.125 33.453125 6.8125 37.453125 
Q 8.5 41.453125 10.5625 44.3125 
Q 12.640625 47.171875 15.0625 49.015625 
Q 17.484375 50.875 20.046875 51.921875 
Q 22.609375 52.984375 25.265625 53.390625 
Q 27.9375 53.8125 30.515625 53.8125 
Q 34.859375 53.8125 38.15625 52.6875 
Q 41.453125 51.5625 43.75 49.515625 
Q 46.046875 47.46875 47.34375 44.609375 
Q 48.640625 41.75 48.875 38.28125 
L 40.234375 37.0625 
Q 40.09375 39.265625 39.40625 41.0625 
Q 38.71875 42.875 37.46875 44.15625 
Q 36.234375 45.453125 34.421875 46.1875 
Q 32.625 46.921875 30.21875 46.921875 
Q 26.859375 46.921875 24.171875 45.9375 
Q 21.484375 44.96875 19.359375 42.765625 
Q 17.234375 40.578125 15.71875 37.03125 
Q 14.203125 33.5 13.1875 28.375 
Q 12.75 26.03125 12.5 23.4375 
Q 12.25 20.84375 12.25 19 
Q 12.25 12.796875 14.765625 9.375 
Q 17.28125 5.953125 22.90625 5.953125 
z
" id="LiberationSans-Italic-99"/>
        <path d="M 1.609375 0 
L 15.671875 72.46875 
L 24.46875 72.46875 
L 10.359375 0 
z
" id="LiberationSans-Italic-108"/>
        <path d="M 16.75 68.796875 
L 55.859375 68.796875 
L 54.4375 61.328125 
L 23.34375 61.328125 
L 17.78125 39.5 
Q 18.703125 40.28125 20.015625 41.0625 
Q 21.34375 41.84375 23.046875 42.46875 
Q 24.75 43.109375 26.828125 43.5 
Q 28.90625 43.890625 31.296875 43.890625 
Q 35.640625 43.890625 39.296875 42.59375 
Q 42.96875 41.3125 45.65625 38.84375 
Q 48.34375 36.375 49.828125 32.8125 
Q 51.3125 29.25 51.3125 24.703125 
Q 51.3125 18.890625 49.578125 14.15625 
Q 47.859375 9.421875 44.484375 6.046875 
Q 41.109375 2.6875 36.125 0.84375 
Q 31.15625 -0.984375 24.65625 -0.984375 
Q 19.484375 -0.984375 15.671875 0.234375 
Q 11.859375 1.46875 9.203125 3.609375 
Q 6.546875 5.765625 4.859375 8.6875 
Q 3.171875 11.625 2.25 15.09375 
L 10.203125 17.1875 
Q 10.75 15.234375 11.765625 13.25 
Q 12.796875 11.28125 14.546875 9.71875 
Q 16.3125 8.15625 18.921875 7.171875 
Q 21.53125 6.203125 25.140625 6.203125 
Q 28.953125 6.203125 32.078125 7.265625 
Q 35.203125 8.34375 37.421875 10.546875 
Q 39.65625 12.75 40.84375 16.046875 
Q 42.046875 19.34375 42.046875 23.734375 
Q 42.046875 27 41.046875 29.4375 
Q 40.046875 31.890625 38.359375 33.5 
Q 36.671875 35.109375 34.390625 35.90625 
Q 32.125 36.71875 29.640625 36.71875 
Q 24.953125 36.71875 21.671875 35.328125 
Q 18.40625 33.9375 15.875 31.78125 
L 7.28125 31.78125 
z
" id="LiberationSans-Italic-53"/>
       </defs>
       <use xlink:href="#LiberationSans-Italic-67"/>
       <use x="72.216797" xlink:href="#LiberationSans-Italic-99"/>
       <use x="122.216797" xlink:href="#LiberationSans-Italic-108"/>
       <use x="144.433594" xlink:href="#LiberationSans-Italic-53"/>
      </g>
     </g>
    </g>
    <g id="ytick_2">
     <g id="line2d_5">
      <g>
       <use style="fill:#262626;stroke:#262626;stroke-width:0.8;" x="44.32625" xlink:href="#m9260d3987c" y="18.07"/>
      </g>
     </g>
     <g id="text_6">
      <!-- Il18r1 -->
      <g style="fill:#262626;" transform="translate(18.31625 20.96875)scale(0.08 -0.08)">
       <defs>
        <path d="M 3.953125 0 
L 17.328125 68.796875 
L 26.65625 68.796875 
L 13.28125 0 
z
" id="LiberationSans-Italic-73"/>
        <path d="M 2.59375 0 
L 4.046875 7.46875 
L 21.578125 7.46875 
L 31.734375 59.71875 
L 14.109375 48.828125 
L 15.828125 57.625 
L 34.234375 68.796875 
L 42.328125 68.796875 
L 30.421875 7.46875 
L 47.171875 7.46875 
L 45.703125 0 
z
" id="LiberationSans-Italic-49"/>
        <path d="M 34.375 69.78125 
Q 39.0625 69.78125 42.875 68.609375 
Q 46.6875 67.4375 49.390625 65.28125 
Q 52.09375 63.140625 53.5625 60.078125 
Q 55.03125 57.03125 55.03125 53.265625 
Q 55.03125 49.90625 53.921875 46.921875 
Q 52.828125 43.953125 50.796875 41.65625 
Q 48.78125 39.359375 45.890625 37.84375 
Q 43.015625 36.328125 39.40625 35.796875 
L 39.359375 35.59375 
Q 41.796875 34.859375 43.84375 33.59375 
Q 45.90625 32.328125 47.359375 30.484375 
Q 48.828125 28.65625 49.625 26.3125 
Q 50.4375 23.96875 50.4375 21.09375 
Q 50.4375 16.359375 48.796875 12.328125 
Q 47.171875 8.296875 43.921875 5.34375 
Q 40.671875 2.390625 35.78125 0.703125 
Q 30.90625 -0.984375 24.421875 -0.984375 
Q 18.84375 -0.984375 14.734375 0.40625 
Q 10.640625 1.8125 7.953125 4.296875 
Q 5.28125 6.78125 3.953125 10.171875 
Q 2.640625 13.578125 2.640625 17.578125 
Q 2.640625 22.3125 4.265625 25.671875 
Q 5.90625 29.046875 8.4375 31.34375 
Q 10.984375 33.640625 14.078125 34.953125 
Q 17.1875 36.28125 20.0625 36.921875 
L 20.0625 37.109375 
Q 15.625 38.96875 13.1875 42.65625 
Q 10.75 46.34375 10.75 51.375 
Q 10.75 55.609375 12.359375 59.03125 
Q 13.96875 62.453125 16.984375 64.8125 
Q 20.015625 67.1875 24.40625 68.484375 
Q 28.8125 69.78125 34.375 69.78125 
z
M 32.125 39.59375 
Q 36.375 39.59375 39.0625 40.890625 
Q 41.75 42.1875 43.28125 44.15625 
Q 44.828125 46.140625 45.390625 48.5 
Q 45.953125 50.875 45.953125 53.078125 
Q 45.953125 57.859375 42.75 60.515625 
Q 39.546875 63.1875 33.34375 63.1875 
Q 30.375 63.1875 27.828125 62.421875 
Q 25.296875 61.671875 23.4375 60.109375 
Q 21.578125 58.546875 20.546875 56.15625 
Q 19.53125 53.765625 19.53125 50.4375 
Q 19.53125 48.484375 20.15625 46.546875 
Q 20.796875 44.625 22.265625 43.078125 
Q 23.734375 41.546875 26.140625 40.5625 
Q 28.5625 39.59375 32.125 39.59375 
z
M 27.640625 32.8125 
Q 23.640625 32.8125 20.625 31.6875 
Q 17.625 30.5625 15.640625 28.53125 
Q 13.671875 26.515625 12.671875 23.671875 
Q 11.671875 20.84375 11.671875 17.390625 
Q 11.671875 14.890625 12.5 12.734375 
Q 13.328125 10.59375 15.015625 9.03125 
Q 16.703125 7.46875 19.265625 6.59375 
Q 21.828125 5.71875 25.34375 5.71875 
Q 28.71875 5.71875 31.640625 6.71875 
Q 34.578125 7.71875 36.765625 9.671875 
Q 38.96875 11.625 40.234375 14.53125 
Q 41.5 17.4375 41.5 21.296875 
Q 41.5 23.4375 40.765625 25.515625 
Q 40.046875 27.59375 38.40625 29.203125 
Q 36.765625 30.8125 34.109375 31.8125 
Q 31.453125 32.8125 27.640625 32.8125 
z
" id="LiberationSans-Italic-56"/>
        <path d="M 35.0625 45.796875 
Q 34.234375 46.046875 33.078125 46.234375 
Q 31.9375 46.4375 30.671875 46.4375 
Q 27.546875 46.4375 25.046875 44.625 
Q 22.5625 42.828125 20.671875 40.03125 
Q 18.796875 37.25 17.578125 33.90625 
Q 16.359375 30.5625 15.828125 27.546875 
L 10.453125 0 
L 1.65625 0 
L 9.578125 40.53125 
Q 9.90625 42.234375 10.203125 43.9375 
Q 10.5 45.65625 10.765625 47.265625 
Q 11.03125 48.875 11.28125 50.3125 
Q 11.53125 51.765625 11.671875 52.828125 
L 19.96875 52.828125 
Q 19.828125 51.765625 19.609375 50.296875 
Q 19.390625 48.828125 19.140625 47.3125 
Q 18.890625 45.796875 18.671875 44.40625 
Q 18.453125 43.015625 18.265625 42.046875 
L 18.453125 42.046875 
Q 19.96875 45.0625 21.453125 47.28125 
Q 22.953125 49.515625 24.5625 50.953125 
Q 26.171875 52.390625 28 53.09375 
Q 29.828125 53.8125 32.03125 53.8125 
Q 32.5625 53.8125 33.203125 53.734375 
Q 33.84375 53.65625 34.5 53.5625 
Q 35.15625 53.46875 35.734375 53.34375 
Q 36.328125 53.21875 36.671875 53.125 
z
" id="LiberationSans-Italic-114"/>
       </defs>
       <use xlink:href="#LiberationSans-Italic-73"/>
       <use x="27.783203" xlink:href="#LiberationSans-Italic-108"/>
       <use x="50" xlink:href="#LiberationSans-Italic-49"/>
       <use x="105.615234" xlink:href="#LiberationSans-Italic-56"/>
       <use x="161.230469" xlink:href="#LiberationSans-Italic-114"/>
       <use x="194.53125" xlink:href="#LiberationSans-Italic-49"/>
      </g>
     </g>
    </g>
    <g id="ytick_3">
     <g id="line2d_6">
      <g>
       <use style="fill:#262626;stroke:#262626;stroke-width:0.8;" x="44.32625" xlink:href="#m9260d3987c" y="25.316667"/>
      </g>
     </g>
     <g id="text_7">
      <!-- Cxcr6 -->
      <g style="fill:#262626;" transform="translate(17.43625 28.215417)scale(0.08 -0.08)">
       <defs>
        <path d="M 34.46875 0 
L 24.265625 21.6875 
L 5.71875 0 
L -4 0 
L 20.015625 27.15625 
L 7.125 52.828125 
L 16.359375 52.828125 
L 25.78125 32.28125 
L 42.875 52.828125 
L 52.9375 52.828125 
L 30.03125 27.25 
L 43.75 0 
z
" id="LiberationSans-Italic-120"/>
        <path d="M 26.078125 -0.984375 
Q 21.234375 -0.984375 17.421875 0.78125 
Q 13.625 2.546875 11.015625 5.6875 
Q 8.40625 8.84375 7 13.1875 
Q 5.609375 17.53125 5.609375 22.65625 
Q 5.609375 25.34375 5.875 28.59375 
Q 6.15625 31.84375 6.734375 34.90625 
Q 8.546875 44.09375 11.625 50.703125 
Q 14.703125 57.328125 18.703125 61.578125 
Q 22.703125 65.828125 27.40625 67.828125 
Q 32.125 69.828125 37.15625 69.828125 
Q 40.484375 69.828125 43.40625 69.0625 
Q 46.34375 68.3125 48.75 66.640625 
Q 51.171875 64.984375 52.921875 62.421875 
Q 54.6875 59.859375 55.609375 56.203125 
L 47.515625 54.4375 
Q 46.296875 58.40625 43.5 60.546875 
Q 40.71875 62.703125 36.765625 62.703125 
Q 32.953125 62.703125 29.5625 60.984375 
Q 26.171875 59.28125 23.390625 55.859375 
Q 20.609375 52.4375 18.453125 47.328125 
Q 16.3125 42.234375 14.984375 35.453125 
Q 17.921875 39.84375 22.390625 42.15625 
Q 26.859375 44.484375 32.375 44.484375 
Q 36.421875 44.484375 39.859375 43.1875 
Q 43.3125 41.890625 45.796875 39.46875 
Q 48.296875 37.0625 49.703125 33.640625 
Q 51.125 30.21875 51.125 26.03125 
Q 51.125 20.609375 49.359375 15.71875 
Q 47.609375 10.84375 44.359375 7.125 
Q 41.109375 3.421875 36.46875 1.21875 
Q 31.84375 -0.984375 26.078125 -0.984375 
z
M 14.0625 20.5625 
Q 14.0625 17.578125 14.859375 14.9375 
Q 15.671875 12.3125 17.234375 10.328125 
Q 18.796875 8.34375 21.0625 7.21875 
Q 23.34375 6.109375 26.265625 6.109375 
Q 29.734375 6.109375 32.640625 7.59375 
Q 35.546875 9.078125 37.640625 11.6875 
Q 39.75 14.3125 40.890625 17.84375 
Q 42.046875 21.390625 42.046875 25.484375 
Q 42.046875 31.109375 39.140625 34.40625 
Q 36.234375 37.703125 30.765625 37.703125 
Q 28.125 37.703125 25.171875 36.796875 
Q 22.21875 35.890625 19.75 33.859375 
Q 17.28125 31.84375 15.671875 28.5625 
Q 14.0625 25.296875 14.0625 20.5625 
z
" id="LiberationSans-Italic-54"/>
       </defs>
       <use xlink:href="#LiberationSans-Italic-67"/>
       <use x="72.216797" xlink:href="#LiberationSans-Italic-120"/>
       <use x="122.216797" xlink:href="#LiberationSans-Italic-99"/>
       <use x="172.216797" xlink:href="#LiberationSans-Italic-114"/>
       <use x="205.517578" xlink:href="#LiberationSans-Italic-54"/>
      </g>
     </g>
    </g>
    <g id="ytick_4">
     <g id="line2d_7">
      <g>
       <use style="fill:#262626;stroke:#262626;stroke-width:0.8;" x="44.32625" xlink:href="#m9260d3987c" y="32.563333"/>
      </g>
     </g>
     <g id="text_8">
      <!-- Il24 -->
      <g style="fill:#262626;" transform="translate(25.42875 35.462083)scale(0.08 -0.08)">
       <defs>
        <path d="M -0.59375 0 
L 0.59375 6.203125 
Q 3.265625 10.75 6.578125 14.3125 
Q 9.90625 17.875 13.515625 20.78125 
Q 17.140625 23.6875 20.875 26.078125 
Q 24.609375 28.46875 28.09375 30.6875 
Q 31.59375 32.90625 34.640625 35.109375 
Q 37.703125 37.3125 39.984375 39.796875 
Q 42.28125 42.28125 43.59375 45.234375 
Q 44.921875 48.1875 44.921875 51.90625 
Q 44.921875 54.390625 44.09375 56.359375 
Q 43.265625 58.34375 41.765625 59.734375 
Q 40.28125 61.140625 38.203125 61.859375 
Q 36.140625 62.59375 33.640625 62.59375 
Q 28.328125 62.59375 24.359375 59.6875 
Q 20.40625 56.78125 18.609375 50.984375 
L 10.296875 52.78125 
Q 11.46875 56.5 13.46875 59.625 
Q 15.484375 62.75 18.40625 65.015625 
Q 21.34375 67.28125 25.265625 68.546875 
Q 29.203125 69.828125 34.1875 69.828125 
Q 38.53125 69.828125 42.1875 68.609375 
Q 45.84375 67.390625 48.5 65.109375 
Q 51.171875 62.84375 52.65625 59.6875 
Q 54.15625 56.546875 54.15625 52.640625 
Q 54.15625 48.484375 52.703125 44.96875 
Q 51.265625 41.453125 48.828125 38.453125 
Q 46.390625 35.453125 43.15625 32.8125 
Q 39.9375 30.171875 36.375 27.734375 
Q 32.8125 25.296875 29.09375 22.953125 
Q 25.390625 20.609375 21.96875 18.15625 
Q 18.5625 15.71875 15.671875 13.109375 
Q 12.796875 10.5 10.84375 7.46875 
L 46.34375 7.46875 
L 44.921875 0 
z
" id="LiberationSans-Italic-50"/>
        <path d="M 41.3125 15.578125 
L 38.28125 0 
L 29.5 0 
L 32.515625 15.578125 
L 0.640625 15.578125 
L 1.953125 22.40625 
L 41.9375 68.796875 
L 51.65625 68.796875 
L 42.671875 22.515625 
L 51.859375 22.515625 
L 50.484375 15.578125 
z
M 40.328125 56.5 
L 11.078125 22.515625 
L 33.890625 22.515625 
z
" id="LiberationSans-Italic-52"/>
       </defs>
       <use xlink:href="#LiberationSans-Italic-73"/>
       <use x="27.783203" xlink:href="#LiberationSans-Italic-108"/>
       <use x="50" xlink:href="#LiberationSans-Italic-50"/>
       <use x="105.615234" xlink:href="#LiberationSans-Italic-52"/>
      </g>
     </g>
    </g>
    <g id="ytick_5">
     <g id="line2d_8">
      <g>
       <use style="fill:#262626;stroke:#262626;stroke-width:0.8;" x="44.32625" xlink:href="#m9260d3987c" y="39.81"/>
      </g>
     </g>
     <g id="text_9">
      <!-- Cd27 -->
      <g style="fill:#262626;" transform="translate(19.2025 42.70875)scale(0.08 -0.08)">
       <defs>
        <path d="M 19.578125 -1.03125 
Q 15.671875 -1.03125 12.640625 0.1875 
Q 9.625 1.421875 7.5625 3.65625 
Q 5.515625 5.90625 4.4375 9.109375 
Q 3.375 12.3125 3.375 16.265625 
Q 3.375 18.453125 3.59375 21.484375 
Q 3.8125 24.515625 4.390625 27.59375 
Q 5.71875 34.515625 7.859375 39.46875 
Q 10.015625 44.4375 13.03125 47.609375 
Q 16.0625 50.78125 19.96875 52.265625 
Q 23.875 53.765625 28.71875 53.765625 
Q 34.71875 53.765625 38.5 51.21875 
Q 42.28125 48.6875 43.84375 44.09375 
L 44.09375 44.09375 
Q 44.1875 44.578125 44.375 45.703125 
Q 44.578125 46.828125 44.796875 48.0625 
Q 45.015625 49.3125 45.203125 50.4375 
Q 45.40625 51.5625 45.453125 52 
L 49.46875 72.46875 
L 58.25 72.46875 
L 46.296875 10.890625 
Q 45.90625 8.984375 45.578125 7.21875 
Q 45.265625 5.46875 45.015625 4 
Q 44.78125 2.546875 44.625 1.484375 
Q 44.484375 0.4375 44.4375 0 
L 36.03125 0 
Q 36.03125 0.984375 36.296875 3.125 
Q 36.578125 5.28125 37.0625 7.8125 
L 36.8125 7.8125 
Q 35.0625 5.515625 33.21875 3.859375 
Q 31.390625 2.203125 29.34375 1.09375 
Q 27.296875 0 24.90625 -0.515625 
Q 22.515625 -1.03125 19.578125 -1.03125 
z
M 22.125 5.765625 
Q 25.25 5.765625 28.046875 6.6875 
Q 30.859375 7.625 33.25 9.890625 
Q 35.640625 12.15625 37.46875 16.015625 
Q 39.3125 19.875 40.4375 25.734375 
Q 41.359375 30.515625 41.359375 34.375 
Q 41.359375 37.546875 40.53125 39.9375 
Q 39.703125 42.328125 38.15625 43.96875 
Q 36.625 45.609375 34.453125 46.4375 
Q 32.28125 47.265625 29.640625 47.265625 
Q 26.65625 47.265625 24.1875 46.359375 
Q 21.734375 45.453125 19.75 43.234375 
Q 17.78125 41.015625 16.28125 37.28125 
Q 14.796875 33.546875 13.671875 27.875 
Q 12.546875 21.96875 12.546875 17.828125 
Q 12.546875 11.8125 14.84375 8.78125 
Q 17.140625 5.765625 22.125 5.765625 
z
" id="LiberationSans-Italic-100"/>
        <path d="M 57.328125 61.671875 
Q 52.828125 56.390625 48.75 51.53125 
Q 44.671875 46.6875 41.078125 41.9375 
Q 37.5 37.203125 34.390625 32.421875 
Q 31.296875 27.640625 28.78125 22.53125 
Q 26.265625 17.4375 24.359375 11.859375 
Q 22.46875 6.296875 21.234375 0 
L 12.0625 0 
Q 13.921875 9.328125 17.4375 17.375 
Q 20.953125 25.4375 25.65625 32.8125 
Q 30.375 40.1875 36.109375 47.171875 
Q 41.84375 54.15625 48.140625 61.328125 
L 10.359375 61.328125 
L 11.765625 68.796875 
L 58.6875 68.796875 
z
" id="LiberationSans-Italic-55"/>
       </defs>
       <use xlink:href="#LiberationSans-Italic-67"/>
       <use x="72.216797" xlink:href="#LiberationSans-Italic-100"/>
       <use x="127.832031" xlink:href="#LiberationSans-Italic-50"/>
       <use x="183.447266" xlink:href="#LiberationSans-Italic-55"/>
      </g>
     </g>
    </g>
    <g id="ytick_6">
     <g id="line2d_9">
      <g>
       <use style="fill:#262626;stroke:#262626;stroke-width:0.8;" x="44.32625" xlink:href="#m9260d3987c" y="47.056667"/>
      </g>
     </g>
     <g id="text_10">
      <!-- Ifngr2 -->
      <g style="fill:#262626;" transform="translate(17.87125 49.955417)scale(0.08 -0.08)">
       <defs>
        <path d="M 21.1875 46.4375 
L 12.15625 0 
L 3.375 0 
L 12.40625 46.4375 
L 4.984375 46.4375 
L 6.25 52.828125 
L 13.671875 52.828125 
L 14.796875 58.796875 
Q 15.375 61.671875 16.296875 64.15625 
Q 17.234375 66.65625 18.96875 68.5 
Q 20.703125 70.359375 23.4375 71.40625 
Q 26.171875 72.46875 30.375 72.46875 
Q 31.9375 72.46875 33.5625 72.3125 
Q 35.203125 72.171875 36.421875 71.875 
L 35.15625 65.1875 
Q 34.71875 65.28125 34.15625 65.328125 
Q 33.59375 65.375 32.953125 65.453125 
Q 32.328125 65.53125 31.734375 65.546875 
Q 31.15625 65.578125 30.71875 65.578125 
Q 28.859375 65.578125 27.609375 65.03125 
Q 26.375 64.5 25.5625 63.46875 
Q 24.75 62.453125 24.265625 60.953125 
Q 23.78125 59.46875 23.390625 57.5625 
L 22.46875 52.828125 
L 32.765625 52.828125 
L 31.5 46.4375 
z
" id="LiberationSans-Italic-102"/>
        <path d="M 35.015625 0 
L 41.15625 31.5 
Q 41.546875 33.40625 41.796875 35.375 
Q 42.046875 37.359375 42.046875 38.8125 
Q 42.046875 42.671875 39.984375 44.8125 
Q 37.9375 46.96875 33.296875 46.96875 
Q 30.171875 46.96875 27.40625 45.71875 
Q 24.65625 44.484375 22.40625 42.203125 
Q 20.171875 39.9375 18.578125 36.734375 
Q 17 33.546875 16.21875 29.59375 
L 10.453125 0 
L 1.65625 0 
L 9.765625 41.546875 
Q 10.109375 43.21875 10.421875 45.046875 
Q 10.75 46.875 11.015625 48.5 
Q 11.28125 50.140625 11.453125 51.3125 
Q 11.625 52.484375 11.671875 52.828125 
L 19.96875 52.828125 
Q 19.96875 52.59375 19.8125 51.515625 
Q 19.671875 50.4375 19.453125 49.046875 
Q 19.234375 47.65625 19.015625 46.21875 
Q 18.796875 44.78125 18.609375 43.796875 
L 18.75 43.796875 
Q 20.40625 46.09375 22.15625 47.953125 
Q 23.921875 49.8125 26.046875 51.09375 
Q 28.171875 52.390625 30.734375 53.078125 
Q 33.296875 53.765625 36.578125 53.765625 
Q 43.796875 53.765625 47.4375 50.1875 
Q 51.078125 46.625 51.078125 39.890625 
Q 51.078125 38.140625 50.75 35.9375 
Q 50.4375 33.734375 50.046875 31.890625 
L 43.84375 0 
z
" id="LiberationSans-Italic-110"/>
        <path d="M 19.390625 -20.75 
Q 14.84375 -20.75 11.46875 -19.84375 
Q 8.109375 -18.953125 5.78125 -17.328125 
Q 3.46875 -15.71875 2.125 -13.453125 
Q 0.78125 -11.1875 0.203125 -8.453125 
L 8.15625 -6.390625 
Q 8.984375 -10.109375 11.84375 -12.078125 
Q 14.703125 -14.0625 19.578125 -14.0625 
Q 23.09375 -14.0625 25.78125 -13.15625 
Q 28.46875 -12.25 30.390625 -10.390625 
Q 32.328125 -8.546875 33.609375 -5.640625 
Q 34.90625 -2.734375 35.6875 1.3125 
Q 35.9375 2.59375 36.234375 4.046875 
Q 36.53125 5.515625 36.765625 6.78125 
Q 37.0625 8.296875 37.359375 9.8125 
L 37.25 9.8125 
Q 35.890625 7.859375 34.34375 6 
Q 32.8125 4.15625 30.8125 2.734375 
Q 28.8125 1.3125 26.171875 0.453125 
Q 23.53125 -0.390625 20.015625 -0.390625 
Q 16.15625 -0.390625 13.078125 0.953125 
Q 10.015625 2.296875 7.859375 4.65625 
Q 5.71875 7.03125 4.5625 10.328125 
Q 3.421875 13.625 3.421875 17.53125 
Q 3.421875 19.921875 3.6875 22.578125 
Q 3.953125 25.25 4.546875 28.328125 
Q 6.984375 41.0625 12.8125 47.40625 
Q 18.65625 53.765625 28.71875 53.765625 
Q 31.5 53.765625 33.984375 53.09375 
Q 36.46875 52.4375 38.453125 51.140625 
Q 40.4375 49.859375 41.875 48 
Q 43.3125 46.140625 43.953125 43.796875 
L 44.046875 43.796875 
Q 44.28125 45.015625 44.640625 46.53125 
Q 45.015625 48.046875 45.359375 49.390625 
Q 45.703125 50.734375 46 51.703125 
Q 46.296875 52.6875 46.390625 52.828125 
L 54.734375 52.828125 
Q 54.640625 52.390625 54.390625 51.34375 
Q 54.15625 50.296875 53.8125 48.828125 
Q 53.46875 47.359375 53.09375 45.578125 
Q 52.734375 43.796875 52.34375 41.890625 
L 44.484375 1.515625 
Q 43.453125 -3.71875 41.640625 -7.84375 
Q 39.84375 -11.96875 36.859375 -14.84375 
Q 33.890625 -17.71875 29.609375 -19.234375 
Q 25.34375 -20.75 19.390625 -20.75 
z
M 12.640625 18.21875 
Q 12.640625 12.3125 15.203125 9.203125 
Q 17.78125 6.109375 22.75 6.109375 
Q 25.390625 6.109375 28.09375 7.21875 
Q 30.8125 8.34375 33.21875 10.78125 
Q 35.640625 13.234375 37.5625 17.09375 
Q 39.5 20.953125 40.578125 26.421875 
Q 40.96875 28.46875 41.15625 30.640625 
Q 41.359375 32.8125 41.359375 34.375 
Q 41.359375 37.640625 40.46875 40.0625 
Q 39.59375 42.484375 38 44.09375 
Q 36.421875 45.703125 34.265625 46.484375 
Q 32.125 47.265625 29.640625 47.265625 
Q 26.609375 47.265625 24.140625 46.359375 
Q 21.6875 45.453125 19.734375 43.28125 
Q 17.78125 41.109375 16.3125 37.46875 
Q 14.84375 33.84375 13.765625 28.328125 
Q 13.234375 25.4375 12.9375 22.796875 
Q 12.640625 20.171875 12.640625 18.21875 
z
" id="LiberationSans-Italic-103"/>
       </defs>
       <use xlink:href="#LiberationSans-Italic-73"/>
       <use x="27.783203" xlink:href="#LiberationSans-Italic-102"/>
       <use x="55.566406" xlink:href="#LiberationSans-Italic-110"/>
       <use x="111.181641" xlink:href="#LiberationSans-Italic-103"/>
       <use x="166.796875" xlink:href="#LiberationSans-Italic-114"/>
       <use x="200.097656" xlink:href="#LiberationSans-Italic-50"/>
      </g>
     </g>
    </g>
    <g id="ytick_7">
     <g id="line2d_10">
      <g>
       <use style="fill:#262626;stroke:#262626;stroke-width:0.8;" x="44.32625" xlink:href="#m9260d3987c" y="54.303333"/>
      </g>
     </g>
     <g id="text_11">
      <!-- Ifnar2 -->
      <g style="fill:#262626;" transform="translate(17.87125 57.202083)scale(0.08 -0.08)">
       <defs>
        <path d="M 51.515625 0.296875 
Q 50.09375 -0.046875 48.453125 -0.265625 
Q 46.828125 -0.484375 45.265625 -0.484375 
Q 40.71875 -0.484375 38.640625 1.390625 
Q 36.578125 3.265625 36.578125 6.984375 
Q 36.578125 7.71875 36.671875 8.5625 
Q 36.765625 9.421875 36.8125 10.109375 
L 36.53125 10.109375 
Q 34.8125 7.515625 32.984375 5.46875 
Q 31.15625 3.421875 28.921875 1.96875 
Q 26.703125 0.53125 23.96875 -0.21875 
Q 21.234375 -0.984375 17.625 -0.984375 
Q 13.8125 -0.984375 10.953125 0.234375 
Q 8.109375 1.46875 6.15625 3.484375 
Q 4.203125 5.515625 3.21875 8.15625 
Q 2.25 10.796875 2.25 13.578125 
Q 2.25 17.53125 3.390625 20.40625 
Q 4.546875 23.296875 6.515625 25.34375 
Q 8.5 27.390625 11.15625 28.6875 
Q 13.8125 29.984375 16.8125 30.71875 
Q 19.828125 31.453125 23.046875 31.734375 
Q 26.265625 32.03125 29.34375 32.078125 
L 40.671875 32.234375 
L 41.015625 33.984375 
Q 41.265625 35.203125 41.4375 36.328125 
Q 41.609375 37.453125 41.609375 38.421875 
Q 41.609375 42.875 39.015625 45 
Q 36.421875 47.125 31.84375 47.125 
Q 29.4375 47.125 27.359375 46.75 
Q 25.296875 46.390625 23.65625 45.4375 
Q 22.015625 44.484375 20.765625 42.84375 
Q 19.53125 41.21875 18.75 38.71875 
L 10.0625 40.140625 
Q 10.984375 43.171875 12.59375 45.671875 
Q 14.203125 48.1875 16.84375 50 
Q 19.484375 51.8125 23.265625 52.8125 
Q 27.046875 53.8125 32.328125 53.8125 
Q 36.671875 53.8125 40.03125 52.734375 
Q 43.40625 51.65625 45.703125 49.75 
Q 48 47.859375 49.1875 45.21875 
Q 50.390625 42.578125 50.390625 39.40625 
Q 50.390625 37.890625 50.125 35.765625 
Q 49.859375 33.640625 49.46875 31.734375 
L 45.84375 13.28125 
Q 45.609375 12.203125 45.453125 11.078125 
Q 45.3125 9.96875 45.3125 8.984375 
Q 45.3125 7.171875 46.265625 6.296875 
Q 47.21875 5.421875 49.265625 5.421875 
Q 50 5.421875 50.75 5.515625 
Q 51.515625 5.609375 52.203125 5.765625 
z
M 39.5 26.171875 
L 29.78125 25.984375 
Q 27.828125 25.921875 25.734375 25.78125 
Q 23.640625 25.640625 21.609375 25.171875 
Q 19.578125 24.703125 17.75 23.921875 
Q 15.921875 23.140625 14.546875 21.796875 
Q 13.1875 20.453125 12.375 18.546875 
Q 11.578125 16.65625 11.578125 13.96875 
Q 11.578125 12.40625 12.078125 10.90625 
Q 12.59375 9.421875 13.671875 8.265625 
Q 14.75 7.125 16.328125 6.421875 
Q 17.921875 5.71875 20.0625 5.71875 
Q 24.3125 5.71875 27.484375 7.171875 
Q 30.671875 8.640625 32.90625 10.78125 
Q 35.15625 12.9375 36.453125 15.453125 
Q 37.75 17.96875 38.1875 20.0625 
z
" id="LiberationSans-Italic-97"/>
       </defs>
       <use xlink:href="#LiberationSans-Italic-73"/>
       <use x="27.783203" xlink:href="#LiberationSans-Italic-102"/>
       <use x="55.566406" xlink:href="#LiberationSans-Italic-110"/>
       <use x="111.181641" xlink:href="#LiberationSans-Italic-97"/>
       <use x="166.796875" xlink:href="#LiberationSans-Italic-114"/>
       <use x="200.097656" xlink:href="#LiberationSans-Italic-50"/>
      </g>
     </g>
    </g>
    <g id="ytick_8">
     <g id="line2d_11">
      <g>
       <use style="fill:#262626;stroke:#262626;stroke-width:0.8;" x="44.32625" xlink:href="#m9260d3987c" y="61.55"/>
      </g>
     </g>
     <g id="text_12">
      <!-- Cysltr1 -->
      <g style="fill:#262626;" transform="translate(13.43625 64.44875)scale(0.08 -0.08)">
       <defs>
        <path d="M 24.46875 0 
Q 21.78125 -4.640625 19.28125 -8.4375 
Q 16.796875 -12.25 14.0625 -14.984375 
Q 11.328125 -17.71875 8.125 -19.234375 
Q 4.9375 -20.75 0.78125 -20.75 
Q -0.828125 -20.75 -2.515625 -20.578125 
Q -4.203125 -20.40625 -5.671875 -20.0625 
L -4.15625 -13.53125 
Q -3.328125 -13.671875 -2.265625 -13.796875 
Q -1.21875 -13.921875 -0.390625 -13.921875 
Q 4.25 -13.921875 7.78125 -10.796875 
Q 11.328125 -7.671875 14.75 -1.703125 
L 16.0625 0.59375 
L 5.46875 52.828125 
L 14.40625 52.828125 
L 19.875 23.640625 
Q 20.171875 22.078125 20.5 20.015625 
Q 20.84375 17.96875 21.140625 15.9375 
Q 21.4375 13.921875 21.65625 12.1875 
Q 21.875 10.453125 21.921875 9.578125 
Q 22.40625 10.640625 23.1875 12.171875 
Q 23.96875 13.71875 24.921875 15.453125 
Q 25.875 17.1875 26.875 19.015625 
Q 27.875 20.84375 28.8125 22.5625 
L 45.3125 52.828125 
L 55.03125 52.828125 
z
" id="LiberationSans-Italic-121"/>
        <path d="M 44.28125 15.484375 
Q 44.28125 11.328125 42.625 8.21875 
Q 40.96875 5.125 37.90625 3.078125 
Q 34.859375 1.03125 30.515625 0.015625 
Q 26.171875 -0.984375 20.75 -0.984375 
Q 16.21875 -0.984375 12.796875 -0.1875 
Q 9.375 0.59375 6.90625 2.078125 
Q 4.4375 3.5625 2.796875 5.78125 
Q 1.171875 8.015625 0.25 10.890625 
L 7.421875 13.625 
Q 8.15625 11.671875 9.296875 10.125 
Q 10.453125 8.59375 12.125 7.546875 
Q 13.8125 6.5 16.125 5.953125 
Q 18.453125 5.421875 21.53125 5.421875 
Q 24.65625 5.421875 27.265625 5.9375 
Q 29.890625 6.453125 31.765625 7.5625 
Q 33.640625 8.6875 34.6875 10.4375 
Q 35.75 12.203125 35.75 14.703125 
Q 35.75 16.65625 34.8125 18.046875 
Q 33.890625 19.4375 32.203125 20.484375 
Q 30.515625 21.53125 28.09375 22.4375 
Q 25.6875 23.34375 22.703125 24.265625 
Q 19.53125 25.296875 16.671875 26.515625 
Q 13.8125 27.734375 11.640625 29.4375 
Q 9.46875 31.15625 8.171875 33.46875 
Q 6.890625 35.796875 6.890625 38.921875 
Q 6.890625 42.921875 8.625 45.71875 
Q 10.359375 48.53125 13.3125 50.28125 
Q 16.265625 52.046875 20.1875 52.84375 
Q 24.125 53.65625 28.515625 53.65625 
Q 32.515625 53.65625 35.828125 52.96875 
Q 39.15625 52.296875 41.640625 50.796875 
Q 44.140625 49.3125 45.75 46.9375 
Q 47.359375 44.578125 47.953125 41.21875 
L 39.984375 39.984375 
Q 38.921875 43.84375 35.9375 45.546875 
Q 32.953125 47.265625 27.9375 47.265625 
Q 25.34375 47.265625 23.0625 46.875 
Q 20.796875 46.484375 19.09375 45.609375 
Q 17.390625 44.734375 16.375 43.3125 
Q 15.375 41.890625 15.375 39.890625 
Q 15.375 37.890625 16.296875 36.546875 
Q 17.234375 35.203125 18.921875 34.171875 
Q 20.609375 33.15625 22.96875 32.34375 
Q 25.34375 31.546875 28.265625 30.609375 
Q 31.0625 29.734375 33.90625 28.5625 
Q 36.765625 27.390625 39.0625 25.65625 
Q 41.359375 23.921875 42.8125 21.453125 
Q 44.28125 19 44.28125 15.484375 
z
" id="LiberationSans-Italic-115"/>
        <path d="M 21.875 0.203125 
Q 20.0625 -0.25 17.90625 -0.609375 
Q 15.765625 -0.984375 13.421875 -0.984375 
Q 9.28125 -0.984375 6.90625 1.5 
Q 4.546875 4 4.546875 8.109375 
Q 4.546875 9.671875 4.78125 11.453125 
Q 5.03125 13.234375 5.28125 14.453125 
L 11.421875 46.4375 
L 5.328125 46.4375 
L 6.59375 52.828125 
L 12.796875 52.828125 
L 17.921875 64.65625 
L 23.78125 64.65625 
L 21.484375 52.828125 
L 31.25 52.828125 
L 29.984375 46.4375 
L 20.21875 46.4375 
L 14.109375 14.9375 
Q 13.921875 13.96875 13.71875 12.546875 
Q 13.53125 11.140625 13.53125 10.296875 
Q 13.53125 8.25 14.546875 7.125 
Q 15.578125 6 17.921875 6 
Q 19.1875 6 20.28125 6.171875 
Q 21.390625 6.34375 22.796875 6.6875 
z
" id="LiberationSans-Italic-116"/>
       </defs>
       <use xlink:href="#LiberationSans-Italic-67"/>
       <use x="72.216797" xlink:href="#LiberationSans-Italic-121"/>
       <use x="122.216797" xlink:href="#LiberationSans-Italic-115"/>
       <use x="172.216797" xlink:href="#LiberationSans-Italic-108"/>
       <use x="194.433594" xlink:href="#LiberationSans-Italic-116"/>
       <use x="222.216797" xlink:href="#LiberationSans-Italic-114"/>
       <use x="255.517578" xlink:href="#LiberationSans-Italic-49"/>
      </g>
     </g>
    </g>
    <g id="ytick_9">
     <g id="line2d_12">
      <g>
       <use style="fill:#262626;stroke:#262626;stroke-width:0.8;" x="44.32625" xlink:href="#m9260d3987c" y="68.796667"/>
      </g>
     </g>
     <g id="text_13">
      <!-- Artn -->
      <g style="fill:#262626;" transform="translate(23.655 71.695417)scale(0.08 -0.08)">
       <defs>
        <path d="M 51.8125 0 
L 48.140625 20.125 
L 16.9375 20.125 
L 5.21875 0 
L -4.9375 0 
L 36.46875 68.796875 
L 47.078125 68.796875 
L 61.328125 0 
z
M 42.53125 50.484375 
Q 42.140625 52.484375 41.765625 54.390625 
Q 41.40625 56.296875 41.15625 57.875 
Q 40.921875 59.46875 40.75 60.515625 
Q 40.578125 61.578125 40.53125 61.765625 
Q 40.4375 61.578125 39.875 60.5 
Q 39.3125 59.421875 38.421875 57.828125 
Q 37.546875 56.25 36.46875 54.3125 
Q 35.40625 52.390625 34.234375 50.4375 
L 21.046875 27.390625 
L 46.78125 27.390625 
z
" id="LiberationSans-Italic-65"/>
       </defs>
       <use xlink:href="#LiberationSans-Italic-65"/>
       <use x="66.699219" xlink:href="#LiberationSans-Italic-114"/>
       <use x="100" xlink:href="#LiberationSans-Italic-116"/>
       <use x="127.783203" xlink:href="#LiberationSans-Italic-110"/>
      </g>
     </g>
    </g>
    <g id="ytick_10">
     <g id="line2d_13">
      <g>
       <use style="fill:#262626;stroke:#262626;stroke-width:0.8;" x="44.32625" xlink:href="#m9260d3987c" y="76.043333"/>
      </g>
     </g>
     <g id="text_14">
      <!-- Il3ra -->
      <g style="fill:#262626;" transform="translate(22.765 78.942083)scale(0.08 -0.08)">
       <defs>
        <path d="M 27.640625 38.8125 
Q 29.390625 38.8125 31.421875 39 
Q 33.453125 39.203125 35.421875 39.71875 
Q 37.40625 40.234375 39.203125 41.203125 
Q 41.015625 42.1875 42.375 43.71875 
Q 43.75 45.265625 44.578125 47.484375 
Q 45.40625 49.703125 45.40625 52.78125 
Q 45.40625 54.9375 44.703125 56.734375 
Q 44 58.546875 42.609375 59.84375 
Q 41.21875 61.140625 39.203125 61.859375 
Q 37.203125 62.59375 34.578125 62.59375 
Q 28.765625 62.59375 24.578125 59.609375 
Q 20.40625 56.640625 18.75 51.21875 
L 10.0625 51.90625 
Q 12.890625 60.984375 19.40625 65.40625 
Q 25.921875 69.828125 35.0625 69.828125 
Q 39.59375 69.828125 43.234375 68.671875 
Q 46.875 67.53125 49.4375 65.359375 
Q 52 63.1875 53.359375 60.078125 
Q 54.734375 56.984375 54.734375 53.03125 
Q 54.734375 49.21875 53.484375 46.109375 
Q 52.25 43.015625 49.90625 40.71875 
Q 47.5625 38.421875 44.234375 36.984375 
Q 40.921875 35.546875 36.765625 35.015625 
L 36.71875 34.8125 
Q 43.109375 33.546875 46.671875 29.703125 
Q 50.25 25.875 50.25 19.875 
Q 50.25 15.625 48.703125 11.8125 
Q 47.171875 8.015625 44.109375 5.171875 
Q 41.0625 2.34375 36.453125 0.671875 
Q 31.84375 -0.984375 25.6875 -0.984375 
Q 20.125 -0.984375 16.015625 0.609375 
Q 11.921875 2.203125 9.109375 4.734375 
Q 6.296875 7.28125 4.65625 10.375 
Q 3.03125 13.484375 2.34375 16.5 
L 10.359375 18.84375 
Q 10.9375 16.609375 12.171875 14.375 
Q 13.421875 12.15625 15.40625 10.34375 
Q 17.390625 8.546875 20.125 7.421875 
Q 22.859375 6.296875 26.421875 6.296875 
Q 30.03125 6.296875 32.765625 7.296875 
Q 35.5 8.296875 37.328125 10.078125 
Q 39.15625 11.859375 40.109375 14.328125 
Q 41.0625 16.796875 41.0625 19.734375 
Q 41.0625 22.65625 40.03125 24.796875 
Q 39.015625 26.953125 37.1875 28.359375 
Q 35.359375 29.78125 32.859375 30.484375 
Q 30.375 31.203125 27.4375 31.203125 
L 21.390625 31.203125 
L 22.859375 38.8125 
z
" id="LiberationSans-Italic-51"/>
       </defs>
       <use xlink:href="#LiberationSans-Italic-73"/>
       <use x="27.783203" xlink:href="#LiberationSans-Italic-108"/>
       <use x="50" xlink:href="#LiberationSans-Italic-51"/>
       <use x="105.615234" xlink:href="#LiberationSans-Italic-114"/>
       <use x="138.916016" xlink:href="#LiberationSans-Italic-97"/>
      </g>
     </g>
    </g>
    <g id="ytick_11">
     <g id="line2d_14">
      <g>
       <use style="fill:#262626;stroke:#262626;stroke-width:0.8;" x="44.32625" xlink:href="#m9260d3987c" y="83.29"/>
      </g>
     </g>
     <g id="text_15">
      <!-- Fgf2 -->
      <g style="fill:#262626;" transform="translate(22.32 86.18875)scale(0.08 -0.08)">
       <defs>
        <path d="M 24.265625 61.1875 
L 19.28125 35.59375 
L 58.15625 35.59375 
L 56.640625 27.875 
L 17.78125 27.875 
L 12.40625 0 
L 3.078125 0 
L 16.40625 68.796875 
L 65.765625 68.796875 
L 64.3125 61.1875 
z
" id="LiberationSans-Italic-70"/>
       </defs>
       <use xlink:href="#LiberationSans-Italic-70"/>
       <use x="61.083984" xlink:href="#LiberationSans-Italic-103"/>
       <use x="116.699219" xlink:href="#LiberationSans-Italic-102"/>
       <use x="144.482422" xlink:href="#LiberationSans-Italic-50"/>
      </g>
     </g>
    </g>
    <g id="ytick_12">
     <g id="line2d_15">
      <g>
       <use style="fill:#262626;stroke:#262626;stroke-width:0.8;" x="44.32625" xlink:href="#m9260d3987c" y="90.536667"/>
      </g>
     </g>
     <g id="text_16">
      <!-- Il19 -->
      <g style="fill:#262626;" transform="translate(25.42875 93.435417)scale(0.08 -0.08)">
       <defs>
        <path d="M 43.84375 33.40625 
Q 40.828125 28.8125 36.6875 26.140625 
Q 32.5625 23.484375 27.296875 23.484375 
Q 22.5625 23.484375 18.9375 25.09375 
Q 15.328125 26.703125 12.890625 29.390625 
Q 10.453125 32.078125 9.203125 35.609375 
Q 7.953125 39.15625 7.953125 43.015625 
Q 7.953125 48.53125 9.765625 53.40625 
Q 11.578125 58.296875 14.890625 61.9375 
Q 18.21875 65.578125 22.875 67.703125 
Q 27.546875 69.828125 33.296875 69.828125 
Q 37.9375 69.828125 41.671875 68.3125 
Q 45.40625 66.796875 48.046875 63.84375 
Q 50.6875 60.890625 52.125 56.59375 
Q 53.5625 52.296875 53.5625 46.734375 
Q 53.5625 45.40625 53.46875 43.75 
Q 53.375 42.09375 53.203125 40.3125 
Q 53.03125 38.53125 52.78125 36.671875 
Q 52.546875 34.8125 52.203125 33.15625 
Q 50.390625 23.96875 47.265625 17.46875 
Q 44.140625 10.984375 40.15625 6.875 
Q 36.1875 2.78125 31.546875 0.890625 
Q 26.90625 -0.984375 22.125 -0.984375 
Q 14.265625 -0.984375 9.71875 2.53125 
Q 5.171875 6.0625 3.421875 12.546875 
L 11.140625 14.75 
Q 12.3125 10.59375 15.1875 8.34375 
Q 18.0625 6.109375 22.515625 6.109375 
Q 26.421875 6.109375 29.71875 7.90625 
Q 33.015625 9.71875 35.6875 13.203125 
Q 38.375 16.703125 40.421875 21.78125 
Q 42.484375 26.859375 43.84375 33.40625 
z
M 45.171875 49.65625 
Q 45.171875 52.484375 44.328125 54.875 
Q 43.5 57.28125 41.90625 59.015625 
Q 40.328125 60.75 38.109375 61.71875 
Q 35.890625 62.703125 33.109375 62.703125 
Q 29.59375 62.703125 26.609375 61.359375 
Q 23.640625 60.015625 21.453125 57.5 
Q 19.28125 54.984375 18.078125 51.296875 
Q 16.890625 47.609375 16.890625 42.921875 
Q 16.890625 39.84375 17.71875 37.5 
Q 18.5625 35.15625 20.0625 33.59375 
Q 21.578125 32.03125 23.671875 31.21875 
Q 25.78125 30.421875 28.328125 30.421875 
Q 30.765625 30.421875 33.34375 31.25 
Q 35.9375 32.078125 38.203125 33.78125 
Q 40.484375 35.5 42.21875 38.109375 
Q 43.953125 40.71875 44.625 44.28125 
Q 45.171875 47.265625 45.171875 49.65625 
z
" id="LiberationSans-Italic-57"/>
       </defs>
       <use xlink:href="#LiberationSans-Italic-73"/>
       <use x="27.783203" xlink:href="#LiberationSans-Italic-108"/>
       <use x="50" xlink:href="#LiberationSans-Italic-49"/>
       <use x="105.615234" xlink:href="#LiberationSans-Italic-57"/>
      </g>
     </g>
    </g>
    <g id="ytick_13">
     <g id="line2d_16">
      <g>
       <use style="fill:#262626;stroke:#262626;stroke-width:0.8;" x="44.32625" xlink:href="#m9260d3987c" y="97.783333"/>
      </g>
     </g>
     <g id="text_17">
      <!-- Tgfb3 -->
      <g style="fill:#262626;" transform="translate(17.87125 100.682083)scale(0.08 -0.08)">
       <defs>
        <path d="M 41.890625 61.1875 
L 29.984375 0 
L 20.703125 0 
L 32.625 61.1875 
L 8.984375 61.1875 
L 10.453125 68.796875 
L 67 68.796875 
L 65.53125 61.1875 
z
" id="LiberationSans-Italic-84"/>
        <path d="M 36.328125 53.8125 
Q 40.234375 53.8125 43.265625 52.59375 
Q 46.296875 51.375 48.34375 49.125 
Q 50.390625 46.875 51.46875 43.671875 
Q 52.546875 40.484375 52.546875 36.53125 
Q 52.546875 34.078125 52.3125 31.171875 
Q 52.09375 28.265625 51.515625 25.203125 
Q 50.203125 18.265625 48.046875 13.296875 
Q 45.90625 8.34375 42.875 5.171875 
Q 39.84375 2 35.9375 0.5 
Q 32.03125 -0.984375 27.203125 -0.984375 
Q 21.1875 -0.984375 17.421875 1.5625 
Q 13.671875 4.109375 12.109375 8.6875 
L 11.96875 8.6875 
Q 11.71875 7.421875 11.375 5.984375 
Q 11.03125 4.546875 10.71875 3.265625 
Q 10.40625 2 10.1875 1.09375 
Q 9.96875 0.203125 9.859375 0 
L 1.421875 0 
Q 1.5625 0.4375 1.796875 1.484375 
Q 2.046875 2.546875 2.359375 4 
Q 2.6875 5.46875 3.078125 7.21875 
Q 3.46875 8.984375 3.8125 10.890625 
L 15.765625 72.46875 
L 24.5625 72.46875 
L 20.515625 51.8125 
Q 20.265625 50.390625 19.9375 49.125 
Q 19.625 47.859375 19.390625 46.921875 
Q 19.09375 45.84375 18.84375 44.96875 
L 19.046875 44.96875 
Q 20.796875 47.265625 22.625 48.921875 
Q 24.46875 50.59375 26.53125 51.6875 
Q 28.609375 52.78125 31 53.296875 
Q 33.40625 53.8125 36.328125 53.8125 
z
M 33.796875 47.015625 
Q 30.671875 47.015625 27.859375 46.09375 
Q 25.046875 45.171875 22.65625 42.890625 
Q 20.265625 40.625 18.4375 36.765625 
Q 16.609375 32.90625 15.484375 27.046875 
Q 14.546875 22.265625 14.546875 18.40625 
Q 14.546875 15.28125 15.375 12.859375 
Q 16.21875 10.453125 17.75 8.8125 
Q 19.28125 7.171875 21.453125 6.34375 
Q 23.640625 5.515625 26.265625 5.515625 
Q 29.296875 5.515625 31.734375 6.421875 
Q 34.1875 7.328125 36.15625 9.546875 
Q 38.140625 11.765625 39.640625 15.5 
Q 41.15625 19.234375 42.234375 24.90625 
Q 43.359375 30.8125 43.359375 34.96875 
Q 43.359375 40.96875 41.0625 43.984375 
Q 38.765625 47.015625 33.796875 47.015625 
z
" id="LiberationSans-Italic-98"/>
       </defs>
       <use xlink:href="#LiberationSans-Italic-84"/>
       <use x="61.083984" xlink:href="#LiberationSans-Italic-103"/>
       <use x="116.699219" xlink:href="#LiberationSans-Italic-102"/>
       <use x="144.482422" xlink:href="#LiberationSans-Italic-98"/>
       <use x="200.097656" xlink:href="#LiberationSans-Italic-51"/>
      </g>
     </g>
    </g>
    <g id="ytick_14">
     <g id="line2d_17">
      <g>
       <use style="fill:#262626;stroke:#262626;stroke-width:0.8;" x="44.32625" xlink:href="#m9260d3987c" y="105.03"/>
      </g>
     </g>
     <g id="text_18">
      <!-- Tnfrsf8 -->
      <g style="fill:#262626;" transform="translate(13.43375 107.92875)scale(0.08 -0.08)">
       <use xlink:href="#LiberationSans-Italic-84"/>
       <use x="61.083984" xlink:href="#LiberationSans-Italic-110"/>
       <use x="116.699219" xlink:href="#LiberationSans-Italic-102"/>
       <use x="144.482422" xlink:href="#LiberationSans-Italic-114"/>
       <use x="177.783203" xlink:href="#LiberationSans-Italic-115"/>
       <use x="227.783203" xlink:href="#LiberationSans-Italic-102"/>
       <use x="255.566406" xlink:href="#LiberationSans-Italic-56"/>
      </g>
     </g>
    </g>
    <g id="ytick_15">
     <g id="line2d_18">
      <g>
       <use style="fill:#262626;stroke:#262626;stroke-width:0.8;" x="44.32625" xlink:href="#m9260d3987c" y="112.276667"/>
      </g>
     </g>
     <g id="text_19">
      <!-- Tnfsf13b -->
      <g style="fill:#262626;" transform="translate(7.2 115.175417)scale(0.08 -0.08)">
       <use xlink:href="#LiberationSans-Italic-84"/>
       <use x="61.083984" xlink:href="#LiberationSans-Italic-110"/>
       <use x="116.699219" xlink:href="#LiberationSans-Italic-102"/>
       <use x="144.482422" xlink:href="#LiberationSans-Italic-115"/>
       <use x="194.482422" xlink:href="#LiberationSans-Italic-102"/>
       <use x="222.265625" xlink:href="#LiberationSans-Italic-49"/>
       <use x="277.880859" xlink:href="#LiberationSans-Italic-51"/>
       <use x="333.496094" xlink:href="#LiberationSans-Italic-98"/>
      </g>
     </g>
    </g>
    <g id="ytick_16">
     <g id="line2d_19">
      <g>
       <use style="fill:#262626;stroke:#262626;stroke-width:0.8;" x="44.32625" xlink:href="#m9260d3987c" y="119.523333"/>
      </g>
     </g>
     <g id="text_20">
      <!-- Traf3 -->
      <g style="fill:#262626;" transform="translate(20.24625 122.422083)scale(0.08 -0.08)">
       <use xlink:href="#LiberationSans-Italic-84"/>
       <use x="53.708984" xlink:href="#LiberationSans-Italic-114"/>
       <use x="87.009766" xlink:href="#LiberationSans-Italic-97"/>
       <use x="142.625" xlink:href="#LiberationSans-Italic-102"/>
       <use x="170.408203" xlink:href="#LiberationSans-Italic-51"/>
      </g>
     </g>
    </g>
    <g id="ytick_17">
     <g id="line2d_20">
      <g>
       <use style="fill:#262626;stroke:#262626;stroke-width:0.8;" x="44.32625" xlink:href="#m9260d3987c" y="126.77"/>
      </g>
     </g>
     <g id="text_21">
      <!-- Socs2 -->
      <g style="fill:#262626;" transform="translate(16.0925 129.66875)scale(0.08 -0.08)">
       <defs>
        <path d="M 30.078125 -0.984375 
Q 23.734375 -0.984375 18.96875 0.15625 
Q 14.203125 1.3125 10.875 3.53125 
Q 7.5625 5.765625 5.578125 9 
Q 3.609375 12.25 2.828125 16.5 
L 11.46875 18.3125 
Q 12.109375 15.28125 13.46875 13.03125 
Q 14.84375 10.796875 17.140625 9.296875 
Q 19.4375 7.8125 22.796875 7.078125 
Q 26.171875 6.34375 30.765625 6.34375 
Q 35.546875 6.34375 39.359375 7 
Q 43.171875 7.671875 45.828125 9.203125 
Q 48.484375 10.75 49.890625 13.203125 
Q 51.3125 15.671875 51.3125 19.34375 
Q 51.3125 21.828125 50.484375 23.578125 
Q 49.65625 25.34375 47.609375 26.734375 
Q 45.5625 28.125 42.0625 29.359375 
Q 38.578125 30.609375 33.296875 32.078125 
Q 29 33.25 25.21875 34.6875 
Q 21.4375 36.140625 18.59375 38.25 
Q 15.765625 40.375 14.109375 43.40625 
Q 12.453125 46.4375 12.453125 50.828125 
Q 12.453125 55.953125 14.765625 59.546875 
Q 17.09375 63.140625 20.96875 65.421875 
Q 24.859375 67.71875 29.859375 68.765625 
Q 34.859375 69.828125 40.234375 69.828125 
Q 46.140625 69.828125 50.5625 68.75 
Q 54.984375 67.671875 58.078125 65.734375 
Q 61.1875 63.8125 63.03125 61.125 
Q 64.890625 58.453125 65.625 55.28125 
L 57.171875 52.78125 
Q 56.453125 55.125 55.125 56.984375 
Q 53.8125 58.84375 51.75 60.125 
Q 49.703125 61.421875 46.84375 62.109375 
Q 44 62.796875 40.1875 62.796875 
Q 35.109375 62.796875 31.609375 61.9375 
Q 28.125 61.078125 25.953125 59.546875 
Q 23.78125 58.015625 22.796875 55.890625 
Q 21.828125 53.765625 21.828125 51.265625 
Q 21.828125 48.640625 22.828125 46.90625 
Q 23.828125 45.171875 25.875 43.9375 
Q 27.9375 42.71875 31.078125 41.71875 
Q 34.234375 40.71875 38.53125 39.546875 
Q 42.78125 38.375 46.796875 36.953125 
Q 50.828125 35.546875 53.953125 33.375 
Q 57.078125 31.203125 58.953125 27.96875 
Q 60.84375 24.75 60.84375 19.921875 
Q 60.84375 9.859375 53.265625 4.4375 
Q 45.703125 -0.984375 30.078125 -0.984375 
z
" id="LiberationSans-Italic-83"/>
        <path d="M 52.4375 33.34375 
Q 52.4375 30.8125 52.140625 28.25 
Q 51.859375 25.6875 51.171875 22.796875 
Q 49.703125 16.359375 47.09375 11.8125 
Q 44.484375 7.28125 40.96875 4.4375 
Q 37.453125 1.609375 33.15625 0.3125 
Q 28.859375 -0.984375 23.96875 -0.984375 
Q 19.28125 -0.984375 15.46875 0.453125 
Q 11.671875 1.90625 8.953125 4.65625 
Q 6.25 7.421875 4.75 11.390625 
Q 3.265625 15.375 3.265625 20.453125 
Q 3.328125 22.75 3.546875 25.1875 
Q 3.765625 27.640625 4.34375 30.28125 
Q 5.765625 36.421875 8.25 40.84375 
Q 10.75 45.265625 14.15625 48.140625 
Q 17.578125 51.03125 21.890625 52.390625 
Q 26.21875 53.765625 31.34375 53.765625 
Q 36.53125 53.765625 40.453125 52.390625 
Q 44.390625 51.03125 47.046875 48.390625 
Q 49.703125 45.75 51.0625 41.96875 
Q 52.4375 38.1875 52.4375 33.34375 
z
M 43.359375 33.34375 
Q 43.359375 37.109375 42.53125 39.75 
Q 41.703125 42.390625 40.109375 44.0625 
Q 38.53125 45.75 36.28125 46.53125 
Q 34.03125 47.3125 31.25 47.3125 
Q 28.65625 47.3125 26.046875 46.703125 
Q 23.4375 46.09375 21.0625 44.234375 
Q 18.703125 42.390625 16.75 38.96875 
Q 14.796875 35.546875 13.484375 29.890625 
Q 12.84375 27.203125 12.578125 24.78125 
Q 12.3125 22.359375 12.3125 20.3125 
Q 12.3125 16.3125 13.234375 13.46875 
Q 14.15625 10.640625 15.796875 8.875 
Q 17.4375 7.125 19.65625 6.3125 
Q 21.875 5.515625 24.515625 5.515625 
Q 27.15625 5.515625 29.71875 6.09375 
Q 32.28125 6.6875 34.5625 8.5625 
Q 36.859375 10.453125 38.78125 13.921875 
Q 40.71875 17.390625 42.046875 23.09375 
Q 42.71875 26.03125 42.984375 28.46875 
Q 43.265625 30.90625 43.359375 33.34375 
z
" id="LiberationSans-Italic-111"/>
       </defs>
       <use xlink:href="#LiberationSans-Italic-83"/>
       <use x="66.699219" xlink:href="#LiberationSans-Italic-111"/>
       <use x="122.314453" xlink:href="#LiberationSans-Italic-99"/>
       <use x="172.314453" xlink:href="#LiberationSans-Italic-115"/>
       <use x="222.314453" xlink:href="#LiberationSans-Italic-50"/>
      </g>
     </g>
    </g>
    <g id="ytick_18">
     <g id="line2d_21">
      <g>
       <use style="fill:#262626;stroke:#262626;stroke-width:0.8;" x="44.32625" xlink:href="#m9260d3987c" y="134.016667"/>
      </g>
     </g>
     <g id="text_22">
      <!-- Il7r -->
      <g style="fill:#262626;" transform="translate(27.21375 136.915417)scale(0.08 -0.08)">
       <use xlink:href="#LiberationSans-Italic-73"/>
       <use x="27.783203" xlink:href="#LiberationSans-Italic-108"/>
       <use x="50" xlink:href="#LiberationSans-Italic-55"/>
       <use x="105.615234" xlink:href="#LiberationSans-Italic-114"/>
      </g>
     </g>
    </g>
    <g id="ytick_19">
     <g id="line2d_22">
      <g>
       <use style="fill:#262626;stroke:#262626;stroke-width:0.8;" x="44.32625" xlink:href="#m9260d3987c" y="141.263333"/>
      </g>
     </g>
     <g id="text_23">
      <!-- Cd200r1 -->
      <g style="fill:#262626;" transform="translate(7.64125 144.162083)scale(0.08 -0.08)">
       <defs>
        <path d="M 35.75 69.828125 
Q 39.703125 69.828125 43.1875 68.484375 
Q 46.6875 67.140625 49.25 64.359375 
Q 51.8125 61.578125 53.296875 57.28125 
Q 54.78125 52.984375 54.78125 47.078125 
Q 54.78125 44 54.515625 40.265625 
Q 54.25 36.53125 53.421875 32.46875 
Q 51.46875 22.5625 48.234375 16.09375 
Q 45.015625 9.625 40.984375 5.828125 
Q 36.96875 2.046875 32.390625 0.53125 
Q 27.828125 -0.984375 23.25 -0.984375 
Q 19.1875 -0.984375 15.71875 0.484375 
Q 12.25 1.953125 9.734375 4.875 
Q 7.234375 7.8125 5.78125 12.25 
Q 4.34375 16.703125 4.34375 22.703125 
Q 4.34375 24.3125 4.390625 25.84375 
Q 4.4375 27.390625 4.578125 29 
Q 4.734375 30.609375 4.96875 32.421875 
Q 5.21875 34.234375 5.609375 36.375 
Q 6.9375 43.3125 8.890625 48.453125 
Q 10.84375 53.609375 13.1875 57.34375 
Q 15.53125 61.078125 18.265625 63.5 
Q 21 65.921875 23.875 67.3125 
Q 26.765625 68.703125 29.78125 69.265625 
Q 32.8125 69.828125 35.75 69.828125 
z
M 23.96875 6.203125 
Q 27.6875 6.203125 30.8125 7.515625 
Q 33.9375 8.84375 36.546875 11.984375 
Q 39.15625 15.140625 41.203125 20.359375 
Q 43.265625 25.59375 44.78125 33.453125 
Q 45.609375 37.59375 45.921875 41.109375 
Q 46.234375 44.625 46.234375 47.515625 
Q 46.234375 55.078125 43.328125 58.890625 
Q 40.4375 62.703125 35.15625 62.703125 
Q 31.453125 62.703125 28.328125 61.375 
Q 25.203125 60.0625 22.578125 56.90625 
Q 19.96875 53.765625 17.921875 48.53125 
Q 15.875 43.3125 14.359375 35.453125 
Q 13.53125 31.296875 13.203125 27.78125 
Q 12.890625 24.265625 12.890625 21.390625 
Q 12.890625 13.8125 15.796875 10 
Q 18.703125 6.203125 23.96875 6.203125 
z
" id="LiberationSans-Italic-48"/>
       </defs>
       <use xlink:href="#LiberationSans-Italic-67"/>
       <use x="72.216797" xlink:href="#LiberationSans-Italic-100"/>
       <use x="127.832031" xlink:href="#LiberationSans-Italic-50"/>
       <use x="183.447266" xlink:href="#LiberationSans-Italic-48"/>
       <use x="239.0625" xlink:href="#LiberationSans-Italic-48"/>
       <use x="294.677734" xlink:href="#LiberationSans-Italic-114"/>
       <use x="327.978516" xlink:href="#LiberationSans-Italic-49"/>
      </g>
     </g>
    </g>
    <g id="ytick_20">
     <g id="line2d_23">
      <g>
       <use style="fill:#262626;stroke:#262626;stroke-width:0.8;" x="44.32625" xlink:href="#m9260d3987c" y="148.51"/>
      </g>
     </g>
     <g id="text_24">
      <!-- Il28ra -->
      <g style="fill:#262626;" transform="translate(18.31625 151.40875)scale(0.08 -0.08)">
       <use xlink:href="#LiberationSans-Italic-73"/>
       <use x="27.783203" xlink:href="#LiberationSans-Italic-108"/>
       <use x="50" xlink:href="#LiberationSans-Italic-50"/>
       <use x="105.615234" xlink:href="#LiberationSans-Italic-56"/>
       <use x="161.230469" xlink:href="#LiberationSans-Italic-114"/>
       <use x="194.53125" xlink:href="#LiberationSans-Italic-97"/>
      </g>
     </g>
    </g>
    <g id="ytick_21">
     <g id="line2d_24">
      <g>
       <use style="fill:#262626;stroke:#262626;stroke-width:0.8;" x="44.32625" xlink:href="#m9260d3987c" y="155.756667"/>
      </g>
     </g>
     <g id="text_25">
      <!-- Socs3 -->
      <g style="fill:#262626;" transform="translate(16.0925 158.655417)scale(0.08 -0.08)">
       <use xlink:href="#LiberationSans-Italic-83"/>
       <use x="66.699219" xlink:href="#LiberationSans-Italic-111"/>
       <use x="122.314453" xlink:href="#LiberationSans-Italic-99"/>
       <use x="172.314453" xlink:href="#LiberationSans-Italic-115"/>
       <use x="222.314453" xlink:href="#LiberationSans-Italic-51"/>
      </g>
     </g>
    </g>
    <g id="ytick_22">
     <g id="line2d_25">
      <g>
       <use style="fill:#262626;stroke:#262626;stroke-width:0.8;" x="44.32625" xlink:href="#m9260d3987c" y="163.003333"/>
      </g>
     </g>
     <g id="text_26">
      <!-- Tnfrsf1a -->
      <g style="fill:#262626;" transform="translate(8.985 165.902083)scale(0.08 -0.08)">
       <use xlink:href="#LiberationSans-Italic-84"/>
       <use x="61.083984" xlink:href="#LiberationSans-Italic-110"/>
       <use x="116.699219" xlink:href="#LiberationSans-Italic-102"/>
       <use x="144.482422" xlink:href="#LiberationSans-Italic-114"/>
       <use x="177.783203" xlink:href="#LiberationSans-Italic-115"/>
       <use x="227.783203" xlink:href="#LiberationSans-Italic-102"/>
       <use x="255.566406" xlink:href="#LiberationSans-Italic-49"/>
       <use x="311.181641" xlink:href="#LiberationSans-Italic-97"/>
      </g>
     </g>
    </g>
    <g id="ytick_23">
     <g id="line2d_26">
      <g>
       <use style="fill:#262626;stroke:#262626;stroke-width:0.8;" x="44.32625" xlink:href="#m9260d3987c" y="170.25"/>
      </g>
     </g>
     <g id="text_27">
      <!-- Pvr -->
      <g style="fill:#262626;" transform="translate(26.32625 173.14875)scale(0.08 -0.08)">
       <defs>
        <path d="M 41.609375 68.796875 
Q 47.265625 68.796875 51.78125 67.46875 
Q 56.296875 66.15625 59.46875 63.71875 
Q 62.640625 61.28125 64.34375 57.734375 
Q 66.0625 54.203125 66.0625 49.8125 
Q 66.0625 44.4375 64.125 40.15625 
Q 62.203125 35.890625 58.609375 32.9375 
Q 55.03125 29.984375 49.875 28.390625 
Q 44.734375 26.8125 38.28125 26.8125 
L 17.578125 26.8125 
L 12.40625 0 
L 3.078125 0 
L 16.40625 68.796875 
z
M 19.046875 34.1875 
L 37.9375 34.1875 
Q 47.3125 34.1875 51.953125 37.984375 
Q 56.59375 41.796875 56.59375 49.359375 
Q 56.59375 52.546875 55.484375 54.78125 
Q 54.390625 57.03125 52.390625 58.5 
Q 50.390625 59.96875 47.578125 60.640625 
Q 44.78125 61.328125 41.359375 61.328125 
L 24.3125 61.328125 
z
" id="LiberationSans-Italic-80"/>
        <path d="M 24.75 0 
L 14.359375 0 
L 5.46875 52.828125 
L 14.59375 52.828125 
L 19.53125 18.453125 
Q 19.671875 17.390625 19.84375 15.84375 
Q 20.015625 14.3125 20.15625 12.640625 
Q 20.3125 10.984375 20.4375 9.4375 
Q 20.5625 7.90625 20.65625 6.890625 
Q 21.1875 7.90625 21.921875 9.4375 
Q 22.65625 10.984375 23.453125 12.59375 
Q 24.265625 14.203125 25.0625 15.734375 
Q 25.875 17.28125 26.46875 18.359375 
L 45.21875 52.828125 
L 54.78125 52.828125 
z
" id="LiberationSans-Italic-118"/>
       </defs>
       <use xlink:href="#LiberationSans-Italic-80"/>
       <use x="66.699219" xlink:href="#LiberationSans-Italic-118"/>
       <use x="116.699219" xlink:href="#LiberationSans-Italic-114"/>
      </g>
     </g>
    </g>
    <g id="ytick_24">
     <g id="line2d_27">
      <g>
       <use style="fill:#262626;stroke:#262626;stroke-width:0.8;" x="44.32625" xlink:href="#m9260d3987c" y="177.496667"/>
      </g>
     </g>
     <g id="text_28">
      <!-- Lilrb4 -->
      <g style="fill:#262626;" transform="translate(18.76125 180.395417)scale(0.08 -0.08)">
       <defs>
        <path d="M 3.078125 0 
L 16.40625 68.796875 
L 25.734375 68.796875 
L 13.875 7.625 
L 48.640625 7.625 
L 47.171875 0 
z
" id="LiberationSans-Italic-76"/>
        <path d="M 14.015625 64.0625 
L 15.671875 72.46875 
L 24.46875 72.46875 
L 22.796875 64.0625 
z
M 1.609375 0 
L 11.859375 52.828125 
L 20.65625 52.828125 
L 10.359375 0 
z
" id="LiberationSans-Italic-105"/>
       </defs>
       <use xlink:href="#LiberationSans-Italic-76"/>
       <use x="55.615234" xlink:href="#LiberationSans-Italic-105"/>
       <use x="77.832031" xlink:href="#LiberationSans-Italic-108"/>
       <use x="100.048828" xlink:href="#LiberationSans-Italic-114"/>
       <use x="133.349609" xlink:href="#LiberationSans-Italic-98"/>
       <use x="188.964844" xlink:href="#LiberationSans-Italic-52"/>
      </g>
     </g>
    </g>
    <g id="ytick_25">
     <g id="line2d_28">
      <g>
       <use style="fill:#262626;stroke:#262626;stroke-width:0.8;" x="44.32625" xlink:href="#m9260d3987c" y="184.743333"/>
      </g>
     </g>
     <g id="text_29">
      <!-- Tnfsf9 -->
      <g style="fill:#262626;" transform="translate(16.0975 187.642083)scale(0.08 -0.08)">
       <use xlink:href="#LiberationSans-Italic-84"/>
       <use x="61.083984" xlink:href="#LiberationSans-Italic-110"/>
       <use x="116.699219" xlink:href="#LiberationSans-Italic-102"/>
       <use x="144.482422" xlink:href="#LiberationSans-Italic-115"/>
       <use x="194.482422" xlink:href="#LiberationSans-Italic-102"/>
       <use x="222.265625" xlink:href="#LiberationSans-Italic-57"/>
      </g>
     </g>
    </g>
    <g id="ytick_26">
     <g id="line2d_29">
      <g>
       <use style="fill:#262626;stroke:#262626;stroke-width:0.8;" x="44.32625" xlink:href="#m9260d3987c" y="191.99"/>
      </g>
     </g>
     <g id="text_30">
      <!-- Il2rb -->
      <g style="fill:#262626;" transform="translate(22.765 194.88875)scale(0.08 -0.08)">
       <use xlink:href="#LiberationSans-Italic-73"/>
       <use x="27.783203" xlink:href="#LiberationSans-Italic-108"/>
       <use x="50" xlink:href="#LiberationSans-Italic-50"/>
       <use x="105.615234" xlink:href="#LiberationSans-Italic-114"/>
       <use x="138.916016" xlink:href="#LiberationSans-Italic-98"/>
      </g>
     </g>
    </g>
    <g id="ytick_27">
     <g id="line2d_30">
      <g>
       <use style="fill:#262626;stroke:#262626;stroke-width:0.8;" x="44.32625" xlink:href="#m9260d3987c" y="199.236667"/>
      </g>
     </g>
     <g id="text_31">
      <!-- Il2ra -->
      <g style="fill:#262626;" transform="translate(22.765 202.135417)scale(0.08 -0.08)">
       <use xlink:href="#LiberationSans-Italic-73"/>
       <use x="27.783203" xlink:href="#LiberationSans-Italic-108"/>
       <use x="50" xlink:href="#LiberationSans-Italic-50"/>
       <use x="105.615234" xlink:href="#LiberationSans-Italic-114"/>
       <use x="138.916016" xlink:href="#LiberationSans-Italic-97"/>
      </g>
     </g>
    </g>
    <g id="ytick_28">
     <g id="line2d_31">
      <g>
       <use style="fill:#262626;stroke:#262626;stroke-width:0.8;" x="44.32625" xlink:href="#m9260d3987c" y="206.483333"/>
      </g>
     </g>
     <g id="text_32">
      <!-- Il15ra -->
      <g style="fill:#262626;" transform="translate(18.31625 209.382083)scale(0.08 -0.08)">
       <use xlink:href="#LiberationSans-Italic-73"/>
       <use x="27.783203" xlink:href="#LiberationSans-Italic-108"/>
       <use x="50" xlink:href="#LiberationSans-Italic-49"/>
       <use x="105.615234" xlink:href="#LiberationSans-Italic-53"/>
       <use x="161.230469" xlink:href="#LiberationSans-Italic-114"/>
       <use x="194.53125" xlink:href="#LiberationSans-Italic-97"/>
      </g>
     </g>
    </g>
    <g id="ytick_29">
     <g id="line2d_32">
      <g>
       <use style="fill:#262626;stroke:#262626;stroke-width:0.8;" x="44.32625" xlink:href="#m9260d3987c" y="213.73"/>
      </g>
     </g>
     <g id="text_33">
      <!-- Il15 -->
      <g style="fill:#262626;" transform="translate(25.42875 216.62875)scale(0.08 -0.08)">
       <use xlink:href="#LiberationSans-Italic-73"/>
       <use x="27.783203" xlink:href="#LiberationSans-Italic-108"/>
       <use x="50" xlink:href="#LiberationSans-Italic-49"/>
       <use x="105.615234" xlink:href="#LiberationSans-Italic-53"/>
      </g>
     </g>
    </g>
    <g id="ytick_30">
     <g id="line2d_33">
      <g>
       <use style="fill:#262626;stroke:#262626;stroke-width:0.8;" x="44.32625" xlink:href="#m9260d3987c" y="220.976667"/>
      </g>
     </g>
     <g id="text_34">
      <!-- Ccl4 -->
      <g style="fill:#262626;" transform="translate(22.3225 223.875417)scale(0.08 -0.08)">
       <use xlink:href="#LiberationSans-Italic-67"/>
       <use x="72.216797" xlink:href="#LiberationSans-Italic-99"/>
       <use x="122.216797" xlink:href="#LiberationSans-Italic-108"/>
       <use x="144.433594" xlink:href="#LiberationSans-Italic-52"/>
      </g>
     </g>
    </g>
   </g>
   <g id="patch_3">
    <path clip-path="url(#pc85516a935)" d="M 44.32625 7.924667 
L 119.783068 7.924667 
L 119.783068 13.722 
L 44.32625 13.722 
z
" style="fill:#808080;"/>
   </g>
   <g id="patch_4">
    <path clip-path="url(#pc85516a935)" d="M 44.32625 15.171333 
L 103.014886 15.171333 
L 103.014886 20.968667 
L 44.32625 20.968667 
z
" style="fill:#808080;"/>
   </g>
   <g id="patch_5">
    <path clip-path="url(#pc85516a935)" d="M 44.32625 22.418 
L 94.630795 22.418 
L 94.630795 28.215333 
L 44.32625 28.215333 
z
" style="fill:#808080;"/>
   </g>
   <g id="patch_6">
    <path clip-path="url(#pc85516a935)" d="M 44.32625 29.664667 
L 94.630795 29.664667 
L 94.630795 35.462 
L 44.32625 35.462 
z
" style="fill:#808080;"/>
   </g>
   <g id="patch_7">
    <path clip-path="url(#pc85516a935)" d="M 44.32625 36.911333 
L 94.630795 36.911333 
L 94.630795 42.708667 
L 44.32625 42.708667 
z
" style="fill:#808080;"/>
   </g>
   <g id="patch_8">
    <path clip-path="url(#pc85516a935)" d="M 44.32625 44.158 
L 94.630795 44.158 
L 94.630795 49.955333 
L 44.32625 49.955333 
z
" style="fill:#808080;"/>
   </g>
   <g id="patch_9">
    <path clip-path="url(#pc85516a935)" d="M 44.32625 51.404667 
L 94.630795 51.404667 
L 94.630795 57.202 
L 44.32625 57.202 
z
" style="fill:#808080;"/>
   </g>
   <g id="patch_10">
    <path clip-path="url(#pc85516a935)" d="M 44.32625 58.651333 
L 94.630795 58.651333 
L 94.630795 64.448667 
L 44.32625 64.448667 
z
" style="fill:#808080;"/>
   </g>
   <g id="patch_11">
    <path clip-path="url(#pc85516a935)" d="M 44.32625 65.898 
L 86.246705 65.898 
L 86.246705 71.695333 
L 44.32625 71.695333 
z
" style="fill:#808080;"/>
   </g>
   <g id="patch_12">
    <path clip-path="url(#pc85516a935)" d="M 44.32625 73.144667 
L 86.246705 73.144667 
L 86.246705 78.942 
L 44.32625 78.942 
z
" style="fill:#808080;"/>
   </g>
   <g id="patch_13">
    <path clip-path="url(#pc85516a935)" d="M 44.32625 80.391333 
L 86.246705 80.391333 
L 86.246705 86.188667 
L 44.32625 86.188667 
z
" style="fill:#808080;"/>
   </g>
   <g id="patch_14">
    <path clip-path="url(#pc85516a935)" d="M 44.32625 87.638 
L 86.246705 87.638 
L 86.246705 93.435333 
L 44.32625 93.435333 
z
" style="fill:#808080;"/>
   </g>
   <g id="patch_15">
    <path clip-path="url(#pc85516a935)" d="M 44.32625 94.884667 
L 86.246705 94.884667 
L 86.246705 100.682 
L 44.32625 100.682 
z
" style="fill:#808080;"/>
   </g>
   <g id="patch_16">
    <path clip-path="url(#pc85516a935)" d="M 44.32625 102.131333 
L 86.246705 102.131333 
L 86.246705 107.928667 
L 44.32625 107.928667 
z
" style="fill:#808080;"/>
   </g>
   <g id="patch_17">
    <path clip-path="url(#pc85516a935)" d="M 44.32625 109.378 
L 86.246705 109.378 
L 86.246705 115.175333 
L 44.32625 115.175333 
z
" style="fill:#808080;"/>
   </g>
   <g id="patch_18">
    <path clip-path="url(#pc85516a935)" d="M 44.32625 116.624667 
L 86.246705 116.624667 
L 86.246705 122.422 
L 44.32625 122.422 
z
" style="fill:#808080;"/>
   </g>
   <g id="patch_19">
    <path clip-path="url(#pc85516a935)" d="M 44.32625 123.871333 
L 77.862614 123.871333 
L 77.862614 129.668667 
L 44.32625 129.668667 
z
" style="fill:#808080;"/>
   </g>
   <g id="patch_20">
    <path clip-path="url(#pc85516a935)" d="M 44.32625 131.118 
L 77.862614 131.118 
L 77.862614 136.915333 
L 44.32625 136.915333 
z
" style="fill:#808080;"/>
   </g>
   <g id="patch_21">
    <path clip-path="url(#pc85516a935)" d="M 44.32625 138.364667 
L 77.862614 138.364667 
L 77.862614 144.162 
L 44.32625 144.162 
z
" style="fill:#808080;"/>
   </g>
   <g id="patch_22">
    <path clip-path="url(#pc85516a935)" d="M 44.32625 145.611333 
L 77.862614 145.611333 
L 77.862614 151.408667 
L 44.32625 151.408667 
z
" style="fill:#808080;"/>
   </g>
   <g id="patch_23">
    <path clip-path="url(#pc85516a935)" d="M 44.32625 152.858 
L 77.862614 152.858 
L 77.862614 158.655333 
L 44.32625 158.655333 
z
" style="fill:#808080;"/>
   </g>
   <g id="patch_24">
    <path clip-path="url(#pc85516a935)" d="M 44.32625 160.104667 
L 69.478523 160.104667 
L 69.478523 165.902 
L 44.32625 165.902 
z
" style="fill:#808080;"/>
   </g>
   <g id="patch_25">
    <path clip-path="url(#pc85516a935)" d="M 44.32625 167.351333 
L 69.478523 167.351333 
L 69.478523 173.148667 
L 44.32625 173.148667 
z
" style="fill:#808080;"/>
   </g>
   <g id="patch_26">
    <path clip-path="url(#pc85516a935)" d="M 44.32625 174.598 
L 69.478523 174.598 
L 69.478523 180.395333 
L 44.32625 180.395333 
z
" style="fill:#808080;"/>
   </g>
   <g id="patch_27">
    <path clip-path="url(#pc85516a935)" d="M 44.32625 181.844667 
L 69.478523 181.844667 
L 69.478523 187.642 
L 44.32625 187.642 
z
" style="fill:#808080;"/>
   </g>
   <g id="patch_28">
    <path clip-path="url(#pc85516a935)" d="M 44.32625 189.091333 
L 69.478523 189.091333 
L 69.478523 194.888667 
L 44.32625 194.888667 
z
" style="fill:#808080;"/>
   </g>
   <g id="patch_29">
    <path clip-path="url(#pc85516a935)" d="M 44.32625 196.338 
L 69.478523 196.338 
L 69.478523 202.135333 
L 44.32625 202.135333 
z
" style="fill:#808080;"/>
   </g>
   <g id="patch_30">
    <path clip-path="url(#pc85516a935)" d="M 44.32625 203.584667 
L 69.478523 203.584667 
L 69.478523 209.382 
L 44.32625 209.382 
z
" style="fill:#808080;"/>
   </g>
   <g id="patch_31">
    <path clip-path="url(#pc85516a935)" d="M 44.32625 210.831333 
L 69.478523 210.831333 
L 69.478523 216.628667 
L 44.32625 216.628667 
z
" style="fill:#808080;"/>
   </g>
   <g id="patch_32">
    <path clip-path="url(#pc85516a935)" d="M 44.32625 218.078 
L 69.478523 218.078 
L 69.478523 223.875333 
L 44.32625 223.875333 
z
" style="fill:#808080;"/>
   </g>
   <g id="line2d_34">
    <path clip-path="url(#pc85516a935)" d="M 0 0 
" style="fill:none;stroke:#424242;stroke-linecap:round;stroke-width:1.8;"/>
   </g>
   <g id="line2d_35">
    <path clip-path="url(#pc85516a935)" d="M 0 0 
" style="fill:none;stroke:#424242;stroke-linecap:round;stroke-width:1.8;"/>
   </g>
   <g id="line2d_36">
    <path clip-path="url(#pc85516a935)" d="M 0 0 
" style="fill:none;stroke:#424242;stroke-linecap:round;stroke-width:1.8;"/>
   </g>
   <g id="line2d_37">
    <path clip-path="url(#pc85516a935)" d="M 0 0 
" style="fill:none;stroke:#424242;stroke-linecap:round;stroke-width:1.8;"/>
   </g>
   <g id="line2d_38">
    <path clip-path="url(#pc85516a935)" d="M 0 0 
" style="fill:none;stroke:#424242;stroke-linecap:round;stroke-width:1.8;"/>
   </g>
   <g id="line2d_39">
    <path clip-path="url(#pc85516a935)" d="M 0 0 
" style="fill:none;stroke:#424242;stroke-linecap:round;stroke-width:1.8;"/>
   </g>
   <g id="line2d_40">
    <path clip-path="url(#pc85516a935)" d="M 0 0 
" style="fill:none;stroke:#424242;stroke-linecap:round;stroke-width:1.8;"/>
   </g>
   <g id="line2d_41">
    <path clip-path="url(#pc85516a935)" d="M 0 0 
" style="fill:none;stroke:#424242;stroke-linecap:round;stroke-width:1.8;"/>
   </g>
   <g id="line2d_42">
    <path clip-path="url(#pc85516a935)" d="M 0 0 
" style="fill:none;stroke:#424242;stroke-linecap:round;stroke-width:1.8;"/>
   </g>
   <g id="line2d_43">
    <path clip-path="url(#pc85516a935)" d="M 0 0 
" style="fill:none;stroke:#424242;stroke-linecap:round;stroke-width:1.8;"/>
   </g>
   <g id="line2d_44">
    <path clip-path="url(#pc85516a935)" d="M 0 0 
" style="fill:none;stroke:#424242;stroke-linecap:round;stroke-width:1.8;"/>
   </g>
   <g id="line2d_45">
    <path clip-path="url(#pc85516a935)" d="M 0 0 
" style="fill:none;stroke:#424242;stroke-linecap:round;stroke-width:1.8;"/>
   </g>
   <g id="line2d_46">
    <path clip-path="url(#pc85516a935)" d="M 0 0 
" style="fill:none;stroke:#424242;stroke-linecap:round;stroke-width:1.8;"/>
   </g>
   <g id="line2d_47">
    <path clip-path="url(#pc85516a935)" d="M 0 0 
" style="fill:none;stroke:#424242;stroke-linecap:round;stroke-width:1.8;"/>
   </g>
   <g id="line2d_48">
    <path clip-path="url(#pc85516a935)" d="M 0 0 
" style="fill:none;stroke:#424242;stroke-linecap:round;stroke-width:1.8;"/>
   </g>
   <g id="line2d_49">
    <path clip-path="url(#pc85516a935)" d="M 0 0 
" style="fill:none;stroke:#424242;stroke-linecap:round;stroke-width:1.8;"/>
   </g>
   <g id="line2d_50">
    <path clip-path="url(#pc85516a935)" d="M 0 0 
" style="fill:none;stroke:#424242;stroke-linecap:round;stroke-width:1.8;"/>
   </g>
   <g id="line2d_51">
    <path clip-path="url(#pc85516a935)" d="M 0 0 
" style="fill:none;stroke:#424242;stroke-linecap:round;stroke-width:1.8;"/>
   </g>
   <g id="line2d_52">
    <path clip-path="url(#pc85516a935)" d="M 0 0 
" style="fill:none;stroke:#424242;stroke-linecap:round;stroke-width:1.8;"/>
   </g>
   <g id="line2d_53">
    <path clip-path="url(#pc85516a935)" d="M 0 0 
" style="fill:none;stroke:#424242;stroke-linecap:round;stroke-width:1.8;"/>
   </g>
   <g id="line2d_54">
    <path clip-path="url(#pc85516a935)" d="M 0 0 
" style="fill:none;stroke:#424242;stroke-linecap:round;stroke-width:1.8;"/>
   </g>
   <g id="line2d_55">
    <path clip-path="url(#pc85516a935)" d="M 0 0 
" style="fill:none;stroke:#424242;stroke-linecap:round;stroke-width:1.8;"/>
   </g>
   <g id="line2d_56">
    <path clip-path="url(#pc85516a935)" d="M 0 0 
" style="fill:none;stroke:#424242;stroke-linecap:round;stroke-width:1.8;"/>
   </g>
   <g id="line2d_57">
    <path clip-path="url(#pc85516a935)" d="M 0 0 
" style="fill:none;stroke:#424242;stroke-linecap:round;stroke-width:1.8;"/>
   </g>
   <g id="line2d_58">
    <path clip-path="url(#pc85516a935)" d="M 0 0 
" style="fill:none;stroke:#424242;stroke-linecap:round;stroke-width:1.8;"/>
   </g>
   <g id="line2d_59">
    <path clip-path="url(#pc85516a935)" d="M 0 0 
" style="fill:none;stroke:#424242;stroke-linecap:round;stroke-width:1.8;"/>
   </g>
   <g id="line2d_60">
    <path clip-path="url(#pc85516a935)" d="M 0 0 
" style="fill:none;stroke:#424242;stroke-linecap:round;stroke-width:1.8;"/>
   </g>
   <g id="line2d_61">
    <path clip-path="url(#pc85516a935)" d="M 0 0 
" style="fill:none;stroke:#424242;stroke-linecap:round;stroke-width:1.8;"/>
   </g>
   <g id="line2d_62">
    <path clip-path="url(#pc85516a935)" d="M 0 0 
" style="fill:none;stroke:#424242;stroke-linecap:round;stroke-width:1.8;"/>
   </g>
   <g id="line2d_63">
    <path clip-path="url(#pc85516a935)" d="M 0 0 
" style="fill:none;stroke:#424242;stroke-linecap:round;stroke-width:1.8;"/>
   </g>
   <g id="patch_33">
    <path d="M 44.32625 224.6 
L 44.32625 7.2 
" style="fill:none;stroke:#262626;stroke-linecap:square;stroke-linejoin:miter;"/>
   </g>
   <g id="patch_34">
    <path d="M 44.32625 224.6 
L 136.55125 224.6 
" style="fill:none;stroke:#262626;stroke-linecap:square;stroke-linejoin:miter;"/>
   </g>
  </g>
 </g>
 <defs>
  <clipPath id="pc85516a935">
   <rect height="217.4" width="92.225" x="44.32625" y="7.2"/>
  </clipPath>
 </defs>
</svg>
