<?xml version="1.0" encoding="utf-8" standalone="no"?>
<!DOCTYPE svg PUBLIC "-//W3C//DTD SVG 1.1//EN"
  "http://www.w3.org/Graphics/SVG/1.1/DTD/svg11.dtd">
<!-- Created with matplotlib (https://matplotlib.org/) -->
<svg height="93.6pt" version="1.1" viewBox="0 0 122.4 93.6" width="122.4pt" xmlns="http://www.w3.org/2000/svg" xmlns:xlink="http://www.w3.org/1999/xlink">
 <metadata>
  <rdf:RDF xmlns:cc="http://creativecommons.org/ns#" xmlns:dc="http://purl.org/dc/elements/1.1/" xmlns:rdf="http://www.w3.org/1999/02/22-rdf-syntax-ns#">
   <cc:Work>
    <dc:type rdf:resource="http://purl.org/dc/dcmitype/StillImage"/>
    <dc:date>2023-04-23T13:49:54.348243</dc:date>
    <dc:format>image/svg+xml</dc:format>
    <dc:creator>
     <cc:Agent>
      <dc:title>Matplotlib v3.3.2, https://matplotlib.org/</dc:title>
     </cc:Agent>
    </dc:creator>
   </cc:Work>
  </rdf:RDF>
 </metadata>
 <defs>
  <style type="text/css">*{stroke-linecap:butt;stroke-linejoin:round;}</style>
 </defs>
 <g id="figure_1">
  <g id="patch_1">
   <path d="M 0 93.6 
L 122.4 93.6 
L 122.4 0 
L 0 0 
z
" style="fill:#ffffff;"/>
  </g>
  <g id="axes_1">
   <g id="patch_2">
    <path d="M 15.3 81.9 
L 110.16 81.9 
L 110.16 11.232 
L 15.3 11.232 
z
" style="fill:#ffffff;"/>
   </g>
   <g id="matplotlib.axis_1">
    <g id="xtick_1">
     <g id="line2d_1">
      <defs>
       <path d="M 0 0 
L 0 4 
" id="md12bb1f047" style="stroke:#262626;stroke-width:0.8;"/>
      </defs>
      <g>
       <use style="fill:#262626;stroke:#262626;stroke-width:0.8;" x="22.620063" xlink:href="#md12bb1f047" y="81.9"/>
      </g>
     </g>
     <g id="text_1">
      <!-- Transcription Factor -->
      <g style="fill:#262626;" transform="translate(24.688813 158.7275)rotate(-90)scale(0.08 -0.08)">
       <defs>
        <path d="M 35.15625 61.1875 
L 35.15625 0 
L 25.875 0 
L 25.875 61.1875 
L 2.25 61.1875 
L 2.25 68.796875 
L 58.796875 68.796875 
L 58.796875 61.1875 
z
" id="LiberationSans-84"/>
        <path d="M 6.9375 0 
L 6.9375 40.53125 
Q 6.9375 42.1875 6.90625 43.921875 
Q 6.890625 45.65625 6.828125 47.265625 
Q 6.78125 48.875 6.734375 50.28125 
Q 6.6875 51.703125 6.640625 52.828125 
L 14.9375 52.828125 
Q 14.984375 51.703125 15.0625 50.265625 
Q 15.140625 48.828125 15.203125 47.3125 
Q 15.28125 45.796875 15.296875 44.40625 
Q 15.328125 43.015625 15.328125 42.046875 
L 15.53125 42.046875 
Q 16.453125 45.0625 17.5 47.28125 
Q 18.5625 49.515625 19.96875 50.953125 
Q 21.390625 52.390625 23.34375 53.09375 
Q 25.296875 53.8125 28.078125 53.8125 
Q 29.15625 53.8125 30.125 53.640625 
Q 31.109375 53.46875 31.640625 53.328125 
L 31.640625 45.265625 
Q 30.765625 45.515625 29.59375 45.625 
Q 28.421875 45.75 26.953125 45.75 
Q 23.921875 45.75 21.796875 44.375 
Q 19.671875 43.015625 18.328125 40.59375 
Q 17 38.1875 16.359375 34.84375 
Q 15.71875 31.5 15.71875 27.546875 
L 15.71875 0 
z
" id="LiberationSans-114"/>
        <path d="M 20.21875 -0.984375 
Q 12.25 -0.984375 8.25 3.21875 
Q 4.25 7.421875 4.25 14.75 
Q 4.25 19.96875 6.21875 23.3125 
Q 8.203125 26.65625 11.390625 28.5625 
Q 14.59375 30.46875 18.6875 31.203125 
Q 22.796875 31.9375 27.046875 32.03125 
L 38.921875 32.234375 
L 38.921875 35.109375 
Q 38.921875 38.375 38.234375 40.671875 
Q 37.546875 42.96875 36.125 44.375 
Q 34.71875 45.796875 32.59375 46.453125 
Q 30.46875 47.125 27.59375 47.125 
Q 25.046875 47.125 23 46.75 
Q 20.953125 46.390625 19.4375 45.4375 
Q 17.921875 44.484375 16.984375 42.84375 
Q 16.0625 41.21875 15.765625 38.71875 
L 6.59375 39.546875 
Q 7.078125 42.671875 8.4375 45.28125 
Q 9.8125 47.90625 12.328125 49.796875 
Q 14.84375 51.703125 18.625 52.75 
Q 22.40625 53.8125 27.78125 53.8125 
Q 37.75 53.8125 42.765625 49.234375 
Q 47.796875 44.671875 47.796875 36.03125 
L 47.796875 13.28125 
Q 47.796875 9.375 48.828125 7.390625 
Q 49.859375 5.421875 52.734375 5.421875 
Q 53.46875 5.421875 54.203125 5.515625 
Q 54.9375 5.609375 55.609375 5.765625 
L 55.609375 0.296875 
Q 53.953125 -0.09375 52.3125 -0.28125 
Q 50.6875 -0.484375 48.828125 -0.484375 
Q 46.34375 -0.484375 44.5625 0.171875 
Q 42.78125 0.828125 41.65625 2.171875 
Q 40.53125 3.515625 39.9375 5.484375 
Q 39.359375 7.46875 39.203125 10.109375 
L 38.921875 10.109375 
Q 37.5 7.5625 35.8125 5.515625 
Q 34.125 3.46875 31.875 2.03125 
Q 29.640625 0.59375 26.78125 -0.1875 
Q 23.921875 -0.984375 20.21875 -0.984375 
z
M 22.21875 5.609375 
Q 26.421875 5.609375 29.5625 7.140625 
Q 32.71875 8.6875 34.78125 11.078125 
Q 36.859375 13.484375 37.890625 16.3125 
Q 38.921875 19.140625 38.921875 21.734375 
L 38.921875 26.078125 
L 29.296875 25.875 
Q 26.078125 25.828125 23.171875 25.40625 
Q 20.265625 25 18.0625 23.78125 
Q 15.875 22.5625 14.578125 20.359375 
Q 13.28125 18.171875 13.28125 14.59375 
Q 13.28125 10.296875 15.59375 7.953125 
Q 17.921875 5.609375 22.21875 5.609375 
z
" id="LiberationSans-97"/>
        <path d="M 40.28125 0 
L 40.28125 33.5 
Q 40.28125 37.359375 39.71875 39.9375 
Q 39.15625 42.53125 37.890625 44.109375 
Q 36.625 45.703125 34.546875 46.359375 
Q 32.46875 47.015625 29.390625 47.015625 
Q 26.265625 47.015625 23.75 45.921875 
Q 21.234375 44.828125 19.453125 42.75 
Q 17.671875 40.671875 16.6875 37.625 
Q 15.71875 34.578125 15.71875 30.609375 
L 15.71875 0 
L 6.9375 0 
L 6.9375 41.546875 
Q 6.9375 43.21875 6.90625 45.046875 
Q 6.890625 46.875 6.828125 48.5 
Q 6.78125 50.140625 6.734375 51.3125 
Q 6.6875 52.484375 6.640625 52.828125 
L 14.9375 52.828125 
Q 14.984375 52.59375 15.03125 51.515625 
Q 15.09375 50.4375 15.15625 49.046875 
Q 15.234375 47.65625 15.28125 46.21875 
Q 15.328125 44.78125 15.328125 43.796875 
L 15.484375 43.796875 
Q 16.75 46.09375 18.265625 47.953125 
Q 19.78125 49.8125 21.78125 51.09375 
Q 23.78125 52.390625 26.359375 53.09375 
Q 28.953125 53.8125 32.375 53.8125 
Q 36.765625 53.8125 39.9375 52.734375 
Q 43.109375 51.65625 45.15625 49.40625 
Q 47.21875 47.171875 48.171875 43.625 
Q 49.125 40.09375 49.125 35.203125 
L 49.125 0 
z
" id="LiberationSans-110"/>
        <path d="M 46.390625 14.59375 
Q 46.390625 10.890625 44.9375 7.984375 
Q 43.5 5.078125 40.765625 3.09375 
Q 38.03125 1.125 34.046875 0.0625 
Q 30.078125 -0.984375 24.953125 -0.984375 
Q 20.359375 -0.984375 16.671875 -0.265625 
Q 12.984375 0.4375 10.203125 2 
Q 7.421875 3.5625 5.53125 6.125 
Q 3.65625 8.6875 2.78125 12.40625 
L 10.546875 13.921875 
Q 11.671875 9.671875 15.1875 7.6875 
Q 18.703125 5.71875 24.953125 5.71875 
Q 27.78125 5.71875 30.140625 6.109375 
Q 32.515625 6.5 34.21875 7.453125 
Q 35.9375 8.40625 36.890625 9.984375 
Q 37.84375 11.578125 37.84375 13.921875 
Q 37.84375 16.3125 36.71875 17.84375 
Q 35.59375 19.390625 33.59375 20.40625 
Q 31.59375 21.4375 28.734375 22.1875 
Q 25.875 22.953125 22.46875 23.875 
Q 19.28125 24.703125 16.15625 25.734375 
Q 13.03125 26.765625 10.515625 28.4375 
Q 8.015625 30.125 6.453125 32.609375 
Q 4.890625 35.109375 4.890625 38.875 
Q 4.890625 46.09375 10.03125 49.875 
Q 15.1875 53.65625 25.046875 53.65625 
Q 33.796875 53.65625 38.9375 50.578125 
Q 44.09375 47.515625 45.453125 40.71875 
L 37.546875 39.75 
Q 37.109375 41.796875 35.9375 43.1875 
Q 34.765625 44.578125 33.109375 45.4375 
Q 31.453125 46.296875 29.375 46.65625 
Q 27.296875 47.015625 25.046875 47.015625 
Q 19.09375 47.015625 16.25 45.203125 
Q 13.421875 43.40625 13.421875 39.75 
Q 13.421875 37.59375 14.46875 36.203125 
Q 15.53125 34.8125 17.40625 33.859375 
Q 19.28125 32.90625 21.921875 32.203125 
Q 24.5625 31.5 27.734375 30.71875 
Q 29.828125 30.171875 32.03125 29.5625 
Q 34.234375 28.953125 36.296875 28.09375 
Q 38.375 27.25 40.203125 26.09375 
Q 42.046875 24.953125 43.40625 23.34375 
Q 44.78125 21.734375 45.578125 19.578125 
Q 46.390625 17.4375 46.390625 14.59375 
z
" id="LiberationSans-115"/>
        <path d="M 13.421875 26.65625 
Q 13.421875 22.125 14.078125 18.3125 
Q 14.75 14.5 16.3125 11.734375 
Q 17.875 8.984375 20.4375 7.46875 
Q 23 5.953125 26.765625 5.953125 
Q 31.453125 5.953125 34.59375 8.484375 
Q 37.75 11.03125 38.484375 16.3125 
L 47.359375 15.71875 
Q 46.921875 12.453125 45.453125 9.421875 
Q 44 6.390625 41.484375 4.09375 
Q 38.96875 1.8125 35.34375 0.40625 
Q 31.734375 -0.984375 27 -0.984375 
Q 20.796875 -0.984375 16.453125 1.109375 
Q 12.109375 3.21875 9.390625 6.90625 
Q 6.6875 10.59375 5.46875 15.59375 
Q 4.25 20.609375 4.25 26.46875 
Q 4.25 31.78125 5.125 35.859375 
Q 6 39.9375 7.59375 42.984375 
Q 9.1875 46.046875 11.328125 48.125 
Q 13.484375 50.203125 15.984375 51.4375 
Q 18.5 52.6875 21.28125 53.25 
Q 24.078125 53.8125 26.90625 53.8125 
Q 31.34375 53.8125 34.8125 52.59375 
Q 38.28125 51.375 40.796875 49.25 
Q 43.3125 47.125 44.875 44.234375 
Q 46.4375 41.359375 47.078125 38.03125 
L 38.03125 37.359375 
Q 37.359375 41.75 34.5625 44.328125 
Q 31.78125 46.921875 26.65625 46.921875 
Q 22.90625 46.921875 20.390625 45.671875 
Q 17.875 44.4375 16.3125 41.921875 
Q 14.75 39.40625 14.078125 35.59375 
Q 13.421875 31.78125 13.421875 26.65625 
z
" id="LiberationSans-99"/>
        <path d="M 6.6875 64.0625 
L 6.6875 72.46875 
L 15.484375 72.46875 
L 15.484375 64.0625 
z
M 6.6875 0 
L 6.6875 52.828125 
L 15.484375 52.828125 
L 15.484375 0 
z
" id="LiberationSans-105"/>
        <path d="M 51.421875 26.65625 
Q 51.421875 20.65625 50.4375 15.578125 
Q 49.46875 10.5 47.1875 6.828125 
Q 44.921875 3.171875 41.1875 1.09375 
Q 37.453125 -0.984375 31.984375 -0.984375 
Q 26.3125 -0.984375 22.0625 1.171875 
Q 17.828125 3.328125 15.578125 8.203125 
L 15.328125 8.203125 
Q 15.375 8.109375 15.40625 7.328125 
Q 15.4375 6.546875 15.453125 5.375 
Q 15.484375 4.203125 15.5 2.75 
Q 15.53125 1.3125 15.53125 -0.09375 
L 15.53125 -20.75 
L 6.734375 -20.75 
L 6.734375 42.046875 
Q 6.734375 43.953125 6.703125 45.703125 
Q 6.6875 47.46875 6.640625 48.90625 
Q 6.59375 50.34375 6.546875 51.359375 
Q 6.5 52.390625 6.453125 52.828125 
L 14.9375 52.828125 
Q 14.984375 52.6875 15.0625 51.796875 
Q 15.140625 50.921875 15.203125 49.671875 
Q 15.28125 48.4375 15.359375 47.015625 
Q 15.4375 45.609375 15.4375 44.34375 
L 15.625 44.34375 
Q 16.84375 46.875 18.40625 48.65625 
Q 19.96875 50.4375 21.96875 51.578125 
Q 23.96875 52.734375 26.4375 53.25 
Q 28.90625 53.765625 31.984375 53.765625 
Q 37.453125 53.765625 41.1875 51.8125 
Q 44.921875 49.859375 47.1875 46.3125 
Q 49.46875 42.78125 50.4375 37.765625 
Q 51.421875 32.765625 51.421875 26.65625 
z
M 42.1875 26.46875 
Q 42.1875 31.34375 41.59375 35.15625 
Q 41.015625 38.96875 39.578125 41.59375 
Q 38.140625 44.234375 35.734375 45.59375 
Q 33.34375 46.96875 29.734375 46.96875 
Q 26.8125 46.96875 24.21875 46.140625 
Q 21.625 45.3125 19.703125 42.96875 
Q 17.78125 40.625 16.65625 36.5 
Q 15.53125 32.375 15.53125 25.78125 
Q 15.53125 20.171875 16.453125 16.28125 
Q 17.390625 12.40625 19.171875 10.015625 
Q 20.953125 7.625 23.578125 6.5625 
Q 26.21875 5.515625 29.640625 5.515625 
Q 33.296875 5.515625 35.71875 6.921875 
Q 38.140625 8.34375 39.578125 11.03125 
Q 41.015625 13.71875 41.59375 17.59375 
Q 42.1875 21.484375 42.1875 26.46875 
z
" id="LiberationSans-112"/>
        <path d="M 27.046875 0.390625 
Q 25.046875 -0.140625 22.96875 -0.453125 
Q 20.90625 -0.78125 18.171875 -0.78125 
Q 7.625 -0.78125 7.625 11.1875 
L 7.625 46.4375 
L 1.515625 46.4375 
L 1.515625 52.828125 
L 7.953125 52.828125 
L 10.546875 64.65625 
L 16.40625 64.65625 
L 16.40625 52.828125 
L 26.171875 52.828125 
L 26.171875 46.4375 
L 16.40625 46.4375 
L 16.40625 13.09375 
Q 16.40625 9.28125 17.640625 7.734375 
Q 18.890625 6.203125 21.96875 6.203125 
Q 23.25 6.203125 24.4375 6.390625 
Q 25.640625 6.59375 27.046875 6.890625 
z
" id="LiberationSans-116"/>
        <path d="M 51.421875 26.46875 
Q 51.421875 12.59375 45.3125 5.796875 
Q 39.203125 -0.984375 27.59375 -0.984375 
Q 22.078125 -0.984375 17.71875 0.671875 
Q 13.375 2.34375 10.375 5.765625 
Q 7.375 9.1875 5.78125 14.328125 
Q 4.203125 19.484375 4.203125 26.46875 
Q 4.203125 53.8125 27.875 53.8125 
Q 34.03125 53.8125 38.5 52.09375 
Q 42.96875 50.390625 45.828125 46.96875 
Q 48.6875 43.5625 50.046875 38.421875 
Q 51.421875 33.296875 51.421875 26.46875 
z
M 42.1875 26.46875 
Q 42.1875 32.625 41.234375 36.625 
Q 40.28125 40.625 38.453125 43.015625 
Q 36.625 45.40625 33.984375 46.359375 
Q 31.34375 47.3125 28.03125 47.3125 
Q 24.65625 47.3125 21.9375 46.3125 
Q 19.234375 45.3125 17.328125 42.890625 
Q 15.4375 40.484375 14.421875 36.46875 
Q 13.421875 32.46875 13.421875 26.46875 
Q 13.421875 20.3125 14.5 16.28125 
Q 15.578125 12.25 17.453125 9.859375 
Q 19.34375 7.46875 21.90625 6.484375 
Q 24.46875 5.515625 27.484375 5.515625 
Q 30.859375 5.515625 33.59375 6.46875 
Q 36.328125 7.421875 38.234375 9.8125 
Q 40.140625 12.203125 41.15625 16.25 
Q 42.1875 20.3125 42.1875 26.46875 
z
" id="LiberationSans-111"/>
        <path id="LiberationSans-32"/>
        <path d="M 17.53125 61.1875 
L 17.53125 35.59375 
L 55.90625 35.59375 
L 55.90625 27.875 
L 17.53125 27.875 
L 17.53125 0 
L 8.203125 0 
L 8.203125 68.796875 
L 57.078125 68.796875 
L 57.078125 61.1875 
z
" id="LiberationSans-70"/>
       </defs>
       <use xlink:href="#LiberationSans-84"/>
       <use x="57.333984" xlink:href="#LiberationSans-114"/>
       <use x="90.634766" xlink:href="#LiberationSans-97"/>
       <use x="146.25" xlink:href="#LiberationSans-110"/>
       <use x="201.865234" xlink:href="#LiberationSans-115"/>
       <use x="251.865234" xlink:href="#LiberationSans-99"/>
       <use x="301.865234" xlink:href="#LiberationSans-114"/>
       <use x="335.166016" xlink:href="#LiberationSans-105"/>
       <use x="357.382812" xlink:href="#LiberationSans-112"/>
       <use x="412.998047" xlink:href="#LiberationSans-116"/>
       <use x="440.78125" xlink:href="#LiberationSans-105"/>
       <use x="462.998047" xlink:href="#LiberationSans-111"/>
       <use x="518.613281" xlink:href="#LiberationSans-110"/>
       <use x="574.228516" xlink:href="#LiberationSans-32"/>
       <use x="602.011719" xlink:href="#LiberationSans-70"/>
       <use x="663.095703" xlink:href="#LiberationSans-97"/>
       <use x="718.710938" xlink:href="#LiberationSans-99"/>
       <use x="768.710938" xlink:href="#LiberationSans-116"/>
       <use x="796.494141" xlink:href="#LiberationSans-111"/>
       <use x="852.109375" xlink:href="#LiberationSans-114"/>
      </g>
     </g>
    </g>
    <g id="xtick_2">
     <g id="line2d_2">
      <g>
       <use style="fill:#262626;stroke:#262626;stroke-width:0.8;" x="30.642051" xlink:href="#md12bb1f047" y="81.9"/>
      </g>
     </g>
     <g id="text_2">
      <!-- Cytokines -->
      <g style="fill:#262626;" transform="translate(32.710801 123.02375)rotate(-90)scale(0.08 -0.08)">
       <defs>
        <path d="M 38.671875 62.203125 
Q 32.8125 62.203125 28.296875 60.25 
Q 23.78125 58.296875 20.71875 54.6875 
Q 17.671875 51.078125 16.109375 46 
Q 14.546875 40.921875 14.546875 34.71875 
Q 14.546875 28.515625 16.234375 23.359375 
Q 17.921875 18.21875 21.0625 14.5 
Q 24.21875 10.796875 28.78125 8.734375 
Q 33.34375 6.6875 39.0625 6.6875 
Q 43.0625 6.6875 46.359375 7.734375 
Q 49.65625 8.796875 52.3125 10.6875 
Q 54.984375 12.59375 57.078125 15.203125 
Q 59.1875 17.828125 60.796875 21 
L 68.40625 17.1875 
Q 66.546875 13.328125 63.8125 10 
Q 61.078125 6.6875 57.390625 4.25 
Q 53.71875 1.8125 49.046875 0.40625 
Q 44.390625 -0.984375 38.625 -0.984375 
Q 30.28125 -0.984375 24 1.671875 
Q 17.71875 4.34375 13.5 9.109375 
Q 9.28125 13.875 7.171875 20.40625 
Q 5.078125 26.953125 5.078125 34.71875 
Q 5.078125 42.78125 7.296875 49.265625 
Q 9.515625 55.765625 13.78125 60.328125 
Q 18.0625 64.890625 24.3125 67.359375 
Q 30.5625 69.828125 38.578125 69.828125 
Q 49.5625 69.828125 56.9375 65.53125 
Q 64.3125 61.234375 67.78125 52.78125 
L 58.9375 49.859375 
Q 57.953125 52.296875 56.296875 54.515625 
Q 54.640625 56.734375 52.140625 58.4375 
Q 49.65625 60.15625 46.3125 61.171875 
Q 42.96875 62.203125 38.671875 62.203125 
z
" id="LiberationSans-67"/>
        <path d="M 29.5 0 
Q 27.640625 -4.78125 25.703125 -8.609375 
Q 23.78125 -12.453125 21.390625 -15.15625 
Q 19 -17.875 16.0625 -19.3125 
Q 13.140625 -20.75 9.328125 -20.75 
Q 7.671875 -20.75 6.25 -20.65625 
Q 4.828125 -20.5625 3.265625 -20.21875 
L 3.265625 -13.625 
Q 4.203125 -13.765625 5.375 -13.84375 
Q 6.546875 -13.921875 7.375 -13.921875 
Q 11.234375 -13.921875 14.546875 -11.03125 
Q 17.875 -8.15625 20.359375 -1.859375 
L 21.1875 0.25 
L 0.25 52.828125 
L 9.625 52.828125 
L 20.75 23.640625 
Q 21.234375 22.3125 21.984375 20.109375 
Q 22.75 17.921875 23.5 15.71875 
Q 24.265625 13.53125 24.84375 11.765625 
Q 25.4375 10.015625 25.53125 9.578125 
Q 25.6875 10.109375 26.25 11.6875 
Q 26.8125 13.28125 27.515625 15.234375 
Q 28.21875 17.1875 28.953125 19.1875 
Q 29.6875 21.1875 30.171875 22.65625 
L 40.53125 52.828125 
L 49.8125 52.828125 
z
" id="LiberationSans-121"/>
        <path d="M 39.84375 0 
L 21.96875 24.125 
L 15.53125 18.796875 
L 15.53125 0 
L 6.734375 0 
L 6.734375 72.46875 
L 15.53125 72.46875 
L 15.53125 27.203125 
L 38.71875 52.828125 
L 49.03125 52.828125 
L 27.59375 30.125 
L 50.140625 0 
z
" id="LiberationSans-107"/>
        <path d="M 13.484375 24.5625 
Q 13.484375 20.40625 14.328125 16.90625 
Q 15.1875 13.421875 16.96875 10.90625 
Q 18.75 8.40625 21.53125 7 
Q 24.3125 5.609375 28.21875 5.609375 
Q 33.9375 5.609375 37.375 7.90625 
Q 40.828125 10.203125 42.046875 13.71875 
L 49.75 11.53125 
Q 48.921875 9.328125 47.4375 7.109375 
Q 45.953125 4.890625 43.453125 3.09375 
Q 40.96875 1.3125 37.234375 0.15625 
Q 33.5 -0.984375 28.21875 -0.984375 
Q 16.5 -0.984375 10.375 6 
Q 4.25 12.984375 4.25 26.765625 
Q 4.25 34.1875 6.09375 39.328125 
Q 7.953125 44.484375 11.171875 47.703125 
Q 14.40625 50.921875 18.703125 52.359375 
Q 23 53.8125 27.875 53.8125 
Q 34.515625 53.8125 38.984375 51.65625 
Q 43.453125 49.515625 46.15625 45.71875 
Q 48.875 41.9375 50.015625 36.8125 
Q 51.171875 31.6875 51.171875 25.734375 
L 51.171875 24.5625 
z
M 42.09375 31.296875 
Q 41.359375 39.65625 37.84375 43.484375 
Q 34.328125 47.3125 27.734375 47.3125 
Q 25.53125 47.3125 23.109375 46.609375 
Q 20.703125 45.90625 18.65625 44.09375 
Q 16.609375 42.28125 15.1875 39.171875 
Q 13.765625 36.078125 13.578125 31.296875 
z
" id="LiberationSans-101"/>
       </defs>
       <use xlink:href="#LiberationSans-67"/>
       <use x="72.216797" xlink:href="#LiberationSans-121"/>
       <use x="122.216797" xlink:href="#LiberationSans-116"/>
       <use x="150" xlink:href="#LiberationSans-111"/>
       <use x="205.615234" xlink:href="#LiberationSans-107"/>
       <use x="255.615234" xlink:href="#LiberationSans-105"/>
       <use x="277.832031" xlink:href="#LiberationSans-110"/>
       <use x="333.447266" xlink:href="#LiberationSans-101"/>
       <use x="389.0625" xlink:href="#LiberationSans-115"/>
      </g>
     </g>
    </g>
    <g id="xtick_3">
     <g id="line2d_3">
      <g>
       <use style="fill:#262626;stroke:#262626;stroke-width:0.8;" x="38.664038" xlink:href="#md12bb1f047" y="81.9"/>
      </g>
     </g>
     <g id="text_3">
      <!-- Cytokine Receptor -->
      <g style="fill:#262626;" transform="translate(40.732788 153.705)rotate(-90)scale(0.08 -0.08)">
       <defs>
        <path d="M 56.84375 0 
L 38.96875 28.5625 
L 17.53125 28.5625 
L 17.53125 0 
L 8.203125 0 
L 8.203125 68.796875 
L 40.578125 68.796875 
Q 46.4375 68.796875 50.953125 67.453125 
Q 55.46875 66.109375 58.546875 63.5625 
Q 61.625 61.03125 63.234375 57.375 
Q 64.84375 53.71875 64.84375 49.125 
Q 64.84375 45.84375 63.890625 42.671875 
Q 62.9375 39.5 60.890625 36.859375 
Q 58.84375 34.234375 55.65625 32.328125 
Q 52.484375 30.421875 48.046875 29.640625 
L 67.578125 0 
z
M 55.46875 49.03125 
Q 55.46875 52.15625 54.390625 54.4375 
Q 53.328125 56.734375 51.265625 58.265625 
Q 49.21875 59.8125 46.28125 60.5625 
Q 43.359375 61.328125 39.65625 61.328125 
L 17.53125 61.328125 
L 17.53125 35.9375 
L 40.046875 35.9375 
Q 44.046875 35.9375 46.96875 36.9375 
Q 49.90625 37.9375 51.78125 39.6875 
Q 53.65625 41.453125 54.5625 43.84375 
Q 55.46875 46.234375 55.46875 49.03125 
z
" id="LiberationSans-82"/>
       </defs>
       <use xlink:href="#LiberationSans-67"/>
       <use x="72.216797" xlink:href="#LiberationSans-121"/>
       <use x="122.216797" xlink:href="#LiberationSans-116"/>
       <use x="150" xlink:href="#LiberationSans-111"/>
       <use x="205.615234" xlink:href="#LiberationSans-107"/>
       <use x="255.615234" xlink:href="#LiberationSans-105"/>
       <use x="277.832031" xlink:href="#LiberationSans-110"/>
       <use x="333.447266" xlink:href="#LiberationSans-101"/>
       <use x="389.0625" xlink:href="#LiberationSans-32"/>
       <use x="416.845703" xlink:href="#LiberationSans-82"/>
       <use x="489.0625" xlink:href="#LiberationSans-101"/>
       <use x="544.677734" xlink:href="#LiberationSans-99"/>
       <use x="594.677734" xlink:href="#LiberationSans-101"/>
       <use x="650.292969" xlink:href="#LiberationSans-112"/>
       <use x="705.908203" xlink:href="#LiberationSans-116"/>
       <use x="733.691406" xlink:href="#LiberationSans-111"/>
       <use x="789.306641" xlink:href="#LiberationSans-114"/>
      </g>
     </g>
    </g>
    <g id="xtick_4">
     <g id="line2d_4">
      <g>
       <use style="fill:#262626;stroke:#262626;stroke-width:0.8;" x="46.686025" xlink:href="#md12bb1f047" y="81.9"/>
      </g>
     </g>
     <g id="text_4">
      <!-- Th1 -->
      <g style="fill:#262626;" transform="translate(48.754775 101.68375)rotate(-90)scale(0.08 -0.08)">
       <defs>
        <path d="M 15.484375 43.796875 
Q 16.9375 46.484375 18.640625 48.359375 
Q 20.359375 50.25 22.40625 51.46875 
Q 24.46875 52.6875 26.90625 53.25 
Q 29.34375 53.8125 32.375 53.8125 
Q 37.453125 53.8125 40.703125 52.4375 
Q 43.953125 51.078125 45.828125 48.609375 
Q 47.703125 46.140625 48.40625 42.71875 
Q 49.125 39.3125 49.125 35.203125 
L 49.125 0 
L 40.28125 0 
L 40.28125 33.5 
Q 40.28125 36.859375 39.859375 39.390625 
Q 39.453125 41.9375 38.28125 43.625 
Q 37.109375 45.3125 34.953125 46.15625 
Q 32.8125 47.015625 29.390625 47.015625 
Q 26.265625 47.015625 23.75 45.890625 
Q 21.234375 44.78125 19.453125 42.71875 
Q 17.671875 40.671875 16.6875 37.734375 
Q 15.71875 34.8125 15.71875 31.15625 
L 15.71875 0 
L 6.9375 0 
L 6.9375 72.46875 
L 15.71875 72.46875 
L 15.71875 53.609375 
Q 15.71875 52 15.671875 50.390625 
Q 15.625 48.78125 15.546875 47.40625 
Q 15.484375 46.046875 15.421875 45.09375 
Q 15.375 44.140625 15.328125 43.796875 
z
" id="LiberationSans-104"/>
        <path d="M 7.625 0 
L 7.625 7.46875 
L 25.140625 7.46875 
L 25.140625 60.40625 
L 9.625 49.3125 
L 9.625 57.625 
L 25.875 68.796875 
L 33.984375 68.796875 
L 33.984375 7.46875 
L 50.734375 7.46875 
L 50.734375 0 
z
" id="LiberationSans-49"/>
       </defs>
       <use xlink:href="#LiberationSans-84"/>
       <use x="61.083984" xlink:href="#LiberationSans-104"/>
       <use x="116.699219" xlink:href="#LiberationSans-49"/>
      </g>
     </g>
    </g>
    <g id="xtick_5">
     <g id="line2d_5">
      <g>
       <use style="fill:#262626;stroke:#262626;stroke-width:0.8;" x="54.708013" xlink:href="#md12bb1f047" y="81.9"/>
      </g>
     </g>
     <g id="text_5">
      <!-- Th2 -->
      <g style="fill:#262626;" transform="translate(56.776763 101.68375)rotate(-90)scale(0.08 -0.08)">
       <defs>
        <path d="M 5.03125 0 
L 5.03125 6.203125 
Q 7.515625 11.921875 11.109375 16.28125 
Q 14.703125 20.65625 18.65625 24.1875 
Q 22.609375 27.734375 26.484375 30.765625 
Q 30.375 33.796875 33.5 36.8125 
Q 36.625 39.84375 38.546875 43.15625 
Q 40.484375 46.484375 40.484375 50.6875 
Q 40.484375 53.609375 39.59375 55.828125 
Q 38.71875 58.0625 37.0625 59.5625 
Q 35.40625 61.078125 33.078125 61.828125 
Q 30.765625 62.59375 27.9375 62.59375 
Q 25.296875 62.59375 22.96875 61.859375 
Q 20.65625 61.140625 18.84375 59.671875 
Q 17.046875 58.203125 15.890625 56.03125 
Q 14.75 53.859375 14.40625 50.984375 
L 5.421875 51.8125 
Q 5.859375 55.515625 7.46875 58.78125 
Q 9.078125 62.0625 11.90625 64.53125 
Q 14.75 67 18.71875 68.40625 
Q 22.703125 69.828125 27.9375 69.828125 
Q 33.0625 69.828125 37.0625 68.609375 
Q 41.0625 67.390625 43.8125 64.984375 
Q 46.578125 62.59375 48.046875 59.078125 
Q 49.515625 55.5625 49.515625 50.984375 
Q 49.515625 47.515625 48.265625 44.390625 
Q 47.015625 41.265625 44.9375 38.421875 
Q 42.875 35.59375 40.140625 32.953125 
Q 37.40625 30.328125 34.421875 27.8125 
Q 31.453125 25.296875 28.421875 22.828125 
Q 25.390625 20.359375 22.71875 17.859375 
Q 20.0625 15.375 17.96875 12.8125 
Q 15.875 10.25 14.703125 7.46875 
L 50.59375 7.46875 
L 50.59375 0 
z
" id="LiberationSans-50"/>
       </defs>
       <use xlink:href="#LiberationSans-84"/>
       <use x="61.083984" xlink:href="#LiberationSans-104"/>
       <use x="116.699219" xlink:href="#LiberationSans-50"/>
      </g>
     </g>
    </g>
    <g id="xtick_6">
     <g id="line2d_6">
      <g>
       <use style="fill:#262626;stroke:#262626;stroke-width:0.8;" x="62.73" xlink:href="#md12bb1f047" y="81.9"/>
      </g>
     </g>
     <g id="text_6">
      <!-- Th17 -->
      <g style="fill:#262626;" transform="translate(64.79875 106.1325)rotate(-90)scale(0.08 -0.08)">
       <defs>
        <path d="M 50.59375 61.671875 
Q 45.40625 53.765625 41.0625 46.453125 
Q 36.71875 39.15625 33.59375 31.75 
Q 30.46875 24.359375 28.734375 16.578125 
Q 27 8.796875 27 0 
L 17.828125 0 
Q 17.828125 8.25 19.78125 16.1875 
Q 21.734375 24.125 25.046875 31.765625 
Q 28.375 39.40625 32.765625 46.78125 
Q 37.15625 54.15625 42.09375 61.328125 
L 5.125 61.328125 
L 5.125 68.796875 
L 50.59375 68.796875 
z
" id="LiberationSans-55"/>
       </defs>
       <use xlink:href="#LiberationSans-84"/>
       <use x="61.083984" xlink:href="#LiberationSans-104"/>
       <use x="116.699219" xlink:href="#LiberationSans-49"/>
       <use x="172.314453" xlink:href="#LiberationSans-55"/>
      </g>
     </g>
    </g>
    <g id="xtick_7">
     <g id="line2d_7">
      <g>
       <use style="fill:#262626;stroke:#262626;stroke-width:0.8;" x="70.751987" xlink:href="#md12bb1f047" y="81.9"/>
      </g>
     </g>
     <g id="text_7">
      <!-- Proliferation -->
      <g style="fill:#262626;" transform="translate(72.820737 130.585)rotate(-90)scale(0.08 -0.08)">
       <defs>
        <path d="M 61.421875 48.09375 
Q 61.421875 43.609375 59.9375 39.71875 
Q 58.453125 35.84375 55.5 32.984375 
Q 52.546875 30.125 48.09375 28.46875 
Q 43.65625 26.8125 37.75 26.8125 
L 17.53125 26.8125 
L 17.53125 0 
L 8.203125 0 
L 8.203125 68.796875 
L 37.15625 68.796875 
Q 43.265625 68.796875 47.796875 67.3125 
Q 52.34375 65.828125 55.375 63.109375 
Q 58.40625 60.40625 59.90625 56.5625 
Q 61.421875 52.734375 61.421875 48.09375 
z
M 52.046875 48 
Q 52.046875 54.546875 48.046875 57.9375 
Q 44.046875 61.328125 36.03125 61.328125 
L 17.53125 61.328125 
L 17.53125 34.1875 
L 36.421875 34.1875 
Q 44.484375 34.1875 48.265625 37.75 
Q 52.046875 41.3125 52.046875 48 
z
" id="LiberationSans-80"/>
        <path d="M 6.734375 0 
L 6.734375 72.46875 
L 15.53125 72.46875 
L 15.53125 0 
z
" id="LiberationSans-108"/>
        <path d="M 17.625 46.4375 
L 17.625 0 
L 8.84375 0 
L 8.84375 46.4375 
L 1.421875 46.4375 
L 1.421875 52.828125 
L 8.84375 52.828125 
L 8.84375 58.796875 
Q 8.84375 61.671875 9.375 64.140625 
Q 9.90625 66.609375 11.34375 68.4375 
Q 12.796875 70.265625 15.28125 71.3125 
Q 17.78125 72.359375 21.734375 72.359375 
Q 23.296875 72.359375 24.96875 72.21875 
Q 26.65625 72.078125 27.9375 71.78125 
L 27.9375 65.09375 
Q 27.09375 65.234375 26 65.359375 
Q 24.90625 65.484375 24.03125 65.484375 
Q 22.078125 65.484375 20.828125 64.9375 
Q 19.578125 64.40625 18.875 63.40625 
Q 18.171875 62.40625 17.890625 60.9375 
Q 17.625 59.46875 17.625 57.5625 
L 17.625 52.828125 
L 27.9375 52.828125 
L 27.9375 46.4375 
z
" id="LiberationSans-102"/>
       </defs>
       <use xlink:href="#LiberationSans-80"/>
       <use x="66.699219" xlink:href="#LiberationSans-114"/>
       <use x="100" xlink:href="#LiberationSans-111"/>
       <use x="155.615234" xlink:href="#LiberationSans-108"/>
       <use x="177.832031" xlink:href="#LiberationSans-105"/>
       <use x="200.048828" xlink:href="#LiberationSans-102"/>
       <use x="227.832031" xlink:href="#LiberationSans-101"/>
       <use x="283.447266" xlink:href="#LiberationSans-114"/>
       <use x="316.748047" xlink:href="#LiberationSans-97"/>
       <use x="372.363281" xlink:href="#LiberationSans-116"/>
       <use x="400.146484" xlink:href="#LiberationSans-105"/>
       <use x="422.363281" xlink:href="#LiberationSans-111"/>
       <use x="477.978516" xlink:href="#LiberationSans-110"/>
      </g>
     </g>
    </g>
    <g id="xtick_8">
     <g id="line2d_8">
      <g>
       <use style="fill:#262626;stroke:#262626;stroke-width:0.8;" x="78.773975" xlink:href="#md12bb1f047" y="81.9"/>
      </g>
     </g>
     <g id="text_8">
      <!-- Differentiation -->
      <g style="fill:#262626;" transform="translate(80.842725 137.11625)rotate(-90)scale(0.08 -0.08)">
       <defs>
        <path d="M 67.4375 35.109375 
Q 67.4375 26.515625 64.84375 19.9375 
Q 62.25 13.375 57.75 8.953125 
Q 53.265625 4.546875 47.140625 2.265625 
Q 41.015625 0 33.9375 0 
L 8.203125 0 
L 8.203125 68.796875 
L 30.953125 68.796875 
Q 38.921875 68.796875 45.625 66.8125 
Q 52.34375 64.84375 57.171875 60.71875 
Q 62.015625 56.59375 64.71875 50.234375 
Q 67.4375 43.890625 67.4375 35.109375 
z
M 58.0625 35.109375 
Q 58.0625 42.09375 56.046875 47.046875 
Q 54.046875 52 50.4375 55.171875 
Q 46.828125 58.34375 41.796875 59.828125 
Q 36.765625 61.328125 30.765625 61.328125 
L 17.53125 61.328125 
L 17.53125 7.46875 
L 32.859375 7.46875 
Q 38.28125 7.46875 42.890625 9.21875 
Q 47.515625 10.984375 50.875 14.453125 
Q 54.25 17.921875 56.15625 23.09375 
Q 58.0625 28.265625 58.0625 35.109375 
z
" id="LiberationSans-68"/>
       </defs>
       <use xlink:href="#LiberationSans-68"/>
       <use x="72.216797" xlink:href="#LiberationSans-105"/>
       <use x="94.433594" xlink:href="#LiberationSans-102"/>
       <use x="120.466797" xlink:href="#LiberationSans-102"/>
       <use x="148.25" xlink:href="#LiberationSans-101"/>
       <use x="203.865234" xlink:href="#LiberationSans-114"/>
       <use x="237.166016" xlink:href="#LiberationSans-101"/>
       <use x="292.78125" xlink:href="#LiberationSans-110"/>
       <use x="348.396484" xlink:href="#LiberationSans-116"/>
       <use x="376.179688" xlink:href="#LiberationSans-105"/>
       <use x="398.396484" xlink:href="#LiberationSans-97"/>
       <use x="454.011719" xlink:href="#LiberationSans-116"/>
       <use x="481.794922" xlink:href="#LiberationSans-105"/>
       <use x="504.011719" xlink:href="#LiberationSans-111"/>
       <use x="559.626953" xlink:href="#LiberationSans-110"/>
      </g>
     </g>
    </g>
    <g id="xtick_9">
     <g id="line2d_9">
      <g>
       <use style="fill:#262626;stroke:#262626;stroke-width:0.8;" x="86.795962" xlink:href="#md12bb1f047" y="81.9"/>
      </g>
     </g>
     <g id="text_9">
      <!-- IL2_signal -->
      <g style="fill:#262626;" transform="translate(88.864712 124.37)rotate(-90)scale(0.08 -0.08)">
       <defs>
        <path d="M 9.234375 0 
L 9.234375 68.796875 
L 18.5625 68.796875 
L 18.5625 0 
z
" id="LiberationSans-73"/>
        <path d="M 8.203125 0 
L 8.203125 68.796875 
L 17.53125 68.796875 
L 17.53125 7.625 
L 52.296875 7.625 
L 52.296875 0 
z
" id="LiberationSans-76"/>
        <path d="M -1.515625 -19.875 
L -1.515625 -13.53125 
L 56.734375 -13.53125 
L 56.734375 -19.875 
z
" id="LiberationSans-95"/>
        <path d="M 26.765625 -20.75 
Q 22.21875 -20.75 18.703125 -19.8125 
Q 15.1875 -18.890625 12.6875 -17.15625 
Q 10.203125 -15.4375 8.640625 -13.03125 
Q 7.078125 -10.640625 6.390625 -7.71875 
L 15.234375 -6.453125 
Q 16.109375 -10.109375 19.109375 -12.078125 
Q 22.125 -14.0625 27 -14.0625 
Q 29.984375 -14.0625 32.421875 -13.234375 
Q 34.859375 -12.40625 36.5625 -10.5625 
Q 38.28125 -8.734375 39.203125 -5.796875 
Q 40.140625 -2.875 40.140625 1.3125 
L 40.140625 9.8125 
L 40.046875 9.8125 
Q 39.0625 7.8125 37.625 5.984375 
Q 36.1875 4.15625 34.109375 2.734375 
Q 32.03125 1.3125 29.296875 0.453125 
Q 26.5625 -0.390625 23.046875 -0.390625 
Q 18.015625 -0.390625 14.421875 1.296875 
Q 10.84375 2.984375 8.5625 6.34375 
Q 6.296875 9.71875 5.25 14.71875 
Q 4.203125 19.734375 4.203125 26.3125 
Q 4.203125 32.671875 5.25 37.75 
Q 6.296875 42.828125 8.65625 46.359375 
Q 11.03125 49.90625 14.8125 51.78125 
Q 18.609375 53.65625 24.03125 53.65625 
Q 29.640625 53.65625 33.765625 51.09375 
Q 37.890625 48.53125 40.140625 43.796875 
L 40.234375 43.796875 
Q 40.234375 45.015625 40.296875 46.53125 
Q 40.375 48.046875 40.453125 49.390625 
Q 40.53125 50.734375 40.625 51.703125 
Q 40.71875 52.6875 40.828125 52.828125 
L 49.171875 52.828125 
Q 49.125 52.390625 49.078125 51.34375 
Q 49.03125 50.296875 48.96875 48.828125 
Q 48.921875 47.359375 48.890625 45.578125 
Q 48.875 43.796875 48.875 41.890625 
L 48.875 1.515625 
Q 48.875 -9.578125 43.421875 -15.15625 
Q 37.984375 -20.75 26.765625 -20.75 
z
M 40.140625 26.421875 
Q 40.140625 31.9375 38.9375 35.859375 
Q 37.75 39.796875 35.796875 42.28125 
Q 33.84375 44.78125 31.328125 45.953125 
Q 28.8125 47.125 26.171875 47.125 
Q 22.796875 47.125 20.375 45.953125 
Q 17.96875 44.78125 16.375 42.265625 
Q 14.796875 39.75 14.03125 35.8125 
Q 13.28125 31.890625 13.28125 26.421875 
Q 13.28125 20.703125 14.03125 16.8125 
Q 14.796875 12.9375 16.359375 10.546875 
Q 17.921875 8.15625 20.3125 7.125 
Q 22.703125 6.109375 26.03125 6.109375 
Q 28.65625 6.109375 31.171875 7.21875 
Q 33.6875 8.34375 35.6875 10.78125 
Q 37.703125 13.234375 38.921875 17.09375 
Q 40.140625 20.953125 40.140625 26.421875 
z
" id="LiberationSans-103"/>
       </defs>
       <use xlink:href="#LiberationSans-73"/>
       <use x="27.783203" xlink:href="#LiberationSans-76"/>
       <use x="83.398438" xlink:href="#LiberationSans-50"/>
       <use x="139.013672" xlink:href="#LiberationSans-95"/>
       <use x="194.628906" xlink:href="#LiberationSans-115"/>
       <use x="244.628906" xlink:href="#LiberationSans-105"/>
       <use x="266.845703" xlink:href="#LiberationSans-103"/>
       <use x="322.460938" xlink:href="#LiberationSans-110"/>
       <use x="378.076172" xlink:href="#LiberationSans-97"/>
       <use x="433.691406" xlink:href="#LiberationSans-108"/>
      </g>
     </g>
    </g>
    <g id="xtick_10">
     <g id="line2d_10">
      <g>
       <use style="fill:#262626;stroke:#262626;stroke-width:0.8;" x="94.817949" xlink:href="#md12bb1f047" y="81.9"/>
      </g>
     </g>
     <g id="text_10">
      <!-- Activation -->
      <g style="fill:#262626;" transform="translate(96.886699 122.5825)rotate(-90)scale(0.08 -0.08)">
       <defs>
        <path d="M 56.984375 0 
L 49.125 20.125 
L 17.78125 20.125 
L 9.859375 0 
L 0.203125 0 
L 28.265625 68.796875 
L 38.875 68.796875 
L 66.5 0 
z
M 37.5 50.09375 
Q 36.71875 52.046875 36 54.046875 
Q 35.296875 56.0625 34.765625 57.6875 
Q 34.234375 59.328125 33.859375 60.421875 
Q 33.5 61.53125 33.453125 61.765625 
Q 33.34375 61.53125 33 60.40625 
Q 32.671875 59.28125 32.109375 57.609375 
Q 31.546875 55.953125 30.828125 53.953125 
Q 30.125 51.953125 29.390625 50 
L 20.609375 27.390625 
L 46.34375 27.390625 
z
" id="LiberationSans-65"/>
        <path d="M 29.9375 0 
L 19.53125 0 
L 0.34375 52.828125 
L 9.71875 52.828125 
L 21.34375 18.453125 
Q 21.6875 17.390625 22.140625 15.84375 
Q 22.609375 14.3125 23.09375 12.640625 
Q 23.578125 10.984375 24 9.4375 
Q 24.421875 7.90625 24.703125 6.890625 
Q 25 7.90625 25.453125 9.4375 
Q 25.921875 10.984375 26.40625 12.59375 
Q 26.90625 14.203125 27.421875 15.734375 
Q 27.9375 17.28125 28.328125 18.359375 
L 40.328125 52.828125 
L 49.65625 52.828125 
z
" id="LiberationSans-118"/>
       </defs>
       <use xlink:href="#LiberationSans-65"/>
       <use x="66.699219" xlink:href="#LiberationSans-99"/>
       <use x="116.699219" xlink:href="#LiberationSans-116"/>
       <use x="144.482422" xlink:href="#LiberationSans-105"/>
       <use x="166.699219" xlink:href="#LiberationSans-118"/>
       <use x="216.699219" xlink:href="#LiberationSans-97"/>
       <use x="272.314453" xlink:href="#LiberationSans-116"/>
       <use x="300.097656" xlink:href="#LiberationSans-105"/>
       <use x="322.314453" xlink:href="#LiberationSans-111"/>
       <use x="377.929688" xlink:href="#LiberationSans-110"/>
      </g>
     </g>
    </g>
    <g id="xtick_11">
     <g id="line2d_11">
      <g>
       <use style="fill:#262626;stroke:#262626;stroke-width:0.8;" x="102.839937" xlink:href="#md12bb1f047" y="81.9"/>
      </g>
     </g>
     <g id="text_11">
      <!-- all kinetic -->
      <g style="fill:#262626;" transform="translate(104.908687 120.80125)rotate(-90)scale(0.08 -0.08)">
       <use xlink:href="#LiberationSans-97"/>
       <use x="55.615234" xlink:href="#LiberationSans-108"/>
       <use x="77.832031" xlink:href="#LiberationSans-108"/>
       <use x="100.048828" xlink:href="#LiberationSans-32"/>
       <use x="127.832031" xlink:href="#LiberationSans-107"/>
       <use x="177.832031" xlink:href="#LiberationSans-105"/>
       <use x="200.048828" xlink:href="#LiberationSans-110"/>
       <use x="255.664062" xlink:href="#LiberationSans-101"/>
       <use x="311.279297" xlink:href="#LiberationSans-116"/>
       <use x="339.0625" xlink:href="#LiberationSans-105"/>
       <use x="361.279297" xlink:href="#LiberationSans-99"/>
      </g>
     </g>
    </g>
   </g>
   <g id="matplotlib.axis_2">
    <g id="ytick_1">
     <g id="line2d_12">
      <defs>
       <path d="M 0 0 
L -4 0 
" id="m353d30a830" style="stroke:#262626;stroke-width:0.8;"/>
      </defs>
      <g>
       <use style="fill:#262626;stroke:#262626;stroke-width:0.8;" x="15.3" xlink:href="#m353d30a830" y="81.9"/>
      </g>
     </g>
     <g id="text_12">
      <!-- 0 -->
      <g style="fill:#262626;" transform="translate(4.85125 84.79875)scale(0.08 -0.08)">
       <defs>
        <path d="M 51.703125 34.421875 
Q 51.703125 24.515625 49.828125 17.75 
Q 47.953125 10.984375 44.703125 6.8125 
Q 41.453125 2.640625 37.0625 0.828125 
Q 32.671875 -0.984375 27.6875 -0.984375 
Q 22.65625 -0.984375 18.3125 0.828125 
Q 13.96875 2.640625 10.765625 6.78125 
Q 7.5625 10.9375 5.734375 17.703125 
Q 3.90625 24.46875 3.90625 34.421875 
Q 3.90625 44.828125 5.734375 51.640625 
Q 7.5625 58.453125 10.78125 62.5 
Q 14.015625 66.546875 18.40625 68.1875 
Q 22.796875 69.828125 27.984375 69.828125 
Q 32.90625 69.828125 37.21875 68.1875 
Q 41.546875 66.546875 44.765625 62.5 
Q 48 58.453125 49.84375 51.640625 
Q 51.703125 44.828125 51.703125 34.421875 
z
M 42.78125 34.421875 
Q 42.78125 42.625 41.796875 48.0625 
Q 40.828125 53.515625 38.921875 56.765625 
Q 37.015625 60.015625 34.25 61.359375 
Q 31.5 62.703125 27.984375 62.703125 
Q 24.265625 62.703125 21.4375 61.328125 
Q 18.609375 59.96875 16.671875 56.71875 
Q 14.75 53.46875 13.765625 48.015625 
Q 12.796875 42.578125 12.796875 34.421875 
Q 12.796875 26.515625 13.796875 21.09375 
Q 14.796875 15.671875 16.71875 12.375 
Q 18.65625 9.078125 21.4375 7.640625 
Q 24.21875 6.203125 27.78125 6.203125 
Q 31.25 6.203125 34.03125 7.640625 
Q 36.8125 9.078125 38.734375 12.375 
Q 40.671875 15.671875 41.71875 21.09375 
Q 42.78125 26.515625 42.78125 34.421875 
z
" id="LiberationSans-48"/>
       </defs>
       <use xlink:href="#LiberationSans-48"/>
      </g>
     </g>
    </g>
    <g id="ytick_2">
     <g id="line2d_13">
      <g>
       <use style="fill:#262626;stroke:#262626;stroke-width:0.8;" x="15.3" xlink:href="#m353d30a830" y="64.233"/>
      </g>
     </g>
     <g id="text_13">
      <!-- 25 -->
      <g style="fill:#262626;" transform="translate(0.4025 67.13175)scale(0.08 -0.08)">
       <defs>
        <path d="M 51.421875 22.40625 
Q 51.421875 17.234375 49.859375 12.9375 
Q 48.296875 8.640625 45.21875 5.53125 
Q 42.140625 2.4375 37.578125 0.71875 
Q 33.015625 -0.984375 27 -0.984375 
Q 21.578125 -0.984375 17.546875 0.28125 
Q 13.53125 1.5625 10.734375 3.78125 
Q 7.953125 6 6.3125 8.984375 
Q 4.6875 11.96875 4 15.375 
L 12.890625 16.40625 
Q 13.421875 14.453125 14.390625 12.625 
Q 15.375 10.796875 17.0625 9.34375 
Q 18.75 7.90625 21.21875 7.046875 
Q 23.6875 6.203125 27.203125 6.203125 
Q 30.609375 6.203125 33.390625 7.25 
Q 36.1875 8.296875 38.15625 10.34375 
Q 40.140625 12.40625 41.203125 15.375 
Q 42.28125 18.359375 42.28125 22.21875 
Q 42.28125 25.390625 41.25 28.046875 
Q 40.234375 30.71875 38.328125 32.640625 
Q 36.421875 34.578125 33.65625 35.640625 
Q 30.90625 36.71875 27.390625 36.71875 
Q 25.203125 36.71875 23.34375 36.328125 
Q 21.484375 35.9375 19.890625 35.25 
Q 18.3125 34.578125 17.015625 33.671875 
Q 15.71875 32.765625 14.59375 31.78125 
L 6 31.78125 
L 8.296875 68.796875 
L 47.40625 68.796875 
L 47.40625 61.328125 
L 16.3125 61.328125 
L 14.984375 39.5 
Q 17.328125 41.3125 20.84375 42.59375 
Q 24.359375 43.890625 29.203125 43.890625 
Q 34.328125 43.890625 38.421875 42.328125 
Q 42.53125 40.765625 45.40625 37.90625 
Q 48.296875 35.0625 49.859375 31.109375 
Q 51.421875 27.15625 51.421875 22.40625 
z
" id="LiberationSans-53"/>
       </defs>
       <use xlink:href="#LiberationSans-50"/>
       <use x="55.615234" xlink:href="#LiberationSans-53"/>
      </g>
     </g>
    </g>
    <g id="ytick_3">
     <g id="line2d_14">
      <g>
       <use style="fill:#262626;stroke:#262626;stroke-width:0.8;" x="15.3" xlink:href="#m353d30a830" y="46.566"/>
      </g>
     </g>
     <g id="text_14">
      <!-- 50 -->
      <g style="fill:#262626;" transform="translate(0.4025 49.46475)scale(0.08 -0.08)">
       <use xlink:href="#LiberationSans-53"/>
       <use x="55.615234" xlink:href="#LiberationSans-48"/>
      </g>
     </g>
    </g>
    <g id="ytick_4">
     <g id="line2d_15">
      <g>
       <use style="fill:#262626;stroke:#262626;stroke-width:0.8;" x="15.3" xlink:href="#m353d30a830" y="28.899"/>
      </g>
     </g>
     <g id="text_15">
      <!-- 75 -->
      <g style="fill:#262626;" transform="translate(0.4025 31.79775)scale(0.08 -0.08)">
       <use xlink:href="#LiberationSans-55"/>
       <use x="55.615234" xlink:href="#LiberationSans-53"/>
      </g>
     </g>
    </g>
    <g id="ytick_5">
     <g id="line2d_16">
      <g>
       <use style="fill:#262626;stroke:#262626;stroke-width:0.8;" x="15.3" xlink:href="#m353d30a830" y="11.232"/>
      </g>
     </g>
     <g id="text_16">
      <!-- 100 -->
      <g style="fill:#262626;" transform="translate(-4.04625 14.13075)scale(0.08 -0.08)">
       <use xlink:href="#LiberationSans-49"/>
       <use x="55.615234" xlink:href="#LiberationSans-48"/>
       <use x="111.230469" xlink:href="#LiberationSans-48"/>
      </g>
     </g>
    </g>
    <g id="text_17">
     <!-- category assignment (%) -->
     <g style="fill:#262626;" transform="translate(-9.91375 96.333188)rotate(-90)scale(0.09 -0.09)">
      <defs>
       <path d="M 37.5 0 
L 37.5 33.5 
Q 37.5 37.359375 37.015625 39.9375 
Q 36.53125 42.53125 35.375 44.109375 
Q 34.234375 45.703125 32.375 46.359375 
Q 30.515625 47.015625 27.828125 47.015625 
Q 25.046875 47.015625 22.796875 45.921875 
Q 20.5625 44.828125 18.96875 42.75 
Q 17.390625 40.671875 16.53125 37.625 
Q 15.671875 34.578125 15.671875 30.609375 
L 15.671875 0 
L 6.9375 0 
L 6.9375 41.546875 
Q 6.9375 43.21875 6.90625 45.046875 
Q 6.890625 46.875 6.828125 48.5 
Q 6.78125 50.140625 6.734375 51.3125 
Q 6.6875 52.484375 6.640625 52.828125 
L 14.9375 52.828125 
Q 14.984375 52.59375 15.03125 51.515625 
Q 15.09375 50.4375 15.15625 49.046875 
Q 15.234375 47.65625 15.28125 46.21875 
Q 15.328125 44.78125 15.328125 43.796875 
L 15.484375 43.796875 
Q 16.65625 46.09375 18.015625 47.953125 
Q 19.390625 49.8125 21.21875 51.09375 
Q 23.046875 52.390625 25.40625 53.09375 
Q 27.78125 53.8125 30.90625 53.8125 
Q 36.921875 53.8125 40.40625 51.421875 
Q 43.890625 49.03125 45.265625 43.796875 
L 45.40625 43.796875 
Q 46.578125 46.09375 48.046875 47.953125 
Q 49.515625 49.8125 51.46875 51.09375 
Q 53.421875 52.390625 55.859375 53.09375 
Q 58.296875 53.8125 61.421875 53.8125 
Q 65.4375 53.8125 68.328125 52.734375 
Q 71.234375 51.65625 73.09375 49.40625 
Q 74.953125 47.171875 75.828125 43.625 
Q 76.703125 40.09375 76.703125 35.203125 
L 76.703125 0 
L 68.015625 0 
L 68.015625 33.5 
Q 68.015625 37.359375 67.53125 39.9375 
Q 67.046875 42.53125 65.890625 44.109375 
Q 64.75 45.703125 62.890625 46.359375 
Q 61.03125 47.015625 58.34375 47.015625 
Q 55.5625 47.015625 53.3125 45.96875 
Q 51.078125 44.921875 49.484375 42.875 
Q 47.90625 40.828125 47.046875 37.75 
Q 46.1875 34.671875 46.1875 30.609375 
L 46.1875 0 
z
" id="LiberationSans-109"/>
       <path d="M 6.203125 25.984375 
Q 6.203125 32.765625 7.21875 38.96875 
Q 8.25 45.171875 10.4375 50.875 
Q 12.640625 56.59375 16.0625 61.953125 
Q 19.484375 67.328125 24.21875 72.46875 
L 32.71875 72.46875 
Q 28.125 67.328125 24.78125 61.9375 
Q 21.4375 56.546875 19.28125 50.796875 
Q 17.140625 45.0625 16.09375 38.859375 
Q 15.046875 32.671875 15.046875 25.875 
Q 15.046875 19.09375 16.09375 12.890625 
Q 17.140625 6.6875 19.28125 0.921875 
Q 21.4375 -4.828125 24.78125 -10.203125 
Q 28.125 -15.578125 32.71875 -20.703125 
L 24.21875 -20.703125 
Q 19.484375 -15.578125 16.0625 -10.203125 
Q 12.640625 -4.828125 10.4375 0.875 
Q 8.25 6.59375 7.21875 12.765625 
Q 6.203125 18.953125 6.203125 25.78125 
z
" id="LiberationSans-40"/>
       <path d="M 85.359375 21.1875 
Q 85.359375 15.09375 84.109375 10.90625 
Q 82.859375 6.734375 80.734375 4.171875 
Q 78.609375 1.609375 75.78125 0.5 
Q 72.953125 -0.59375 69.734375 -0.59375 
Q 66.5 -0.59375 63.6875 0.5 
Q 60.890625 1.609375 58.8125 4.140625 
Q 56.734375 6.6875 55.53125 10.859375 
Q 54.34375 15.046875 54.34375 21.1875 
Q 54.34375 27.6875 55.515625 31.9375 
Q 56.6875 36.1875 58.78125 38.703125 
Q 60.890625 41.21875 63.75 42.21875 
Q 66.609375 43.21875 69.921875 43.21875 
Q 73.140625 43.21875 75.953125 42.21875 
Q 78.765625 41.21875 80.828125 38.703125 
Q 82.90625 36.1875 84.125 31.9375 
Q 85.359375 27.6875 85.359375 21.1875 
z
M 25.734375 0 
L 18.171875 0 
L 63.1875 68.796875 
L 70.84375 68.796875 
z
M 19.234375 69.390625 
Q 22.359375 69.390625 25.140625 68.390625 
Q 27.9375 67.390625 30.03125 64.890625 
Q 32.125 62.40625 33.3125 58.203125 
Q 34.515625 54 34.515625 47.609375 
Q 34.515625 41.453125 33.296875 37.25 
Q 32.078125 33.0625 30 30.4375 
Q 27.9375 27.828125 25.09375 26.703125 
Q 22.265625 25.59375 19.046875 25.59375 
Q 15.765625 25.59375 12.9375 26.703125 
Q 10.109375 27.828125 8.03125 30.421875 
Q 5.953125 33.015625 4.75 37.203125 
Q 3.5625 41.40625 3.5625 47.609375 
Q 3.5625 54 4.75 58.203125 
Q 5.953125 62.40625 8.046875 64.890625 
Q 10.15625 67.390625 13.03125 68.390625 
Q 15.921875 69.390625 19.234375 69.390625 
z
M 78.125 21.1875 
Q 78.125 26.03125 77.578125 29.21875 
Q 77.046875 32.421875 76 34.328125 
Q 74.953125 36.234375 73.40625 37.015625 
Q 71.875 37.796875 69.921875 37.796875 
Q 67.875 37.796875 66.3125 36.984375 
Q 64.75 36.1875 63.671875 34.28125 
Q 62.59375 32.375 62.0625 29.171875 
Q 61.53125 25.984375 61.53125 21.1875 
Q 61.53125 16.546875 62.078125 13.421875 
Q 62.640625 10.296875 63.6875 8.375 
Q 64.75 6.453125 66.28125 5.609375 
Q 67.828125 4.78125 69.828125 4.78125 
Q 71.734375 4.78125 73.265625 5.609375 
Q 74.8125 6.453125 75.875 8.375 
Q 76.953125 10.296875 77.53125 13.421875 
Q 78.125 16.546875 78.125 21.1875 
z
M 27.34375 47.609375 
Q 27.34375 52.390625 26.796875 55.5625 
Q 26.265625 58.734375 25.234375 60.640625 
Q 24.21875 62.546875 22.703125 63.328125 
Q 21.1875 64.109375 19.234375 64.109375 
Q 17.140625 64.109375 15.546875 63.296875 
Q 13.96875 62.5 12.890625 60.59375 
Q 11.8125 58.6875 11.28125 55.515625 
Q 10.75 52.34375 10.75 47.609375 
Q 10.75 42.96875 11.296875 39.796875 
Q 11.859375 36.625 12.90625 34.6875 
Q 13.96875 32.765625 15.53125 31.9375 
Q 17.09375 31.109375 19.140625 31.109375 
Q 21 31.109375 22.515625 31.9375 
Q 24.03125 32.765625 25.09375 34.6875 
Q 26.171875 36.625 26.75 39.796875 
Q 27.34375 42.96875 27.34375 47.609375 
z
" id="LiberationSans-37"/>
       <path d="M 27.09375 25.78125 
Q 27.09375 18.953125 26.0625 12.765625 
Q 25.046875 6.59375 22.84375 0.875 
Q 20.65625 -4.828125 17.234375 -10.203125 
Q 13.8125 -15.578125 9.078125 -20.703125 
L 0.59375 -20.703125 
Q 5.171875 -15.578125 8.515625 -10.203125 
Q 11.859375 -4.828125 14 0.921875 
Q 16.15625 6.6875 17.203125 12.890625 
Q 18.265625 19.09375 18.265625 25.875 
Q 18.265625 32.671875 17.203125 38.859375 
Q 16.15625 45.0625 14 50.796875 
Q 11.859375 56.546875 8.515625 61.9375 
Q 5.171875 67.328125 0.59375 72.46875 
L 9.078125 72.46875 
Q 13.8125 67.328125 17.234375 61.953125 
Q 20.65625 56.59375 22.84375 50.875 
Q 25.046875 45.171875 26.0625 38.96875 
Q 27.09375 32.765625 27.09375 25.984375 
z
" id="LiberationSans-41"/>
      </defs>
      <use xlink:href="#LiberationSans-99"/>
      <use x="50" xlink:href="#LiberationSans-97"/>
      <use x="105.615234" xlink:href="#LiberationSans-116"/>
      <use x="133.398438" xlink:href="#LiberationSans-101"/>
      <use x="189.013672" xlink:href="#LiberationSans-103"/>
      <use x="244.628906" xlink:href="#LiberationSans-111"/>
      <use x="300.244141" xlink:href="#LiberationSans-114"/>
      <use x="333.544922" xlink:href="#LiberationSans-121"/>
      <use x="383.544922" xlink:href="#LiberationSans-32"/>
      <use x="411.328125" xlink:href="#LiberationSans-97"/>
      <use x="466.943359" xlink:href="#LiberationSans-115"/>
      <use x="516.943359" xlink:href="#LiberationSans-115"/>
      <use x="566.943359" xlink:href="#LiberationSans-105"/>
      <use x="589.160156" xlink:href="#LiberationSans-103"/>
      <use x="644.775391" xlink:href="#LiberationSans-110"/>
      <use x="700.390625" xlink:href="#LiberationSans-109"/>
      <use x="783.691406" xlink:href="#LiberationSans-101"/>
      <use x="839.306641" xlink:href="#LiberationSans-110"/>
      <use x="894.921875" xlink:href="#LiberationSans-116"/>
      <use x="922.705078" xlink:href="#LiberationSans-32"/>
      <use x="950.488281" xlink:href="#LiberationSans-40"/>
      <use x="983.789062" xlink:href="#LiberationSans-37"/>
      <use x="1072.705078" xlink:href="#LiberationSans-41"/>
     </g>
    </g>
   </g>
   <g id="patch_3">
    <path clip-path="url(#p5adb40a36f)" d="M 19.611818 81.9 
L 25.628309 81.9 
L 25.628309 81.9 
L 19.611818 81.9 
z
" style="fill:#800080;stroke:#000000;stroke-linejoin:miter;stroke-width:0.24;"/>
   </g>
   <g id="patch_4">
    <path clip-path="url(#p5adb40a36f)" d="M 27.633805 81.9 
L 33.650296 81.9 
L 33.650296 81.9 
L 27.633805 81.9 
z
" style="fill:#800080;stroke:#000000;stroke-linejoin:miter;stroke-width:0.24;"/>
   </g>
   <g id="patch_5">
    <path clip-path="url(#p5adb40a36f)" d="M 35.655793 81.9 
L 41.672283 81.9 
L 41.672283 81.9 
L 35.655793 81.9 
z
" style="fill:#800080;stroke:#000000;stroke-linejoin:miter;stroke-width:0.24;"/>
   </g>
   <g id="patch_6">
    <path clip-path="url(#p5adb40a36f)" d="M 43.67778 81.9 
L 49.694271 81.9 
L 49.694271 81.9 
L 43.67778 81.9 
z
" style="fill:#800080;stroke:#000000;stroke-linejoin:miter;stroke-width:0.24;"/>
   </g>
   <g id="patch_7">
    <path clip-path="url(#p5adb40a36f)" d="M 51.699767 81.9 
L 57.716258 81.9 
L 57.716258 81.9 
L 51.699767 81.9 
z
" style="fill:#800080;stroke:#000000;stroke-linejoin:miter;stroke-width:0.24;"/>
   </g>
   <g id="patch_8">
    <path clip-path="url(#p5adb40a36f)" d="M 59.721755 81.9 
L 65.738245 81.9 
L 65.738245 81.9 
L 59.721755 81.9 
z
" style="fill:#800080;stroke:#000000;stroke-linejoin:miter;stroke-width:0.24;"/>
   </g>
   <g id="patch_9">
    <path clip-path="url(#p5adb40a36f)" d="M 67.743742 81.9 
L 73.760233 81.9 
L 73.760233 81.9 
L 67.743742 81.9 
z
" style="fill:#800080;stroke:#000000;stroke-linejoin:miter;stroke-width:0.24;"/>
   </g>
   <g id="patch_10">
    <path clip-path="url(#p5adb40a36f)" d="M 75.765729 81.9 
L 81.78222 81.9 
L 81.78222 81.9 
L 75.765729 81.9 
z
" style="fill:#800080;stroke:#000000;stroke-linejoin:miter;stroke-width:0.24;"/>
   </g>
   <g id="patch_11">
    <path clip-path="url(#p5adb40a36f)" d="M 83.787717 81.9 
L 89.804207 81.9 
L 89.804207 81.9 
L 83.787717 81.9 
z
" style="fill:#800080;stroke:#000000;stroke-linejoin:miter;stroke-width:0.24;"/>
   </g>
   <g id="patch_12">
    <path clip-path="url(#p5adb40a36f)" d="M 91.809704 81.9 
L 97.826195 81.9 
L 97.826195 81.9 
L 91.809704 81.9 
z
" style="fill:#800080;stroke:#000000;stroke-linejoin:miter;stroke-width:0.24;"/>
   </g>
   <g id="patch_13">
    <path clip-path="url(#p5adb40a36f)" d="M 99.831691 81.9 
L 105.848182 81.9 
L 105.848182 81.777586 
L 99.831691 81.777586 
z
" style="fill:#800080;stroke:#000000;stroke-linejoin:miter;stroke-width:0.24;"/>
   </g>
   <g id="patch_14">
    <path clip-path="url(#p5adb40a36f)" d="M 19.611818 81.9 
L 25.628309 81.9 
L 25.628309 64.542947 
L 19.611818 64.542947 
z
" style="fill:#8c8c8c;stroke:#000000;stroke-linejoin:miter;stroke-width:0.24;"/>
   </g>
   <g id="patch_15">
    <path clip-path="url(#p5adb40a36f)" d="M 27.633805 81.9 
L 33.650296 81.9 
L 33.650296 63.663097 
L 27.633805 63.663097 
z
" style="fill:#8c8c8c;stroke:#000000;stroke-linejoin:miter;stroke-width:0.24;"/>
   </g>
   <g id="patch_16">
    <path clip-path="url(#p5adb40a36f)" d="M 35.655793 81.9 
L 41.672283 81.9 
L 41.672283 71.2998 
L 35.655793 71.2998 
z
" style="fill:#8c8c8c;stroke:#000000;stroke-linejoin:miter;stroke-width:0.24;"/>
   </g>
   <g id="patch_17">
    <path clip-path="url(#p5adb40a36f)" d="M 43.67778 81.9 
L 49.694271 81.9 
L 49.694271 65.547074 
L 43.67778 65.547074 
z
" style="fill:#8c8c8c;stroke:#000000;stroke-linejoin:miter;stroke-width:0.24;"/>
   </g>
   <g id="patch_18">
    <path clip-path="url(#p5adb40a36f)" d="M 51.699767 81.9 
L 57.716258 81.9 
L 57.716258 63.544675 
L 51.699767 63.544675 
z
" style="fill:#8c8c8c;stroke:#000000;stroke-linejoin:miter;stroke-width:0.24;"/>
   </g>
   <g id="patch_19">
    <path clip-path="url(#p5adb40a36f)" d="M 59.721755 81.9 
L 65.738245 81.9 
L 65.738245 74.971765 
L 59.721755 74.971765 
z
" style="fill:#8c8c8c;stroke:#000000;stroke-linejoin:miter;stroke-width:0.24;"/>
   </g>
   <g id="patch_20">
    <path clip-path="url(#p5adb40a36f)" d="M 67.743742 81.9 
L 73.760233 81.9 
L 73.760233 66.82416 
L 67.743742 66.82416 
z
" style="fill:#8c8c8c;stroke:#000000;stroke-linejoin:miter;stroke-width:0.24;"/>
   </g>
   <g id="patch_21">
    <path clip-path="url(#p5adb40a36f)" d="M 75.765729 81.9 
L 81.78222 81.9 
L 81.78222 66.537391 
L 75.765729 66.537391 
z
" style="fill:#8c8c8c;stroke:#000000;stroke-linejoin:miter;stroke-width:0.24;"/>
   </g>
   <g id="patch_22">
    <path clip-path="url(#p5adb40a36f)" d="M 83.787717 81.9 
L 89.804207 81.9 
L 89.804207 69.376557 
L 83.787717 69.376557 
z
" style="fill:#8c8c8c;stroke:#000000;stroke-linejoin:miter;stroke-width:0.24;"/>
   </g>
   <g id="patch_23">
    <path clip-path="url(#p5adb40a36f)" d="M 91.809704 81.9 
L 97.826195 81.9 
L 97.826195 66.839607 
L 91.809704 66.839607 
z
" style="fill:#8c8c8c;stroke:#000000;stroke-linejoin:miter;stroke-width:0.24;"/>
   </g>
   <g id="patch_24">
    <path clip-path="url(#p5adb40a36f)" d="M 99.831691 81.777586 
L 105.848182 81.777586 
L 105.848182 63.870129 
L 99.831691 63.870129 
z
" style="fill:#8c8c8c;stroke:#000000;stroke-linejoin:miter;stroke-width:0.24;"/>
   </g>
   <g id="patch_25">
    <path clip-path="url(#p5adb40a36f)" d="M 19.611818 64.542947 
L 25.628309 64.542947 
L 25.628309 36.234421 
L 19.611818 36.234421 
z
" style="fill:#55a868;stroke:#000000;stroke-linejoin:miter;stroke-width:0.24;"/>
   </g>
   <g id="patch_26">
    <path clip-path="url(#p5adb40a36f)" d="M 27.633805 63.663097 
L 33.650296 63.663097 
L 33.650296 34.028129 
L 27.633805 34.028129 
z
" style="fill:#55a868;stroke:#000000;stroke-linejoin:miter;stroke-width:0.24;"/>
   </g>
   <g id="patch_27">
    <path clip-path="url(#p5adb40a36f)" d="M 35.655793 71.2998 
L 41.672283 71.2998 
L 41.672283 41.2659 
L 35.655793 41.2659 
z
" style="fill:#55a868;stroke:#000000;stroke-linejoin:miter;stroke-width:0.24;"/>
   </g>
   <g id="patch_28">
    <path clip-path="url(#p5adb40a36f)" d="M 43.67778 65.547074 
L 49.694271 65.547074 
L 49.694271 45.105917 
L 43.67778 45.105917 
z
" style="fill:#55a868;stroke:#000000;stroke-linejoin:miter;stroke-width:0.24;"/>
   </g>
   <g id="patch_29">
    <path clip-path="url(#p5adb40a36f)" d="M 51.699767 63.544675 
L 57.716258 63.544675 
L 57.716258 46.107117 
L 51.699767 46.107117 
z
" style="fill:#55a868;stroke:#000000;stroke-linejoin:miter;stroke-width:0.24;"/>
   </g>
   <g id="patch_30">
    <path clip-path="url(#p5adb40a36f)" d="M 59.721755 74.971765 
L 65.738245 74.971765 
L 65.738245 41.716235 
L 59.721755 41.716235 
z
" style="fill:#55a868;stroke:#000000;stroke-linejoin:miter;stroke-width:0.24;"/>
   </g>
   <g id="patch_31">
    <path clip-path="url(#p5adb40a36f)" d="M 67.743742 66.82416 
L 73.760233 66.82416 
L 73.760233 31.96128 
L 67.743742 31.96128 
z
" style="fill:#55a868;stroke:#000000;stroke-linejoin:miter;stroke-width:0.24;"/>
   </g>
   <g id="patch_32">
    <path clip-path="url(#p5adb40a36f)" d="M 75.765729 66.537391 
L 81.78222 66.537391 
L 81.78222 41.957217 
L 75.765729 41.957217 
z
" style="fill:#55a868;stroke:#000000;stroke-linejoin:miter;stroke-width:0.24;"/>
   </g>
   <g id="patch_33">
    <path clip-path="url(#p5adb40a36f)" d="M 83.787717 69.376557 
L 89.804207 69.376557 
L 89.804207 40.751544 
L 83.787717 40.751544 
z
" style="fill:#55a868;stroke:#000000;stroke-linejoin:miter;stroke-width:0.24;"/>
   </g>
   <g id="patch_34">
    <path clip-path="url(#p5adb40a36f)" d="M 91.809704 66.839607 
L 97.826195 66.839607 
L 97.826195 38.649639 
L 91.809704 38.649639 
z
" style="fill:#55a868;stroke:#000000;stroke-linejoin:miter;stroke-width:0.24;"/>
   </g>
   <g id="patch_35">
    <path clip-path="url(#p5adb40a36f)" d="M 99.831691 63.870129 
L 105.848182 63.870129 
L 105.848182 41.031127 
L 99.831691 41.031127 
z
" style="fill:#55a868;stroke:#000000;stroke-linejoin:miter;stroke-width:0.24;"/>
   </g>
   <g id="patch_36">
    <path clip-path="url(#p5adb40a36f)" d="M 19.611818 36.234421 
L 25.628309 36.234421 
L 25.628309 11.232 
L 19.611818 11.232 
z
" style="fill:#4c72b0;stroke:#000000;stroke-linejoin:miter;stroke-width:0.24;"/>
   </g>
   <g id="patch_37">
    <path clip-path="url(#p5adb40a36f)" d="M 27.633805 34.028129 
L 33.650296 34.028129 
L 33.650296 11.232 
L 27.633805 11.232 
z
" style="fill:#4c72b0;stroke:#000000;stroke-linejoin:miter;stroke-width:0.24;"/>
   </g>
   <g id="patch_38">
    <path clip-path="url(#p5adb40a36f)" d="M 35.655793 41.2659 
L 41.672283 41.2659 
L 41.672283 11.232 
L 35.655793 11.232 
z
" style="fill:#4c72b0;stroke:#000000;stroke-linejoin:miter;stroke-width:0.24;"/>
   </g>
   <g id="patch_39">
    <path clip-path="url(#p5adb40a36f)" d="M 43.67778 45.105917 
L 49.694271 45.105917 
L 49.694271 11.232 
L 43.67778 11.232 
z
" style="fill:#4c72b0;stroke:#000000;stroke-linejoin:miter;stroke-width:0.24;"/>
   </g>
   <g id="patch_40">
    <path clip-path="url(#p5adb40a36f)" d="M 51.699767 46.107117 
L 57.716258 46.107117 
L 57.716258 11.232 
L 51.699767 11.232 
z
" style="fill:#4c72b0;stroke:#000000;stroke-linejoin:miter;stroke-width:0.24;"/>
   </g>
   <g id="patch_41">
    <path clip-path="url(#p5adb40a36f)" d="M 59.721755 41.716235 
L 65.738245 41.716235 
L 65.738245 11.232 
L 59.721755 11.232 
z
" style="fill:#4c72b0;stroke:#000000;stroke-linejoin:miter;stroke-width:0.24;"/>
   </g>
   <g id="patch_42">
    <path clip-path="url(#p5adb40a36f)" d="M 67.743742 31.96128 
L 73.760233 31.96128 
L 73.760233 11.232 
L 67.743742 11.232 
z
" style="fill:#4c72b0;stroke:#000000;stroke-linejoin:miter;stroke-width:0.24;"/>
   </g>
   <g id="patch_43">
    <path clip-path="url(#p5adb40a36f)" d="M 75.765729 41.957217 
L 81.78222 41.957217 
L 81.78222 11.232 
L 75.765729 11.232 
z
" style="fill:#4c72b0;stroke:#000000;stroke-linejoin:miter;stroke-width:0.24;"/>
   </g>
   <g id="patch_44">
    <path clip-path="url(#p5adb40a36f)" d="M 83.787717 40.751544 
L 89.804207 40.751544 
L 89.804207 11.232 
L 83.787717 11.232 
z
" style="fill:#4c72b0;stroke:#000000;stroke-linejoin:miter;stroke-width:0.24;"/>
   </g>
   <g id="patch_45">
    <path clip-path="url(#p5adb40a36f)" d="M 91.809704 38.649639 
L 97.826195 38.649639 
L 97.826195 11.232 
L 91.809704 11.232 
z
" style="fill:#4c72b0;stroke:#000000;stroke-linejoin:miter;stroke-width:0.24;"/>
   </g>
   <g id="patch_46">
    <path clip-path="url(#p5adb40a36f)" d="M 99.831691 41.031127 
L 105.848182 41.031127 
L 105.848182 11.232 
L 99.831691 11.232 
z
" style="fill:#4c72b0;stroke:#000000;stroke-linejoin:miter;stroke-width:0.24;"/>
   </g>
   <g id="patch_47">
    <path d="M 15.3 81.9 
L 15.3 11.232 
" style="fill:none;stroke:#262626;stroke-linecap:square;stroke-linejoin:miter;"/>
   </g>
   <g id="patch_48">
    <path d="M 110.16 81.9 
L 110.16 11.232 
" style="fill:none;stroke:#262626;stroke-linecap:square;stroke-linejoin:miter;"/>
   </g>
   <g id="patch_49">
    <path d="M 15.3 81.9 
L 110.16 81.9 
" style="fill:none;stroke:#262626;stroke-linecap:square;stroke-linejoin:miter;"/>
   </g>
   <g id="patch_50">
    <path d="M 15.3 11.232 
L 110.16 11.232 
" style="fill:none;stroke:#262626;stroke-linecap:square;stroke-linejoin:miter;"/>
   </g>
   <g id="legend_1">
    <g id="text_18">
     <!-- winner -->
     <g style="fill:#262626;" transform="translate(48.001875 26.795)scale(0.1 -0.1)">
      <defs>
       <path d="M 57.328125 0 
L 47.125 0 
L 38.671875 34.078125 
Q 38.28125 35.40625 37.859375 37.359375 
Q 37.453125 39.3125 37.0625 41.15625 
Q 36.578125 43.3125 36.140625 45.609375 
Q 35.6875 43.40625 35.203125 41.265625 
Q 34.8125 39.40625 34.34375 37.40625 
Q 33.890625 35.40625 33.5 33.890625 
L 24.8125 0 
L 14.65625 0 
L -0.140625 52.828125 
L 8.546875 52.828125 
L 17.484375 16.9375 
Q 17.828125 15.828125 18.15625 14.1875 
Q 18.5 12.546875 18.84375 10.984375 
Q 19.1875 9.1875 19.578125 7.28125 
Q 19.96875 9.125 20.40625 10.890625 
Q 20.796875 12.40625 21.1875 13.96875 
Q 21.578125 15.53125 21.875 16.546875 
L 31.453125 52.828125 
L 40.875 52.828125 
L 50.09375 16.546875 
Q 50.4375 15.28125 50.828125 13.671875 
Q 51.21875 12.0625 51.5625 10.640625 
Q 51.953125 8.984375 52.34375 7.28125 
Q 52.734375 9.125 53.125 10.890625 
Q 53.46875 12.40625 53.828125 14.03125 
Q 54.203125 15.671875 54.546875 16.9375 
L 63.875 52.828125 
L 72.46875 52.828125 
z
" id="LiberationSans-119"/>
      </defs>
      <use xlink:href="#LiberationSans-119"/>
      <use x="72.216797" xlink:href="#LiberationSans-105"/>
      <use x="94.433594" xlink:href="#LiberationSans-110"/>
      <use x="150.048828" xlink:href="#LiberationSans-110"/>
      <use x="205.664062" xlink:href="#LiberationSans-101"/>
      <use x="261.279297" xlink:href="#LiberationSans-114"/>
     </g>
    </g>
    <g id="patch_51">
     <path d="M 37.523125 38.6675 
L 53.523125 38.6675 
L 53.523125 33.0675 
L 37.523125 33.0675 
z
" style="fill:#4c72b0;stroke:#000000;stroke-linejoin:miter;stroke-width:0.24;"/>
    </g>
    <g id="text_19">
     <!-- gamma -->
     <g style="fill:#262626;" transform="translate(59.923125 38.6675)scale(0.08 -0.08)">
      <use xlink:href="#LiberationSans-103"/>
      <use x="55.615234" xlink:href="#LiberationSans-97"/>
      <use x="111.230469" xlink:href="#LiberationSans-109"/>
      <use x="194.53125" xlink:href="#LiberationSans-109"/>
      <use x="277.832031" xlink:href="#LiberationSans-97"/>
     </g>
    </g>
    <g id="patch_52">
     <path d="M 37.523125 50.125 
L 53.523125 50.125 
L 53.523125 44.525 
L 37.523125 44.525 
z
" style="fill:#55a868;stroke:#000000;stroke-linejoin:miter;stroke-width:0.24;"/>
    </g>
    <g id="text_20">
     <!-- expo -->
     <g style="fill:#262626;" transform="translate(59.923125 50.125)scale(0.08 -0.08)">
      <defs>
       <path d="M 39.109375 0 
L 24.90625 21.6875 
L 10.59375 0 
L 1.125 0 
L 19.921875 27.15625 
L 2 52.828125 
L 11.71875 52.828125 
L 24.90625 32.28125 
L 37.984375 52.828125 
L 47.796875 52.828125 
L 29.890625 27.25 
L 48.921875 0 
z
" id="LiberationSans-120"/>
      </defs>
      <use xlink:href="#LiberationSans-101"/>
      <use x="55.615234" xlink:href="#LiberationSans-120"/>
      <use x="105.615234" xlink:href="#LiberationSans-112"/>
      <use x="161.230469" xlink:href="#LiberationSans-111"/>
     </g>
    </g>
    <g id="patch_53">
     <path d="M 37.523125 61.5825 
L 53.523125 61.5825 
L 53.523125 55.9825 
L 37.523125 55.9825 
z
" style="fill:#8c8c8c;stroke:#000000;stroke-linejoin:miter;stroke-width:0.24;"/>
    </g>
    <g id="text_21">
     <!-- other -->
     <g style="fill:#262626;" transform="translate(59.923125 61.5825)scale(0.08 -0.08)">
      <use xlink:href="#LiberationSans-111"/>
      <use x="55.615234" xlink:href="#LiberationSans-116"/>
      <use x="83.398438" xlink:href="#LiberationSans-104"/>
      <use x="139.013672" xlink:href="#LiberationSans-101"/>
      <use x="194.628906" xlink:href="#LiberationSans-114"/>
     </g>
    </g>
    <g id="patch_54">
     <path d="M 37.523125 73.04 
L 53.523125 73.04 
L 53.523125 67.44 
L 37.523125 67.44 
z
" style="fill:#800080;stroke:#000000;stroke-linejoin:miter;stroke-width:0.24;"/>
    </g>
    <g id="text_22">
     <!-- bimodal -->
     <g style="fill:#262626;" transform="translate(59.923125 73.04)scale(0.08 -0.08)">
      <defs>
       <path d="M 51.421875 26.65625 
Q 51.421875 -0.984375 31.984375 -0.984375 
Q 25.984375 -0.984375 22 1.1875 
Q 18.015625 3.375 15.53125 8.203125 
L 15.4375 8.203125 
Q 15.4375 6.9375 15.359375 5.5625 
Q 15.28125 4.203125 15.203125 3.03125 
Q 15.140625 1.859375 15.0625 1.03125 
Q 14.984375 0.203125 14.9375 0 
L 6.453125 0 
Q 6.5 0.4375 6.546875 1.484375 
Q 6.59375 2.546875 6.640625 4 
Q 6.6875 5.46875 6.703125 7.21875 
Q 6.734375 8.984375 6.734375 10.890625 
L 6.734375 72.46875 
L 15.53125 72.46875 
L 15.53125 51.8125 
Q 15.53125 50.34375 15.5 49 
Q 15.484375 47.65625 15.4375 46.625 
Q 15.375 45.40625 15.328125 44.34375 
L 15.53125 44.34375 
Q 17.96875 49.421875 22 51.609375 
Q 26.03125 53.8125 31.984375 53.8125 
Q 42 53.8125 46.703125 47.0625 
Q 51.421875 40.328125 51.421875 26.65625 
z
M 42.1875 26.375 
Q 42.1875 31.84375 41.5 35.75 
Q 40.828125 39.65625 39.3125 42.15625 
Q 37.796875 44.671875 35.453125 45.84375 
Q 33.109375 47.015625 29.734375 47.015625 
Q 26.265625 47.015625 23.609375 45.890625 
Q 20.953125 44.78125 19.171875 42.28125 
Q 17.390625 39.796875 16.453125 35.734375 
Q 15.53125 31.6875 15.53125 25.828125 
Q 15.53125 20.171875 16.453125 16.3125 
Q 17.390625 12.453125 19.171875 10.03125 
Q 20.953125 7.625 23.578125 6.5625 
Q 26.21875 5.515625 29.640625 5.515625 
Q 32.859375 5.515625 35.203125 6.640625 
Q 37.546875 7.765625 39.109375 10.25 
Q 40.671875 12.75 41.421875 16.71875 
Q 42.1875 20.703125 42.1875 26.375 
z
" id="LiberationSans-98"/>
       <path d="M 40.09375 8.5 
Q 37.640625 3.421875 33.609375 1.21875 
Q 29.59375 -0.984375 23.640625 -0.984375 
Q 13.625 -0.984375 8.90625 5.75 
Q 4.203125 12.5 4.203125 26.171875 
Q 4.203125 53.8125 23.640625 53.8125 
Q 29.640625 53.8125 33.640625 51.609375 
Q 37.640625 49.421875 40.09375 44.625 
L 40.1875 44.625 
Q 40.1875 45.125 40.15625 46.171875 
Q 40.140625 47.21875 40.109375 48.359375 
Q 40.09375 49.515625 40.09375 50.53125 
Q 40.09375 51.5625 40.09375 52 
L 40.09375 72.46875 
L 48.875 72.46875 
L 48.875 10.890625 
Q 48.875 8.984375 48.890625 7.21875 
Q 48.921875 5.46875 48.96875 4 
Q 49.03125 2.546875 49.078125 1.484375 
Q 49.125 0.4375 49.171875 0 
L 40.765625 0 
Q 40.671875 0.484375 40.59375 1.390625 
Q 40.53125 2.296875 40.453125 3.46875 
Q 40.375 4.640625 40.328125 5.9375 
Q 40.28125 7.234375 40.28125 8.5 
z
M 13.421875 26.46875 
Q 13.421875 21 14.109375 17.09375 
Q 14.796875 13.1875 16.3125 10.671875 
Q 17.828125 8.15625 20.171875 6.984375 
Q 22.515625 5.8125 25.875 5.8125 
Q 29.34375 5.8125 32 6.9375 
Q 34.671875 8.0625 36.453125 10.578125 
Q 38.234375 13.09375 39.15625 17.140625 
Q 40.09375 21.1875 40.09375 27.046875 
Q 40.09375 32.671875 39.15625 36.546875 
Q 38.234375 40.4375 36.421875 42.828125 
Q 34.625 45.21875 32 46.265625 
Q 29.390625 47.3125 25.984375 47.3125 
Q 22.75 47.3125 20.40625 46.1875 
Q 18.0625 45.0625 16.5 42.578125 
Q 14.9375 40.09375 14.171875 36.109375 
Q 13.421875 32.125 13.421875 26.46875 
z
" id="LiberationSans-100"/>
      </defs>
      <use xlink:href="#LiberationSans-98"/>
      <use x="55.615234" xlink:href="#LiberationSans-105"/>
      <use x="77.832031" xlink:href="#LiberationSans-109"/>
      <use x="161.132812" xlink:href="#LiberationSans-111"/>
      <use x="216.748047" xlink:href="#LiberationSans-100"/>
      <use x="272.363281" xlink:href="#LiberationSans-97"/>
      <use x="327.978516" xlink:href="#LiberationSans-108"/>
     </g>
    </g>
   </g>
  </g>
 </g>
 <defs>
  <clipPath id="p5adb40a36f">
   <rect height="70.668" width="94.86" x="15.3" y="11.232"/>
  </clipPath>
 </defs>
</svg>
