<?xml version="1.0" encoding="utf-8" standalone="no"?>
<!DOCTYPE svg PUBLIC "-//W3C//DTD SVG 1.1//EN"
  "http://www.w3.org/Graphics/SVG/1.1/DTD/svg11.dtd">
<svg xmlns:xlink="http://www.w3.org/1999/xlink" width="335.166621pt" height="153.839375pt" viewBox="0 0 335.166621 153.839375" xmlns="http://www.w3.org/2000/svg" version="1.1">
 <metadata>
  <rdf:RDF xmlns:dc="http://purl.org/dc/elements/1.1/" xmlns:cc="http://creativecommons.org/ns#" xmlns:rdf="http://www.w3.org/1999/02/22-rdf-syntax-ns#">
   <cc:Work>
    <dc:type rdf:resource="http://purl.org/dc/dcmitype/StillImage"/>
    <dc:date>2022-10-19T18:01:17.010294</dc:date>
    <dc:format>image/svg+xml</dc:format>
    <dc:creator>
     <cc:Agent>
      <dc:title>Matplotlib v3.5.1, https://matplotlib.org/</dc:title>
     </cc:Agent>
    </dc:creator>
   </cc:Work>
  </rdf:RDF>
 </metadata>
 <defs>
  <style type="text/css">*{stroke-linejoin: round; stroke-linecap: butt}</style>
 </defs>
 <g id="figure_1">
  <g id="patch_1">
   <path d="M -0 153.839375 
L 335.166621 153.839375 
L 335.166621 0 
L -0 0 
z
" style="fill: #ffffff"/>
  </g>
  <g id="axes_1">
   <g id="patch_2">
    <path d="M 36.765938 113.508125 
L 273.039121 113.508125 
L 273.039121 10.063125 
L 36.765938 10.063125 
z
" style="fill: #ffffff"/>
   </g>
   <g id="matplotlib.axis_1">
    <g id="xtick_1">
     <g id="line2d_1">
      <defs>
       <path id="mc89fe3fb29" d="M 0 0 
L 0 4 
" style="stroke: #262626; stroke-width: 0.8"/>
      </defs>
      <g>
       <use xlink:href="#mc89fe3fb29" x="46.610653" y="113.508125" style="fill: #262626; stroke: #262626; stroke-width: 0.8"/>
      </g>
     </g>
     <g id="text_1">
      <!-- Craw. 1 -->
      <g style="fill: #262626" transform="translate(48.678778 146.629375)rotate(-90)scale(0.08 -0.08)">
       <defs>
        <path id="ArialMT-43" d="M 3763 1606 
L 4369 1453 
Q 4178 706 3683 314 
Q 3188 -78 2472 -78 
Q 1731 -78 1267 223 
Q 803 525 561 1097 
Q 319 1669 319 2325 
Q 319 3041 592 3573 
Q 866 4106 1370 4382 
Q 1875 4659 2481 4659 
Q 3169 4659 3637 4309 
Q 4106 3959 4291 3325 
L 3694 3184 
Q 3534 3684 3231 3912 
Q 2928 4141 2469 4141 
Q 1941 4141 1586 3887 
Q 1231 3634 1087 3207 
Q 944 2781 944 2328 
Q 944 1744 1114 1308 
Q 1284 872 1643 656 
Q 2003 441 2422 441 
Q 2931 441 3284 734 
Q 3638 1028 3763 1606 
z
" transform="scale(0.015625)"/>
        <path id="ArialMT-72" d="M 416 0 
L 416 3319 
L 922 3319 
L 922 2816 
Q 1116 3169 1280 3281 
Q 1444 3394 1641 3394 
Q 1925 3394 2219 3213 
L 2025 2691 
Q 1819 2813 1613 2813 
Q 1428 2813 1281 2702 
Q 1134 2591 1072 2394 
Q 978 2094 978 1738 
L 978 0 
L 416 0 
z
" transform="scale(0.015625)"/>
        <path id="ArialMT-61" d="M 2588 409 
Q 2275 144 1986 34 
Q 1697 -75 1366 -75 
Q 819 -75 525 192 
Q 231 459 231 875 
Q 231 1119 342 1320 
Q 453 1522 633 1644 
Q 813 1766 1038 1828 
Q 1203 1872 1538 1913 
Q 2219 1994 2541 2106 
Q 2544 2222 2544 2253 
Q 2544 2597 2384 2738 
Q 2169 2928 1744 2928 
Q 1347 2928 1158 2789 
Q 969 2650 878 2297 
L 328 2372 
Q 403 2725 575 2942 
Q 747 3159 1072 3276 
Q 1397 3394 1825 3394 
Q 2250 3394 2515 3294 
Q 2781 3194 2906 3042 
Q 3031 2891 3081 2659 
Q 3109 2516 3109 2141 
L 3109 1391 
Q 3109 606 3145 398 
Q 3181 191 3288 0 
L 2700 0 
Q 2613 175 2588 409 
z
M 2541 1666 
Q 2234 1541 1622 1453 
Q 1275 1403 1131 1340 
Q 988 1278 909 1158 
Q 831 1038 831 891 
Q 831 666 1001 516 
Q 1172 366 1500 366 
Q 1825 366 2078 508 
Q 2331 650 2450 897 
Q 2541 1088 2541 1459 
L 2541 1666 
z
" transform="scale(0.015625)"/>
        <path id="ArialMT-77" d="M 1034 0 
L 19 3319 
L 600 3319 
L 1128 1403 
L 1325 691 
Q 1338 744 1497 1375 
L 2025 3319 
L 2603 3319 
L 3100 1394 
L 3266 759 
L 3456 1400 
L 4025 3319 
L 4572 3319 
L 3534 0 
L 2950 0 
L 2422 1988 
L 2294 2553 
L 1622 0 
L 1034 0 
z
" transform="scale(0.015625)"/>
        <path id="ArialMT-2e" d="M 581 0 
L 581 641 
L 1222 641 
L 1222 0 
L 581 0 
z
" transform="scale(0.015625)"/>
        <path id="ArialMT-20" transform="scale(0.015625)"/>
        <path id="ArialMT-31" d="M 2384 0 
L 1822 0 
L 1822 3584 
Q 1619 3391 1289 3197 
Q 959 3003 697 2906 
L 697 3450 
Q 1169 3672 1522 3987 
Q 1875 4303 2022 4600 
L 2384 4600 
L 2384 0 
z
" transform="scale(0.015625)"/>
       </defs>
       <use xlink:href="#ArialMT-43"/>
       <use xlink:href="#ArialMT-72" x="72.216797"/>
       <use xlink:href="#ArialMT-61" x="105.517578"/>
       <use xlink:href="#ArialMT-77" x="161.132812"/>
       <use xlink:href="#ArialMT-2e" x="227.849609"/>
       <use xlink:href="#ArialMT-20" x="255.632812"/>
       <use xlink:href="#ArialMT-31" x="283.416016"/>
      </g>
     </g>
    </g>
    <g id="xtick_2">
     <g id="line2d_2">
      <g>
       <use xlink:href="#mc89fe3fb29" x="66.300085" y="113.508125" style="fill: #262626; stroke: #262626; stroke-width: 0.8"/>
      </g>
     </g>
     <g id="text_2">
      <!-- Craw. 2 -->
      <g style="fill: #262626" transform="translate(68.36821 146.629375)rotate(-90)scale(0.08 -0.08)">
       <defs>
        <path id="ArialMT-32" d="M 3222 541 
L 3222 0 
L 194 0 
Q 188 203 259 391 
Q 375 700 629 1000 
Q 884 1300 1366 1694 
Q 2113 2306 2375 2664 
Q 2638 3022 2638 3341 
Q 2638 3675 2398 3904 
Q 2159 4134 1775 4134 
Q 1369 4134 1125 3890 
Q 881 3647 878 3216 
L 300 3275 
Q 359 3922 746 4261 
Q 1134 4600 1788 4600 
Q 2447 4600 2831 4234 
Q 3216 3869 3216 3328 
Q 3216 3053 3103 2787 
Q 2991 2522 2730 2228 
Q 2469 1934 1863 1422 
Q 1356 997 1212 845 
Q 1069 694 975 541 
L 3222 541 
z
" transform="scale(0.015625)"/>
       </defs>
       <use xlink:href="#ArialMT-43"/>
       <use xlink:href="#ArialMT-72" x="72.216797"/>
       <use xlink:href="#ArialMT-61" x="105.517578"/>
       <use xlink:href="#ArialMT-77" x="161.132812"/>
       <use xlink:href="#ArialMT-2e" x="227.849609"/>
       <use xlink:href="#ArialMT-20" x="255.632812"/>
       <use xlink:href="#ArialMT-32" x="283.416016"/>
      </g>
     </g>
    </g>
    <g id="xtick_3">
     <g id="line2d_3">
      <g>
       <use xlink:href="#mc89fe3fb29" x="85.989517" y="113.508125" style="fill: #262626; stroke: #262626; stroke-width: 0.8"/>
      </g>
     </g>
     <g id="text_3">
      <!-- Craw. 3 -->
      <g style="fill: #262626" transform="translate(88.057642 146.629375)rotate(-90)scale(0.08 -0.08)">
       <defs>
        <path id="ArialMT-33" d="M 269 1209 
L 831 1284 
Q 928 806 1161 595 
Q 1394 384 1728 384 
Q 2125 384 2398 659 
Q 2672 934 2672 1341 
Q 2672 1728 2419 1979 
Q 2166 2231 1775 2231 
Q 1616 2231 1378 2169 
L 1441 2663 
Q 1497 2656 1531 2656 
Q 1891 2656 2178 2843 
Q 2466 3031 2466 3422 
Q 2466 3731 2256 3934 
Q 2047 4138 1716 4138 
Q 1388 4138 1169 3931 
Q 950 3725 888 3313 
L 325 3413 
Q 428 3978 793 4289 
Q 1159 4600 1703 4600 
Q 2078 4600 2393 4439 
Q 2709 4278 2876 4000 
Q 3044 3722 3044 3409 
Q 3044 3113 2884 2869 
Q 2725 2625 2413 2481 
Q 2819 2388 3044 2092 
Q 3269 1797 3269 1353 
Q 3269 753 2831 336 
Q 2394 -81 1725 -81 
Q 1122 -81 723 278 
Q 325 638 269 1209 
z
" transform="scale(0.015625)"/>
       </defs>
       <use xlink:href="#ArialMT-43"/>
       <use xlink:href="#ArialMT-72" x="72.216797"/>
       <use xlink:href="#ArialMT-61" x="105.517578"/>
       <use xlink:href="#ArialMT-77" x="161.132812"/>
       <use xlink:href="#ArialMT-2e" x="227.849609"/>
       <use xlink:href="#ArialMT-20" x="255.632812"/>
       <use xlink:href="#ArialMT-33" x="283.416016"/>
      </g>
     </g>
    </g>
    <g id="xtick_4">
     <g id="line2d_4">
      <g>
       <use xlink:href="#mc89fe3fb29" x="105.678949" y="113.508125" style="fill: #262626; stroke: #262626; stroke-width: 0.8"/>
      </g>
     </g>
     <g id="text_4">
      <!-- Craw. 4 -->
      <g style="fill: #262626" transform="translate(107.747074 146.629375)rotate(-90)scale(0.08 -0.08)">
       <defs>
        <path id="ArialMT-34" d="M 2069 0 
L 2069 1097 
L 81 1097 
L 81 1613 
L 2172 4581 
L 2631 4581 
L 2631 1613 
L 3250 1613 
L 3250 1097 
L 2631 1097 
L 2631 0 
L 2069 0 
z
M 2069 1613 
L 2069 3678 
L 634 1613 
L 2069 1613 
z
" transform="scale(0.015625)"/>
       </defs>
       <use xlink:href="#ArialMT-43"/>
       <use xlink:href="#ArialMT-72" x="72.216797"/>
       <use xlink:href="#ArialMT-61" x="105.517578"/>
       <use xlink:href="#ArialMT-77" x="161.132812"/>
       <use xlink:href="#ArialMT-2e" x="227.849609"/>
       <use xlink:href="#ArialMT-20" x="255.632812"/>
       <use xlink:href="#ArialMT-34" x="283.416016"/>
      </g>
     </g>
    </g>
    <g id="xtick_5">
     <g id="line2d_5">
      <g>
       <use xlink:href="#mc89fe3fb29" x="125.368381" y="113.508125" style="fill: #262626; stroke: #262626; stroke-width: 0.8"/>
      </g>
     </g>
     <g id="text_5">
      <!-- Nir 1 -->
      <g style="fill: #262626" transform="translate(127.436506 136.398125)rotate(-90)scale(0.08 -0.08)">
       <defs>
        <path id="ArialMT-4e" d="M 488 0 
L 488 4581 
L 1109 4581 
L 3516 984 
L 3516 4581 
L 4097 4581 
L 4097 0 
L 3475 0 
L 1069 3600 
L 1069 0 
L 488 0 
z
" transform="scale(0.015625)"/>
        <path id="ArialMT-69" d="M 425 3934 
L 425 4581 
L 988 4581 
L 988 3934 
L 425 3934 
z
M 425 0 
L 425 3319 
L 988 3319 
L 988 0 
L 425 0 
z
" transform="scale(0.015625)"/>
       </defs>
       <use xlink:href="#ArialMT-4e"/>
       <use xlink:href="#ArialMT-69" x="72.216797"/>
       <use xlink:href="#ArialMT-72" x="94.433594"/>
       <use xlink:href="#ArialMT-20" x="127.734375"/>
       <use xlink:href="#ArialMT-31" x="155.517578"/>
      </g>
     </g>
    </g>
    <g id="xtick_6">
     <g id="line2d_6">
      <g>
       <use xlink:href="#mc89fe3fb29" x="145.057813" y="113.508125" style="fill: #262626; stroke: #262626; stroke-width: 0.8"/>
      </g>
     </g>
     <g id="text_6">
      <!-- Nir 2 -->
      <g style="fill: #262626" transform="translate(147.125938 136.398125)rotate(-90)scale(0.08 -0.08)">
       <use xlink:href="#ArialMT-4e"/>
       <use xlink:href="#ArialMT-69" x="72.216797"/>
       <use xlink:href="#ArialMT-72" x="94.433594"/>
       <use xlink:href="#ArialMT-20" x="127.734375"/>
       <use xlink:href="#ArialMT-32" x="155.517578"/>
      </g>
     </g>
    </g>
    <g id="xtick_7">
     <g id="line2d_7">
      <g>
       <use xlink:href="#mc89fe3fb29" x="164.747245" y="113.508125" style="fill: #262626; stroke: #262626; stroke-width: 0.8"/>
      </g>
     </g>
     <g id="text_7">
      <!-- Peine 1 -->
      <g style="fill: #262626" transform="translate(166.81537 146.639375)rotate(-90)scale(0.08 -0.08)">
       <defs>
        <path id="ArialMT-50" d="M 494 0 
L 494 4581 
L 2222 4581 
Q 2678 4581 2919 4538 
Q 3256 4481 3484 4323 
Q 3713 4166 3852 3881 
Q 3991 3597 3991 3256 
Q 3991 2672 3619 2267 
Q 3247 1863 2275 1863 
L 1100 1863 
L 1100 0 
L 494 0 
z
M 1100 2403 
L 2284 2403 
Q 2872 2403 3119 2622 
Q 3366 2841 3366 3238 
Q 3366 3525 3220 3729 
Q 3075 3934 2838 4000 
Q 2684 4041 2272 4041 
L 1100 4041 
L 1100 2403 
z
" transform="scale(0.015625)"/>
        <path id="ArialMT-65" d="M 2694 1069 
L 3275 997 
Q 3138 488 2766 206 
Q 2394 -75 1816 -75 
Q 1088 -75 661 373 
Q 234 822 234 1631 
Q 234 2469 665 2931 
Q 1097 3394 1784 3394 
Q 2450 3394 2872 2941 
Q 3294 2488 3294 1666 
Q 3294 1616 3291 1516 
L 816 1516 
Q 847 969 1125 678 
Q 1403 388 1819 388 
Q 2128 388 2347 550 
Q 2566 713 2694 1069 
z
M 847 1978 
L 2700 1978 
Q 2663 2397 2488 2606 
Q 2219 2931 1791 2931 
Q 1403 2931 1139 2672 
Q 875 2413 847 1978 
z
" transform="scale(0.015625)"/>
        <path id="ArialMT-6e" d="M 422 0 
L 422 3319 
L 928 3319 
L 928 2847 
Q 1294 3394 1984 3394 
Q 2284 3394 2536 3286 
Q 2788 3178 2913 3003 
Q 3038 2828 3088 2588 
Q 3119 2431 3119 2041 
L 3119 0 
L 2556 0 
L 2556 2019 
Q 2556 2363 2490 2533 
Q 2425 2703 2258 2804 
Q 2091 2906 1866 2906 
Q 1506 2906 1245 2678 
Q 984 2450 984 1813 
L 984 0 
L 422 0 
z
" transform="scale(0.015625)"/>
       </defs>
       <use xlink:href="#ArialMT-50"/>
       <use xlink:href="#ArialMT-65" x="66.699219"/>
       <use xlink:href="#ArialMT-69" x="122.314453"/>
       <use xlink:href="#ArialMT-6e" x="144.53125"/>
       <use xlink:href="#ArialMT-65" x="200.146484"/>
       <use xlink:href="#ArialMT-20" x="255.761719"/>
       <use xlink:href="#ArialMT-31" x="283.544922"/>
      </g>
     </g>
    </g>
    <g id="xtick_8">
     <g id="line2d_8">
      <g>
       <use xlink:href="#mc89fe3fb29" x="184.436677" y="113.508125" style="fill: #262626; stroke: #262626; stroke-width: 0.8"/>
      </g>
     </g>
     <g id="text_8">
      <!-- Peine 2 -->
      <g style="fill: #262626" transform="translate(186.504802 146.639375)rotate(-90)scale(0.08 -0.08)">
       <use xlink:href="#ArialMT-50"/>
       <use xlink:href="#ArialMT-65" x="66.699219"/>
       <use xlink:href="#ArialMT-69" x="122.314453"/>
       <use xlink:href="#ArialMT-6e" x="144.53125"/>
       <use xlink:href="#ArialMT-65" x="200.146484"/>
       <use xlink:href="#ArialMT-20" x="255.761719"/>
       <use xlink:href="#ArialMT-32" x="283.544922"/>
      </g>
     </g>
    </g>
    <g id="xtick_9">
     <g id="line2d_9">
      <g>
       <use xlink:href="#mc89fe3fb29" x="204.126109" y="113.508125" style="fill: #262626; stroke: #262626; stroke-width: 0.8"/>
      </g>
     </g>
     <g id="text_9">
      <!-- Peine 3 -->
      <g style="fill: #262626" transform="translate(206.194234 146.639375)rotate(-90)scale(0.08 -0.08)">
       <use xlink:href="#ArialMT-50"/>
       <use xlink:href="#ArialMT-65" x="66.699219"/>
       <use xlink:href="#ArialMT-69" x="122.314453"/>
       <use xlink:href="#ArialMT-6e" x="144.53125"/>
       <use xlink:href="#ArialMT-65" x="200.146484"/>
       <use xlink:href="#ArialMT-20" x="255.761719"/>
       <use xlink:href="#ArialMT-33" x="283.544922"/>
      </g>
     </g>
    </g>
    <g id="xtick_10">
     <g id="line2d_10">
      <g>
       <use xlink:href="#mc89fe3fb29" x="223.815541" y="113.508125" style="fill: #262626; stroke: #262626; stroke-width: 0.8"/>
      </g>
     </g>
     <g id="text_10">
      <!-- Peine 4 -->
      <g style="fill: #262626" transform="translate(225.883666 146.639375)rotate(-90)scale(0.08 -0.08)">
       <use xlink:href="#ArialMT-50"/>
       <use xlink:href="#ArialMT-65" x="66.699219"/>
       <use xlink:href="#ArialMT-69" x="122.314453"/>
       <use xlink:href="#ArialMT-6e" x="144.53125"/>
       <use xlink:href="#ArialMT-65" x="200.146484"/>
       <use xlink:href="#ArialMT-20" x="255.761719"/>
       <use xlink:href="#ArialMT-34" x="283.544922"/>
      </g>
     </g>
    </g>
    <g id="xtick_11">
     <g id="line2d_11">
      <g>
       <use xlink:href="#mc89fe3fb29" x="243.504973" y="113.508125" style="fill: #262626; stroke: #262626; stroke-width: 0.8"/>
      </g>
     </g>
     <g id="text_11">
      <!-- Ilott 1 -->
      <g style="fill: #262626" transform="translate(245.573098 139.073125)rotate(-90)scale(0.08 -0.08)">
       <defs>
        <path id="ArialMT-49" d="M 597 0 
L 597 4581 
L 1203 4581 
L 1203 0 
L 597 0 
z
" transform="scale(0.015625)"/>
        <path id="ArialMT-6c" d="M 409 0 
L 409 4581 
L 972 4581 
L 972 0 
L 409 0 
z
" transform="scale(0.015625)"/>
        <path id="ArialMT-6f" d="M 213 1659 
Q 213 2581 725 3025 
Q 1153 3394 1769 3394 
Q 2453 3394 2887 2945 
Q 3322 2497 3322 1706 
Q 3322 1066 3130 698 
Q 2938 331 2570 128 
Q 2203 -75 1769 -75 
Q 1072 -75 642 372 
Q 213 819 213 1659 
z
M 791 1659 
Q 791 1022 1069 705 
Q 1347 388 1769 388 
Q 2188 388 2466 706 
Q 2744 1025 2744 1678 
Q 2744 2294 2464 2611 
Q 2184 2928 1769 2928 
Q 1347 2928 1069 2612 
Q 791 2297 791 1659 
z
" transform="scale(0.015625)"/>
        <path id="ArialMT-74" d="M 1650 503 
L 1731 6 
Q 1494 -44 1306 -44 
Q 1000 -44 831 53 
Q 663 150 594 308 
Q 525 466 525 972 
L 525 2881 
L 113 2881 
L 113 3319 
L 525 3319 
L 525 4141 
L 1084 4478 
L 1084 3319 
L 1650 3319 
L 1650 2881 
L 1084 2881 
L 1084 941 
Q 1084 700 1114 631 
Q 1144 563 1211 522 
Q 1278 481 1403 481 
Q 1497 481 1650 503 
z
" transform="scale(0.015625)"/>
       </defs>
       <use xlink:href="#ArialMT-49"/>
       <use xlink:href="#ArialMT-6c" x="27.783203"/>
       <use xlink:href="#ArialMT-6f" x="50"/>
       <use xlink:href="#ArialMT-74" x="105.615234"/>
       <use xlink:href="#ArialMT-74" x="133.398438"/>
       <use xlink:href="#ArialMT-20" x="161.181641"/>
       <use xlink:href="#ArialMT-31" x="188.964844"/>
      </g>
     </g>
    </g>
    <g id="xtick_12">
     <g id="line2d_12">
      <g>
       <use xlink:href="#mc89fe3fb29" x="263.194405" y="113.508125" style="fill: #262626; stroke: #262626; stroke-width: 0.8"/>
      </g>
     </g>
     <g id="text_12">
      <!-- Pros. 1 -->
      <g style="fill: #262626" transform="translate(265.26253 144.850625)rotate(-90)scale(0.08 -0.08)">
       <defs>
        <path id="ArialMT-73" d="M 197 991 
L 753 1078 
Q 800 744 1014 566 
Q 1228 388 1613 388 
Q 2000 388 2187 545 
Q 2375 703 2375 916 
Q 2375 1106 2209 1216 
Q 2094 1291 1634 1406 
Q 1016 1563 777 1677 
Q 538 1791 414 1992 
Q 291 2194 291 2438 
Q 291 2659 392 2848 
Q 494 3038 669 3163 
Q 800 3259 1026 3326 
Q 1253 3394 1513 3394 
Q 1903 3394 2198 3281 
Q 2494 3169 2634 2976 
Q 2775 2784 2828 2463 
L 2278 2388 
Q 2241 2644 2061 2787 
Q 1881 2931 1553 2931 
Q 1166 2931 1000 2803 
Q 834 2675 834 2503 
Q 834 2394 903 2306 
Q 972 2216 1119 2156 
Q 1203 2125 1616 2013 
Q 2213 1853 2448 1751 
Q 2684 1650 2818 1456 
Q 2953 1263 2953 975 
Q 2953 694 2789 445 
Q 2625 197 2315 61 
Q 2006 -75 1616 -75 
Q 969 -75 630 194 
Q 291 463 197 991 
z
" transform="scale(0.015625)"/>
       </defs>
       <use xlink:href="#ArialMT-50"/>
       <use xlink:href="#ArialMT-72" x="66.699219"/>
       <use xlink:href="#ArialMT-6f" x="100"/>
       <use xlink:href="#ArialMT-73" x="155.615234"/>
       <use xlink:href="#ArialMT-2e" x="205.615234"/>
       <use xlink:href="#ArialMT-20" x="233.398438"/>
       <use xlink:href="#ArialMT-31" x="261.181641"/>
      </g>
     </g>
    </g>
   </g>
   <g id="matplotlib.axis_2">
    <g id="ytick_1">
     <g id="line2d_13">
      <defs>
       <path id="ma21a5faa38" d="M 0 0 
L -4 0 
" style="stroke: #262626; stroke-width: 0.8"/>
      </defs>
      <g>
       <use xlink:href="#ma21a5faa38" x="36.765938" y="102.014236" style="fill: #262626; stroke: #262626; stroke-width: 0.8"/>
      </g>
     </g>
     <g id="text_13">
      <!-- 0.0 -->
      <g style="fill: #262626" transform="translate(19.645938 104.877361)scale(0.08 -0.08)">
       <defs>
        <path id="ArialMT-30" d="M 266 2259 
Q 266 3072 433 3567 
Q 600 4063 929 4331 
Q 1259 4600 1759 4600 
Q 2128 4600 2406 4451 
Q 2684 4303 2865 4023 
Q 3047 3744 3150 3342 
Q 3253 2941 3253 2259 
Q 3253 1453 3087 958 
Q 2922 463 2592 192 
Q 2263 -78 1759 -78 
Q 1097 -78 719 397 
Q 266 969 266 2259 
z
M 844 2259 
Q 844 1131 1108 757 
Q 1372 384 1759 384 
Q 2147 384 2411 759 
Q 2675 1134 2675 2259 
Q 2675 3391 2411 3762 
Q 2147 4134 1753 4134 
Q 1366 4134 1134 3806 
Q 844 3388 844 2259 
z
" transform="scale(0.015625)"/>
       </defs>
       <use xlink:href="#ArialMT-30"/>
       <use xlink:href="#ArialMT-2e" x="55.615234"/>
       <use xlink:href="#ArialMT-30" x="83.398438"/>
      </g>
     </g>
    </g>
    <g id="ytick_2">
     <g id="line2d_14">
      <g>
       <use xlink:href="#ma21a5faa38" x="36.765938" y="79.026458" style="fill: #262626; stroke: #262626; stroke-width: 0.8"/>
      </g>
     </g>
     <g id="text_14">
      <!-- 0.2 -->
      <g style="fill: #262626" transform="translate(19.645938 81.889583)scale(0.08 -0.08)">
       <use xlink:href="#ArialMT-30"/>
       <use xlink:href="#ArialMT-2e" x="55.615234"/>
       <use xlink:href="#ArialMT-32" x="83.398438"/>
      </g>
     </g>
    </g>
    <g id="ytick_3">
     <g id="line2d_15">
      <g>
       <use xlink:href="#ma21a5faa38" x="36.765938" y="56.038681" style="fill: #262626; stroke: #262626; stroke-width: 0.8"/>
      </g>
     </g>
     <g id="text_15">
      <!-- 0.4 -->
      <g style="fill: #262626" transform="translate(19.645938 58.901806)scale(0.08 -0.08)">
       <use xlink:href="#ArialMT-30"/>
       <use xlink:href="#ArialMT-2e" x="55.615234"/>
       <use xlink:href="#ArialMT-34" x="83.398438"/>
      </g>
     </g>
    </g>
    <g id="ytick_4">
     <g id="line2d_16">
      <g>
       <use xlink:href="#ma21a5faa38" x="36.765938" y="33.050903" style="fill: #262626; stroke: #262626; stroke-width: 0.8"/>
      </g>
     </g>
     <g id="text_16">
      <!-- 0.6 -->
      <g style="fill: #262626" transform="translate(19.645938 35.914028)scale(0.08 -0.08)">
       <defs>
        <path id="ArialMT-36" d="M 3184 3459 
L 2625 3416 
Q 2550 3747 2413 3897 
Q 2184 4138 1850 4138 
Q 1581 4138 1378 3988 
Q 1113 3794 959 3422 
Q 806 3050 800 2363 
Q 1003 2672 1297 2822 
Q 1591 2972 1913 2972 
Q 2475 2972 2870 2558 
Q 3266 2144 3266 1488 
Q 3266 1056 3080 686 
Q 2894 316 2569 119 
Q 2244 -78 1831 -78 
Q 1128 -78 684 439 
Q 241 956 241 2144 
Q 241 3472 731 4075 
Q 1159 4600 1884 4600 
Q 2425 4600 2770 4297 
Q 3116 3994 3184 3459 
z
M 888 1484 
Q 888 1194 1011 928 
Q 1134 663 1356 523 
Q 1578 384 1822 384 
Q 2178 384 2434 671 
Q 2691 959 2691 1453 
Q 2691 1928 2437 2201 
Q 2184 2475 1800 2475 
Q 1419 2475 1153 2201 
Q 888 1928 888 1484 
z
" transform="scale(0.015625)"/>
       </defs>
       <use xlink:href="#ArialMT-30"/>
       <use xlink:href="#ArialMT-2e" x="55.615234"/>
       <use xlink:href="#ArialMT-36" x="83.398438"/>
      </g>
     </g>
    </g>
    <g id="ytick_5">
     <g id="line2d_17">
      <g>
       <use xlink:href="#ma21a5faa38" x="36.765938" y="10.063125" style="fill: #262626; stroke: #262626; stroke-width: 0.8"/>
      </g>
     </g>
     <g id="text_17">
      <!-- 0.8 -->
      <g style="fill: #262626" transform="translate(19.645938 12.92625)scale(0.08 -0.08)">
       <defs>
        <path id="ArialMT-38" d="M 1131 2484 
Q 781 2613 612 2850 
Q 444 3088 444 3419 
Q 444 3919 803 4259 
Q 1163 4600 1759 4600 
Q 2359 4600 2725 4251 
Q 3091 3903 3091 3403 
Q 3091 3084 2923 2848 
Q 2756 2613 2416 2484 
Q 2838 2347 3058 2040 
Q 3278 1734 3278 1309 
Q 3278 722 2862 322 
Q 2447 -78 1769 -78 
Q 1091 -78 675 323 
Q 259 725 259 1325 
Q 259 1772 486 2073 
Q 713 2375 1131 2484 
z
M 1019 3438 
Q 1019 3113 1228 2906 
Q 1438 2700 1772 2700 
Q 2097 2700 2305 2904 
Q 2513 3109 2513 3406 
Q 2513 3716 2298 3927 
Q 2084 4138 1766 4138 
Q 1444 4138 1231 3931 
Q 1019 3725 1019 3438 
z
M 838 1322 
Q 838 1081 952 856 
Q 1066 631 1291 507 
Q 1516 384 1775 384 
Q 2178 384 2440 643 
Q 2703 903 2703 1303 
Q 2703 1709 2433 1975 
Q 2163 2241 1756 2241 
Q 1359 2241 1098 1978 
Q 838 1716 838 1322 
z
" transform="scale(0.015625)"/>
       </defs>
       <use xlink:href="#ArialMT-30"/>
       <use xlink:href="#ArialMT-2e" x="55.615234"/>
       <use xlink:href="#ArialMT-38" x="83.398438"/>
      </g>
     </g>
    </g>
    <g id="text_18">
     <!-- fit error (RMSE) -->
     <g style="fill: #262626" transform="translate(13.751719 93.284219)rotate(-90)scale(0.09 -0.09)">
      <defs>
       <path id="ArialMT-66" d="M 556 0 
L 556 2881 
L 59 2881 
L 59 3319 
L 556 3319 
L 556 3672 
Q 556 4006 616 4169 
Q 697 4388 901 4523 
Q 1106 4659 1475 4659 
Q 1713 4659 2000 4603 
L 1916 4113 
Q 1741 4144 1584 4144 
Q 1328 4144 1222 4034 
Q 1116 3925 1116 3625 
L 1116 3319 
L 1763 3319 
L 1763 2881 
L 1116 2881 
L 1116 0 
L 556 0 
z
" transform="scale(0.015625)"/>
       <path id="ArialMT-28" d="M 1497 -1347 
Q 1031 -759 709 28 
Q 388 816 388 1659 
Q 388 2403 628 3084 
Q 909 3875 1497 4659 
L 1900 4659 
Q 1522 4009 1400 3731 
Q 1209 3300 1100 2831 
Q 966 2247 966 1656 
Q 966 153 1900 -1347 
L 1497 -1347 
z
" transform="scale(0.015625)"/>
       <path id="ArialMT-52" d="M 503 0 
L 503 4581 
L 2534 4581 
Q 3147 4581 3465 4457 
Q 3784 4334 3975 4021 
Q 4166 3709 4166 3331 
Q 4166 2844 3850 2509 
Q 3534 2175 2875 2084 
Q 3116 1969 3241 1856 
Q 3506 1613 3744 1247 
L 4541 0 
L 3778 0 
L 3172 953 
Q 2906 1366 2734 1584 
Q 2563 1803 2427 1890 
Q 2291 1978 2150 2013 
Q 2047 2034 1813 2034 
L 1109 2034 
L 1109 0 
L 503 0 
z
M 1109 2559 
L 2413 2559 
Q 2828 2559 3062 2645 
Q 3297 2731 3419 2920 
Q 3541 3109 3541 3331 
Q 3541 3656 3305 3865 
Q 3069 4075 2559 4075 
L 1109 4075 
L 1109 2559 
z
" transform="scale(0.015625)"/>
       <path id="ArialMT-4d" d="M 475 0 
L 475 4581 
L 1388 4581 
L 2472 1338 
Q 2622 884 2691 659 
Q 2769 909 2934 1394 
L 4031 4581 
L 4847 4581 
L 4847 0 
L 4263 0 
L 4263 3834 
L 2931 0 
L 2384 0 
L 1059 3900 
L 1059 0 
L 475 0 
z
" transform="scale(0.015625)"/>
       <path id="ArialMT-53" d="M 288 1472 
L 859 1522 
Q 900 1178 1048 958 
Q 1197 738 1509 602 
Q 1822 466 2213 466 
Q 2559 466 2825 569 
Q 3091 672 3220 851 
Q 3350 1031 3350 1244 
Q 3350 1459 3225 1620 
Q 3100 1781 2813 1891 
Q 2628 1963 1997 2114 
Q 1366 2266 1113 2400 
Q 784 2572 623 2826 
Q 463 3081 463 3397 
Q 463 3744 659 4045 
Q 856 4347 1234 4503 
Q 1613 4659 2075 4659 
Q 2584 4659 2973 4495 
Q 3363 4331 3572 4012 
Q 3781 3694 3797 3291 
L 3216 3247 
Q 3169 3681 2898 3903 
Q 2628 4125 2100 4125 
Q 1550 4125 1298 3923 
Q 1047 3722 1047 3438 
Q 1047 3191 1225 3031 
Q 1400 2872 2139 2705 
Q 2878 2538 3153 2413 
Q 3553 2228 3743 1945 
Q 3934 1663 3934 1294 
Q 3934 928 3725 604 
Q 3516 281 3123 101 
Q 2731 -78 2241 -78 
Q 1619 -78 1198 103 
Q 778 284 539 648 
Q 300 1013 288 1472 
z
" transform="scale(0.015625)"/>
       <path id="ArialMT-45" d="M 506 0 
L 506 4581 
L 3819 4581 
L 3819 4041 
L 1113 4041 
L 1113 2638 
L 3647 2638 
L 3647 2100 
L 1113 2100 
L 1113 541 
L 3925 541 
L 3925 0 
L 506 0 
z
" transform="scale(0.015625)"/>
       <path id="ArialMT-29" d="M 791 -1347 
L 388 -1347 
Q 1322 153 1322 1656 
Q 1322 2244 1188 2822 
Q 1081 3291 891 3722 
Q 769 4003 388 4659 
L 791 4659 
Q 1378 3875 1659 3084 
Q 1900 2403 1900 1659 
Q 1900 816 1576 28 
Q 1253 -759 791 -1347 
z
" transform="scale(0.015625)"/>
      </defs>
      <use xlink:href="#ArialMT-66"/>
      <use xlink:href="#ArialMT-69" x="27.783203"/>
      <use xlink:href="#ArialMT-74" x="50"/>
      <use xlink:href="#ArialMT-20" x="77.783203"/>
      <use xlink:href="#ArialMT-65" x="105.566406"/>
      <use xlink:href="#ArialMT-72" x="161.181641"/>
      <use xlink:href="#ArialMT-72" x="194.482422"/>
      <use xlink:href="#ArialMT-6f" x="227.783203"/>
      <use xlink:href="#ArialMT-72" x="283.398438"/>
      <use xlink:href="#ArialMT-20" x="316.699219"/>
      <use xlink:href="#ArialMT-28" x="344.482422"/>
      <use xlink:href="#ArialMT-52" x="377.783203"/>
      <use xlink:href="#ArialMT-4d" x="450"/>
      <use xlink:href="#ArialMT-53" x="533.300781"/>
      <use xlink:href="#ArialMT-45" x="600"/>
      <use xlink:href="#ArialMT-29" x="666.699219"/>
     </g>
    </g>
   </g>
   <g id="patch_3">
    <path d="M 38.813638 95.431815 
L 46.531896 95.431815 
L 46.531896 71.976689 
L 38.813638 71.976689 
L 38.813638 95.431815 
z
" clip-path="url(#p1c3116b518)" style="fill: #5875a4; stroke: #4c4c4c; stroke-linejoin: miter"/>
   </g>
   <g id="patch_4">
    <path d="M 46.689411 86.235404 
L 54.407669 86.235404 
L 54.407669 51.333165 
L 46.689411 51.333165 
L 46.689411 86.235404 
z
" clip-path="url(#p1c3116b518)" style="fill: #5f9e6e; stroke: #4c4c4c; stroke-linejoin: miter"/>
   </g>
   <g id="patch_5">
    <path d="M 58.50307 99.496715 
L 66.221328 99.496715 
L 66.221328 78.630707 
L 58.50307 78.630707 
L 58.50307 99.496715 
z
" clip-path="url(#p1c3116b518)" style="fill: #5875a4; stroke: #4c4c4c; stroke-linejoin: miter"/>
   </g>
   <g id="patch_6">
    <path d="M 66.378843 89.768715 
L 74.097101 89.768715 
L 74.097101 59.52433 
L 66.378843 59.52433 
L 66.378843 89.768715 
z
" clip-path="url(#p1c3116b518)" style="fill: #5f9e6e; stroke: #4c4c4c; stroke-linejoin: miter"/>
   </g>
   <g id="patch_7">
    <path d="M 78.192502 94.021476 
L 85.91076 94.021476 
L 85.91076 68.408 
L 78.192502 68.408 
L 78.192502 94.021476 
z
" clip-path="url(#p1c3116b518)" style="fill: #5875a4; stroke: #4c4c4c; stroke-linejoin: miter"/>
   </g>
   <g id="patch_8">
    <path d="M 86.068275 85.241103 
L 93.786532 85.241103 
L 93.786532 50.647592 
L 86.068275 50.647592 
L 86.068275 85.241103 
z
" clip-path="url(#p1c3116b518)" style="fill: #5f9e6e; stroke: #4c4c4c; stroke-linejoin: miter"/>
   </g>
   <g id="patch_9">
    <path d="M 97.881934 97.307106 
L 105.600192 97.307106 
L 105.600192 78.595689 
L 97.881934 78.595689 
L 97.881934 97.307106 
z
" clip-path="url(#p1c3116b518)" style="fill: #5875a4; stroke: #4c4c4c; stroke-linejoin: miter"/>
   </g>
   <g id="patch_10">
    <path d="M 105.757707 90.600659 
L 113.475964 90.600659 
L 113.475964 60.833144 
L 105.757707 60.833144 
L 105.757707 90.600659 
z
" clip-path="url(#p1c3116b518)" style="fill: #5f9e6e; stroke: #4c4c4c; stroke-linejoin: miter"/>
   </g>
   <g id="patch_11">
    <path d="M 117.571366 92.352254 
L 125.289624 92.352254 
L 125.289624 77.296511 
L 117.571366 77.296511 
L 117.571366 92.352254 
z
" clip-path="url(#p1c3116b518)" style="fill: #5875a4; stroke: #4c4c4c; stroke-linejoin: miter"/>
   </g>
   <g id="patch_12">
    <path d="M 125.447139 85.70765 
L 133.165396 85.70765 
L 133.165396 70.637549 
L 125.447139 70.637549 
L 125.447139 85.70765 
z
" clip-path="url(#p1c3116b518)" style="fill: #5f9e6e; stroke: #4c4c4c; stroke-linejoin: miter"/>
   </g>
   <g id="patch_13">
    <path d="M 137.260798 92.03614 
L 144.979056 92.03614 
L 144.979056 77.412488 
L 137.260798 77.412488 
L 137.260798 92.03614 
z
" clip-path="url(#p1c3116b518)" style="fill: #5875a4; stroke: #4c4c4c; stroke-linejoin: miter"/>
   </g>
   <g id="patch_14">
    <path d="M 145.136571 86.441147 
L 152.854828 86.441147 
L 152.854828 71.258683 
L 145.136571 71.258683 
L 145.136571 86.441147 
z
" clip-path="url(#p1c3116b518)" style="fill: #5f9e6e; stroke: #4c4c4c; stroke-linejoin: miter"/>
   </g>
   <g id="patch_15">
    <path d="M 156.95023 92.096876 
L 164.668488 92.096876 
L 164.668488 73.673245 
L 156.95023 73.673245 
L 156.95023 92.096876 
z
" clip-path="url(#p1c3116b518)" style="fill: #5875a4; stroke: #4c4c4c; stroke-linejoin: miter"/>
   </g>
   <g id="patch_16">
    <path d="M 164.826003 86.191125 
L 172.54426 86.191125 
L 172.54426 65.591243 
L 164.826003 65.591243 
L 164.826003 86.191125 
z
" clip-path="url(#p1c3116b518)" style="fill: #5f9e6e; stroke: #4c4c4c; stroke-linejoin: miter"/>
   </g>
   <g id="patch_17">
    <path d="M 176.639662 92.245788 
L 184.35792 92.245788 
L 184.35792 74.227908 
L 176.639662 74.227908 
L 176.639662 92.245788 
z
" clip-path="url(#p1c3116b518)" style="fill: #5875a4; stroke: #4c4c4c; stroke-linejoin: miter"/>
   </g>
   <g id="patch_18">
    <path d="M 184.515435 86.747163 
L 192.233692 86.747163 
L 192.233692 66.239281 
L 184.515435 66.239281 
L 184.515435 86.747163 
z
" clip-path="url(#p1c3116b518)" style="fill: #5f9e6e; stroke: #4c4c4c; stroke-linejoin: miter"/>
   </g>
   <g id="patch_19">
    <path d="M 196.329094 91.801153 
L 204.047351 91.801153 
L 204.047351 73.462159 
L 196.329094 73.462159 
L 196.329094 91.801153 
z
" clip-path="url(#p1c3116b518)" style="fill: #5875a4; stroke: #4c4c4c; stroke-linejoin: miter"/>
   </g>
   <g id="patch_20">
    <path d="M 204.204867 85.786902 
L 211.923124 85.786902 
L 211.923124 65.883871 
L 204.204867 65.883871 
L 204.204867 85.786902 
z
" clip-path="url(#p1c3116b518)" style="fill: #5f9e6e; stroke: #4c4c4c; stroke-linejoin: miter"/>
   </g>
   <g id="patch_21">
    <path d="M 216.018526 91.554488 
L 223.736783 91.554488 
L 223.736783 73.079997 
L 216.018526 73.079997 
L 216.018526 91.554488 
z
" clip-path="url(#p1c3116b518)" style="fill: #5875a4; stroke: #4c4c4c; stroke-linejoin: miter"/>
   </g>
   <g id="patch_22">
    <path d="M 223.894299 85.299037 
L 231.612556 85.299037 
L 231.612556 65.056175 
L 223.894299 65.056175 
L 223.894299 85.299037 
z
" clip-path="url(#p1c3116b518)" style="fill: #5f9e6e; stroke: #4c4c4c; stroke-linejoin: miter"/>
   </g>
   <g id="patch_23">
    <path d="M 235.707958 94.600376 
L 243.426215 94.600376 
L 243.426215 81.103289 
L 235.707958 81.103289 
L 235.707958 94.600376 
z
" clip-path="url(#p1c3116b518)" style="fill: #5875a4; stroke: #4c4c4c; stroke-linejoin: miter"/>
   </g>
   <g id="patch_24">
    <path d="M 243.583731 82.428666 
L 251.301988 82.428666 
L 251.301988 65.470397 
L 243.583731 65.470397 
L 243.583731 82.428666 
z
" clip-path="url(#p1c3116b518)" style="fill: #5f9e6e; stroke: #4c4c4c; stroke-linejoin: miter"/>
   </g>
   <g id="patch_25">
    <path d="M 255.39739 95.648458 
L 263.115647 95.648458 
L 263.115647 81.786783 
L 255.39739 81.786783 
L 255.39739 95.648458 
z
" clip-path="url(#p1c3116b518)" style="fill: #5875a4; stroke: #4c4c4c; stroke-linejoin: miter"/>
   </g>
   <g id="patch_26">
    <path d="M 263.273163 89.408589 
L 270.99142 89.408589 
L 270.99142 72.115176 
L 263.273163 72.115176 
L 263.273163 89.408589 
z
" clip-path="url(#p1c3116b518)" style="fill: #5f9e6e; stroke: #4c4c4c; stroke-linejoin: miter"/>
   </g>
   <g id="patch_27">
    <path d="M 46.610653 102.014236 
L 46.610653 102.014236 
L 46.610653 102.014236 
L 46.610653 102.014236 
z
" clip-path="url(#p1c3116b518)" style="fill: #5875a4; stroke: #4c4c4c; stroke-width: 0.5; stroke-linejoin: miter"/>
   </g>
   <g id="patch_28">
    <path d="M 46.610653 102.014236 
L 46.610653 102.014236 
L 46.610653 102.014236 
L 46.610653 102.014236 
z
" clip-path="url(#p1c3116b518)" style="fill: #5f9e6e; stroke: #4c4c4c; stroke-width: 0.5; stroke-linejoin: miter"/>
   </g>
   <g id="line2d_18">
    <path d="M 42.672767 95.431815 
L 42.672767 101.9999 
" clip-path="url(#p1c3116b518)" style="fill: none; stroke: #4c4c4c; stroke-linecap: round"/>
   </g>
   <g id="line2d_19">
    <path d="M 42.672767 71.976689 
L 42.672767 49.739266 
" clip-path="url(#p1c3116b518)" style="fill: none; stroke: #4c4c4c; stroke-linecap: round"/>
   </g>
   <g id="line2d_20">
    <path d="M 40.743203 101.9999 
L 44.602331 101.9999 
" clip-path="url(#p1c3116b518)" style="fill: none; stroke: #4c4c4c; stroke-linecap: round"/>
   </g>
   <g id="line2d_21">
    <path d="M 40.743203 49.739266 
L 44.602331 49.739266 
" clip-path="url(#p1c3116b518)" style="fill: none; stroke: #4c4c4c; stroke-linecap: round"/>
   </g>
   <g id="line2d_22"/>
   <g id="line2d_23">
    <path d="M 50.54854 86.235404 
L 50.54854 96.721387 
" clip-path="url(#p1c3116b518)" style="fill: none; stroke: #4c4c4c; stroke-linecap: round"/>
   </g>
   <g id="line2d_24">
    <path d="M 50.54854 51.333165 
L 50.54854 26.61177 
" clip-path="url(#p1c3116b518)" style="fill: none; stroke: #4c4c4c; stroke-linecap: round"/>
   </g>
   <g id="line2d_25">
    <path d="M 48.618976 96.721387 
L 52.478104 96.721387 
" clip-path="url(#p1c3116b518)" style="fill: none; stroke: #4c4c4c; stroke-linecap: round"/>
   </g>
   <g id="line2d_26">
    <path d="M 48.618976 26.61177 
L 52.478104 26.61177 
" clip-path="url(#p1c3116b518)" style="fill: none; stroke: #4c4c4c; stroke-linecap: round"/>
   </g>
   <g id="line2d_27"/>
   <g id="line2d_28">
    <path d="M 62.362199 99.496715 
L 62.362199 102.014213 
" clip-path="url(#p1c3116b518)" style="fill: none; stroke: #4c4c4c; stroke-linecap: round"/>
   </g>
   <g id="line2d_29">
    <path d="M 62.362199 78.630707 
L 62.362199 52.828166 
" clip-path="url(#p1c3116b518)" style="fill: none; stroke: #4c4c4c; stroke-linecap: round"/>
   </g>
   <g id="line2d_30">
    <path d="M 60.432635 102.014213 
L 64.291763 102.014213 
" clip-path="url(#p1c3116b518)" style="fill: none; stroke: #4c4c4c; stroke-linecap: round"/>
   </g>
   <g id="line2d_31">
    <path d="M 60.432635 52.828166 
L 64.291763 52.828166 
" clip-path="url(#p1c3116b518)" style="fill: none; stroke: #4c4c4c; stroke-linecap: round"/>
   </g>
   <g id="line2d_32"/>
   <g id="line2d_33">
    <path d="M 70.237972 89.768715 
L 70.237972 98.337939 
" clip-path="url(#p1c3116b518)" style="fill: none; stroke: #4c4c4c; stroke-linecap: round"/>
   </g>
   <g id="line2d_34">
    <path d="M 70.237972 59.52433 
L 70.237972 30.287144 
" clip-path="url(#p1c3116b518)" style="fill: none; stroke: #4c4c4c; stroke-linecap: round"/>
   </g>
   <g id="line2d_35">
    <path d="M 68.308408 98.337939 
L 72.167536 98.337939 
" clip-path="url(#p1c3116b518)" style="fill: none; stroke: #4c4c4c; stroke-linecap: round"/>
   </g>
   <g id="line2d_36">
    <path d="M 68.308408 30.287144 
L 72.167536 30.287144 
" clip-path="url(#p1c3116b518)" style="fill: none; stroke: #4c4c4c; stroke-linecap: round"/>
   </g>
   <g id="line2d_37"/>
   <g id="line2d_38">
    <path d="M 82.051631 94.021476 
L 82.051631 101.981555 
" clip-path="url(#p1c3116b518)" style="fill: none; stroke: #4c4c4c; stroke-linecap: round"/>
   </g>
   <g id="line2d_39">
    <path d="M 82.051631 68.408 
L 82.051631 48.08073 
" clip-path="url(#p1c3116b518)" style="fill: none; stroke: #4c4c4c; stroke-linecap: round"/>
   </g>
   <g id="line2d_40">
    <path d="M 80.122067 101.981555 
L 83.981195 101.981555 
" clip-path="url(#p1c3116b518)" style="fill: none; stroke: #4c4c4c; stroke-linecap: round"/>
   </g>
   <g id="line2d_41">
    <path d="M 80.122067 48.08073 
L 83.981195 48.08073 
" clip-path="url(#p1c3116b518)" style="fill: none; stroke: #4c4c4c; stroke-linecap: round"/>
   </g>
   <g id="line2d_42"/>
   <g id="line2d_43">
    <path d="M 89.927404 85.241103 
L 89.927404 96.219069 
" clip-path="url(#p1c3116b518)" style="fill: none; stroke: #4c4c4c; stroke-linecap: round"/>
   </g>
   <g id="line2d_44">
    <path d="M 89.927404 50.647592 
L 89.927404 27.009442 
" clip-path="url(#p1c3116b518)" style="fill: none; stroke: #4c4c4c; stroke-linecap: round"/>
   </g>
   <g id="line2d_45">
    <path d="M 87.997839 96.219069 
L 91.856968 96.219069 
" clip-path="url(#p1c3116b518)" style="fill: none; stroke: #4c4c4c; stroke-linecap: round"/>
   </g>
   <g id="line2d_46">
    <path d="M 87.997839 27.009442 
L 91.856968 27.009442 
" clip-path="url(#p1c3116b518)" style="fill: none; stroke: #4c4c4c; stroke-linecap: round"/>
   </g>
   <g id="line2d_47"/>
   <g id="line2d_48">
    <path d="M 101.741063 97.307106 
L 101.741063 101.994588 
" clip-path="url(#p1c3116b518)" style="fill: none; stroke: #4c4c4c; stroke-linecap: round"/>
   </g>
   <g id="line2d_49">
    <path d="M 101.741063 78.595689 
L 101.741063 55.68008 
" clip-path="url(#p1c3116b518)" style="fill: none; stroke: #4c4c4c; stroke-linecap: round"/>
   </g>
   <g id="line2d_50">
    <path d="M 99.811499 101.994588 
L 103.670627 101.994588 
" clip-path="url(#p1c3116b518)" style="fill: none; stroke: #4c4c4c; stroke-linecap: round"/>
   </g>
   <g id="line2d_51">
    <path d="M 99.811499 55.68008 
L 103.670627 55.68008 
" clip-path="url(#p1c3116b518)" style="fill: none; stroke: #4c4c4c; stroke-linecap: round"/>
   </g>
   <g id="line2d_52"/>
   <g id="line2d_53">
    <path d="M 109.616836 90.600659 
L 109.616836 98.845059 
" clip-path="url(#p1c3116b518)" style="fill: none; stroke: #4c4c4c; stroke-linecap: round"/>
   </g>
   <g id="line2d_54">
    <path d="M 109.616836 60.833144 
L 109.616836 32.54373 
" clip-path="url(#p1c3116b518)" style="fill: none; stroke: #4c4c4c; stroke-linecap: round"/>
   </g>
   <g id="line2d_55">
    <path d="M 107.687271 98.845059 
L 111.5464 98.845059 
" clip-path="url(#p1c3116b518)" style="fill: none; stroke: #4c4c4c; stroke-linecap: round"/>
   </g>
   <g id="line2d_56">
    <path d="M 107.687271 32.54373 
L 111.5464 32.54373 
" clip-path="url(#p1c3116b518)" style="fill: none; stroke: #4c4c4c; stroke-linecap: round"/>
   </g>
   <g id="line2d_57"/>
   <g id="line2d_58">
    <path d="M 121.430495 92.352254 
L 121.430495 98.8795 
" clip-path="url(#p1c3116b518)" style="fill: none; stroke: #4c4c4c; stroke-linecap: round"/>
   </g>
   <g id="line2d_59">
    <path d="M 121.430495 77.296511 
L 121.430495 60.519423 
" clip-path="url(#p1c3116b518)" style="fill: none; stroke: #4c4c4c; stroke-linecap: round"/>
   </g>
   <g id="line2d_60">
    <path d="M 119.500931 98.8795 
L 123.360059 98.8795 
" clip-path="url(#p1c3116b518)" style="fill: none; stroke: #4c4c4c; stroke-linecap: round"/>
   </g>
   <g id="line2d_61">
    <path d="M 119.500931 60.519423 
L 123.360059 60.519423 
" clip-path="url(#p1c3116b518)" style="fill: none; stroke: #4c4c4c; stroke-linecap: round"/>
   </g>
   <g id="line2d_62"/>
   <g id="line2d_63">
    <path d="M 129.306268 85.70765 
L 129.306268 91.640742 
" clip-path="url(#p1c3116b518)" style="fill: none; stroke: #4c4c4c; stroke-linecap: round"/>
   </g>
   <g id="line2d_64">
    <path d="M 129.306268 70.637549 
L 129.306268 52.28241 
" clip-path="url(#p1c3116b518)" style="fill: none; stroke: #4c4c4c; stroke-linecap: round"/>
   </g>
   <g id="line2d_65">
    <path d="M 127.376703 91.640742 
L 131.235832 91.640742 
" clip-path="url(#p1c3116b518)" style="fill: none; stroke: #4c4c4c; stroke-linecap: round"/>
   </g>
   <g id="line2d_66">
    <path d="M 127.376703 52.28241 
L 131.235832 52.28241 
" clip-path="url(#p1c3116b518)" style="fill: none; stroke: #4c4c4c; stroke-linecap: round"/>
   </g>
   <g id="line2d_67"/>
   <g id="line2d_68">
    <path d="M 141.119927 92.03614 
L 141.119927 98.210976 
" clip-path="url(#p1c3116b518)" style="fill: none; stroke: #4c4c4c; stroke-linecap: round"/>
   </g>
   <g id="line2d_69">
    <path d="M 141.119927 77.412488 
L 141.119927 61.667428 
" clip-path="url(#p1c3116b518)" style="fill: none; stroke: #4c4c4c; stroke-linecap: round"/>
   </g>
   <g id="line2d_70">
    <path d="M 139.190363 98.210976 
L 143.049491 98.210976 
" clip-path="url(#p1c3116b518)" style="fill: none; stroke: #4c4c4c; stroke-linecap: round"/>
   </g>
   <g id="line2d_71">
    <path d="M 139.190363 61.667428 
L 143.049491 61.667428 
" clip-path="url(#p1c3116b518)" style="fill: none; stroke: #4c4c4c; stroke-linecap: round"/>
   </g>
   <g id="line2d_72"/>
   <g id="line2d_73">
    <path d="M 148.9957 86.441147 
L 148.9957 92.218889 
" clip-path="url(#p1c3116b518)" style="fill: none; stroke: #4c4c4c; stroke-linecap: round"/>
   </g>
   <g id="line2d_74">
    <path d="M 148.9957 71.258683 
L 148.9957 52.857962 
" clip-path="url(#p1c3116b518)" style="fill: none; stroke: #4c4c4c; stroke-linecap: round"/>
   </g>
   <g id="line2d_75">
    <path d="M 147.066135 92.218889 
L 150.925264 92.218889 
" clip-path="url(#p1c3116b518)" style="fill: none; stroke: #4c4c4c; stroke-linecap: round"/>
   </g>
   <g id="line2d_76">
    <path d="M 147.066135 52.857962 
L 150.925264 52.857962 
" clip-path="url(#p1c3116b518)" style="fill: none; stroke: #4c4c4c; stroke-linecap: round"/>
   </g>
   <g id="line2d_77"/>
   <g id="line2d_78">
    <path d="M 160.809359 92.096876 
L 160.809359 99.855627 
" clip-path="url(#p1c3116b518)" style="fill: none; stroke: #4c4c4c; stroke-linecap: round"/>
   </g>
   <g id="line2d_79">
    <path d="M 160.809359 73.673245 
L 160.809359 54.467472 
" clip-path="url(#p1c3116b518)" style="fill: none; stroke: #4c4c4c; stroke-linecap: round"/>
   </g>
   <g id="line2d_80">
    <path d="M 158.879795 99.855627 
L 162.738923 99.855627 
" clip-path="url(#p1c3116b518)" style="fill: none; stroke: #4c4c4c; stroke-linecap: round"/>
   </g>
   <g id="line2d_81">
    <path d="M 158.879795 54.467472 
L 162.738923 54.467472 
" clip-path="url(#p1c3116b518)" style="fill: none; stroke: #4c4c4c; stroke-linecap: round"/>
   </g>
   <g id="line2d_82"/>
   <g id="line2d_83">
    <path d="M 168.685132 86.191125 
L 168.685132 95.432286 
" clip-path="url(#p1c3116b518)" style="fill: none; stroke: #4c4c4c; stroke-linecap: round"/>
   </g>
   <g id="line2d_84">
    <path d="M 168.685132 65.591243 
L 168.685132 43.943606 
" clip-path="url(#p1c3116b518)" style="fill: none; stroke: #4c4c4c; stroke-linecap: round"/>
   </g>
   <g id="line2d_85">
    <path d="M 166.755567 95.432286 
L 170.614696 95.432286 
" clip-path="url(#p1c3116b518)" style="fill: none; stroke: #4c4c4c; stroke-linecap: round"/>
   </g>
   <g id="line2d_86">
    <path d="M 166.755567 43.943606 
L 170.614696 43.943606 
" clip-path="url(#p1c3116b518)" style="fill: none; stroke: #4c4c4c; stroke-linecap: round"/>
   </g>
   <g id="line2d_87"/>
   <g id="line2d_88">
    <path d="M 180.498791 92.245788 
L 180.498791 99.269256 
" clip-path="url(#p1c3116b518)" style="fill: none; stroke: #4c4c4c; stroke-linecap: round"/>
   </g>
   <g id="line2d_89">
    <path d="M 180.498791 74.227908 
L 180.498791 54.85477 
" clip-path="url(#p1c3116b518)" style="fill: none; stroke: #4c4c4c; stroke-linecap: round"/>
   </g>
   <g id="line2d_90">
    <path d="M 178.569227 99.269256 
L 182.428355 99.269256 
" clip-path="url(#p1c3116b518)" style="fill: none; stroke: #4c4c4c; stroke-linecap: round"/>
   </g>
   <g id="line2d_91">
    <path d="M 178.569227 54.85477 
L 182.428355 54.85477 
" clip-path="url(#p1c3116b518)" style="fill: none; stroke: #4c4c4c; stroke-linecap: round"/>
   </g>
   <g id="line2d_92"/>
   <g id="line2d_93">
    <path d="M 188.374564 86.747163 
L 188.374564 95.509773 
" clip-path="url(#p1c3116b518)" style="fill: none; stroke: #4c4c4c; stroke-linecap: round"/>
   </g>
   <g id="line2d_94">
    <path d="M 188.374564 66.239281 
L 188.374564 44.012703 
" clip-path="url(#p1c3116b518)" style="fill: none; stroke: #4c4c4c; stroke-linecap: round"/>
   </g>
   <g id="line2d_95">
    <path d="M 186.444999 95.509773 
L 190.304128 95.509773 
" clip-path="url(#p1c3116b518)" style="fill: none; stroke: #4c4c4c; stroke-linecap: round"/>
   </g>
   <g id="line2d_96">
    <path d="M 186.444999 44.012703 
L 190.304128 44.012703 
" clip-path="url(#p1c3116b518)" style="fill: none; stroke: #4c4c4c; stroke-linecap: round"/>
   </g>
   <g id="line2d_97"/>
   <g id="line2d_98">
    <path d="M 200.188223 91.801153 
L 200.188223 99.07864 
" clip-path="url(#p1c3116b518)" style="fill: none; stroke: #4c4c4c; stroke-linecap: round"/>
   </g>
   <g id="line2d_99">
    <path d="M 200.188223 73.462159 
L 200.188223 53.422335 
" clip-path="url(#p1c3116b518)" style="fill: none; stroke: #4c4c4c; stroke-linecap: round"/>
   </g>
   <g id="line2d_100">
    <path d="M 198.258658 99.07864 
L 202.117787 99.07864 
" clip-path="url(#p1c3116b518)" style="fill: none; stroke: #4c4c4c; stroke-linecap: round"/>
   </g>
   <g id="line2d_101">
    <path d="M 198.258658 53.422335 
L 202.117787 53.422335 
" clip-path="url(#p1c3116b518)" style="fill: none; stroke: #4c4c4c; stroke-linecap: round"/>
   </g>
   <g id="line2d_102"/>
   <g id="line2d_103">
    <path d="M 208.063996 85.786902 
L 208.063996 94.731929 
" clip-path="url(#p1c3116b518)" style="fill: none; stroke: #4c4c4c; stroke-linecap: round"/>
   </g>
   <g id="line2d_104">
    <path d="M 208.063996 65.883871 
L 208.063996 42.590934 
" clip-path="url(#p1c3116b518)" style="fill: none; stroke: #4c4c4c; stroke-linecap: round"/>
   </g>
   <g id="line2d_105">
    <path d="M 206.134431 94.731929 
L 209.99356 94.731929 
" clip-path="url(#p1c3116b518)" style="fill: none; stroke: #4c4c4c; stroke-linecap: round"/>
   </g>
   <g id="line2d_106">
    <path d="M 206.134431 42.590934 
L 209.99356 42.590934 
" clip-path="url(#p1c3116b518)" style="fill: none; stroke: #4c4c4c; stroke-linecap: round"/>
   </g>
   <g id="line2d_107"/>
   <g id="line2d_108">
    <path d="M 219.877655 91.554488 
L 219.877655 99.473055 
" clip-path="url(#p1c3116b518)" style="fill: none; stroke: #4c4c4c; stroke-linecap: round"/>
   </g>
   <g id="line2d_109">
    <path d="M 219.877655 73.079997 
L 219.877655 53.243846 
" clip-path="url(#p1c3116b518)" style="fill: none; stroke: #4c4c4c; stroke-linecap: round"/>
   </g>
   <g id="line2d_110">
    <path d="M 217.94809 99.473055 
L 221.807219 99.473055 
" clip-path="url(#p1c3116b518)" style="fill: none; stroke: #4c4c4c; stroke-linecap: round"/>
   </g>
   <g id="line2d_111">
    <path d="M 217.94809 53.243846 
L 221.807219 53.243846 
" clip-path="url(#p1c3116b518)" style="fill: none; stroke: #4c4c4c; stroke-linecap: round"/>
   </g>
   <g id="line2d_112"/>
   <g id="line2d_113">
    <path d="M 227.753428 85.299037 
L 227.753428 94.86883 
" clip-path="url(#p1c3116b518)" style="fill: none; stroke: #4c4c4c; stroke-linecap: round"/>
   </g>
   <g id="line2d_114">
    <path d="M 227.753428 65.056175 
L 227.753428 42.905175 
" clip-path="url(#p1c3116b518)" style="fill: none; stroke: #4c4c4c; stroke-linecap: round"/>
   </g>
   <g id="line2d_115">
    <path d="M 225.823863 94.86883 
L 229.682992 94.86883 
" clip-path="url(#p1c3116b518)" style="fill: none; stroke: #4c4c4c; stroke-linecap: round"/>
   </g>
   <g id="line2d_116">
    <path d="M 225.823863 42.905175 
L 229.682992 42.905175 
" clip-path="url(#p1c3116b518)" style="fill: none; stroke: #4c4c4c; stroke-linecap: round"/>
   </g>
   <g id="line2d_117"/>
   <g id="line2d_118">
    <path d="M 239.567087 94.600376 
L 239.567087 99.888203 
" clip-path="url(#p1c3116b518)" style="fill: none; stroke: #4c4c4c; stroke-linecap: round"/>
   </g>
   <g id="line2d_119">
    <path d="M 239.567087 81.103289 
L 239.567087 65.018936 
" clip-path="url(#p1c3116b518)" style="fill: none; stroke: #4c4c4c; stroke-linecap: round"/>
   </g>
   <g id="line2d_120">
    <path d="M 237.637522 99.888203 
L 241.496651 99.888203 
" clip-path="url(#p1c3116b518)" style="fill: none; stroke: #4c4c4c; stroke-linecap: round"/>
   </g>
   <g id="line2d_121">
    <path d="M 237.637522 65.018936 
L 241.496651 65.018936 
" clip-path="url(#p1c3116b518)" style="fill: none; stroke: #4c4c4c; stroke-linecap: round"/>
   </g>
   <g id="line2d_122"/>
   <g id="line2d_123">
    <path d="M 247.44286 82.428666 
L 247.44286 90.443419 
" clip-path="url(#p1c3116b518)" style="fill: none; stroke: #4c4c4c; stroke-linecap: round"/>
   </g>
   <g id="line2d_124">
    <path d="M 247.44286 65.470397 
L 247.44286 43.973544 
" clip-path="url(#p1c3116b518)" style="fill: none; stroke: #4c4c4c; stroke-linecap: round"/>
   </g>
   <g id="line2d_125">
    <path d="M 245.513295 90.443419 
L 249.372424 90.443419 
" clip-path="url(#p1c3116b518)" style="fill: none; stroke: #4c4c4c; stroke-linecap: round"/>
   </g>
   <g id="line2d_126">
    <path d="M 245.513295 43.973544 
L 249.372424 43.973544 
" clip-path="url(#p1c3116b518)" style="fill: none; stroke: #4c4c4c; stroke-linecap: round"/>
   </g>
   <g id="line2d_127"/>
   <g id="line2d_128">
    <path d="M 259.256519 95.648458 
L 259.256519 102.002254 
" clip-path="url(#p1c3116b518)" style="fill: none; stroke: #4c4c4c; stroke-linecap: round"/>
   </g>
   <g id="line2d_129">
    <path d="M 259.256519 81.786783 
L 259.256519 65.140978 
" clip-path="url(#p1c3116b518)" style="fill: none; stroke: #4c4c4c; stroke-linecap: round"/>
   </g>
   <g id="line2d_130">
    <path d="M 257.326954 102.002254 
L 261.186083 102.002254 
" clip-path="url(#p1c3116b518)" style="fill: none; stroke: #4c4c4c; stroke-linecap: round"/>
   </g>
   <g id="line2d_131">
    <path d="M 257.326954 65.140978 
L 261.186083 65.140978 
" clip-path="url(#p1c3116b518)" style="fill: none; stroke: #4c4c4c; stroke-linecap: round"/>
   </g>
   <g id="line2d_132"/>
   <g id="line2d_133">
    <path d="M 267.132292 89.408589 
L 267.132292 97.103855 
" clip-path="url(#p1c3116b518)" style="fill: none; stroke: #4c4c4c; stroke-linecap: round"/>
   </g>
   <g id="line2d_134">
    <path d="M 267.132292 72.115176 
L 267.132292 45.395258 
" clip-path="url(#p1c3116b518)" style="fill: none; stroke: #4c4c4c; stroke-linecap: round"/>
   </g>
   <g id="line2d_135">
    <path d="M 265.202727 97.103855 
L 269.061856 97.103855 
" clip-path="url(#p1c3116b518)" style="fill: none; stroke: #4c4c4c; stroke-linecap: round"/>
   </g>
   <g id="line2d_136">
    <path d="M 265.202727 45.395258 
L 269.061856 45.395258 
" clip-path="url(#p1c3116b518)" style="fill: none; stroke: #4c4c4c; stroke-linecap: round"/>
   </g>
   <g id="line2d_137"/>
   <g id="line2d_138">
    <path d="M 38.813638 85.95849 
L 46.531896 85.95849 
" clip-path="url(#p1c3116b518)" style="fill: none; stroke: #4c4c4c; stroke-linecap: round"/>
   </g>
   <g id="line2d_139">
    <path d="M 46.689411 72.078051 
L 54.407669 72.078051 
" clip-path="url(#p1c3116b518)" style="fill: none; stroke: #4c4c4c; stroke-linecap: round"/>
   </g>
   <g id="line2d_140">
    <path d="M 58.50307 91.38694 
L 66.221328 91.38694 
" clip-path="url(#p1c3116b518)" style="fill: none; stroke: #4c4c4c; stroke-linecap: round"/>
   </g>
   <g id="line2d_141">
    <path d="M 66.378843 78.249172 
L 74.097101 78.249172 
" clip-path="url(#p1c3116b518)" style="fill: none; stroke: #4c4c4c; stroke-linecap: round"/>
   </g>
   <g id="line2d_142">
    <path d="M 78.192502 83.331671 
L 85.91076 83.331671 
" clip-path="url(#p1c3116b518)" style="fill: none; stroke: #4c4c4c; stroke-linecap: round"/>
   </g>
   <g id="line2d_143">
    <path d="M 86.068275 71.001021 
L 93.786532 71.001021 
" clip-path="url(#p1c3116b518)" style="fill: none; stroke: #4c4c4c; stroke-linecap: round"/>
   </g>
   <g id="line2d_144">
    <path d="M 97.881934 90.009773 
L 105.600192 90.009773 
" clip-path="url(#p1c3116b518)" style="fill: none; stroke: #4c4c4c; stroke-linecap: round"/>
   </g>
   <g id="line2d_145">
    <path d="M 105.757707 79.652266 
L 113.475964 79.652266 
" clip-path="url(#p1c3116b518)" style="fill: none; stroke: #4c4c4c; stroke-linecap: round"/>
   </g>
   <g id="line2d_146">
    <path d="M 117.571366 86.038016 
L 125.289624 86.038016 
" clip-path="url(#p1c3116b518)" style="fill: none; stroke: #4c4c4c; stroke-linecap: round"/>
   </g>
   <g id="line2d_147">
    <path d="M 125.447139 79.778412 
L 133.165396 79.778412 
" clip-path="url(#p1c3116b518)" style="fill: none; stroke: #4c4c4c; stroke-linecap: round"/>
   </g>
   <g id="line2d_148">
    <path d="M 137.260798 86.097585 
L 144.979056 86.097585 
" clip-path="url(#p1c3116b518)" style="fill: none; stroke: #4c4c4c; stroke-linecap: round"/>
   </g>
   <g id="line2d_149">
    <path d="M 145.136571 80.314662 
L 152.854828 80.314662 
" clip-path="url(#p1c3116b518)" style="fill: none; stroke: #4c4c4c; stroke-linecap: round"/>
   </g>
   <g id="line2d_150">
    <path d="M 156.95023 84.340646 
L 164.668488 84.340646 
" clip-path="url(#p1c3116b518)" style="fill: none; stroke: #4c4c4c; stroke-linecap: round"/>
   </g>
   <g id="line2d_151">
    <path d="M 164.826003 77.839354 
L 172.54426 77.839354 
" clip-path="url(#p1c3116b518)" style="fill: none; stroke: #4c4c4c; stroke-linecap: round"/>
   </g>
   <g id="line2d_152">
    <path d="M 176.639662 84.733856 
L 184.35792 84.733856 
" clip-path="url(#p1c3116b518)" style="fill: none; stroke: #4c4c4c; stroke-linecap: round"/>
   </g>
   <g id="line2d_153">
    <path d="M 184.515435 78.17115 
L 192.233692 78.17115 
" clip-path="url(#p1c3116b518)" style="fill: none; stroke: #4c4c4c; stroke-linecap: round"/>
   </g>
   <g id="line2d_154">
    <path d="M 196.329094 84.170967 
L 204.047351 84.170967 
" clip-path="url(#p1c3116b518)" style="fill: none; stroke: #4c4c4c; stroke-linecap: round"/>
   </g>
   <g id="line2d_155">
    <path d="M 204.204867 77.747665 
L 211.923124 77.747665 
" clip-path="url(#p1c3116b518)" style="fill: none; stroke: #4c4c4c; stroke-linecap: round"/>
   </g>
   <g id="line2d_156">
    <path d="M 216.018526 83.536143 
L 223.736783 83.536143 
" clip-path="url(#p1c3116b518)" style="fill: none; stroke: #4c4c4c; stroke-linecap: round"/>
   </g>
   <g id="line2d_157">
    <path d="M 223.894299 76.742774 
L 231.612556 76.742774 
" clip-path="url(#p1c3116b518)" style="fill: none; stroke: #4c4c4c; stroke-linecap: round"/>
   </g>
   <g id="line2d_158">
    <path d="M 235.707958 88.818622 
L 243.426215 88.818622 
" clip-path="url(#p1c3116b518)" style="fill: none; stroke: #4c4c4c; stroke-linecap: round"/>
   </g>
   <g id="line2d_159">
    <path d="M 243.583731 75.396773 
L 251.301988 75.396773 
" clip-path="url(#p1c3116b518)" style="fill: none; stroke: #4c4c4c; stroke-linecap: round"/>
   </g>
   <g id="line2d_160">
    <path d="M 255.39739 89.099907 
L 263.115647 89.099907 
" clip-path="url(#p1c3116b518)" style="fill: none; stroke: #4c4c4c; stroke-linecap: round"/>
   </g>
   <g id="line2d_161">
    <path d="M 263.273163 81.243986 
L 270.99142 81.243986 
" clip-path="url(#p1c3116b518)" style="fill: none; stroke: #4c4c4c; stroke-linecap: round"/>
   </g>
   <g id="patch_29">
    <path d="M 36.765938 113.508125 
L 36.765938 10.063125 
" style="fill: none; stroke: #262626; stroke-linejoin: miter; stroke-linecap: square"/>
   </g>
   <g id="patch_30">
    <path d="M 273.039121 113.508125 
L 273.039121 10.063125 
" style="fill: none; stroke: #262626; stroke-linejoin: miter; stroke-linecap: square"/>
   </g>
   <g id="patch_31">
    <path d="M 36.765938 113.508125 
L 273.039121 113.508125 
" style="fill: none; stroke: #262626; stroke-linejoin: miter; stroke-linecap: square"/>
   </g>
   <g id="patch_32">
    <path d="M 36.765938 10.063125 
L 273.039121 10.063125 
" style="fill: none; stroke: #262626; stroke-linejoin: miter; stroke-linecap: square"/>
   </g>
  </g>
  <g id="legend_1">
   <g id="text_19">
    <!-- model -->
    <g style="fill: #262626" transform="translate(289.812559 68.141719)scale(0.1 -0.1)">
     <defs>
      <path id="ArialMT-6d" d="M 422 0 
L 422 3319 
L 925 3319 
L 925 2853 
Q 1081 3097 1340 3245 
Q 1600 3394 1931 3394 
Q 2300 3394 2536 3241 
Q 2772 3088 2869 2813 
Q 3263 3394 3894 3394 
Q 4388 3394 4653 3120 
Q 4919 2847 4919 2278 
L 4919 0 
L 4359 0 
L 4359 2091 
Q 4359 2428 4304 2576 
Q 4250 2725 4106 2815 
Q 3963 2906 3769 2906 
Q 3419 2906 3187 2673 
Q 2956 2441 2956 1928 
L 2956 0 
L 2394 0 
L 2394 2156 
Q 2394 2531 2256 2718 
Q 2119 2906 1806 2906 
Q 1569 2906 1367 2781 
Q 1166 2656 1075 2415 
Q 984 2175 984 1722 
L 984 0 
L 422 0 
z
" transform="scale(0.015625)"/>
      <path id="ArialMT-64" d="M 2575 0 
L 2575 419 
Q 2259 -75 1647 -75 
Q 1250 -75 917 144 
Q 584 363 401 755 
Q 219 1147 219 1656 
Q 219 2153 384 2558 
Q 550 2963 881 3178 
Q 1213 3394 1622 3394 
Q 1922 3394 2156 3267 
Q 2391 3141 2538 2938 
L 2538 4581 
L 3097 4581 
L 3097 0 
L 2575 0 
z
M 797 1656 
Q 797 1019 1065 703 
Q 1334 388 1700 388 
Q 2069 388 2326 689 
Q 2584 991 2584 1609 
Q 2584 2291 2321 2609 
Q 2059 2928 1675 2928 
Q 1300 2928 1048 2622 
Q 797 2316 797 1656 
z
" transform="scale(0.015625)"/>
     </defs>
     <use xlink:href="#ArialMT-6d"/>
     <use xlink:href="#ArialMT-6f" x="83.300781"/>
     <use xlink:href="#ArialMT-64" x="138.916016"/>
     <use xlink:href="#ArialMT-65" x="194.53125"/>
     <use xlink:href="#ArialMT-6c" x="250.146484"/>
    </g>
   </g>
   <g id="patch_33">
    <path d="M 278.892871 79.855469 
L 294.892871 79.855469 
L 294.892871 74.255469 
L 278.892871 74.255469 
z
" style="fill: #5875a4; stroke: #4c4c4c; stroke-width: 0.5; stroke-linejoin: miter"/>
   </g>
   <g id="text_20">
    <!-- gamma -->
    <g style="fill: #262626" transform="translate(301.292871 79.855469)scale(0.08 -0.08)">
     <defs>
      <path id="ArialMT-67" d="M 319 -275 
L 866 -356 
Q 900 -609 1056 -725 
Q 1266 -881 1628 -881 
Q 2019 -881 2231 -725 
Q 2444 -569 2519 -288 
Q 2563 -116 2559 434 
Q 2191 0 1641 0 
Q 956 0 581 494 
Q 206 988 206 1678 
Q 206 2153 378 2554 
Q 550 2956 876 3175 
Q 1203 3394 1644 3394 
Q 2231 3394 2613 2919 
L 2613 3319 
L 3131 3319 
L 3131 450 
Q 3131 -325 2973 -648 
Q 2816 -972 2473 -1159 
Q 2131 -1347 1631 -1347 
Q 1038 -1347 672 -1080 
Q 306 -813 319 -275 
z
M 784 1719 
Q 784 1066 1043 766 
Q 1303 466 1694 466 
Q 2081 466 2343 764 
Q 2606 1063 2606 1700 
Q 2606 2309 2336 2618 
Q 2066 2928 1684 2928 
Q 1309 2928 1046 2623 
Q 784 2319 784 1719 
z
" transform="scale(0.015625)"/>
     </defs>
     <use xlink:href="#ArialMT-67"/>
     <use xlink:href="#ArialMT-61" x="55.615234"/>
     <use xlink:href="#ArialMT-6d" x="111.230469"/>
     <use xlink:href="#ArialMT-6d" x="194.53125"/>
     <use xlink:href="#ArialMT-61" x="277.832031"/>
    </g>
   </g>
   <g id="patch_34">
    <path d="M 278.892871 91.265469 
L 294.892871 91.265469 
L 294.892871 85.665469 
L 278.892871 85.665469 
z
" style="fill: #5f9e6e; stroke: #4c4c4c; stroke-width: 0.5; stroke-linejoin: miter"/>
   </g>
   <g id="text_21">
    <!-- expo -->
    <g style="fill: #262626" transform="translate(301.292871 91.265469)scale(0.08 -0.08)">
     <defs>
      <path id="ArialMT-78" d="M 47 0 
L 1259 1725 
L 138 3319 
L 841 3319 
L 1350 2541 
Q 1494 2319 1581 2169 
Q 1719 2375 1834 2534 
L 2394 3319 
L 3066 3319 
L 1919 1756 
L 3153 0 
L 2463 0 
L 1781 1031 
L 1600 1309 
L 728 0 
L 47 0 
z
" transform="scale(0.015625)"/>
      <path id="ArialMT-70" d="M 422 -1272 
L 422 3319 
L 934 3319 
L 934 2888 
Q 1116 3141 1344 3267 
Q 1572 3394 1897 3394 
Q 2322 3394 2647 3175 
Q 2972 2956 3137 2557 
Q 3303 2159 3303 1684 
Q 3303 1175 3120 767 
Q 2938 359 2589 142 
Q 2241 -75 1856 -75 
Q 1575 -75 1351 44 
Q 1128 163 984 344 
L 984 -1272 
L 422 -1272 
z
M 931 1641 
Q 931 1000 1190 694 
Q 1450 388 1819 388 
Q 2194 388 2461 705 
Q 2728 1022 2728 1688 
Q 2728 2322 2467 2637 
Q 2206 2953 1844 2953 
Q 1484 2953 1207 2617 
Q 931 2281 931 1641 
z
" transform="scale(0.015625)"/>
     </defs>
     <use xlink:href="#ArialMT-65"/>
     <use xlink:href="#ArialMT-78" x="55.615234"/>
     <use xlink:href="#ArialMT-70" x="105.615234"/>
     <use xlink:href="#ArialMT-6f" x="161.230469"/>
    </g>
   </g>
  </g>
 </g>
 <defs>
  <clipPath id="p1c3116b518">
   <rect x="36.765938" y="10.063125" width="236.273184" height="103.445"/>
  </clipPath>
 </defs>
</svg>
