<?xml version="1.0" encoding="utf-8" standalone="no"?>
<!DOCTYPE svg PUBLIC "-//W3C//DTD SVG 1.1//EN"
  "http://www.w3.org/Graphics/SVG/1.1/DTD/svg11.dtd">
<!-- Created with matplotlib (https://matplotlib.org/) -->
<svg height="134.0455pt" version="1.1" viewBox="0 0 358.00675 134.0455" width="358.00675pt" xmlns="http://www.w3.org/2000/svg" xmlns:xlink="http://www.w3.org/1999/xlink">
 <metadata>
  <rdf:RDF xmlns:cc="http://creativecommons.org/ns#" xmlns:dc="http://purl.org/dc/elements/1.1/" xmlns:rdf="http://www.w3.org/1999/02/22-rdf-syntax-ns#">
   <cc:Work>
    <dc:type rdf:resource="http://purl.org/dc/dcmitype/StillImage"/>
    <dc:date>2022-02-15T10:48:55.452861</dc:date>
    <dc:format>image/svg+xml</dc:format>
    <dc:creator>
     <cc:Agent>
      <dc:title>Matplotlib v3.3.2, https://matplotlib.org/</dc:title>
     </cc:Agent>
    </dc:creator>
   </cc:Work>
  </rdf:RDF>
 </metadata>
 <defs>
  <style type="text/css">*{stroke-linecap:butt;stroke-linejoin:round;}</style>
 </defs>
 <g id="figure_1">
  <g id="patch_1">
   <path d="M 0 134.0455 
L 358.00675 134.0455 
L 358.00675 -0 
L 0 -0 
z
" style="fill:#ffffff;"/>
  </g>
  <g id="axes_1">
   <g id="patch_2">
    <path d="M 48.38475 85.804 
L 344.83875 85.804 
L 344.83875 7.2 
L 48.38475 7.2 
z
" style="fill:#ffffff;"/>
   </g>
   <g id="matplotlib.axis_1">
    <g id="xtick_1">
     <g id="line2d_1">
      <defs>
       <path d="M 0 0 
L 0 4.8 
" id="mc92dbc1e73" style="stroke:#262626;"/>
      </defs>
      <g>
       <use style="fill:#262626;stroke:#262626;" x="60.737" xlink:href="#mc92dbc1e73" y="85.804"/>
      </g>
     </g>
     <g id="text_1">
      <!-- Craw. 1 -->
      <g style="fill:#262626;" transform="translate(63.16525 126.8455)rotate(-90)scale(0.088 -0.088)">
       <defs>
        <path d="M 64.40625 67.28125 
L 64.40625 56.890625 
Q 59.421875 61.53125 53.78125 63.8125 
Q 48.140625 66.109375 41.796875 66.109375 
Q 29.296875 66.109375 22.65625 58.46875 
Q 16.015625 50.828125 16.015625 36.375 
Q 16.015625 21.96875 22.65625 14.328125 
Q 29.296875 6.6875 41.796875 6.6875 
Q 48.140625 6.6875 53.78125 8.984375 
Q 59.421875 11.28125 64.40625 15.921875 
L 64.40625 5.609375 
Q 59.234375 2.09375 53.4375 0.328125 
Q 47.65625 -1.421875 41.21875 -1.421875 
Q 24.65625 -1.421875 15.125 8.703125 
Q 5.609375 18.84375 5.609375 36.375 
Q 5.609375 53.953125 15.125 64.078125 
Q 24.65625 74.21875 41.21875 74.21875 
Q 47.75 74.21875 53.53125 72.484375 
Q 59.328125 70.75 64.40625 67.28125 
z
" id="DejaVuSans-67"/>
        <path d="M 41.109375 46.296875 
Q 39.59375 47.171875 37.8125 47.578125 
Q 36.03125 48 33.890625 48 
Q 26.265625 48 22.1875 43.046875 
Q 18.109375 38.09375 18.109375 28.8125 
L 18.109375 0 
L 9.078125 0 
L 9.078125 54.6875 
L 18.109375 54.6875 
L 18.109375 46.1875 
Q 20.953125 51.171875 25.484375 53.578125 
Q 30.03125 56 36.53125 56 
Q 37.453125 56 38.578125 55.875 
Q 39.703125 55.765625 41.0625 55.515625 
z
" id="DejaVuSans-114"/>
        <path d="M 34.28125 27.484375 
Q 23.390625 27.484375 19.1875 25 
Q 14.984375 22.515625 14.984375 16.5 
Q 14.984375 11.71875 18.140625 8.90625 
Q 21.296875 6.109375 26.703125 6.109375 
Q 34.1875 6.109375 38.703125 11.40625 
Q 43.21875 16.703125 43.21875 25.484375 
L 43.21875 27.484375 
z
M 52.203125 31.203125 
L 52.203125 0 
L 43.21875 0 
L 43.21875 8.296875 
Q 40.140625 3.328125 35.546875 0.953125 
Q 30.953125 -1.421875 24.3125 -1.421875 
Q 15.921875 -1.421875 10.953125 3.296875 
Q 6 8.015625 6 15.921875 
Q 6 25.140625 12.171875 29.828125 
Q 18.359375 34.515625 30.609375 34.515625 
L 43.21875 34.515625 
L 43.21875 35.40625 
Q 43.21875 41.609375 39.140625 45 
Q 35.0625 48.390625 27.6875 48.390625 
Q 23 48.390625 18.546875 47.265625 
Q 14.109375 46.140625 10.015625 43.890625 
L 10.015625 52.203125 
Q 14.9375 54.109375 19.578125 55.046875 
Q 24.21875 56 28.609375 56 
Q 40.484375 56 46.34375 49.84375 
Q 52.203125 43.703125 52.203125 31.203125 
z
" id="DejaVuSans-97"/>
        <path d="M 4.203125 54.6875 
L 13.1875 54.6875 
L 24.421875 12.015625 
L 35.59375 54.6875 
L 46.1875 54.6875 
L 57.421875 12.015625 
L 68.609375 54.6875 
L 77.59375 54.6875 
L 63.28125 0 
L 52.6875 0 
L 40.921875 44.828125 
L 29.109375 0 
L 18.5 0 
z
" id="DejaVuSans-119"/>
        <path d="M 10.6875 12.40625 
L 21 12.40625 
L 21 0 
L 10.6875 0 
z
" id="DejaVuSans-46"/>
        <path id="DejaVuSans-32"/>
        <path d="M 12.40625 8.296875 
L 28.515625 8.296875 
L 28.515625 63.921875 
L 10.984375 60.40625 
L 10.984375 69.390625 
L 28.421875 72.90625 
L 38.28125 72.90625 
L 38.28125 8.296875 
L 54.390625 8.296875 
L 54.390625 0 
L 12.40625 0 
z
" id="DejaVuSans-49"/>
       </defs>
       <use xlink:href="#DejaVuSans-67"/>
       <use x="69.824219" xlink:href="#DejaVuSans-114"/>
       <use x="110.9375" xlink:href="#DejaVuSans-97"/>
       <use x="172.216797" xlink:href="#DejaVuSans-119"/>
       <use x="244.878906" xlink:href="#DejaVuSans-46"/>
       <use x="276.666016" xlink:href="#DejaVuSans-32"/>
       <use x="308.453125" xlink:href="#DejaVuSans-49"/>
      </g>
     </g>
    </g>
    <g id="xtick_2">
     <g id="line2d_2">
      <g>
       <use style="fill:#262626;stroke:#262626;" x="85.4415" xlink:href="#mc92dbc1e73" y="85.804"/>
      </g>
     </g>
     <g id="text_2">
      <!-- Craw. 2 -->
      <g style="fill:#262626;" transform="translate(87.86975 126.8455)rotate(-90)scale(0.088 -0.088)">
       <defs>
        <path d="M 19.1875 8.296875 
L 53.609375 8.296875 
L 53.609375 0 
L 7.328125 0 
L 7.328125 8.296875 
Q 12.9375 14.109375 22.625 23.890625 
Q 32.328125 33.6875 34.8125 36.53125 
Q 39.546875 41.84375 41.421875 45.53125 
Q 43.3125 49.21875 43.3125 52.78125 
Q 43.3125 58.59375 39.234375 62.25 
Q 35.15625 65.921875 28.609375 65.921875 
Q 23.96875 65.921875 18.8125 64.3125 
Q 13.671875 62.703125 7.8125 59.421875 
L 7.8125 69.390625 
Q 13.765625 71.78125 18.9375 73 
Q 24.125 74.21875 28.421875 74.21875 
Q 39.75 74.21875 46.484375 68.546875 
Q 53.21875 62.890625 53.21875 53.421875 
Q 53.21875 48.921875 51.53125 44.890625 
Q 49.859375 40.875 45.40625 35.40625 
Q 44.1875 33.984375 37.640625 27.21875 
Q 31.109375 20.453125 19.1875 8.296875 
z
" id="DejaVuSans-50"/>
       </defs>
       <use xlink:href="#DejaVuSans-67"/>
       <use x="69.824219" xlink:href="#DejaVuSans-114"/>
       <use x="110.9375" xlink:href="#DejaVuSans-97"/>
       <use x="172.216797" xlink:href="#DejaVuSans-119"/>
       <use x="244.878906" xlink:href="#DejaVuSans-46"/>
       <use x="276.666016" xlink:href="#DejaVuSans-32"/>
       <use x="308.453125" xlink:href="#DejaVuSans-50"/>
      </g>
     </g>
    </g>
    <g id="xtick_3">
     <g id="line2d_3">
      <g>
       <use style="fill:#262626;stroke:#262626;" x="110.146" xlink:href="#mc92dbc1e73" y="85.804"/>
      </g>
     </g>
     <g id="text_3">
      <!-- Craw. 3 -->
      <g style="fill:#262626;" transform="translate(112.57425 126.8455)rotate(-90)scale(0.088 -0.088)">
       <defs>
        <path d="M 40.578125 39.3125 
Q 47.65625 37.796875 51.625 33 
Q 55.609375 28.21875 55.609375 21.1875 
Q 55.609375 10.40625 48.1875 4.484375 
Q 40.765625 -1.421875 27.09375 -1.421875 
Q 22.515625 -1.421875 17.65625 -0.515625 
Q 12.796875 0.390625 7.625 2.203125 
L 7.625 11.71875 
Q 11.71875 9.328125 16.59375 8.109375 
Q 21.484375 6.890625 26.8125 6.890625 
Q 36.078125 6.890625 40.9375 10.546875 
Q 45.796875 14.203125 45.796875 21.1875 
Q 45.796875 27.640625 41.28125 31.265625 
Q 36.765625 34.90625 28.71875 34.90625 
L 20.21875 34.90625 
L 20.21875 43.015625 
L 29.109375 43.015625 
Q 36.375 43.015625 40.234375 45.921875 
Q 44.09375 48.828125 44.09375 54.296875 
Q 44.09375 59.90625 40.109375 62.90625 
Q 36.140625 65.921875 28.71875 65.921875 
Q 24.65625 65.921875 20.015625 65.03125 
Q 15.375 64.15625 9.8125 62.3125 
L 9.8125 71.09375 
Q 15.4375 72.65625 20.34375 73.4375 
Q 25.25 74.21875 29.59375 74.21875 
Q 40.828125 74.21875 47.359375 69.109375 
Q 53.90625 64.015625 53.90625 55.328125 
Q 53.90625 49.265625 50.4375 45.09375 
Q 46.96875 40.921875 40.578125 39.3125 
z
" id="DejaVuSans-51"/>
       </defs>
       <use xlink:href="#DejaVuSans-67"/>
       <use x="69.824219" xlink:href="#DejaVuSans-114"/>
       <use x="110.9375" xlink:href="#DejaVuSans-97"/>
       <use x="172.216797" xlink:href="#DejaVuSans-119"/>
       <use x="244.878906" xlink:href="#DejaVuSans-46"/>
       <use x="276.666016" xlink:href="#DejaVuSans-32"/>
       <use x="308.453125" xlink:href="#DejaVuSans-51"/>
      </g>
     </g>
    </g>
    <g id="xtick_4">
     <g id="line2d_4">
      <g>
       <use style="fill:#262626;stroke:#262626;" x="134.8505" xlink:href="#mc92dbc1e73" y="85.804"/>
      </g>
     </g>
     <g id="text_4">
      <!-- Craw. 4 -->
      <g style="fill:#262626;" transform="translate(137.27875 126.8455)rotate(-90)scale(0.088 -0.088)">
       <defs>
        <path d="M 37.796875 64.3125 
L 12.890625 25.390625 
L 37.796875 25.390625 
z
M 35.203125 72.90625 
L 47.609375 72.90625 
L 47.609375 25.390625 
L 58.015625 25.390625 
L 58.015625 17.1875 
L 47.609375 17.1875 
L 47.609375 0 
L 37.796875 0 
L 37.796875 17.1875 
L 4.890625 17.1875 
L 4.890625 26.703125 
z
" id="DejaVuSans-52"/>
       </defs>
       <use xlink:href="#DejaVuSans-67"/>
       <use x="69.824219" xlink:href="#DejaVuSans-114"/>
       <use x="110.9375" xlink:href="#DejaVuSans-97"/>
       <use x="172.216797" xlink:href="#DejaVuSans-119"/>
       <use x="244.878906" xlink:href="#DejaVuSans-46"/>
       <use x="276.666016" xlink:href="#DejaVuSans-32"/>
       <use x="308.453125" xlink:href="#DejaVuSans-52"/>
      </g>
     </g>
    </g>
    <g id="xtick_5">
     <g id="line2d_5">
      <g>
       <use style="fill:#262626;stroke:#262626;" x="159.555" xlink:href="#mc92dbc1e73" y="85.804"/>
      </g>
     </g>
     <g id="text_5">
      <!-- Nir 1 -->
      <g style="fill:#262626;" transform="translate(161.98325 115.145625)rotate(-90)scale(0.088 -0.088)">
       <defs>
        <path d="M 9.8125 72.90625 
L 23.09375 72.90625 
L 55.421875 11.921875 
L 55.421875 72.90625 
L 64.984375 72.90625 
L 64.984375 0 
L 51.703125 0 
L 19.390625 60.984375 
L 19.390625 0 
L 9.8125 0 
z
" id="DejaVuSans-78"/>
        <path d="M 9.421875 54.6875 
L 18.40625 54.6875 
L 18.40625 0 
L 9.421875 0 
z
M 9.421875 75.984375 
L 18.40625 75.984375 
L 18.40625 64.59375 
L 9.421875 64.59375 
z
" id="DejaVuSans-105"/>
       </defs>
       <use xlink:href="#DejaVuSans-78"/>
       <use x="74.804688" xlink:href="#DejaVuSans-105"/>
       <use x="102.587891" xlink:href="#DejaVuSans-114"/>
       <use x="143.701172" xlink:href="#DejaVuSans-32"/>
       <use x="175.488281" xlink:href="#DejaVuSans-49"/>
      </g>
     </g>
    </g>
    <g id="xtick_6">
     <g id="line2d_6">
      <g>
       <use style="fill:#262626;stroke:#262626;" x="184.2595" xlink:href="#mc92dbc1e73" y="85.804"/>
      </g>
     </g>
     <g id="text_6">
      <!-- Nir 2 -->
      <g style="fill:#262626;" transform="translate(186.68775 115.145625)rotate(-90)scale(0.088 -0.088)">
       <use xlink:href="#DejaVuSans-78"/>
       <use x="74.804688" xlink:href="#DejaVuSans-105"/>
       <use x="102.587891" xlink:href="#DejaVuSans-114"/>
       <use x="143.701172" xlink:href="#DejaVuSans-32"/>
       <use x="175.488281" xlink:href="#DejaVuSans-50"/>
      </g>
     </g>
    </g>
    <g id="xtick_7">
     <g id="line2d_7">
      <g>
       <use style="fill:#262626;stroke:#262626;" x="208.964" xlink:href="#mc92dbc1e73" y="85.804"/>
      </g>
     </g>
     <g id="text_7">
      <!-- Peine 1 -->
      <g style="fill:#262626;" transform="translate(211.39225 126.338125)rotate(-90)scale(0.088 -0.088)">
       <defs>
        <path d="M 19.671875 64.796875 
L 19.671875 37.40625 
L 32.078125 37.40625 
Q 38.96875 37.40625 42.71875 40.96875 
Q 46.484375 44.53125 46.484375 51.125 
Q 46.484375 57.671875 42.71875 61.234375 
Q 38.96875 64.796875 32.078125 64.796875 
z
M 9.8125 72.90625 
L 32.078125 72.90625 
Q 44.34375 72.90625 50.609375 67.359375 
Q 56.890625 61.8125 56.890625 51.125 
Q 56.890625 40.328125 50.609375 34.8125 
Q 44.34375 29.296875 32.078125 29.296875 
L 19.671875 29.296875 
L 19.671875 0 
L 9.8125 0 
z
" id="DejaVuSans-80"/>
        <path d="M 56.203125 29.59375 
L 56.203125 25.203125 
L 14.890625 25.203125 
Q 15.484375 15.921875 20.484375 11.0625 
Q 25.484375 6.203125 34.421875 6.203125 
Q 39.59375 6.203125 44.453125 7.46875 
Q 49.3125 8.734375 54.109375 11.28125 
L 54.109375 2.78125 
Q 49.265625 0.734375 44.1875 -0.34375 
Q 39.109375 -1.421875 33.890625 -1.421875 
Q 20.796875 -1.421875 13.15625 6.1875 
Q 5.515625 13.8125 5.515625 26.8125 
Q 5.515625 40.234375 12.765625 48.109375 
Q 20.015625 56 32.328125 56 
Q 43.359375 56 49.78125 48.890625 
Q 56.203125 41.796875 56.203125 29.59375 
z
M 47.21875 32.234375 
Q 47.125 39.59375 43.09375 43.984375 
Q 39.0625 48.390625 32.421875 48.390625 
Q 24.90625 48.390625 20.390625 44.140625 
Q 15.875 39.890625 15.1875 32.171875 
z
" id="DejaVuSans-101"/>
        <path d="M 54.890625 33.015625 
L 54.890625 0 
L 45.90625 0 
L 45.90625 32.71875 
Q 45.90625 40.484375 42.875 44.328125 
Q 39.84375 48.1875 33.796875 48.1875 
Q 26.515625 48.1875 22.3125 43.546875 
Q 18.109375 38.921875 18.109375 30.90625 
L 18.109375 0 
L 9.078125 0 
L 9.078125 54.6875 
L 18.109375 54.6875 
L 18.109375 46.1875 
Q 21.34375 51.125 25.703125 53.5625 
Q 30.078125 56 35.796875 56 
Q 45.21875 56 50.046875 50.171875 
Q 54.890625 44.34375 54.890625 33.015625 
z
" id="DejaVuSans-110"/>
       </defs>
       <use xlink:href="#DejaVuSans-80"/>
       <use x="56.677734" xlink:href="#DejaVuSans-101"/>
       <use x="118.201172" xlink:href="#DejaVuSans-105"/>
       <use x="145.984375" xlink:href="#DejaVuSans-110"/>
       <use x="209.363281" xlink:href="#DejaVuSans-101"/>
       <use x="270.886719" xlink:href="#DejaVuSans-32"/>
       <use x="302.673828" xlink:href="#DejaVuSans-49"/>
      </g>
     </g>
    </g>
    <g id="xtick_8">
     <g id="line2d_8">
      <g>
       <use style="fill:#262626;stroke:#262626;" x="233.6685" xlink:href="#mc92dbc1e73" y="85.804"/>
      </g>
     </g>
     <g id="text_8">
      <!-- Peine 2 -->
      <g style="fill:#262626;" transform="translate(236.09675 126.338125)rotate(-90)scale(0.088 -0.088)">
       <use xlink:href="#DejaVuSans-80"/>
       <use x="56.677734" xlink:href="#DejaVuSans-101"/>
       <use x="118.201172" xlink:href="#DejaVuSans-105"/>
       <use x="145.984375" xlink:href="#DejaVuSans-110"/>
       <use x="209.363281" xlink:href="#DejaVuSans-101"/>
       <use x="270.886719" xlink:href="#DejaVuSans-32"/>
       <use x="302.673828" xlink:href="#DejaVuSans-50"/>
      </g>
     </g>
    </g>
    <g id="xtick_9">
     <g id="line2d_9">
      <g>
       <use style="fill:#262626;stroke:#262626;" x="258.373" xlink:href="#mc92dbc1e73" y="85.804"/>
      </g>
     </g>
     <g id="text_9">
      <!-- Peine 3 -->
      <g style="fill:#262626;" transform="translate(260.80125 126.338125)rotate(-90)scale(0.088 -0.088)">
       <use xlink:href="#DejaVuSans-80"/>
       <use x="56.677734" xlink:href="#DejaVuSans-101"/>
       <use x="118.201172" xlink:href="#DejaVuSans-105"/>
       <use x="145.984375" xlink:href="#DejaVuSans-110"/>
       <use x="209.363281" xlink:href="#DejaVuSans-101"/>
       <use x="270.886719" xlink:href="#DejaVuSans-32"/>
       <use x="302.673828" xlink:href="#DejaVuSans-51"/>
      </g>
     </g>
    </g>
    <g id="xtick_10">
     <g id="line2d_10">
      <g>
       <use style="fill:#262626;stroke:#262626;" x="283.0775" xlink:href="#mc92dbc1e73" y="85.804"/>
      </g>
     </g>
     <g id="text_10">
      <!-- Peine 4 -->
      <g style="fill:#262626;" transform="translate(285.50575 126.338125)rotate(-90)scale(0.088 -0.088)">
       <use xlink:href="#DejaVuSans-80"/>
       <use x="56.677734" xlink:href="#DejaVuSans-101"/>
       <use x="118.201172" xlink:href="#DejaVuSans-105"/>
       <use x="145.984375" xlink:href="#DejaVuSans-110"/>
       <use x="209.363281" xlink:href="#DejaVuSans-101"/>
       <use x="270.886719" xlink:href="#DejaVuSans-32"/>
       <use x="302.673828" xlink:href="#DejaVuSans-52"/>
      </g>
     </g>
    </g>
    <g id="xtick_11">
     <g id="line2d_11">
      <g>
       <use style="fill:#262626;stroke:#262626;" x="307.782" xlink:href="#mc92dbc1e73" y="85.804"/>
      </g>
     </g>
     <g id="text_11">
      <!-- Ilott 1 -->
      <g style="fill:#262626;" transform="translate(310.21025 119.82475)rotate(-90)scale(0.088 -0.088)">
       <defs>
        <path d="M 9.8125 72.90625 
L 19.671875 72.90625 
L 19.671875 0 
L 9.8125 0 
z
" id="DejaVuSans-73"/>
        <path d="M 9.421875 75.984375 
L 18.40625 75.984375 
L 18.40625 0 
L 9.421875 0 
z
" id="DejaVuSans-108"/>
        <path d="M 30.609375 48.390625 
Q 23.390625 48.390625 19.1875 42.75 
Q 14.984375 37.109375 14.984375 27.296875 
Q 14.984375 17.484375 19.15625 11.84375 
Q 23.34375 6.203125 30.609375 6.203125 
Q 37.796875 6.203125 41.984375 11.859375 
Q 46.1875 17.53125 46.1875 27.296875 
Q 46.1875 37.015625 41.984375 42.703125 
Q 37.796875 48.390625 30.609375 48.390625 
z
M 30.609375 56 
Q 42.328125 56 49.015625 48.375 
Q 55.71875 40.765625 55.71875 27.296875 
Q 55.71875 13.875 49.015625 6.21875 
Q 42.328125 -1.421875 30.609375 -1.421875 
Q 18.84375 -1.421875 12.171875 6.21875 
Q 5.515625 13.875 5.515625 27.296875 
Q 5.515625 40.765625 12.171875 48.375 
Q 18.84375 56 30.609375 56 
z
" id="DejaVuSans-111"/>
        <path d="M 18.3125 70.21875 
L 18.3125 54.6875 
L 36.8125 54.6875 
L 36.8125 47.703125 
L 18.3125 47.703125 
L 18.3125 18.015625 
Q 18.3125 11.328125 20.140625 9.421875 
Q 21.96875 7.515625 27.59375 7.515625 
L 36.8125 7.515625 
L 36.8125 0 
L 27.59375 0 
Q 17.1875 0 13.234375 3.875 
Q 9.28125 7.765625 9.28125 18.015625 
L 9.28125 47.703125 
L 2.6875 47.703125 
L 2.6875 54.6875 
L 9.28125 54.6875 
L 9.28125 70.21875 
z
" id="DejaVuSans-116"/>
       </defs>
       <use xlink:href="#DejaVuSans-73"/>
       <use x="29.492188" xlink:href="#DejaVuSans-108"/>
       <use x="57.275391" xlink:href="#DejaVuSans-111"/>
       <use x="118.457031" xlink:href="#DejaVuSans-116"/>
       <use x="157.666016" xlink:href="#DejaVuSans-116"/>
       <use x="196.875" xlink:href="#DejaVuSans-32"/>
       <use x="228.662109" xlink:href="#DejaVuSans-49"/>
      </g>
     </g>
    </g>
    <g id="xtick_12">
     <g id="line2d_12">
      <g>
       <use style="fill:#262626;stroke:#262626;" x="332.4865" xlink:href="#mc92dbc1e73" y="85.804"/>
      </g>
     </g>
     <g id="text_12">
      <!-- Pros. 1 -->
      <g style="fill:#262626;" transform="translate(334.91475 123.837)rotate(-90)scale(0.088 -0.088)">
       <defs>
        <path d="M 44.28125 53.078125 
L 44.28125 44.578125 
Q 40.484375 46.53125 36.375 47.5 
Q 32.28125 48.484375 27.875 48.484375 
Q 21.1875 48.484375 17.84375 46.4375 
Q 14.5 44.390625 14.5 40.28125 
Q 14.5 37.15625 16.890625 35.375 
Q 19.28125 33.59375 26.515625 31.984375 
L 29.59375 31.296875 
Q 39.15625 29.25 43.1875 25.515625 
Q 47.21875 21.78125 47.21875 15.09375 
Q 47.21875 7.46875 41.1875 3.015625 
Q 35.15625 -1.421875 24.609375 -1.421875 
Q 20.21875 -1.421875 15.453125 -0.5625 
Q 10.6875 0.296875 5.421875 2 
L 5.421875 11.28125 
Q 10.40625 8.6875 15.234375 7.390625 
Q 20.0625 6.109375 24.8125 6.109375 
Q 31.15625 6.109375 34.5625 8.28125 
Q 37.984375 10.453125 37.984375 14.40625 
Q 37.984375 18.0625 35.515625 20.015625 
Q 33.0625 21.96875 24.703125 23.78125 
L 21.578125 24.515625 
Q 13.234375 26.265625 9.515625 29.90625 
Q 5.8125 33.546875 5.8125 39.890625 
Q 5.8125 47.609375 11.28125 51.796875 
Q 16.75 56 26.8125 56 
Q 31.78125 56 36.171875 55.265625 
Q 40.578125 54.546875 44.28125 53.078125 
z
" id="DejaVuSans-115"/>
       </defs>
       <use xlink:href="#DejaVuSans-80"/>
       <use x="58.552734" xlink:href="#DejaVuSans-114"/>
       <use x="97.416016" xlink:href="#DejaVuSans-111"/>
       <use x="158.597656" xlink:href="#DejaVuSans-115"/>
       <use x="210.697266" xlink:href="#DejaVuSans-46"/>
       <use x="242.484375" xlink:href="#DejaVuSans-32"/>
       <use x="274.271484" xlink:href="#DejaVuSans-49"/>
      </g>
     </g>
    </g>
   </g>
   <g id="matplotlib.axis_2">
    <g id="ytick_1">
     <g id="line2d_13">
      <defs>
       <path d="M 0 0 
L -4.8 0 
" id="m41cc54d61e" style="stroke:#262626;"/>
      </defs>
      <g>
       <use style="fill:#262626;stroke:#262626;" x="48.38475" xlink:href="#m41cc54d61e" y="77.070222"/>
      </g>
     </g>
     <g id="text_13">
      <!-- 0.00 -->
      <g style="fill:#262626;" transform="translate(20.491 80.413535)scale(0.088 -0.088)">
       <defs>
        <path d="M 31.78125 66.40625 
Q 24.171875 66.40625 20.328125 58.90625 
Q 16.5 51.421875 16.5 36.375 
Q 16.5 21.390625 20.328125 13.890625 
Q 24.171875 6.390625 31.78125 6.390625 
Q 39.453125 6.390625 43.28125 13.890625 
Q 47.125 21.390625 47.125 36.375 
Q 47.125 51.421875 43.28125 58.90625 
Q 39.453125 66.40625 31.78125 66.40625 
z
M 31.78125 74.21875 
Q 44.046875 74.21875 50.515625 64.515625 
Q 56.984375 54.828125 56.984375 36.375 
Q 56.984375 17.96875 50.515625 8.265625 
Q 44.046875 -1.421875 31.78125 -1.421875 
Q 19.53125 -1.421875 13.0625 8.265625 
Q 6.59375 17.96875 6.59375 36.375 
Q 6.59375 54.828125 13.0625 64.515625 
Q 19.53125 74.21875 31.78125 74.21875 
z
" id="DejaVuSans-48"/>
       </defs>
       <use xlink:href="#DejaVuSans-48"/>
       <use x="63.623047" xlink:href="#DejaVuSans-46"/>
       <use x="95.410156" xlink:href="#DejaVuSans-48"/>
       <use x="159.033203" xlink:href="#DejaVuSans-48"/>
      </g>
     </g>
    </g>
    <g id="ytick_2">
     <g id="line2d_14">
      <g>
       <use style="fill:#262626;stroke:#262626;" x="48.38475" xlink:href="#m41cc54d61e" y="55.235778"/>
      </g>
     </g>
     <g id="text_14">
      <!-- 0.25 -->
      <g style="fill:#262626;" transform="translate(20.491 58.57909)scale(0.088 -0.088)">
       <defs>
        <path d="M 10.796875 72.90625 
L 49.515625 72.90625 
L 49.515625 64.59375 
L 19.828125 64.59375 
L 19.828125 46.734375 
Q 21.96875 47.46875 24.109375 47.828125 
Q 26.265625 48.1875 28.421875 48.1875 
Q 40.625 48.1875 47.75 41.5 
Q 54.890625 34.8125 54.890625 23.390625 
Q 54.890625 11.625 47.5625 5.09375 
Q 40.234375 -1.421875 26.90625 -1.421875 
Q 22.3125 -1.421875 17.546875 -0.640625 
Q 12.796875 0.140625 7.71875 1.703125 
L 7.71875 11.625 
Q 12.109375 9.234375 16.796875 8.0625 
Q 21.484375 6.890625 26.703125 6.890625 
Q 35.15625 6.890625 40.078125 11.328125 
Q 45.015625 15.765625 45.015625 23.390625 
Q 45.015625 31 40.078125 35.4375 
Q 35.15625 39.890625 26.703125 39.890625 
Q 22.75 39.890625 18.8125 39.015625 
Q 14.890625 38.140625 10.796875 36.28125 
z
" id="DejaVuSans-53"/>
       </defs>
       <use xlink:href="#DejaVuSans-48"/>
       <use x="63.623047" xlink:href="#DejaVuSans-46"/>
       <use x="95.410156" xlink:href="#DejaVuSans-50"/>
       <use x="159.033203" xlink:href="#DejaVuSans-53"/>
      </g>
     </g>
    </g>
    <g id="ytick_3">
     <g id="line2d_15">
      <g>
       <use style="fill:#262626;stroke:#262626;" x="48.38475" xlink:href="#m41cc54d61e" y="33.401333"/>
      </g>
     </g>
     <g id="text_15">
      <!-- 0.50 -->
      <g style="fill:#262626;" transform="translate(20.491 36.744646)scale(0.088 -0.088)">
       <use xlink:href="#DejaVuSans-48"/>
       <use x="63.623047" xlink:href="#DejaVuSans-46"/>
       <use x="95.410156" xlink:href="#DejaVuSans-53"/>
       <use x="159.033203" xlink:href="#DejaVuSans-48"/>
      </g>
     </g>
    </g>
    <g id="ytick_4">
     <g id="line2d_16">
      <g>
       <use style="fill:#262626;stroke:#262626;" x="48.38475" xlink:href="#m41cc54d61e" y="11.566889"/>
      </g>
     </g>
     <g id="text_16">
      <!-- 0.75 -->
      <g style="fill:#262626;" transform="translate(20.491 14.910201)scale(0.088 -0.088)">
       <defs>
        <path d="M 8.203125 72.90625 
L 55.078125 72.90625 
L 55.078125 68.703125 
L 28.609375 0 
L 18.3125 0 
L 43.21875 64.59375 
L 8.203125 64.59375 
z
" id="DejaVuSans-55"/>
       </defs>
       <use xlink:href="#DejaVuSans-48"/>
       <use x="63.623047" xlink:href="#DejaVuSans-46"/>
       <use x="95.410156" xlink:href="#DejaVuSans-55"/>
       <use x="159.033203" xlink:href="#DejaVuSans-53"/>
      </g>
     </g>
    </g>
    <g id="text_17">
     <!-- fit error (RMSE) -->
     <g style="fill:#262626;" transform="translate(14.4945 83.37875)rotate(-90)scale(0.096 -0.096)">
      <defs>
       <path d="M 37.109375 75.984375 
L 37.109375 68.5 
L 28.515625 68.5 
Q 23.6875 68.5 21.796875 66.546875 
Q 19.921875 64.59375 19.921875 59.515625 
L 19.921875 54.6875 
L 34.71875 54.6875 
L 34.71875 47.703125 
L 19.921875 47.703125 
L 19.921875 0 
L 10.890625 0 
L 10.890625 47.703125 
L 2.296875 47.703125 
L 2.296875 54.6875 
L 10.890625 54.6875 
L 10.890625 58.5 
Q 10.890625 67.625 15.140625 71.796875 
Q 19.390625 75.984375 28.609375 75.984375 
z
" id="DejaVuSans-102"/>
       <path d="M 31 75.875 
Q 24.46875 64.65625 21.28125 53.65625 
Q 18.109375 42.671875 18.109375 31.390625 
Q 18.109375 20.125 21.3125 9.0625 
Q 24.515625 -2 31 -13.1875 
L 23.1875 -13.1875 
Q 15.875 -1.703125 12.234375 9.375 
Q 8.59375 20.453125 8.59375 31.390625 
Q 8.59375 42.28125 12.203125 53.3125 
Q 15.828125 64.359375 23.1875 75.875 
z
" id="DejaVuSans-40"/>
       <path d="M 44.390625 34.1875 
Q 47.5625 33.109375 50.5625 29.59375 
Q 53.5625 26.078125 56.59375 19.921875 
L 66.609375 0 
L 56 0 
L 46.6875 18.703125 
Q 43.0625 26.03125 39.671875 28.421875 
Q 36.28125 30.8125 30.421875 30.8125 
L 19.671875 30.8125 
L 19.671875 0 
L 9.8125 0 
L 9.8125 72.90625 
L 32.078125 72.90625 
Q 44.578125 72.90625 50.734375 67.671875 
Q 56.890625 62.453125 56.890625 51.90625 
Q 56.890625 45.015625 53.6875 40.46875 
Q 50.484375 35.9375 44.390625 34.1875 
z
M 19.671875 64.796875 
L 19.671875 38.921875 
L 32.078125 38.921875 
Q 39.203125 38.921875 42.84375 42.21875 
Q 46.484375 45.515625 46.484375 51.90625 
Q 46.484375 58.296875 42.84375 61.546875 
Q 39.203125 64.796875 32.078125 64.796875 
z
" id="DejaVuSans-82"/>
       <path d="M 9.8125 72.90625 
L 24.515625 72.90625 
L 43.109375 23.296875 
L 61.8125 72.90625 
L 76.515625 72.90625 
L 76.515625 0 
L 66.890625 0 
L 66.890625 64.015625 
L 48.09375 14.015625 
L 38.1875 14.015625 
L 19.390625 64.015625 
L 19.390625 0 
L 9.8125 0 
z
" id="DejaVuSans-77"/>
       <path d="M 53.515625 70.515625 
L 53.515625 60.890625 
Q 47.90625 63.578125 42.921875 64.890625 
Q 37.9375 66.21875 33.296875 66.21875 
Q 25.25 66.21875 20.875 63.09375 
Q 16.5 59.96875 16.5 54.203125 
Q 16.5 49.359375 19.40625 46.890625 
Q 22.3125 44.4375 30.421875 42.921875 
L 36.375 41.703125 
Q 47.40625 39.59375 52.65625 34.296875 
Q 57.90625 29 57.90625 20.125 
Q 57.90625 9.515625 50.796875 4.046875 
Q 43.703125 -1.421875 29.984375 -1.421875 
Q 24.8125 -1.421875 18.96875 -0.25 
Q 13.140625 0.921875 6.890625 3.21875 
L 6.890625 13.375 
Q 12.890625 10.015625 18.65625 8.296875 
Q 24.421875 6.59375 29.984375 6.59375 
Q 38.421875 6.59375 43.015625 9.90625 
Q 47.609375 13.234375 47.609375 19.390625 
Q 47.609375 24.75 44.3125 27.78125 
Q 41.015625 30.8125 33.5 32.328125 
L 27.484375 33.5 
Q 16.453125 35.6875 11.515625 40.375 
Q 6.59375 45.0625 6.59375 53.421875 
Q 6.59375 63.09375 13.40625 68.65625 
Q 20.21875 74.21875 32.171875 74.21875 
Q 37.3125 74.21875 42.625 73.28125 
Q 47.953125 72.359375 53.515625 70.515625 
z
" id="DejaVuSans-83"/>
       <path d="M 9.8125 72.90625 
L 55.90625 72.90625 
L 55.90625 64.59375 
L 19.671875 64.59375 
L 19.671875 43.015625 
L 54.390625 43.015625 
L 54.390625 34.71875 
L 19.671875 34.71875 
L 19.671875 8.296875 
L 56.78125 8.296875 
L 56.78125 0 
L 9.8125 0 
z
" id="DejaVuSans-69"/>
       <path d="M 8.015625 75.875 
L 15.828125 75.875 
Q 23.140625 64.359375 26.78125 53.3125 
Q 30.421875 42.28125 30.421875 31.390625 
Q 30.421875 20.453125 26.78125 9.375 
Q 23.140625 -1.703125 15.828125 -13.1875 
L 8.015625 -13.1875 
Q 14.5 -2 17.703125 9.0625 
Q 20.90625 20.125 20.90625 31.390625 
Q 20.90625 42.671875 17.703125 53.65625 
Q 14.5 64.65625 8.015625 75.875 
z
" id="DejaVuSans-41"/>
      </defs>
      <use xlink:href="#DejaVuSans-102"/>
      <use x="35.205078" xlink:href="#DejaVuSans-105"/>
      <use x="62.988281" xlink:href="#DejaVuSans-116"/>
      <use x="102.197266" xlink:href="#DejaVuSans-32"/>
      <use x="133.984375" xlink:href="#DejaVuSans-101"/>
      <use x="195.507812" xlink:href="#DejaVuSans-114"/>
      <use x="234.871094" xlink:href="#DejaVuSans-114"/>
      <use x="273.734375" xlink:href="#DejaVuSans-111"/>
      <use x="334.916016" xlink:href="#DejaVuSans-114"/>
      <use x="376.029297" xlink:href="#DejaVuSans-32"/>
      <use x="407.816406" xlink:href="#DejaVuSans-40"/>
      <use x="446.830078" xlink:href="#DejaVuSans-82"/>
      <use x="516.3125" xlink:href="#DejaVuSans-77"/>
      <use x="602.591797" xlink:href="#DejaVuSans-83"/>
      <use x="666.068359" xlink:href="#DejaVuSans-69"/>
      <use x="729.251953" xlink:href="#DejaVuSans-41"/>
     </g>
    </g>
   </g>
   <g id="patch_3">
    <path clip-path="url(#pc0123f9ba8)" d="M 50.921079 72.068486 
L 57.377188 72.068486 
L 57.377188 54.24581 
L 50.921079 54.24581 
L 50.921079 72.068486 
z
" style="fill:#3274a1;stroke:#3d3d3d;stroke-linejoin:miter;stroke-width:1.2;"/>
   </g>
   <g id="patch_4">
    <path clip-path="url(#pc0123f9ba8)" d="M 57.508945 65.080476 
L 63.965055 65.080476 
L 63.965055 38.559565 
L 57.508945 38.559565 
L 57.508945 65.080476 
z
" style="fill:#3a923a;stroke:#3d3d3d;stroke-linejoin:miter;stroke-width:1.2;"/>
   </g>
   <g id="patch_5">
    <path clip-path="url(#pc0123f9ba8)" d="M 64.096812 65.652555 
L 70.552921 65.652555 
L 70.552921 38.508539 
L 64.096812 38.508539 
L 64.096812 65.652555 
z
" style="fill:#e1812c;stroke:#3d3d3d;stroke-linejoin:miter;stroke-width:1.2;"/>
   </g>
   <g id="patch_6">
    <path clip-path="url(#pc0123f9ba8)" d="M 75.625579 69.647542 
L 82.081688 69.647542 
L 82.081688 55.956427 
L 75.625579 55.956427 
L 75.625579 69.647542 
z
" style="fill:#3274a1;stroke:#3d3d3d;stroke-linejoin:miter;stroke-width:1.2;"/>
   </g>
   <g id="patch_7">
    <path clip-path="url(#pc0123f9ba8)" d="M 82.213445 65.469343 
L 88.669555 65.469343 
L 88.669555 49.886167 
L 82.213445 49.886167 
L 82.213445 65.469343 
z
" style="fill:#3a923a;stroke:#3d3d3d;stroke-linejoin:miter;stroke-width:1.2;"/>
   </g>
   <g id="patch_8">
    <path clip-path="url(#pc0123f9ba8)" d="M 88.801312 66.407763 
L 95.257421 66.407763 
L 95.257421 50.34891 
L 88.801312 50.34891 
L 88.801312 66.407763 
z
" style="fill:#e1812c;stroke:#3d3d3d;stroke-linejoin:miter;stroke-width:1.2;"/>
   </g>
   <g id="patch_9">
    <path clip-path="url(#pc0123f9ba8)" d="M 100.330079 69.488239 
L 106.786188 69.488239 
L 106.786188 58.376271 
L 100.330079 58.376271 
L 100.330079 69.488239 
z
" style="fill:#3274a1;stroke:#3d3d3d;stroke-linejoin:miter;stroke-width:1.2;"/>
   </g>
   <g id="patch_10">
    <path clip-path="url(#pc0123f9ba8)" d="M 106.917945 65.236812 
L 113.374055 65.236812 
L 113.374055 53.700223 
L 106.917945 53.700223 
L 106.917945 65.236812 
z
" style="fill:#3a923a;stroke:#3d3d3d;stroke-linejoin:miter;stroke-width:1.2;"/>
   </g>
   <g id="patch_11">
    <path clip-path="url(#pc0123f9ba8)" d="M 113.505812 65.640001 
L 119.961921 65.640001 
L 119.961921 54.123793 
L 113.505812 54.123793 
L 113.505812 65.640001 
z
" style="fill:#e1812c;stroke:#3d3d3d;stroke-linejoin:miter;stroke-width:1.2;"/>
   </g>
   <g id="patch_12">
    <path clip-path="url(#pc0123f9ba8)" d="M 125.034579 70.996822 
L 131.490688 70.996822 
L 131.490688 51.534096 
L 125.034579 51.534096 
L 125.034579 70.996822 
z
" style="fill:#3274a1;stroke:#3d3d3d;stroke-linejoin:miter;stroke-width:1.2;"/>
   </g>
   <g id="patch_13">
    <path clip-path="url(#pc0123f9ba8)" d="M 131.622445 64.324943 
L 138.078555 64.324943 
L 138.078555 38.038624 
L 131.622445 38.038624 
L 131.622445 64.324943 
z
" style="fill:#3a923a;stroke:#3d3d3d;stroke-linejoin:miter;stroke-width:1.2;"/>
   </g>
   <g id="patch_14">
    <path clip-path="url(#pc0123f9ba8)" d="M 138.210312 64.735816 
L 144.666421 64.735816 
L 144.666421 38.11578 
L 138.210312 38.11578 
L 138.210312 64.735816 
z
" style="fill:#e1812c;stroke:#3d3d3d;stroke-linejoin:miter;stroke-width:1.2;"/>
   </g>
   <g id="patch_15">
    <path clip-path="url(#pc0123f9ba8)" d="M 149.739079 73.493449 
L 156.195188 73.493449 
L 156.195188 59.275341 
L 149.739079 59.275341 
L 149.739079 73.493449 
z
" style="fill:#3274a1;stroke:#3d3d3d;stroke-linejoin:miter;stroke-width:1.2;"/>
   </g>
   <g id="patch_16">
    <path clip-path="url(#pc0123f9ba8)" d="M 156.326945 68.39747 
L 162.783055 68.39747 
L 162.783055 45.778245 
L 156.326945 45.778245 
L 156.326945 68.39747 
z
" style="fill:#3a923a;stroke:#3d3d3d;stroke-linejoin:miter;stroke-width:1.2;"/>
   </g>
   <g id="patch_17">
    <path clip-path="url(#pc0123f9ba8)" d="M 162.914812 68.774467 
L 169.370921 68.774467 
L 169.370921 45.91826 
L 162.914812 45.91826 
L 162.914812 68.774467 
z
" style="fill:#e1812c;stroke:#3d3d3d;stroke-linejoin:miter;stroke-width:1.2;"/>
   </g>
   <g id="patch_18">
    <path clip-path="url(#pc0123f9ba8)" d="M 174.443579 71.436707 
L 180.899688 71.436707 
L 180.899688 61.180773 
L 174.443579 61.180773 
L 174.443579 71.436707 
z
" style="fill:#3274a1;stroke:#3d3d3d;stroke-linejoin:miter;stroke-width:1.2;"/>
   </g>
   <g id="patch_19">
    <path clip-path="url(#pc0123f9ba8)" d="M 181.031445 62.187878 
L 187.487555 62.187878 
L 187.487555 49.301921 
L 181.031445 49.301921 
L 181.031445 62.187878 
z
" style="fill:#3a923a;stroke:#3d3d3d;stroke-linejoin:miter;stroke-width:1.2;"/>
   </g>
   <g id="patch_20">
    <path clip-path="url(#pc0123f9ba8)" d="M 187.619312 62.520371 
L 194.075421 62.520371 
L 194.075421 49.277804 
L 187.619312 49.277804 
L 187.619312 62.520371 
z
" style="fill:#e1812c;stroke:#3d3d3d;stroke-linejoin:miter;stroke-width:1.2;"/>
   </g>
   <g id="patch_21">
    <path clip-path="url(#pc0123f9ba8)" d="M 199.148079 72.233105 
L 205.604188 72.233105 
L 205.604188 61.700135 
L 199.148079 61.700135 
L 199.148079 72.233105 
z
" style="fill:#3274a1;stroke:#3d3d3d;stroke-linejoin:miter;stroke-width:1.2;"/>
   </g>
   <g id="patch_22">
    <path clip-path="url(#pc0123f9ba8)" d="M 205.735945 67.491661 
L 212.192055 67.491661 
L 212.192055 54.351041 
L 205.735945 54.351041 
L 205.735945 67.491661 
z
" style="fill:#3a923a;stroke:#3d3d3d;stroke-linejoin:miter;stroke-width:1.2;"/>
   </g>
   <g id="patch_23">
    <path clip-path="url(#pc0123f9ba8)" d="M 212.323812 68.481296 
L 218.779921 68.481296 
L 218.779921 54.351041 
L 212.323812 54.351041 
L 212.323812 68.481296 
z
" style="fill:#e1812c;stroke:#3d3d3d;stroke-linejoin:miter;stroke-width:1.2;"/>
   </g>
   <g id="patch_24">
    <path clip-path="url(#pc0123f9ba8)" d="M 223.852579 75.157252 
L 230.308688 75.157252 
L 230.308688 59.30195 
L 223.852579 59.30195 
L 223.852579 75.157252 
z
" style="fill:#3274a1;stroke:#3d3d3d;stroke-linejoin:miter;stroke-width:1.2;"/>
   </g>
   <g id="patch_25">
    <path clip-path="url(#pc0123f9ba8)" d="M 230.440445 67.765307 
L 236.896555 67.765307 
L 236.896555 44.783726 
L 230.440445 44.783726 
L 230.440445 67.765307 
z
" style="fill:#3a923a;stroke:#3d3d3d;stroke-linejoin:miter;stroke-width:1.2;"/>
   </g>
   <g id="patch_26">
    <path clip-path="url(#pc0123f9ba8)" d="M 237.028312 68.033613 
L 243.484421 68.033613 
L 243.484421 45.023798 
L 237.028312 45.023798 
L 237.028312 68.033613 
z
" style="fill:#e1812c;stroke:#3d3d3d;stroke-linejoin:miter;stroke-width:1.2;"/>
   </g>
   <g id="patch_27">
    <path clip-path="url(#pc0123f9ba8)" d="M 248.557079 69.309681 
L 255.013188 69.309681 
L 255.013188 55.374563 
L 248.557079 55.374563 
L 248.557079 69.309681 
z
" style="fill:#3274a1;stroke:#3d3d3d;stroke-linejoin:miter;stroke-width:1.2;"/>
   </g>
   <g id="patch_28">
    <path clip-path="url(#pc0123f9ba8)" d="M 255.144945 64.739676 
L 261.601055 64.739676 
L 261.601055 49.616104 
L 255.144945 49.616104 
L 255.144945 64.739676 
z
" style="fill:#3a923a;stroke:#3d3d3d;stroke-linejoin:miter;stroke-width:1.2;"/>
   </g>
   <g id="patch_29">
    <path clip-path="url(#pc0123f9ba8)" d="M 261.732812 65.902365 
L 268.188921 65.902365 
L 268.188921 49.855542 
L 261.732812 49.855542 
L 261.732812 65.902365 
z
" style="fill:#e1812c;stroke:#3d3d3d;stroke-linejoin:miter;stroke-width:1.2;"/>
   </g>
   <g id="patch_30">
    <path clip-path="url(#pc0123f9ba8)" d="M 273.261579 69.728442 
L 279.717688 69.728442 
L 279.717688 58.288144 
L 273.261579 58.288144 
L 273.261579 69.728442 
z
" style="fill:#3274a1;stroke:#3d3d3d;stroke-linejoin:miter;stroke-width:1.2;"/>
   </g>
   <g id="patch_31">
    <path clip-path="url(#pc0123f9ba8)" d="M 279.849445 64.679455 
L 286.305555 64.679455 
L 286.305555 53.228247 
L 279.849445 53.228247 
L 279.849445 64.679455 
z
" style="fill:#3a923a;stroke:#3d3d3d;stroke-linejoin:miter;stroke-width:1.2;"/>
   </g>
   <g id="patch_32">
    <path clip-path="url(#pc0123f9ba8)" d="M 286.437312 65.086922 
L 292.893421 65.086922 
L 292.893421 53.610186 
L 286.437312 53.610186 
L 286.437312 65.086922 
z
" style="fill:#e1812c;stroke:#3d3d3d;stroke-linejoin:miter;stroke-width:1.2;"/>
   </g>
   <g id="patch_33">
    <path clip-path="url(#pc0123f9ba8)" d="M 297.966079 69.122249 
L 304.422188 69.122249 
L 304.422188 55.084172 
L 297.966079 55.084172 
L 297.966079 69.122249 
z
" style="fill:#3274a1;stroke:#3d3d3d;stroke-linejoin:miter;stroke-width:1.2;"/>
   </g>
   <g id="patch_34">
    <path clip-path="url(#pc0123f9ba8)" d="M 304.553945 64.368965 
L 311.010055 64.368965 
L 311.010055 48.987169 
L 304.553945 48.987169 
L 304.553945 64.368965 
z
" style="fill:#3a923a;stroke:#3d3d3d;stroke-linejoin:miter;stroke-width:1.2;"/>
   </g>
   <g id="patch_35">
    <path clip-path="url(#pc0123f9ba8)" d="M 311.141812 65.431224 
L 317.597921 65.431224 
L 317.597921 49.359944 
L 311.141812 49.359944 
L 311.141812 65.431224 
z
" style="fill:#e1812c;stroke:#3d3d3d;stroke-linejoin:miter;stroke-width:1.2;"/>
   </g>
   <g id="patch_36">
    <path clip-path="url(#pc0123f9ba8)" d="M 322.670579 69.53439 
L 329.126688 69.53439 
L 329.126688 55.534959 
L 322.670579 55.534959 
L 322.670579 69.53439 
z
" style="fill:#3274a1;stroke:#3d3d3d;stroke-linejoin:miter;stroke-width:1.2;"/>
   </g>
   <g id="patch_37">
    <path clip-path="url(#pc0123f9ba8)" d="M 329.258445 65.04683 
L 335.714555 65.04683 
L 335.714555 49.393747 
L 329.258445 49.393747 
L 329.258445 65.04683 
z
" style="fill:#3a923a;stroke:#3d3d3d;stroke-linejoin:miter;stroke-width:1.2;"/>
   </g>
   <g id="patch_38">
    <path clip-path="url(#pc0123f9ba8)" d="M 335.846312 66.071784 
L 342.302421 66.071784 
L 342.302421 49.851917 
L 335.846312 49.851917 
L 335.846312 66.071784 
z
" style="fill:#e1812c;stroke:#3d3d3d;stroke-linejoin:miter;stroke-width:1.2;"/>
   </g>
   <g id="patch_39">
    <path clip-path="url(#pc0123f9ba8)" d="M 60.737 77.070222 
L 60.737 77.070222 
L 60.737 77.070222 
L 60.737 77.070222 
z
" style="fill:#3274a1;stroke:#3d3d3d;stroke-linejoin:miter;stroke-width:0.6;"/>
   </g>
   <g id="patch_40">
    <path clip-path="url(#pc0123f9ba8)" d="M 60.737 77.070222 
L 60.737 77.070222 
L 60.737 77.070222 
L 60.737 77.070222 
z
" style="fill:#3a923a;stroke:#3d3d3d;stroke-linejoin:miter;stroke-width:0.6;"/>
   </g>
   <g id="patch_41">
    <path clip-path="url(#pc0123f9ba8)" d="M 60.737 77.070222 
L 60.737 77.070222 
L 60.737 77.070222 
L 60.737 77.070222 
z
" style="fill:#e1812c;stroke:#3d3d3d;stroke-linejoin:miter;stroke-width:0.6;"/>
   </g>
   <g id="line2d_17">
    <path clip-path="url(#pc0123f9ba8)" d="M 54.149133 72.068486 
L 54.149133 77.059329 
" style="fill:none;stroke:#3d3d3d;stroke-linecap:round;stroke-width:1.2;"/>
   </g>
   <g id="line2d_18">
    <path clip-path="url(#pc0123f9ba8)" d="M 54.149133 54.24581 
L 54.149133 37.348421 
" style="fill:none;stroke:#3d3d3d;stroke-linecap:round;stroke-width:1.2;"/>
   </g>
   <g id="line2d_19">
    <path clip-path="url(#pc0123f9ba8)" d="M 52.535106 77.059329 
L 55.763161 77.059329 
" style="fill:none;stroke:#3d3d3d;stroke-linecap:round;stroke-width:1.2;"/>
   </g>
   <g id="line2d_20">
    <path clip-path="url(#pc0123f9ba8)" d="M 52.535106 37.348421 
L 55.763161 37.348421 
" style="fill:none;stroke:#3d3d3d;stroke-linecap:round;stroke-width:1.2;"/>
   </g>
   <g id="line2d_21"/>
   <g id="line2d_22">
    <path clip-path="url(#pc0123f9ba8)" d="M 60.737 65.080476 
L 60.737 73.048383 
" style="fill:none;stroke:#3d3d3d;stroke-linecap:round;stroke-width:1.2;"/>
   </g>
   <g id="line2d_23">
    <path clip-path="url(#pc0123f9ba8)" d="M 60.737 38.559565 
L 60.737 19.774698 
" style="fill:none;stroke:#3d3d3d;stroke-linecap:round;stroke-width:1.2;"/>
   </g>
   <g id="line2d_24">
    <path clip-path="url(#pc0123f9ba8)" d="M 59.122973 73.048383 
L 62.351027 73.048383 
" style="fill:none;stroke:#3d3d3d;stroke-linecap:round;stroke-width:1.2;"/>
   </g>
   <g id="line2d_25">
    <path clip-path="url(#pc0123f9ba8)" d="M 59.122973 19.774698 
L 62.351027 19.774698 
" style="fill:none;stroke:#3d3d3d;stroke-linecap:round;stroke-width:1.2;"/>
   </g>
   <g id="line2d_26"/>
   <g id="line2d_27">
    <path clip-path="url(#pc0123f9ba8)" d="M 67.324867 65.652555 
L 67.324867 73.613561 
" style="fill:none;stroke:#3d3d3d;stroke-linecap:round;stroke-width:1.2;"/>
   </g>
   <g id="line2d_28">
    <path clip-path="url(#pc0123f9ba8)" d="M 67.324867 38.508539 
L 67.324867 19.808388 
" style="fill:none;stroke:#3d3d3d;stroke-linecap:round;stroke-width:1.2;"/>
   </g>
   <g id="line2d_29">
    <path clip-path="url(#pc0123f9ba8)" d="M 65.710839 73.613561 
L 68.938894 73.613561 
" style="fill:none;stroke:#3d3d3d;stroke-linecap:round;stroke-width:1.2;"/>
   </g>
   <g id="line2d_30">
    <path clip-path="url(#pc0123f9ba8)" d="M 65.710839 19.808388 
L 68.938894 19.808388 
" style="fill:none;stroke:#3d3d3d;stroke-linecap:round;stroke-width:1.2;"/>
   </g>
   <g id="line2d_31"/>
   <g id="line2d_32">
    <path clip-path="url(#pc0123f9ba8)" d="M 78.853633 69.647542 
L 78.853633 74.984414 
" style="fill:none;stroke:#3d3d3d;stroke-linecap:round;stroke-width:1.2;"/>
   </g>
   <g id="line2d_33">
    <path clip-path="url(#pc0123f9ba8)" d="M 78.853633 55.956427 
L 78.853633 41.235502 
" style="fill:none;stroke:#3d3d3d;stroke-linecap:round;stroke-width:1.2;"/>
   </g>
   <g id="line2d_34">
    <path clip-path="url(#pc0123f9ba8)" d="M 77.239606 74.984414 
L 80.467661 74.984414 
" style="fill:none;stroke:#3d3d3d;stroke-linecap:round;stroke-width:1.2;"/>
   </g>
   <g id="line2d_35">
    <path clip-path="url(#pc0123f9ba8)" d="M 77.239606 41.235502 
L 80.467661 41.235502 
" style="fill:none;stroke:#3d3d3d;stroke-linecap:round;stroke-width:1.2;"/>
   </g>
   <g id="line2d_36"/>
   <g id="line2d_37">
    <path clip-path="url(#pc0123f9ba8)" d="M 85.4415 65.469343 
L 85.4415 72.127723 
" style="fill:none;stroke:#3d3d3d;stroke-linecap:round;stroke-width:1.2;"/>
   </g>
   <g id="line2d_38">
    <path clip-path="url(#pc0123f9ba8)" d="M 85.4415 49.886167 
L 85.4415 32.997019 
" style="fill:none;stroke:#3d3d3d;stroke-linecap:round;stroke-width:1.2;"/>
   </g>
   <g id="line2d_39">
    <path clip-path="url(#pc0123f9ba8)" d="M 83.827473 72.127723 
L 87.055527 72.127723 
" style="fill:none;stroke:#3d3d3d;stroke-linecap:round;stroke-width:1.2;"/>
   </g>
   <g id="line2d_40">
    <path clip-path="url(#pc0123f9ba8)" d="M 83.827473 32.997019 
L 87.055527 32.997019 
" style="fill:none;stroke:#3d3d3d;stroke-linecap:round;stroke-width:1.2;"/>
   </g>
   <g id="line2d_41"/>
   <g id="line2d_42">
    <path clip-path="url(#pc0123f9ba8)" d="M 92.029367 66.407763 
L 92.029367 72.836012 
" style="fill:none;stroke:#3d3d3d;stroke-linecap:round;stroke-width:1.2;"/>
   </g>
   <g id="line2d_43">
    <path clip-path="url(#pc0123f9ba8)" d="M 92.029367 50.34891 
L 92.029367 33.321598 
" style="fill:none;stroke:#3d3d3d;stroke-linecap:round;stroke-width:1.2;"/>
   </g>
   <g id="line2d_44">
    <path clip-path="url(#pc0123f9ba8)" d="M 90.415339 72.836012 
L 93.643394 72.836012 
" style="fill:none;stroke:#3d3d3d;stroke-linecap:round;stroke-width:1.2;"/>
   </g>
   <g id="line2d_45">
    <path clip-path="url(#pc0123f9ba8)" d="M 90.415339 33.321598 
L 93.643394 33.321598 
" style="fill:none;stroke:#3d3d3d;stroke-linecap:round;stroke-width:1.2;"/>
   </g>
   <g id="line2d_46"/>
   <g id="line2d_47">
    <path clip-path="url(#pc0123f9ba8)" d="M 103.558133 69.488239 
L 103.558133 74.180267 
" style="fill:none;stroke:#3d3d3d;stroke-linecap:round;stroke-width:1.2;"/>
   </g>
   <g id="line2d_48">
    <path clip-path="url(#pc0123f9ba8)" d="M 103.558133 58.376271 
L 103.558133 46.412187 
" style="fill:none;stroke:#3d3d3d;stroke-linecap:round;stroke-width:1.2;"/>
   </g>
   <g id="line2d_49">
    <path clip-path="url(#pc0123f9ba8)" d="M 101.944106 74.180267 
L 105.172161 74.180267 
" style="fill:none;stroke:#3d3d3d;stroke-linecap:round;stroke-width:1.2;"/>
   </g>
   <g id="line2d_50">
    <path clip-path="url(#pc0123f9ba8)" d="M 101.944106 46.412187 
L 105.172161 46.412187 
" style="fill:none;stroke:#3d3d3d;stroke-linecap:round;stroke-width:1.2;"/>
   </g>
   <g id="line2d_51"/>
   <g id="line2d_52">
    <path clip-path="url(#pc0123f9ba8)" d="M 110.146 65.236812 
L 110.146 69.627103 
" style="fill:none;stroke:#3d3d3d;stroke-linecap:round;stroke-width:1.2;"/>
   </g>
   <g id="line2d_53">
    <path clip-path="url(#pc0123f9ba8)" d="M 110.146 53.700223 
L 110.146 39.718202 
" style="fill:none;stroke:#3d3d3d;stroke-linecap:round;stroke-width:1.2;"/>
   </g>
   <g id="line2d_54">
    <path clip-path="url(#pc0123f9ba8)" d="M 108.531973 69.627103 
L 111.760027 69.627103 
" style="fill:none;stroke:#3d3d3d;stroke-linecap:round;stroke-width:1.2;"/>
   </g>
   <g id="line2d_55">
    <path clip-path="url(#pc0123f9ba8)" d="M 108.531973 39.718202 
L 111.760027 39.718202 
" style="fill:none;stroke:#3d3d3d;stroke-linecap:round;stroke-width:1.2;"/>
   </g>
   <g id="line2d_56"/>
   <g id="line2d_57">
    <path clip-path="url(#pc0123f9ba8)" d="M 116.733867 65.640001 
L 116.733867 69.874248 
" style="fill:none;stroke:#3d3d3d;stroke-linecap:round;stroke-width:1.2;"/>
   </g>
   <g id="line2d_58">
    <path clip-path="url(#pc0123f9ba8)" d="M 116.733867 54.123793 
L 116.733867 39.800344 
" style="fill:none;stroke:#3d3d3d;stroke-linecap:round;stroke-width:1.2;"/>
   </g>
   <g id="line2d_59">
    <path clip-path="url(#pc0123f9ba8)" d="M 115.119839 69.874248 
L 118.347894 69.874248 
" style="fill:none;stroke:#3d3d3d;stroke-linecap:round;stroke-width:1.2;"/>
   </g>
   <g id="line2d_60">
    <path clip-path="url(#pc0123f9ba8)" d="M 115.119839 39.800344 
L 118.347894 39.800344 
" style="fill:none;stroke:#3d3d3d;stroke-linecap:round;stroke-width:1.2;"/>
   </g>
   <g id="line2d_61"/>
   <g id="line2d_62">
    <path clip-path="url(#pc0123f9ba8)" d="M 128.262633 70.996822 
L 128.262633 77.045389 
" style="fill:none;stroke:#3d3d3d;stroke-linecap:round;stroke-width:1.2;"/>
   </g>
   <g id="line2d_63">
    <path clip-path="url(#pc0123f9ba8)" d="M 128.262633 51.534096 
L 128.262633 36.088161 
" style="fill:none;stroke:#3d3d3d;stroke-linecap:round;stroke-width:1.2;"/>
   </g>
   <g id="line2d_64">
    <path clip-path="url(#pc0123f9ba8)" d="M 126.648606 77.045389 
L 129.876661 77.045389 
" style="fill:none;stroke:#3d3d3d;stroke-linecap:round;stroke-width:1.2;"/>
   </g>
   <g id="line2d_65">
    <path clip-path="url(#pc0123f9ba8)" d="M 126.648606 36.088161 
L 129.876661 36.088161 
" style="fill:none;stroke:#3d3d3d;stroke-linecap:round;stroke-width:1.2;"/>
   </g>
   <g id="line2d_66"/>
   <g id="line2d_67">
    <path clip-path="url(#pc0123f9ba8)" d="M 134.8505 64.324943 
L 134.8505 72.666691 
" style="fill:none;stroke:#3d3d3d;stroke-linecap:round;stroke-width:1.2;"/>
   </g>
   <g id="line2d_68">
    <path clip-path="url(#pc0123f9ba8)" d="M 134.8505 38.038624 
L 134.8505 20.076874 
" style="fill:none;stroke:#3d3d3d;stroke-linecap:round;stroke-width:1.2;"/>
   </g>
   <g id="line2d_69">
    <path clip-path="url(#pc0123f9ba8)" d="M 133.236473 72.666691 
L 136.464527 72.666691 
" style="fill:none;stroke:#3d3d3d;stroke-linecap:round;stroke-width:1.2;"/>
   </g>
   <g id="line2d_70">
    <path clip-path="url(#pc0123f9ba8)" d="M 133.236473 20.076874 
L 136.464527 20.076874 
" style="fill:none;stroke:#3d3d3d;stroke-linecap:round;stroke-width:1.2;"/>
   </g>
   <g id="line2d_71"/>
   <g id="line2d_72">
    <path clip-path="url(#pc0123f9ba8)" d="M 141.438367 64.735816 
L 141.438367 73.148292 
" style="fill:none;stroke:#3d3d3d;stroke-linecap:round;stroke-width:1.2;"/>
   </g>
   <g id="line2d_73">
    <path clip-path="url(#pc0123f9ba8)" d="M 141.438367 38.11578 
L 141.438367 20.087499 
" style="fill:none;stroke:#3d3d3d;stroke-linecap:round;stroke-width:1.2;"/>
   </g>
   <g id="line2d_74">
    <path clip-path="url(#pc0123f9ba8)" d="M 139.824339 73.148292 
L 143.052394 73.148292 
" style="fill:none;stroke:#3d3d3d;stroke-linecap:round;stroke-width:1.2;"/>
   </g>
   <g id="line2d_75">
    <path clip-path="url(#pc0123f9ba8)" d="M 139.824339 20.087499 
L 143.052394 20.087499 
" style="fill:none;stroke:#3d3d3d;stroke-linecap:round;stroke-width:1.2;"/>
   </g>
   <g id="line2d_76"/>
   <g id="line2d_77">
    <path clip-path="url(#pc0123f9ba8)" d="M 152.967133 73.493449 
L 152.967133 77.055292 
" style="fill:none;stroke:#3d3d3d;stroke-linecap:round;stroke-width:1.2;"/>
   </g>
   <g id="line2d_78">
    <path clip-path="url(#pc0123f9ba8)" d="M 152.967133 59.275341 
L 152.967133 41.862624 
" style="fill:none;stroke:#3d3d3d;stroke-linecap:round;stroke-width:1.2;"/>
   </g>
   <g id="line2d_79">
    <path clip-path="url(#pc0123f9ba8)" d="M 151.353106 77.055292 
L 154.581161 77.055292 
" style="fill:none;stroke:#3d3d3d;stroke-linecap:round;stroke-width:1.2;"/>
   </g>
   <g id="line2d_80">
    <path clip-path="url(#pc0123f9ba8)" d="M 151.353106 41.862624 
L 154.581161 41.862624 
" style="fill:none;stroke:#3d3d3d;stroke-linecap:round;stroke-width:1.2;"/>
   </g>
   <g id="line2d_81"/>
   <g id="line2d_82">
    <path clip-path="url(#pc0123f9ba8)" d="M 159.555 68.39747 
L 159.555 74.662083 
" style="fill:none;stroke:#3d3d3d;stroke-linecap:round;stroke-width:1.2;"/>
   </g>
   <g id="line2d_83">
    <path clip-path="url(#pc0123f9ba8)" d="M 159.555 45.778245 
L 159.555 24.282174 
" style="fill:none;stroke:#3d3d3d;stroke-linecap:round;stroke-width:1.2;"/>
   </g>
   <g id="line2d_84">
    <path clip-path="url(#pc0123f9ba8)" d="M 157.940973 74.662083 
L 161.169027 74.662083 
" style="fill:none;stroke:#3d3d3d;stroke-linecap:round;stroke-width:1.2;"/>
   </g>
   <g id="line2d_85">
    <path clip-path="url(#pc0123f9ba8)" d="M 157.940973 24.282174 
L 161.169027 24.282174 
" style="fill:none;stroke:#3d3d3d;stroke-linecap:round;stroke-width:1.2;"/>
   </g>
   <g id="line2d_86"/>
   <g id="line2d_87">
    <path clip-path="url(#pc0123f9ba8)" d="M 166.142867 68.774467 
L 166.142867 74.781774 
" style="fill:none;stroke:#3d3d3d;stroke-linecap:round;stroke-width:1.2;"/>
   </g>
   <g id="line2d_88">
    <path clip-path="url(#pc0123f9ba8)" d="M 166.142867 45.91826 
L 166.142867 24.282165 
" style="fill:none;stroke:#3d3d3d;stroke-linecap:round;stroke-width:1.2;"/>
   </g>
   <g id="line2d_89">
    <path clip-path="url(#pc0123f9ba8)" d="M 164.528839 74.781774 
L 167.756894 74.781774 
" style="fill:none;stroke:#3d3d3d;stroke-linecap:round;stroke-width:1.2;"/>
   </g>
   <g id="line2d_90">
    <path clip-path="url(#pc0123f9ba8)" d="M 164.528839 24.282165 
L 167.756894 24.282165 
" style="fill:none;stroke:#3d3d3d;stroke-linecap:round;stroke-width:1.2;"/>
   </g>
   <g id="line2d_91"/>
   <g id="line2d_92">
    <path clip-path="url(#pc0123f9ba8)" d="M 177.671633 71.436707 
L 177.671633 75.454729 
" style="fill:none;stroke:#3d3d3d;stroke-linecap:round;stroke-width:1.2;"/>
   </g>
   <g id="line2d_93">
    <path clip-path="url(#pc0123f9ba8)" d="M 177.671633 61.180773 
L 177.671633 48.958872 
" style="fill:none;stroke:#3d3d3d;stroke-linecap:round;stroke-width:1.2;"/>
   </g>
   <g id="line2d_94">
    <path clip-path="url(#pc0123f9ba8)" d="M 176.057606 75.454729 
L 179.285661 75.454729 
" style="fill:none;stroke:#3d3d3d;stroke-linecap:round;stroke-width:1.2;"/>
   </g>
   <g id="line2d_95">
    <path clip-path="url(#pc0123f9ba8)" d="M 176.057606 48.958872 
L 179.285661 48.958872 
" style="fill:none;stroke:#3d3d3d;stroke-linecap:round;stroke-width:1.2;"/>
   </g>
   <g id="line2d_96"/>
   <g id="line2d_97">
    <path clip-path="url(#pc0123f9ba8)" d="M 184.2595 62.187878 
L 184.2595 68.277989 
" style="fill:none;stroke:#3d3d3d;stroke-linecap:round;stroke-width:1.2;"/>
   </g>
   <g id="line2d_98">
    <path clip-path="url(#pc0123f9ba8)" d="M 184.2595 49.301921 
L 184.2595 32.967263 
" style="fill:none;stroke:#3d3d3d;stroke-linecap:round;stroke-width:1.2;"/>
   </g>
   <g id="line2d_99">
    <path clip-path="url(#pc0123f9ba8)" d="M 182.645473 68.277989 
L 185.873527 68.277989 
" style="fill:none;stroke:#3d3d3d;stroke-linecap:round;stroke-width:1.2;"/>
   </g>
   <g id="line2d_100">
    <path clip-path="url(#pc0123f9ba8)" d="M 182.645473 32.967263 
L 185.873527 32.967263 
" style="fill:none;stroke:#3d3d3d;stroke-linecap:round;stroke-width:1.2;"/>
   </g>
   <g id="line2d_101"/>
   <g id="line2d_102">
    <path clip-path="url(#pc0123f9ba8)" d="M 190.847367 62.520371 
L 190.847367 68.867148 
" style="fill:none;stroke:#3d3d3d;stroke-linecap:round;stroke-width:1.2;"/>
   </g>
   <g id="line2d_103">
    <path clip-path="url(#pc0123f9ba8)" d="M 190.847367 49.277804 
L 190.847367 32.935772 
" style="fill:none;stroke:#3d3d3d;stroke-linecap:round;stroke-width:1.2;"/>
   </g>
   <g id="line2d_104">
    <path clip-path="url(#pc0123f9ba8)" d="M 189.233339 68.867148 
L 192.461394 68.867148 
" style="fill:none;stroke:#3d3d3d;stroke-linecap:round;stroke-width:1.2;"/>
   </g>
   <g id="line2d_105">
    <path clip-path="url(#pc0123f9ba8)" d="M 189.233339 32.935772 
L 192.461394 32.935772 
" style="fill:none;stroke:#3d3d3d;stroke-linecap:round;stroke-width:1.2;"/>
   </g>
   <g id="line2d_106"/>
   <g id="line2d_107">
    <path clip-path="url(#pc0123f9ba8)" d="M 202.376133 72.233105 
L 202.376133 77.061118 
" style="fill:none;stroke:#3d3d3d;stroke-linecap:round;stroke-width:1.2;"/>
   </g>
   <g id="line2d_108">
    <path clip-path="url(#pc0123f9ba8)" d="M 202.376133 61.700135 
L 202.376133 49.051607 
" style="fill:none;stroke:#3d3d3d;stroke-linecap:round;stroke-width:1.2;"/>
   </g>
   <g id="line2d_109">
    <path clip-path="url(#pc0123f9ba8)" d="M 200.762106 77.061118 
L 203.990161 77.061118 
" style="fill:none;stroke:#3d3d3d;stroke-linecap:round;stroke-width:1.2;"/>
   </g>
   <g id="line2d_110">
    <path clip-path="url(#pc0123f9ba8)" d="M 200.762106 49.051607 
L 203.990161 49.051607 
" style="fill:none;stroke:#3d3d3d;stroke-linecap:round;stroke-width:1.2;"/>
   </g>
   <g id="line2d_111"/>
   <g id="line2d_112">
    <path clip-path="url(#pc0123f9ba8)" d="M 208.964 67.491661 
L 208.964 73.339006 
" style="fill:none;stroke:#3d3d3d;stroke-linecap:round;stroke-width:1.2;"/>
   </g>
   <g id="line2d_113">
    <path clip-path="url(#pc0123f9ba8)" d="M 208.964 54.351041 
L 208.964 34.047571 
" style="fill:none;stroke:#3d3d3d;stroke-linecap:round;stroke-width:1.2;"/>
   </g>
   <g id="line2d_114">
    <path clip-path="url(#pc0123f9ba8)" d="M 207.349973 73.339006 
L 210.578027 73.339006 
" style="fill:none;stroke:#3d3d3d;stroke-linecap:round;stroke-width:1.2;"/>
   </g>
   <g id="line2d_115">
    <path clip-path="url(#pc0123f9ba8)" d="M 207.349973 34.047571 
L 210.578027 34.047571 
" style="fill:none;stroke:#3d3d3d;stroke-linecap:round;stroke-width:1.2;"/>
   </g>
   <g id="line2d_116"/>
   <g id="line2d_117">
    <path clip-path="url(#pc0123f9ba8)" d="M 215.551867 68.481296 
L 215.551867 74.036645 
" style="fill:none;stroke:#3d3d3d;stroke-linecap:round;stroke-width:1.2;"/>
   </g>
   <g id="line2d_118">
    <path clip-path="url(#pc0123f9ba8)" d="M 215.551867 54.351041 
L 215.551867 34.128247 
" style="fill:none;stroke:#3d3d3d;stroke-linecap:round;stroke-width:1.2;"/>
   </g>
   <g id="line2d_119">
    <path clip-path="url(#pc0123f9ba8)" d="M 213.937839 74.036645 
L 217.165894 74.036645 
" style="fill:none;stroke:#3d3d3d;stroke-linecap:round;stroke-width:1.2;"/>
   </g>
   <g id="line2d_120">
    <path clip-path="url(#pc0123f9ba8)" d="M 213.937839 34.128247 
L 217.165894 34.128247 
" style="fill:none;stroke:#3d3d3d;stroke-linecap:round;stroke-width:1.2;"/>
   </g>
   <g id="line2d_121"/>
   <g id="line2d_122">
    <path clip-path="url(#pc0123f9ba8)" d="M 227.080633 75.157252 
L 227.080633 77.070205 
" style="fill:none;stroke:#3d3d3d;stroke-linecap:round;stroke-width:1.2;"/>
   </g>
   <g id="line2d_123">
    <path clip-path="url(#pc0123f9ba8)" d="M 227.080633 59.30195 
L 227.080633 39.695561 
" style="fill:none;stroke:#3d3d3d;stroke-linecap:round;stroke-width:1.2;"/>
   </g>
   <g id="line2d_124">
    <path clip-path="url(#pc0123f9ba8)" d="M 225.466606 77.070205 
L 228.694661 77.070205 
" style="fill:none;stroke:#3d3d3d;stroke-linecap:round;stroke-width:1.2;"/>
   </g>
   <g id="line2d_125">
    <path clip-path="url(#pc0123f9ba8)" d="M 225.466606 39.695561 
L 228.694661 39.695561 
" style="fill:none;stroke:#3d3d3d;stroke-linecap:round;stroke-width:1.2;"/>
   </g>
   <g id="line2d_126"/>
   <g id="line2d_127">
    <path clip-path="url(#pc0123f9ba8)" d="M 233.6685 67.765307 
L 233.6685 74.276741 
" style="fill:none;stroke:#3d3d3d;stroke-linecap:round;stroke-width:1.2;"/>
   </g>
   <g id="line2d_128">
    <path clip-path="url(#pc0123f9ba8)" d="M 233.6685 44.783726 
L 233.6685 22.567478 
" style="fill:none;stroke:#3d3d3d;stroke-linecap:round;stroke-width:1.2;"/>
   </g>
   <g id="line2d_129">
    <path clip-path="url(#pc0123f9ba8)" d="M 232.054473 74.276741 
L 235.282527 74.276741 
" style="fill:none;stroke:#3d3d3d;stroke-linecap:round;stroke-width:1.2;"/>
   </g>
   <g id="line2d_130">
    <path clip-path="url(#pc0123f9ba8)" d="M 232.054473 22.567478 
L 235.282527 22.567478 
" style="fill:none;stroke:#3d3d3d;stroke-linecap:round;stroke-width:1.2;"/>
   </g>
   <g id="line2d_131"/>
   <g id="line2d_132">
    <path clip-path="url(#pc0123f9ba8)" d="M 240.256367 68.033613 
L 240.256367 74.463936 
" style="fill:none;stroke:#3d3d3d;stroke-linecap:round;stroke-width:1.2;"/>
   </g>
   <g id="line2d_133">
    <path clip-path="url(#pc0123f9ba8)" d="M 240.256367 45.023798 
L 240.256367 22.561389 
" style="fill:none;stroke:#3d3d3d;stroke-linecap:round;stroke-width:1.2;"/>
   </g>
   <g id="line2d_134">
    <path clip-path="url(#pc0123f9ba8)" d="M 238.642339 74.463936 
L 241.870394 74.463936 
" style="fill:none;stroke:#3d3d3d;stroke-linecap:round;stroke-width:1.2;"/>
   </g>
   <g id="line2d_135">
    <path clip-path="url(#pc0123f9ba8)" d="M 238.642339 22.561389 
L 241.870394 22.561389 
" style="fill:none;stroke:#3d3d3d;stroke-linecap:round;stroke-width:1.2;"/>
   </g>
   <g id="line2d_136"/>
   <g id="line2d_137">
    <path clip-path="url(#pc0123f9ba8)" d="M 251.785133 69.309681 
L 251.785133 74.839572 
" style="fill:none;stroke:#3d3d3d;stroke-linecap:round;stroke-width:1.2;"/>
   </g>
   <g id="line2d_138">
    <path clip-path="url(#pc0123f9ba8)" d="M 251.785133 55.374563 
L 251.785133 40.147047 
" style="fill:none;stroke:#3d3d3d;stroke-linecap:round;stroke-width:1.2;"/>
   </g>
   <g id="line2d_139">
    <path clip-path="url(#pc0123f9ba8)" d="M 250.171106 74.839572 
L 253.399161 74.839572 
" style="fill:none;stroke:#3d3d3d;stroke-linecap:round;stroke-width:1.2;"/>
   </g>
   <g id="line2d_140">
    <path clip-path="url(#pc0123f9ba8)" d="M 250.171106 40.147047 
L 253.399161 40.147047 
" style="fill:none;stroke:#3d3d3d;stroke-linecap:round;stroke-width:1.2;"/>
   </g>
   <g id="line2d_141"/>
   <g id="line2d_142">
    <path clip-path="url(#pc0123f9ba8)" d="M 258.373 64.739676 
L 258.373 71.536669 
" style="fill:none;stroke:#3d3d3d;stroke-linecap:round;stroke-width:1.2;"/>
   </g>
   <g id="line2d_143">
    <path clip-path="url(#pc0123f9ba8)" d="M 258.373 49.616104 
L 258.373 31.916669 
" style="fill:none;stroke:#3d3d3d;stroke-linecap:round;stroke-width:1.2;"/>
   </g>
   <g id="line2d_144">
    <path clip-path="url(#pc0123f9ba8)" d="M 256.758973 71.536669 
L 259.987027 71.536669 
" style="fill:none;stroke:#3d3d3d;stroke-linecap:round;stroke-width:1.2;"/>
   </g>
   <g id="line2d_145">
    <path clip-path="url(#pc0123f9ba8)" d="M 256.758973 31.916669 
L 259.987027 31.916669 
" style="fill:none;stroke:#3d3d3d;stroke-linecap:round;stroke-width:1.2;"/>
   </g>
   <g id="line2d_146"/>
   <g id="line2d_147">
    <path clip-path="url(#pc0123f9ba8)" d="M 264.960867 65.902365 
L 264.960867 72.341608 
" style="fill:none;stroke:#3d3d3d;stroke-linecap:round;stroke-width:1.2;"/>
   </g>
   <g id="line2d_148">
    <path clip-path="url(#pc0123f9ba8)" d="M 264.960867 49.855542 
L 264.960867 31.947562 
" style="fill:none;stroke:#3d3d3d;stroke-linecap:round;stroke-width:1.2;"/>
   </g>
   <g id="line2d_149">
    <path clip-path="url(#pc0123f9ba8)" d="M 263.346839 72.341608 
L 266.574894 72.341608 
" style="fill:none;stroke:#3d3d3d;stroke-linecap:round;stroke-width:1.2;"/>
   </g>
   <g id="line2d_150">
    <path clip-path="url(#pc0123f9ba8)" d="M 263.346839 31.947562 
L 266.574894 31.947562 
" style="fill:none;stroke:#3d3d3d;stroke-linecap:round;stroke-width:1.2;"/>
   </g>
   <g id="line2d_151"/>
   <g id="line2d_152">
    <path clip-path="url(#pc0123f9ba8)" d="M 276.489633 69.728442 
L 276.489633 74.688253 
" style="fill:none;stroke:#3d3d3d;stroke-linecap:round;stroke-width:1.2;"/>
   </g>
   <g id="line2d_153">
    <path clip-path="url(#pc0123f9ba8)" d="M 276.489633 58.288144 
L 276.489633 45.539861 
" style="fill:none;stroke:#3d3d3d;stroke-linecap:round;stroke-width:1.2;"/>
   </g>
   <g id="line2d_154">
    <path clip-path="url(#pc0123f9ba8)" d="M 274.875606 74.688253 
L 278.103661 74.688253 
" style="fill:none;stroke:#3d3d3d;stroke-linecap:round;stroke-width:1.2;"/>
   </g>
   <g id="line2d_155">
    <path clip-path="url(#pc0123f9ba8)" d="M 274.875606 45.539861 
L 278.103661 45.539861 
" style="fill:none;stroke:#3d3d3d;stroke-linecap:round;stroke-width:1.2;"/>
   </g>
   <g id="line2d_156"/>
   <g id="line2d_157">
    <path clip-path="url(#pc0123f9ba8)" d="M 283.0775 64.679455 
L 283.0775 69.18779 
" style="fill:none;stroke:#3d3d3d;stroke-linecap:round;stroke-width:1.2;"/>
   </g>
   <g id="line2d_158">
    <path clip-path="url(#pc0123f9ba8)" d="M 283.0775 53.228247 
L 283.0775 39.280861 
" style="fill:none;stroke:#3d3d3d;stroke-linecap:round;stroke-width:1.2;"/>
   </g>
   <g id="line2d_159">
    <path clip-path="url(#pc0123f9ba8)" d="M 281.463473 69.18779 
L 284.691527 69.18779 
" style="fill:none;stroke:#3d3d3d;stroke-linecap:round;stroke-width:1.2;"/>
   </g>
   <g id="line2d_160">
    <path clip-path="url(#pc0123f9ba8)" d="M 281.463473 39.280861 
L 284.691527 39.280861 
" style="fill:none;stroke:#3d3d3d;stroke-linecap:round;stroke-width:1.2;"/>
   </g>
   <g id="line2d_161"/>
   <g id="line2d_162">
    <path clip-path="url(#pc0123f9ba8)" d="M 289.665367 65.086922 
L 289.665367 69.43784 
" style="fill:none;stroke:#3d3d3d;stroke-linecap:round;stroke-width:1.2;"/>
   </g>
   <g id="line2d_163">
    <path clip-path="url(#pc0123f9ba8)" d="M 289.665367 53.610186 
L 289.665367 39.323668 
" style="fill:none;stroke:#3d3d3d;stroke-linecap:round;stroke-width:1.2;"/>
   </g>
   <g id="line2d_164">
    <path clip-path="url(#pc0123f9ba8)" d="M 288.051339 69.43784 
L 291.279394 69.43784 
" style="fill:none;stroke:#3d3d3d;stroke-linecap:round;stroke-width:1.2;"/>
   </g>
   <g id="line2d_165">
    <path clip-path="url(#pc0123f9ba8)" d="M 288.051339 39.323668 
L 291.279394 39.323668 
" style="fill:none;stroke:#3d3d3d;stroke-linecap:round;stroke-width:1.2;"/>
   </g>
   <g id="line2d_166"/>
   <g id="line2d_167">
    <path clip-path="url(#pc0123f9ba8)" d="M 301.194133 69.122249 
L 301.194133 75.139273 
" style="fill:none;stroke:#3d3d3d;stroke-linecap:round;stroke-width:1.2;"/>
   </g>
   <g id="line2d_168">
    <path clip-path="url(#pc0123f9ba8)" d="M 301.194133 55.084172 
L 301.194133 40.011421 
" style="fill:none;stroke:#3d3d3d;stroke-linecap:round;stroke-width:1.2;"/>
   </g>
   <g id="line2d_169">
    <path clip-path="url(#pc0123f9ba8)" d="M 299.580106 75.139273 
L 302.808161 75.139273 
" style="fill:none;stroke:#3d3d3d;stroke-linecap:round;stroke-width:1.2;"/>
   </g>
   <g id="line2d_170">
    <path clip-path="url(#pc0123f9ba8)" d="M 299.580106 40.011421 
L 302.808161 40.011421 
" style="fill:none;stroke:#3d3d3d;stroke-linecap:round;stroke-width:1.2;"/>
   </g>
   <g id="line2d_171"/>
   <g id="line2d_172">
    <path clip-path="url(#pc0123f9ba8)" d="M 307.782 64.368965 
L 307.782 71.640695 
" style="fill:none;stroke:#3d3d3d;stroke-linecap:round;stroke-width:1.2;"/>
   </g>
   <g id="line2d_173">
    <path clip-path="url(#pc0123f9ba8)" d="M 307.782 48.987169 
L 307.782 32.15545 
" style="fill:none;stroke:#3d3d3d;stroke-linecap:round;stroke-width:1.2;"/>
   </g>
   <g id="line2d_174">
    <path clip-path="url(#pc0123f9ba8)" d="M 306.167973 71.640695 
L 309.396027 71.640695 
" style="fill:none;stroke:#3d3d3d;stroke-linecap:round;stroke-width:1.2;"/>
   </g>
   <g id="line2d_175">
    <path clip-path="url(#pc0123f9ba8)" d="M 306.167973 32.15545 
L 309.396027 32.15545 
" style="fill:none;stroke:#3d3d3d;stroke-linecap:round;stroke-width:1.2;"/>
   </g>
   <g id="line2d_176"/>
   <g id="line2d_177">
    <path clip-path="url(#pc0123f9ba8)" d="M 314.369867 65.431224 
L 314.369867 72.359236 
" style="fill:none;stroke:#3d3d3d;stroke-linecap:round;stroke-width:1.2;"/>
   </g>
   <g id="line2d_178">
    <path clip-path="url(#pc0123f9ba8)" d="M 314.369867 49.359944 
L 314.369867 32.167902 
" style="fill:none;stroke:#3d3d3d;stroke-linecap:round;stroke-width:1.2;"/>
   </g>
   <g id="line2d_179">
    <path clip-path="url(#pc0123f9ba8)" d="M 312.755839 72.359236 
L 315.983894 72.359236 
" style="fill:none;stroke:#3d3d3d;stroke-linecap:round;stroke-width:1.2;"/>
   </g>
   <g id="line2d_180">
    <path clip-path="url(#pc0123f9ba8)" d="M 312.755839 32.167902 
L 315.983894 32.167902 
" style="fill:none;stroke:#3d3d3d;stroke-linecap:round;stroke-width:1.2;"/>
   </g>
   <g id="line2d_181"/>
   <g id="line2d_182">
    <path clip-path="url(#pc0123f9ba8)" d="M 325.898633 69.53439 
L 325.898633 75.429975 
" style="fill:none;stroke:#3d3d3d;stroke-linecap:round;stroke-width:1.2;"/>
   </g>
   <g id="line2d_183">
    <path clip-path="url(#pc0123f9ba8)" d="M 325.898633 55.534959 
L 325.898633 40.941208 
" style="fill:none;stroke:#3d3d3d;stroke-linecap:round;stroke-width:1.2;"/>
   </g>
   <g id="line2d_184">
    <path clip-path="url(#pc0123f9ba8)" d="M 324.284606 75.429975 
L 327.512661 75.429975 
" style="fill:none;stroke:#3d3d3d;stroke-linecap:round;stroke-width:1.2;"/>
   </g>
   <g id="line2d_185">
    <path clip-path="url(#pc0123f9ba8)" d="M 324.284606 40.941208 
L 327.512661 40.941208 
" style="fill:none;stroke:#3d3d3d;stroke-linecap:round;stroke-width:1.2;"/>
   </g>
   <g id="line2d_186"/>
   <g id="line2d_187">
    <path clip-path="url(#pc0123f9ba8)" d="M 332.4865 65.04683 
L 332.4865 72.068844 
" style="fill:none;stroke:#3d3d3d;stroke-linecap:round;stroke-width:1.2;"/>
   </g>
   <g id="line2d_188">
    <path clip-path="url(#pc0123f9ba8)" d="M 332.4865 49.393747 
L 332.4865 32.944515 
" style="fill:none;stroke:#3d3d3d;stroke-linecap:round;stroke-width:1.2;"/>
   </g>
   <g id="line2d_189">
    <path clip-path="url(#pc0123f9ba8)" d="M 330.872473 72.068844 
L 334.100527 72.068844 
" style="fill:none;stroke:#3d3d3d;stroke-linecap:round;stroke-width:1.2;"/>
   </g>
   <g id="line2d_190">
    <path clip-path="url(#pc0123f9ba8)" d="M 330.872473 32.944515 
L 334.100527 32.944515 
" style="fill:none;stroke:#3d3d3d;stroke-linecap:round;stroke-width:1.2;"/>
   </g>
   <g id="line2d_191"/>
   <g id="line2d_192">
    <path clip-path="url(#pc0123f9ba8)" d="M 339.074367 66.071784 
L 339.074367 72.801055 
" style="fill:none;stroke:#3d3d3d;stroke-linecap:round;stroke-width:1.2;"/>
   </g>
   <g id="line2d_193">
    <path clip-path="url(#pc0123f9ba8)" d="M 339.074367 49.851917 
L 339.074367 33.044699 
" style="fill:none;stroke:#3d3d3d;stroke-linecap:round;stroke-width:1.2;"/>
   </g>
   <g id="line2d_194">
    <path clip-path="url(#pc0123f9ba8)" d="M 337.460339 72.801055 
L 340.688394 72.801055 
" style="fill:none;stroke:#3d3d3d;stroke-linecap:round;stroke-width:1.2;"/>
   </g>
   <g id="line2d_195">
    <path clip-path="url(#pc0123f9ba8)" d="M 337.460339 33.044699 
L 340.688394 33.044699 
" style="fill:none;stroke:#3d3d3d;stroke-linecap:round;stroke-width:1.2;"/>
   </g>
   <g id="line2d_196"/>
   <g id="line2d_197">
    <path clip-path="url(#pc0123f9ba8)" d="M 50.921079 64.87006 
L 57.377188 64.87006 
" style="fill:none;stroke:#3d3d3d;stroke-linecap:round;stroke-width:1.2;"/>
   </g>
   <g id="line2d_198">
    <path clip-path="url(#pc0123f9ba8)" d="M 57.508945 54.322831 
L 63.965055 54.322831 
" style="fill:none;stroke:#3d3d3d;stroke-linecap:round;stroke-width:1.2;"/>
   </g>
   <g id="line2d_199">
    <path clip-path="url(#pc0123f9ba8)" d="M 64.096812 54.494462 
L 70.552921 54.494462 
" style="fill:none;stroke:#3d3d3d;stroke-linecap:round;stroke-width:1.2;"/>
   </g>
   <g id="line2d_200">
    <path clip-path="url(#pc0123f9ba8)" d="M 75.625579 63.939506 
L 82.081688 63.939506 
" style="fill:none;stroke:#3d3d3d;stroke-linecap:round;stroke-width:1.2;"/>
   </g>
   <g id="line2d_201">
    <path clip-path="url(#pc0123f9ba8)" d="M 82.213445 58.95275 
L 88.669555 58.95275 
" style="fill:none;stroke:#3d3d3d;stroke-linecap:round;stroke-width:1.2;"/>
   </g>
   <g id="line2d_202">
    <path clip-path="url(#pc0123f9ba8)" d="M 88.801312 59.707283 
L 95.257421 59.707283 
" style="fill:none;stroke:#3d3d3d;stroke-linecap:round;stroke-width:1.2;"/>
   </g>
   <g id="line2d_203">
    <path clip-path="url(#pc0123f9ba8)" d="M 100.330079 64.975752 
L 106.786188 64.975752 
" style="fill:none;stroke:#3d3d3d;stroke-linecap:round;stroke-width:1.2;"/>
   </g>
   <g id="line2d_204">
    <path clip-path="url(#pc0123f9ba8)" d="M 106.917945 60.581524 
L 113.374055 60.581524 
" style="fill:none;stroke:#3d3d3d;stroke-linecap:round;stroke-width:1.2;"/>
   </g>
   <g id="line2d_205">
    <path clip-path="url(#pc0123f9ba8)" d="M 113.505812 61.042064 
L 119.961921 61.042064 
" style="fill:none;stroke:#3d3d3d;stroke-linecap:round;stroke-width:1.2;"/>
   </g>
   <g id="line2d_206">
    <path clip-path="url(#pc0123f9ba8)" d="M 125.034579 62.874038 
L 131.490688 62.874038 
" style="fill:none;stroke:#3d3d3d;stroke-linecap:round;stroke-width:1.2;"/>
   </g>
   <g id="line2d_207">
    <path clip-path="url(#pc0123f9ba8)" d="M 131.622445 53.504436 
L 138.078555 53.504436 
" style="fill:none;stroke:#3d3d3d;stroke-linecap:round;stroke-width:1.2;"/>
   </g>
   <g id="line2d_208">
    <path clip-path="url(#pc0123f9ba8)" d="M 138.210312 53.83661 
L 144.666421 53.83661 
" style="fill:none;stroke:#3d3d3d;stroke-linecap:round;stroke-width:1.2;"/>
   </g>
   <g id="line2d_209">
    <path clip-path="url(#pc0123f9ba8)" d="M 149.739079 67.948478 
L 156.195188 67.948478 
" style="fill:none;stroke:#3d3d3d;stroke-linecap:round;stroke-width:1.2;"/>
   </g>
   <g id="line2d_210">
    <path clip-path="url(#pc0123f9ba8)" d="M 156.326945 60.078195 
L 162.783055 60.078195 
" style="fill:none;stroke:#3d3d3d;stroke-linecap:round;stroke-width:1.2;"/>
   </g>
   <g id="line2d_211">
    <path clip-path="url(#pc0123f9ba8)" d="M 162.914812 60.307052 
L 169.370921 60.307052 
" style="fill:none;stroke:#3d3d3d;stroke-linecap:round;stroke-width:1.2;"/>
   </g>
   <g id="line2d_212">
    <path clip-path="url(#pc0123f9ba8)" d="M 174.443579 67.043367 
L 180.899688 67.043367 
" style="fill:none;stroke:#3d3d3d;stroke-linecap:round;stroke-width:1.2;"/>
   </g>
   <g id="line2d_213">
    <path clip-path="url(#pc0123f9ba8)" d="M 181.031445 56.844604 
L 187.487555 56.844604 
" style="fill:none;stroke:#3d3d3d;stroke-linecap:round;stroke-width:1.2;"/>
   </g>
   <g id="line2d_214">
    <path clip-path="url(#pc0123f9ba8)" d="M 187.619312 56.935194 
L 194.075421 56.935194 
" style="fill:none;stroke:#3d3d3d;stroke-linecap:round;stroke-width:1.2;"/>
   </g>
   <g id="line2d_215">
    <path clip-path="url(#pc0123f9ba8)" d="M 199.148079 67.257105 
L 205.604188 67.257105 
" style="fill:none;stroke:#3d3d3d;stroke-linecap:round;stroke-width:1.2;"/>
   </g>
   <g id="line2d_216">
    <path clip-path="url(#pc0123f9ba8)" d="M 205.735945 61.287683 
L 212.192055 61.287683 
" style="fill:none;stroke:#3d3d3d;stroke-linecap:round;stroke-width:1.2;"/>
   </g>
   <g id="line2d_217">
    <path clip-path="url(#pc0123f9ba8)" d="M 212.323812 61.935035 
L 218.779921 61.935035 
" style="fill:none;stroke:#3d3d3d;stroke-linecap:round;stroke-width:1.2;"/>
   </g>
   <g id="line2d_218">
    <path clip-path="url(#pc0123f9ba8)" d="M 223.852579 68.994936 
L 230.308688 68.994936 
" style="fill:none;stroke:#3d3d3d;stroke-linecap:round;stroke-width:1.2;"/>
   </g>
   <g id="line2d_219">
    <path clip-path="url(#pc0123f9ba8)" d="M 230.440445 59.012036 
L 236.896555 59.012036 
" style="fill:none;stroke:#3d3d3d;stroke-linecap:round;stroke-width:1.2;"/>
   </g>
   <g id="line2d_220">
    <path clip-path="url(#pc0123f9ba8)" d="M 237.028312 59.2912 
L 243.484421 59.2912 
" style="fill:none;stroke:#3d3d3d;stroke-linecap:round;stroke-width:1.2;"/>
   </g>
   <g id="line2d_221">
    <path clip-path="url(#pc0123f9ba8)" d="M 248.557079 63.511787 
L 255.013188 63.511787 
" style="fill:none;stroke:#3d3d3d;stroke-linecap:round;stroke-width:1.2;"/>
   </g>
   <g id="line2d_222">
    <path clip-path="url(#pc0123f9ba8)" d="M 255.144945 58.630959 
L 261.601055 58.630959 
" style="fill:none;stroke:#3d3d3d;stroke-linecap:round;stroke-width:1.2;"/>
   </g>
   <g id="line2d_223">
    <path clip-path="url(#pc0123f9ba8)" d="M 261.732812 59.427175 
L 268.188921 59.427175 
" style="fill:none;stroke:#3d3d3d;stroke-linecap:round;stroke-width:1.2;"/>
   </g>
   <g id="line2d_224">
    <path clip-path="url(#pc0123f9ba8)" d="M 273.261579 64.930488 
L 279.717688 64.930488 
" style="fill:none;stroke:#3d3d3d;stroke-linecap:round;stroke-width:1.2;"/>
   </g>
   <g id="line2d_225">
    <path clip-path="url(#pc0123f9ba8)" d="M 279.849445 60.174048 
L 286.305555 60.174048 
" style="fill:none;stroke:#3d3d3d;stroke-linecap:round;stroke-width:1.2;"/>
   </g>
   <g id="line2d_226">
    <path clip-path="url(#pc0123f9ba8)" d="M 286.437312 60.636079 
L 292.893421 60.636079 
" style="fill:none;stroke:#3d3d3d;stroke-linecap:round;stroke-width:1.2;"/>
   </g>
   <g id="line2d_227">
    <path clip-path="url(#pc0123f9ba8)" d="M 297.966079 63.029408 
L 304.422188 63.029408 
" style="fill:none;stroke:#3d3d3d;stroke-linecap:round;stroke-width:1.2;"/>
   </g>
   <g id="line2d_228">
    <path clip-path="url(#pc0123f9ba8)" d="M 304.553945 57.86738 
L 311.010055 57.86738 
" style="fill:none;stroke:#3d3d3d;stroke-linecap:round;stroke-width:1.2;"/>
   </g>
   <g id="line2d_229">
    <path clip-path="url(#pc0123f9ba8)" d="M 311.141812 58.782531 
L 317.597921 58.782531 
" style="fill:none;stroke:#3d3d3d;stroke-linecap:round;stroke-width:1.2;"/>
   </g>
   <g id="line2d_230">
    <path clip-path="url(#pc0123f9ba8)" d="M 322.670579 63.64072 
L 329.126688 63.64072 
" style="fill:none;stroke:#3d3d3d;stroke-linecap:round;stroke-width:1.2;"/>
   </g>
   <g id="line2d_231">
    <path clip-path="url(#pc0123f9ba8)" d="M 329.258445 58.700631 
L 335.714555 58.700631 
" style="fill:none;stroke:#3d3d3d;stroke-linecap:round;stroke-width:1.2;"/>
   </g>
   <g id="line2d_232">
    <path clip-path="url(#pc0123f9ba8)" d="M 335.846312 59.510142 
L 342.302421 59.510142 
" style="fill:none;stroke:#3d3d3d;stroke-linecap:round;stroke-width:1.2;"/>
   </g>
   <g id="patch_42">
    <path d="M 48.38475 85.804 
L 48.38475 7.2 
" style="fill:none;stroke:#262626;stroke-linecap:square;stroke-linejoin:miter;"/>
   </g>
   <g id="patch_43">
    <path d="M 344.83875 85.804 
L 344.83875 7.2 
" style="fill:none;stroke:#262626;stroke-linecap:square;stroke-linejoin:miter;"/>
   </g>
   <g id="patch_44">
    <path d="M 48.38475 85.804 
L 344.83875 85.804 
" style="fill:none;stroke:#262626;stroke-linecap:square;stroke-linejoin:miter;"/>
   </g>
   <g id="patch_45">
    <path d="M 48.38475 7.2 
L 344.83875 7.2 
" style="fill:none;stroke:#262626;stroke-linecap:square;stroke-linejoin:miter;"/>
   </g>
  </g>
  <g id="legend_1">
   <g id="text_18">
    <!-- model -->
    <g style="fill:#262626;" transform="translate(306.062187 50.296625)scale(0.096 -0.096)">
     <defs>
      <path d="M 52 44.1875 
Q 55.375 50.25 60.0625 53.125 
Q 64.75 56 71.09375 56 
Q 79.640625 56 84.28125 50.015625 
Q 88.921875 44.046875 88.921875 33.015625 
L 88.921875 0 
L 79.890625 0 
L 79.890625 32.71875 
Q 79.890625 40.578125 77.09375 44.375 
Q 74.3125 48.1875 68.609375 48.1875 
Q 61.625 48.1875 57.5625 43.546875 
Q 53.515625 38.921875 53.515625 30.90625 
L 53.515625 0 
L 44.484375 0 
L 44.484375 32.71875 
Q 44.484375 40.625 41.703125 44.40625 
Q 38.921875 48.1875 33.109375 48.1875 
Q 26.21875 48.1875 22.15625 43.53125 
Q 18.109375 38.875 18.109375 30.90625 
L 18.109375 0 
L 9.078125 0 
L 9.078125 54.6875 
L 18.109375 54.6875 
L 18.109375 46.1875 
Q 21.1875 51.21875 25.484375 53.609375 
Q 29.78125 56 35.6875 56 
Q 41.65625 56 45.828125 52.96875 
Q 50 49.953125 52 44.1875 
z
" id="DejaVuSans-109"/>
      <path d="M 45.40625 46.390625 
L 45.40625 75.984375 
L 54.390625 75.984375 
L 54.390625 0 
L 45.40625 0 
L 45.40625 8.203125 
Q 42.578125 3.328125 38.25 0.953125 
Q 33.9375 -1.421875 27.875 -1.421875 
Q 17.96875 -1.421875 11.734375 6.484375 
Q 5.515625 14.40625 5.515625 27.296875 
Q 5.515625 40.1875 11.734375 48.09375 
Q 17.96875 56 27.875 56 
Q 33.9375 56 38.25 53.625 
Q 42.578125 51.265625 45.40625 46.390625 
z
M 14.796875 27.296875 
Q 14.796875 17.390625 18.875 11.75 
Q 22.953125 6.109375 30.078125 6.109375 
Q 37.203125 6.109375 41.296875 11.75 
Q 45.40625 17.390625 45.40625 27.296875 
Q 45.40625 37.203125 41.296875 42.84375 
Q 37.203125 48.484375 30.078125 48.484375 
Q 22.953125 48.484375 18.875 42.84375 
Q 14.796875 37.203125 14.796875 27.296875 
z
" id="DejaVuSans-100"/>
     </defs>
     <use xlink:href="#DejaVuSans-109"/>
     <use x="97.412109" xlink:href="#DejaVuSans-111"/>
     <use x="158.59375" xlink:href="#DejaVuSans-100"/>
     <use x="222.070312" xlink:href="#DejaVuSans-101"/>
     <use x="283.59375" xlink:href="#DejaVuSans-108"/>
    </g>
   </g>
   <g id="patch_46">
    <path d="M 291.931125 63.37975 
L 309.531125 63.37975 
L 309.531125 57.21975 
L 291.931125 57.21975 
z
" style="fill:#3274a1;stroke:#3d3d3d;stroke-linejoin:miter;stroke-width:0.6;"/>
   </g>
   <g id="text_19">
    <!-- gamma -->
    <g style="fill:#262626;" transform="translate(316.571125 63.37975)scale(0.088 -0.088)">
     <defs>
      <path d="M 45.40625 27.984375 
Q 45.40625 37.75 41.375 43.109375 
Q 37.359375 48.484375 30.078125 48.484375 
Q 22.859375 48.484375 18.828125 43.109375 
Q 14.796875 37.75 14.796875 27.984375 
Q 14.796875 18.265625 18.828125 12.890625 
Q 22.859375 7.515625 30.078125 7.515625 
Q 37.359375 7.515625 41.375 12.890625 
Q 45.40625 18.265625 45.40625 27.984375 
z
M 54.390625 6.78125 
Q 54.390625 -7.171875 48.1875 -13.984375 
Q 42 -20.796875 29.203125 -20.796875 
Q 24.46875 -20.796875 20.265625 -20.09375 
Q 16.0625 -19.390625 12.109375 -17.921875 
L 12.109375 -9.1875 
Q 16.0625 -11.328125 19.921875 -12.34375 
Q 23.78125 -13.375 27.78125 -13.375 
Q 36.625 -13.375 41.015625 -8.765625 
Q 45.40625 -4.15625 45.40625 5.171875 
L 45.40625 9.625 
Q 42.625 4.78125 38.28125 2.390625 
Q 33.9375 0 27.875 0 
Q 17.828125 0 11.671875 7.65625 
Q 5.515625 15.328125 5.515625 27.984375 
Q 5.515625 40.671875 11.671875 48.328125 
Q 17.828125 56 27.875 56 
Q 33.9375 56 38.28125 53.609375 
Q 42.625 51.21875 45.40625 46.390625 
L 45.40625 54.6875 
L 54.390625 54.6875 
z
" id="DejaVuSans-103"/>
     </defs>
     <use xlink:href="#DejaVuSans-103"/>
     <use x="63.476562" xlink:href="#DejaVuSans-97"/>
     <use x="124.755859" xlink:href="#DejaVuSans-109"/>
     <use x="222.167969" xlink:href="#DejaVuSans-109"/>
     <use x="319.580078" xlink:href="#DejaVuSans-97"/>
    </g>
   </g>
   <g id="patch_47">
    <path d="M 291.931125 76.2965 
L 309.531125 76.2965 
L 309.531125 70.1365 
L 291.931125 70.1365 
z
" style="fill:#3a923a;stroke:#3d3d3d;stroke-linejoin:miter;stroke-width:0.6;"/>
   </g>
   <g id="text_20">
    <!-- expo -->
    <g style="fill:#262626;" transform="translate(316.571125 76.2965)scale(0.088 -0.088)">
     <defs>
      <path d="M 54.890625 54.6875 
L 35.109375 28.078125 
L 55.90625 0 
L 45.3125 0 
L 29.390625 21.484375 
L 13.484375 0 
L 2.875 0 
L 24.125 28.609375 
L 4.6875 54.6875 
L 15.28125 54.6875 
L 29.78125 35.203125 
L 44.28125 54.6875 
z
" id="DejaVuSans-120"/>
      <path d="M 18.109375 8.203125 
L 18.109375 -20.796875 
L 9.078125 -20.796875 
L 9.078125 54.6875 
L 18.109375 54.6875 
L 18.109375 46.390625 
Q 20.953125 51.265625 25.265625 53.625 
Q 29.59375 56 35.59375 56 
Q 45.5625 56 51.78125 48.09375 
Q 58.015625 40.1875 58.015625 27.296875 
Q 58.015625 14.40625 51.78125 6.484375 
Q 45.5625 -1.421875 35.59375 -1.421875 
Q 29.59375 -1.421875 25.265625 0.953125 
Q 20.953125 3.328125 18.109375 8.203125 
z
M 48.6875 27.296875 
Q 48.6875 37.203125 44.609375 42.84375 
Q 40.53125 48.484375 33.40625 48.484375 
Q 26.265625 48.484375 22.1875 42.84375 
Q 18.109375 37.203125 18.109375 27.296875 
Q 18.109375 17.390625 22.1875 11.75 
Q 26.265625 6.109375 33.40625 6.109375 
Q 40.53125 6.109375 44.609375 11.75 
Q 48.6875 17.390625 48.6875 27.296875 
z
" id="DejaVuSans-112"/>
     </defs>
     <use xlink:href="#DejaVuSans-101"/>
     <use x="59.773438" xlink:href="#DejaVuSans-120"/>
     <use x="118.953125" xlink:href="#DejaVuSans-112"/>
     <use x="182.429688" xlink:href="#DejaVuSans-111"/>
    </g>
   </g>
   <g id="patch_48">
    <path d="M 291.931125 89.21325 
L 309.531125 89.21325 
L 309.531125 83.05325 
L 291.931125 83.05325 
z
" style="fill:#e1812c;stroke:#3d3d3d;stroke-linejoin:miter;stroke-width:0.6;"/>
   </g>
   <g id="text_21">
    <!-- longtail -->
    <g style="fill:#262626;" transform="translate(316.571125 89.21325)scale(0.088 -0.088)">
     <use xlink:href="#DejaVuSans-108"/>
     <use x="27.783203" xlink:href="#DejaVuSans-111"/>
     <use x="88.964844" xlink:href="#DejaVuSans-110"/>
     <use x="152.34375" xlink:href="#DejaVuSans-103"/>
     <use x="215.820312" xlink:href="#DejaVuSans-116"/>
     <use x="255.029297" xlink:href="#DejaVuSans-97"/>
     <use x="316.308594" xlink:href="#DejaVuSans-105"/>
     <use x="344.091797" xlink:href="#DejaVuSans-108"/>
    </g>
   </g>
  </g>
 </g>
 <defs>
  <clipPath id="pc0123f9ba8">
   <rect height="78.604" width="296.454" x="48.38475" y="7.2"/>
  </clipPath>
 </defs>
</svg>
