<?xml version="1.0" encoding="utf-8" standalone="no"?>
<!DOCTYPE svg PUBLIC "-//W3C//DTD SVG 1.1//EN"
  "http://www.w3.org/Graphics/SVG/1.1/DTD/svg11.dtd">
<svg xmlns:xlink="http://www.w3.org/1999/xlink" width="208.64748pt" height="144.02625pt" viewBox="0 0 208.64748 144.02625" xmlns="http://www.w3.org/2000/svg" version="1.1">
 <metadata>
  <rdf:RDF xmlns:dc="http://purl.org/dc/elements/1.1/" xmlns:cc="http://creativecommons.org/ns#" xmlns:rdf="http://www.w3.org/1999/02/22-rdf-syntax-ns#">
   <cc:Work>
    <dc:type rdf:resource="http://purl.org/dc/dcmitype/StillImage"/>
    <dc:date>2022-11-14T10:10:11.534487</dc:date>
    <dc:format>image/svg+xml</dc:format>
    <dc:creator>
     <cc:Agent>
      <dc:title>Matplotlib v3.5.1, https://matplotlib.org/</dc:title>
     </cc:Agent>
    </dc:creator>
   </cc:Work>
  </rdf:RDF>
 </metadata>
 <defs>
  <style type="text/css">*{stroke-linejoin: round; stroke-linecap: butt}</style>
 </defs>
 <g id="figure_1">
  <g id="patch_1">
   <path d="M 0 144.02625 
L 208.64748 144.02625 
L 208.64748 0 
L 0 0 
z
" style="fill: #ffffff"/>
  </g>
  <g id="axes_1">
   <g id="patch_2">
    <path d="M 41.214688 110.96 
L 156.33448 110.96 
L 156.33448 7.2 
L 41.214688 7.2 
z
" style="fill: #ffffff"/>
   </g>
   <g id="matplotlib.axis_1">
    <g id="xtick_1">
     <g id="line2d_1">
      <defs>
       <path id="m9d4fc6d2fd" d="M 0 0 
L 0 4 
" style="stroke: #262626; stroke-width: 0.8"/>
      </defs>
      <g>
       <use xlink:href="#m9d4fc6d2fd" x="44.130682" y="110.96" style="fill: #262626; stroke: #262626; stroke-width: 0.8"/>
      </g>
     </g>
     <g id="text_1">
      <!-- 10 -->
      <g style="fill: #262626" transform="translate(39.681932 122.68625)scale(0.08 -0.08)">
       <defs>
        <path id="ArialMT-31" d="M 2384 0 
L 1822 0 
L 1822 3584 
Q 1619 3391 1289 3197 
Q 959 3003 697 2906 
L 697 3450 
Q 1169 3672 1522 3987 
Q 1875 4303 2022 4600 
L 2384 4600 
L 2384 0 
z
" transform="scale(0.015625)"/>
        <path id="ArialMT-30" d="M 266 2259 
Q 266 3072 433 3567 
Q 600 4063 929 4331 
Q 1259 4600 1759 4600 
Q 2128 4600 2406 4451 
Q 2684 4303 2865 4023 
Q 3047 3744 3150 3342 
Q 3253 2941 3253 2259 
Q 3253 1453 3087 958 
Q 2922 463 2592 192 
Q 2263 -78 1759 -78 
Q 1097 -78 719 397 
Q 266 969 266 2259 
z
M 844 2259 
Q 844 1131 1108 757 
Q 1372 384 1759 384 
Q 2147 384 2411 759 
Q 2675 1134 2675 2259 
Q 2675 3391 2411 3762 
Q 2147 4134 1753 4134 
Q 1366 4134 1134 3806 
Q 844 3388 844 2259 
z
" transform="scale(0.015625)"/>
       </defs>
       <use xlink:href="#ArialMT-31"/>
       <use xlink:href="#ArialMT-30" x="55.615234"/>
      </g>
     </g>
    </g>
    <g id="xtick_2">
     <g id="line2d_2">
      <g>
       <use xlink:href="#m9d4fc6d2fd" x="80.424619" y="110.96" style="fill: #262626; stroke: #262626; stroke-width: 0.8"/>
      </g>
     </g>
     <g id="text_2">
      <!-- 20 -->
      <g style="fill: #262626" transform="translate(75.975869 122.68625)scale(0.08 -0.08)">
       <defs>
        <path id="ArialMT-32" d="M 3222 541 
L 3222 0 
L 194 0 
Q 188 203 259 391 
Q 375 700 629 1000 
Q 884 1300 1366 1694 
Q 2113 2306 2375 2664 
Q 2638 3022 2638 3341 
Q 2638 3675 2398 3904 
Q 2159 4134 1775 4134 
Q 1369 4134 1125 3890 
Q 881 3647 878 3216 
L 300 3275 
Q 359 3922 746 4261 
Q 1134 4600 1788 4600 
Q 2447 4600 2831 4234 
Q 3216 3869 3216 3328 
Q 3216 3053 3103 2787 
Q 2991 2522 2730 2228 
Q 2469 1934 1863 1422 
Q 1356 997 1212 845 
Q 1069 694 975 541 
L 3222 541 
z
" transform="scale(0.015625)"/>
       </defs>
       <use xlink:href="#ArialMT-32"/>
       <use xlink:href="#ArialMT-30" x="55.615234"/>
      </g>
     </g>
    </g>
    <g id="xtick_3">
     <g id="line2d_3">
      <g>
       <use xlink:href="#m9d4fc6d2fd" x="116.718556" y="110.96" style="fill: #262626; stroke: #262626; stroke-width: 0.8"/>
      </g>
     </g>
     <g id="text_3">
      <!-- 30 -->
      <g style="fill: #262626" transform="translate(112.269806 122.68625)scale(0.08 -0.08)">
       <defs>
        <path id="ArialMT-33" d="M 269 1209 
L 831 1284 
Q 928 806 1161 595 
Q 1394 384 1728 384 
Q 2125 384 2398 659 
Q 2672 934 2672 1341 
Q 2672 1728 2419 1979 
Q 2166 2231 1775 2231 
Q 1616 2231 1378 2169 
L 1441 2663 
Q 1497 2656 1531 2656 
Q 1891 2656 2178 2843 
Q 2466 3031 2466 3422 
Q 2466 3731 2256 3934 
Q 2047 4138 1716 4138 
Q 1388 4138 1169 3931 
Q 950 3725 888 3313 
L 325 3413 
Q 428 3978 793 4289 
Q 1159 4600 1703 4600 
Q 2078 4600 2393 4439 
Q 2709 4278 2876 4000 
Q 3044 3722 3044 3409 
Q 3044 3113 2884 2869 
Q 2725 2625 2413 2481 
Q 2819 2388 3044 2092 
Q 3269 1797 3269 1353 
Q 3269 753 2831 336 
Q 2394 -81 1725 -81 
Q 1122 -81 723 278 
Q 325 638 269 1209 
z
" transform="scale(0.015625)"/>
       </defs>
       <use xlink:href="#ArialMT-33"/>
       <use xlink:href="#ArialMT-30" x="55.615234"/>
      </g>
     </g>
    </g>
    <g id="xtick_4">
     <g id="line2d_4">
      <g>
       <use xlink:href="#m9d4fc6d2fd" x="153.012493" y="110.96" style="fill: #262626; stroke: #262626; stroke-width: 0.8"/>
      </g>
     </g>
     <g id="text_4">
      <!-- 40 -->
      <g style="fill: #262626" transform="translate(148.563743 122.68625)scale(0.08 -0.08)">
       <defs>
        <path id="ArialMT-34" d="M 2069 0 
L 2069 1097 
L 81 1097 
L 81 1613 
L 2172 4581 
L 2631 4581 
L 2631 1613 
L 3250 1613 
L 3250 1097 
L 2631 1097 
L 2631 0 
L 2069 0 
z
M 2069 1613 
L 2069 3678 
L 634 1613 
L 2069 1613 
z
" transform="scale(0.015625)"/>
       </defs>
       <use xlink:href="#ArialMT-34"/>
       <use xlink:href="#ArialMT-30" x="55.615234"/>
      </g>
     </g>
    </g>
    <g id="text_5">
     <!-- $\mu$ (h) -->
     <g style="fill: #262626" transform="translate(89.144584 134.84625)scale(0.09 -0.09)">
      <defs>
       <path id="DejaVuSans-Oblique-3bc" d="M -84 -1331 
L 856 3500 
L 1434 3500 
L 1009 1322 
Q 997 1256 987 1175 
Q 978 1094 978 1013 
Q 978 722 1161 565 
Q 1344 409 1684 409 
Q 2147 409 2431 671 
Q 2716 934 2816 1459 
L 3213 3500 
L 3788 3500 
L 3266 809 
Q 3253 750 3248 706 
Q 3244 663 3244 628 
Q 3244 531 3283 486 
Q 3322 441 3406 441 
Q 3438 441 3492 456 
Q 3547 472 3647 513 
L 3559 50 
Q 3422 -19 3297 -55 
Q 3172 -91 3053 -91 
Q 2847 -91 2730 40 
Q 2613 172 2613 403 
Q 2438 153 2195 31 
Q 1953 -91 1625 -91 
Q 1334 -91 1117 43 
Q 900 178 831 397 
L 494 -1331 
L -84 -1331 
z
" transform="scale(0.015625)"/>
       <path id="ArialMT-20" transform="scale(0.015625)"/>
       <path id="ArialMT-28" d="M 1497 -1347 
Q 1031 -759 709 28 
Q 388 816 388 1659 
Q 388 2403 628 3084 
Q 909 3875 1497 4659 
L 1900 4659 
Q 1522 4009 1400 3731 
Q 1209 3300 1100 2831 
Q 966 2247 966 1656 
Q 966 153 1900 -1347 
L 1497 -1347 
z
" transform="scale(0.015625)"/>
       <path id="ArialMT-68" d="M 422 0 
L 422 4581 
L 984 4581 
L 984 2938 
Q 1378 3394 1978 3394 
Q 2347 3394 2619 3248 
Q 2891 3103 3008 2847 
Q 3125 2591 3125 2103 
L 3125 0 
L 2563 0 
L 2563 2103 
Q 2563 2525 2380 2717 
Q 2197 2909 1863 2909 
Q 1613 2909 1392 2779 
Q 1172 2650 1078 2428 
Q 984 2206 984 1816 
L 984 0 
L 422 0 
z
" transform="scale(0.015625)"/>
       <path id="ArialMT-29" d="M 791 -1347 
L 388 -1347 
Q 1322 153 1322 1656 
Q 1322 2244 1188 2822 
Q 1081 3291 891 3722 
Q 769 4003 388 4659 
L 791 4659 
Q 1378 3875 1659 3084 
Q 1900 2403 1900 1659 
Q 1900 816 1576 28 
Q 1253 -759 791 -1347 
z
" transform="scale(0.015625)"/>
      </defs>
      <use xlink:href="#DejaVuSans-Oblique-3bc" transform="translate(0 0.203125)"/>
      <use xlink:href="#ArialMT-20" transform="translate(63.623047 0.203125)"/>
      <use xlink:href="#ArialMT-28" transform="translate(91.40625 0.203125)"/>
      <use xlink:href="#ArialMT-68" transform="translate(124.707031 0.203125)"/>
      <use xlink:href="#ArialMT-29" transform="translate(180.322266 0.203125)"/>
     </g>
    </g>
   </g>
   <g id="matplotlib.axis_2">
    <g id="ytick_1">
     <g id="line2d_5">
      <defs>
       <path id="md3a6226e7b" d="M 0 0 
L -4 0 
" style="stroke: #262626; stroke-width: 0.8"/>
      </defs>
      <g>
       <use xlink:href="#md3a6226e7b" x="41.214688" y="104.176346" style="fill: #262626; stroke: #262626; stroke-width: 0.8"/>
      </g>
     </g>
     <g id="text_6">
      <!-- 7.5 -->
      <g style="fill: #262626" transform="translate(24.094688 107.039471)scale(0.08 -0.08)">
       <defs>
        <path id="ArialMT-37" d="M 303 3981 
L 303 4522 
L 3269 4522 
L 3269 4084 
Q 2831 3619 2401 2847 
Q 1972 2075 1738 1259 
Q 1569 684 1522 0 
L 944 0 
Q 953 541 1156 1306 
Q 1359 2072 1739 2783 
Q 2119 3494 2547 3981 
L 303 3981 
z
" transform="scale(0.015625)"/>
        <path id="ArialMT-2e" d="M 581 0 
L 581 641 
L 1222 641 
L 1222 0 
L 581 0 
z
" transform="scale(0.015625)"/>
        <path id="ArialMT-35" d="M 266 1200 
L 856 1250 
Q 922 819 1161 601 
Q 1400 384 1738 384 
Q 2144 384 2425 690 
Q 2706 997 2706 1503 
Q 2706 1984 2436 2262 
Q 2166 2541 1728 2541 
Q 1456 2541 1237 2417 
Q 1019 2294 894 2097 
L 366 2166 
L 809 4519 
L 3088 4519 
L 3088 3981 
L 1259 3981 
L 1013 2750 
Q 1425 3038 1878 3038 
Q 2478 3038 2890 2622 
Q 3303 2206 3303 1553 
Q 3303 931 2941 478 
Q 2500 -78 1738 -78 
Q 1113 -78 717 272 
Q 322 622 266 1200 
z
" transform="scale(0.015625)"/>
       </defs>
       <use xlink:href="#ArialMT-37"/>
       <use xlink:href="#ArialMT-2e" x="55.615234"/>
       <use xlink:href="#ArialMT-35" x="83.398438"/>
      </g>
     </g>
    </g>
    <g id="ytick_2">
     <g id="line2d_6">
      <g>
       <use xlink:href="#md3a6226e7b" x="41.214688" y="85.437445" style="fill: #262626; stroke: #262626; stroke-width: 0.8"/>
      </g>
     </g>
     <g id="text_7">
      <!-- 10.0 -->
      <g style="fill: #262626" transform="translate(19.645938 88.30057)scale(0.08 -0.08)">
       <use xlink:href="#ArialMT-31"/>
       <use xlink:href="#ArialMT-30" x="55.615234"/>
       <use xlink:href="#ArialMT-2e" x="111.230469"/>
       <use xlink:href="#ArialMT-30" x="139.013672"/>
      </g>
     </g>
    </g>
    <g id="ytick_3">
     <g id="line2d_7">
      <g>
       <use xlink:href="#md3a6226e7b" x="41.214688" y="66.698544" style="fill: #262626; stroke: #262626; stroke-width: 0.8"/>
      </g>
     </g>
     <g id="text_8">
      <!-- 12.5 -->
      <g style="fill: #262626" transform="translate(19.645938 69.561669)scale(0.08 -0.08)">
       <use xlink:href="#ArialMT-31"/>
       <use xlink:href="#ArialMT-32" x="55.615234"/>
       <use xlink:href="#ArialMT-2e" x="111.230469"/>
       <use xlink:href="#ArialMT-35" x="139.013672"/>
      </g>
     </g>
    </g>
    <g id="ytick_4">
     <g id="line2d_8">
      <g>
       <use xlink:href="#md3a6226e7b" x="41.214688" y="47.959643" style="fill: #262626; stroke: #262626; stroke-width: 0.8"/>
      </g>
     </g>
     <g id="text_9">
      <!-- 15.0 -->
      <g style="fill: #262626" transform="translate(19.645938 50.822768)scale(0.08 -0.08)">
       <use xlink:href="#ArialMT-31"/>
       <use xlink:href="#ArialMT-35" x="55.615234"/>
       <use xlink:href="#ArialMT-2e" x="111.230469"/>
       <use xlink:href="#ArialMT-30" x="139.013672"/>
      </g>
     </g>
    </g>
    <g id="ytick_5">
     <g id="line2d_9">
      <g>
       <use xlink:href="#md3a6226e7b" x="41.214688" y="29.220742" style="fill: #262626; stroke: #262626; stroke-width: 0.8"/>
      </g>
     </g>
     <g id="text_10">
      <!-- 17.5 -->
      <g style="fill: #262626" transform="translate(19.645938 32.083867)scale(0.08 -0.08)">
       <use xlink:href="#ArialMT-31"/>
       <use xlink:href="#ArialMT-37" x="55.615234"/>
       <use xlink:href="#ArialMT-2e" x="111.230469"/>
       <use xlink:href="#ArialMT-35" x="139.013672"/>
      </g>
     </g>
    </g>
    <g id="ytick_6">
     <g id="line2d_10">
      <g>
       <use xlink:href="#md3a6226e7b" x="41.214688" y="10.481841" style="fill: #262626; stroke: #262626; stroke-width: 0.8"/>
      </g>
     </g>
     <g id="text_11">
      <!-- 20.0 -->
      <g style="fill: #262626" transform="translate(19.645938 13.344966)scale(0.08 -0.08)">
       <use xlink:href="#ArialMT-32"/>
       <use xlink:href="#ArialMT-30" x="55.615234"/>
       <use xlink:href="#ArialMT-2e" x="111.230469"/>
       <use xlink:href="#ArialMT-30" x="139.013672"/>
      </g>
     </g>
    </g>
    <g id="text_12">
     <!-- SD (h) -->
     <g style="fill: #262626" transform="translate(13.751719 72.080781)rotate(-90)scale(0.09 -0.09)">
      <defs>
       <path id="ArialMT-53" d="M 288 1472 
L 859 1522 
Q 900 1178 1048 958 
Q 1197 738 1509 602 
Q 1822 466 2213 466 
Q 2559 466 2825 569 
Q 3091 672 3220 851 
Q 3350 1031 3350 1244 
Q 3350 1459 3225 1620 
Q 3100 1781 2813 1891 
Q 2628 1963 1997 2114 
Q 1366 2266 1113 2400 
Q 784 2572 623 2826 
Q 463 3081 463 3397 
Q 463 3744 659 4045 
Q 856 4347 1234 4503 
Q 1613 4659 2075 4659 
Q 2584 4659 2973 4495 
Q 3363 4331 3572 4012 
Q 3781 3694 3797 3291 
L 3216 3247 
Q 3169 3681 2898 3903 
Q 2628 4125 2100 4125 
Q 1550 4125 1298 3923 
Q 1047 3722 1047 3438 
Q 1047 3191 1225 3031 
Q 1400 2872 2139 2705 
Q 2878 2538 3153 2413 
Q 3553 2228 3743 1945 
Q 3934 1663 3934 1294 
Q 3934 928 3725 604 
Q 3516 281 3123 101 
Q 2731 -78 2241 -78 
Q 1619 -78 1198 103 
Q 778 284 539 648 
Q 300 1013 288 1472 
z
" transform="scale(0.015625)"/>
       <path id="ArialMT-44" d="M 494 0 
L 494 4581 
L 2072 4581 
Q 2606 4581 2888 4516 
Q 3281 4425 3559 4188 
Q 3922 3881 4101 3404 
Q 4281 2928 4281 2316 
Q 4281 1794 4159 1391 
Q 4038 988 3847 723 
Q 3656 459 3429 307 
Q 3203 156 2883 78 
Q 2563 0 2147 0 
L 494 0 
z
M 1100 541 
L 2078 541 
Q 2531 541 2789 625 
Q 3047 709 3200 863 
Q 3416 1078 3536 1442 
Q 3656 1806 3656 2325 
Q 3656 3044 3420 3430 
Q 3184 3816 2847 3947 
Q 2603 4041 2063 4041 
L 1100 4041 
L 1100 541 
z
" transform="scale(0.015625)"/>
      </defs>
      <use xlink:href="#ArialMT-53"/>
      <use xlink:href="#ArialMT-44" x="66.699219"/>
      <use xlink:href="#ArialMT-20" x="138.916016"/>
      <use xlink:href="#ArialMT-28" x="166.699219"/>
      <use xlink:href="#ArialMT-68" x="200"/>
      <use xlink:href="#ArialMT-29" x="255.615234"/>
     </g>
    </g>
   </g>
   <g id="PathCollection_1">
    <defs>
     <path id="m14dac10ac5" d="M 0 2.8 
C 0.742569 2.8 1.454824 2.504974 1.979899 1.979899 
C 2.504974 1.454824 2.8 0.742569 2.8 0 
C 2.8 -0.742569 2.504974 -1.454824 1.979899 -1.979899 
C 1.454824 -2.504974 0.742569 -2.8 0 -2.8 
C -0.742569 -2.8 -1.454824 -2.504974 -1.979899 -1.979899 
C -2.504974 -1.454824 -2.8 -0.742569 -2.8 0 
C -2.8 0.742569 -2.504974 1.454824 -1.979899 1.979899 
C -1.454824 2.504974 -0.742569 2.8 0 2.8 
z
" style="stroke: #d62728; stroke-width: 0.24"/>
    </defs>
    <g clip-path="url(#p99117de207)">
     <use xlink:href="#m14dac10ac5" x="111.796502" y="11.916364" style="fill: #d62728; stroke: #d62728; stroke-width: 0.24"/>
    </g>
   </g>
   <g id="PathCollection_2">
    <defs>
     <path id="mca5615435e" d="M 0 2.8 
C 0.742569 2.8 1.454824 2.504974 1.979899 1.979899 
C 2.504974 1.454824 2.8 0.742569 2.8 0 
C 2.8 -0.742569 2.504974 -1.454824 1.979899 -1.979899 
C 1.454824 -2.504974 0.742569 -2.8 0 -2.8 
C -0.742569 -2.8 -1.454824 -2.504974 -1.979899 -1.979899 
C -2.504974 -1.454824 -2.8 -0.742569 -2.8 0 
C -2.8 0.742569 -2.504974 1.454824 -1.979899 1.979899 
C -1.454824 2.504974 -0.742569 2.8 0 2.8 
z
" style="stroke: #1f77b4; stroke-width: 0.24"/>
    </defs>
    <g clip-path="url(#p99117de207)">
     <use xlink:href="#mca5615435e" x="116.102455" y="46.674835" style="fill: #1f77b4; stroke: #1f77b4; stroke-width: 0.24"/>
    </g>
   </g>
   <g id="LineCollection_1">
    <path d="M 134.857324 46.590621 
L 151.101762 46.590621 
" clip-path="url(#p99117de207)" style="fill: none; stroke: #1f77b4; stroke-width: 1.5"/>
   </g>
   <g id="LineCollection_2">
    <path d="M 142.979543 54.564634 
L 142.979543 38.616609 
" clip-path="url(#p99117de207)" style="fill: none; stroke: #1f77b4; stroke-width: 1.5"/>
   </g>
   <g id="line2d_11">
    <defs>
     <path id="m7693b87a56" d="M 0 4 
L 0 -4 
" style="stroke: #1f77b4"/>
    </defs>
    <g clip-path="url(#p99117de207)">
     <use xlink:href="#m7693b87a56" x="134.857324" y="46.590621" style="fill: #1f77b4; stroke: #1f77b4"/>
    </g>
   </g>
   <g id="line2d_12">
    <g clip-path="url(#p99117de207)">
     <use xlink:href="#m7693b87a56" x="151.101762" y="46.590621" style="fill: #1f77b4; stroke: #1f77b4"/>
    </g>
   </g>
   <g id="line2d_13">
    <defs>
     <path id="me3c5884e6c" d="M 4 0 
L -4 -0 
" style="stroke: #1f77b4"/>
    </defs>
    <g clip-path="url(#p99117de207)">
     <use xlink:href="#me3c5884e6c" x="142.979543" y="54.564634" style="fill: #1f77b4; stroke: #1f77b4"/>
    </g>
   </g>
   <g id="line2d_14">
    <g clip-path="url(#p99117de207)">
     <use xlink:href="#me3c5884e6c" x="142.979543" y="38.616609" style="fill: #1f77b4; stroke: #1f77b4"/>
    </g>
   </g>
   <g id="LineCollection_3">
    <path d="M 87.529132 79.923178 
L 103.662085 79.923178 
" clip-path="url(#p99117de207)" style="fill: none; stroke: #d62728; stroke-width: 1.5"/>
   </g>
   <g id="LineCollection_4">
    <path d="M 95.595608 88.93574 
L 95.595608 70.910616 
" clip-path="url(#p99117de207)" style="fill: none; stroke: #d62728; stroke-width: 1.5"/>
   </g>
   <g id="line2d_15">
    <defs>
     <path id="md904ade677" d="M 0 4 
L 0 -4 
" style="stroke: #d62728"/>
    </defs>
    <g clip-path="url(#p99117de207)">
     <use xlink:href="#md904ade677" x="87.529132" y="79.923178" style="fill: #d62728; stroke: #d62728"/>
    </g>
   </g>
   <g id="line2d_16">
    <g clip-path="url(#p99117de207)">
     <use xlink:href="#md904ade677" x="103.662085" y="79.923178" style="fill: #d62728; stroke: #d62728"/>
    </g>
   </g>
   <g id="line2d_17">
    <defs>
     <path id="m5f941565a0" d="M 4 0 
L -4 -0 
" style="stroke: #d62728"/>
    </defs>
    <g clip-path="url(#p99117de207)">
     <use xlink:href="#m5f941565a0" x="95.595608" y="88.93574" style="fill: #d62728; stroke: #d62728"/>
    </g>
   </g>
   <g id="line2d_18">
    <g clip-path="url(#p99117de207)">
     <use xlink:href="#m5f941565a0" x="95.595608" y="70.910616" style="fill: #d62728; stroke: #d62728"/>
    </g>
   </g>
   <g id="LineCollection_5">
    <path d="M 46.447405 95.217766 
L 62.547188 95.217766 
" clip-path="url(#p99117de207)" style="fill: none; stroke: #b8860b; stroke-width: 1.5"/>
   </g>
   <g id="LineCollection_6">
    <path d="M 54.497297 106.243636 
L 54.497297 84.191895 
" clip-path="url(#p99117de207)" style="fill: none; stroke: #b8860b; stroke-width: 1.5"/>
   </g>
   <g id="line2d_19">
    <defs>
     <path id="mdacf3fc112" d="M 0 4 
L 0 -4 
" style="stroke: #b8860b"/>
    </defs>
    <g clip-path="url(#p99117de207)">
     <use xlink:href="#mdacf3fc112" x="46.447405" y="95.217766" style="fill: #b8860b; stroke: #b8860b"/>
    </g>
   </g>
   <g id="line2d_20">
    <g clip-path="url(#p99117de207)">
     <use xlink:href="#mdacf3fc112" x="62.547188" y="95.217766" style="fill: #b8860b; stroke: #b8860b"/>
    </g>
   </g>
   <g id="line2d_21">
    <defs>
     <path id="m14b7e08c8d" d="M 4 0 
L -4 -0 
" style="stroke: #b8860b"/>
    </defs>
    <g clip-path="url(#p99117de207)">
     <use xlink:href="#m14b7e08c8d" x="54.497297" y="106.243636" style="fill: #b8860b; stroke: #b8860b"/>
    </g>
   </g>
   <g id="line2d_22">
    <g clip-path="url(#p99117de207)">
     <use xlink:href="#m14b7e08c8d" x="54.497297" y="84.191895" style="fill: #b8860b; stroke: #b8860b"/>
    </g>
   </g>
   <g id="LineCollection_7">
    <path d="M 98.274683 34.754991 
L 112.488279 34.754991 
" clip-path="url(#p99117de207)" style="fill: none; stroke: #f08080"/>
   </g>
   <g id="LineCollection_8">
    <path d="M 105.381481 46.107032 
L 105.381481 23.402949 
" clip-path="url(#p99117de207)" style="fill: none; stroke: #f08080"/>
   </g>
   <g id="line2d_23">
    <defs>
     <path id="m068b41bc27" d="M 0 4 
L 0 -4 
" style="stroke: #f08080"/>
    </defs>
    <g clip-path="url(#p99117de207)">
     <use xlink:href="#m068b41bc27" x="98.274683" y="34.754991" style="fill: #f08080; stroke: #f08080"/>
    </g>
   </g>
   <g id="line2d_24">
    <g clip-path="url(#p99117de207)">
     <use xlink:href="#m068b41bc27" x="112.488279" y="34.754991" style="fill: #f08080; stroke: #f08080"/>
    </g>
   </g>
   <g id="line2d_25">
    <defs>
     <path id="m85fef31d70" d="M 4 0 
L -4 -0 
" style="stroke: #f08080"/>
    </defs>
    <g clip-path="url(#p99117de207)">
     <use xlink:href="#m85fef31d70" x="105.381481" y="46.107032" style="fill: #f08080; stroke: #f08080"/>
    </g>
   </g>
   <g id="line2d_26">
    <g clip-path="url(#p99117de207)">
     <use xlink:href="#m85fef31d70" x="105.381481" y="23.402949" style="fill: #f08080; stroke: #f08080"/>
    </g>
   </g>
   <g id="line2d_27">
    <path d="M 142.979543 46.590621 
" clip-path="url(#p99117de207)" style="fill: none; stroke: #1f77b4; stroke-linecap: round"/>
   </g>
   <g id="line2d_28">
    <path d="M 95.595608 79.923178 
" clip-path="url(#p99117de207)" style="fill: none; stroke: #d62728; stroke-linecap: round"/>
   </g>
   <g id="line2d_29">
    <path d="M 54.497297 95.217766 
" clip-path="url(#p99117de207)" style="fill: none; stroke: #b8860b; stroke-linecap: round"/>
   </g>
   <g id="line2d_30">
    <path d="M 105.381481 34.754991 
" clip-path="url(#p99117de207)" style="fill: none; stroke: #f08080; stroke-linecap: round"/>
   </g>
   <g id="patch_3">
    <path d="M 41.214688 110.96 
L 41.214688 7.2 
" style="fill: none; stroke: #262626; stroke-linejoin: miter; stroke-linecap: square"/>
   </g>
   <g id="patch_4">
    <path d="M 156.33448 110.96 
L 156.33448 7.2 
" style="fill: none; stroke: #262626; stroke-linejoin: miter; stroke-linecap: square"/>
   </g>
   <g id="patch_5">
    <path d="M 41.214687 110.96 
L 156.33448 110.96 
" style="fill: none; stroke: #262626; stroke-linejoin: miter; stroke-linecap: square"/>
   </g>
   <g id="patch_6">
    <path d="M 41.214687 7.2 
L 156.33448 7.2 
" style="fill: none; stroke: #262626; stroke-linejoin: miter; stroke-linecap: square"/>
   </g>
  </g>
  <g id="legend_1">
   <g id="text_13">
    <!-- module -->
    <g style="fill: #262626" transform="translate(164.733573 57.623906)scale(0.1 -0.1)">
     <defs>
      <path id="ArialMT-6d" d="M 422 0 
L 422 3319 
L 925 3319 
L 925 2853 
Q 1081 3097 1340 3245 
Q 1600 3394 1931 3394 
Q 2300 3394 2536 3241 
Q 2772 3088 2869 2813 
Q 3263 3394 3894 3394 
Q 4388 3394 4653 3120 
Q 4919 2847 4919 2278 
L 4919 0 
L 4359 0 
L 4359 2091 
Q 4359 2428 4304 2576 
Q 4250 2725 4106 2815 
Q 3963 2906 3769 2906 
Q 3419 2906 3187 2673 
Q 2956 2441 2956 1928 
L 2956 0 
L 2394 0 
L 2394 2156 
Q 2394 2531 2256 2718 
Q 2119 2906 1806 2906 
Q 1569 2906 1367 2781 
Q 1166 2656 1075 2415 
Q 984 2175 984 1722 
L 984 0 
L 422 0 
z
" transform="scale(0.015625)"/>
      <path id="ArialMT-6f" d="M 213 1659 
Q 213 2581 725 3025 
Q 1153 3394 1769 3394 
Q 2453 3394 2887 2945 
Q 3322 2497 3322 1706 
Q 3322 1066 3130 698 
Q 2938 331 2570 128 
Q 2203 -75 1769 -75 
Q 1072 -75 642 372 
Q 213 819 213 1659 
z
M 791 1659 
Q 791 1022 1069 705 
Q 1347 388 1769 388 
Q 2188 388 2466 706 
Q 2744 1025 2744 1678 
Q 2744 2294 2464 2611 
Q 2184 2928 1769 2928 
Q 1347 2928 1069 2612 
Q 791 2297 791 1659 
z
" transform="scale(0.015625)"/>
      <path id="ArialMT-64" d="M 2575 0 
L 2575 419 
Q 2259 -75 1647 -75 
Q 1250 -75 917 144 
Q 584 363 401 755 
Q 219 1147 219 1656 
Q 219 2153 384 2558 
Q 550 2963 881 3178 
Q 1213 3394 1622 3394 
Q 1922 3394 2156 3267 
Q 2391 3141 2538 2938 
L 2538 4581 
L 3097 4581 
L 3097 0 
L 2575 0 
z
M 797 1656 
Q 797 1019 1065 703 
Q 1334 388 1700 388 
Q 2069 388 2326 689 
Q 2584 991 2584 1609 
Q 2584 2291 2321 2609 
Q 2059 2928 1675 2928 
Q 1300 2928 1048 2622 
Q 797 2316 797 1656 
z
" transform="scale(0.015625)"/>
      <path id="ArialMT-75" d="M 2597 0 
L 2597 488 
Q 2209 -75 1544 -75 
Q 1250 -75 995 37 
Q 741 150 617 320 
Q 494 491 444 738 
Q 409 903 409 1263 
L 409 3319 
L 972 3319 
L 972 1478 
Q 972 1038 1006 884 
Q 1059 663 1231 536 
Q 1403 409 1656 409 
Q 1909 409 2131 539 
Q 2353 669 2445 892 
Q 2538 1116 2538 1541 
L 2538 3319 
L 3100 3319 
L 3100 0 
L 2597 0 
z
" transform="scale(0.015625)"/>
      <path id="ArialMT-6c" d="M 409 0 
L 409 4581 
L 972 4581 
L 972 0 
L 409 0 
z
" transform="scale(0.015625)"/>
      <path id="ArialMT-65" d="M 2694 1069 
L 3275 997 
Q 3138 488 2766 206 
Q 2394 -75 1816 -75 
Q 1088 -75 661 373 
Q 234 822 234 1631 
Q 234 2469 665 2931 
Q 1097 3394 1784 3394 
Q 2450 3394 2872 2941 
Q 3294 2488 3294 1666 
Q 3294 1616 3291 1516 
L 816 1516 
Q 847 969 1125 678 
Q 1403 388 1819 388 
Q 2128 388 2347 550 
Q 2566 713 2694 1069 
z
M 847 1978 
L 2700 1978 
Q 2663 2397 2488 2606 
Q 2219 2931 1791 2931 
Q 1403 2931 1139 2672 
Q 875 2413 847 1978 
z
" transform="scale(0.015625)"/>
     </defs>
     <use xlink:href="#ArialMT-6d"/>
     <use xlink:href="#ArialMT-6f" x="83.300781"/>
     <use xlink:href="#ArialMT-64" x="138.916016"/>
     <use xlink:href="#ArialMT-75" x="194.53125"/>
     <use xlink:href="#ArialMT-6c" x="250.146484"/>
     <use xlink:href="#ArialMT-65" x="272.363281"/>
    </g>
   </g>
   <g id="LineCollection_9">
    <path d="M 164.81498 66.537656 
L 172.81498 66.537656 
" style="fill: none; stroke: #1f77b4; stroke-width: 1.5"/>
   </g>
   <g id="LineCollection_10">
    <path d="M 168.81498 70.537656 
L 168.81498 62.537656 
" style="fill: none; stroke: #1f77b4; stroke-width: 1.5"/>
   </g>
   <g id="line2d_31">
    <g>
     <use xlink:href="#m7693b87a56" x="164.81498" y="66.537656" style="fill: #1f77b4; stroke: #1f77b4"/>
    </g>
   </g>
   <g id="line2d_32">
    <g>
     <use xlink:href="#m7693b87a56" x="172.81498" y="66.537656" style="fill: #1f77b4; stroke: #1f77b4"/>
    </g>
   </g>
   <g id="line2d_33">
    <g>
     <use xlink:href="#me3c5884e6c" x="168.81498" y="70.537656" style="fill: #1f77b4; stroke: #1f77b4"/>
    </g>
   </g>
   <g id="line2d_34">
    <g>
     <use xlink:href="#me3c5884e6c" x="168.81498" y="62.537656" style="fill: #1f77b4; stroke: #1f77b4"/>
    </g>
   </g>
   <g id="line2d_35">
    <path d="M 160.81498 66.537656 
L 176.81498 66.537656 
" style="fill: none; stroke: #1f77b4; stroke-linecap: round"/>
   </g>
   <g id="line2d_36"/>
   <g id="text_14">
    <!-- Th1 -->
    <g style="fill: #262626" transform="translate(183.21498 69.337656)scale(0.08 -0.08)">
     <defs>
      <path id="ArialMT-54" d="M 1659 0 
L 1659 4041 
L 150 4041 
L 150 4581 
L 3781 4581 
L 3781 4041 
L 2266 4041 
L 2266 0 
L 1659 0 
z
" transform="scale(0.015625)"/>
     </defs>
     <use xlink:href="#ArialMT-54"/>
     <use xlink:href="#ArialMT-68" x="61.083984"/>
     <use xlink:href="#ArialMT-31" x="116.699219"/>
    </g>
   </g>
   <g id="LineCollection_11">
    <path d="M 164.81498 77.853906 
L 172.81498 77.853906 
" style="fill: none; stroke: #d62728; stroke-width: 1.5"/>
   </g>
   <g id="LineCollection_12">
    <path d="M 168.81498 81.853906 
L 168.81498 73.853906 
" style="fill: none; stroke: #d62728; stroke-width: 1.5"/>
   </g>
   <g id="line2d_37">
    <g>
     <use xlink:href="#md904ade677" x="164.81498" y="77.853906" style="fill: #d62728; stroke: #d62728"/>
    </g>
   </g>
   <g id="line2d_38">
    <g>
     <use xlink:href="#md904ade677" x="172.81498" y="77.853906" style="fill: #d62728; stroke: #d62728"/>
    </g>
   </g>
   <g id="line2d_39">
    <g>
     <use xlink:href="#m5f941565a0" x="168.81498" y="81.853906" style="fill: #d62728; stroke: #d62728"/>
    </g>
   </g>
   <g id="line2d_40">
    <g>
     <use xlink:href="#m5f941565a0" x="168.81498" y="73.853906" style="fill: #d62728; stroke: #d62728"/>
    </g>
   </g>
   <g id="line2d_41">
    <path d="M 160.81498 77.853906 
L 176.81498 77.853906 
" style="fill: none; stroke: #d62728; stroke-linecap: round"/>
   </g>
   <g id="line2d_42"/>
   <g id="text_15">
    <!-- Th2 -->
    <g style="fill: #262626" transform="translate(183.21498 80.653906)scale(0.08 -0.08)">
     <use xlink:href="#ArialMT-54"/>
     <use xlink:href="#ArialMT-68" x="61.083984"/>
     <use xlink:href="#ArialMT-32" x="116.699219"/>
    </g>
   </g>
   <g id="LineCollection_13">
    <path d="M 164.81498 89.170156 
L 172.81498 89.170156 
" style="fill: none; stroke: #b8860b; stroke-width: 1.5"/>
   </g>
   <g id="LineCollection_14">
    <path d="M 168.81498 93.170156 
L 168.81498 85.170156 
" style="fill: none; stroke: #b8860b; stroke-width: 1.5"/>
   </g>
   <g id="line2d_43">
    <g>
     <use xlink:href="#mdacf3fc112" x="164.81498" y="89.170156" style="fill: #b8860b; stroke: #b8860b"/>
    </g>
   </g>
   <g id="line2d_44">
    <g>
     <use xlink:href="#mdacf3fc112" x="172.81498" y="89.170156" style="fill: #b8860b; stroke: #b8860b"/>
    </g>
   </g>
   <g id="line2d_45">
    <g>
     <use xlink:href="#m14b7e08c8d" x="168.81498" y="93.170156" style="fill: #b8860b; stroke: #b8860b"/>
    </g>
   </g>
   <g id="line2d_46">
    <g>
     <use xlink:href="#m14b7e08c8d" x="168.81498" y="85.170156" style="fill: #b8860b; stroke: #b8860b"/>
    </g>
   </g>
   <g id="line2d_47">
    <path d="M 160.81498 89.170156 
L 176.81498 89.170156 
" style="fill: none; stroke: #b8860b; stroke-linecap: round"/>
   </g>
   <g id="line2d_48"/>
   <g id="text_16">
    <!-- Th17 -->
    <g style="fill: #262626" transform="translate(183.21498 91.970156)scale(0.08 -0.08)">
     <use xlink:href="#ArialMT-54"/>
     <use xlink:href="#ArialMT-68" x="61.083984"/>
     <use xlink:href="#ArialMT-31" x="116.699219"/>
     <use xlink:href="#ArialMT-37" x="172.314453"/>
    </g>
   </g>
  </g>
 </g>
 <defs>
  <clipPath id="p99117de207">
   <rect x="41.214688" y="7.2" width="115.119792" height="103.76"/>
  </clipPath>
 </defs>
</svg>
