<?xml version="1.0" encoding="utf-8" standalone="no"?>
<!DOCTYPE svg PUBLIC "-//W3C//DTD SVG 1.1//EN"
  "http://www.w3.org/Graphics/SVG/1.1/DTD/svg11.dtd">
<!-- Created with matplotlib (https://matplotlib.org/) -->
<svg height="209.440875pt" version="1.1" viewBox="0 0 224.43825 209.440875" width="224.43825pt" xmlns="http://www.w3.org/2000/svg" xmlns:xlink="http://www.w3.org/1999/xlink">
 <metadata>
  <rdf:RDF xmlns:cc="http://creativecommons.org/ns#" xmlns:dc="http://purl.org/dc/elements/1.1/" xmlns:rdf="http://www.w3.org/1999/02/22-rdf-syntax-ns#">
   <cc:Work>
    <dc:type rdf:resource="http://purl.org/dc/dcmitype/StillImage"/>
    <dc:date>2022-08-04T16:27:24.766117</dc:date>
    <dc:format>image/svg+xml</dc:format>
    <dc:creator>
     <cc:Agent>
      <dc:title>Matplotlib v3.3.2, https://matplotlib.org/</dc:title>
     </cc:Agent>
    </dc:creator>
   </cc:Work>
  </rdf:RDF>
 </metadata>
 <defs>
  <style type="text/css">*{stroke-linecap:butt;stroke-linejoin:round;}</style>
 </defs>
 <g id="figure_1">
  <g id="patch_1">
   <path d="M 0 209.440875 
L 224.43825 209.440875 
L 224.43825 0 
L 0 0 
z
" style="fill:#ffffff;"/>
  </g>
  <g id="axes_1">
   <g id="patch_2">
    <path d="M 38.29625 172.884 
L 210.268293 172.884 
L 210.268293 7.2 
L 38.29625 7.2 
z
" style="fill:#ffffff;"/>
   </g>
   <g id="matplotlib.axis_1">
    <g id="xtick_1">
     <g id="line2d_1">
      <defs>
       <path d="M 0 0 
L 0 4.8 
" id="m018ab0eb32" style="stroke:#262626;"/>
      </defs>
      <g>
       <use style="fill:#262626;stroke:#262626;" x="42.652317" xlink:href="#m018ab0eb32" y="172.884"/>
      </g>
     </g>
     <g id="text_1">
      <!-- 10 -->
      <g style="fill:#262626;" transform="translate(37.758692 187.482875)scale(0.088 -0.088)">
       <defs>
        <path d="M 37.25 0 
L 28.46875 0 
L 28.46875 56 
Q 25.296875 52.984375 20.140625 49.953125 
Q 14.984375 46.921875 10.890625 45.40625 
L 10.890625 53.90625 
Q 18.265625 57.375 23.78125 62.296875 
Q 29.296875 67.234375 31.59375 71.875 
L 37.25 71.875 
z
" id="ArialMT-49"/>
        <path d="M 4.15625 35.296875 
Q 4.15625 48 6.765625 55.734375 
Q 9.375 63.484375 14.515625 67.671875 
Q 19.671875 71.875 27.484375 71.875 
Q 33.25 71.875 37.59375 69.546875 
Q 41.9375 67.234375 44.765625 62.859375 
Q 47.609375 58.5 49.21875 52.21875 
Q 50.828125 45.953125 50.828125 35.296875 
Q 50.828125 22.703125 48.234375 14.96875 
Q 45.65625 7.234375 40.5 3 
Q 35.359375 -1.21875 27.484375 -1.21875 
Q 17.140625 -1.21875 11.234375 6.203125 
Q 4.15625 15.140625 4.15625 35.296875 
z
M 13.1875 35.296875 
Q 13.1875 17.671875 17.3125 11.828125 
Q 21.4375 6 27.484375 6 
Q 33.546875 6 37.671875 11.859375 
Q 41.796875 17.71875 41.796875 35.296875 
Q 41.796875 52.984375 37.671875 58.78125 
Q 33.546875 64.59375 27.390625 64.59375 
Q 21.34375 64.59375 17.71875 59.46875 
Q 13.1875 52.9375 13.1875 35.296875 
z
" id="ArialMT-48"/>
       </defs>
       <use xlink:href="#ArialMT-49"/>
       <use x="55.615234" xlink:href="#ArialMT-48"/>
      </g>
     </g>
    </g>
    <g id="xtick_2">
     <g id="line2d_2">
      <g>
       <use style="fill:#262626;stroke:#262626;" x="96.870123" xlink:href="#m018ab0eb32" y="172.884"/>
      </g>
     </g>
     <g id="text_2">
      <!-- 20 -->
      <g style="fill:#262626;" transform="translate(91.976498 187.482875)scale(0.088 -0.088)">
       <defs>
        <path d="M 50.34375 8.453125 
L 50.34375 0 
L 3.03125 0 
Q 2.9375 3.171875 4.046875 6.109375 
Q 5.859375 10.9375 9.828125 15.625 
Q 13.8125 20.3125 21.34375 26.46875 
Q 33.015625 36.03125 37.109375 41.625 
Q 41.21875 47.21875 41.21875 52.203125 
Q 41.21875 57.421875 37.46875 61 
Q 33.734375 64.59375 27.734375 64.59375 
Q 21.390625 64.59375 17.578125 60.78125 
Q 13.765625 56.984375 13.71875 50.25 
L 4.6875 51.171875 
Q 5.609375 61.28125 11.65625 66.578125 
Q 17.71875 71.875 27.9375 71.875 
Q 38.234375 71.875 44.234375 66.15625 
Q 50.25 60.453125 50.25 52 
Q 50.25 47.703125 48.484375 43.546875 
Q 46.734375 39.40625 42.65625 34.8125 
Q 38.578125 30.21875 29.109375 22.21875 
Q 21.1875 15.578125 18.9375 13.203125 
Q 16.703125 10.84375 15.234375 8.453125 
z
" id="ArialMT-50"/>
       </defs>
       <use xlink:href="#ArialMT-50"/>
       <use x="55.615234" xlink:href="#ArialMT-48"/>
      </g>
     </g>
    </g>
    <g id="xtick_3">
     <g id="line2d_3">
      <g>
       <use style="fill:#262626;stroke:#262626;" x="151.087928" xlink:href="#m018ab0eb32" y="172.884"/>
      </g>
     </g>
     <g id="text_3">
      <!-- 30 -->
      <g style="fill:#262626;" transform="translate(146.194303 187.482875)scale(0.088 -0.088)">
       <defs>
        <path d="M 4.203125 18.890625 
L 12.984375 20.0625 
Q 14.5 12.59375 18.140625 9.296875 
Q 21.78125 6 27 6 
Q 33.203125 6 37.46875 10.296875 
Q 41.75 14.59375 41.75 20.953125 
Q 41.75 27 37.796875 30.921875 
Q 33.84375 34.859375 27.734375 34.859375 
Q 25.25 34.859375 21.53125 33.890625 
L 22.515625 41.609375 
Q 23.390625 41.5 23.921875 41.5 
Q 29.546875 41.5 34.03125 44.421875 
Q 38.53125 47.359375 38.53125 53.46875 
Q 38.53125 58.296875 35.25 61.46875 
Q 31.984375 64.65625 26.8125 64.65625 
Q 21.6875 64.65625 18.265625 61.421875 
Q 14.84375 58.203125 13.875 51.765625 
L 5.078125 53.328125 
Q 6.6875 62.15625 12.390625 67.015625 
Q 18.109375 71.875 26.609375 71.875 
Q 32.46875 71.875 37.390625 69.359375 
Q 42.328125 66.84375 44.9375 62.5 
Q 47.5625 58.15625 47.5625 53.265625 
Q 47.5625 48.640625 45.0625 44.828125 
Q 42.578125 41.015625 37.703125 38.765625 
Q 44.046875 37.3125 47.5625 32.6875 
Q 51.078125 28.078125 51.078125 21.140625 
Q 51.078125 11.765625 44.234375 5.25 
Q 37.40625 -1.265625 26.953125 -1.265625 
Q 17.53125 -1.265625 11.296875 4.34375 
Q 5.078125 9.96875 4.203125 18.890625 
z
" id="ArialMT-51"/>
       </defs>
       <use xlink:href="#ArialMT-51"/>
       <use x="55.615234" xlink:href="#ArialMT-48"/>
      </g>
     </g>
    </g>
    <g id="xtick_4">
     <g id="line2d_4">
      <g>
       <use style="fill:#262626;stroke:#262626;" x="205.305734" xlink:href="#m018ab0eb32" y="172.884"/>
      </g>
     </g>
     <g id="text_4">
      <!-- 40 -->
      <g style="fill:#262626;" transform="translate(200.412109 187.482875)scale(0.088 -0.088)">
       <defs>
        <path d="M 32.328125 0 
L 32.328125 17.140625 
L 1.265625 17.140625 
L 1.265625 25.203125 
L 33.9375 71.578125 
L 41.109375 71.578125 
L 41.109375 25.203125 
L 50.78125 25.203125 
L 50.78125 17.140625 
L 41.109375 17.140625 
L 41.109375 0 
z
M 32.328125 25.203125 
L 32.328125 57.46875 
L 9.90625 25.203125 
z
" id="ArialMT-52"/>
       </defs>
       <use xlink:href="#ArialMT-52"/>
       <use x="55.615234" xlink:href="#ArialMT-48"/>
      </g>
     </g>
    </g>
    <g id="text_5">
     <!-- avg (h) -->
     <g style="fill:#262626;" transform="translate(109.344522 200.220375)scale(0.096 -0.096)">
      <defs>
       <path d="M 40.4375 6.390625 
Q 35.546875 2.25 31.03125 0.53125 
Q 26.515625 -1.171875 21.34375 -1.171875 
Q 12.796875 -1.171875 8.203125 3 
Q 3.609375 7.171875 3.609375 13.671875 
Q 3.609375 17.484375 5.34375 20.625 
Q 7.078125 23.78125 9.890625 25.6875 
Q 12.703125 27.59375 16.21875 28.5625 
Q 18.796875 29.25 24.03125 29.890625 
Q 34.671875 31.15625 39.703125 32.90625 
Q 39.75 34.71875 39.75 35.203125 
Q 39.75 40.578125 37.25 42.78125 
Q 33.890625 45.75 27.25 45.75 
Q 21.046875 45.75 18.09375 43.578125 
Q 15.140625 41.40625 13.71875 35.890625 
L 5.125 37.0625 
Q 6.296875 42.578125 8.984375 45.96875 
Q 11.671875 49.359375 16.75 51.1875 
Q 21.828125 53.03125 28.515625 53.03125 
Q 35.15625 53.03125 39.296875 51.46875 
Q 43.453125 49.90625 45.40625 47.53125 
Q 47.359375 45.171875 48.140625 41.546875 
Q 48.578125 39.3125 48.578125 33.453125 
L 48.578125 21.734375 
Q 48.578125 9.46875 49.140625 6.21875 
Q 49.703125 2.984375 51.375 0 
L 42.1875 0 
Q 40.828125 2.734375 40.4375 6.390625 
z
M 39.703125 26.03125 
Q 34.90625 24.078125 25.34375 22.703125 
Q 19.921875 21.921875 17.671875 20.9375 
Q 15.4375 19.96875 14.203125 18.09375 
Q 12.984375 16.21875 12.984375 13.921875 
Q 12.984375 10.40625 15.640625 8.0625 
Q 18.3125 5.71875 23.4375 5.71875 
Q 28.515625 5.71875 32.46875 7.9375 
Q 36.421875 10.15625 38.28125 14.015625 
Q 39.703125 17 39.703125 22.796875 
z
" id="ArialMT-97"/>
       <path d="M 21 0 
L 1.265625 51.859375 
L 10.546875 51.859375 
L 21.6875 20.796875 
Q 23.484375 15.765625 25 10.359375 
Q 26.171875 14.453125 28.265625 20.21875 
L 39.796875 51.859375 
L 48.828125 51.859375 
L 29.203125 0 
z
" id="ArialMT-118"/>
       <path d="M 4.984375 -4.296875 
L 13.53125 -5.5625 
Q 14.0625 -9.515625 16.5 -11.328125 
Q 19.78125 -13.765625 25.4375 -13.765625 
Q 31.546875 -13.765625 34.859375 -11.328125 
Q 38.1875 -8.890625 39.359375 -4.5 
Q 40.046875 -1.8125 39.984375 6.78125 
Q 34.234375 0 25.640625 0 
Q 14.9375 0 9.078125 7.71875 
Q 3.21875 15.4375 3.21875 26.21875 
Q 3.21875 33.640625 5.90625 39.90625 
Q 8.59375 46.1875 13.6875 49.609375 
Q 18.796875 53.03125 25.6875 53.03125 
Q 34.859375 53.03125 40.828125 45.609375 
L 40.828125 51.859375 
L 48.921875 51.859375 
L 48.921875 7.03125 
Q 48.921875 -5.078125 46.453125 -10.125 
Q 44 -15.1875 38.640625 -18.109375 
Q 33.296875 -21.046875 25.484375 -21.046875 
Q 16.21875 -21.046875 10.5 -16.875 
Q 4.78125 -12.703125 4.984375 -4.296875 
z
M 12.25 26.859375 
Q 12.25 16.65625 16.296875 11.96875 
Q 20.359375 7.28125 26.46875 7.28125 
Q 32.515625 7.28125 36.609375 11.9375 
Q 40.71875 16.609375 40.71875 26.5625 
Q 40.71875 36.078125 36.5 40.90625 
Q 32.28125 45.75 26.3125 45.75 
Q 20.453125 45.75 16.34375 40.984375 
Q 12.25 36.234375 12.25 26.859375 
z
" id="ArialMT-103"/>
       <path id="ArialMT-32"/>
       <path d="M 23.390625 -21.046875 
Q 16.109375 -11.859375 11.078125 0.4375 
Q 6.0625 12.75 6.0625 25.921875 
Q 6.0625 37.546875 9.8125 48.1875 
Q 14.203125 60.546875 23.390625 72.796875 
L 29.6875 72.796875 
Q 23.78125 62.640625 21.875 58.296875 
Q 18.890625 51.5625 17.1875 44.234375 
Q 15.09375 35.109375 15.09375 25.875 
Q 15.09375 2.390625 29.6875 -21.046875 
z
" id="ArialMT-40"/>
       <path d="M 6.59375 0 
L 6.59375 71.578125 
L 15.375 71.578125 
L 15.375 45.90625 
Q 21.53125 53.03125 30.90625 53.03125 
Q 36.671875 53.03125 40.921875 50.75 
Q 45.171875 48.484375 47 44.484375 
Q 48.828125 40.484375 48.828125 32.859375 
L 48.828125 0 
L 40.046875 0 
L 40.046875 32.859375 
Q 40.046875 39.453125 37.1875 42.453125 
Q 34.328125 45.453125 29.109375 45.453125 
Q 25.203125 45.453125 21.75 43.421875 
Q 18.3125 41.40625 16.84375 37.9375 
Q 15.375 34.46875 15.375 28.375 
L 15.375 0 
z
" id="ArialMT-104"/>
       <path d="M 12.359375 -21.046875 
L 6.0625 -21.046875 
Q 20.65625 2.390625 20.65625 25.875 
Q 20.65625 35.0625 18.5625 44.09375 
Q 16.890625 51.421875 13.921875 58.15625 
Q 12.015625 62.546875 6.0625 72.796875 
L 12.359375 72.796875 
Q 21.53125 60.546875 25.921875 48.1875 
Q 29.6875 37.546875 29.6875 25.921875 
Q 29.6875 12.75 24.625 0.4375 
Q 19.578125 -11.859375 12.359375 -21.046875 
z
" id="ArialMT-41"/>
      </defs>
      <use xlink:href="#ArialMT-97"/>
      <use x="55.615234" xlink:href="#ArialMT-118"/>
      <use x="105.615234" xlink:href="#ArialMT-103"/>
      <use x="161.230469" xlink:href="#ArialMT-32"/>
      <use x="189.013672" xlink:href="#ArialMT-40"/>
      <use x="222.314453" xlink:href="#ArialMT-104"/>
      <use x="277.929688" xlink:href="#ArialMT-41"/>
     </g>
    </g>
   </g>
   <g id="matplotlib.axis_2">
    <g id="ytick_1">
     <g id="line2d_5">
      <defs>
       <path d="M 0 0 
L -4.8 0 
" id="m2d36d53cbf" style="stroke:#262626;"/>
      </defs>
      <g>
       <use style="fill:#262626;stroke:#262626;" x="38.29625" xlink:href="#m2d36d53cbf" y="156.067403"/>
      </g>
     </g>
     <g id="text_6">
      <!-- 8 -->
      <g style="fill:#262626;" transform="translate(25.102625 159.216841)scale(0.088 -0.088)">
       <defs>
        <path d="M 17.671875 38.8125 
Q 12.203125 40.828125 9.5625 44.53125 
Q 6.9375 48.25 6.9375 53.421875 
Q 6.9375 61.234375 12.546875 66.546875 
Q 18.171875 71.875 27.484375 71.875 
Q 36.859375 71.875 42.578125 66.421875 
Q 48.296875 60.984375 48.296875 53.171875 
Q 48.296875 48.1875 45.671875 44.5 
Q 43.0625 40.828125 37.75 38.8125 
Q 44.34375 36.671875 47.78125 31.875 
Q 51.21875 27.09375 51.21875 20.453125 
Q 51.21875 11.28125 44.71875 5.03125 
Q 38.234375 -1.21875 27.640625 -1.21875 
Q 17.046875 -1.21875 10.546875 5.046875 
Q 4.046875 11.328125 4.046875 20.703125 
Q 4.046875 27.6875 7.59375 32.390625 
Q 11.140625 37.109375 17.671875 38.8125 
z
M 15.921875 53.71875 
Q 15.921875 48.640625 19.1875 45.40625 
Q 22.46875 42.1875 27.6875 42.1875 
Q 32.765625 42.1875 36.015625 45.375 
Q 39.265625 48.578125 39.265625 53.21875 
Q 39.265625 58.0625 35.90625 61.359375 
Q 32.5625 64.65625 27.59375 64.65625 
Q 22.5625 64.65625 19.234375 61.421875 
Q 15.921875 58.203125 15.921875 53.71875 
z
M 13.09375 20.65625 
Q 13.09375 16.890625 14.875 13.375 
Q 16.65625 9.859375 20.171875 7.921875 
Q 23.6875 6 27.734375 6 
Q 34.03125 6 38.125 10.046875 
Q 42.234375 14.109375 42.234375 20.359375 
Q 42.234375 26.703125 38.015625 30.859375 
Q 33.796875 35.015625 27.4375 35.015625 
Q 21.234375 35.015625 17.15625 30.90625 
Q 13.09375 26.8125 13.09375 20.65625 
z
" id="ArialMT-56"/>
       </defs>
       <use xlink:href="#ArialMT-56"/>
      </g>
     </g>
    </g>
    <g id="ytick_2">
     <g id="line2d_6">
      <g>
       <use style="fill:#262626;stroke:#262626;" x="38.29625" xlink:href="#m2d36d53cbf" y="132.129577"/>
      </g>
     </g>
     <g id="text_7">
      <!-- 10 -->
      <g style="fill:#262626;" transform="translate(20.209 135.279014)scale(0.088 -0.088)">
       <use xlink:href="#ArialMT-49"/>
       <use x="55.615234" xlink:href="#ArialMT-48"/>
      </g>
     </g>
    </g>
    <g id="ytick_3">
     <g id="line2d_7">
      <g>
       <use style="fill:#262626;stroke:#262626;" x="38.29625" xlink:href="#m2d36d53cbf" y="108.191751"/>
      </g>
     </g>
     <g id="text_8">
      <!-- 12 -->
      <g style="fill:#262626;" transform="translate(20.209 111.341188)scale(0.088 -0.088)">
       <use xlink:href="#ArialMT-49"/>
       <use x="55.615234" xlink:href="#ArialMT-50"/>
      </g>
     </g>
    </g>
    <g id="ytick_4">
     <g id="line2d_8">
      <g>
       <use style="fill:#262626;stroke:#262626;" x="38.29625" xlink:href="#m2d36d53cbf" y="84.253924"/>
      </g>
     </g>
     <g id="text_9">
      <!-- 14 -->
      <g style="fill:#262626;" transform="translate(20.209 87.403362)scale(0.088 -0.088)">
       <use xlink:href="#ArialMT-49"/>
       <use x="55.615234" xlink:href="#ArialMT-52"/>
      </g>
     </g>
    </g>
    <g id="ytick_5">
     <g id="line2d_9">
      <g>
       <use style="fill:#262626;stroke:#262626;" x="38.29625" xlink:href="#m2d36d53cbf" y="60.316098"/>
      </g>
     </g>
     <g id="text_10">
      <!-- 16 -->
      <g style="fill:#262626;" transform="translate(20.209 63.465535)scale(0.088 -0.088)">
       <defs>
        <path d="M 49.75 54.046875 
L 41.015625 53.375 
Q 39.84375 58.546875 37.703125 60.890625 
Q 34.125 64.65625 28.90625 64.65625 
Q 24.703125 64.65625 21.53125 62.3125 
Q 17.390625 59.28125 14.984375 53.46875 
Q 12.59375 47.65625 12.5 36.921875 
Q 15.671875 41.75 20.265625 44.09375 
Q 24.859375 46.4375 29.890625 46.4375 
Q 38.671875 46.4375 44.84375 39.96875 
Q 51.03125 33.5 51.03125 23.25 
Q 51.03125 16.5 48.125 10.71875 
Q 45.21875 4.9375 40.140625 1.859375 
Q 35.0625 -1.21875 28.609375 -1.21875 
Q 17.625 -1.21875 10.6875 6.859375 
Q 3.765625 14.9375 3.765625 33.5 
Q 3.765625 54.25 11.421875 63.671875 
Q 18.109375 71.875 29.4375 71.875 
Q 37.890625 71.875 43.28125 67.140625 
Q 48.6875 62.40625 49.75 54.046875 
z
M 13.875 23.1875 
Q 13.875 18.65625 15.796875 14.5 
Q 17.71875 10.359375 21.1875 8.171875 
Q 24.65625 6 28.46875 6 
Q 34.03125 6 38.03125 10.484375 
Q 42.046875 14.984375 42.046875 22.703125 
Q 42.046875 30.125 38.078125 34.390625 
Q 34.125 38.671875 28.125 38.671875 
Q 22.171875 38.671875 18.015625 34.390625 
Q 13.875 30.125 13.875 23.1875 
z
" id="ArialMT-54"/>
       </defs>
       <use xlink:href="#ArialMT-49"/>
       <use x="55.615234" xlink:href="#ArialMT-54"/>
      </g>
     </g>
    </g>
    <g id="ytick_6">
     <g id="line2d_10">
      <g>
       <use style="fill:#262626;stroke:#262626;" x="38.29625" xlink:href="#m2d36d53cbf" y="36.378271"/>
      </g>
     </g>
     <g id="text_11">
      <!-- 18 -->
      <g style="fill:#262626;" transform="translate(20.209 39.527709)scale(0.088 -0.088)">
       <use xlink:href="#ArialMT-49"/>
       <use x="55.615234" xlink:href="#ArialMT-56"/>
      </g>
     </g>
    </g>
    <g id="ytick_7">
     <g id="line2d_11">
      <g>
       <use style="fill:#262626;stroke:#262626;" x="38.29625" xlink:href="#m2d36d53cbf" y="12.440445"/>
      </g>
     </g>
     <g id="text_12">
      <!-- 20 -->
      <g style="fill:#262626;" transform="translate(20.209 15.589883)scale(0.088 -0.088)">
       <use xlink:href="#ArialMT-50"/>
       <use x="55.615234" xlink:href="#ArialMT-48"/>
      </g>
     </g>
    </g>
    <g id="text_13">
     <!-- SD (h) -->
     <g style="fill:#262626;" transform="translate(14.1885 103.9095)rotate(-90)scale(0.096 -0.096)">
      <defs>
       <path d="M 4.5 23 
L 13.421875 23.78125 
Q 14.0625 18.40625 16.375 14.96875 
Q 18.703125 11.53125 23.578125 9.40625 
Q 28.46875 7.28125 34.578125 7.28125 
Q 39.984375 7.28125 44.140625 8.890625 
Q 48.296875 10.5 50.3125 13.296875 
Q 52.34375 16.109375 52.34375 19.4375 
Q 52.34375 22.796875 50.390625 25.3125 
Q 48.4375 27.828125 43.953125 29.546875 
Q 41.0625 30.671875 31.203125 33.03125 
Q 21.34375 35.40625 17.390625 37.5 
Q 12.25 40.1875 9.734375 44.15625 
Q 7.234375 48.140625 7.234375 53.078125 
Q 7.234375 58.5 10.296875 63.203125 
Q 13.375 67.921875 19.28125 70.359375 
Q 25.203125 72.796875 32.421875 72.796875 
Q 40.375 72.796875 46.453125 70.234375 
Q 52.546875 67.671875 55.8125 62.6875 
Q 59.078125 57.71875 59.328125 51.421875 
L 50.25 50.734375 
Q 49.515625 57.515625 45.28125 60.984375 
Q 41.0625 64.453125 32.8125 64.453125 
Q 24.21875 64.453125 20.28125 61.296875 
Q 16.359375 58.15625 16.359375 53.71875 
Q 16.359375 49.859375 19.140625 47.359375 
Q 21.875 44.875 33.421875 42.265625 
Q 44.96875 39.65625 49.265625 37.703125 
Q 55.515625 34.8125 58.484375 30.390625 
Q 61.46875 25.984375 61.46875 20.21875 
Q 61.46875 14.5 58.203125 9.4375 
Q 54.9375 4.390625 48.796875 1.578125 
Q 42.671875 -1.21875 35.015625 -1.21875 
Q 25.296875 -1.21875 18.71875 1.609375 
Q 12.15625 4.4375 8.421875 10.125 
Q 4.6875 15.828125 4.5 23 
z
" id="ArialMT-83"/>
       <path d="M 7.71875 0 
L 7.71875 71.578125 
L 32.375 71.578125 
Q 40.71875 71.578125 45.125 70.5625 
Q 51.265625 69.140625 55.609375 65.4375 
Q 61.28125 60.640625 64.078125 53.1875 
Q 66.890625 45.75 66.890625 36.1875 
Q 66.890625 28.03125 64.984375 21.734375 
Q 63.09375 15.4375 60.109375 11.296875 
Q 57.125 7.171875 53.578125 4.796875 
Q 50.046875 2.4375 45.046875 1.21875 
Q 40.046875 0 33.546875 0 
z
M 17.1875 8.453125 
L 32.46875 8.453125 
Q 39.546875 8.453125 43.578125 9.765625 
Q 47.609375 11.078125 50 13.484375 
Q 53.375 16.84375 55.25 22.53125 
Q 57.125 28.21875 57.125 36.328125 
Q 57.125 47.5625 53.4375 53.59375 
Q 49.75 59.625 44.484375 61.671875 
Q 40.671875 63.140625 32.234375 63.140625 
L 17.1875 63.140625 
z
" id="ArialMT-68"/>
      </defs>
      <use xlink:href="#ArialMT-83"/>
      <use x="66.699219" xlink:href="#ArialMT-68"/>
      <use x="138.916016" xlink:href="#ArialMT-32"/>
      <use x="166.699219" xlink:href="#ArialMT-40"/>
      <use x="200" xlink:href="#ArialMT-104"/>
      <use x="255.615234" xlink:href="#ArialMT-41"/>
     </g>
    </g>
   </g>
   <g id="PathCollection_1">
    <defs>
     <path d="M 0 2.4 
C 0.636487 2.4 1.246992 2.147121 1.697056 1.697056 
C 2.147121 1.246992 2.4 0.636487 2.4 0 
C 2.4 -0.636487 2.147121 -1.246992 1.697056 -1.697056 
C 1.246992 -2.147121 0.636487 -2.4 0 -2.4 
C -0.636487 -2.4 -1.246992 -2.147121 -1.697056 -1.697056 
C -2.147121 -1.246992 -2.4 -0.636487 -2.4 0 
C -2.4 0.636487 -2.147121 1.246992 -1.697056 1.697056 
C -1.246992 2.147121 -0.636487 2.4 0 2.4 
z
" id="m7433300f38" style="stroke:#d62728;stroke-width:0.8;"/>
    </defs>
    <g clip-path="url(#p472d7bc709)">
     <use style="fill:#d62728;stroke:#d62728;stroke-width:0.8;" x="143.735103" xlink:href="#m7433300f38" y="14.731091"/>
    </g>
   </g>
   <g id="PathCollection_2">
    <defs>
     <path d="M 0 2.4 
C 0.636487 2.4 1.246992 2.147121 1.697056 1.697056 
C 2.147121 1.246992 2.4 0.636487 2.4 0 
C 2.4 -0.636487 2.147121 -1.246992 1.697056 -1.697056 
C 1.246992 -2.147121 0.636487 -2.4 0 -2.4 
C -0.636487 -2.4 -1.246992 -2.147121 -1.697056 -1.697056 
C -2.147121 -1.246992 -2.4 -0.636487 -2.4 0 
C -2.4 0.636487 -2.147121 1.246992 -1.697056 1.697056 
C -1.246992 2.147121 -0.636487 2.4 0 2.4 
z
" id="mca8dcbff58" style="stroke:#1f77b4;stroke-width:0.8;"/>
    </defs>
    <g clip-path="url(#p472d7bc709)">
     <use style="fill:#1f77b4;stroke:#1f77b4;stroke-width:0.8;" x="150.167564" xlink:href="#mca8dcbff58" y="70.233429"/>
    </g>
   </g>
   <g id="LineCollection_1">
    <path clip-path="url(#p472d7bc709)" d="M 178.18458 70.098956 
L 202.451382 70.098956 
" style="fill:none;stroke:#1f77b4;stroke-width:1.5;"/>
   </g>
   <g id="LineCollection_2">
    <path clip-path="url(#p472d7bc709)" d="M 190.317981 82.831862 
L 190.317981 57.366051 
" style="fill:none;stroke:#1f77b4;stroke-width:1.5;"/>
   </g>
   <g id="LineCollection_3">
    <path clip-path="url(#p472d7bc709)" d="M 107.48322 123.324393 
L 131.583479 123.324393 
" style="fill:none;stroke:#d62728;stroke-width:1.5;"/>
   </g>
   <g id="LineCollection_4">
    <path clip-path="url(#p472d7bc709)" d="M 119.53335 137.715654 
L 119.53335 108.933132 
" style="fill:none;stroke:#d62728;stroke-width:1.5;"/>
   </g>
   <g id="LineCollection_5">
    <path clip-path="url(#p472d7bc709)" d="M 46.113161 147.746795 
L 70.163869 147.746795 
" style="fill:none;stroke:#b8860b;stroke-width:1.5;"/>
   </g>
   <g id="LineCollection_6">
    <path clip-path="url(#p472d7bc709)" d="M 58.138515 165.352909 
L 58.138515 130.140682 
" style="fill:none;stroke:#b8860b;stroke-width:1.5;"/>
   </g>
   <g id="LineCollection_7">
    <path clip-path="url(#p472d7bc709)" d="M 123.535493 51.199818 
L 144.768516 51.199818 
" style="fill:none;stroke:#f08080;stroke-width:1.2;"/>
   </g>
   <g id="LineCollection_8">
    <path clip-path="url(#p472d7bc709)" d="M 134.152005 69.326761 
L 134.152005 33.072875 
" style="fill:none;stroke:#f08080;stroke-width:1.2;"/>
   </g>
   <g id="line2d_12">
    <defs>
     <path d="M 0 4 
L 0 -4 
" id="m1592bd2ed4" style="stroke:#1f77b4;"/>
    </defs>
    <g clip-path="url(#p472d7bc709)">
     <use style="fill:#1f77b4;stroke:#1f77b4;" x="178.18458" xlink:href="#m1592bd2ed4" y="70.098956"/>
    </g>
   </g>
   <g id="line2d_13">
    <g clip-path="url(#p472d7bc709)">
     <use style="fill:#1f77b4;stroke:#1f77b4;" x="202.451382" xlink:href="#m1592bd2ed4" y="70.098956"/>
    </g>
   </g>
   <g id="line2d_14">
    <defs>
     <path d="M 4 0 
L -4 -0 
" id="m0570398cd7" style="stroke:#1f77b4;"/>
    </defs>
    <g clip-path="url(#p472d7bc709)">
     <use style="fill:#1f77b4;stroke:#1f77b4;" x="190.317981" xlink:href="#m0570398cd7" y="82.831862"/>
    </g>
   </g>
   <g id="line2d_15">
    <g clip-path="url(#p472d7bc709)">
     <use style="fill:#1f77b4;stroke:#1f77b4;" x="190.317981" xlink:href="#m0570398cd7" y="57.366051"/>
    </g>
   </g>
   <g id="line2d_16">
    <defs>
     <path d="M 0 4 
L 0 -4 
" id="mf0896002b5" style="stroke:#d62728;"/>
    </defs>
    <g clip-path="url(#p472d7bc709)">
     <use style="fill:#d62728;stroke:#d62728;" x="107.48322" xlink:href="#mf0896002b5" y="123.324393"/>
    </g>
   </g>
   <g id="line2d_17">
    <g clip-path="url(#p472d7bc709)">
     <use style="fill:#d62728;stroke:#d62728;" x="131.583479" xlink:href="#mf0896002b5" y="123.324393"/>
    </g>
   </g>
   <g id="line2d_18">
    <defs>
     <path d="M 4 0 
L -4 -0 
" id="m9d481986c4" style="stroke:#d62728;"/>
    </defs>
    <g clip-path="url(#p472d7bc709)">
     <use style="fill:#d62728;stroke:#d62728;" x="119.53335" xlink:href="#m9d481986c4" y="137.715654"/>
    </g>
   </g>
   <g id="line2d_19">
    <g clip-path="url(#p472d7bc709)">
     <use style="fill:#d62728;stroke:#d62728;" x="119.53335" xlink:href="#m9d481986c4" y="108.933132"/>
    </g>
   </g>
   <g id="line2d_20">
    <defs>
     <path d="M 0 4 
L 0 -4 
" id="m26e726542c" style="stroke:#b8860b;"/>
    </defs>
    <g clip-path="url(#p472d7bc709)">
     <use style="fill:#b8860b;stroke:#b8860b;" x="46.113161" xlink:href="#m26e726542c" y="147.746795"/>
    </g>
   </g>
   <g id="line2d_21">
    <g clip-path="url(#p472d7bc709)">
     <use style="fill:#b8860b;stroke:#b8860b;" x="70.163869" xlink:href="#m26e726542c" y="147.746795"/>
    </g>
   </g>
   <g id="line2d_22">
    <defs>
     <path d="M 4 0 
L -4 -0 
" id="m8041a29675" style="stroke:#b8860b;"/>
    </defs>
    <g clip-path="url(#p472d7bc709)">
     <use style="fill:#b8860b;stroke:#b8860b;" x="58.138515" xlink:href="#m8041a29675" y="165.352909"/>
    </g>
   </g>
   <g id="line2d_23">
    <g clip-path="url(#p472d7bc709)">
     <use style="fill:#b8860b;stroke:#b8860b;" x="58.138515" xlink:href="#m8041a29675" y="130.140682"/>
    </g>
   </g>
   <g id="line2d_24">
    <defs>
     <path d="M 0 4 
L 0 -4 
" id="m034be74686" style="stroke:#f08080;"/>
    </defs>
    <g clip-path="url(#p472d7bc709)">
     <use style="fill:#f08080;stroke:#f08080;" x="123.535493" xlink:href="#m034be74686" y="51.199818"/>
    </g>
   </g>
   <g id="line2d_25">
    <g clip-path="url(#p472d7bc709)">
     <use style="fill:#f08080;stroke:#f08080;" x="144.768516" xlink:href="#m034be74686" y="51.199818"/>
    </g>
   </g>
   <g id="line2d_26">
    <defs>
     <path d="M 4 0 
L -4 -0 
" id="m8b3d9500bf" style="stroke:#f08080;"/>
    </defs>
    <g clip-path="url(#p472d7bc709)">
     <use style="fill:#f08080;stroke:#f08080;" x="134.152005" xlink:href="#m8b3d9500bf" y="69.326761"/>
    </g>
   </g>
   <g id="line2d_27">
    <g clip-path="url(#p472d7bc709)">
     <use style="fill:#f08080;stroke:#f08080;" x="134.152005" xlink:href="#m8b3d9500bf" y="33.072875"/>
    </g>
   </g>
   <g id="line2d_28">
    <path clip-path="url(#p472d7bc709)" d="M 190.317981 70.098956 
" style="fill:none;stroke:#1f77b4;stroke-linecap:round;stroke-width:1.2;"/>
   </g>
   <g id="line2d_29">
    <path clip-path="url(#p472d7bc709)" d="M 119.53335 123.324393 
" style="fill:none;stroke:#d62728;stroke-linecap:round;stroke-width:1.2;"/>
   </g>
   <g id="line2d_30">
    <path clip-path="url(#p472d7bc709)" d="M 58.138515 147.746795 
" style="fill:none;stroke:#b8860b;stroke-linecap:round;stroke-width:1.2;"/>
   </g>
   <g id="line2d_31">
    <path clip-path="url(#p472d7bc709)" d="M 134.152005 51.199818 
" style="fill:none;stroke:#f08080;stroke-linecap:round;stroke-width:1.2;"/>
   </g>
   <g id="patch_3">
    <path d="M 38.29625 172.884 
L 38.29625 7.2 
" style="fill:none;stroke:#262626;stroke-linecap:square;stroke-linejoin:miter;"/>
   </g>
   <g id="patch_4">
    <path d="M 38.29625 172.884 
L 210.268293 172.884 
" style="fill:none;stroke:#262626;stroke-linecap:square;stroke-linejoin:miter;"/>
   </g>
  </g>
  <g id="legend_1">
   <g id="text_14">
    <!-- module -->
    <g style="fill:#262626;" transform="translate(178.428625 88.530375)scale(0.096 -0.096)">
     <defs>
      <path d="M 6.59375 0 
L 6.59375 51.859375 
L 14.453125 51.859375 
L 14.453125 44.578125 
Q 16.890625 48.390625 20.9375 50.703125 
Q 25 53.03125 30.171875 53.03125 
Q 35.9375 53.03125 39.625 50.640625 
Q 43.3125 48.25 44.828125 43.953125 
Q 50.984375 53.03125 60.84375 53.03125 
Q 68.5625 53.03125 72.703125 48.75 
Q 76.859375 44.484375 76.859375 35.59375 
L 76.859375 0 
L 68.109375 0 
L 68.109375 32.671875 
Q 68.109375 37.9375 67.25 40.25 
Q 66.40625 42.578125 64.15625 43.984375 
Q 61.921875 45.40625 58.890625 45.40625 
Q 53.421875 45.40625 49.796875 41.765625 
Q 46.1875 38.140625 46.1875 30.125 
L 46.1875 0 
L 37.40625 0 
L 37.40625 33.6875 
Q 37.40625 39.546875 35.25 42.46875 
Q 33.109375 45.40625 28.21875 45.40625 
Q 24.515625 45.40625 21.359375 43.453125 
Q 18.21875 41.5 16.796875 37.734375 
Q 15.375 33.984375 15.375 26.90625 
L 15.375 0 
z
" id="ArialMT-109"/>
      <path d="M 3.328125 25.921875 
Q 3.328125 40.328125 11.328125 47.265625 
Q 18.015625 53.03125 27.640625 53.03125 
Q 38.328125 53.03125 45.109375 46.015625 
Q 51.90625 39.015625 51.90625 26.65625 
Q 51.90625 16.65625 48.90625 10.90625 
Q 45.90625 5.171875 40.15625 2 
Q 34.421875 -1.171875 27.640625 -1.171875 
Q 16.75 -1.171875 10.03125 5.8125 
Q 3.328125 12.796875 3.328125 25.921875 
z
M 12.359375 25.921875 
Q 12.359375 15.96875 16.703125 11.015625 
Q 21.046875 6.0625 27.640625 6.0625 
Q 34.1875 6.0625 38.53125 11.03125 
Q 42.875 16.015625 42.875 26.21875 
Q 42.875 35.84375 38.5 40.796875 
Q 34.125 45.75 27.640625 45.75 
Q 21.046875 45.75 16.703125 40.8125 
Q 12.359375 35.890625 12.359375 25.921875 
z
" id="ArialMT-111"/>
      <path d="M 40.234375 0 
L 40.234375 6.546875 
Q 35.296875 -1.171875 25.734375 -1.171875 
Q 19.53125 -1.171875 14.328125 2.25 
Q 9.125 5.671875 6.265625 11.796875 
Q 3.421875 17.921875 3.421875 25.875 
Q 3.421875 33.640625 6 39.96875 
Q 8.59375 46.296875 13.765625 49.65625 
Q 18.953125 53.03125 25.34375 53.03125 
Q 30.03125 53.03125 33.6875 51.046875 
Q 37.359375 49.078125 39.65625 45.90625 
L 39.65625 71.578125 
L 48.390625 71.578125 
L 48.390625 0 
z
M 12.453125 25.875 
Q 12.453125 15.921875 16.640625 10.984375 
Q 20.84375 6.0625 26.5625 6.0625 
Q 32.328125 6.0625 36.34375 10.765625 
Q 40.375 15.484375 40.375 25.140625 
Q 40.375 35.796875 36.265625 40.765625 
Q 32.171875 45.75 26.171875 45.75 
Q 20.3125 45.75 16.375 40.96875 
Q 12.453125 36.1875 12.453125 25.875 
z
" id="ArialMT-100"/>
      <path d="M 40.578125 0 
L 40.578125 7.625 
Q 34.515625 -1.171875 24.125 -1.171875 
Q 19.53125 -1.171875 15.546875 0.578125 
Q 11.578125 2.34375 9.640625 5 
Q 7.71875 7.671875 6.9375 11.53125 
Q 6.390625 14.109375 6.390625 19.734375 
L 6.390625 51.859375 
L 15.1875 51.859375 
L 15.1875 23.09375 
Q 15.1875 16.21875 15.71875 13.8125 
Q 16.546875 10.359375 19.234375 8.375 
Q 21.921875 6.390625 25.875 6.390625 
Q 29.828125 6.390625 33.296875 8.421875 
Q 36.765625 10.453125 38.203125 13.9375 
Q 39.65625 17.4375 39.65625 24.078125 
L 39.65625 51.859375 
L 48.4375 51.859375 
L 48.4375 0 
z
" id="ArialMT-117"/>
      <path d="M 6.390625 0 
L 6.390625 71.578125 
L 15.1875 71.578125 
L 15.1875 0 
z
" id="ArialMT-108"/>
      <path d="M 42.09375 16.703125 
L 51.171875 15.578125 
Q 49.03125 7.625 43.21875 3.21875 
Q 37.40625 -1.171875 28.375 -1.171875 
Q 17 -1.171875 10.328125 5.828125 
Q 3.65625 12.84375 3.65625 25.484375 
Q 3.65625 38.578125 10.390625 45.796875 
Q 17.140625 53.03125 27.875 53.03125 
Q 38.28125 53.03125 44.875 45.953125 
Q 51.46875 38.875 51.46875 26.03125 
Q 51.46875 25.25 51.421875 23.6875 
L 12.75 23.6875 
Q 13.234375 15.140625 17.578125 10.59375 
Q 21.921875 6.0625 28.421875 6.0625 
Q 33.25 6.0625 36.671875 8.59375 
Q 40.09375 11.140625 42.09375 16.703125 
z
M 13.234375 30.90625 
L 42.1875 30.90625 
Q 41.609375 37.453125 38.875 40.71875 
Q 34.671875 45.796875 27.984375 45.796875 
Q 21.921875 45.796875 17.796875 41.75 
Q 13.671875 37.703125 13.234375 30.90625 
z
" id="ArialMT-101"/>
     </defs>
     <use xlink:href="#ArialMT-109"/>
     <use x="83.300781" xlink:href="#ArialMT-111"/>
     <use x="138.916016" xlink:href="#ArialMT-100"/>
     <use x="194.53125" xlink:href="#ArialMT-117"/>
     <use x="250.146484" xlink:href="#ArialMT-108"/>
     <use x="272.363281" xlink:href="#ArialMT-101"/>
    </g>
   </g>
   <g id="LineCollection_9">
    <path d="M 176.2225 98.05725 
L 185.0225 98.05725 
" style="fill:none;stroke:#1f77b4;stroke-width:1.5;"/>
   </g>
   <g id="LineCollection_10">
    <path d="M 180.6225 102.45725 
L 180.6225 93.65725 
" style="fill:none;stroke:#1f77b4;stroke-width:1.5;"/>
   </g>
   <g id="line2d_32">
    <g>
     <use style="fill:#1f77b4;stroke:#1f77b4;" x="176.2225" xlink:href="#m1592bd2ed4" y="98.05725"/>
    </g>
   </g>
   <g id="line2d_33">
    <g>
     <use style="fill:#1f77b4;stroke:#1f77b4;" x="185.0225" xlink:href="#m1592bd2ed4" y="98.05725"/>
    </g>
   </g>
   <g id="line2d_34">
    <g>
     <use style="fill:#1f77b4;stroke:#1f77b4;" x="180.6225" xlink:href="#m0570398cd7" y="102.45725"/>
    </g>
   </g>
   <g id="line2d_35">
    <g>
     <use style="fill:#1f77b4;stroke:#1f77b4;" x="180.6225" xlink:href="#m0570398cd7" y="93.65725"/>
    </g>
   </g>
   <g id="line2d_36">
    <path d="M 171.8225 98.05725 
L 189.4225 98.05725 
" style="fill:none;stroke:#1f77b4;stroke-linecap:round;stroke-width:1.2;"/>
   </g>
   <g id="line2d_37"/>
   <g id="text_15">
    <!-- Th1 -->
    <g style="fill:#262626;" transform="translate(196.4625 101.13725)scale(0.088 -0.088)">
     <defs>
      <path d="M 25.921875 0 
L 25.921875 63.140625 
L 2.34375 63.140625 
L 2.34375 71.578125 
L 59.078125 71.578125 
L 59.078125 63.140625 
L 35.40625 63.140625 
L 35.40625 0 
z
" id="ArialMT-84"/>
     </defs>
     <use xlink:href="#ArialMT-84"/>
     <use x="61.083984" xlink:href="#ArialMT-104"/>
     <use x="116.699219" xlink:href="#ArialMT-49"/>
    </g>
   </g>
   <g id="LineCollection_11">
    <path d="M 176.2225 110.505125 
L 185.0225 110.505125 
" style="fill:none;stroke:#d62728;stroke-width:1.5;"/>
   </g>
   <g id="LineCollection_12">
    <path d="M 180.6225 114.905125 
L 180.6225 106.105125 
" style="fill:none;stroke:#d62728;stroke-width:1.5;"/>
   </g>
   <g id="line2d_38">
    <g>
     <use style="fill:#d62728;stroke:#d62728;" x="176.2225" xlink:href="#mf0896002b5" y="110.505125"/>
    </g>
   </g>
   <g id="line2d_39">
    <g>
     <use style="fill:#d62728;stroke:#d62728;" x="185.0225" xlink:href="#mf0896002b5" y="110.505125"/>
    </g>
   </g>
   <g id="line2d_40">
    <g>
     <use style="fill:#d62728;stroke:#d62728;" x="180.6225" xlink:href="#m9d481986c4" y="114.905125"/>
    </g>
   </g>
   <g id="line2d_41">
    <g>
     <use style="fill:#d62728;stroke:#d62728;" x="180.6225" xlink:href="#m9d481986c4" y="106.105125"/>
    </g>
   </g>
   <g id="line2d_42">
    <path d="M 171.8225 110.505125 
L 189.4225 110.505125 
" style="fill:none;stroke:#d62728;stroke-linecap:round;stroke-width:1.2;"/>
   </g>
   <g id="line2d_43"/>
   <g id="text_16">
    <!-- Th2 -->
    <g style="fill:#262626;" transform="translate(196.4625 113.585125)scale(0.088 -0.088)">
     <use xlink:href="#ArialMT-84"/>
     <use x="61.083984" xlink:href="#ArialMT-104"/>
     <use x="116.699219" xlink:href="#ArialMT-50"/>
    </g>
   </g>
   <g id="LineCollection_13">
    <path d="M 176.2225 122.953 
L 185.0225 122.953 
" style="fill:none;stroke:#b8860b;stroke-width:1.5;"/>
   </g>
   <g id="LineCollection_14">
    <path d="M 180.6225 127.353 
L 180.6225 118.553 
" style="fill:none;stroke:#b8860b;stroke-width:1.5;"/>
   </g>
   <g id="line2d_44">
    <g>
     <use style="fill:#b8860b;stroke:#b8860b;" x="176.2225" xlink:href="#m26e726542c" y="122.953"/>
    </g>
   </g>
   <g id="line2d_45">
    <g>
     <use style="fill:#b8860b;stroke:#b8860b;" x="185.0225" xlink:href="#m26e726542c" y="122.953"/>
    </g>
   </g>
   <g id="line2d_46">
    <g>
     <use style="fill:#b8860b;stroke:#b8860b;" x="180.6225" xlink:href="#m8041a29675" y="127.353"/>
    </g>
   </g>
   <g id="line2d_47">
    <g>
     <use style="fill:#b8860b;stroke:#b8860b;" x="180.6225" xlink:href="#m8041a29675" y="118.553"/>
    </g>
   </g>
   <g id="line2d_48">
    <path d="M 171.8225 122.953 
L 189.4225 122.953 
" style="fill:none;stroke:#b8860b;stroke-linecap:round;stroke-width:1.2;"/>
   </g>
   <g id="line2d_49"/>
   <g id="text_17">
    <!-- Th17 -->
    <g style="fill:#262626;" transform="translate(196.4625 126.033)scale(0.088 -0.088)">
     <defs>
      <path d="M 4.734375 62.203125 
L 4.734375 70.65625 
L 51.078125 70.65625 
L 51.078125 63.8125 
Q 44.234375 56.546875 37.515625 44.484375 
Q 30.8125 32.421875 27.15625 19.671875 
Q 24.515625 10.6875 23.78125 0 
L 14.75 0 
Q 14.890625 8.453125 18.0625 20.40625 
Q 21.234375 32.375 27.171875 43.484375 
Q 33.109375 54.59375 39.796875 62.203125 
z
" id="ArialMT-55"/>
     </defs>
     <use xlink:href="#ArialMT-84"/>
     <use x="61.083984" xlink:href="#ArialMT-104"/>
     <use x="116.699219" xlink:href="#ArialMT-49"/>
     <use x="172.314453" xlink:href="#ArialMT-55"/>
    </g>
   </g>
  </g>
 </g>
 <defs>
  <clipPath id="p472d7bc709">
   <rect height="165.684" width="171.972043" x="38.29625" y="7.2"/>
  </clipPath>
 </defs>
</svg>
