<?xml version="1.0" encoding="utf-8" standalone="no"?>
<!DOCTYPE svg PUBLIC "-//W3C//DTD SVG 1.1//EN"
  "http://www.w3.org/Graphics/SVG/1.1/DTD/svg11.dtd">
<!-- Created with matplotlib (https://matplotlib.org/) -->
<svg height="144pt" version="1.1" viewBox="0 0 172.8 144" width="172.8pt" xmlns="http://www.w3.org/2000/svg" xmlns:xlink="http://www.w3.org/1999/xlink">
 <metadata>
  <rdf:RDF xmlns:cc="http://creativecommons.org/ns#" xmlns:dc="http://purl.org/dc/elements/1.1/" xmlns:rdf="http://www.w3.org/1999/02/22-rdf-syntax-ns#">
   <cc:Work>
    <dc:type rdf:resource="http://purl.org/dc/dcmitype/StillImage"/>
    <dc:date>2022-08-04T17:10:17.065267</dc:date>
    <dc:format>image/svg+xml</dc:format>
    <dc:creator>
     <cc:Agent>
      <dc:title>Matplotlib v3.3.2, https://matplotlib.org/</dc:title>
     </cc:Agent>
    </dc:creator>
   </cc:Work>
  </rdf:RDF>
 </metadata>
 <defs>
  <style type="text/css">*{stroke-linecap:butt;stroke-linejoin:round;}</style>
 </defs>
 <g id="figure_1">
  <g id="patch_1">
   <path d="M 0 144 
L 172.8 144 
L 172.8 0 
L 0 0 
z
" style="fill:#ffffff;"/>
  </g>
  <g id="axes_1">
   <g id="patch_2">
    <path d="M 44.75 109.96 
L 162.552273 109.96 
L 162.552273 8.64 
L 44.75 8.64 
z
" style="fill:#ffffff;"/>
   </g>
   <g id="PathCollection_1">
    <defs>
     <path d="M 0 1.581139 
C 0.419323 1.581139 0.821528 1.41454 1.118034 1.118034 
C 1.41454 0.821528 1.581139 0.419323 1.581139 0 
C 1.581139 -0.419323 1.41454 -0.821528 1.118034 -1.118034 
C 0.821528 -1.41454 0.419323 -1.581139 0 -1.581139 
C -0.419323 -1.581139 -0.821528 -1.41454 -1.118034 -1.118034 
C -1.41454 -0.821528 -1.581139 -0.419323 -1.581139 0 
C -1.581139 0.419323 -1.41454 0.821528 -1.118034 1.118034 
C -0.821528 1.41454 -0.419323 1.581139 0 1.581139 
z
" id="m163b8c24f7" style="stroke:#d3d3d3;"/>
    </defs>
    <g clip-path="url(#pf1b9366a00)">
     <use style="fill:#d3d3d3;stroke:#d3d3d3;" x="50.104649" xlink:href="#m163b8c24f7" y="102.858711"/>
     <use style="fill:#d3d3d3;stroke:#d3d3d3;" x="52.781973" xlink:href="#m163b8c24f7" y="100.076757"/>
     <use style="fill:#d3d3d3;stroke:#d3d3d3;" x="55.459298" xlink:href="#m163b8c24f7" y="97.480267"/>
     <use style="fill:#d3d3d3;stroke:#d3d3d3;" x="60.813946" xlink:href="#m163b8c24f7" y="98.036658"/>
     <use style="fill:#d3d3d3;stroke:#d3d3d3;" x="71.523244" xlink:href="#m163b8c24f7" y="68.733408"/>
     <use style="fill:#d3d3d3;stroke:#d3d3d3;" x="82.232541" xlink:href="#m163b8c24f7" y="46.848703"/>
     <use style="fill:#d3d3d3;stroke:#d3d3d3;" x="92.941839" xlink:href="#m163b8c24f7" y="29.044197"/>
     <use style="fill:#d3d3d3;stroke:#d3d3d3;" x="114.360434" xlink:href="#m163b8c24f7" y="21.440189"/>
     <use style="fill:#d3d3d3;stroke:#d3d3d3;" x="135.779029" xlink:href="#m163b8c24f7" y="42.768504"/>
    </g>
   </g>
   <g id="matplotlib.axis_1">
    <g id="xtick_1">
     <g id="line2d_1">
      <defs>
       <path d="M 0 0 
L 0 3.5 
" id="mff4f4c2445" style="stroke:#000000;stroke-width:0.8;"/>
      </defs>
      <g>
       <use style="stroke:#000000;stroke-width:0.8;" x="50.104649" xlink:href="#mff4f4c2445" y="109.96"/>
      </g>
     </g>
     <g id="text_1">
      <!-- 0 -->
      <g transform="translate(47.559649 123.03875)scale(0.08 -0.08)">
       <defs>
        <path d="M 31.78125 66.40625 
Q 24.171875 66.40625 20.328125 58.90625 
Q 16.5 51.421875 16.5 36.375 
Q 16.5 21.390625 20.328125 13.890625 
Q 24.171875 6.390625 31.78125 6.390625 
Q 39.453125 6.390625 43.28125 13.890625 
Q 47.125 21.390625 47.125 36.375 
Q 47.125 51.421875 43.28125 58.90625 
Q 39.453125 66.40625 31.78125 66.40625 
z
M 31.78125 74.21875 
Q 44.046875 74.21875 50.515625 64.515625 
Q 56.984375 54.828125 56.984375 36.375 
Q 56.984375 17.96875 50.515625 8.265625 
Q 44.046875 -1.421875 31.78125 -1.421875 
Q 19.53125 -1.421875 13.0625 8.265625 
Q 6.59375 17.96875 6.59375 36.375 
Q 6.59375 54.828125 13.0625 64.515625 
Q 19.53125 74.21875 31.78125 74.21875 
z
" id="DejaVuSans-48"/>
       </defs>
       <use xlink:href="#DejaVuSans-48"/>
      </g>
     </g>
    </g>
    <g id="xtick_2">
     <g id="line2d_2">
      <g>
       <use style="stroke:#000000;stroke-width:0.8;" x="71.523244" xlink:href="#mff4f4c2445" y="109.96"/>
      </g>
     </g>
     <g id="text_2">
      <!-- 24 -->
      <g transform="translate(66.433244 123.03875)scale(0.08 -0.08)">
       <defs>
        <path d="M 19.1875 8.296875 
L 53.609375 8.296875 
L 53.609375 0 
L 7.328125 0 
L 7.328125 8.296875 
Q 12.9375 14.109375 22.625 23.890625 
Q 32.328125 33.6875 34.8125 36.53125 
Q 39.546875 41.84375 41.421875 45.53125 
Q 43.3125 49.21875 43.3125 52.78125 
Q 43.3125 58.59375 39.234375 62.25 
Q 35.15625 65.921875 28.609375 65.921875 
Q 23.96875 65.921875 18.8125 64.3125 
Q 13.671875 62.703125 7.8125 59.421875 
L 7.8125 69.390625 
Q 13.765625 71.78125 18.9375 73 
Q 24.125 74.21875 28.421875 74.21875 
Q 39.75 74.21875 46.484375 68.546875 
Q 53.21875 62.890625 53.21875 53.421875 
Q 53.21875 48.921875 51.53125 44.890625 
Q 49.859375 40.875 45.40625 35.40625 
Q 44.1875 33.984375 37.640625 27.21875 
Q 31.109375 20.453125 19.1875 8.296875 
z
" id="DejaVuSans-50"/>
        <path d="M 37.796875 64.3125 
L 12.890625 25.390625 
L 37.796875 25.390625 
z
M 35.203125 72.90625 
L 47.609375 72.90625 
L 47.609375 25.390625 
L 58.015625 25.390625 
L 58.015625 17.1875 
L 47.609375 17.1875 
L 47.609375 0 
L 37.796875 0 
L 37.796875 17.1875 
L 4.890625 17.1875 
L 4.890625 26.703125 
z
" id="DejaVuSans-52"/>
       </defs>
       <use xlink:href="#DejaVuSans-50"/>
       <use x="63.623047" xlink:href="#DejaVuSans-52"/>
      </g>
     </g>
    </g>
    <g id="xtick_3">
     <g id="line2d_3">
      <g>
       <use style="stroke:#000000;stroke-width:0.8;" x="92.941839" xlink:href="#mff4f4c2445" y="109.96"/>
      </g>
     </g>
     <g id="text_3">
      <!-- 48 -->
      <g transform="translate(87.851839 123.03875)scale(0.08 -0.08)">
       <defs>
        <path d="M 31.78125 34.625 
Q 24.75 34.625 20.71875 30.859375 
Q 16.703125 27.09375 16.703125 20.515625 
Q 16.703125 13.921875 20.71875 10.15625 
Q 24.75 6.390625 31.78125 6.390625 
Q 38.8125 6.390625 42.859375 10.171875 
Q 46.921875 13.96875 46.921875 20.515625 
Q 46.921875 27.09375 42.890625 30.859375 
Q 38.875 34.625 31.78125 34.625 
z
M 21.921875 38.8125 
Q 15.578125 40.375 12.03125 44.71875 
Q 8.5 49.078125 8.5 55.328125 
Q 8.5 64.0625 14.71875 69.140625 
Q 20.953125 74.21875 31.78125 74.21875 
Q 42.671875 74.21875 48.875 69.140625 
Q 55.078125 64.0625 55.078125 55.328125 
Q 55.078125 49.078125 51.53125 44.71875 
Q 48 40.375 41.703125 38.8125 
Q 48.828125 37.15625 52.796875 32.3125 
Q 56.78125 27.484375 56.78125 20.515625 
Q 56.78125 9.90625 50.3125 4.234375 
Q 43.84375 -1.421875 31.78125 -1.421875 
Q 19.734375 -1.421875 13.25 4.234375 
Q 6.78125 9.90625 6.78125 20.515625 
Q 6.78125 27.484375 10.78125 32.3125 
Q 14.796875 37.15625 21.921875 38.8125 
z
M 18.3125 54.390625 
Q 18.3125 48.734375 21.84375 45.5625 
Q 25.390625 42.390625 31.78125 42.390625 
Q 38.140625 42.390625 41.71875 45.5625 
Q 45.3125 48.734375 45.3125 54.390625 
Q 45.3125 60.0625 41.71875 63.234375 
Q 38.140625 66.40625 31.78125 66.40625 
Q 25.390625 66.40625 21.84375 63.234375 
Q 18.3125 60.0625 18.3125 54.390625 
z
" id="DejaVuSans-56"/>
       </defs>
       <use xlink:href="#DejaVuSans-52"/>
       <use x="63.623047" xlink:href="#DejaVuSans-56"/>
      </g>
     </g>
    </g>
    <g id="xtick_4">
     <g id="line2d_4">
      <g>
       <use style="stroke:#000000;stroke-width:0.8;" x="114.360434" xlink:href="#mff4f4c2445" y="109.96"/>
      </g>
     </g>
     <g id="text_4">
      <!-- 72 -->
      <g transform="translate(109.270434 123.03875)scale(0.08 -0.08)">
       <defs>
        <path d="M 8.203125 72.90625 
L 55.078125 72.90625 
L 55.078125 68.703125 
L 28.609375 0 
L 18.3125 0 
L 43.21875 64.59375 
L 8.203125 64.59375 
z
" id="DejaVuSans-55"/>
       </defs>
       <use xlink:href="#DejaVuSans-55"/>
       <use x="63.623047" xlink:href="#DejaVuSans-50"/>
      </g>
     </g>
    </g>
    <g id="xtick_5">
     <g id="line2d_5">
      <g>
       <use style="stroke:#000000;stroke-width:0.8;" x="135.779029" xlink:href="#mff4f4c2445" y="109.96"/>
      </g>
     </g>
     <g id="text_5">
      <!-- 96 -->
      <g transform="translate(130.689029 123.03875)scale(0.08 -0.08)">
       <defs>
        <path d="M 10.984375 1.515625 
L 10.984375 10.5 
Q 14.703125 8.734375 18.5 7.8125 
Q 22.3125 6.890625 25.984375 6.890625 
Q 35.75 6.890625 40.890625 13.453125 
Q 46.046875 20.015625 46.78125 33.40625 
Q 43.953125 29.203125 39.59375 26.953125 
Q 35.25 24.703125 29.984375 24.703125 
Q 19.046875 24.703125 12.671875 31.3125 
Q 6.296875 37.9375 6.296875 49.421875 
Q 6.296875 60.640625 12.9375 67.421875 
Q 19.578125 74.21875 30.609375 74.21875 
Q 43.265625 74.21875 49.921875 64.515625 
Q 56.59375 54.828125 56.59375 36.375 
Q 56.59375 19.140625 48.40625 8.859375 
Q 40.234375 -1.421875 26.421875 -1.421875 
Q 22.703125 -1.421875 18.890625 -0.6875 
Q 15.09375 0.046875 10.984375 1.515625 
z
M 30.609375 32.421875 
Q 37.25 32.421875 41.125 36.953125 
Q 45.015625 41.5 45.015625 49.421875 
Q 45.015625 57.28125 41.125 61.84375 
Q 37.25 66.40625 30.609375 66.40625 
Q 23.96875 66.40625 20.09375 61.84375 
Q 16.21875 57.28125 16.21875 49.421875 
Q 16.21875 41.5 20.09375 36.953125 
Q 23.96875 32.421875 30.609375 32.421875 
z
" id="DejaVuSans-57"/>
        <path d="M 33.015625 40.375 
Q 26.375 40.375 22.484375 35.828125 
Q 18.609375 31.296875 18.609375 23.390625 
Q 18.609375 15.53125 22.484375 10.953125 
Q 26.375 6.390625 33.015625 6.390625 
Q 39.65625 6.390625 43.53125 10.953125 
Q 47.40625 15.53125 47.40625 23.390625 
Q 47.40625 31.296875 43.53125 35.828125 
Q 39.65625 40.375 33.015625 40.375 
z
M 52.59375 71.296875 
L 52.59375 62.3125 
Q 48.875 64.0625 45.09375 64.984375 
Q 41.3125 65.921875 37.59375 65.921875 
Q 27.828125 65.921875 22.671875 59.328125 
Q 17.53125 52.734375 16.796875 39.40625 
Q 19.671875 43.65625 24.015625 45.921875 
Q 28.375 48.1875 33.59375 48.1875 
Q 44.578125 48.1875 50.953125 41.515625 
Q 57.328125 34.859375 57.328125 23.390625 
Q 57.328125 12.15625 50.6875 5.359375 
Q 44.046875 -1.421875 33.015625 -1.421875 
Q 20.359375 -1.421875 13.671875 8.265625 
Q 6.984375 17.96875 6.984375 36.375 
Q 6.984375 53.65625 15.1875 63.9375 
Q 23.390625 74.21875 37.203125 74.21875 
Q 40.921875 74.21875 44.703125 73.484375 
Q 48.484375 72.75 52.59375 71.296875 
z
" id="DejaVuSans-54"/>
       </defs>
       <use xlink:href="#DejaVuSans-57"/>
       <use x="63.623047" xlink:href="#DejaVuSans-54"/>
      </g>
     </g>
    </g>
    <g id="xtick_6">
     <g id="line2d_6">
      <g>
       <use style="stroke:#000000;stroke-width:0.8;" x="157.197624" xlink:href="#mff4f4c2445" y="109.96"/>
      </g>
     </g>
     <g id="text_6">
      <!-- 120 -->
      <g transform="translate(149.562624 123.03875)scale(0.08 -0.08)">
       <defs>
        <path d="M 12.40625 8.296875 
L 28.515625 8.296875 
L 28.515625 63.921875 
L 10.984375 60.40625 
L 10.984375 69.390625 
L 28.421875 72.90625 
L 38.28125 72.90625 
L 38.28125 8.296875 
L 54.390625 8.296875 
L 54.390625 0 
L 12.40625 0 
z
" id="DejaVuSans-49"/>
       </defs>
       <use xlink:href="#DejaVuSans-49"/>
       <use x="63.623047" xlink:href="#DejaVuSans-50"/>
       <use x="127.246094" xlink:href="#DejaVuSans-48"/>
      </g>
     </g>
    </g>
    <g id="text_7">
     <!-- time (h) -->
     <g transform="translate(87.686761 134.78125)scale(0.08 -0.08)">
      <defs>
       <path d="M 18.3125 70.21875 
L 18.3125 54.6875 
L 36.8125 54.6875 
L 36.8125 47.703125 
L 18.3125 47.703125 
L 18.3125 18.015625 
Q 18.3125 11.328125 20.140625 9.421875 
Q 21.96875 7.515625 27.59375 7.515625 
L 36.8125 7.515625 
L 36.8125 0 
L 27.59375 0 
Q 17.1875 0 13.234375 3.875 
Q 9.28125 7.765625 9.28125 18.015625 
L 9.28125 47.703125 
L 2.6875 47.703125 
L 2.6875 54.6875 
L 9.28125 54.6875 
L 9.28125 70.21875 
z
" id="DejaVuSans-116"/>
       <path d="M 9.421875 54.6875 
L 18.40625 54.6875 
L 18.40625 0 
L 9.421875 0 
z
M 9.421875 75.984375 
L 18.40625 75.984375 
L 18.40625 64.59375 
L 9.421875 64.59375 
z
" id="DejaVuSans-105"/>
       <path d="M 52 44.1875 
Q 55.375 50.25 60.0625 53.125 
Q 64.75 56 71.09375 56 
Q 79.640625 56 84.28125 50.015625 
Q 88.921875 44.046875 88.921875 33.015625 
L 88.921875 0 
L 79.890625 0 
L 79.890625 32.71875 
Q 79.890625 40.578125 77.09375 44.375 
Q 74.3125 48.1875 68.609375 48.1875 
Q 61.625 48.1875 57.5625 43.546875 
Q 53.515625 38.921875 53.515625 30.90625 
L 53.515625 0 
L 44.484375 0 
L 44.484375 32.71875 
Q 44.484375 40.625 41.703125 44.40625 
Q 38.921875 48.1875 33.109375 48.1875 
Q 26.21875 48.1875 22.15625 43.53125 
Q 18.109375 38.875 18.109375 30.90625 
L 18.109375 0 
L 9.078125 0 
L 9.078125 54.6875 
L 18.109375 54.6875 
L 18.109375 46.1875 
Q 21.1875 51.21875 25.484375 53.609375 
Q 29.78125 56 35.6875 56 
Q 41.65625 56 45.828125 52.96875 
Q 50 49.953125 52 44.1875 
z
" id="DejaVuSans-109"/>
       <path d="M 56.203125 29.59375 
L 56.203125 25.203125 
L 14.890625 25.203125 
Q 15.484375 15.921875 20.484375 11.0625 
Q 25.484375 6.203125 34.421875 6.203125 
Q 39.59375 6.203125 44.453125 7.46875 
Q 49.3125 8.734375 54.109375 11.28125 
L 54.109375 2.78125 
Q 49.265625 0.734375 44.1875 -0.34375 
Q 39.109375 -1.421875 33.890625 -1.421875 
Q 20.796875 -1.421875 13.15625 6.1875 
Q 5.515625 13.8125 5.515625 26.8125 
Q 5.515625 40.234375 12.765625 48.109375 
Q 20.015625 56 32.328125 56 
Q 43.359375 56 49.78125 48.890625 
Q 56.203125 41.796875 56.203125 29.59375 
z
M 47.21875 32.234375 
Q 47.125 39.59375 43.09375 43.984375 
Q 39.0625 48.390625 32.421875 48.390625 
Q 24.90625 48.390625 20.390625 44.140625 
Q 15.875 39.890625 15.1875 32.171875 
z
" id="DejaVuSans-101"/>
       <path id="DejaVuSans-32"/>
       <path d="M 31 75.875 
Q 24.46875 64.65625 21.28125 53.65625 
Q 18.109375 42.671875 18.109375 31.390625 
Q 18.109375 20.125 21.3125 9.0625 
Q 24.515625 -2 31 -13.1875 
L 23.1875 -13.1875 
Q 15.875 -1.703125 12.234375 9.375 
Q 8.59375 20.453125 8.59375 31.390625 
Q 8.59375 42.28125 12.203125 53.3125 
Q 15.828125 64.359375 23.1875 75.875 
z
" id="DejaVuSans-40"/>
       <path d="M 54.890625 33.015625 
L 54.890625 0 
L 45.90625 0 
L 45.90625 32.71875 
Q 45.90625 40.484375 42.875 44.328125 
Q 39.84375 48.1875 33.796875 48.1875 
Q 26.515625 48.1875 22.3125 43.546875 
Q 18.109375 38.921875 18.109375 30.90625 
L 18.109375 0 
L 9.078125 0 
L 9.078125 75.984375 
L 18.109375 75.984375 
L 18.109375 46.1875 
Q 21.34375 51.125 25.703125 53.5625 
Q 30.078125 56 35.796875 56 
Q 45.21875 56 50.046875 50.171875 
Q 54.890625 44.34375 54.890625 33.015625 
z
" id="DejaVuSans-104"/>
       <path d="M 8.015625 75.875 
L 15.828125 75.875 
Q 23.140625 64.359375 26.78125 53.3125 
Q 30.421875 42.28125 30.421875 31.390625 
Q 30.421875 20.453125 26.78125 9.375 
Q 23.140625 -1.703125 15.828125 -13.1875 
L 8.015625 -13.1875 
Q 14.5 -2 17.703125 9.0625 
Q 20.90625 20.125 20.90625 31.390625 
Q 20.90625 42.671875 17.703125 53.65625 
Q 14.5 64.65625 8.015625 75.875 
z
" id="DejaVuSans-41"/>
      </defs>
      <use xlink:href="#DejaVuSans-116"/>
      <use x="39.208984" xlink:href="#DejaVuSans-105"/>
      <use x="66.992188" xlink:href="#DejaVuSans-109"/>
      <use x="164.404297" xlink:href="#DejaVuSans-101"/>
      <use x="225.927734" xlink:href="#DejaVuSans-32"/>
      <use x="257.714844" xlink:href="#DejaVuSans-40"/>
      <use x="296.728516" xlink:href="#DejaVuSans-104"/>
      <use x="360.107422" xlink:href="#DejaVuSans-41"/>
     </g>
    </g>
   </g>
   <g id="matplotlib.axis_2">
    <g id="ytick_1">
     <g id="line2d_7">
      <defs>
       <path d="M 0 0 
L -3.5 0 
" id="md408b8129c" style="stroke:#000000;stroke-width:0.8;"/>
      </defs>
      <g>
       <use style="stroke:#000000;stroke-width:0.8;" x="44.75" xlink:href="#md408b8129c" y="102.858711"/>
      </g>
     </g>
     <g id="text_8">
      <!-- 0.00 -->
      <g transform="translate(19.9375 105.898086)scale(0.08 -0.08)">
       <defs>
        <path d="M 10.6875 12.40625 
L 21 12.40625 
L 21 0 
L 10.6875 0 
z
" id="DejaVuSans-46"/>
       </defs>
       <use xlink:href="#DejaVuSans-48"/>
       <use x="63.623047" xlink:href="#DejaVuSans-46"/>
       <use x="95.410156" xlink:href="#DejaVuSans-48"/>
       <use x="159.033203" xlink:href="#DejaVuSans-48"/>
      </g>
     </g>
    </g>
    <g id="ytick_2">
     <g id="line2d_8">
      <g>
       <use style="stroke:#000000;stroke-width:0.8;" x="44.75" xlink:href="#md408b8129c" y="82.504081"/>
      </g>
     </g>
     <g id="text_9">
      <!-- 0.25 -->
      <g transform="translate(19.9375 85.543456)scale(0.08 -0.08)">
       <defs>
        <path d="M 10.796875 72.90625 
L 49.515625 72.90625 
L 49.515625 64.59375 
L 19.828125 64.59375 
L 19.828125 46.734375 
Q 21.96875 47.46875 24.109375 47.828125 
Q 26.265625 48.1875 28.421875 48.1875 
Q 40.625 48.1875 47.75 41.5 
Q 54.890625 34.8125 54.890625 23.390625 
Q 54.890625 11.625 47.5625 5.09375 
Q 40.234375 -1.421875 26.90625 -1.421875 
Q 22.3125 -1.421875 17.546875 -0.640625 
Q 12.796875 0.140625 7.71875 1.703125 
L 7.71875 11.625 
Q 12.109375 9.234375 16.796875 8.0625 
Q 21.484375 6.890625 26.703125 6.890625 
Q 35.15625 6.890625 40.078125 11.328125 
Q 45.015625 15.765625 45.015625 23.390625 
Q 45.015625 31 40.078125 35.4375 
Q 35.15625 39.890625 26.703125 39.890625 
Q 22.75 39.890625 18.8125 39.015625 
Q 14.890625 38.140625 10.796875 36.28125 
z
" id="DejaVuSans-53"/>
       </defs>
       <use xlink:href="#DejaVuSans-48"/>
       <use x="63.623047" xlink:href="#DejaVuSans-46"/>
       <use x="95.410156" xlink:href="#DejaVuSans-50"/>
       <use x="159.033203" xlink:href="#DejaVuSans-53"/>
      </g>
     </g>
    </g>
    <g id="ytick_3">
     <g id="line2d_9">
      <g>
       <use style="stroke:#000000;stroke-width:0.8;" x="44.75" xlink:href="#md408b8129c" y="62.14945"/>
      </g>
     </g>
     <g id="text_10">
      <!-- 0.50 -->
      <g transform="translate(19.9375 65.188825)scale(0.08 -0.08)">
       <use xlink:href="#DejaVuSans-48"/>
       <use x="63.623047" xlink:href="#DejaVuSans-46"/>
       <use x="95.410156" xlink:href="#DejaVuSans-53"/>
       <use x="159.033203" xlink:href="#DejaVuSans-48"/>
      </g>
     </g>
    </g>
    <g id="ytick_4">
     <g id="line2d_10">
      <g>
       <use style="stroke:#000000;stroke-width:0.8;" x="44.75" xlink:href="#md408b8129c" y="41.79482"/>
      </g>
     </g>
     <g id="text_11">
      <!-- 0.75 -->
      <g transform="translate(19.9375 44.834195)scale(0.08 -0.08)">
       <use xlink:href="#DejaVuSans-48"/>
       <use x="63.623047" xlink:href="#DejaVuSans-46"/>
       <use x="95.410156" xlink:href="#DejaVuSans-55"/>
       <use x="159.033203" xlink:href="#DejaVuSans-53"/>
      </g>
     </g>
    </g>
    <g id="ytick_5">
     <g id="line2d_11">
      <g>
       <use style="stroke:#000000;stroke-width:0.8;" x="44.75" xlink:href="#md408b8129c" y="21.440189"/>
      </g>
     </g>
     <g id="text_12">
      <!-- 1.00 -->
      <g transform="translate(19.9375 24.479564)scale(0.08 -0.08)">
       <use xlink:href="#DejaVuSans-49"/>
       <use x="63.623047" xlink:href="#DejaVuSans-46"/>
       <use x="95.410156" xlink:href="#DejaVuSans-48"/>
       <use x="159.033203" xlink:href="#DejaVuSans-48"/>
      </g>
     </g>
    </g>
    <g id="text_13">
     <!-- % of maximum -->
     <g transform="translate(14.27375 89.6525)rotate(-90)scale(0.08 -0.08)">
      <defs>
       <path d="M 72.703125 32.078125 
Q 68.453125 32.078125 66.03125 28.46875 
Q 63.625 24.859375 63.625 18.40625 
Q 63.625 12.0625 66.03125 8.421875 
Q 68.453125 4.78125 72.703125 4.78125 
Q 76.859375 4.78125 79.265625 8.421875 
Q 81.6875 12.0625 81.6875 18.40625 
Q 81.6875 24.8125 79.265625 28.4375 
Q 76.859375 32.078125 72.703125 32.078125 
z
M 72.703125 38.28125 
Q 80.421875 38.28125 84.953125 32.90625 
Q 89.5 27.546875 89.5 18.40625 
Q 89.5 9.28125 84.9375 3.921875 
Q 80.375 -1.421875 72.703125 -1.421875 
Q 64.890625 -1.421875 60.34375 3.921875 
Q 55.8125 9.28125 55.8125 18.40625 
Q 55.8125 27.59375 60.375 32.9375 
Q 64.9375 38.28125 72.703125 38.28125 
z
M 22.3125 68.015625 
Q 18.109375 68.015625 15.6875 64.375 
Q 13.28125 60.75 13.28125 54.390625 
Q 13.28125 47.953125 15.671875 44.328125 
Q 18.0625 40.71875 22.3125 40.71875 
Q 26.5625 40.71875 28.96875 44.328125 
Q 31.390625 47.953125 31.390625 54.390625 
Q 31.390625 60.6875 28.953125 64.34375 
Q 26.515625 68.015625 22.3125 68.015625 
z
M 66.40625 74.21875 
L 74.21875 74.21875 
L 28.609375 -1.421875 
L 20.796875 -1.421875 
z
M 22.3125 74.21875 
Q 30.03125 74.21875 34.609375 68.875 
Q 39.203125 63.53125 39.203125 54.390625 
Q 39.203125 45.171875 34.640625 39.84375 
Q 30.078125 34.515625 22.3125 34.515625 
Q 14.546875 34.515625 10.03125 39.859375 
Q 5.515625 45.21875 5.515625 54.390625 
Q 5.515625 63.484375 10.046875 68.84375 
Q 14.59375 74.21875 22.3125 74.21875 
z
" id="DejaVuSans-37"/>
       <path d="M 30.609375 48.390625 
Q 23.390625 48.390625 19.1875 42.75 
Q 14.984375 37.109375 14.984375 27.296875 
Q 14.984375 17.484375 19.15625 11.84375 
Q 23.34375 6.203125 30.609375 6.203125 
Q 37.796875 6.203125 41.984375 11.859375 
Q 46.1875 17.53125 46.1875 27.296875 
Q 46.1875 37.015625 41.984375 42.703125 
Q 37.796875 48.390625 30.609375 48.390625 
z
M 30.609375 56 
Q 42.328125 56 49.015625 48.375 
Q 55.71875 40.765625 55.71875 27.296875 
Q 55.71875 13.875 49.015625 6.21875 
Q 42.328125 -1.421875 30.609375 -1.421875 
Q 18.84375 -1.421875 12.171875 6.21875 
Q 5.515625 13.875 5.515625 27.296875 
Q 5.515625 40.765625 12.171875 48.375 
Q 18.84375 56 30.609375 56 
z
" id="DejaVuSans-111"/>
       <path d="M 37.109375 75.984375 
L 37.109375 68.5 
L 28.515625 68.5 
Q 23.6875 68.5 21.796875 66.546875 
Q 19.921875 64.59375 19.921875 59.515625 
L 19.921875 54.6875 
L 34.71875 54.6875 
L 34.71875 47.703125 
L 19.921875 47.703125 
L 19.921875 0 
L 10.890625 0 
L 10.890625 47.703125 
L 2.296875 47.703125 
L 2.296875 54.6875 
L 10.890625 54.6875 
L 10.890625 58.5 
Q 10.890625 67.625 15.140625 71.796875 
Q 19.390625 75.984375 28.609375 75.984375 
z
" id="DejaVuSans-102"/>
       <path d="M 34.28125 27.484375 
Q 23.390625 27.484375 19.1875 25 
Q 14.984375 22.515625 14.984375 16.5 
Q 14.984375 11.71875 18.140625 8.90625 
Q 21.296875 6.109375 26.703125 6.109375 
Q 34.1875 6.109375 38.703125 11.40625 
Q 43.21875 16.703125 43.21875 25.484375 
L 43.21875 27.484375 
z
M 52.203125 31.203125 
L 52.203125 0 
L 43.21875 0 
L 43.21875 8.296875 
Q 40.140625 3.328125 35.546875 0.953125 
Q 30.953125 -1.421875 24.3125 -1.421875 
Q 15.921875 -1.421875 10.953125 3.296875 
Q 6 8.015625 6 15.921875 
Q 6 25.140625 12.171875 29.828125 
Q 18.359375 34.515625 30.609375 34.515625 
L 43.21875 34.515625 
L 43.21875 35.40625 
Q 43.21875 41.609375 39.140625 45 
Q 35.0625 48.390625 27.6875 48.390625 
Q 23 48.390625 18.546875 47.265625 
Q 14.109375 46.140625 10.015625 43.890625 
L 10.015625 52.203125 
Q 14.9375 54.109375 19.578125 55.046875 
Q 24.21875 56 28.609375 56 
Q 40.484375 56 46.34375 49.84375 
Q 52.203125 43.703125 52.203125 31.203125 
z
" id="DejaVuSans-97"/>
       <path d="M 54.890625 54.6875 
L 35.109375 28.078125 
L 55.90625 0 
L 45.3125 0 
L 29.390625 21.484375 
L 13.484375 0 
L 2.875 0 
L 24.125 28.609375 
L 4.6875 54.6875 
L 15.28125 54.6875 
L 29.78125 35.203125 
L 44.28125 54.6875 
z
" id="DejaVuSans-120"/>
       <path d="M 8.5 21.578125 
L 8.5 54.6875 
L 17.484375 54.6875 
L 17.484375 21.921875 
Q 17.484375 14.15625 20.5 10.265625 
Q 23.53125 6.390625 29.59375 6.390625 
Q 36.859375 6.390625 41.078125 11.03125 
Q 45.3125 15.671875 45.3125 23.6875 
L 45.3125 54.6875 
L 54.296875 54.6875 
L 54.296875 0 
L 45.3125 0 
L 45.3125 8.40625 
Q 42.046875 3.421875 37.71875 1 
Q 33.40625 -1.421875 27.6875 -1.421875 
Q 18.265625 -1.421875 13.375 4.4375 
Q 8.5 10.296875 8.5 21.578125 
z
M 31.109375 56 
z
" id="DejaVuSans-117"/>
      </defs>
      <use xlink:href="#DejaVuSans-37"/>
      <use x="95.019531" xlink:href="#DejaVuSans-32"/>
      <use x="126.806641" xlink:href="#DejaVuSans-111"/>
      <use x="187.988281" xlink:href="#DejaVuSans-102"/>
      <use x="223.193359" xlink:href="#DejaVuSans-32"/>
      <use x="254.980469" xlink:href="#DejaVuSans-109"/>
      <use x="352.392578" xlink:href="#DejaVuSans-97"/>
      <use x="413.671875" xlink:href="#DejaVuSans-120"/>
      <use x="472.851562" xlink:href="#DejaVuSans-105"/>
      <use x="500.634766" xlink:href="#DejaVuSans-109"/>
      <use x="598.046875" xlink:href="#DejaVuSans-117"/>
      <use x="661.425781" xlink:href="#DejaVuSans-109"/>
     </g>
    </g>
   </g>
   <g id="LineCollection_1">
    <path clip-path="url(#pf1b9366a00)" d="M 50.104649 102.858711 
L 50.104649 102.858711 
" style="fill:none;stroke:#1f77b4;stroke-width:1.5;"/>
    <path clip-path="url(#pf1b9366a00)" d="M 52.781973 105.354545 
L 52.781973 95.641421 
" style="fill:none;stroke:#1f77b4;stroke-width:1.5;"/>
    <path clip-path="url(#pf1b9366a00)" d="M 55.459298 105.262314 
L 55.459298 93.870361 
" style="fill:none;stroke:#1f77b4;stroke-width:1.5;"/>
    <path clip-path="url(#pf1b9366a00)" d="M 60.813946 104.9454 
L 60.813946 92.731568 
" style="fill:none;stroke:#1f77b4;stroke-width:1.5;"/>
    <path clip-path="url(#pf1b9366a00)" d="M 71.523244 84.273548 
L 71.523244 68.987286 
" style="fill:none;stroke:#1f77b4;stroke-width:1.5;"/>
    <path clip-path="url(#pf1b9366a00)" d="M 81.3401 73.663215 
L 81.3401 56.516502 
" style="fill:none;stroke:#1f77b4;stroke-width:1.5;"/>
    <path clip-path="url(#pf1b9366a00)" d="M 92.941839 57.819184 
L 92.941839 39.507083 
" style="fill:none;stroke:#1f77b4;stroke-width:1.5;"/>
    <path clip-path="url(#pf1b9366a00)" d="M 115.252875 32.439527 
L 115.252875 15.257942 
" style="fill:none;stroke:#1f77b4;stroke-width:1.5;"/>
    <path clip-path="url(#pf1b9366a00)" d="M 135.779029 29.634924 
L 135.779029 13.245455 
" style="fill:none;stroke:#1f77b4;stroke-width:1.5;"/>
   </g>
   <g id="line2d_12">
    <path clip-path="url(#pf1b9366a00)" d="M 50.104649 102.858711 
L 51.186396 102.848154 
L 52.268143 102.781283 
L 53.34989 102.617136 
L 54.431638 102.327438 
L 55.513385 101.893941 
L 56.595132 101.306378 
L 57.676879 100.560801 
L 58.758627 99.658216 
L 59.840374 98.603447 
L 60.922121 97.404198 
L 62.003868 96.07028 
L 63.085615 94.612972 
L 64.167363 93.044501 
L 65.24911 91.377622 
L 66.330857 89.625271 
L 67.412604 87.800305 
L 68.494352 85.915282 
L 69.576099 83.982305 
L 70.657846 82.012898 
L 71.739593 80.017922 
L 72.82134 78.007513 
L 73.903088 75.991049 
L 74.984835 73.977133 
L 76.066582 71.973592 
L 77.148329 69.987484 
L 78.230077 68.025122 
L 79.311824 66.0921 
L 80.393571 64.193323 
L 81.475318 62.333047 
L 82.557065 60.514914 
L 83.638813 58.741996 
L 84.72056 57.016831 
L 85.802307 55.341468 
L 86.884054 53.717508 
L 87.965802 52.146138 
L 89.047549 50.628174 
L 90.129296 49.164096 
L 91.211043 47.754081 
L 92.292791 46.398035 
L 93.374538 45.095629 
L 94.456285 43.846322 
L 95.538032 42.649389 
L 96.619779 41.503948 
L 97.701527 40.408981 
L 98.783274 39.363353 
L 99.865021 38.365837 
L 100.946768 37.415125 
L 102.028516 36.509847 
L 103.110263 35.648585 
L 104.19201 34.829887 
L 105.273757 34.052275 
L 106.355504 33.314258 
L 107.437252 32.614341 
L 108.518999 31.951032 
L 109.600746 31.32285 
L 110.682493 30.728329 
L 111.764241 30.166026 
L 112.845988 29.634523 
L 113.927735 29.132433 
L 115.009482 28.658402 
L 116.091229 28.211111 
L 117.172977 27.789279 
L 118.254724 27.391664 
L 119.336471 27.017065 
L 120.418218 26.664323 
L 121.499966 26.332319 
L 122.581713 26.019979 
L 123.66346 25.726268 
L 124.745207 25.450195 
L 125.826954 25.19081 
L 126.908702 24.947203 
L 127.990449 24.718506 
L 129.072196 24.503889 
L 130.153943 24.302561 
L 131.235691 24.113767 
L 132.317438 23.93679 
L 133.399185 23.770949 
L 134.480932 23.615594 
L 135.562679 23.470111 
L 136.644427 23.333915 
L 137.726174 23.206454 
L 138.807921 23.087204 
L 139.889668 22.975669 
L 140.971416 22.87138 
L 142.053163 22.773894 
L 143.13491 22.682792 
L 144.216657 22.597679 
L 145.298404 22.518182 
L 146.380152 22.443951 
L 147.461899 22.374653 
L 148.543646 22.309977 
L 149.625393 22.249629 
L 150.707141 22.193332 
L 151.788888 22.140828 
L 152.870635 22.09187 
L 153.952382 22.046231 
L 155.03413 22.003693 
L 156.115877 21.964056 
L 157.197624 21.927128 
" style="fill:none;stroke:#1f77b4;stroke-dasharray:5.55,2.4;stroke-dashoffset:0;stroke-width:1.5;"/>
   </g>
   <g id="line2d_13">
    <defs>
     <path d="M 6 0 
L -6 -0 
" id="m153ab74e26" style="stroke:#1f77b4;"/>
    </defs>
    <g clip-path="url(#pf1b9366a00)">
     <use style="fill:#1f77b4;stroke:#1f77b4;" x="50.104649" xlink:href="#m153ab74e26" y="102.858711"/>
     <use style="fill:#1f77b4;stroke:#1f77b4;" x="52.781973" xlink:href="#m153ab74e26" y="105.354545"/>
     <use style="fill:#1f77b4;stroke:#1f77b4;" x="55.459298" xlink:href="#m153ab74e26" y="105.262314"/>
     <use style="fill:#1f77b4;stroke:#1f77b4;" x="60.813946" xlink:href="#m153ab74e26" y="104.9454"/>
     <use style="fill:#1f77b4;stroke:#1f77b4;" x="71.523244" xlink:href="#m153ab74e26" y="84.273548"/>
     <use style="fill:#1f77b4;stroke:#1f77b4;" x="81.3401" xlink:href="#m153ab74e26" y="73.663215"/>
     <use style="fill:#1f77b4;stroke:#1f77b4;" x="92.941839" xlink:href="#m153ab74e26" y="57.819184"/>
     <use style="fill:#1f77b4;stroke:#1f77b4;" x="115.252875" xlink:href="#m153ab74e26" y="32.439527"/>
     <use style="fill:#1f77b4;stroke:#1f77b4;" x="135.779029" xlink:href="#m153ab74e26" y="29.634924"/>
    </g>
   </g>
   <g id="line2d_14">
    <g clip-path="url(#pf1b9366a00)">
     <use style="fill:#1f77b4;stroke:#1f77b4;" x="50.104649" xlink:href="#m153ab74e26" y="102.858711"/>
     <use style="fill:#1f77b4;stroke:#1f77b4;" x="52.781973" xlink:href="#m153ab74e26" y="95.641421"/>
     <use style="fill:#1f77b4;stroke:#1f77b4;" x="55.459298" xlink:href="#m153ab74e26" y="93.870361"/>
     <use style="fill:#1f77b4;stroke:#1f77b4;" x="60.813946" xlink:href="#m153ab74e26" y="92.731568"/>
     <use style="fill:#1f77b4;stroke:#1f77b4;" x="71.523244" xlink:href="#m153ab74e26" y="68.987286"/>
     <use style="fill:#1f77b4;stroke:#1f77b4;" x="81.3401" xlink:href="#m153ab74e26" y="56.516502"/>
     <use style="fill:#1f77b4;stroke:#1f77b4;" x="92.941839" xlink:href="#m153ab74e26" y="39.507083"/>
     <use style="fill:#1f77b4;stroke:#1f77b4;" x="115.252875" xlink:href="#m153ab74e26" y="15.257942"/>
     <use style="fill:#1f77b4;stroke:#1f77b4;" x="135.779029" xlink:href="#m153ab74e26" y="13.245455"/>
    </g>
   </g>
   <g id="line2d_15">
    <path clip-path="url(#pf1b9366a00)" d="M 50.104649 102.858711 
L 51.186396 76.980848 
L 52.268143 59.327941 
L 53.34989 47.285791 
L 54.431638 39.071089 
L 55.513385 33.467327 
L 56.595132 29.644651 
L 57.676879 27.036965 
L 58.758627 25.2581 
L 59.840374 24.044624 
L 60.922121 23.216837 
L 62.003868 22.652152 
L 63.085615 22.266945 
L 64.167363 22.004171 
L 65.24911 21.824916 
L 66.330857 21.702636 
L 67.412604 21.61922 
L 68.494352 21.562318 
L 69.576099 21.523501 
L 70.657846 21.497021 
L 71.739593 21.478958 
L 72.82134 21.466636 
L 73.903088 21.45823 
L 74.984835 21.452496 
L 76.066582 21.448585 
L 77.148329 21.445916 
L 78.230077 21.444096 
L 79.311824 21.442854 
L 80.393571 21.442007 
L 81.475318 21.44143 
L 82.557065 21.441035 
L 83.638813 21.440766 
L 84.72056 21.440583 
L 85.802307 21.440458 
L 86.884054 21.440373 
L 87.965802 21.440314 
L 89.047549 21.440275 
L 90.129296 21.440248 
L 91.211043 21.440229 
L 92.292791 21.440216 
L 93.374538 21.440208 
L 94.456285 21.440202 
L 95.538032 21.440198 
L 96.619779 21.440195 
L 97.701527 21.440193 
L 98.783274 21.440192 
L 99.865021 21.440191 
L 100.946768 21.440191 
L 102.028516 21.44019 
L 103.110263 21.44019 
L 104.19201 21.44019 
L 105.273757 21.44019 
L 106.355504 21.44019 
L 107.437252 21.44019 
L 108.518999 21.440189 
L 109.600746 21.440189 
L 110.682493 21.440189 
L 111.764241 21.440189 
L 112.845988 21.440189 
L 113.927735 21.440189 
L 115.009482 21.440189 
L 116.091229 21.440189 
L 117.172977 21.440189 
L 118.254724 21.440189 
L 119.336471 21.440189 
L 120.418218 21.440189 
L 121.499966 21.440189 
L 122.581713 21.440189 
L 123.66346 21.440189 
L 124.745207 21.440189 
L 125.826954 21.440189 
L 126.908702 21.440189 
L 127.990449 21.440189 
L 129.072196 21.440189 
L 130.153943 21.440189 
L 131.235691 21.440189 
L 132.317438 21.440189 
L 133.399185 21.440189 
L 134.480932 21.440189 
L 135.562679 21.440189 
L 136.644427 21.440189 
L 137.726174 21.440189 
L 138.807921 21.440189 
L 139.889668 21.440189 
L 140.971416 21.440189 
L 142.053163 21.440189 
L 143.13491 21.440189 
L 144.216657 21.440189 
L 145.298404 21.440189 
L 146.380152 21.440189 
L 147.461899 21.440189 
L 148.543646 21.440189 
L 149.625393 21.440189 
L 150.707141 21.440189 
L 151.788888 21.440189 
L 152.870635 21.440189 
L 153.952382 21.440189 
L 155.03413 21.440189 
L 156.115877 21.440189 
L 157.197624 21.440189 
" style="fill:none;stroke:#7f7f7f;stroke-dasharray:5.55,2.4;stroke-dashoffset:0;stroke-width:1.5;"/>
   </g>
   <g id="line2d_16">
    <path clip-path="url(#pf1b9366a00)" d="M 50.104649 102.858711 
L 51.186396 102.85585 
L 52.268143 102.821847 
L 53.34989 102.702424 
L 54.431638 102.438177 
L 55.513385 101.976342 
L 56.595132 101.276375 
L 57.676879 100.311903 
L 58.758627 99.070528 
L 59.840374 97.55243 
L 60.922121 95.768378 
L 62.003868 93.737515 
L 63.085615 91.485183 
L 64.167363 89.040917 
L 65.24911 86.436684 
L 66.330857 83.7054 
L 67.412604 80.879725 
L 68.494352 77.991127 
L 69.576099 75.069181 
L 70.657846 72.141079 
L 71.739593 69.231314 
L 72.82134 66.361515 
L 73.903088 63.550397 
L 74.984835 60.813801 
L 76.066582 58.164812 
L 77.148329 55.613913 
L 78.230077 53.169185 
L 79.311824 50.836526 
L 80.393571 48.619873 
L 81.475318 46.521433 
L 82.557065 44.541905 
L 83.638813 42.680697 
L 84.72056 40.936124 
L 85.802307 39.305599 
L 86.884054 37.785798 
L 87.965802 36.372818 
L 89.047549 35.062314 
L 90.129296 33.849616 
L 91.211043 32.729839 
L 92.292791 31.69797 
L 93.374538 30.748945 
L 94.456285 29.877715 
L 95.538032 29.079302 
L 96.619779 28.348837 
L 97.701527 27.681597 
L 98.783274 27.073032 
L 99.865021 26.518787 
L 100.946768 26.014712 
L 102.028516 25.556872 
L 103.110263 25.141556 
L 104.19201 24.765272 
L 105.273757 24.424752 
L 106.355504 24.116942 
L 107.437252 23.839001 
L 108.518999 23.588291 
L 109.600746 23.362371 
L 110.682493 23.158986 
L 111.764241 22.976059 
L 112.845988 22.811679 
L 113.927735 22.664095 
L 115.009482 22.531701 
L 116.091229 22.413029 
L 117.172977 22.306741 
L 118.254724 22.211617 
L 119.336471 22.126546 
L 120.418218 22.050521 
L 121.499966 21.982625 
L 122.581713 21.922031 
L 123.66346 21.867988 
L 124.745207 21.819818 
L 125.826954 21.776909 
L 126.908702 21.738709 
L 127.990449 21.704721 
L 129.072196 21.674498 
L 130.153943 21.647637 
L 131.235691 21.623777 
L 132.317438 21.602594 
L 133.399185 21.583796 
L 134.480932 21.567123 
L 135.562679 21.552343 
L 136.644427 21.539245 
L 137.726174 21.527645 
L 138.807921 21.517375 
L 139.889668 21.508287 
L 140.971416 21.500248 
L 142.053163 21.49314 
L 143.13491 21.486858 
L 144.216657 21.481308 
L 145.298404 21.476406 
L 146.380152 21.472078 
L 147.461899 21.468259 
L 148.543646 21.46489 
L 149.625393 21.461919 
L 150.707141 21.4593 
L 151.788888 21.456991 
L 152.870635 21.454958 
L 153.952382 21.453167 
L 155.03413 21.45159 
L 156.115877 21.450202 
L 157.197624 21.448981 
" style="fill:none;stroke:#d3d3d3;stroke-dasharray:5.55,2.4;stroke-dashoffset:0;stroke-width:1.5;"/>
   </g>
   <g id="line2d_17">
    <defs>
     <path d="M 0 1.5 
C 0.397805 1.5 0.77937 1.341951 1.06066 1.06066 
C 1.341951 0.77937 1.5 0.397805 1.5 0 
C 1.5 -0.397805 1.341951 -0.77937 1.06066 -1.06066 
C 0.77937 -1.341951 0.397805 -1.5 0 -1.5 
C -0.397805 -1.5 -0.77937 -1.341951 -1.06066 -1.06066 
C -1.341951 -0.77937 -1.5 -0.397805 -1.5 0 
C -1.5 0.397805 -1.341951 0.77937 -1.06066 1.06066 
C -0.77937 1.341951 -0.397805 1.5 0 1.5 
z
" id="m50964626e1" style="stroke:#1f77b4;"/>
    </defs>
    <g clip-path="url(#pf1b9366a00)">
     <use style="fill:#1f77b4;stroke:#1f77b4;" x="50.104649" xlink:href="#m50964626e1" y="102.858711"/>
     <use style="fill:#1f77b4;stroke:#1f77b4;" x="52.781973" xlink:href="#m50964626e1" y="100.497983"/>
     <use style="fill:#1f77b4;stroke:#1f77b4;" x="55.459298" xlink:href="#m50964626e1" y="99.566338"/>
     <use style="fill:#1f77b4;stroke:#1f77b4;" x="60.813946" xlink:href="#m50964626e1" y="98.838484"/>
     <use style="fill:#1f77b4;stroke:#1f77b4;" x="71.523244" xlink:href="#m50964626e1" y="76.630417"/>
     <use style="fill:#1f77b4;stroke:#1f77b4;" x="81.3401" xlink:href="#m50964626e1" y="65.089858"/>
     <use style="fill:#1f77b4;stroke:#1f77b4;" x="92.941839" xlink:href="#m50964626e1" y="48.663134"/>
     <use style="fill:#1f77b4;stroke:#1f77b4;" x="115.252875" xlink:href="#m50964626e1" y="23.848734"/>
     <use style="fill:#1f77b4;stroke:#1f77b4;" x="135.779029" xlink:href="#m50964626e1" y="21.440189"/>
    </g>
   </g>
   <g id="patch_3">
    <path d="M 44.75 109.96 
L 44.75 8.64 
" style="fill:none;stroke:#000000;stroke-linecap:square;stroke-linejoin:miter;stroke-width:0.8;"/>
   </g>
   <g id="patch_4">
    <path d="M 162.552273 109.96 
L 162.552273 8.64 
" style="fill:none;stroke:#000000;stroke-linecap:square;stroke-linejoin:miter;stroke-width:0.8;"/>
   </g>
   <g id="patch_5">
    <path d="M 44.75 109.96 
L 162.552273 109.96 
" style="fill:none;stroke:#000000;stroke-linecap:square;stroke-linejoin:miter;stroke-width:0.8;"/>
   </g>
   <g id="patch_6">
    <path d="M 44.75 8.64 
L 162.552273 8.64 
" style="fill:none;stroke:#000000;stroke-linecap:square;stroke-linejoin:miter;stroke-width:0.8;"/>
   </g>
   <g id="PathCollection_2">
    <defs>
     <path d="M 0 1.581139 
C 0.419323 1.581139 0.821528 1.41454 1.118034 1.118034 
C 1.41454 0.821528 1.581139 0.419323 1.581139 0 
C 1.581139 -0.419323 1.41454 -0.821528 1.118034 -1.118034 
C 0.821528 -1.41454 0.419323 -1.581139 0 -1.581139 
C -0.419323 -1.581139 -0.821528 -1.41454 -1.118034 -1.118034 
C -1.41454 -0.821528 -1.581139 -0.419323 -1.581139 0 
C -1.581139 0.419323 -1.41454 0.821528 -1.118034 1.118034 
C -0.821528 1.41454 -0.419323 1.581139 0 1.581139 
z
" id="maaa544d31b" style="stroke:#7f7f7f;"/>
    </defs>
    <g clip-path="url(#pf1b9366a00)">
     <use style="fill:#7f7f7f;stroke:#7f7f7f;" x="50.104649" xlink:href="#maaa544d31b" y="102.858711"/>
     <use style="fill:#7f7f7f;stroke:#7f7f7f;" x="52.781973" xlink:href="#maaa544d31b" y="44.978438"/>
     <use style="fill:#7f7f7f;stroke:#7f7f7f;" x="55.459298" xlink:href="#maaa544d31b" y="39.39726"/>
     <use style="fill:#7f7f7f;stroke:#7f7f7f;" x="60.813946" xlink:href="#maaa544d31b" y="38.834954"/>
     <use style="fill:#7f7f7f;stroke:#7f7f7f;" x="71.523244" xlink:href="#maaa544d31b" y="21.440189"/>
     <use style="fill:#7f7f7f;stroke:#7f7f7f;" x="81.3401" xlink:href="#maaa544d31b" y="24.396799"/>
     <use style="fill:#7f7f7f;stroke:#7f7f7f;" x="92.941839" xlink:href="#maaa544d31b" y="32.58633"/>
     <use style="fill:#7f7f7f;stroke:#7f7f7f;" x="115.252875" xlink:href="#maaa544d31b" y="30.333808"/>
     <use style="fill:#7f7f7f;stroke:#7f7f7f;" x="135.779029" xlink:href="#maaa544d31b" y="41.625923"/>
     <use style="fill:#7f7f7f;stroke:#7f7f7f;" x="157.197624" xlink:href="#maaa544d31b" y="55.86481"/>
    </g>
   </g>
  </g>
 </g>
 <defs>
  <clipPath id="pf1b9366a00">
   <rect height="101.32" width="117.802273" x="44.75" y="8.64"/>
  </clipPath>
 </defs>
</svg>
