<?xml version="1.0" encoding="utf-8" standalone="no"?>
<!DOCTYPE svg PUBLIC "-//W3C//DTD SVG 1.1//EN"
  "http://www.w3.org/Graphics/SVG/1.1/DTD/svg11.dtd">
<svg xmlns:xlink="http://www.w3.org/1999/xlink" width="172.8pt" height="144pt" viewBox="0 0 172.8 144" xmlns="http://www.w3.org/2000/svg" version="1.1">
 <metadata>
  <rdf:RDF xmlns:dc="http://purl.org/dc/elements/1.1/" xmlns:cc="http://creativecommons.org/ns#" xmlns:rdf="http://www.w3.org/1999/02/22-rdf-syntax-ns#">
   <cc:Work>
    <dc:type rdf:resource="http://purl.org/dc/dcmitype/StillImage"/>
    <dc:date>2022-08-05T12:14:08.029595</dc:date>
    <dc:format>image/svg+xml</dc:format>
    <dc:creator>
     <cc:Agent>
      <dc:title>Matplotlib v3.5.1, https://matplotlib.org/</dc:title>
     </cc:Agent>
    </dc:creator>
   </cc:Work>
  </rdf:RDF>
 </metadata>
 <defs>
  <style type="text/css">*{stroke-linejoin: round; stroke-linecap: butt}</style>
 </defs>
 <g id="figure_1">
  <g id="patch_1">
   <path d="M 0 144 
L 172.8 144 
L 172.8 0 
L 0 0 
z
" style="fill: #ffffff"/>
  </g>
  <g id="axes_1">
   <g id="patch_2">
    <path d="M 21.6 128.16 
L 155.52 128.16 
L 155.52 17.28 
L 21.6 17.28 
z
" style="fill: #ffffff"/>
   </g>
   <g id="PathCollection_1">
    <defs>
     <path id="m081aa66c2e" d="M 0 1.581139 
C 0.419323 1.581139 0.821528 1.41454 1.118034 1.118034 
C 1.41454 0.821528 1.581139 0.419323 1.581139 0 
C 1.581139 -0.419323 1.41454 -0.821528 1.118034 -1.118034 
C 0.821528 -1.41454 0.419323 -1.581139 0 -1.581139 
C -0.419323 -1.581139 -0.821528 -1.41454 -1.118034 -1.118034 
C -1.41454 -0.821528 -1.581139 -0.419323 -1.581139 0 
C -1.581139 0.419323 -1.41454 0.821528 -1.118034 1.118034 
C -0.821528 1.41454 -0.419323 1.581139 0 1.581139 
z
" style="stroke: #d3d3d3"/>
    </defs>
    <g clip-path="url(#p0918c3ac55)">
     <use xlink:href="#m081aa66c2e" x="27.687273" y="120.388673" style="fill: #d3d3d3; stroke: #d3d3d3"/>
     <use xlink:href="#m081aa66c2e" x="30.730909" y="117.344229" style="fill: #d3d3d3; stroke: #d3d3d3"/>
     <use xlink:href="#m081aa66c2e" x="33.774545" y="114.502748" style="fill: #d3d3d3; stroke: #d3d3d3"/>
     <use xlink:href="#m081aa66c2e" x="39.861818" y="115.111637" style="fill: #d3d3d3; stroke: #d3d3d3"/>
     <use xlink:href="#m081aa66c2e" x="52.036364" y="83.043493" style="fill: #d3d3d3; stroke: #d3d3d3"/>
     <use xlink:href="#m081aa66c2e" x="64.210909" y="59.093867" style="fill: #d3d3d3; stroke: #d3d3d3"/>
     <use xlink:href="#m081aa66c2e" x="76.385455" y="39.609425" style="fill: #d3d3d3; stroke: #d3d3d3"/>
     <use xlink:href="#m081aa66c2e" x="100.734545" y="31.287945" style="fill: #d3d3d3; stroke: #d3d3d3"/>
     <use xlink:href="#m081aa66c2e" x="125.083636" y="54.628682" style="fill: #d3d3d3; stroke: #d3d3d3"/>
    </g>
   </g>
   <g id="matplotlib.axis_1">
    <g id="xtick_1">
     <g id="line2d_1">
      <defs>
       <path id="m3ae98cfbd8" d="M 0 0 
L 0 3.5 
" style="stroke: #000000; stroke-width: 0.8"/>
      </defs>
      <g>
       <use xlink:href="#m3ae98cfbd8" x="27.687273" y="128.16" style="stroke: #000000; stroke-width: 0.8"/>
      </g>
     </g>
     <g id="text_1">
      <!-- 0 -->
      <g transform="translate(25.142273 141.23875)scale(0.08 -0.08)">
       <defs>
        <path id="DejaVuSans-30" d="M 2034 4250 
Q 1547 4250 1301 3770 
Q 1056 3291 1056 2328 
Q 1056 1369 1301 889 
Q 1547 409 2034 409 
Q 2525 409 2770 889 
Q 3016 1369 3016 2328 
Q 3016 3291 2770 3770 
Q 2525 4250 2034 4250 
z
M 2034 4750 
Q 2819 4750 3233 4129 
Q 3647 3509 3647 2328 
Q 3647 1150 3233 529 
Q 2819 -91 2034 -91 
Q 1250 -91 836 529 
Q 422 1150 422 2328 
Q 422 3509 836 4129 
Q 1250 4750 2034 4750 
z
" transform="scale(0.015625)"/>
       </defs>
       <use xlink:href="#DejaVuSans-30"/>
      </g>
     </g>
    </g>
    <g id="xtick_2">
     <g id="line2d_2">
      <g>
       <use xlink:href="#m3ae98cfbd8" x="52.036364" y="128.16" style="stroke: #000000; stroke-width: 0.8"/>
      </g>
     </g>
     <g id="text_2">
      <!-- 24 -->
      <g transform="translate(46.946364 141.23875)scale(0.08 -0.08)">
       <defs>
        <path id="DejaVuSans-32" d="M 1228 531 
L 3431 531 
L 3431 0 
L 469 0 
L 469 531 
Q 828 903 1448 1529 
Q 2069 2156 2228 2338 
Q 2531 2678 2651 2914 
Q 2772 3150 2772 3378 
Q 2772 3750 2511 3984 
Q 2250 4219 1831 4219 
Q 1534 4219 1204 4116 
Q 875 4013 500 3803 
L 500 4441 
Q 881 4594 1212 4672 
Q 1544 4750 1819 4750 
Q 2544 4750 2975 4387 
Q 3406 4025 3406 3419 
Q 3406 3131 3298 2873 
Q 3191 2616 2906 2266 
Q 2828 2175 2409 1742 
Q 1991 1309 1228 531 
z
" transform="scale(0.015625)"/>
        <path id="DejaVuSans-34" d="M 2419 4116 
L 825 1625 
L 2419 1625 
L 2419 4116 
z
M 2253 4666 
L 3047 4666 
L 3047 1625 
L 3713 1625 
L 3713 1100 
L 3047 1100 
L 3047 0 
L 2419 0 
L 2419 1100 
L 313 1100 
L 313 1709 
L 2253 4666 
z
" transform="scale(0.015625)"/>
       </defs>
       <use xlink:href="#DejaVuSans-32"/>
       <use xlink:href="#DejaVuSans-34" x="63.623047"/>
      </g>
     </g>
    </g>
    <g id="xtick_3">
     <g id="line2d_3">
      <g>
       <use xlink:href="#m3ae98cfbd8" x="76.385455" y="128.16" style="stroke: #000000; stroke-width: 0.8"/>
      </g>
     </g>
     <g id="text_3">
      <!-- 48 -->
      <g transform="translate(71.295455 141.23875)scale(0.08 -0.08)">
       <defs>
        <path id="DejaVuSans-38" d="M 2034 2216 
Q 1584 2216 1326 1975 
Q 1069 1734 1069 1313 
Q 1069 891 1326 650 
Q 1584 409 2034 409 
Q 2484 409 2743 651 
Q 3003 894 3003 1313 
Q 3003 1734 2745 1975 
Q 2488 2216 2034 2216 
z
M 1403 2484 
Q 997 2584 770 2862 
Q 544 3141 544 3541 
Q 544 4100 942 4425 
Q 1341 4750 2034 4750 
Q 2731 4750 3128 4425 
Q 3525 4100 3525 3541 
Q 3525 3141 3298 2862 
Q 3072 2584 2669 2484 
Q 3125 2378 3379 2068 
Q 3634 1759 3634 1313 
Q 3634 634 3220 271 
Q 2806 -91 2034 -91 
Q 1263 -91 848 271 
Q 434 634 434 1313 
Q 434 1759 690 2068 
Q 947 2378 1403 2484 
z
M 1172 3481 
Q 1172 3119 1398 2916 
Q 1625 2713 2034 2713 
Q 2441 2713 2670 2916 
Q 2900 3119 2900 3481 
Q 2900 3844 2670 4047 
Q 2441 4250 2034 4250 
Q 1625 4250 1398 4047 
Q 1172 3844 1172 3481 
z
" transform="scale(0.015625)"/>
       </defs>
       <use xlink:href="#DejaVuSans-34"/>
       <use xlink:href="#DejaVuSans-38" x="63.623047"/>
      </g>
     </g>
    </g>
    <g id="xtick_4">
     <g id="line2d_4">
      <g>
       <use xlink:href="#m3ae98cfbd8" x="100.734545" y="128.16" style="stroke: #000000; stroke-width: 0.8"/>
      </g>
     </g>
     <g id="text_4">
      <!-- 72 -->
      <g transform="translate(95.644545 141.23875)scale(0.08 -0.08)">
       <defs>
        <path id="DejaVuSans-37" d="M 525 4666 
L 3525 4666 
L 3525 4397 
L 1831 0 
L 1172 0 
L 2766 4134 
L 525 4134 
L 525 4666 
z
" transform="scale(0.015625)"/>
       </defs>
       <use xlink:href="#DejaVuSans-37"/>
       <use xlink:href="#DejaVuSans-32" x="63.623047"/>
      </g>
     </g>
    </g>
    <g id="xtick_5">
     <g id="line2d_5">
      <g>
       <use xlink:href="#m3ae98cfbd8" x="125.083636" y="128.16" style="stroke: #000000; stroke-width: 0.8"/>
      </g>
     </g>
     <g id="text_5">
      <!-- 96 -->
      <g transform="translate(119.993636 141.23875)scale(0.08 -0.08)">
       <defs>
        <path id="DejaVuSans-39" d="M 703 97 
L 703 672 
Q 941 559 1184 500 
Q 1428 441 1663 441 
Q 2288 441 2617 861 
Q 2947 1281 2994 2138 
Q 2813 1869 2534 1725 
Q 2256 1581 1919 1581 
Q 1219 1581 811 2004 
Q 403 2428 403 3163 
Q 403 3881 828 4315 
Q 1253 4750 1959 4750 
Q 2769 4750 3195 4129 
Q 3622 3509 3622 2328 
Q 3622 1225 3098 567 
Q 2575 -91 1691 -91 
Q 1453 -91 1209 -44 
Q 966 3 703 97 
z
M 1959 2075 
Q 2384 2075 2632 2365 
Q 2881 2656 2881 3163 
Q 2881 3666 2632 3958 
Q 2384 4250 1959 4250 
Q 1534 4250 1286 3958 
Q 1038 3666 1038 3163 
Q 1038 2656 1286 2365 
Q 1534 2075 1959 2075 
z
" transform="scale(0.015625)"/>
        <path id="DejaVuSans-36" d="M 2113 2584 
Q 1688 2584 1439 2293 
Q 1191 2003 1191 1497 
Q 1191 994 1439 701 
Q 1688 409 2113 409 
Q 2538 409 2786 701 
Q 3034 994 3034 1497 
Q 3034 2003 2786 2293 
Q 2538 2584 2113 2584 
z
M 3366 4563 
L 3366 3988 
Q 3128 4100 2886 4159 
Q 2644 4219 2406 4219 
Q 1781 4219 1451 3797 
Q 1122 3375 1075 2522 
Q 1259 2794 1537 2939 
Q 1816 3084 2150 3084 
Q 2853 3084 3261 2657 
Q 3669 2231 3669 1497 
Q 3669 778 3244 343 
Q 2819 -91 2113 -91 
Q 1303 -91 875 529 
Q 447 1150 447 2328 
Q 447 3434 972 4092 
Q 1497 4750 2381 4750 
Q 2619 4750 2861 4703 
Q 3103 4656 3366 4563 
z
" transform="scale(0.015625)"/>
       </defs>
       <use xlink:href="#DejaVuSans-39"/>
       <use xlink:href="#DejaVuSans-36" x="63.623047"/>
      </g>
     </g>
    </g>
    <g id="xtick_6">
     <g id="line2d_6">
      <g>
       <use xlink:href="#m3ae98cfbd8" x="149.432727" y="128.16" style="stroke: #000000; stroke-width: 0.8"/>
      </g>
     </g>
     <g id="text_6">
      <!-- 120 -->
      <g transform="translate(141.797727 141.23875)scale(0.08 -0.08)">
       <defs>
        <path id="DejaVuSans-31" d="M 794 531 
L 1825 531 
L 1825 4091 
L 703 3866 
L 703 4441 
L 1819 4666 
L 2450 4666 
L 2450 531 
L 3481 531 
L 3481 0 
L 794 0 
L 794 531 
z
" transform="scale(0.015625)"/>
       </defs>
       <use xlink:href="#DejaVuSans-31"/>
       <use xlink:href="#DejaVuSans-32" x="63.623047"/>
       <use xlink:href="#DejaVuSans-30" x="127.246094"/>
      </g>
     </g>
    </g>
    <g id="text_7">
     <!-- time (h) -->
     <g transform="translate(72.595625 152.98125)scale(0.08 -0.08)">
      <defs>
       <path id="DejaVuSans-74" d="M 1172 4494 
L 1172 3500 
L 2356 3500 
L 2356 3053 
L 1172 3053 
L 1172 1153 
Q 1172 725 1289 603 
Q 1406 481 1766 481 
L 2356 481 
L 2356 0 
L 1766 0 
Q 1100 0 847 248 
Q 594 497 594 1153 
L 594 3053 
L 172 3053 
L 172 3500 
L 594 3500 
L 594 4494 
L 1172 4494 
z
" transform="scale(0.015625)"/>
       <path id="DejaVuSans-69" d="M 603 3500 
L 1178 3500 
L 1178 0 
L 603 0 
L 603 3500 
z
M 603 4863 
L 1178 4863 
L 1178 4134 
L 603 4134 
L 603 4863 
z
" transform="scale(0.015625)"/>
       <path id="DejaVuSans-6d" d="M 3328 2828 
Q 3544 3216 3844 3400 
Q 4144 3584 4550 3584 
Q 5097 3584 5394 3201 
Q 5691 2819 5691 2113 
L 5691 0 
L 5113 0 
L 5113 2094 
Q 5113 2597 4934 2840 
Q 4756 3084 4391 3084 
Q 3944 3084 3684 2787 
Q 3425 2491 3425 1978 
L 3425 0 
L 2847 0 
L 2847 2094 
Q 2847 2600 2669 2842 
Q 2491 3084 2119 3084 
Q 1678 3084 1418 2786 
Q 1159 2488 1159 1978 
L 1159 0 
L 581 0 
L 581 3500 
L 1159 3500 
L 1159 2956 
Q 1356 3278 1631 3431 
Q 1906 3584 2284 3584 
Q 2666 3584 2933 3390 
Q 3200 3197 3328 2828 
z
" transform="scale(0.015625)"/>
       <path id="DejaVuSans-65" d="M 3597 1894 
L 3597 1613 
L 953 1613 
Q 991 1019 1311 708 
Q 1631 397 2203 397 
Q 2534 397 2845 478 
Q 3156 559 3463 722 
L 3463 178 
Q 3153 47 2828 -22 
Q 2503 -91 2169 -91 
Q 1331 -91 842 396 
Q 353 884 353 1716 
Q 353 2575 817 3079 
Q 1281 3584 2069 3584 
Q 2775 3584 3186 3129 
Q 3597 2675 3597 1894 
z
M 3022 2063 
Q 3016 2534 2758 2815 
Q 2500 3097 2075 3097 
Q 1594 3097 1305 2825 
Q 1016 2553 972 2059 
L 3022 2063 
z
" transform="scale(0.015625)"/>
       <path id="DejaVuSans-20" transform="scale(0.015625)"/>
       <path id="DejaVuSans-28" d="M 1984 4856 
Q 1566 4138 1362 3434 
Q 1159 2731 1159 2009 
Q 1159 1288 1364 580 
Q 1569 -128 1984 -844 
L 1484 -844 
Q 1016 -109 783 600 
Q 550 1309 550 2009 
Q 550 2706 781 3412 
Q 1013 4119 1484 4856 
L 1984 4856 
z
" transform="scale(0.015625)"/>
       <path id="DejaVuSans-68" d="M 3513 2113 
L 3513 0 
L 2938 0 
L 2938 2094 
Q 2938 2591 2744 2837 
Q 2550 3084 2163 3084 
Q 1697 3084 1428 2787 
Q 1159 2491 1159 1978 
L 1159 0 
L 581 0 
L 581 4863 
L 1159 4863 
L 1159 2956 
Q 1366 3272 1645 3428 
Q 1925 3584 2291 3584 
Q 2894 3584 3203 3211 
Q 3513 2838 3513 2113 
z
" transform="scale(0.015625)"/>
       <path id="DejaVuSans-29" d="M 513 4856 
L 1013 4856 
Q 1481 4119 1714 3412 
Q 1947 2706 1947 2009 
Q 1947 1309 1714 600 
Q 1481 -109 1013 -844 
L 513 -844 
Q 928 -128 1133 580 
Q 1338 1288 1338 2009 
Q 1338 2731 1133 3434 
Q 928 4138 513 4856 
z
" transform="scale(0.015625)"/>
      </defs>
      <use xlink:href="#DejaVuSans-74"/>
      <use xlink:href="#DejaVuSans-69" x="39.208984"/>
      <use xlink:href="#DejaVuSans-6d" x="66.992188"/>
      <use xlink:href="#DejaVuSans-65" x="164.404297"/>
      <use xlink:href="#DejaVuSans-20" x="225.927734"/>
      <use xlink:href="#DejaVuSans-28" x="257.714844"/>
      <use xlink:href="#DejaVuSans-68" x="296.728516"/>
      <use xlink:href="#DejaVuSans-29" x="360.107422"/>
     </g>
    </g>
   </g>
   <g id="matplotlib.axis_2">
    <g id="ytick_1">
     <g id="line2d_7">
      <defs>
       <path id="mc89062013c" d="M 0 0 
L -3.5 0 
" style="stroke: #000000; stroke-width: 0.8"/>
      </defs>
      <g>
       <use xlink:href="#mc89062013c" x="21.6" y="120.388673" style="stroke: #000000; stroke-width: 0.8"/>
      </g>
     </g>
     <g id="text_8">
      <!-- 0.00 -->
      <g transform="translate(-3.2125 123.428048)scale(0.08 -0.08)">
       <defs>
        <path id="DejaVuSans-2e" d="M 684 794 
L 1344 794 
L 1344 0 
L 684 0 
L 684 794 
z
" transform="scale(0.015625)"/>
       </defs>
       <use xlink:href="#DejaVuSans-30"/>
       <use xlink:href="#DejaVuSans-2e" x="63.623047"/>
       <use xlink:href="#DejaVuSans-30" x="95.410156"/>
       <use xlink:href="#DejaVuSans-30" x="159.033203"/>
      </g>
     </g>
    </g>
    <g id="ytick_2">
     <g id="line2d_8">
      <g>
       <use xlink:href="#mc89062013c" x="21.6" y="98.113491" style="stroke: #000000; stroke-width: 0.8"/>
      </g>
     </g>
     <g id="text_9">
      <!-- 0.25 -->
      <g transform="translate(-3.2125 101.152866)scale(0.08 -0.08)">
       <defs>
        <path id="DejaVuSans-35" d="M 691 4666 
L 3169 4666 
L 3169 4134 
L 1269 4134 
L 1269 2991 
Q 1406 3038 1543 3061 
Q 1681 3084 1819 3084 
Q 2600 3084 3056 2656 
Q 3513 2228 3513 1497 
Q 3513 744 3044 326 
Q 2575 -91 1722 -91 
Q 1428 -91 1123 -41 
Q 819 9 494 109 
L 494 744 
Q 775 591 1075 516 
Q 1375 441 1709 441 
Q 2250 441 2565 725 
Q 2881 1009 2881 1497 
Q 2881 1984 2565 2268 
Q 2250 2553 1709 2553 
Q 1456 2553 1204 2497 
Q 953 2441 691 2322 
L 691 4666 
z
" transform="scale(0.015625)"/>
       </defs>
       <use xlink:href="#DejaVuSans-30"/>
       <use xlink:href="#DejaVuSans-2e" x="63.623047"/>
       <use xlink:href="#DejaVuSans-32" x="95.410156"/>
       <use xlink:href="#DejaVuSans-35" x="159.033203"/>
      </g>
     </g>
    </g>
    <g id="ytick_3">
     <g id="line2d_9">
      <g>
       <use xlink:href="#mc89062013c" x="21.6" y="75.838309" style="stroke: #000000; stroke-width: 0.8"/>
      </g>
     </g>
     <g id="text_10">
      <!-- 0.50 -->
      <g transform="translate(-3.2125 78.877684)scale(0.08 -0.08)">
       <use xlink:href="#DejaVuSans-30"/>
       <use xlink:href="#DejaVuSans-2e" x="63.623047"/>
       <use xlink:href="#DejaVuSans-35" x="95.410156"/>
       <use xlink:href="#DejaVuSans-30" x="159.033203"/>
      </g>
     </g>
    </g>
    <g id="ytick_4">
     <g id="line2d_10">
      <g>
       <use xlink:href="#mc89062013c" x="21.6" y="53.563127" style="stroke: #000000; stroke-width: 0.8"/>
      </g>
     </g>
     <g id="text_11">
      <!-- 0.75 -->
      <g transform="translate(-3.2125 56.602502)scale(0.08 -0.08)">
       <use xlink:href="#DejaVuSans-30"/>
       <use xlink:href="#DejaVuSans-2e" x="63.623047"/>
       <use xlink:href="#DejaVuSans-37" x="95.410156"/>
       <use xlink:href="#DejaVuSans-35" x="159.033203"/>
      </g>
     </g>
    </g>
    <g id="ytick_5">
     <g id="line2d_11">
      <g>
       <use xlink:href="#mc89062013c" x="21.6" y="31.287945" style="stroke: #000000; stroke-width: 0.8"/>
      </g>
     </g>
     <g id="text_12">
      <!-- 1.00 -->
      <g transform="translate(-3.2125 34.32732)scale(0.08 -0.08)">
       <use xlink:href="#DejaVuSans-31"/>
       <use xlink:href="#DejaVuSans-2e" x="63.623047"/>
       <use xlink:href="#DejaVuSans-30" x="95.410156"/>
       <use xlink:href="#DejaVuSans-30" x="159.033203"/>
      </g>
     </g>
    </g>
    <g id="text_13">
     <!-- % of maximum -->
     <g transform="translate(-8.87625 103.0725)rotate(-90)scale(0.08 -0.08)">
      <defs>
       <path id="DejaVuSans-25" d="M 4653 2053 
Q 4381 2053 4226 1822 
Q 4072 1591 4072 1178 
Q 4072 772 4226 539 
Q 4381 306 4653 306 
Q 4919 306 5073 539 
Q 5228 772 5228 1178 
Q 5228 1588 5073 1820 
Q 4919 2053 4653 2053 
z
M 4653 2450 
Q 5147 2450 5437 2106 
Q 5728 1763 5728 1178 
Q 5728 594 5436 251 
Q 5144 -91 4653 -91 
Q 4153 -91 3862 251 
Q 3572 594 3572 1178 
Q 3572 1766 3864 2108 
Q 4156 2450 4653 2450 
z
M 1428 4353 
Q 1159 4353 1004 4120 
Q 850 3888 850 3481 
Q 850 3069 1003 2837 
Q 1156 2606 1428 2606 
Q 1700 2606 1854 2837 
Q 2009 3069 2009 3481 
Q 2009 3884 1853 4118 
Q 1697 4353 1428 4353 
z
M 4250 4750 
L 4750 4750 
L 1831 -91 
L 1331 -91 
L 4250 4750 
z
M 1428 4750 
Q 1922 4750 2215 4408 
Q 2509 4066 2509 3481 
Q 2509 2891 2217 2550 
Q 1925 2209 1428 2209 
Q 931 2209 642 2551 
Q 353 2894 353 3481 
Q 353 4063 643 4406 
Q 934 4750 1428 4750 
z
" transform="scale(0.015625)"/>
       <path id="DejaVuSans-6f" d="M 1959 3097 
Q 1497 3097 1228 2736 
Q 959 2375 959 1747 
Q 959 1119 1226 758 
Q 1494 397 1959 397 
Q 2419 397 2687 759 
Q 2956 1122 2956 1747 
Q 2956 2369 2687 2733 
Q 2419 3097 1959 3097 
z
M 1959 3584 
Q 2709 3584 3137 3096 
Q 3566 2609 3566 1747 
Q 3566 888 3137 398 
Q 2709 -91 1959 -91 
Q 1206 -91 779 398 
Q 353 888 353 1747 
Q 353 2609 779 3096 
Q 1206 3584 1959 3584 
z
" transform="scale(0.015625)"/>
       <path id="DejaVuSans-66" d="M 2375 4863 
L 2375 4384 
L 1825 4384 
Q 1516 4384 1395 4259 
Q 1275 4134 1275 3809 
L 1275 3500 
L 2222 3500 
L 2222 3053 
L 1275 3053 
L 1275 0 
L 697 0 
L 697 3053 
L 147 3053 
L 147 3500 
L 697 3500 
L 697 3744 
Q 697 4328 969 4595 
Q 1241 4863 1831 4863 
L 2375 4863 
z
" transform="scale(0.015625)"/>
       <path id="DejaVuSans-61" d="M 2194 1759 
Q 1497 1759 1228 1600 
Q 959 1441 959 1056 
Q 959 750 1161 570 
Q 1363 391 1709 391 
Q 2188 391 2477 730 
Q 2766 1069 2766 1631 
L 2766 1759 
L 2194 1759 
z
M 3341 1997 
L 3341 0 
L 2766 0 
L 2766 531 
Q 2569 213 2275 61 
Q 1981 -91 1556 -91 
Q 1019 -91 701 211 
Q 384 513 384 1019 
Q 384 1609 779 1909 
Q 1175 2209 1959 2209 
L 2766 2209 
L 2766 2266 
Q 2766 2663 2505 2880 
Q 2244 3097 1772 3097 
Q 1472 3097 1187 3025 
Q 903 2953 641 2809 
L 641 3341 
Q 956 3463 1253 3523 
Q 1550 3584 1831 3584 
Q 2591 3584 2966 3190 
Q 3341 2797 3341 1997 
z
" transform="scale(0.015625)"/>
       <path id="DejaVuSans-78" d="M 3513 3500 
L 2247 1797 
L 3578 0 
L 2900 0 
L 1881 1375 
L 863 0 
L 184 0 
L 1544 1831 
L 300 3500 
L 978 3500 
L 1906 2253 
L 2834 3500 
L 3513 3500 
z
" transform="scale(0.015625)"/>
       <path id="DejaVuSans-75" d="M 544 1381 
L 544 3500 
L 1119 3500 
L 1119 1403 
Q 1119 906 1312 657 
Q 1506 409 1894 409 
Q 2359 409 2629 706 
Q 2900 1003 2900 1516 
L 2900 3500 
L 3475 3500 
L 3475 0 
L 2900 0 
L 2900 538 
Q 2691 219 2414 64 
Q 2138 -91 1772 -91 
Q 1169 -91 856 284 
Q 544 659 544 1381 
z
M 1991 3584 
L 1991 3584 
z
" transform="scale(0.015625)"/>
      </defs>
      <use xlink:href="#DejaVuSans-25"/>
      <use xlink:href="#DejaVuSans-20" x="95.019531"/>
      <use xlink:href="#DejaVuSans-6f" x="126.806641"/>
      <use xlink:href="#DejaVuSans-66" x="187.988281"/>
      <use xlink:href="#DejaVuSans-20" x="223.193359"/>
      <use xlink:href="#DejaVuSans-6d" x="254.980469"/>
      <use xlink:href="#DejaVuSans-61" x="352.392578"/>
      <use xlink:href="#DejaVuSans-78" x="413.671875"/>
      <use xlink:href="#DejaVuSans-69" x="472.851562"/>
      <use xlink:href="#DejaVuSans-6d" x="500.634766"/>
      <use xlink:href="#DejaVuSans-75" x="598.046875"/>
      <use xlink:href="#DejaVuSans-6d" x="661.425781"/>
     </g>
    </g>
   </g>
   <g id="line2d_12">
    <path d="M 27.687273 120.388673 
L 28.917025 120.377119 
L 30.146777 120.303938 
L 31.376529 120.124303 
L 32.606281 119.807272 
L 33.836033 119.332872 
L 35.065785 118.689869 
L 36.295537 117.873944 
L 37.525289 116.886196 
L 38.755041 115.731904 
L 39.984793 114.419501 
L 41.214545 112.959722 
L 42.444298 111.36491 
L 43.67405 109.648448 
L 44.903802 107.82429 
L 46.133554 105.906598 
L 47.363306 103.909438 
L 48.593058 101.846554 
L 49.82281 99.731192 
L 51.052562 97.575963 
L 52.282314 95.392752 
L 53.512066 93.192651 
L 54.741818 90.985925 
L 55.97157 88.781987 
L 57.201322 86.589402 
L 58.431074 84.415896 
L 59.660826 82.268376 
L 60.890579 80.152965 
L 62.120331 78.07503 
L 63.350083 76.039229 
L 64.579835 74.049547 
L 65.809587 72.109346 
L 67.039339 70.221403 
L 68.269091 68.387963 
L 69.498843 66.610774 
L 70.728595 64.891139 
L 71.958347 63.229948 
L 73.188099 61.627728 
L 74.417851 60.084671 
L 75.647603 58.600676 
L 76.877355 57.175383 
L 78.107107 55.808198 
L 79.33686 54.498329 
L 80.566612 53.24481 
L 81.796364 52.046528 
L 83.026116 50.90224 
L 84.255868 49.810604 
L 85.48562 48.770188 
L 86.715372 47.779493 
L 87.945124 46.836967 
L 89.174876 45.941021 
L 90.404628 45.090038 
L 91.63438 44.282386 
L 92.864132 43.516429 
L 94.093884 42.790534 
L 95.323636 42.10308 
L 96.553388 41.452463 
L 97.78314 40.837104 
L 99.012893 40.255451 
L 100.242645 39.705987 
L 101.472397 39.187229 
L 102.702149 38.697734 
L 103.931901 38.2361 
L 105.161653 37.800968 
L 106.391405 37.391024 
L 107.621157 37.004999 
L 108.850909 36.641669 
L 110.080661 36.299858 
L 111.310413 35.978434 
L 112.540165 35.676313 
L 113.769917 35.392453 
L 114.999669 35.125862 
L 116.229421 34.875586 
L 117.459174 34.640719 
L 118.688926 34.420394 
L 119.918678 34.213787 
L 121.14843 34.020112 
L 122.378182 33.838622 
L 123.607934 33.668609 
L 124.837686 33.509399 
L 126.067438 33.360353 
L 127.29719 33.220865 
L 128.526942 33.090363 
L 129.756694 32.968304 
L 130.986446 32.854175 
L 132.216198 32.74749 
L 133.44595 32.647792 
L 134.675702 32.554649 
L 135.905455 32.467652 
L 137.135207 32.386416 
L 138.364959 32.31058 
L 139.594711 32.239801 
L 140.824463 32.173759 
L 142.054215 32.112151 
L 143.283967 32.054692 
L 144.513719 32.001115 
L 145.743471 31.951169 
L 146.973223 31.904618 
L 148.202975 31.86124 
L 149.432727 31.820828 
" clip-path="url(#p0918c3ac55)" style="fill: none; stroke-dasharray: 5.55,2.4; stroke-dashoffset: 0; stroke: #1f77b4; stroke-width: 1.5"/>
   </g>
   <g id="LineCollection_1">
    <path d="M 27.687273 120.388673 
L 27.687273 120.388673 
" clip-path="url(#p0918c3ac55)" style="fill: none; stroke: #1f77b4; stroke-width: 1.5"/>
    <path d="M 30.730909 123.12 
L 30.730909 112.490398 
" clip-path="url(#p0918c3ac55)" style="fill: none; stroke: #1f77b4; stroke-width: 1.5"/>
    <path d="M 33.774545 123.019066 
L 33.774545 110.552231 
" clip-path="url(#p0918c3ac55)" style="fill: none; stroke: #1f77b4; stroke-width: 1.5"/>
    <path d="M 39.861818 122.67225 
L 39.861818 109.305988 
" clip-path="url(#p0918c3ac55)" style="fill: none; stroke: #1f77b4; stroke-width: 1.5"/>
    <path d="M 52.036364 100.049916 
L 52.036364 83.321326 
" clip-path="url(#p0918c3ac55)" style="fill: none; stroke: #1f77b4; stroke-width: 1.5"/>
    <path d="M 63.196364 88.438449 
L 63.196364 69.673866 
" clip-path="url(#p0918c3ac55)" style="fill: none; stroke: #1f77b4; stroke-width: 1.5"/>
    <path d="M 76.385455 71.099462 
L 76.385455 51.059532 
" clip-path="url(#p0918c3ac55)" style="fill: none; stroke: #1f77b4; stroke-width: 1.5"/>
    <path d="M 101.749091 43.32512 
L 101.749091 24.522375 
" clip-path="url(#p0918c3ac55)" style="fill: none; stroke: #1f77b4; stroke-width: 1.5"/>
    <path d="M 125.083636 40.25589 
L 125.083636 22.32 
" clip-path="url(#p0918c3ac55)" style="fill: none; stroke: #1f77b4; stroke-width: 1.5"/>
   </g>
   <g id="line2d_13">
    <defs>
     <path id="m9a9cf0a3e9" d="M 6 0 
L -6 -0 
" style="stroke: #1f77b4"/>
    </defs>
    <g clip-path="url(#p0918c3ac55)">
     <use xlink:href="#m9a9cf0a3e9" x="27.687273" y="120.388673" style="fill: #1f77b4; stroke: #1f77b4"/>
     <use xlink:href="#m9a9cf0a3e9" x="30.730909" y="123.12" style="fill: #1f77b4; stroke: #1f77b4"/>
     <use xlink:href="#m9a9cf0a3e9" x="33.774545" y="123.019066" style="fill: #1f77b4; stroke: #1f77b4"/>
     <use xlink:href="#m9a9cf0a3e9" x="39.861818" y="122.67225" style="fill: #1f77b4; stroke: #1f77b4"/>
     <use xlink:href="#m9a9cf0a3e9" x="52.036364" y="100.049916" style="fill: #1f77b4; stroke: #1f77b4"/>
     <use xlink:href="#m9a9cf0a3e9" x="63.196364" y="88.438449" style="fill: #1f77b4; stroke: #1f77b4"/>
     <use xlink:href="#m9a9cf0a3e9" x="76.385455" y="71.099462" style="fill: #1f77b4; stroke: #1f77b4"/>
     <use xlink:href="#m9a9cf0a3e9" x="101.749091" y="43.32512" style="fill: #1f77b4; stroke: #1f77b4"/>
     <use xlink:href="#m9a9cf0a3e9" x="125.083636" y="40.25589" style="fill: #1f77b4; stroke: #1f77b4"/>
    </g>
   </g>
   <g id="line2d_14">
    <g clip-path="url(#p0918c3ac55)">
     <use xlink:href="#m9a9cf0a3e9" x="27.687273" y="120.388673" style="fill: #1f77b4; stroke: #1f77b4"/>
     <use xlink:href="#m9a9cf0a3e9" x="30.730909" y="112.490398" style="fill: #1f77b4; stroke: #1f77b4"/>
     <use xlink:href="#m9a9cf0a3e9" x="33.774545" y="110.552231" style="fill: #1f77b4; stroke: #1f77b4"/>
     <use xlink:href="#m9a9cf0a3e9" x="39.861818" y="109.305988" style="fill: #1f77b4; stroke: #1f77b4"/>
     <use xlink:href="#m9a9cf0a3e9" x="52.036364" y="83.321326" style="fill: #1f77b4; stroke: #1f77b4"/>
     <use xlink:href="#m9a9cf0a3e9" x="63.196364" y="69.673866" style="fill: #1f77b4; stroke: #1f77b4"/>
     <use xlink:href="#m9a9cf0a3e9" x="76.385455" y="51.059532" style="fill: #1f77b4; stroke: #1f77b4"/>
     <use xlink:href="#m9a9cf0a3e9" x="101.749091" y="24.522375" style="fill: #1f77b4; stroke: #1f77b4"/>
     <use xlink:href="#m9a9cf0a3e9" x="125.083636" y="22.32" style="fill: #1f77b4; stroke: #1f77b4"/>
    </g>
   </g>
   <g id="line2d_15">
    <path d="M 27.687273 120.388673 
L 28.917025 92.069116 
L 30.146777 72.750578 
L 31.376529 59.572196 
L 32.606281 50.582399 
L 33.836033 44.449897 
L 35.065785 40.266535 
L 36.295537 37.412802 
L 37.525289 35.466092 
L 38.755041 34.13812 
L 39.984793 33.232228 
L 41.214545 32.614262 
L 42.444298 32.192708 
L 43.67405 31.905141 
L 44.903802 31.708973 
L 46.133554 31.575154 
L 47.363306 31.483868 
L 48.593058 31.421597 
L 49.82281 31.379117 
L 51.052562 31.350139 
L 52.282314 31.330372 
L 53.512066 31.316887 
L 54.741818 31.307688 
L 55.97157 31.301413 
L 57.201322 31.297132 
L 58.431074 31.294212 
L 59.660826 31.29222 
L 60.890579 31.290862 
L 62.120331 31.289935 
L 63.350083 31.289302 
L 64.579835 31.288871 
L 65.809587 31.288577 
L 67.039339 31.288376 
L 68.269091 31.288239 
L 69.498843 31.288146 
L 70.728595 31.288082 
L 71.958347 31.288038 
L 73.188099 31.288009 
L 74.417851 31.287989 
L 75.647603 31.287975 
L 76.877355 31.287965 
L 78.107107 31.287959 
L 79.33686 31.287955 
L 80.566612 31.287952 
L 81.796364 31.28795 
L 83.026116 31.287948 
L 84.255868 31.287947 
L 85.48562 31.287947 
L 86.715372 31.287946 
L 87.945124 31.287946 
L 89.174876 31.287946 
L 90.404628 31.287945 
L 91.63438 31.287945 
L 92.864132 31.287945 
L 94.093884 31.287945 
L 95.323636 31.287945 
L 96.553388 31.287945 
L 97.78314 31.287945 
L 99.012893 31.287945 
L 100.242645 31.287945 
L 101.472397 31.287945 
L 102.702149 31.287945 
L 103.931901 31.287945 
L 105.161653 31.287945 
L 106.391405 31.287945 
L 107.621157 31.287945 
L 108.850909 31.287945 
L 110.080661 31.287945 
L 111.310413 31.287945 
L 112.540165 31.287945 
L 113.769917 31.287945 
L 114.999669 31.287945 
L 116.229421 31.287945 
L 117.459174 31.287945 
L 118.688926 31.287945 
L 119.918678 31.287945 
L 121.14843 31.287945 
L 122.378182 31.287945 
L 123.607934 31.287945 
L 124.837686 31.287945 
L 126.067438 31.287945 
L 127.29719 31.287945 
L 128.526942 31.287945 
L 129.756694 31.287945 
L 130.986446 31.287945 
L 132.216198 31.287945 
L 133.44595 31.287945 
L 134.675702 31.287945 
L 135.905455 31.287945 
L 137.135207 31.287945 
L 138.364959 31.287945 
L 139.594711 31.287945 
L 140.824463 31.287945 
L 142.054215 31.287945 
L 143.283967 31.287945 
L 144.513719 31.287945 
L 145.743471 31.287945 
L 146.973223 31.287945 
L 148.202975 31.287945 
L 149.432727 31.287945 
" clip-path="url(#p0918c3ac55)" style="fill: none; stroke-dasharray: 5.55,2.4; stroke-dashoffset: 0; stroke: #7f7f7f; stroke-width: 1.5"/>
   </g>
   <g id="line2d_16">
    <path d="M 27.687273 120.388673 
L 28.917025 120.385541 
L 30.146777 120.34833 
L 31.376529 120.217639 
L 32.606281 119.928459 
L 33.836033 119.423047 
L 35.065785 118.657036 
L 36.295537 117.601562 
L 37.525289 116.243057 
L 38.755041 114.58172 
L 39.984793 112.629334 
L 41.214545 110.40685 
L 42.444298 107.942 
L 43.67405 105.267107 
L 44.903802 102.417153 
L 46.133554 99.42816 
L 47.363306 96.335869 
L 48.593058 93.174719 
L 49.82281 89.977074 
L 51.052562 86.772693 
L 52.282314 83.588378 
L 53.512066 80.447801 
L 54.741818 77.371441 
L 55.97157 74.376635 
L 57.201322 71.477702 
L 58.431074 68.686113 
L 59.660826 66.010715 
L 60.890579 63.457959 
L 62.120331 61.032155 
L 63.350083 58.735718 
L 64.579835 56.569412 
L 65.809587 54.532591 
L 67.039339 52.62341 
L 68.269091 50.839037 
L 69.498843 49.175835 
L 70.728595 47.629535 
L 71.958347 46.195379 
L 73.188099 44.868258 
L 74.417851 43.642825 
L 75.647603 42.513594 
L 76.877355 41.475023 
L 78.107107 40.52159 
L 79.33686 39.647843 
L 80.566612 38.848455 
L 81.796364 38.118257 
L 83.026116 37.452272 
L 84.255868 36.845732 
L 85.48562 36.294095 
L 86.715372 35.793056 
L 87.945124 35.338552 
L 89.174876 34.926765 
L 90.404628 34.554115 
L 91.63438 34.217261 
L 92.864132 33.913095 
L 94.093884 33.63873 
L 95.323636 33.391493 
L 96.553388 33.168918 
L 97.78314 32.968731 
L 99.012893 32.788842 
L 100.242645 32.627332 
L 101.472397 32.482446 
L 102.702149 32.352577 
L 103.931901 32.23626 
L 105.161653 32.132161 
L 106.391405 32.039063 
L 107.621157 31.955864 
L 108.850909 31.881562 
L 110.080661 31.81525 
L 111.310413 31.756108 
L 112.540165 31.703393 
L 113.769917 31.656435 
L 114.999669 31.614631 
L 116.229421 31.577437 
L 117.459174 31.544362 
L 118.688926 31.514967 
L 119.918678 31.488855 
L 121.14843 31.465673 
L 122.378182 31.445101 
L 123.607934 31.426856 
L 124.837686 31.41068 
L 126.067438 31.396348 
L 127.29719 31.383653 
L 128.526942 31.372414 
L 129.756694 31.362468 
L 130.986446 31.353671 
L 132.216198 31.345892 
L 133.44595 31.339017 
L 134.675702 31.332943 
L 135.905455 31.327579 
L 137.135207 31.322843 
L 138.364959 31.318663 
L 139.594711 31.314977 
L 140.824463 31.311725 
L 142.054215 31.308859 
L 143.283967 31.306333 
L 144.513719 31.304107 
L 145.743471 31.302147 
L 146.973223 31.300422 
L 148.202975 31.298903 
L 149.432727 31.297566 
" clip-path="url(#p0918c3ac55)" style="fill: none; stroke-dasharray: 5.55,2.4; stroke-dashoffset: 0; stroke: #d3d3d3; stroke-width: 1.5"/>
   </g>
   <g id="line2d_17">
    <defs>
     <path id="m7f9c990fba" d="M 0 1.5 
C 0.397805 1.5 0.77937 1.341951 1.06066 1.06066 
C 1.341951 0.77937 1.5 0.397805 1.5 0 
C 1.5 -0.397805 1.341951 -0.77937 1.06066 -1.06066 
C 0.77937 -1.341951 0.397805 -1.5 0 -1.5 
C -0.397805 -1.5 -0.77937 -1.341951 -1.06066 -1.06066 
C -1.341951 -0.77937 -1.5 -0.397805 -1.5 0 
C -1.5 0.397805 -1.341951 0.77937 -1.06066 1.06066 
C -0.77937 1.341951 -0.397805 1.5 0 1.5 
z
" style="stroke: #1f77b4"/>
    </defs>
    <g clip-path="url(#p0918c3ac55)">
     <use xlink:href="#m7f9c990fba" x="27.687273" y="120.388673" style="fill: #1f77b4; stroke: #1f77b4"/>
     <use xlink:href="#m7f9c990fba" x="30.730909" y="117.805199" style="fill: #1f77b4; stroke: #1f77b4"/>
     <use xlink:href="#m7f9c990fba" x="33.774545" y="116.785649" style="fill: #1f77b4; stroke: #1f77b4"/>
     <use xlink:href="#m7f9c990fba" x="39.861818" y="115.989119" style="fill: #1f77b4; stroke: #1f77b4"/>
     <use xlink:href="#m7f9c990fba" x="52.036364" y="91.685621" style="fill: #1f77b4; stroke: #1f77b4"/>
     <use xlink:href="#m7f9c990fba" x="63.196364" y="79.056158" style="fill: #1f77b4; stroke: #1f77b4"/>
     <use xlink:href="#m7f9c990fba" x="76.385455" y="61.079497" style="fill: #1f77b4; stroke: #1f77b4"/>
     <use xlink:href="#m7f9c990fba" x="101.749091" y="33.923747" style="fill: #1f77b4; stroke: #1f77b4"/>
     <use xlink:href="#m7f9c990fba" x="125.083636" y="31.287945" style="fill: #1f77b4; stroke: #1f77b4"/>
    </g>
   </g>
   <g id="patch_3">
    <path d="M 21.6 128.16 
L 21.6 17.28 
" style="fill: none; stroke: #000000; stroke-width: 0.8; stroke-linejoin: miter; stroke-linecap: square"/>
   </g>
   <g id="patch_4">
    <path d="M 155.52 128.16 
L 155.52 17.28 
" style="fill: none; stroke: #000000; stroke-width: 0.8; stroke-linejoin: miter; stroke-linecap: square"/>
   </g>
   <g id="patch_5">
    <path d="M 21.6 128.16 
L 155.52 128.16 
" style="fill: none; stroke: #000000; stroke-width: 0.8; stroke-linejoin: miter; stroke-linecap: square"/>
   </g>
   <g id="patch_6">
    <path d="M 21.6 17.28 
L 155.52 17.28 
" style="fill: none; stroke: #000000; stroke-width: 0.8; stroke-linejoin: miter; stroke-linecap: square"/>
   </g>
   <g id="PathCollection_2">
    <defs>
     <path id="m9172021727" d="M 0 1.581139 
C 0.419323 1.581139 0.821528 1.41454 1.118034 1.118034 
C 1.41454 0.821528 1.581139 0.419323 1.581139 0 
C 1.581139 -0.419323 1.41454 -0.821528 1.118034 -1.118034 
C 0.821528 -1.41454 0.419323 -1.581139 0 -1.581139 
C -0.419323 -1.581139 -0.821528 -1.41454 -1.118034 -1.118034 
C -1.41454 -0.821528 -1.581139 -0.419323 -1.581139 0 
C -1.581139 0.419323 -1.41454 0.821528 -1.118034 1.118034 
C -0.821528 1.41454 -0.419323 1.581139 0 1.581139 
z
" style="stroke: #7f7f7f"/>
    </defs>
    <g clip-path="url(#p0918c3ac55)">
     <use xlink:href="#m9172021727" x="27.687273" y="120.388673" style="fill: #7f7f7f; stroke: #7f7f7f"/>
     <use xlink:href="#m9172021727" x="30.730909" y="57.047134" style="fill: #7f7f7f; stroke: #7f7f7f"/>
     <use xlink:href="#m9172021727" x="33.774545" y="50.939347" style="fill: #7f7f7f; stroke: #7f7f7f"/>
     <use xlink:href="#m9172021727" x="39.861818" y="50.323984" style="fill: #7f7f7f; stroke: #7f7f7f"/>
     <use xlink:href="#m9172021727" x="52.036364" y="31.287945" style="fill: #7f7f7f; stroke: #7f7f7f"/>
     <use xlink:href="#m9172021727" x="63.196364" y="34.523525" style="fill: #7f7f7f; stroke: #7f7f7f"/>
     <use xlink:href="#m9172021727" x="76.385455" y="43.485774" style="fill: #7f7f7f; stroke: #7f7f7f"/>
     <use xlink:href="#m9172021727" x="101.749091" y="41.020717" style="fill: #7f7f7f; stroke: #7f7f7f"/>
     <use xlink:href="#m9172021727" x="125.083636" y="53.378294" style="fill: #7f7f7f; stroke: #7f7f7f"/>
     <use xlink:href="#m9172021727" x="149.432727" y="68.960684" style="fill: #7f7f7f; stroke: #7f7f7f"/>
    </g>
   </g>
  </g>
 </g>
 <defs>
  <clipPath id="p0918c3ac55">
   <rect x="21.6" y="17.28" width="133.92" height="110.88"/>
  </clipPath>
 </defs>
</svg>
