<?xml version="1.0" encoding="utf-8" standalone="no"?>
<!DOCTYPE svg PUBLIC "-//W3C//DTD SVG 1.1//EN"
  "http://www.w3.org/Graphics/SVG/1.1/DTD/svg11.dtd">
<svg xmlns:xlink="http://www.w3.org/1999/xlink" width="172.8pt" height="151.2pt" viewBox="0 0 172.8 151.2" xmlns="http://www.w3.org/2000/svg" version="1.1">
 <metadata>
  <rdf:RDF xmlns:dc="http://purl.org/dc/elements/1.1/" xmlns:cc="http://creativecommons.org/ns#" xmlns:rdf="http://www.w3.org/1999/02/22-rdf-syntax-ns#">
   <cc:Work>
    <dc:type rdf:resource="http://purl.org/dc/dcmitype/StillImage"/>
    <dc:date>2022-08-10T14:21:25.750994</dc:date>
    <dc:format>image/svg+xml</dc:format>
    <dc:creator>
     <cc:Agent>
      <dc:title>Matplotlib v3.5.1, https://matplotlib.org/</dc:title>
     </cc:Agent>
    </dc:creator>
   </cc:Work>
  </rdf:RDF>
 </metadata>
 <defs>
  <style type="text/css">*{stroke-linejoin: round; stroke-linecap: butt}</style>
 </defs>
 <g id="figure_1">
  <g id="patch_1">
   <path d="M 0 151.2 
L 172.8 151.2 
L 172.8 0 
L 0 0 
z
" style="fill: #ffffff"/>
  </g>
  <g id="axes_1">
   <g id="patch_2">
    <path d="M 40.51 114.27875 
L 161.472273 114.27875 
L 161.472273 10.8 
L 40.51 10.8 
z
" style="fill: #ffffff"/>
   </g>
   <g id="matplotlib.axis_1">
    <g id="xtick_1">
     <g id="line2d_1">
      <defs>
       <path id="m69afd6eb74" d="M 0 0 
L 0 4 
" style="stroke: #262626; stroke-width: 0.8"/>
      </defs>
      <g>
       <use xlink:href="#m69afd6eb74" x="46.008285" y="114.27875" style="fill: #262626; stroke: #262626; stroke-width: 0.8"/>
      </g>
     </g>
     <g id="text_1">
      <!-- 0 -->
      <g style="fill: #262626" transform="translate(43.78391 126.005)scale(0.08 -0.08)">
       <defs>
        <path id="ArialMT-30" d="M 266 2259 
Q 266 3072 433 3567 
Q 600 4063 929 4331 
Q 1259 4600 1759 4600 
Q 2128 4600 2406 4451 
Q 2684 4303 2865 4023 
Q 3047 3744 3150 3342 
Q 3253 2941 3253 2259 
Q 3253 1453 3087 958 
Q 2922 463 2592 192 
Q 2263 -78 1759 -78 
Q 1097 -78 719 397 
Q 266 969 266 2259 
z
M 844 2259 
Q 844 1131 1108 757 
Q 1372 384 1759 384 
Q 2147 384 2411 759 
Q 2675 1134 2675 2259 
Q 2675 3391 2411 3762 
Q 2147 4134 1753 4134 
Q 1366 4134 1134 3806 
Q 844 3388 844 2259 
z
" transform="scale(0.015625)"/>
       </defs>
       <use xlink:href="#ArialMT-30"/>
      </g>
     </g>
    </g>
    <g id="xtick_2">
     <g id="line2d_2">
      <g>
       <use xlink:href="#m69afd6eb74" x="68.001426" y="114.27875" style="fill: #262626; stroke: #262626; stroke-width: 0.8"/>
      </g>
     </g>
     <g id="text_2">
      <!-- 24 -->
      <g style="fill: #262626" transform="translate(63.552676 126.005)scale(0.08 -0.08)">
       <defs>
        <path id="ArialMT-32" d="M 3222 541 
L 3222 0 
L 194 0 
Q 188 203 259 391 
Q 375 700 629 1000 
Q 884 1300 1366 1694 
Q 2113 2306 2375 2664 
Q 2638 3022 2638 3341 
Q 2638 3675 2398 3904 
Q 2159 4134 1775 4134 
Q 1369 4134 1125 3890 
Q 881 3647 878 3216 
L 300 3275 
Q 359 3922 746 4261 
Q 1134 4600 1788 4600 
Q 2447 4600 2831 4234 
Q 3216 3869 3216 3328 
Q 3216 3053 3103 2787 
Q 2991 2522 2730 2228 
Q 2469 1934 1863 1422 
Q 1356 997 1212 845 
Q 1069 694 975 541 
L 3222 541 
z
" transform="scale(0.015625)"/>
        <path id="ArialMT-34" d="M 2069 0 
L 2069 1097 
L 81 1097 
L 81 1613 
L 2172 4581 
L 2631 4581 
L 2631 1613 
L 3250 1613 
L 3250 1097 
L 2631 1097 
L 2631 0 
L 2069 0 
z
M 2069 1613 
L 2069 3678 
L 634 1613 
L 2069 1613 
z
" transform="scale(0.015625)"/>
       </defs>
       <use xlink:href="#ArialMT-32"/>
       <use xlink:href="#ArialMT-34" x="55.615234"/>
      </g>
     </g>
    </g>
    <g id="xtick_3">
     <g id="line2d_3">
      <g>
       <use xlink:href="#m69afd6eb74" x="89.994566" y="114.27875" style="fill: #262626; stroke: #262626; stroke-width: 0.8"/>
      </g>
     </g>
     <g id="text_3">
      <!-- 48 -->
      <g style="fill: #262626" transform="translate(85.545816 126.005)scale(0.08 -0.08)">
       <defs>
        <path id="ArialMT-38" d="M 1131 2484 
Q 781 2613 612 2850 
Q 444 3088 444 3419 
Q 444 3919 803 4259 
Q 1163 4600 1759 4600 
Q 2359 4600 2725 4251 
Q 3091 3903 3091 3403 
Q 3091 3084 2923 2848 
Q 2756 2613 2416 2484 
Q 2838 2347 3058 2040 
Q 3278 1734 3278 1309 
Q 3278 722 2862 322 
Q 2447 -78 1769 -78 
Q 1091 -78 675 323 
Q 259 725 259 1325 
Q 259 1772 486 2073 
Q 713 2375 1131 2484 
z
M 1019 3438 
Q 1019 3113 1228 2906 
Q 1438 2700 1772 2700 
Q 2097 2700 2305 2904 
Q 2513 3109 2513 3406 
Q 2513 3716 2298 3927 
Q 2084 4138 1766 4138 
Q 1444 4138 1231 3931 
Q 1019 3725 1019 3438 
z
M 838 1322 
Q 838 1081 952 856 
Q 1066 631 1291 507 
Q 1516 384 1775 384 
Q 2178 384 2440 643 
Q 2703 903 2703 1303 
Q 2703 1709 2433 1975 
Q 2163 2241 1756 2241 
Q 1359 2241 1098 1978 
Q 838 1716 838 1322 
z
" transform="scale(0.015625)"/>
       </defs>
       <use xlink:href="#ArialMT-34"/>
       <use xlink:href="#ArialMT-38" x="55.615234"/>
      </g>
     </g>
    </g>
    <g id="xtick_4">
     <g id="line2d_4">
      <g>
       <use xlink:href="#m69afd6eb74" x="111.987707" y="114.27875" style="fill: #262626; stroke: #262626; stroke-width: 0.8"/>
      </g>
     </g>
     <g id="text_4">
      <!-- 72 -->
      <g style="fill: #262626" transform="translate(107.538957 126.005)scale(0.08 -0.08)">
       <defs>
        <path id="ArialMT-37" d="M 303 3981 
L 303 4522 
L 3269 4522 
L 3269 4084 
Q 2831 3619 2401 2847 
Q 1972 2075 1738 1259 
Q 1569 684 1522 0 
L 944 0 
Q 953 541 1156 1306 
Q 1359 2072 1739 2783 
Q 2119 3494 2547 3981 
L 303 3981 
z
" transform="scale(0.015625)"/>
       </defs>
       <use xlink:href="#ArialMT-37"/>
       <use xlink:href="#ArialMT-32" x="55.615234"/>
      </g>
     </g>
    </g>
    <g id="xtick_5">
     <g id="line2d_5">
      <g>
       <use xlink:href="#m69afd6eb74" x="133.980847" y="114.27875" style="fill: #262626; stroke: #262626; stroke-width: 0.8"/>
      </g>
     </g>
     <g id="text_5">
      <!-- 96 -->
      <g style="fill: #262626" transform="translate(129.532097 126.005)scale(0.08 -0.08)">
       <defs>
        <path id="ArialMT-39" d="M 350 1059 
L 891 1109 
Q 959 728 1153 556 
Q 1347 384 1650 384 
Q 1909 384 2104 503 
Q 2300 622 2425 820 
Q 2550 1019 2634 1356 
Q 2719 1694 2719 2044 
Q 2719 2081 2716 2156 
Q 2547 1888 2255 1720 
Q 1963 1553 1622 1553 
Q 1053 1553 659 1965 
Q 266 2378 266 3053 
Q 266 3750 677 4175 
Q 1088 4600 1706 4600 
Q 2153 4600 2523 4359 
Q 2894 4119 3086 3673 
Q 3278 3228 3278 2384 
Q 3278 1506 3087 986 
Q 2897 466 2520 194 
Q 2144 -78 1638 -78 
Q 1100 -78 759 220 
Q 419 519 350 1059 
z
M 2653 3081 
Q 2653 3566 2395 3850 
Q 2138 4134 1775 4134 
Q 1400 4134 1122 3828 
Q 844 3522 844 3034 
Q 844 2597 1108 2323 
Q 1372 2050 1759 2050 
Q 2150 2050 2401 2323 
Q 2653 2597 2653 3081 
z
" transform="scale(0.015625)"/>
        <path id="ArialMT-36" d="M 3184 3459 
L 2625 3416 
Q 2550 3747 2413 3897 
Q 2184 4138 1850 4138 
Q 1581 4138 1378 3988 
Q 1113 3794 959 3422 
Q 806 3050 800 2363 
Q 1003 2672 1297 2822 
Q 1591 2972 1913 2972 
Q 2475 2972 2870 2558 
Q 3266 2144 3266 1488 
Q 3266 1056 3080 686 
Q 2894 316 2569 119 
Q 2244 -78 1831 -78 
Q 1128 -78 684 439 
Q 241 956 241 2144 
Q 241 3472 731 4075 
Q 1159 4600 1884 4600 
Q 2425 4600 2770 4297 
Q 3116 3994 3184 3459 
z
M 888 1484 
Q 888 1194 1011 928 
Q 1134 663 1356 523 
Q 1578 384 1822 384 
Q 2178 384 2434 671 
Q 2691 959 2691 1453 
Q 2691 1928 2437 2201 
Q 2184 2475 1800 2475 
Q 1419 2475 1153 2201 
Q 888 1928 888 1484 
z
" transform="scale(0.015625)"/>
       </defs>
       <use xlink:href="#ArialMT-39"/>
       <use xlink:href="#ArialMT-36" x="55.615234"/>
      </g>
     </g>
    </g>
    <g id="xtick_6">
     <g id="line2d_6">
      <g>
       <use xlink:href="#m69afd6eb74" x="155.973988" y="114.27875" style="fill: #262626; stroke: #262626; stroke-width: 0.8"/>
      </g>
     </g>
     <g id="text_6">
      <!-- 120 -->
      <g style="fill: #262626" transform="translate(149.300863 126.005)scale(0.08 -0.08)">
       <defs>
        <path id="ArialMT-31" d="M 2384 0 
L 1822 0 
L 1822 3584 
Q 1619 3391 1289 3197 
Q 959 3003 697 2906 
L 697 3450 
Q 1169 3672 1522 3987 
Q 1875 4303 2022 4600 
L 2384 4600 
L 2384 0 
z
" transform="scale(0.015625)"/>
       </defs>
       <use xlink:href="#ArialMT-31"/>
       <use xlink:href="#ArialMT-32" x="55.615234"/>
       <use xlink:href="#ArialMT-30" x="111.230469"/>
      </g>
     </g>
    </g>
    <g id="text_7">
     <!-- time (h) -->
     <g style="fill: #262626" transform="translate(85.741058 138.146719)scale(0.09 -0.09)">
      <defs>
       <path id="ArialMT-74" d="M 1650 503 
L 1731 6 
Q 1494 -44 1306 -44 
Q 1000 -44 831 53 
Q 663 150 594 308 
Q 525 466 525 972 
L 525 2881 
L 113 2881 
L 113 3319 
L 525 3319 
L 525 4141 
L 1084 4478 
L 1084 3319 
L 1650 3319 
L 1650 2881 
L 1084 2881 
L 1084 941 
Q 1084 700 1114 631 
Q 1144 563 1211 522 
Q 1278 481 1403 481 
Q 1497 481 1650 503 
z
" transform="scale(0.015625)"/>
       <path id="ArialMT-69" d="M 425 3934 
L 425 4581 
L 988 4581 
L 988 3934 
L 425 3934 
z
M 425 0 
L 425 3319 
L 988 3319 
L 988 0 
L 425 0 
z
" transform="scale(0.015625)"/>
       <path id="ArialMT-6d" d="M 422 0 
L 422 3319 
L 925 3319 
L 925 2853 
Q 1081 3097 1340 3245 
Q 1600 3394 1931 3394 
Q 2300 3394 2536 3241 
Q 2772 3088 2869 2813 
Q 3263 3394 3894 3394 
Q 4388 3394 4653 3120 
Q 4919 2847 4919 2278 
L 4919 0 
L 4359 0 
L 4359 2091 
Q 4359 2428 4304 2576 
Q 4250 2725 4106 2815 
Q 3963 2906 3769 2906 
Q 3419 2906 3187 2673 
Q 2956 2441 2956 1928 
L 2956 0 
L 2394 0 
L 2394 2156 
Q 2394 2531 2256 2718 
Q 2119 2906 1806 2906 
Q 1569 2906 1367 2781 
Q 1166 2656 1075 2415 
Q 984 2175 984 1722 
L 984 0 
L 422 0 
z
" transform="scale(0.015625)"/>
       <path id="ArialMT-65" d="M 2694 1069 
L 3275 997 
Q 3138 488 2766 206 
Q 2394 -75 1816 -75 
Q 1088 -75 661 373 
Q 234 822 234 1631 
Q 234 2469 665 2931 
Q 1097 3394 1784 3394 
Q 2450 3394 2872 2941 
Q 3294 2488 3294 1666 
Q 3294 1616 3291 1516 
L 816 1516 
Q 847 969 1125 678 
Q 1403 388 1819 388 
Q 2128 388 2347 550 
Q 2566 713 2694 1069 
z
M 847 1978 
L 2700 1978 
Q 2663 2397 2488 2606 
Q 2219 2931 1791 2931 
Q 1403 2931 1139 2672 
Q 875 2413 847 1978 
z
" transform="scale(0.015625)"/>
       <path id="ArialMT-20" transform="scale(0.015625)"/>
       <path id="ArialMT-28" d="M 1497 -1347 
Q 1031 -759 709 28 
Q 388 816 388 1659 
Q 388 2403 628 3084 
Q 909 3875 1497 4659 
L 1900 4659 
Q 1522 4009 1400 3731 
Q 1209 3300 1100 2831 
Q 966 2247 966 1656 
Q 966 153 1900 -1347 
L 1497 -1347 
z
" transform="scale(0.015625)"/>
       <path id="ArialMT-68" d="M 422 0 
L 422 4581 
L 984 4581 
L 984 2938 
Q 1378 3394 1978 3394 
Q 2347 3394 2619 3248 
Q 2891 3103 3008 2847 
Q 3125 2591 3125 2103 
L 3125 0 
L 2563 0 
L 2563 2103 
Q 2563 2525 2380 2717 
Q 2197 2909 1863 2909 
Q 1613 2909 1392 2779 
Q 1172 2650 1078 2428 
Q 984 2206 984 1816 
L 984 0 
L 422 0 
z
" transform="scale(0.015625)"/>
       <path id="ArialMT-29" d="M 791 -1347 
L 388 -1347 
Q 1322 153 1322 1656 
Q 1322 2244 1188 2822 
Q 1081 3291 891 3722 
Q 769 4003 388 4659 
L 791 4659 
Q 1378 3875 1659 3084 
Q 1900 2403 1900 1659 
Q 1900 816 1576 28 
Q 1253 -759 791 -1347 
z
" transform="scale(0.015625)"/>
      </defs>
      <use xlink:href="#ArialMT-74"/>
      <use xlink:href="#ArialMT-69" x="27.783203"/>
      <use xlink:href="#ArialMT-6d" x="50"/>
      <use xlink:href="#ArialMT-65" x="133.300781"/>
      <use xlink:href="#ArialMT-20" x="188.916016"/>
      <use xlink:href="#ArialMT-28" x="216.699219"/>
      <use xlink:href="#ArialMT-68" x="250"/>
      <use xlink:href="#ArialMT-29" x="305.615234"/>
     </g>
    </g>
   </g>
   <g id="matplotlib.axis_2">
    <g id="ytick_1">
     <g id="line2d_7">
      <defs>
       <path id="mb3daa7a9fb" d="M 0 0 
L -4 0 
" style="stroke: #262626; stroke-width: 0.8"/>
      </defs>
      <g>
       <use xlink:href="#mb3daa7a9fb" x="40.51" y="107.02616" style="fill: #262626; stroke: #262626; stroke-width: 0.8"/>
      </g>
     </g>
     <g id="text_8">
      <!-- 0.00 -->
      <g style="fill: #262626" transform="translate(18.94125 109.889285)scale(0.08 -0.08)">
       <defs>
        <path id="ArialMT-2e" d="M 581 0 
L 581 641 
L 1222 641 
L 1222 0 
L 581 0 
z
" transform="scale(0.015625)"/>
       </defs>
       <use xlink:href="#ArialMT-30"/>
       <use xlink:href="#ArialMT-2e" x="55.615234"/>
       <use xlink:href="#ArialMT-30" x="83.398438"/>
       <use xlink:href="#ArialMT-30" x="139.013672"/>
      </g>
     </g>
    </g>
    <g id="ytick_2">
     <g id="line2d_8">
      <g>
       <use xlink:href="#mb3daa7a9fb" x="40.51" y="86.237848" style="fill: #262626; stroke: #262626; stroke-width: 0.8"/>
      </g>
     </g>
     <g id="text_9">
      <!-- 0.25 -->
      <g style="fill: #262626" transform="translate(18.94125 89.100973)scale(0.08 -0.08)">
       <defs>
        <path id="ArialMT-35" d="M 266 1200 
L 856 1250 
Q 922 819 1161 601 
Q 1400 384 1738 384 
Q 2144 384 2425 690 
Q 2706 997 2706 1503 
Q 2706 1984 2436 2262 
Q 2166 2541 1728 2541 
Q 1456 2541 1237 2417 
Q 1019 2294 894 2097 
L 366 2166 
L 809 4519 
L 3088 4519 
L 3088 3981 
L 1259 3981 
L 1013 2750 
Q 1425 3038 1878 3038 
Q 2478 3038 2890 2622 
Q 3303 2206 3303 1553 
Q 3303 931 2941 478 
Q 2500 -78 1738 -78 
Q 1113 -78 717 272 
Q 322 622 266 1200 
z
" transform="scale(0.015625)"/>
       </defs>
       <use xlink:href="#ArialMT-30"/>
       <use xlink:href="#ArialMT-2e" x="55.615234"/>
       <use xlink:href="#ArialMT-32" x="83.398438"/>
       <use xlink:href="#ArialMT-35" x="139.013672"/>
      </g>
     </g>
    </g>
    <g id="ytick_3">
     <g id="line2d_9">
      <g>
       <use xlink:href="#mb3daa7a9fb" x="40.51" y="65.449537" style="fill: #262626; stroke: #262626; stroke-width: 0.8"/>
      </g>
     </g>
     <g id="text_10">
      <!-- 0.50 -->
      <g style="fill: #262626" transform="translate(18.94125 68.312662)scale(0.08 -0.08)">
       <use xlink:href="#ArialMT-30"/>
       <use xlink:href="#ArialMT-2e" x="55.615234"/>
       <use xlink:href="#ArialMT-35" x="83.398438"/>
       <use xlink:href="#ArialMT-30" x="139.013672"/>
      </g>
     </g>
    </g>
    <g id="ytick_4">
     <g id="line2d_10">
      <g>
       <use xlink:href="#mb3daa7a9fb" x="40.51" y="44.661225" style="fill: #262626; stroke: #262626; stroke-width: 0.8"/>
      </g>
     </g>
     <g id="text_11">
      <!-- 0.75 -->
      <g style="fill: #262626" transform="translate(18.94125 47.52435)scale(0.08 -0.08)">
       <use xlink:href="#ArialMT-30"/>
       <use xlink:href="#ArialMT-2e" x="55.615234"/>
       <use xlink:href="#ArialMT-37" x="83.398438"/>
       <use xlink:href="#ArialMT-35" x="139.013672"/>
      </g>
     </g>
    </g>
    <g id="ytick_5">
     <g id="line2d_11">
      <g>
       <use xlink:href="#mb3daa7a9fb" x="40.51" y="23.872914" style="fill: #262626; stroke: #262626; stroke-width: 0.8"/>
      </g>
     </g>
     <g id="text_12">
      <!-- 1.00 -->
      <g style="fill: #262626" transform="translate(18.94125 26.736039)scale(0.08 -0.08)">
       <use xlink:href="#ArialMT-31"/>
       <use xlink:href="#ArialMT-2e" x="55.615234"/>
       <use xlink:href="#ArialMT-30" x="83.398438"/>
       <use xlink:href="#ArialMT-30" x="139.013672"/>
      </g>
     </g>
    </g>
    <g id="text_13">
     <!-- % of maximum -->
     <g style="fill: #262626" transform="translate(13.1525 92.293516)rotate(-90)scale(0.09 -0.09)">
      <defs>
       <path id="ArialMT-25" d="M 372 3481 
Q 372 3972 619 4315 
Q 866 4659 1334 4659 
Q 1766 4659 2048 4351 
Q 2331 4044 2331 3447 
Q 2331 2866 2045 2552 
Q 1759 2238 1341 2238 
Q 925 2238 648 2547 
Q 372 2856 372 3481 
z
M 1350 4272 
Q 1141 4272 1002 4090 
Q 863 3909 863 3425 
Q 863 2984 1003 2804 
Q 1144 2625 1350 2625 
Q 1563 2625 1702 2806 
Q 1841 2988 1841 3469 
Q 1841 3913 1700 4092 
Q 1559 4272 1350 4272 
z
M 1353 -169 
L 3859 4659 
L 4316 4659 
L 1819 -169 
L 1353 -169 
z
M 3334 1075 
Q 3334 1569 3581 1911 
Q 3828 2253 4300 2253 
Q 4731 2253 5014 1945 
Q 5297 1638 5297 1041 
Q 5297 459 5011 145 
Q 4725 -169 4303 -169 
Q 3888 -169 3611 142 
Q 3334 453 3334 1075 
z
M 4316 1866 
Q 4103 1866 3964 1684 
Q 3825 1503 3825 1019 
Q 3825 581 3965 400 
Q 4106 219 4313 219 
Q 4528 219 4667 400 
Q 4806 581 4806 1063 
Q 4806 1506 4665 1686 
Q 4525 1866 4316 1866 
z
" transform="scale(0.015625)"/>
       <path id="ArialMT-6f" d="M 213 1659 
Q 213 2581 725 3025 
Q 1153 3394 1769 3394 
Q 2453 3394 2887 2945 
Q 3322 2497 3322 1706 
Q 3322 1066 3130 698 
Q 2938 331 2570 128 
Q 2203 -75 1769 -75 
Q 1072 -75 642 372 
Q 213 819 213 1659 
z
M 791 1659 
Q 791 1022 1069 705 
Q 1347 388 1769 388 
Q 2188 388 2466 706 
Q 2744 1025 2744 1678 
Q 2744 2294 2464 2611 
Q 2184 2928 1769 2928 
Q 1347 2928 1069 2612 
Q 791 2297 791 1659 
z
" transform="scale(0.015625)"/>
       <path id="ArialMT-66" d="M 556 0 
L 556 2881 
L 59 2881 
L 59 3319 
L 556 3319 
L 556 3672 
Q 556 4006 616 4169 
Q 697 4388 901 4523 
Q 1106 4659 1475 4659 
Q 1713 4659 2000 4603 
L 1916 4113 
Q 1741 4144 1584 4144 
Q 1328 4144 1222 4034 
Q 1116 3925 1116 3625 
L 1116 3319 
L 1763 3319 
L 1763 2881 
L 1116 2881 
L 1116 0 
L 556 0 
z
" transform="scale(0.015625)"/>
       <path id="ArialMT-61" d="M 2588 409 
Q 2275 144 1986 34 
Q 1697 -75 1366 -75 
Q 819 -75 525 192 
Q 231 459 231 875 
Q 231 1119 342 1320 
Q 453 1522 633 1644 
Q 813 1766 1038 1828 
Q 1203 1872 1538 1913 
Q 2219 1994 2541 2106 
Q 2544 2222 2544 2253 
Q 2544 2597 2384 2738 
Q 2169 2928 1744 2928 
Q 1347 2928 1158 2789 
Q 969 2650 878 2297 
L 328 2372 
Q 403 2725 575 2942 
Q 747 3159 1072 3276 
Q 1397 3394 1825 3394 
Q 2250 3394 2515 3294 
Q 2781 3194 2906 3042 
Q 3031 2891 3081 2659 
Q 3109 2516 3109 2141 
L 3109 1391 
Q 3109 606 3145 398 
Q 3181 191 3288 0 
L 2700 0 
Q 2613 175 2588 409 
z
M 2541 1666 
Q 2234 1541 1622 1453 
Q 1275 1403 1131 1340 
Q 988 1278 909 1158 
Q 831 1038 831 891 
Q 831 666 1001 516 
Q 1172 366 1500 366 
Q 1825 366 2078 508 
Q 2331 650 2450 897 
Q 2541 1088 2541 1459 
L 2541 1666 
z
" transform="scale(0.015625)"/>
       <path id="ArialMT-78" d="M 47 0 
L 1259 1725 
L 138 3319 
L 841 3319 
L 1350 2541 
Q 1494 2319 1581 2169 
Q 1719 2375 1834 2534 
L 2394 3319 
L 3066 3319 
L 1919 1756 
L 3153 0 
L 2463 0 
L 1781 1031 
L 1600 1309 
L 728 0 
L 47 0 
z
" transform="scale(0.015625)"/>
       <path id="ArialMT-75" d="M 2597 0 
L 2597 488 
Q 2209 -75 1544 -75 
Q 1250 -75 995 37 
Q 741 150 617 320 
Q 494 491 444 738 
Q 409 903 409 1263 
L 409 3319 
L 972 3319 
L 972 1478 
Q 972 1038 1006 884 
Q 1059 663 1231 536 
Q 1403 409 1656 409 
Q 1909 409 2131 539 
Q 2353 669 2445 892 
Q 2538 1116 2538 1541 
L 2538 3319 
L 3100 3319 
L 3100 0 
L 2597 0 
z
" transform="scale(0.015625)"/>
      </defs>
      <use xlink:href="#ArialMT-25"/>
      <use xlink:href="#ArialMT-20" x="88.916016"/>
      <use xlink:href="#ArialMT-6f" x="116.699219"/>
      <use xlink:href="#ArialMT-66" x="172.314453"/>
      <use xlink:href="#ArialMT-20" x="200.097656"/>
      <use xlink:href="#ArialMT-6d" x="227.880859"/>
      <use xlink:href="#ArialMT-61" x="311.181641"/>
      <use xlink:href="#ArialMT-78" x="366.796875"/>
      <use xlink:href="#ArialMT-69" x="416.796875"/>
      <use xlink:href="#ArialMT-6d" x="439.013672"/>
      <use xlink:href="#ArialMT-75" x="522.314453"/>
      <use xlink:href="#ArialMT-6d" x="577.929688"/>
     </g>
    </g>
   </g>
   <g id="PathCollection_1">
    <defs>
     <path id="m18ff9482bf" d="M 0 1.581139 
C 0.419323 1.581139 0.821528 1.41454 1.118034 1.118034 
C 1.41454 0.821528 1.581139 0.419323 1.581139 0 
C 1.581139 -0.419323 1.41454 -0.821528 1.118034 -1.118034 
C 0.821528 -1.41454 0.419323 -1.581139 0 -1.581139 
C -0.419323 -1.581139 -0.821528 -1.41454 -1.118034 -1.118034 
C -1.41454 -0.821528 -1.581139 -0.419323 -1.581139 0 
C -1.581139 0.419323 -1.41454 0.821528 -1.118034 1.118034 
C -0.821528 1.41454 -0.419323 1.581139 0 1.581139 
z
" style="stroke: #d3d3d3; stroke-width: 0.24"/>
    </defs>
    <g clip-path="url(#p8e61bc61cc)">
     <use xlink:href="#m18ff9482bf" x="46.008285" y="107.02616" style="fill: #d3d3d3; stroke: #d3d3d3; stroke-width: 0.24"/>
     <use xlink:href="#m18ff9482bf" x="48.757428" y="104.184933" style="fill: #d3d3d3; stroke: #d3d3d3; stroke-width: 0.24"/>
     <use xlink:href="#m18ff9482bf" x="51.50657" y="101.533121" style="fill: #d3d3d3; stroke: #d3d3d3; stroke-width: 0.24"/>
     <use xlink:href="#m18ff9482bf" x="57.004855" y="102.101366" style="fill: #d3d3d3; stroke: #d3d3d3; stroke-width: 0.24"/>
     <use xlink:href="#m18ff9482bf" x="68.001426" y="72.173774" style="fill: #d3d3d3; stroke: #d3d3d3; stroke-width: 0.24"/>
     <use xlink:href="#m18ff9482bf" x="78.997996" y="49.822788" style="fill: #d3d3d3; stroke: #d3d3d3; stroke-width: 0.24"/>
     <use xlink:href="#m18ff9482bf" x="89.994566" y="31.638934" style="fill: #d3d3d3; stroke: #d3d3d3; stroke-width: 0.24"/>
     <use xlink:href="#m18ff9482bf" x="111.987707" y="23.872914" style="fill: #d3d3d3; stroke: #d3d3d3; stroke-width: 0.24"/>
     <use xlink:href="#m18ff9482bf" x="133.980847" y="45.655655" style="fill: #d3d3d3; stroke: #d3d3d3; stroke-width: 0.24"/>
    </g>
   </g>
   <g id="line2d_12">
    <path d="M 46.008285 107.02616 
L 47.11905 107.015377 
L 48.229814 106.947081 
L 49.340579 106.779437 
L 50.451344 106.483567 
L 51.562108 106.040834 
L 52.672873 105.440752 
L 53.783638 104.679289 
L 54.894402 103.757473 
L 56.005167 102.680231 
L 57.115932 101.45543 
L 58.226697 100.093092 
L 59.337461 98.604734 
L 60.448226 97.002845 
L 61.558991 95.300451 
L 62.669755 93.510764 
L 63.78052 91.646915 
L 64.891285 89.721729 
L 66.002049 87.747567 
L 67.112814 85.7362 
L 68.223579 83.698718 
L 69.334343 81.645475 
L 70.445108 79.586048 
L 71.555873 77.529223 
L 72.666637 75.482993 
L 73.777402 73.454569 
L 74.888167 71.450396 
L 75.998931 69.476189 
L 77.109696 67.536957 
L 78.220461 65.637045 
L 79.331225 63.780175 
L 80.44199 61.969482 
L 81.552755 60.20756 
L 82.663519 58.496502 
L 83.774284 56.837941 
L 84.885049 55.233091 
L 85.995813 53.682785 
L 87.106578 52.187513 
L 88.217343 50.747455 
L 89.328107 49.362518 
L 90.438872 48.032362 
L 91.549637 46.756437 
L 92.660401 45.534002 
L 93.771166 44.364156 
L 94.881931 43.245859 
L 95.992695 42.177953 
L 97.10346 41.159183 
L 98.214225 40.188215 
L 99.324989 39.263649 
L 100.435754 38.384037 
L 101.546519 37.547895 
L 102.657283 36.753715 
L 103.768048 35.999974 
L 104.878813 35.285145 
L 105.989577 34.607703 
L 107.100342 33.966137 
L 108.211107 33.358949 
L 109.321871 32.784665 
L 110.432636 32.241838 
L 111.543401 31.72905 
L 112.654165 31.244919 
L 113.76493 30.788098 
L 114.875695 30.357278 
L 115.986459 29.951192 
L 117.097224 29.568611 
L 118.207989 29.208354 
L 119.318753 28.869276 
L 120.429518 28.550281 
L 121.540283 28.250312 
L 122.651047 27.968357 
L 123.761812 27.703446 
L 124.872577 27.454649 
L 125.983341 27.221079 
L 127.094106 27.001889 
L 128.204871 26.796271 
L 129.315635 26.603455 
L 130.4264 26.422708 
L 131.537165 26.253333 
L 132.64793 26.094668 
L 133.758694 25.946085 
L 134.869459 25.806988 
L 135.980224 25.676811 
L 137.090988 25.55502 
L 138.201753 25.441108 
L 139.312518 25.334597 
L 140.423282 25.235034 
L 141.534047 25.141991 
L 142.644812 25.055065 
L 143.755576 24.973874 
L 144.866341 24.898061 
L 145.977106 24.827287 
L 147.08787 24.761233 
L 148.198635 24.699599 
L 149.3094 24.642103 
L 150.420164 24.58848 
L 151.530929 24.538479 
L 152.641694 24.491867 
L 153.752458 24.448424 
L 154.863223 24.407941 
L 155.973988 24.370227 
" clip-path="url(#p8e61bc61cc)" style="fill: none; stroke-dasharray: 3.7,1.6; stroke-dashoffset: 0; stroke: #1f77b4"/>
   </g>
   <g id="LineCollection_1">
    <path d="M 46.008285 107.02616 
L 46.008285 107.02616 
" clip-path="url(#p8e61bc61cc)" style="fill: none; stroke: #1f77b4"/>
    <path d="M 48.757428 109.57517 
L 48.757428 99.655095 
" clip-path="url(#p8e61bc61cc)" style="fill: none; stroke: #1f77b4"/>
    <path d="M 51.50657 109.480974 
L 51.50657 97.846301 
" clip-path="url(#p8e61bc61cc)" style="fill: none; stroke: #1f77b4"/>
    <path d="M 57.004855 109.157308 
L 57.004855 96.683245 
" clip-path="url(#p8e61bc61cc)" style="fill: none; stroke: #1f77b4"/>
    <path d="M 68.001426 88.045016 
L 68.001426 72.433061 
" clip-path="url(#p8e61bc61cc)" style="fill: none; stroke: #1f77b4"/>
    <path d="M 78.081615 77.208616 
L 78.081615 59.696571 
" clip-path="url(#p8e61bc61cc)" style="fill: none; stroke: #1f77b4"/>
    <path d="M 89.994566 61.027008 
L 89.994566 42.324745 
" clip-path="url(#p8e61bc61cc)" style="fill: none; stroke: #1f77b4"/>
    <path d="M 112.904087 35.106606 
L 112.904087 17.558946 
" clip-path="url(#p8e61bc61cc)" style="fill: none; stroke: #1f77b4"/>
    <path d="M 133.980847 32.242248 
L 133.980847 15.50358 
" clip-path="url(#p8e61bc61cc)" style="fill: none; stroke: #1f77b4"/>
   </g>
   <g id="line2d_13">
    <defs>
     <path id="m6a7917384f" d="M 6 0 
L -6 -0 
" style="stroke: #1f77b4"/>
    </defs>
    <g clip-path="url(#p8e61bc61cc)">
     <use xlink:href="#m6a7917384f" x="46.008285" y="107.02616" style="fill: #1f77b4; stroke: #1f77b4"/>
     <use xlink:href="#m6a7917384f" x="48.757428" y="109.57517" style="fill: #1f77b4; stroke: #1f77b4"/>
     <use xlink:href="#m6a7917384f" x="51.50657" y="109.480974" style="fill: #1f77b4; stroke: #1f77b4"/>
     <use xlink:href="#m6a7917384f" x="57.004855" y="109.157308" style="fill: #1f77b4; stroke: #1f77b4"/>
     <use xlink:href="#m6a7917384f" x="68.001426" y="88.045016" style="fill: #1f77b4; stroke: #1f77b4"/>
     <use xlink:href="#m6a7917384f" x="78.081615" y="77.208616" style="fill: #1f77b4; stroke: #1f77b4"/>
     <use xlink:href="#m6a7917384f" x="89.994566" y="61.027008" style="fill: #1f77b4; stroke: #1f77b4"/>
     <use xlink:href="#m6a7917384f" x="112.904087" y="35.106606" style="fill: #1f77b4; stroke: #1f77b4"/>
     <use xlink:href="#m6a7917384f" x="133.980847" y="32.242248" style="fill: #1f77b4; stroke: #1f77b4"/>
    </g>
   </g>
   <g id="line2d_14">
    <g clip-path="url(#p8e61bc61cc)">
     <use xlink:href="#m6a7917384f" x="46.008285" y="107.02616" style="fill: #1f77b4; stroke: #1f77b4"/>
     <use xlink:href="#m6a7917384f" x="48.757428" y="99.655095" style="fill: #1f77b4; stroke: #1f77b4"/>
     <use xlink:href="#m6a7917384f" x="51.50657" y="97.846301" style="fill: #1f77b4; stroke: #1f77b4"/>
     <use xlink:href="#m6a7917384f" x="57.004855" y="96.683245" style="fill: #1f77b4; stroke: #1f77b4"/>
     <use xlink:href="#m6a7917384f" x="68.001426" y="72.433061" style="fill: #1f77b4; stroke: #1f77b4"/>
     <use xlink:href="#m6a7917384f" x="78.081615" y="59.696571" style="fill: #1f77b4; stroke: #1f77b4"/>
     <use xlink:href="#m6a7917384f" x="89.994566" y="42.324745" style="fill: #1f77b4; stroke: #1f77b4"/>
     <use xlink:href="#m6a7917384f" x="112.904087" y="17.558946" style="fill: #1f77b4; stroke: #1f77b4"/>
     <use xlink:href="#m6a7917384f" x="133.980847" y="15.50358" style="fill: #1f77b4; stroke: #1f77b4"/>
    </g>
   </g>
   <g id="line2d_15">
    <path d="M 46.008285 107.02616 
L 47.11905 80.596936 
L 48.229814 62.567912 
L 49.340579 50.269188 
L 50.451344 41.879461 
L 51.562108 36.156304 
L 52.672873 32.252181 
L 53.783638 29.588935 
L 54.894402 27.772169 
L 56.005167 26.532839 
L 57.115932 25.687415 
L 58.226697 25.110698 
L 59.337461 24.717284 
L 60.448226 24.448911 
L 61.558991 24.265838 
L 62.669755 24.140952 
L 63.78052 24.055759 
L 64.891285 23.997644 
L 66.002049 23.958 
L 67.112814 23.930956 
L 68.223579 23.912508 
L 69.334343 23.899923 
L 70.445108 23.891339 
L 71.555873 23.885482 
L 72.666637 23.881488 
L 73.777402 23.878762 
L 74.888167 23.876903 
L 75.998931 23.875635 
L 77.109696 23.87477 
L 78.220461 23.87418 
L 79.331225 23.873778 
L 80.44199 23.873503 
L 81.552755 23.873316 
L 82.663519 23.873188 
L 83.774284 23.873101 
L 84.885049 23.873041 
L 85.995813 23.873001 
L 87.106578 23.872973 
L 88.217343 23.872954 
L 89.328107 23.872941 
L 90.438872 23.872932 
L 91.549637 23.872926 
L 92.660401 23.872922 
L 93.771166 23.87292 
L 94.881931 23.872918 
L 95.992695 23.872916 
L 97.10346 23.872915 
L 98.214225 23.872915 
L 99.324989 23.872914 
L 100.435754 23.872914 
L 101.546519 23.872914 
L 102.657283 23.872914 
L 103.768048 23.872914 
L 104.878813 23.872914 
L 105.989577 23.872914 
L 107.100342 23.872914 
L 108.211107 23.872914 
L 109.321871 23.872914 
L 110.432636 23.872914 
L 111.543401 23.872914 
L 112.654165 23.872914 
L 113.76493 23.872914 
L 114.875695 23.872914 
L 115.986459 23.872914 
L 117.097224 23.872914 
L 118.207989 23.872914 
L 119.318753 23.872914 
L 120.429518 23.872914 
L 121.540283 23.872914 
L 122.651047 23.872914 
L 123.761812 23.872914 
L 124.872577 23.872914 
L 125.983341 23.872914 
L 127.094106 23.872914 
L 128.204871 23.872914 
L 129.315635 23.872914 
L 130.4264 23.872914 
L 131.537165 23.872914 
L 132.64793 23.872914 
L 133.758694 23.872914 
L 134.869459 23.872914 
L 135.980224 23.872914 
L 137.090988 23.872914 
L 138.201753 23.872914 
L 139.312518 23.872914 
L 140.423282 23.872914 
L 141.534047 23.872914 
L 142.644812 23.872914 
L 143.755576 23.872914 
L 144.866341 23.872914 
L 145.977106 23.872914 
L 147.08787 23.872914 
L 148.198635 23.872914 
L 149.3094 23.872914 
L 150.420164 23.872914 
L 151.530929 23.872914 
L 152.641694 23.872914 
L 153.752458 23.872914 
L 154.863223 23.872914 
L 155.973988 23.872914 
" clip-path="url(#p8e61bc61cc)" style="fill: none; stroke-dasharray: 3.7,1.6; stroke-dashoffset: 0; stroke: #7f7f7f"/>
   </g>
   <g id="line2d_16">
    <path d="M 46.008285 107.02616 
L 47.11905 107.023237 
L 48.229814 106.98851 
L 49.340579 106.866542 
L 50.451344 106.596665 
L 51.562108 106.12499 
L 52.672873 105.41011 
L 53.783638 104.425089 
L 54.894402 103.157264 
L 56.005167 101.606821 
L 57.115932 99.784758 
L 58.226697 97.710624 
L 59.337461 95.410304 
L 60.448226 92.91396 
L 61.558991 90.254241 
L 62.669755 87.464763 
L 63.78052 84.578883 
L 64.891285 81.62874 
L 66.002049 78.644538 
L 67.112814 75.654049 
L 68.223579 72.682288 
L 69.334343 69.751344 
L 70.445108 66.880332 
L 71.555873 64.08543 
L 72.666637 61.38 
L 73.777402 58.774751 
L 74.888167 56.277935 
L 75.998931 53.895576 
L 77.109696 51.631695 
L 78.220461 49.488545 
L 79.331225 47.466841 
L 80.44199 45.565977 
L 81.552755 43.784234 
L 82.663519 42.118968 
L 83.774284 40.566785 
L 84.885049 39.123701 
L 85.995813 37.785274 
L 87.106578 36.546739 
L 88.217343 35.403104 
L 89.328107 34.349249 
L 90.438872 33.380003 
L 91.549637 32.490212 
L 92.660401 31.674787 
L 93.771166 30.928758 
L 94.881931 30.247302 
L 95.992695 29.625771 
L 97.10346 29.059717 
L 98.214225 28.544902 
L 99.324989 28.077308 
L 100.435754 27.653142 
L 101.546519 27.268842 
L 102.657283 26.921066 
L 103.768048 26.606698 
L 104.878813 26.322834 
L 105.989577 26.066783 
L 107.100342 25.836049 
L 108.211107 25.628331 
L 109.321871 25.441507 
L 110.432636 25.273625 
L 111.543401 25.122896 
L 112.654165 24.987681 
L 113.76493 24.866481 
L 114.875695 24.757929 
L 115.986459 24.660777 
L 117.097224 24.573894 
L 118.207989 24.496249 
L 119.318753 24.426906 
L 120.429518 24.365021 
L 121.540283 24.309826 
L 122.651047 24.26063 
L 123.761812 24.216807 
L 124.872577 24.177794 
L 125.983341 24.143082 
L 127.094106 24.112215 
L 128.204871 24.084781 
L 129.315635 24.060413 
L 130.4264 24.038778 
L 131.537165 24.01958 
L 132.64793 24.002552 
L 133.758694 23.987456 
L 134.869459 23.97408 
L 135.980224 23.962233 
L 137.090988 23.951744 
L 138.201753 23.942462 
L 139.312518 23.934252 
L 140.423282 23.926993 
L 141.534047 23.920576 
L 142.644812 23.914908 
L 143.755576 23.909901 
L 144.866341 23.905482 
L 145.977106 23.901581 
L 147.08787 23.898141 
L 148.198635 23.895106 
L 149.3094 23.892431 
L 150.420164 23.890074 
L 151.530929 23.887997 
L 152.641694 23.886168 
L 153.752458 23.884557 
L 154.863223 23.88314 
L 155.973988 23.881892 
" clip-path="url(#p8e61bc61cc)" style="fill: none; stroke-dasharray: 3.7,1.6; stroke-dashoffset: 0; stroke: #d3d3d3"/>
   </g>
   <g id="line2d_17">
    <defs>
     <path id="mee097f13c8" d="M 0 1.4 
C 0.371284 1.4 0.727412 1.252487 0.989949 0.989949 
C 1.252487 0.727412 1.4 0.371284 1.4 0 
C 1.4 -0.371284 1.252487 -0.727412 0.989949 -0.989949 
C 0.727412 -1.252487 0.371284 -1.4 0 -1.4 
C -0.371284 -1.4 -0.727412 -1.252487 -0.989949 -0.989949 
C -1.252487 -0.727412 -1.4 -0.371284 -1.4 0 
C -1.4 0.371284 -1.252487 0.727412 -0.989949 0.989949 
C -0.727412 1.252487 -0.371284 1.4 0 1.4 
z
" style="stroke: #1f77b4"/>
    </defs>
    <g clip-path="url(#p8e61bc61cc)">
     <use xlink:href="#mee097f13c8" x="46.008285" y="107.02616" style="fill: #1f77b4; stroke: #1f77b4"/>
     <use xlink:href="#mee097f13c8" x="48.757428" y="104.615133" style="fill: #1f77b4; stroke: #1f77b4"/>
     <use xlink:href="#mee097f13c8" x="51.50657" y="103.663638" style="fill: #1f77b4; stroke: #1f77b4"/>
     <use xlink:href="#mee097f13c8" x="57.004855" y="102.920276" style="fill: #1f77b4; stroke: #1f77b4"/>
     <use xlink:href="#mee097f13c8" x="68.001426" y="80.239039" style="fill: #1f77b4; stroke: #1f77b4"/>
     <use xlink:href="#mee097f13c8" x="78.081615" y="68.452593" style="fill: #1f77b4; stroke: #1f77b4"/>
     <use xlink:href="#mee097f13c8" x="89.994566" y="51.675877" style="fill: #1f77b4; stroke: #1f77b4"/>
     <use xlink:href="#mee097f13c8" x="112.904087" y="26.332776" style="fill: #1f77b4; stroke: #1f77b4"/>
     <use xlink:href="#mee097f13c8" x="133.980847" y="23.872914" style="fill: #1f77b4; stroke: #1f77b4"/>
    </g>
   </g>
   <g id="patch_3">
    <path d="M 40.51 114.27875 
L 40.51 10.8 
" style="fill: none; stroke: #262626; stroke-linejoin: miter; stroke-linecap: square"/>
   </g>
   <g id="patch_4">
    <path d="M 161.472273 114.27875 
L 161.472273 10.8 
" style="fill: none; stroke: #262626; stroke-linejoin: miter; stroke-linecap: square"/>
   </g>
   <g id="patch_5">
    <path d="M 40.51 114.27875 
L 161.472273 114.27875 
" style="fill: none; stroke: #262626; stroke-linejoin: miter; stroke-linecap: square"/>
   </g>
   <g id="patch_6">
    <path d="M 40.51 10.8 
L 161.472273 10.8 
" style="fill: none; stroke: #262626; stroke-linejoin: miter; stroke-linecap: square"/>
   </g>
   <g id="PathCollection_2">
    <defs>
     <path id="m0ec30cb3d8" d="M 0 1.581139 
C 0.419323 1.581139 0.821528 1.41454 1.118034 1.118034 
C 1.41454 0.821528 1.581139 0.419323 1.581139 0 
C 1.581139 -0.419323 1.41454 -0.821528 1.118034 -1.118034 
C 0.821528 -1.41454 0.419323 -1.581139 0 -1.581139 
C -0.419323 -1.581139 -0.821528 -1.41454 -1.118034 -1.118034 
C -1.41454 -0.821528 -1.581139 -0.419323 -1.581139 0 
C -1.581139 0.419323 -1.41454 0.821528 -1.118034 1.118034 
C -0.821528 1.41454 -0.419323 1.581139 0 1.581139 
z
" style="stroke: #7f7f7f; stroke-width: 0.24"/>
    </defs>
    <g clip-path="url(#p8e61bc61cc)">
     <use xlink:href="#m0ec30cb3d8" x="46.008285" y="107.02616" style="fill: #7f7f7f; stroke: #7f7f7f; stroke-width: 0.24"/>
     <use xlink:href="#m0ec30cb3d8" x="48.757428" y="47.912674" style="fill: #7f7f7f; stroke: #7f7f7f; stroke-width: 0.24"/>
     <use xlink:href="#m0ec30cb3d8" x="51.50657" y="42.212582" style="fill: #7f7f7f; stroke: #7f7f7f; stroke-width: 0.24"/>
     <use xlink:href="#m0ec30cb3d8" x="57.004855" y="41.638295" style="fill: #7f7f7f; stroke: #7f7f7f; stroke-width: 0.24"/>
     <use xlink:href="#m0ec30cb3d8" x="68.001426" y="23.872914" style="fill: #7f7f7f; stroke: #7f7f7f; stroke-width: 0.24"/>
     <use xlink:href="#m0ec30cb3d8" x="78.081615" y="26.892518" style="fill: #7f7f7f; stroke: #7f7f7f; stroke-width: 0.24"/>
     <use xlink:href="#m0ec30cb3d8" x="89.994566" y="35.256537" style="fill: #7f7f7f; stroke: #7f7f7f; stroke-width: 0.24"/>
     <use xlink:href="#m0ec30cb3d8" x="112.904087" y="32.956022" style="fill: #7f7f7f; stroke: #7f7f7f; stroke-width: 0.24"/>
     <use xlink:href="#m0ec30cb3d8" x="133.980847" y="44.48873" style="fill: #7f7f7f; stroke: #7f7f7f; stroke-width: 0.24"/>
     <use xlink:href="#m0ec30cb3d8" x="155.973988" y="59.030994" style="fill: #7f7f7f; stroke: #7f7f7f; stroke-width: 0.24"/>
    </g>
   </g>
  </g>
 </g>
 <defs>
  <clipPath id="p8e61bc61cc">
   <rect x="40.51" y="10.8" width="120.962273" height="103.47875"/>
  </clipPath>
 </defs>
</svg>
