<?xml version="1.0" encoding="utf-8" standalone="no"?>
<!DOCTYPE svg PUBLIC "-//W3C//DTD SVG 1.1//EN"
  "http://www.w3.org/Graphics/SVG/1.1/DTD/svg11.dtd">
<!-- Created with matplotlib (https://matplotlib.org/) -->
<svg height="158.4pt" version="1.1" viewBox="0 0 180 158.4" width="180pt" xmlns="http://www.w3.org/2000/svg" xmlns:xlink="http://www.w3.org/1999/xlink">
 <metadata>
  <rdf:RDF xmlns:cc="http://creativecommons.org/ns#" xmlns:dc="http://purl.org/dc/elements/1.1/" xmlns:rdf="http://www.w3.org/1999/02/22-rdf-syntax-ns#">
   <cc:Work>
    <dc:type rdf:resource="http://purl.org/dc/dcmitype/StillImage"/>
    <dc:date>2022-08-04T16:02:40.786232</dc:date>
    <dc:format>image/svg+xml</dc:format>
    <dc:creator>
     <cc:Agent>
      <dc:title>Matplotlib v3.3.2, https://matplotlib.org/</dc:title>
     </cc:Agent>
    </dc:creator>
   </cc:Work>
  </rdf:RDF>
 </metadata>
 <defs>
  <style type="text/css">*{stroke-linecap:butt;stroke-linejoin:round;}</style>
 </defs>
 <g id="figure_1">
  <g id="patch_1">
   <path d="M 0 158.4 
L 180 158.4 
L 180 0 
L 0 0 
z
" style="fill:#ffffff;"/>
  </g>
  <g id="axes_1">
   <g id="patch_2">
    <path d="M 43.548 118.1595 
L 164.772 118.1595 
L 164.772 22.848 
L 43.548 22.848 
z
" style="fill:#ffffff;"/>
   </g>
   <g id="matplotlib.axis_1">
    <g id="xtick_1">
     <g id="line2d_1">
      <defs>
       <path d="M 0 0 
L 0 4.8 
" id="mb017b9bbba" style="stroke:#262626;"/>
      </defs>
      <g>
       <use style="fill:#262626;stroke:#262626;" x="43.548" xlink:href="#mb017b9bbba" y="118.1595"/>
      </g>
     </g>
     <g id="text_1">
      <!-- 0 -->
      <g style="fill:#262626;" transform="translate(41.101188 132.758375)scale(0.088 -0.088)">
       <defs>
        <path d="M 4.15625 35.296875 
Q 4.15625 48 6.765625 55.734375 
Q 9.375 63.484375 14.515625 67.671875 
Q 19.671875 71.875 27.484375 71.875 
Q 33.25 71.875 37.59375 69.546875 
Q 41.9375 67.234375 44.765625 62.859375 
Q 47.609375 58.5 49.21875 52.21875 
Q 50.828125 45.953125 50.828125 35.296875 
Q 50.828125 22.703125 48.234375 14.96875 
Q 45.65625 7.234375 40.5 3 
Q 35.359375 -1.21875 27.484375 -1.21875 
Q 17.140625 -1.21875 11.234375 6.203125 
Q 4.15625 15.140625 4.15625 35.296875 
z
M 13.1875 35.296875 
Q 13.1875 17.671875 17.3125 11.828125 
Q 21.4375 6 27.484375 6 
Q 33.546875 6 37.671875 11.859375 
Q 41.796875 17.71875 41.796875 35.296875 
Q 41.796875 52.984375 37.671875 58.78125 
Q 33.546875 64.59375 27.390625 64.59375 
Q 21.34375 64.59375 17.71875 59.46875 
Q 13.1875 52.9375 13.1875 35.296875 
z
" id="ArialMT-48"/>
       </defs>
       <use xlink:href="#ArialMT-48"/>
      </g>
     </g>
    </g>
    <g id="xtick_2">
     <g id="line2d_2">
      <g>
       <use style="fill:#262626;stroke:#262626;" x="73.854" xlink:href="#mb017b9bbba" y="118.1595"/>
      </g>
     </g>
     <g id="text_2">
      <!-- 24 -->
      <g style="fill:#262626;" transform="translate(68.960375 132.758375)scale(0.088 -0.088)">
       <defs>
        <path d="M 50.34375 8.453125 
L 50.34375 0 
L 3.03125 0 
Q 2.9375 3.171875 4.046875 6.109375 
Q 5.859375 10.9375 9.828125 15.625 
Q 13.8125 20.3125 21.34375 26.46875 
Q 33.015625 36.03125 37.109375 41.625 
Q 41.21875 47.21875 41.21875 52.203125 
Q 41.21875 57.421875 37.46875 61 
Q 33.734375 64.59375 27.734375 64.59375 
Q 21.390625 64.59375 17.578125 60.78125 
Q 13.765625 56.984375 13.71875 50.25 
L 4.6875 51.171875 
Q 5.609375 61.28125 11.65625 66.578125 
Q 17.71875 71.875 27.9375 71.875 
Q 38.234375 71.875 44.234375 66.15625 
Q 50.25 60.453125 50.25 52 
Q 50.25 47.703125 48.484375 43.546875 
Q 46.734375 39.40625 42.65625 34.8125 
Q 38.578125 30.21875 29.109375 22.21875 
Q 21.1875 15.578125 18.9375 13.203125 
Q 16.703125 10.84375 15.234375 8.453125 
z
" id="ArialMT-50"/>
        <path d="M 32.328125 0 
L 32.328125 17.140625 
L 1.265625 17.140625 
L 1.265625 25.203125 
L 33.9375 71.578125 
L 41.109375 71.578125 
L 41.109375 25.203125 
L 50.78125 25.203125 
L 50.78125 17.140625 
L 41.109375 17.140625 
L 41.109375 0 
z
M 32.328125 25.203125 
L 32.328125 57.46875 
L 9.90625 25.203125 
z
" id="ArialMT-52"/>
       </defs>
       <use xlink:href="#ArialMT-50"/>
       <use x="55.615234" xlink:href="#ArialMT-52"/>
      </g>
     </g>
    </g>
    <g id="xtick_3">
     <g id="line2d_3">
      <g>
       <use style="fill:#262626;stroke:#262626;" x="104.16" xlink:href="#mb017b9bbba" y="118.1595"/>
      </g>
     </g>
     <g id="text_3">
      <!-- 48 -->
      <g style="fill:#262626;" transform="translate(99.266375 132.758375)scale(0.088 -0.088)">
       <defs>
        <path d="M 17.671875 38.8125 
Q 12.203125 40.828125 9.5625 44.53125 
Q 6.9375 48.25 6.9375 53.421875 
Q 6.9375 61.234375 12.546875 66.546875 
Q 18.171875 71.875 27.484375 71.875 
Q 36.859375 71.875 42.578125 66.421875 
Q 48.296875 60.984375 48.296875 53.171875 
Q 48.296875 48.1875 45.671875 44.5 
Q 43.0625 40.828125 37.75 38.8125 
Q 44.34375 36.671875 47.78125 31.875 
Q 51.21875 27.09375 51.21875 20.453125 
Q 51.21875 11.28125 44.71875 5.03125 
Q 38.234375 -1.21875 27.640625 -1.21875 
Q 17.046875 -1.21875 10.546875 5.046875 
Q 4.046875 11.328125 4.046875 20.703125 
Q 4.046875 27.6875 7.59375 32.390625 
Q 11.140625 37.109375 17.671875 38.8125 
z
M 15.921875 53.71875 
Q 15.921875 48.640625 19.1875 45.40625 
Q 22.46875 42.1875 27.6875 42.1875 
Q 32.765625 42.1875 36.015625 45.375 
Q 39.265625 48.578125 39.265625 53.21875 
Q 39.265625 58.0625 35.90625 61.359375 
Q 32.5625 64.65625 27.59375 64.65625 
Q 22.5625 64.65625 19.234375 61.421875 
Q 15.921875 58.203125 15.921875 53.71875 
z
M 13.09375 20.65625 
Q 13.09375 16.890625 14.875 13.375 
Q 16.65625 9.859375 20.171875 7.921875 
Q 23.6875 6 27.734375 6 
Q 34.03125 6 38.125 10.046875 
Q 42.234375 14.109375 42.234375 20.359375 
Q 42.234375 26.703125 38.015625 30.859375 
Q 33.796875 35.015625 27.4375 35.015625 
Q 21.234375 35.015625 17.15625 30.90625 
Q 13.09375 26.8125 13.09375 20.65625 
z
" id="ArialMT-56"/>
       </defs>
       <use xlink:href="#ArialMT-52"/>
       <use x="55.615234" xlink:href="#ArialMT-56"/>
      </g>
     </g>
    </g>
    <g id="xtick_4">
     <g id="line2d_4">
      <g>
       <use style="fill:#262626;stroke:#262626;" x="134.466" xlink:href="#mb017b9bbba" y="118.1595"/>
      </g>
     </g>
     <g id="text_4">
      <!-- 72 -->
      <g style="fill:#262626;" transform="translate(129.572375 132.758375)scale(0.088 -0.088)">
       <defs>
        <path d="M 4.734375 62.203125 
L 4.734375 70.65625 
L 51.078125 70.65625 
L 51.078125 63.8125 
Q 44.234375 56.546875 37.515625 44.484375 
Q 30.8125 32.421875 27.15625 19.671875 
Q 24.515625 10.6875 23.78125 0 
L 14.75 0 
Q 14.890625 8.453125 18.0625 20.40625 
Q 21.234375 32.375 27.171875 43.484375 
Q 33.109375 54.59375 39.796875 62.203125 
z
" id="ArialMT-55"/>
       </defs>
       <use xlink:href="#ArialMT-55"/>
       <use x="55.615234" xlink:href="#ArialMT-50"/>
      </g>
     </g>
    </g>
    <g id="xtick_5">
     <g id="line2d_5">
      <g>
       <use style="fill:#262626;stroke:#262626;" x="164.772" xlink:href="#mb017b9bbba" y="118.1595"/>
      </g>
     </g>
     <g id="text_5">
      <!-- 96 -->
      <g style="fill:#262626;" transform="translate(159.878375 132.758375)scale(0.088 -0.088)">
       <defs>
        <path d="M 5.46875 16.546875 
L 13.921875 17.328125 
Q 14.984375 11.375 18.015625 8.6875 
Q 21.046875 6 25.78125 6 
Q 29.828125 6 32.875 7.859375 
Q 35.9375 9.71875 37.890625 12.8125 
Q 39.84375 15.921875 41.15625 21.1875 
Q 42.484375 26.46875 42.484375 31.9375 
Q 42.484375 32.515625 42.4375 33.6875 
Q 39.796875 29.5 35.234375 26.875 
Q 30.671875 24.265625 25.34375 24.265625 
Q 16.453125 24.265625 10.296875 30.703125 
Q 4.15625 37.15625 4.15625 47.703125 
Q 4.15625 58.59375 10.578125 65.234375 
Q 17 71.875 26.65625 71.875 
Q 33.640625 71.875 39.421875 68.109375 
Q 45.21875 64.359375 48.21875 57.390625 
Q 51.21875 50.4375 51.21875 37.25 
Q 51.21875 23.53125 48.234375 15.40625 
Q 45.265625 7.28125 39.375 3.03125 
Q 33.5 -1.21875 25.59375 -1.21875 
Q 17.1875 -1.21875 11.859375 3.4375 
Q 6.546875 8.109375 5.46875 16.546875 
z
M 41.453125 48.140625 
Q 41.453125 55.71875 37.421875 60.15625 
Q 33.40625 64.59375 27.734375 64.59375 
Q 21.875 64.59375 17.53125 59.8125 
Q 13.1875 55.03125 13.1875 47.40625 
Q 13.1875 40.578125 17.3125 36.296875 
Q 21.4375 32.03125 27.484375 32.03125 
Q 33.59375 32.03125 37.515625 36.296875 
Q 41.453125 40.578125 41.453125 48.140625 
z
" id="ArialMT-57"/>
        <path d="M 49.75 54.046875 
L 41.015625 53.375 
Q 39.84375 58.546875 37.703125 60.890625 
Q 34.125 64.65625 28.90625 64.65625 
Q 24.703125 64.65625 21.53125 62.3125 
Q 17.390625 59.28125 14.984375 53.46875 
Q 12.59375 47.65625 12.5 36.921875 
Q 15.671875 41.75 20.265625 44.09375 
Q 24.859375 46.4375 29.890625 46.4375 
Q 38.671875 46.4375 44.84375 39.96875 
Q 51.03125 33.5 51.03125 23.25 
Q 51.03125 16.5 48.125 10.71875 
Q 45.21875 4.9375 40.140625 1.859375 
Q 35.0625 -1.21875 28.609375 -1.21875 
Q 17.625 -1.21875 10.6875 6.859375 
Q 3.765625 14.9375 3.765625 33.5 
Q 3.765625 54.25 11.421875 63.671875 
Q 18.109375 71.875 29.4375 71.875 
Q 37.890625 71.875 43.28125 67.140625 
Q 48.6875 62.40625 49.75 54.046875 
z
M 13.875 23.1875 
Q 13.875 18.65625 15.796875 14.5 
Q 17.71875 10.359375 21.1875 8.171875 
Q 24.65625 6 28.46875 6 
Q 34.03125 6 38.03125 10.484375 
Q 42.046875 14.984375 42.046875 22.703125 
Q 42.046875 30.125 38.078125 34.390625 
Q 34.125 38.671875 28.125 38.671875 
Q 22.171875 38.671875 18.015625 34.390625 
Q 13.875 30.125 13.875 23.1875 
z
" id="ArialMT-54"/>
       </defs>
       <use xlink:href="#ArialMT-57"/>
       <use x="55.615234" xlink:href="#ArialMT-54"/>
      </g>
     </g>
    </g>
    <g id="text_6">
     <!-- time (h) -->
     <g style="fill:#262626;" transform="translate(87.89325 145.495875)scale(0.096 -0.096)">
      <defs>
       <path d="M 25.78125 7.859375 
L 27.046875 0.09375 
Q 23.34375 -0.6875 20.40625 -0.6875 
Q 15.625 -0.6875 12.984375 0.828125 
Q 10.359375 2.34375 9.28125 4.8125 
Q 8.203125 7.28125 8.203125 15.1875 
L 8.203125 45.015625 
L 1.765625 45.015625 
L 1.765625 51.859375 
L 8.203125 51.859375 
L 8.203125 64.703125 
L 16.9375 69.96875 
L 16.9375 51.859375 
L 25.78125 51.859375 
L 25.78125 45.015625 
L 16.9375 45.015625 
L 16.9375 14.703125 
Q 16.9375 10.9375 17.40625 9.859375 
Q 17.875 8.796875 18.921875 8.15625 
Q 19.96875 7.515625 21.921875 7.515625 
Q 23.390625 7.515625 25.78125 7.859375 
z
" id="ArialMT-116"/>
       <path d="M 6.640625 61.46875 
L 6.640625 71.578125 
L 15.4375 71.578125 
L 15.4375 61.46875 
z
M 6.640625 0 
L 6.640625 51.859375 
L 15.4375 51.859375 
L 15.4375 0 
z
" id="ArialMT-105"/>
       <path d="M 6.59375 0 
L 6.59375 51.859375 
L 14.453125 51.859375 
L 14.453125 44.578125 
Q 16.890625 48.390625 20.9375 50.703125 
Q 25 53.03125 30.171875 53.03125 
Q 35.9375 53.03125 39.625 50.640625 
Q 43.3125 48.25 44.828125 43.953125 
Q 50.984375 53.03125 60.84375 53.03125 
Q 68.5625 53.03125 72.703125 48.75 
Q 76.859375 44.484375 76.859375 35.59375 
L 76.859375 0 
L 68.109375 0 
L 68.109375 32.671875 
Q 68.109375 37.9375 67.25 40.25 
Q 66.40625 42.578125 64.15625 43.984375 
Q 61.921875 45.40625 58.890625 45.40625 
Q 53.421875 45.40625 49.796875 41.765625 
Q 46.1875 38.140625 46.1875 30.125 
L 46.1875 0 
L 37.40625 0 
L 37.40625 33.6875 
Q 37.40625 39.546875 35.25 42.46875 
Q 33.109375 45.40625 28.21875 45.40625 
Q 24.515625 45.40625 21.359375 43.453125 
Q 18.21875 41.5 16.796875 37.734375 
Q 15.375 33.984375 15.375 26.90625 
L 15.375 0 
z
" id="ArialMT-109"/>
       <path d="M 42.09375 16.703125 
L 51.171875 15.578125 
Q 49.03125 7.625 43.21875 3.21875 
Q 37.40625 -1.171875 28.375 -1.171875 
Q 17 -1.171875 10.328125 5.828125 
Q 3.65625 12.84375 3.65625 25.484375 
Q 3.65625 38.578125 10.390625 45.796875 
Q 17.140625 53.03125 27.875 53.03125 
Q 38.28125 53.03125 44.875 45.953125 
Q 51.46875 38.875 51.46875 26.03125 
Q 51.46875 25.25 51.421875 23.6875 
L 12.75 23.6875 
Q 13.234375 15.140625 17.578125 10.59375 
Q 21.921875 6.0625 28.421875 6.0625 
Q 33.25 6.0625 36.671875 8.59375 
Q 40.09375 11.140625 42.09375 16.703125 
z
M 13.234375 30.90625 
L 42.1875 30.90625 
Q 41.609375 37.453125 38.875 40.71875 
Q 34.671875 45.796875 27.984375 45.796875 
Q 21.921875 45.796875 17.796875 41.75 
Q 13.671875 37.703125 13.234375 30.90625 
z
" id="ArialMT-101"/>
       <path id="ArialMT-32"/>
       <path d="M 23.390625 -21.046875 
Q 16.109375 -11.859375 11.078125 0.4375 
Q 6.0625 12.75 6.0625 25.921875 
Q 6.0625 37.546875 9.8125 48.1875 
Q 14.203125 60.546875 23.390625 72.796875 
L 29.6875 72.796875 
Q 23.78125 62.640625 21.875 58.296875 
Q 18.890625 51.5625 17.1875 44.234375 
Q 15.09375 35.109375 15.09375 25.875 
Q 15.09375 2.390625 29.6875 -21.046875 
z
" id="ArialMT-40"/>
       <path d="M 6.59375 0 
L 6.59375 71.578125 
L 15.375 71.578125 
L 15.375 45.90625 
Q 21.53125 53.03125 30.90625 53.03125 
Q 36.671875 53.03125 40.921875 50.75 
Q 45.171875 48.484375 47 44.484375 
Q 48.828125 40.484375 48.828125 32.859375 
L 48.828125 0 
L 40.046875 0 
L 40.046875 32.859375 
Q 40.046875 39.453125 37.1875 42.453125 
Q 34.328125 45.453125 29.109375 45.453125 
Q 25.203125 45.453125 21.75 43.421875 
Q 18.3125 41.40625 16.84375 37.9375 
Q 15.375 34.46875 15.375 28.375 
L 15.375 0 
z
" id="ArialMT-104"/>
       <path d="M 12.359375 -21.046875 
L 6.0625 -21.046875 
Q 20.65625 2.390625 20.65625 25.875 
Q 20.65625 35.0625 18.5625 44.09375 
Q 16.890625 51.421875 13.921875 58.15625 
Q 12.015625 62.546875 6.0625 72.796875 
L 12.359375 72.796875 
Q 21.53125 60.546875 25.921875 48.1875 
Q 29.6875 37.546875 29.6875 25.921875 
Q 29.6875 12.75 24.625 0.4375 
Q 19.578125 -11.859375 12.359375 -21.046875 
z
" id="ArialMT-41"/>
      </defs>
      <use xlink:href="#ArialMT-116"/>
      <use x="27.783203" xlink:href="#ArialMT-105"/>
      <use x="50" xlink:href="#ArialMT-109"/>
      <use x="133.300781" xlink:href="#ArialMT-101"/>
      <use x="188.916016" xlink:href="#ArialMT-32"/>
      <use x="216.699219" xlink:href="#ArialMT-40"/>
      <use x="250" xlink:href="#ArialMT-104"/>
      <use x="305.615234" xlink:href="#ArialMT-41"/>
     </g>
    </g>
   </g>
   <g id="matplotlib.axis_2">
    <g id="ytick_1">
     <g id="line2d_6">
      <defs>
       <path d="M 0 0 
L -4.8 0 
" id="m8e4c37d4cc" style="stroke:#262626;"/>
      </defs>
      <g>
       <use style="fill:#262626;stroke:#262626;" x="43.548" xlink:href="#m8e4c37d4cc" y="118.1595"/>
      </g>
     </g>
     <g id="text_7">
      <!-- 0.0 -->
      <g style="fill:#262626;" transform="translate(23.016 121.308938)scale(0.088 -0.088)">
       <defs>
        <path d="M 9.078125 0 
L 9.078125 10.015625 
L 19.09375 10.015625 
L 19.09375 0 
z
" id="ArialMT-46"/>
       </defs>
       <use xlink:href="#ArialMT-48"/>
       <use x="55.615234" xlink:href="#ArialMT-46"/>
       <use x="83.398438" xlink:href="#ArialMT-48"/>
      </g>
     </g>
    </g>
    <g id="ytick_2">
     <g id="line2d_7">
      <g>
       <use style="fill:#262626;stroke:#262626;" x="43.548" xlink:href="#m8e4c37d4cc" y="99.0972"/>
      </g>
     </g>
     <g id="text_8">
      <!-- 0.2 -->
      <g style="fill:#262626;" transform="translate(23.016 102.246638)scale(0.088 -0.088)">
       <use xlink:href="#ArialMT-48"/>
       <use x="55.615234" xlink:href="#ArialMT-46"/>
       <use x="83.398438" xlink:href="#ArialMT-50"/>
      </g>
     </g>
    </g>
    <g id="ytick_3">
     <g id="line2d_8">
      <g>
       <use style="fill:#262626;stroke:#262626;" x="43.548" xlink:href="#m8e4c37d4cc" y="80.0349"/>
      </g>
     </g>
     <g id="text_9">
      <!-- 0.4 -->
      <g style="fill:#262626;" transform="translate(23.016 83.184338)scale(0.088 -0.088)">
       <use xlink:href="#ArialMT-48"/>
       <use x="55.615234" xlink:href="#ArialMT-46"/>
       <use x="83.398438" xlink:href="#ArialMT-52"/>
      </g>
     </g>
    </g>
    <g id="ytick_4">
     <g id="line2d_9">
      <g>
       <use style="fill:#262626;stroke:#262626;" x="43.548" xlink:href="#m8e4c37d4cc" y="60.9726"/>
      </g>
     </g>
     <g id="text_10">
      <!-- 0.6 -->
      <g style="fill:#262626;" transform="translate(23.016 64.122038)scale(0.088 -0.088)">
       <use xlink:href="#ArialMT-48"/>
       <use x="55.615234" xlink:href="#ArialMT-46"/>
       <use x="83.398438" xlink:href="#ArialMT-54"/>
      </g>
     </g>
    </g>
    <g id="ytick_5">
     <g id="line2d_10">
      <g>
       <use style="fill:#262626;stroke:#262626;" x="43.548" xlink:href="#m8e4c37d4cc" y="41.9103"/>
      </g>
     </g>
     <g id="text_11">
      <!-- 0.8 -->
      <g style="fill:#262626;" transform="translate(23.016 45.059738)scale(0.088 -0.088)">
       <use xlink:href="#ArialMT-48"/>
       <use x="55.615234" xlink:href="#ArialMT-46"/>
       <use x="83.398438" xlink:href="#ArialMT-56"/>
      </g>
     </g>
    </g>
    <g id="ytick_6">
     <g id="line2d_11">
      <g>
       <use style="fill:#262626;stroke:#262626;" x="43.548" xlink:href="#m8e4c37d4cc" y="22.848"/>
      </g>
     </g>
     <g id="text_12">
      <!-- 1.0 -->
      <g style="fill:#262626;" transform="translate(23.016 25.997438)scale(0.088 -0.088)">
       <defs>
        <path d="M 37.25 0 
L 28.46875 0 
L 28.46875 56 
Q 25.296875 52.984375 20.140625 49.953125 
Q 14.984375 46.921875 10.890625 45.40625 
L 10.890625 53.90625 
Q 18.265625 57.375 23.78125 62.296875 
Q 29.296875 67.234375 31.59375 71.875 
L 37.25 71.875 
z
" id="ArialMT-49"/>
       </defs>
       <use xlink:href="#ArialMT-49"/>
       <use x="55.615234" xlink:href="#ArialMT-46"/>
       <use x="83.398438" xlink:href="#ArialMT-48"/>
      </g>
     </g>
    </g>
    <g id="text_13">
     <!-- expr. norm. -->
     <g style="fill:#262626;" transform="translate(17.108 94.512)rotate(-90)scale(0.096 -0.096)">
      <defs>
       <path d="M 0.734375 0 
L 19.671875 26.953125 
L 2.15625 51.859375 
L 13.140625 51.859375 
L 21.09375 39.703125 
Q 23.34375 36.234375 24.703125 33.890625 
Q 26.859375 37.109375 28.65625 39.59375 
L 37.40625 51.859375 
L 47.90625 51.859375 
L 29.984375 27.4375 
L 49.265625 0 
L 38.484375 0 
L 27.828125 16.109375 
L 25 20.453125 
L 11.375 0 
z
" id="ArialMT-120"/>
       <path d="M 6.59375 -19.875 
L 6.59375 51.859375 
L 14.59375 51.859375 
L 14.59375 45.125 
Q 17.4375 49.078125 21 51.046875 
Q 24.5625 53.03125 29.640625 53.03125 
Q 36.28125 53.03125 41.359375 49.609375 
Q 46.4375 46.1875 49.015625 39.953125 
Q 51.609375 33.734375 51.609375 26.3125 
Q 51.609375 18.359375 48.75 11.984375 
Q 45.90625 5.609375 40.453125 2.21875 
Q 35.015625 -1.171875 29 -1.171875 
Q 24.609375 -1.171875 21.109375 0.6875 
Q 17.625 2.546875 15.375 5.375 
L 15.375 -19.875 
z
M 14.546875 25.640625 
Q 14.546875 15.625 18.59375 10.84375 
Q 22.65625 6.0625 28.421875 6.0625 
Q 34.28125 6.0625 38.453125 11.015625 
Q 42.625 15.96875 42.625 26.375 
Q 42.625 36.28125 38.546875 41.203125 
Q 34.46875 46.140625 28.8125 46.140625 
Q 23.1875 46.140625 18.859375 40.890625 
Q 14.546875 35.640625 14.546875 25.640625 
z
" id="ArialMT-112"/>
       <path d="M 6.5 0 
L 6.5 51.859375 
L 14.40625 51.859375 
L 14.40625 44 
Q 17.4375 49.515625 20 51.265625 
Q 22.5625 53.03125 25.640625 53.03125 
Q 30.078125 53.03125 34.671875 50.203125 
L 31.640625 42.046875 
Q 28.421875 43.953125 25.203125 43.953125 
Q 22.3125 43.953125 20.015625 42.21875 
Q 17.71875 40.484375 16.75 37.40625 
Q 15.28125 32.71875 15.28125 27.15625 
L 15.28125 0 
z
" id="ArialMT-114"/>
       <path d="M 6.59375 0 
L 6.59375 51.859375 
L 14.5 51.859375 
L 14.5 44.484375 
Q 20.21875 53.03125 31 53.03125 
Q 35.6875 53.03125 39.625 51.34375 
Q 43.5625 49.65625 45.515625 46.921875 
Q 47.46875 44.1875 48.25 40.4375 
Q 48.734375 37.984375 48.734375 31.890625 
L 48.734375 0 
L 39.9375 0 
L 39.9375 31.546875 
Q 39.9375 36.921875 38.90625 39.578125 
Q 37.890625 42.234375 35.28125 43.8125 
Q 32.671875 45.40625 29.15625 45.40625 
Q 23.53125 45.40625 19.453125 41.84375 
Q 15.375 38.28125 15.375 28.328125 
L 15.375 0 
z
" id="ArialMT-110"/>
       <path d="M 3.328125 25.921875 
Q 3.328125 40.328125 11.328125 47.265625 
Q 18.015625 53.03125 27.640625 53.03125 
Q 38.328125 53.03125 45.109375 46.015625 
Q 51.90625 39.015625 51.90625 26.65625 
Q 51.90625 16.65625 48.90625 10.90625 
Q 45.90625 5.171875 40.15625 2 
Q 34.421875 -1.171875 27.640625 -1.171875 
Q 16.75 -1.171875 10.03125 5.8125 
Q 3.328125 12.796875 3.328125 25.921875 
z
M 12.359375 25.921875 
Q 12.359375 15.96875 16.703125 11.015625 
Q 21.046875 6.0625 27.640625 6.0625 
Q 34.1875 6.0625 38.53125 11.03125 
Q 42.875 16.015625 42.875 26.21875 
Q 42.875 35.84375 38.5 40.796875 
Q 34.125 45.75 27.640625 45.75 
Q 21.046875 45.75 16.703125 40.8125 
Q 12.359375 35.890625 12.359375 25.921875 
z
" id="ArialMT-111"/>
      </defs>
      <use xlink:href="#ArialMT-101"/>
      <use x="55.615234" xlink:href="#ArialMT-120"/>
      <use x="105.615234" xlink:href="#ArialMT-112"/>
      <use x="161.230469" xlink:href="#ArialMT-114"/>
      <use x="189.03125" xlink:href="#ArialMT-46"/>
      <use x="216.814453" xlink:href="#ArialMT-32"/>
      <use x="244.597656" xlink:href="#ArialMT-110"/>
      <use x="300.212891" xlink:href="#ArialMT-111"/>
      <use x="355.828125" xlink:href="#ArialMT-114"/>
      <use x="389.128906" xlink:href="#ArialMT-109"/>
      <use x="472.429688" xlink:href="#ArialMT-46"/>
     </g>
    </g>
   </g>
   <g id="PolyCollection_1">
    <defs>
     <path d="M 43.548 -40.2405 
L 43.548 -40.2405 
L 44.772485 -40.2405 
L 45.99697 -40.2405 
L 47.221455 -40.2405 
L 48.445939 -40.240508 
L 49.670424 -40.240664 
L 50.894909 -40.242232 
L 52.119394 -40.251766 
L 53.343879 -40.292036 
L 54.568364 -40.420876 
L 55.792848 -40.752188 
L 57.017333 -41.466592 
L 58.241818 -42.799268 
L 59.466303 -45.001439 
L 60.690788 -48.284547 
L 61.915273 -52.764968 
L 63.139758 -58.427487 
L 64.364242 -65.118347 
L 65.588727 -72.568109 
L 66.813212 -80.435606 
L 68.037697 -88.359996 
L 69.262182 -96.008464 
L 70.486667 -103.111062 
L 71.711152 -109.479187 
L 72.935636 -115.008585 
L 74.160121 -119.670592 
L 75.384606 -123.496329 
L 76.609091 -126.558334 
L 77.833576 -128.953013 
L 79.058061 -130.785984 
L 80.282545 -132.161206 
L 81.50703 -133.173899 
L 82.731515 -133.906712 
L 83.956 -134.428377 
L 85.180485 -134.79406 
L 86.40497 -135.046714 
L 87.629455 -135.218906 
L 88.853939 -135.334756 
L 90.078424 -135.411754 
L 91.302909 -135.462341 
L 92.527394 -135.495214 
L 93.751879 -135.516353 
L 94.976364 -135.529814 
L 96.200848 -135.538304 
L 97.425333 -135.543612 
L 98.649818 -135.546901 
L 99.874303 -135.548923 
L 101.098788 -135.550156 
L 102.323273 -135.550902 
L 103.547758 -135.55135 
L 104.772242 -135.551618 
L 105.996727 -135.551777 
L 107.221212 -135.55187 
L 108.445697 -135.551925 
L 109.670182 -135.551957 
L 110.894667 -135.551975 
L 112.119152 -135.551986 
L 113.343636 -135.551992 
L 114.568121 -135.551996 
L 115.792606 -135.551997 
L 117.017091 -135.551999 
L 118.241576 -135.551999 
L 119.466061 -135.552 
L 120.690545 -135.552 
L 121.91503 -135.552 
L 123.139515 -135.552 
L 124.364 -135.552 
L 125.588485 -135.552 
L 126.81297 -135.552 
L 128.037455 -135.552 
L 129.261939 -135.552 
L 130.486424 -135.552 
L 131.710909 -135.552 
L 132.935394 -135.552 
L 134.159879 -135.552 
L 135.384364 -135.552 
L 136.608848 -135.552 
L 137.833333 -135.552 
L 139.057818 -135.552 
L 140.282303 -135.552 
L 141.506788 -135.552 
L 142.731273 -135.552 
L 143.955758 -135.552 
L 145.180242 -135.552 
L 146.404727 -135.552 
L 147.629212 -135.552 
L 148.853697 -135.552 
L 150.078182 -135.552 
L 151.302667 -135.552 
L 152.527152 -135.552 
L 153.751636 -135.552 
L 154.976121 -135.552 
L 156.200606 -135.552 
L 157.425091 -135.552 
L 158.649576 -135.552 
L 159.874061 -135.552 
L 161.098545 -135.552 
L 162.32303 -135.552 
L 163.547515 -135.552 
L 164.772 -135.552 
L 164.772 -135.550133 
L 164.772 -135.550133 
L 163.547515 -135.549503 
L 162.32303 -135.548668 
L 161.098545 -135.547565 
L 159.874061 -135.546112 
L 158.649576 -135.544205 
L 157.425091 -135.541708 
L 156.200606 -135.538449 
L 154.976121 -135.534209 
L 153.751636 -135.52871 
L 152.527152 -135.5216 
L 151.302667 -135.512439 
L 150.078182 -135.500676 
L 148.853697 -135.485622 
L 147.629212 -135.466427 
L 146.404727 -135.442041 
L 145.180242 -135.411173 
L 143.955758 -135.372252 
L 142.731273 -135.323366 
L 141.506788 -135.26221 
L 140.282303 -135.18602 
L 139.057818 -135.091497 
L 137.833333 -134.974736 
L 136.608848 -134.831144 
L 135.384364 -134.655355 
L 134.159879 -134.441154 
L 132.935394 -134.181395 
L 131.710909 -133.867939 
L 130.486424 -133.491596 
L 129.261939 -133.042096 
L 128.037455 -132.508086 
L 126.81297 -131.877164 
L 125.588485 -131.135961 
L 124.364 -130.270273 
L 123.139515 -129.26526 
L 121.91503 -128.105716 
L 120.690545 -126.776414 
L 119.466061 -125.262528 
L 118.241576 -123.550136 
L 117.017091 -121.626792 
L 115.792606 -119.482162 
L 114.568121 -117.108695 
L 113.343636 -114.502326 
L 112.119152 -111.663147 
L 110.894667 -108.596038 
L 109.670182 -105.311205 
L 108.445697 -101.824572 
L 107.221212 -98.157986 
L 105.996727 -94.339207 
L 104.772242 -90.401617 
L 103.547758 -86.383659 
L 102.323273 -82.327969 
L 101.098788 -78.280231 
L 99.874303 -74.287778 
L 98.649818 -70.398003 
L 97.425333 -66.656641 
L 96.200848 -63.106037 
L 94.976364 -59.783487 
L 93.751879 -56.719779 
L 92.527394 -53.938024 
L 91.302909 -51.45288 
L 90.078424 -49.270222 
L 88.853939 -47.387298 
L 87.629455 -45.793354 
L 86.40497 -44.47068 
L 85.180485 -43.396003 
L 83.956 -42.542092 
L 82.731515 -41.879461 
L 81.50703 -41.378024 
L 80.282545 -41.008583 
L 79.058061 -40.744045 
L 77.833576 -40.56031 
L 76.609091 -40.436793 
L 75.384606 -40.356619 
L 74.160121 -40.306504 
L 72.935636 -40.276429 
L 71.711152 -40.259158 
L 70.486667 -40.249703 
L 69.262182 -40.244791 
L 68.037697 -40.242381 
L 66.813212 -40.24127 
L 65.588727 -40.240792 
L 64.364242 -40.240602 
L 63.139758 -40.240532 
L 61.915273 -40.240509 
L 60.690788 -40.240502 
L 59.466303 -40.240501 
L 58.241818 -40.2405 
L 57.017333 -40.2405 
L 55.792848 -40.2405 
L 54.568364 -40.2405 
L 53.343879 -40.2405 
L 52.119394 -40.2405 
L 50.894909 -40.2405 
L 49.670424 -40.2405 
L 48.445939 -40.2405 
L 47.221455 -40.2405 
L 45.99697 -40.2405 
L 44.772485 -40.2405 
L 43.548 -40.2405 
z
" id="md4d1bcc7c1" style="stroke:#1f77b4;stroke-opacity:0.1;stroke-width:0.8;"/>
    </defs>
    <g clip-path="url(#pf4a4d218fd)">
     <use style="fill:#1f77b4;fill-opacity:0.1;stroke:#1f77b4;stroke-opacity:0.1;stroke-width:0.8;" x="0" xlink:href="#md4d1bcc7c1" y="158.4"/>
    </g>
   </g>
   <g id="line2d_12">
    <path clip-path="url(#pf4a4d218fd)" d="M 43.548 118.1595 
L 44.772485 118.1595 
L 45.99697 118.1595 
L 47.221455 118.1595 
L 48.445939 118.159492 
L 49.670424 118.159336 
L 50.894909 118.157768 
L 52.119394 118.148234 
L 53.343879 118.107964 
L 54.568364 117.979124 
L 55.792848 117.647812 
L 57.017333 116.933408 
L 58.241818 115.600732 
L 59.466303 113.398561 
L 60.690788 110.115453 
L 61.915273 105.635032 
L 63.139758 99.972513 
L 64.364242 93.281653 
L 65.588727 85.831891 
L 66.813212 77.964394 
L 68.037697 70.040004 
L 69.262182 62.391536 
L 70.486667 55.288938 
L 71.711152 48.920813 
L 72.935636 43.391415 
L 74.160121 38.729408 
L 75.384606 34.903671 
L 76.609091 31.841666 
L 77.833576 29.446987 
L 79.058061 27.614016 
L 80.282545 26.238794 
L 81.50703 25.226101 
L 82.731515 24.493288 
L 83.956 23.971623 
L 85.180485 23.60594 
L 86.40497 23.353286 
L 87.629455 23.181094 
L 88.853939 23.065244 
L 90.078424 22.988246 
L 91.302909 22.937659 
L 92.527394 22.904786 
L 93.751879 22.883647 
L 94.976364 22.870186 
L 96.200848 22.861696 
L 97.425333 22.856388 
L 98.649818 22.853099 
L 99.874303 22.851077 
L 101.098788 22.849844 
L 102.323273 22.849098 
L 103.547758 22.84865 
L 104.772242 22.848382 
L 105.996727 22.848223 
L 107.221212 22.84813 
L 108.445697 22.848075 
L 109.670182 22.848043 
L 110.894667 22.848025 
L 112.119152 22.848014 
L 113.343636 22.848008 
L 114.568121 22.848004 
L 115.792606 22.848003 
L 117.017091 22.848001 
L 118.241576 22.848001 
L 119.466061 22.848 
L 120.690545 22.848 
L 121.91503 22.848 
L 123.139515 22.848 
L 124.364 22.848 
L 125.588485 22.848 
L 126.81297 22.848 
L 128.037455 22.848 
L 129.261939 22.848 
L 130.486424 22.848 
L 131.710909 22.848 
L 132.935394 22.848 
L 134.159879 22.848 
L 135.384364 22.848 
L 136.608848 22.848 
L 137.833333 22.848 
L 139.057818 22.848 
L 140.282303 22.848 
L 141.506788 22.848 
L 142.731273 22.848 
L 143.955758 22.848 
L 145.180242 22.848 
L 146.404727 22.848 
L 147.629212 22.848 
L 148.853697 22.848 
L 150.078182 22.848 
L 151.302667 22.848 
L 152.527152 22.848 
L 153.751636 22.848 
L 154.976121 22.848 
L 156.200606 22.848 
L 157.425091 22.848 
L 158.649576 22.848 
L 159.874061 22.848 
L 161.098545 22.848 
L 162.32303 22.848 
L 163.547515 22.848 
L 164.772 22.848 
" style="fill:none;stroke:#1f77b4;stroke-linecap:round;stroke-width:0.5;"/>
   </g>
   <g id="line2d_13">
    <path clip-path="url(#pf4a4d218fd)" d="M 43.548 118.1595 
L 44.772485 118.1595 
L 45.99697 118.1595 
L 47.221455 118.1595 
L 48.445939 118.1595 
L 49.670424 118.1595 
L 50.894909 118.1595 
L 52.119394 118.1595 
L 53.343879 118.1595 
L 54.568364 118.1595 
L 55.792848 118.1595 
L 57.017333 118.1595 
L 58.241818 118.1595 
L 59.466303 118.159499 
L 60.690788 118.159498 
L 61.915273 118.159491 
L 63.139758 118.159468 
L 64.364242 118.159398 
L 65.588727 118.159208 
L 66.813212 118.15873 
L 68.037697 118.157619 
L 69.262182 118.155209 
L 70.486667 118.150297 
L 71.711152 118.140842 
L 72.935636 118.123571 
L 74.160121 118.093496 
L 75.384606 118.043381 
L 76.609091 117.963207 
L 77.833576 117.83969 
L 79.058061 117.655955 
L 80.282545 117.391417 
L 81.50703 117.021976 
L 82.731515 116.520539 
L 83.956 115.857908 
L 85.180485 115.003997 
L 86.40497 113.92932 
L 87.629455 112.606646 
L 88.853939 111.012702 
L 90.078424 109.129778 
L 91.302909 106.94712 
L 92.527394 104.461976 
L 93.751879 101.680221 
L 94.976364 98.616513 
L 96.200848 95.293963 
L 97.425333 91.743359 
L 98.649818 88.001997 
L 99.874303 84.112222 
L 101.098788 80.119769 
L 102.323273 76.072031 
L 103.547758 72.016341 
L 104.772242 67.998383 
L 105.996727 64.060793 
L 107.221212 60.242014 
L 108.445697 56.575428 
L 109.670182 53.088795 
L 110.894667 49.803962 
L 112.119152 46.736853 
L 113.343636 43.897674 
L 114.568121 41.291305 
L 115.792606 38.917838 
L 117.017091 36.773208 
L 118.241576 34.849864 
L 119.466061 33.137472 
L 120.690545 31.623586 
L 121.91503 30.294284 
L 123.139515 29.13474 
L 124.364 28.129727 
L 125.588485 27.264039 
L 126.81297 26.522836 
L 128.037455 25.891914 
L 129.261939 25.357904 
L 130.486424 24.908404 
L 131.710909 24.532061 
L 132.935394 24.218605 
L 134.159879 23.958846 
L 135.384364 23.744645 
L 136.608848 23.568856 
L 137.833333 23.425264 
L 139.057818 23.308503 
L 140.282303 23.21398 
L 141.506788 23.13779 
L 142.731273 23.076634 
L 143.955758 23.027748 
L 145.180242 22.988827 
L 146.404727 22.957959 
L 147.629212 22.933573 
L 148.853697 22.914378 
L 150.078182 22.899324 
L 151.302667 22.887561 
L 152.527152 22.8784 
L 153.751636 22.87129 
L 154.976121 22.865791 
L 156.200606 22.861551 
L 157.425091 22.858292 
L 158.649576 22.855795 
L 159.874061 22.853888 
L 161.098545 22.852435 
L 162.32303 22.851332 
L 163.547515 22.850497 
L 164.772 22.849867 
" style="fill:none;stroke:#1f77b4;stroke-linecap:round;stroke-width:0.5;"/>
   </g>
   <g id="line2d_14">
    <path clip-path="url(#pf4a4d218fd)" d="M 43.548 118.1595 
L 44.772485 118.1595 
L 45.99697 118.1595 
L 47.221455 118.1595 
L 48.445939 118.1595 
L 49.670424 118.1595 
L 50.894909 118.1595 
L 52.119394 118.159499 
L 53.343879 118.159493 
L 54.568364 118.159453 
L 55.792848 118.15924 
L 57.017333 118.15836 
L 58.241818 118.15534 
L 59.466303 118.146498 
L 60.690788 118.123863 
L 61.915273 118.072251 
L 63.139758 117.965825 
L 64.364242 117.76489 
L 65.588727 117.413969 
L 66.813212 116.842193 
L 68.037697 115.966721 
L 69.262182 114.699263 
L 70.486667 112.955067 
L 71.711152 110.66307 
L 72.935636 107.775573 
L 74.160121 104.275853 
L 75.384606 100.182442 
L 76.609091 95.549456 
L 77.833576 90.463034 
L 79.058061 85.034531 
L 80.282545 79.391557 
L 81.50703 73.668134 
L 82.731515 67.995165 
L 83.956 62.492229 
L 85.180485 57.261357 
L 86.40497 52.383086 
L 87.629455 47.914785 
L 88.853939 43.89098 
L 90.078424 40.325259 
L 91.302909 37.213251 
L 92.527394 34.536205 
L 93.751879 32.26474 
L 94.976364 30.362427 
L 96.200848 28.788977 
L 97.425333 27.50289 
L 98.649818 26.463523 
L 99.874303 25.632591 
L 101.098788 24.975137 
L 102.323273 24.460075 
L 103.547758 24.060382 
L 104.772242 23.75303 
L 105.996727 23.518745 
L 107.221212 23.341652 
L 108.445697 23.208866 
L 109.670182 23.110075 
L 110.894667 23.037124 
L 112.119152 22.983641 
L 113.343636 22.944704 
L 114.568121 22.916545 
L 115.792606 22.896314 
L 117.017091 22.881868 
L 118.241576 22.871616 
L 119.466061 22.864383 
L 120.690545 22.859309 
L 121.91503 22.855768 
L 123.139515 22.853311 
L 124.364 22.851614 
L 125.588485 22.850449 
L 126.81297 22.849652 
L 128.037455 22.84911 
L 129.261939 22.848742 
L 130.486424 22.848495 
L 131.710909 22.848328 
L 132.935394 22.848217 
L 134.159879 22.848143 
L 135.384364 22.848094 
L 136.608848 22.848061 
L 137.833333 22.84804 
L 139.057818 22.848026 
L 140.282303 22.848017 
L 141.506788 22.848011 
L 142.731273 22.848007 
L 143.955758 22.848004 
L 145.180242 22.848003 
L 146.404727 22.848002 
L 147.629212 22.848001 
L 148.853697 22.848001 
L 150.078182 22.848 
L 151.302667 22.848 
L 152.527152 22.848 
L 153.751636 22.848 
L 154.976121 22.848 
L 156.200606 22.848 
L 157.425091 22.848 
L 158.649576 22.848 
L 159.874061 22.848 
L 161.098545 22.848 
L 162.32303 22.848 
L 163.547515 22.848 
L 164.772 22.848 
" style="fill:none;stroke:#1f77b4;stroke-linecap:round;stroke-width:2;"/>
   </g>
   <g id="patch_3">
    <path d="M 43.548 118.1595 
L 43.548 22.848 
" style="fill:none;stroke:#262626;stroke-linecap:square;stroke-linejoin:miter;"/>
   </g>
   <g id="patch_4">
    <path d="M 164.772 118.1595 
L 164.772 22.848 
" style="fill:none;stroke:#262626;stroke-linecap:square;stroke-linejoin:miter;"/>
   </g>
   <g id="patch_5">
    <path d="M 43.548 118.1595 
L 164.772 118.1595 
" style="fill:none;stroke:#262626;stroke-linecap:square;stroke-linejoin:miter;"/>
   </g>
   <g id="patch_6">
    <path d="M 43.548 22.848 
L 164.772 22.848 
" style="fill:none;stroke:#262626;stroke-linecap:square;stroke-linejoin:miter;"/>
   </g>
   <g id="text_14">
    <!-- Th1 differentiation onset -->
    <g style="fill:#262626;" transform="translate(52.749 16.848)scale(0.096 -0.096)">
     <defs>
      <path d="M 25.921875 0 
L 25.921875 63.140625 
L 2.34375 63.140625 
L 2.34375 71.578125 
L 59.078125 71.578125 
L 59.078125 63.140625 
L 35.40625 63.140625 
L 35.40625 0 
z
" id="ArialMT-84"/>
      <path d="M 40.234375 0 
L 40.234375 6.546875 
Q 35.296875 -1.171875 25.734375 -1.171875 
Q 19.53125 -1.171875 14.328125 2.25 
Q 9.125 5.671875 6.265625 11.796875 
Q 3.421875 17.921875 3.421875 25.875 
Q 3.421875 33.640625 6 39.96875 
Q 8.59375 46.296875 13.765625 49.65625 
Q 18.953125 53.03125 25.34375 53.03125 
Q 30.03125 53.03125 33.6875 51.046875 
Q 37.359375 49.078125 39.65625 45.90625 
L 39.65625 71.578125 
L 48.390625 71.578125 
L 48.390625 0 
z
M 12.453125 25.875 
Q 12.453125 15.921875 16.640625 10.984375 
Q 20.84375 6.0625 26.5625 6.0625 
Q 32.328125 6.0625 36.34375 10.765625 
Q 40.375 15.484375 40.375 25.140625 
Q 40.375 35.796875 36.265625 40.765625 
Q 32.171875 45.75 26.171875 45.75 
Q 20.3125 45.75 16.375 40.96875 
Q 12.453125 36.1875 12.453125 25.875 
z
" id="ArialMT-100"/>
      <path d="M 8.6875 0 
L 8.6875 45.015625 
L 0.921875 45.015625 
L 0.921875 51.859375 
L 8.6875 51.859375 
L 8.6875 57.375 
Q 8.6875 62.59375 9.625 65.140625 
Q 10.890625 68.5625 14.078125 70.671875 
Q 17.28125 72.796875 23.046875 72.796875 
Q 26.765625 72.796875 31.25 71.921875 
L 29.9375 64.265625 
Q 27.203125 64.75 24.75 64.75 
Q 20.75 64.75 19.09375 63.03125 
Q 17.4375 61.328125 17.4375 56.640625 
L 17.4375 51.859375 
L 27.546875 51.859375 
L 27.546875 45.015625 
L 17.4375 45.015625 
L 17.4375 0 
z
" id="ArialMT-102"/>
      <path d="M 40.4375 6.390625 
Q 35.546875 2.25 31.03125 0.53125 
Q 26.515625 -1.171875 21.34375 -1.171875 
Q 12.796875 -1.171875 8.203125 3 
Q 3.609375 7.171875 3.609375 13.671875 
Q 3.609375 17.484375 5.34375 20.625 
Q 7.078125 23.78125 9.890625 25.6875 
Q 12.703125 27.59375 16.21875 28.5625 
Q 18.796875 29.25 24.03125 29.890625 
Q 34.671875 31.15625 39.703125 32.90625 
Q 39.75 34.71875 39.75 35.203125 
Q 39.75 40.578125 37.25 42.78125 
Q 33.890625 45.75 27.25 45.75 
Q 21.046875 45.75 18.09375 43.578125 
Q 15.140625 41.40625 13.71875 35.890625 
L 5.125 37.0625 
Q 6.296875 42.578125 8.984375 45.96875 
Q 11.671875 49.359375 16.75 51.1875 
Q 21.828125 53.03125 28.515625 53.03125 
Q 35.15625 53.03125 39.296875 51.46875 
Q 43.453125 49.90625 45.40625 47.53125 
Q 47.359375 45.171875 48.140625 41.546875 
Q 48.578125 39.3125 48.578125 33.453125 
L 48.578125 21.734375 
Q 48.578125 9.46875 49.140625 6.21875 
Q 49.703125 2.984375 51.375 0 
L 42.1875 0 
Q 40.828125 2.734375 40.4375 6.390625 
z
M 39.703125 26.03125 
Q 34.90625 24.078125 25.34375 22.703125 
Q 19.921875 21.921875 17.671875 20.9375 
Q 15.4375 19.96875 14.203125 18.09375 
Q 12.984375 16.21875 12.984375 13.921875 
Q 12.984375 10.40625 15.640625 8.0625 
Q 18.3125 5.71875 23.4375 5.71875 
Q 28.515625 5.71875 32.46875 7.9375 
Q 36.421875 10.15625 38.28125 14.015625 
Q 39.703125 17 39.703125 22.796875 
z
" id="ArialMT-97"/>
      <path d="M 3.078125 15.484375 
L 11.765625 16.84375 
Q 12.5 11.625 15.84375 8.84375 
Q 19.1875 6.0625 25.203125 6.0625 
Q 31.25 6.0625 34.171875 8.515625 
Q 37.109375 10.984375 37.109375 14.3125 
Q 37.109375 17.28125 34.515625 19 
Q 32.71875 20.171875 25.53125 21.96875 
Q 15.875 24.421875 12.140625 26.203125 
Q 8.40625 27.984375 6.46875 31.125 
Q 4.546875 34.28125 4.546875 38.09375 
Q 4.546875 41.546875 6.125 44.5 
Q 7.71875 47.46875 10.453125 49.421875 
Q 12.5 50.921875 16.03125 51.96875 
Q 19.578125 53.03125 23.640625 53.03125 
Q 29.734375 53.03125 34.34375 51.265625 
Q 38.96875 49.515625 41.15625 46.5 
Q 43.359375 43.5 44.1875 38.484375 
L 35.59375 37.3125 
Q 35.015625 41.3125 32.203125 43.546875 
Q 29.390625 45.796875 24.265625 45.796875 
Q 18.21875 45.796875 15.625 43.796875 
Q 13.03125 41.796875 13.03125 39.109375 
Q 13.03125 37.40625 14.109375 36.03125 
Q 15.1875 34.625 17.484375 33.6875 
Q 18.796875 33.203125 25.25 31.453125 
Q 34.578125 28.953125 38.25 27.359375 
Q 41.9375 25.78125 44.03125 22.75 
Q 46.140625 19.734375 46.140625 15.234375 
Q 46.140625 10.84375 43.578125 6.953125 
Q 41.015625 3.078125 36.171875 0.953125 
Q 31.34375 -1.171875 25.25 -1.171875 
Q 15.140625 -1.171875 9.84375 3.03125 
Q 4.546875 7.234375 3.078125 15.484375 
z
" id="ArialMT-115"/>
     </defs>
     <use xlink:href="#ArialMT-84"/>
     <use x="61.083984" xlink:href="#ArialMT-104"/>
     <use x="116.699219" xlink:href="#ArialMT-49"/>
     <use x="172.314453" xlink:href="#ArialMT-32"/>
     <use x="200.097656" xlink:href="#ArialMT-100"/>
     <use x="255.712891" xlink:href="#ArialMT-105"/>
     <use x="277.929688" xlink:href="#ArialMT-102"/>
     <use x="303.962891" xlink:href="#ArialMT-102"/>
     <use x="331.746094" xlink:href="#ArialMT-101"/>
     <use x="387.361328" xlink:href="#ArialMT-114"/>
     <use x="420.662109" xlink:href="#ArialMT-101"/>
     <use x="476.277344" xlink:href="#ArialMT-110"/>
     <use x="531.892578" xlink:href="#ArialMT-116"/>
     <use x="559.675781" xlink:href="#ArialMT-105"/>
     <use x="581.892578" xlink:href="#ArialMT-97"/>
     <use x="637.507812" xlink:href="#ArialMT-116"/>
     <use x="665.291016" xlink:href="#ArialMT-105"/>
     <use x="687.507812" xlink:href="#ArialMT-111"/>
     <use x="743.123047" xlink:href="#ArialMT-110"/>
     <use x="798.738281" xlink:href="#ArialMT-32"/>
     <use x="826.521484" xlink:href="#ArialMT-111"/>
     <use x="882.136719" xlink:href="#ArialMT-110"/>
     <use x="937.751953" xlink:href="#ArialMT-115"/>
     <use x="987.751953" xlink:href="#ArialMT-101"/>
     <use x="1043.367188" xlink:href="#ArialMT-116"/>
    </g>
   </g>
  </g>
 </g>
 <defs>
  <clipPath id="pf4a4d218fd">
   <rect height="95.3115" width="121.224" x="43.548" y="22.848"/>
  </clipPath>
 </defs>
</svg>
