<?xml version="1.0" encoding="utf-8" standalone="no"?>
<!DOCTYPE svg PUBLIC "-//W3C//DTD SVG 1.1//EN"
  "http://www.w3.org/Graphics/SVG/1.1/DTD/svg11.dtd">
<svg xmlns:xlink="http://www.w3.org/1999/xlink" width="324pt" height="86.4pt" viewBox="0 0 324 86.4" xmlns="http://www.w3.org/2000/svg" version="1.1">
 <metadata>
  <rdf:RDF xmlns:dc="http://purl.org/dc/elements/1.1/" xmlns:cc="http://creativecommons.org/ns#" xmlns:rdf="http://www.w3.org/1999/02/22-rdf-syntax-ns#">
   <cc:Work>
    <dc:type rdf:resource="http://purl.org/dc/dcmitype/StillImage"/>
    <dc:date>2022-12-20T18:17:56.187769</dc:date>
    <dc:format>image/svg+xml</dc:format>
    <dc:creator>
     <cc:Agent>
      <dc:title>Matplotlib v3.5.1, https://matplotlib.org/</dc:title>
     </cc:Agent>
    </dc:creator>
   </cc:Work>
  </rdf:RDF>
 </metadata>
 <defs>
  <style type="text/css">*{stroke-linejoin: round; stroke-linecap: butt}</style>
 </defs>
 <g id="figure_1">
  <g id="patch_1">
   <path d="M 0 86.4 
L 324 86.4 
L 324 0 
L 0 0 
L 0 86.4 
z
" style="fill: none"/>
  </g>
  <g id="axes_1">
   <g id="patch_2">
    <path d="M 40.5 76.896 
L 114.352941 76.896 
L 114.352941 10.368 
L 40.5 10.368 
L 40.5 76.896 
z
" style="fill: none"/>
   </g>
   <g id="matplotlib.axis_1">
    <g id="xtick_1">
     <g id="line2d_1">
      <defs>
       <path id="m97799cdc4b" d="M 0 0 
L 0 4 
" style="stroke: #262626; stroke-width: 0.8"/>
      </defs>
      <g>
       <use xlink:href="#m97799cdc4b" x="43.595632" y="76.896" style="fill: #262626; stroke: #262626; stroke-width: 0.8"/>
      </g>
     </g>
     <g id="text_1">
      <!-- 0 -->
      <g style="fill: #262626" transform="translate(41.371257 88.62225)scale(0.08 -0.08)">
       <defs>
        <path id="ArialMT-30" d="M 266 2259 
Q 266 3072 433 3567 
Q 600 4063 929 4331 
Q 1259 4600 1759 4600 
Q 2128 4600 2406 4451 
Q 2684 4303 2865 4023 
Q 3047 3744 3150 3342 
Q 3253 2941 3253 2259 
Q 3253 1453 3087 958 
Q 2922 463 2592 192 
Q 2263 -78 1759 -78 
Q 1097 -78 719 397 
Q 266 969 266 2259 
z
M 844 2259 
Q 844 1131 1108 757 
Q 1372 384 1759 384 
Q 2147 384 2411 759 
Q 2675 1134 2675 2259 
Q 2675 3391 2411 3762 
Q 2147 4134 1753 4134 
Q 1366 4134 1134 3806 
Q 844 3388 844 2259 
z
" transform="scale(0.015625)"/>
       </defs>
       <use xlink:href="#ArialMT-30"/>
      </g>
     </g>
    </g>
    <g id="xtick_2">
     <g id="line2d_2">
      <g>
       <use xlink:href="#m97799cdc4b" x="61.284959" y="76.896" style="fill: #262626; stroke: #262626; stroke-width: 0.8"/>
      </g>
     </g>
     <g id="text_2">
      <!-- 24 -->
      <g style="fill: #262626" transform="translate(56.836209 88.62225)scale(0.08 -0.08)">
       <defs>
        <path id="ArialMT-32" d="M 3222 541 
L 3222 0 
L 194 0 
Q 188 203 259 391 
Q 375 700 629 1000 
Q 884 1300 1366 1694 
Q 2113 2306 2375 2664 
Q 2638 3022 2638 3341 
Q 2638 3675 2398 3904 
Q 2159 4134 1775 4134 
Q 1369 4134 1125 3890 
Q 881 3647 878 3216 
L 300 3275 
Q 359 3922 746 4261 
Q 1134 4600 1788 4600 
Q 2447 4600 2831 4234 
Q 3216 3869 3216 3328 
Q 3216 3053 3103 2787 
Q 2991 2522 2730 2228 
Q 2469 1934 1863 1422 
Q 1356 997 1212 845 
Q 1069 694 975 541 
L 3222 541 
z
" transform="scale(0.015625)"/>
        <path id="ArialMT-34" d="M 2069 0 
L 2069 1097 
L 81 1097 
L 81 1613 
L 2172 4581 
L 2631 4581 
L 2631 1613 
L 3250 1613 
L 3250 1097 
L 2631 1097 
L 2631 0 
L 2069 0 
z
M 2069 1613 
L 2069 3678 
L 634 1613 
L 2069 1613 
z
" transform="scale(0.015625)"/>
       </defs>
       <use xlink:href="#ArialMT-32"/>
       <use xlink:href="#ArialMT-34" x="55.615234"/>
      </g>
     </g>
    </g>
    <g id="xtick_3">
     <g id="line2d_3">
      <g>
       <use xlink:href="#m97799cdc4b" x="78.974287" y="76.896" style="fill: #262626; stroke: #262626; stroke-width: 0.8"/>
      </g>
     </g>
     <g id="text_3">
      <!-- 48 -->
      <g style="fill: #262626" transform="translate(74.525537 88.62225)scale(0.08 -0.08)">
       <defs>
        <path id="ArialMT-38" d="M 1131 2484 
Q 781 2613 612 2850 
Q 444 3088 444 3419 
Q 444 3919 803 4259 
Q 1163 4600 1759 4600 
Q 2359 4600 2725 4251 
Q 3091 3903 3091 3403 
Q 3091 3084 2923 2848 
Q 2756 2613 2416 2484 
Q 2838 2347 3058 2040 
Q 3278 1734 3278 1309 
Q 3278 722 2862 322 
Q 2447 -78 1769 -78 
Q 1091 -78 675 323 
Q 259 725 259 1325 
Q 259 1772 486 2073 
Q 713 2375 1131 2484 
z
M 1019 3438 
Q 1019 3113 1228 2906 
Q 1438 2700 1772 2700 
Q 2097 2700 2305 2904 
Q 2513 3109 2513 3406 
Q 2513 3716 2298 3927 
Q 2084 4138 1766 4138 
Q 1444 4138 1231 3931 
Q 1019 3725 1019 3438 
z
M 838 1322 
Q 838 1081 952 856 
Q 1066 631 1291 507 
Q 1516 384 1775 384 
Q 2178 384 2440 643 
Q 2703 903 2703 1303 
Q 2703 1709 2433 1975 
Q 2163 2241 1756 2241 
Q 1359 2241 1098 1978 
Q 838 1716 838 1322 
z
" transform="scale(0.015625)"/>
       </defs>
       <use xlink:href="#ArialMT-34"/>
       <use xlink:href="#ArialMT-38" x="55.615234"/>
      </g>
     </g>
    </g>
    <g id="xtick_4">
     <g id="line2d_4">
      <g>
       <use xlink:href="#m97799cdc4b" x="96.663614" y="76.896" style="fill: #262626; stroke: #262626; stroke-width: 0.8"/>
      </g>
     </g>
     <g id="text_4">
      <!-- 72 -->
      <g style="fill: #262626" transform="translate(92.214864 88.62225)scale(0.08 -0.08)">
       <defs>
        <path id="ArialMT-37" d="M 303 3981 
L 303 4522 
L 3269 4522 
L 3269 4084 
Q 2831 3619 2401 2847 
Q 1972 2075 1738 1259 
Q 1569 684 1522 0 
L 944 0 
Q 953 541 1156 1306 
Q 1359 2072 1739 2783 
Q 2119 3494 2547 3981 
L 303 3981 
z
" transform="scale(0.015625)"/>
       </defs>
       <use xlink:href="#ArialMT-37"/>
       <use xlink:href="#ArialMT-32" x="55.615234"/>
      </g>
     </g>
    </g>
    <g id="xtick_5">
     <g id="line2d_5">
      <g>
       <use xlink:href="#m97799cdc4b" x="114.352941" y="76.896" style="fill: #262626; stroke: #262626; stroke-width: 0.8"/>
      </g>
     </g>
     <g id="text_5">
      <!-- 96 -->
      <g style="fill: #262626" transform="translate(109.904191 88.62225)scale(0.08 -0.08)">
       <defs>
        <path id="ArialMT-39" d="M 350 1059 
L 891 1109 
Q 959 728 1153 556 
Q 1347 384 1650 384 
Q 1909 384 2104 503 
Q 2300 622 2425 820 
Q 2550 1019 2634 1356 
Q 2719 1694 2719 2044 
Q 2719 2081 2716 2156 
Q 2547 1888 2255 1720 
Q 1963 1553 1622 1553 
Q 1053 1553 659 1965 
Q 266 2378 266 3053 
Q 266 3750 677 4175 
Q 1088 4600 1706 4600 
Q 2153 4600 2523 4359 
Q 2894 4119 3086 3673 
Q 3278 3228 3278 2384 
Q 3278 1506 3087 986 
Q 2897 466 2520 194 
Q 2144 -78 1638 -78 
Q 1100 -78 759 220 
Q 419 519 350 1059 
z
M 2653 3081 
Q 2653 3566 2395 3850 
Q 2138 4134 1775 4134 
Q 1400 4134 1122 3828 
Q 844 3522 844 3034 
Q 844 2597 1108 2323 
Q 1372 2050 1759 2050 
Q 2150 2050 2401 2323 
Q 2653 2597 2653 3081 
z
" transform="scale(0.015625)"/>
        <path id="ArialMT-36" d="M 3184 3459 
L 2625 3416 
Q 2550 3747 2413 3897 
Q 2184 4138 1850 4138 
Q 1581 4138 1378 3988 
Q 1113 3794 959 3422 
Q 806 3050 800 2363 
Q 1003 2672 1297 2822 
Q 1591 2972 1913 2972 
Q 2475 2972 2870 2558 
Q 3266 2144 3266 1488 
Q 3266 1056 3080 686 
Q 2894 316 2569 119 
Q 2244 -78 1831 -78 
Q 1128 -78 684 439 
Q 241 956 241 2144 
Q 241 3472 731 4075 
Q 1159 4600 1884 4600 
Q 2425 4600 2770 4297 
Q 3116 3994 3184 3459 
z
M 888 1484 
Q 888 1194 1011 928 
Q 1134 663 1356 523 
Q 1578 384 1822 384 
Q 2178 384 2434 671 
Q 2691 959 2691 1453 
Q 2691 1928 2437 2201 
Q 2184 2475 1800 2475 
Q 1419 2475 1153 2201 
Q 888 1928 888 1484 
z
" transform="scale(0.015625)"/>
       </defs>
       <use xlink:href="#ArialMT-39"/>
       <use xlink:href="#ArialMT-36" x="55.615234"/>
      </g>
     </g>
    </g>
    <g id="text_6">
     <!-- time (h) -->
     <g style="fill: #262626" transform="translate(62.176392 100.763969)scale(0.09 -0.09)">
      <defs>
       <path id="ArialMT-74" d="M 1650 503 
L 1731 6 
Q 1494 -44 1306 -44 
Q 1000 -44 831 53 
Q 663 150 594 308 
Q 525 466 525 972 
L 525 2881 
L 113 2881 
L 113 3319 
L 525 3319 
L 525 4141 
L 1084 4478 
L 1084 3319 
L 1650 3319 
L 1650 2881 
L 1084 2881 
L 1084 941 
Q 1084 700 1114 631 
Q 1144 563 1211 522 
Q 1278 481 1403 481 
Q 1497 481 1650 503 
z
" transform="scale(0.015625)"/>
       <path id="ArialMT-69" d="M 425 3934 
L 425 4581 
L 988 4581 
L 988 3934 
L 425 3934 
z
M 425 0 
L 425 3319 
L 988 3319 
L 988 0 
L 425 0 
z
" transform="scale(0.015625)"/>
       <path id="ArialMT-6d" d="M 422 0 
L 422 3319 
L 925 3319 
L 925 2853 
Q 1081 3097 1340 3245 
Q 1600 3394 1931 3394 
Q 2300 3394 2536 3241 
Q 2772 3088 2869 2813 
Q 3263 3394 3894 3394 
Q 4388 3394 4653 3120 
Q 4919 2847 4919 2278 
L 4919 0 
L 4359 0 
L 4359 2091 
Q 4359 2428 4304 2576 
Q 4250 2725 4106 2815 
Q 3963 2906 3769 2906 
Q 3419 2906 3187 2673 
Q 2956 2441 2956 1928 
L 2956 0 
L 2394 0 
L 2394 2156 
Q 2394 2531 2256 2718 
Q 2119 2906 1806 2906 
Q 1569 2906 1367 2781 
Q 1166 2656 1075 2415 
Q 984 2175 984 1722 
L 984 0 
L 422 0 
z
" transform="scale(0.015625)"/>
       <path id="ArialMT-65" d="M 2694 1069 
L 3275 997 
Q 3138 488 2766 206 
Q 2394 -75 1816 -75 
Q 1088 -75 661 373 
Q 234 822 234 1631 
Q 234 2469 665 2931 
Q 1097 3394 1784 3394 
Q 2450 3394 2872 2941 
Q 3294 2488 3294 1666 
Q 3294 1616 3291 1516 
L 816 1516 
Q 847 969 1125 678 
Q 1403 388 1819 388 
Q 2128 388 2347 550 
Q 2566 713 2694 1069 
z
M 847 1978 
L 2700 1978 
Q 2663 2397 2488 2606 
Q 2219 2931 1791 2931 
Q 1403 2931 1139 2672 
Q 875 2413 847 1978 
z
" transform="scale(0.015625)"/>
       <path id="ArialMT-20" transform="scale(0.015625)"/>
       <path id="ArialMT-28" d="M 1497 -1347 
Q 1031 -759 709 28 
Q 388 816 388 1659 
Q 388 2403 628 3084 
Q 909 3875 1497 4659 
L 1900 4659 
Q 1522 4009 1400 3731 
Q 1209 3300 1100 2831 
Q 966 2247 966 1656 
Q 966 153 1900 -1347 
L 1497 -1347 
z
" transform="scale(0.015625)"/>
       <path id="ArialMT-68" d="M 422 0 
L 422 4581 
L 984 4581 
L 984 2938 
Q 1378 3394 1978 3394 
Q 2347 3394 2619 3248 
Q 2891 3103 3008 2847 
Q 3125 2591 3125 2103 
L 3125 0 
L 2563 0 
L 2563 2103 
Q 2563 2525 2380 2717 
Q 2197 2909 1863 2909 
Q 1613 2909 1392 2779 
Q 1172 2650 1078 2428 
Q 984 2206 984 1816 
L 984 0 
L 422 0 
z
" transform="scale(0.015625)"/>
       <path id="ArialMT-29" d="M 791 -1347 
L 388 -1347 
Q 1322 153 1322 1656 
Q 1322 2244 1188 2822 
Q 1081 3291 891 3722 
Q 769 4003 388 4659 
L 791 4659 
Q 1378 3875 1659 3084 
Q 1900 2403 1900 1659 
Q 1900 816 1576 28 
Q 1253 -759 791 -1347 
z
" transform="scale(0.015625)"/>
      </defs>
      <use xlink:href="#ArialMT-74"/>
      <use xlink:href="#ArialMT-69" x="27.783203"/>
      <use xlink:href="#ArialMT-6d" x="50"/>
      <use xlink:href="#ArialMT-65" x="133.300781"/>
      <use xlink:href="#ArialMT-20" x="188.916016"/>
      <use xlink:href="#ArialMT-28" x="216.699219"/>
      <use xlink:href="#ArialMT-68" x="250"/>
      <use xlink:href="#ArialMT-29" x="305.615234"/>
     </g>
    </g>
   </g>
   <g id="matplotlib.axis_2">
    <g id="ytick_1">
     <g id="line2d_6">
      <defs>
       <path id="mc9e40f975b" d="M 0 0 
L -4 0 
" style="stroke: #262626; stroke-width: 0.8"/>
      </defs>
      <g>
       <use xlink:href="#mc9e40f975b" x="40.5" y="71.352" style="fill: #262626; stroke: #262626; stroke-width: 0.8"/>
      </g>
     </g>
     <g id="text_7">
      <!-- 0 -->
      <g style="fill: #262626" transform="translate(30.05125 74.215125)scale(0.08 -0.08)">
       <use xlink:href="#ArialMT-30"/>
      </g>
     </g>
    </g>
    <g id="ytick_2">
     <g id="line2d_7">
      <g>
       <use xlink:href="#mc9e40f975b" x="40.5" y="43.632" style="fill: #262626; stroke: #262626; stroke-width: 0.8"/>
      </g>
     </g>
     <g id="text_8">
      <!-- 0.5 -->
      <g style="fill: #262626" transform="translate(23.38 46.495125)scale(0.08 -0.08)">
       <defs>
        <path id="ArialMT-2e" d="M 581 0 
L 581 641 
L 1222 641 
L 1222 0 
L 581 0 
z
" transform="scale(0.015625)"/>
        <path id="ArialMT-35" d="M 266 1200 
L 856 1250 
Q 922 819 1161 601 
Q 1400 384 1738 384 
Q 2144 384 2425 690 
Q 2706 997 2706 1503 
Q 2706 1984 2436 2262 
Q 2166 2541 1728 2541 
Q 1456 2541 1237 2417 
Q 1019 2294 894 2097 
L 366 2166 
L 809 4519 
L 3088 4519 
L 3088 3981 
L 1259 3981 
L 1013 2750 
Q 1425 3038 1878 3038 
Q 2478 3038 2890 2622 
Q 3303 2206 3303 1553 
Q 3303 931 2941 478 
Q 2500 -78 1738 -78 
Q 1113 -78 717 272 
Q 322 622 266 1200 
z
" transform="scale(0.015625)"/>
       </defs>
       <use xlink:href="#ArialMT-30"/>
       <use xlink:href="#ArialMT-2e" x="55.615234"/>
       <use xlink:href="#ArialMT-35" x="83.398438"/>
      </g>
     </g>
    </g>
    <g id="ytick_3">
     <g id="line2d_8">
      <g>
       <use xlink:href="#mc9e40f975b" x="40.5" y="15.912" style="fill: #262626; stroke: #262626; stroke-width: 0.8"/>
      </g>
     </g>
     <g id="text_9">
      <!-- 1.0 -->
      <g style="fill: #262626" transform="translate(23.38 18.775125)scale(0.08 -0.08)">
       <defs>
        <path id="ArialMT-31" d="M 2384 0 
L 1822 0 
L 1822 3584 
Q 1619 3391 1289 3197 
Q 959 3003 697 2906 
L 697 3450 
Q 1169 3672 1522 3987 
Q 1875 4303 2022 4600 
L 2384 4600 
L 2384 0 
z
" transform="scale(0.015625)"/>
       </defs>
       <use xlink:href="#ArialMT-31"/>
       <use xlink:href="#ArialMT-2e" x="55.615234"/>
       <use xlink:href="#ArialMT-30" x="83.398438"/>
      </g>
     </g>
    </g>
    <g id="text_10">
     <!-- expr. norm. -->
     <g style="fill: #262626" transform="translate(17.59125 66.139734)rotate(-90)scale(0.09 -0.09)">
      <defs>
       <path id="ArialMT-78" d="M 47 0 
L 1259 1725 
L 138 3319 
L 841 3319 
L 1350 2541 
Q 1494 2319 1581 2169 
Q 1719 2375 1834 2534 
L 2394 3319 
L 3066 3319 
L 1919 1756 
L 3153 0 
L 2463 0 
L 1781 1031 
L 1600 1309 
L 728 0 
L 47 0 
z
" transform="scale(0.015625)"/>
       <path id="ArialMT-70" d="M 422 -1272 
L 422 3319 
L 934 3319 
L 934 2888 
Q 1116 3141 1344 3267 
Q 1572 3394 1897 3394 
Q 2322 3394 2647 3175 
Q 2972 2956 3137 2557 
Q 3303 2159 3303 1684 
Q 3303 1175 3120 767 
Q 2938 359 2589 142 
Q 2241 -75 1856 -75 
Q 1575 -75 1351 44 
Q 1128 163 984 344 
L 984 -1272 
L 422 -1272 
z
M 931 1641 
Q 931 1000 1190 694 
Q 1450 388 1819 388 
Q 2194 388 2461 705 
Q 2728 1022 2728 1688 
Q 2728 2322 2467 2637 
Q 2206 2953 1844 2953 
Q 1484 2953 1207 2617 
Q 931 2281 931 1641 
z
" transform="scale(0.015625)"/>
       <path id="ArialMT-72" d="M 416 0 
L 416 3319 
L 922 3319 
L 922 2816 
Q 1116 3169 1280 3281 
Q 1444 3394 1641 3394 
Q 1925 3394 2219 3213 
L 2025 2691 
Q 1819 2813 1613 2813 
Q 1428 2813 1281 2702 
Q 1134 2591 1072 2394 
Q 978 2094 978 1738 
L 978 0 
L 416 0 
z
" transform="scale(0.015625)"/>
       <path id="ArialMT-6e" d="M 422 0 
L 422 3319 
L 928 3319 
L 928 2847 
Q 1294 3394 1984 3394 
Q 2284 3394 2536 3286 
Q 2788 3178 2913 3003 
Q 3038 2828 3088 2588 
Q 3119 2431 3119 2041 
L 3119 0 
L 2556 0 
L 2556 2019 
Q 2556 2363 2490 2533 
Q 2425 2703 2258 2804 
Q 2091 2906 1866 2906 
Q 1506 2906 1245 2678 
Q 984 2450 984 1813 
L 984 0 
L 422 0 
z
" transform="scale(0.015625)"/>
       <path id="ArialMT-6f" d="M 213 1659 
Q 213 2581 725 3025 
Q 1153 3394 1769 3394 
Q 2453 3394 2887 2945 
Q 3322 2497 3322 1706 
Q 3322 1066 3130 698 
Q 2938 331 2570 128 
Q 2203 -75 1769 -75 
Q 1072 -75 642 372 
Q 213 819 213 1659 
z
M 791 1659 
Q 791 1022 1069 705 
Q 1347 388 1769 388 
Q 2188 388 2466 706 
Q 2744 1025 2744 1678 
Q 2744 2294 2464 2611 
Q 2184 2928 1769 2928 
Q 1347 2928 1069 2612 
Q 791 2297 791 1659 
z
" transform="scale(0.015625)"/>
      </defs>
      <use xlink:href="#ArialMT-65"/>
      <use xlink:href="#ArialMT-78" x="55.615234"/>
      <use xlink:href="#ArialMT-70" x="105.615234"/>
      <use xlink:href="#ArialMT-72" x="161.230469"/>
      <use xlink:href="#ArialMT-2e" x="189.03125"/>
      <use xlink:href="#ArialMT-20" x="216.814453"/>
      <use xlink:href="#ArialMT-6e" x="244.597656"/>
      <use xlink:href="#ArialMT-6f" x="300.212891"/>
      <use xlink:href="#ArialMT-72" x="355.828125"/>
      <use xlink:href="#ArialMT-6d" x="389.128906"/>
      <use xlink:href="#ArialMT-2e" x="472.429688"/>
     </g>
    </g>
   </g>
   <g id="line2d_9">
    <path d="M 43.595632 71.352 
L 44.221013 64.89848 
L 44.846393 59.196185 
L 45.471773 54.157669 
L 46.097153 49.705663 
L 46.722534 45.771895 
L 47.347914 42.29604 
L 47.973294 39.224793 
L 48.598674 36.511056 
L 49.224055 34.113213 
L 49.849435 31.994492 
L 50.474815 30.122402 
L 51.100195 28.468233 
L 51.725576 27.006619 
L 52.350956 25.715144 
L 52.976336 24.574004 
L 53.601716 23.5657 
L 54.227097 22.674767 
L 54.852477 21.887544 
L 55.477857 21.191958 
L 56.103237 20.577342 
L 56.728618 20.03427 
L 57.353998 19.554415 
L 57.979378 19.130418 
L 58.604758 18.755777 
L 59.230139 18.424746 
L 59.855519 18.132248 
L 60.480899 17.873799 
L 61.106279 17.645435 
L 61.73166 17.443654 
L 62.35704 17.265361 
L 62.98242 17.107822 
L 63.6078 16.968622 
L 64.233181 16.845625 
L 64.858561 16.736946 
L 65.483941 16.640918 
L 66.109321 16.556068 
L 66.734702 16.481095 
L 67.360082 16.414849 
L 67.985462 16.356315 
L 68.610842 16.304594 
L 69.236223 16.258894 
L 69.861603 16.218514 
L 70.486983 16.182834 
L 71.112364 16.151307 
L 71.737744 16.123451 
L 72.363124 16.098837 
L 72.988504 16.077088 
L 73.613885 16.057871 
L 74.239265 16.04089 
L 74.864645 16.025887 
L 75.490025 16.01263 
L 76.115406 16.000916 
L 76.740786 15.990566 
L 77.366166 15.98142 
L 77.991546 15.973339 
L 78.616927 15.966199 
L 79.242307 15.95989 
L 79.867687 15.954315 
L 80.493067 15.94939 
L 81.118448 15.945037 
L 81.743828 15.941192 
L 82.369208 15.937793 
L 82.994588 15.934791 
L 83.619969 15.932138 
L 84.245349 15.929794 
L 84.870729 15.927723 
L 85.496109 15.925892 
L 86.12149 15.924275 
L 86.74687 15.922846 
L 87.37225 15.921584 
L 87.99763 15.920468 
L 88.623011 15.919482 
L 89.248391 15.918611 
L 89.873771 15.917842 
L 90.499151 15.917162 
L 91.124532 15.916561 
L 91.749912 15.91603 
L 92.375292 15.915561 
L 93.000672 15.915146 
L 93.626053 15.91478 
L 94.251433 15.914457 
L 94.876813 15.914171 
L 95.502193 15.913918 
L 96.127574 15.913695 
L 96.752954 15.913497 
L 97.378334 15.913323 
L 98.003714 15.913169 
L 98.629095 15.913033 
L 99.254475 15.912913 
L 99.879855 15.912806 
L 100.505236 15.912713 
L 101.130616 15.91263 
L 101.755996 15.912556 
L 102.381376 15.912492 
L 103.006757 15.912434 
L 103.632137 15.912384 
L 104.257517 15.912339 
L 104.882897 15.9123 
L 105.508278 15.912265 
" clip-path="url(#p9303c1a5d1)" style="fill: none; stroke: #000000; stroke-width: 1.8; stroke-linecap: round"/>
   </g>
   <g id="line2d_10">
    <path d="M 43.595632 71.352 
L 44.221013 64.89848 
L 44.846393 59.196185 
L 45.471773 54.157669 
L 46.097153 49.705663 
L 46.722534 45.771895 
L 47.347914 42.29604 
L 47.973294 39.224793 
L 48.598674 36.511056 
L 49.224055 34.113213 
L 49.849435 31.994492 
L 50.474815 30.122402 
L 51.100195 28.468233 
L 51.725576 27.006619 
L 52.350956 25.715144 
L 52.976336 24.574004 
L 53.601716 23.5657 
L 54.227097 22.674767 
L 54.852477 21.887544 
L 55.477857 21.191958 
L 56.103237 20.577342 
L 56.728618 20.03427 
L 57.353998 19.554415 
L 57.979378 19.130418 
L 58.604758 18.755777 
L 59.230139 18.424746 
L 59.855519 18.132248 
L 60.480899 17.873799 
L 61.106279 17.645435 
L 61.73166 17.443654 
L 62.35704 17.265361 
L 62.98242 17.107822 
L 63.6078 16.968622 
L 64.233181 16.845625 
L 64.858561 16.736946 
L 65.483941 16.640918 
L 66.109321 16.556068 
L 66.734702 16.481095 
L 67.360082 16.414849 
L 67.985462 16.356315 
L 68.610842 16.304594 
L 69.236223 16.258894 
L 69.861603 16.218514 
L 70.486983 16.182834 
L 71.112364 16.151307 
L 71.737744 16.123451 
L 72.363124 16.098837 
L 72.988504 16.077088 
L 73.613885 16.057871 
L 74.239265 16.04089 
L 74.864645 16.025887 
L 75.490025 16.01263 
L 76.115406 16.000916 
L 76.740786 15.990566 
L 77.366166 15.98142 
L 77.991546 15.973339 
L 78.616927 15.966199 
L 79.242307 15.95989 
L 79.867687 15.954315 
L 80.493067 15.94939 
L 81.118448 15.945037 
L 81.743828 15.941192 
L 82.369208 15.937793 
L 82.994588 15.934791 
L 83.619969 15.932138 
L 84.245349 15.929794 
L 84.870729 15.927723 
L 85.496109 15.925892 
L 86.12149 15.924275 
L 86.74687 15.922846 
L 87.37225 15.921584 
L 87.99763 15.920468 
L 88.623011 15.919482 
L 89.248391 15.918611 
L 89.873771 15.917842 
L 90.499151 15.917162 
L 91.124532 15.916561 
L 91.749912 15.91603 
L 92.375292 15.915561 
L 93.000672 15.915146 
L 93.626053 15.91478 
L 94.251433 15.914457 
L 94.876813 15.914171 
L 95.502193 15.913918 
L 96.127574 15.913695 
L 96.752954 15.913497 
L 97.378334 15.913323 
L 98.003714 15.913169 
L 98.629095 15.913033 
L 99.254475 15.912913 
L 99.879855 15.912806 
L 100.505236 15.912713 
L 101.130616 15.91263 
L 101.755996 15.912556 
L 102.381376 15.912492 
L 103.006757 15.912434 
L 103.632137 15.912384 
L 104.257517 15.912339 
L 104.882897 15.9123 
L 105.508278 15.912265 
" clip-path="url(#p9303c1a5d1)" style="fill: none; stroke: #808080; stroke-width: 1.8; stroke-linecap: round"/>
   </g>
   <g id="LineCollection_1">
    <path d="M 43.595632 76.095222 
L 43.595632 66.608778 
" clip-path="url(#p9303c1a5d1)" style="fill: none; stroke: #1f77b4"/>
    <path d="M 43.595632 76.095222 
L 43.595632 66.608778 
" clip-path="url(#p9303c1a5d1)" style="fill: none; stroke: #1f77b4"/>
    <path d="M 48.017964 39.640074 
L 48.017964 38.469833 
" clip-path="url(#p9303c1a5d1)" style="fill: none; stroke: #1f77b4"/>
    <path d="M 48.017964 39.640074 
L 48.017964 38.469833 
" clip-path="url(#p9303c1a5d1)" style="fill: none; stroke: #1f77b4"/>
    <path d="M 56.862628 20.934489 
L 56.862628 12.334766 
" clip-path="url(#p9303c1a5d1)" style="fill: none; stroke: #1f77b4"/>
    <path d="M 56.862628 20.934489 
L 56.862628 12.334766 
" clip-path="url(#p9303c1a5d1)" style="fill: none; stroke: #1f77b4"/>
    <path d="M 61.284959 22.734785 
L 61.284959 9.089215 
" clip-path="url(#p9303c1a5d1)" style="fill: none; stroke: #1f77b4"/>
    <path d="M 61.284959 22.734785 
L 61.284959 9.089215 
" clip-path="url(#p9303c1a5d1)" style="fill: none; stroke: #1f77b4"/>
    <path d="M 78.974287 26.466897 
L 78.974287 21.367825 
" clip-path="url(#p9303c1a5d1)" style="fill: none; stroke: #1f77b4"/>
    <path d="M 78.974287 26.466897 
L 78.974287 21.367825 
" clip-path="url(#p9303c1a5d1)" style="fill: none; stroke: #1f77b4"/>
    <path d="M 105.508278 19.953031 
L 105.508278 16.895021 
" clip-path="url(#p9303c1a5d1)" style="fill: none; stroke: #1f77b4"/>
    <path d="M 105.508278 19.953031 
L 105.508278 16.895021 
" clip-path="url(#p9303c1a5d1)" style="fill: none; stroke: #1f77b4"/>
   </g>
   <g id="line2d_11">
    <defs>
     <path id="md8f8e82478" d="M 5 0 
L -5 -0 
" style="stroke: #1f77b4"/>
    </defs>
    <g clip-path="url(#p9303c1a5d1)">
     <use xlink:href="#md8f8e82478" x="43.595632" y="76.095222" style="fill: #1f77b4; stroke: #1f77b4"/>
     <use xlink:href="#md8f8e82478" x="43.595632" y="76.095222" style="fill: #1f77b4; stroke: #1f77b4"/>
     <use xlink:href="#md8f8e82478" x="48.017964" y="39.640074" style="fill: #1f77b4; stroke: #1f77b4"/>
     <use xlink:href="#md8f8e82478" x="48.017964" y="39.640074" style="fill: #1f77b4; stroke: #1f77b4"/>
     <use xlink:href="#md8f8e82478" x="56.862628" y="20.934489" style="fill: #1f77b4; stroke: #1f77b4"/>
     <use xlink:href="#md8f8e82478" x="56.862628" y="20.934489" style="fill: #1f77b4; stroke: #1f77b4"/>
     <use xlink:href="#md8f8e82478" x="61.284959" y="22.734785" style="fill: #1f77b4; stroke: #1f77b4"/>
     <use xlink:href="#md8f8e82478" x="61.284959" y="22.734785" style="fill: #1f77b4; stroke: #1f77b4"/>
     <use xlink:href="#md8f8e82478" x="78.974287" y="26.466897" style="fill: #1f77b4; stroke: #1f77b4"/>
     <use xlink:href="#md8f8e82478" x="78.974287" y="26.466897" style="fill: #1f77b4; stroke: #1f77b4"/>
     <use xlink:href="#md8f8e82478" x="105.508278" y="19.953031" style="fill: #1f77b4; stroke: #1f77b4"/>
     <use xlink:href="#md8f8e82478" x="105.508278" y="19.953031" style="fill: #1f77b4; stroke: #1f77b4"/>
    </g>
   </g>
   <g id="line2d_12">
    <g clip-path="url(#p9303c1a5d1)">
     <use xlink:href="#md8f8e82478" x="43.595632" y="66.608778" style="fill: #1f77b4; stroke: #1f77b4"/>
     <use xlink:href="#md8f8e82478" x="43.595632" y="66.608778" style="fill: #1f77b4; stroke: #1f77b4"/>
     <use xlink:href="#md8f8e82478" x="48.017964" y="38.469833" style="fill: #1f77b4; stroke: #1f77b4"/>
     <use xlink:href="#md8f8e82478" x="48.017964" y="38.469833" style="fill: #1f77b4; stroke: #1f77b4"/>
     <use xlink:href="#md8f8e82478" x="56.862628" y="12.334766" style="fill: #1f77b4; stroke: #1f77b4"/>
     <use xlink:href="#md8f8e82478" x="56.862628" y="12.334766" style="fill: #1f77b4; stroke: #1f77b4"/>
     <use xlink:href="#md8f8e82478" x="61.284959" y="9.089215" style="fill: #1f77b4; stroke: #1f77b4"/>
     <use xlink:href="#md8f8e82478" x="61.284959" y="9.089215" style="fill: #1f77b4; stroke: #1f77b4"/>
     <use xlink:href="#md8f8e82478" x="78.974287" y="21.367825" style="fill: #1f77b4; stroke: #1f77b4"/>
     <use xlink:href="#md8f8e82478" x="78.974287" y="21.367825" style="fill: #1f77b4; stroke: #1f77b4"/>
     <use xlink:href="#md8f8e82478" x="105.508278" y="16.895021" style="fill: #1f77b4; stroke: #1f77b4"/>
     <use xlink:href="#md8f8e82478" x="105.508278" y="16.895021" style="fill: #1f77b4; stroke: #1f77b4"/>
    </g>
   </g>
   <g id="line2d_13">
    <defs>
     <path id="m3a9fa9e366" d="M 0 1.4 
C 0.371284 1.4 0.727412 1.252487 0.989949 0.989949 
C 1.252487 0.727412 1.4 0.371284 1.4 0 
C 1.4 -0.371284 1.252487 -0.727412 0.989949 -0.989949 
C 0.727412 -1.252487 0.371284 -1.4 0 -1.4 
C -0.371284 -1.4 -0.727412 -1.252487 -0.989949 -0.989949 
C -1.252487 -0.727412 -1.4 -0.371284 -1.4 0 
C -1.4 0.371284 -1.252487 0.727412 -0.989949 0.989949 
C -0.727412 1.252487 -0.371284 1.4 0 1.4 
z
" style="stroke: #1f77b4"/>
    </defs>
    <g clip-path="url(#p9303c1a5d1)">
     <use xlink:href="#m3a9fa9e366" x="43.595632" y="71.352" style="fill: #1f77b4; stroke: #1f77b4"/>
     <use xlink:href="#m3a9fa9e366" x="43.595632" y="71.352" style="fill: #1f77b4; stroke: #1f77b4"/>
     <use xlink:href="#m3a9fa9e366" x="48.017964" y="39.054954" style="fill: #1f77b4; stroke: #1f77b4"/>
     <use xlink:href="#m3a9fa9e366" x="48.017964" y="39.054954" style="fill: #1f77b4; stroke: #1f77b4"/>
     <use xlink:href="#m3a9fa9e366" x="56.862628" y="16.634627" style="fill: #1f77b4; stroke: #1f77b4"/>
     <use xlink:href="#m3a9fa9e366" x="56.862628" y="16.634627" style="fill: #1f77b4; stroke: #1f77b4"/>
     <use xlink:href="#m3a9fa9e366" x="61.284959" y="15.912" style="fill: #1f77b4; stroke: #1f77b4"/>
     <use xlink:href="#m3a9fa9e366" x="61.284959" y="15.912" style="fill: #1f77b4; stroke: #1f77b4"/>
     <use xlink:href="#m3a9fa9e366" x="78.974287" y="23.917361" style="fill: #1f77b4; stroke: #1f77b4"/>
     <use xlink:href="#m3a9fa9e366" x="78.974287" y="23.917361" style="fill: #1f77b4; stroke: #1f77b4"/>
     <use xlink:href="#m3a9fa9e366" x="105.508278" y="18.424026" style="fill: #1f77b4; stroke: #1f77b4"/>
     <use xlink:href="#m3a9fa9e366" x="105.508278" y="18.424026" style="fill: #1f77b4; stroke: #1f77b4"/>
    </g>
   </g>
   <g id="patch_3">
    <path d="M 40.5 76.896 
L 40.5 10.368 
" style="fill: none; stroke: #262626; stroke-linejoin: miter; stroke-linecap: square"/>
   </g>
   <g id="patch_4">
    <path d="M 114.352941 76.896 
L 114.352941 10.368 
" style="fill: none; stroke: #262626; stroke-linejoin: miter; stroke-linecap: square"/>
   </g>
   <g id="patch_5">
    <path d="M 40.5 76.896 
L 114.352941 76.896 
" style="fill: none; stroke: #262626; stroke-linejoin: miter; stroke-linecap: square"/>
   </g>
   <g id="patch_6">
    <path d="M 40.5 10.368 
L 114.352941 10.368 
" style="fill: none; stroke: #262626; stroke-linejoin: miter; stroke-linecap: square"/>
   </g>
   <g id="text_11">
    <!-- E(1,0.146), rmse=0.034 -->
    <g style="fill: #262626" transform="translate(58.336738 65.808)scale(0.06 -0.06)">
     <defs>
      <path id="ArialMT-45" d="M 506 0 
L 506 4581 
L 3819 4581 
L 3819 4041 
L 1113 4041 
L 1113 2638 
L 3647 2638 
L 3647 2100 
L 1113 2100 
L 1113 541 
L 3925 541 
L 3925 0 
L 506 0 
z
" transform="scale(0.015625)"/>
      <path id="ArialMT-2c" d="M 569 0 
L 569 641 
L 1209 641 
L 1209 0 
Q 1209 -353 1084 -570 
Q 959 -788 688 -906 
L 531 -666 
Q 709 -588 793 -436 
Q 878 -284 888 0 
L 569 0 
z
" transform="scale(0.015625)"/>
      <path id="ArialMT-73" d="M 197 991 
L 753 1078 
Q 800 744 1014 566 
Q 1228 388 1613 388 
Q 2000 388 2187 545 
Q 2375 703 2375 916 
Q 2375 1106 2209 1216 
Q 2094 1291 1634 1406 
Q 1016 1563 777 1677 
Q 538 1791 414 1992 
Q 291 2194 291 2438 
Q 291 2659 392 2848 
Q 494 3038 669 3163 
Q 800 3259 1026 3326 
Q 1253 3394 1513 3394 
Q 1903 3394 2198 3281 
Q 2494 3169 2634 2976 
Q 2775 2784 2828 2463 
L 2278 2388 
Q 2241 2644 2061 2787 
Q 1881 2931 1553 2931 
Q 1166 2931 1000 2803 
Q 834 2675 834 2503 
Q 834 2394 903 2306 
Q 972 2216 1119 2156 
Q 1203 2125 1616 2013 
Q 2213 1853 2448 1751 
Q 2684 1650 2818 1456 
Q 2953 1263 2953 975 
Q 2953 694 2789 445 
Q 2625 197 2315 61 
Q 2006 -75 1616 -75 
Q 969 -75 630 194 
Q 291 463 197 991 
z
" transform="scale(0.015625)"/>
      <path id="ArialMT-3d" d="M 3381 2694 
L 356 2694 
L 356 3219 
L 3381 3219 
L 3381 2694 
z
M 3381 1303 
L 356 1303 
L 356 1828 
L 3381 1828 
L 3381 1303 
z
" transform="scale(0.015625)"/>
      <path id="ArialMT-33" d="M 269 1209 
L 831 1284 
Q 928 806 1161 595 
Q 1394 384 1728 384 
Q 2125 384 2398 659 
Q 2672 934 2672 1341 
Q 2672 1728 2419 1979 
Q 2166 2231 1775 2231 
Q 1616 2231 1378 2169 
L 1441 2663 
Q 1497 2656 1531 2656 
Q 1891 2656 2178 2843 
Q 2466 3031 2466 3422 
Q 2466 3731 2256 3934 
Q 2047 4138 1716 4138 
Q 1388 4138 1169 3931 
Q 950 3725 888 3313 
L 325 3413 
Q 428 3978 793 4289 
Q 1159 4600 1703 4600 
Q 2078 4600 2393 4439 
Q 2709 4278 2876 4000 
Q 3044 3722 3044 3409 
Q 3044 3113 2884 2869 
Q 2725 2625 2413 2481 
Q 2819 2388 3044 2092 
Q 3269 1797 3269 1353 
Q 3269 753 2831 336 
Q 2394 -81 1725 -81 
Q 1122 -81 723 278 
Q 325 638 269 1209 
z
" transform="scale(0.015625)"/>
     </defs>
     <use xlink:href="#ArialMT-45"/>
     <use xlink:href="#ArialMT-28" x="66.699219"/>
     <use xlink:href="#ArialMT-31" x="100"/>
     <use xlink:href="#ArialMT-2c" x="155.615234"/>
     <use xlink:href="#ArialMT-30" x="183.398438"/>
     <use xlink:href="#ArialMT-2e" x="239.013672"/>
     <use xlink:href="#ArialMT-31" x="266.796875"/>
     <use xlink:href="#ArialMT-34" x="322.412109"/>
     <use xlink:href="#ArialMT-36" x="378.027344"/>
     <use xlink:href="#ArialMT-29" x="433.642578"/>
     <use xlink:href="#ArialMT-2c" x="466.943359"/>
     <use xlink:href="#ArialMT-20" x="494.726562"/>
     <use xlink:href="#ArialMT-72" x="522.509766"/>
     <use xlink:href="#ArialMT-6d" x="555.810547"/>
     <use xlink:href="#ArialMT-73" x="639.111328"/>
     <use xlink:href="#ArialMT-65" x="689.111328"/>
     <use xlink:href="#ArialMT-3d" x="744.726562"/>
     <use xlink:href="#ArialMT-30" x="803.125"/>
     <use xlink:href="#ArialMT-2e" x="858.740234"/>
     <use xlink:href="#ArialMT-30" x="886.523438"/>
     <use xlink:href="#ArialMT-33" x="942.138672"/>
     <use xlink:href="#ArialMT-34" x="997.753906"/>
    </g>
   </g>
   <g id="text_12">
    <!-- g(1.0,0.146), rmse=0.033 -->
    <g style="fill: #262626" transform="translate(58.336738 71.352)scale(0.06 -0.06)">
     <defs>
      <path id="ArialMT-67" d="M 319 -275 
L 866 -356 
Q 900 -609 1056 -725 
Q 1266 -881 1628 -881 
Q 2019 -881 2231 -725 
Q 2444 -569 2519 -288 
Q 2563 -116 2559 434 
Q 2191 0 1641 0 
Q 956 0 581 494 
Q 206 988 206 1678 
Q 206 2153 378 2554 
Q 550 2956 876 3175 
Q 1203 3394 1644 3394 
Q 2231 3394 2613 2919 
L 2613 3319 
L 3131 3319 
L 3131 450 
Q 3131 -325 2973 -648 
Q 2816 -972 2473 -1159 
Q 2131 -1347 1631 -1347 
Q 1038 -1347 672 -1080 
Q 306 -813 319 -275 
z
M 784 1719 
Q 784 1066 1043 766 
Q 1303 466 1694 466 
Q 2081 466 2343 764 
Q 2606 1063 2606 1700 
Q 2606 2309 2336 2618 
Q 2066 2928 1684 2928 
Q 1309 2928 1046 2623 
Q 784 2319 784 1719 
z
" transform="scale(0.015625)"/>
     </defs>
     <use xlink:href="#ArialMT-67"/>
     <use xlink:href="#ArialMT-28" x="55.615234"/>
     <use xlink:href="#ArialMT-31" x="88.916016"/>
     <use xlink:href="#ArialMT-2e" x="144.53125"/>
     <use xlink:href="#ArialMT-30" x="172.314453"/>
     <use xlink:href="#ArialMT-2c" x="227.929688"/>
     <use xlink:href="#ArialMT-30" x="255.712891"/>
     <use xlink:href="#ArialMT-2e" x="311.328125"/>
     <use xlink:href="#ArialMT-31" x="339.111328"/>
     <use xlink:href="#ArialMT-34" x="394.726562"/>
     <use xlink:href="#ArialMT-36" x="450.341797"/>
     <use xlink:href="#ArialMT-29" x="505.957031"/>
     <use xlink:href="#ArialMT-2c" x="539.257812"/>
     <use xlink:href="#ArialMT-20" x="567.041016"/>
     <use xlink:href="#ArialMT-72" x="594.824219"/>
     <use xlink:href="#ArialMT-6d" x="628.125"/>
     <use xlink:href="#ArialMT-73" x="711.425781"/>
     <use xlink:href="#ArialMT-65" x="761.425781"/>
     <use xlink:href="#ArialMT-3d" x="817.041016"/>
     <use xlink:href="#ArialMT-30" x="875.439453"/>
     <use xlink:href="#ArialMT-2e" x="931.054688"/>
     <use xlink:href="#ArialMT-30" x="958.837891"/>
     <use xlink:href="#ArialMT-33" x="1014.453125"/>
     <use xlink:href="#ArialMT-33" x="1070.068359"/>
    </g>
   </g>
   <g id="text_13">
    <!-- Lypla1 -->
    <g style="fill: #262626" transform="translate(43.595632 21.456)scale(0.08 -0.08)">
     <defs>
      <path id="Arial-ItalicMT-4c" d="M 256 0 
L 1213 4581 
L 1825 4581 
L 978 519 
L 3356 519 
L 3247 0 
L 256 0 
z
" transform="scale(0.015625)"/>
      <path id="Arial-ItalicMT-79" d="M 0 -1281 
L 34 -750 
Q 209 -800 375 -800 
Q 547 -800 653 -722 
Q 791 -619 953 -334 
L 1134 -9 
L 581 3319 
L 1138 3319 
L 1388 1641 
Q 1463 1144 1516 647 
L 3000 3319 
L 3591 3319 
L 1475 -441 
Q 1169 -991 931 -1169 
Q 694 -1347 384 -1347 
Q 188 -1347 0 -1281 
z
" transform="scale(0.015625)"/>
      <path id="Arial-ItalicMT-70" d="M -66 -1272 
L 894 3319 
L 1416 3319 
L 1319 2856 
Q 1609 3159 1839 3276 
Q 2069 3394 2325 3394 
Q 2800 3394 3112 3048 
Q 3425 2703 3425 2059 
Q 3425 1541 3253 1114 
Q 3081 688 2831 428 
Q 2581 169 2325 47 
Q 2069 -75 1800 -75 
Q 1203 -75 875 531 
L 500 -1272 
L -66 -1272 
z
M 1053 1356 
Q 1053 984 1106 841 
Q 1184 638 1362 513 
Q 1541 388 1775 388 
Q 2263 388 2563 936 
Q 2863 1484 2863 2056 
Q 2863 2478 2661 2708 
Q 2459 2938 2159 2938 
Q 1944 2938 1759 2823 
Q 1575 2709 1417 2482 
Q 1259 2256 1156 1928 
Q 1053 1600 1053 1356 
z
" transform="scale(0.015625)"/>
      <path id="Arial-ItalicMT-6c" d="M 169 0 
L 1125 4581 
L 1691 4581 
L 734 0 
L 169 0 
z
" transform="scale(0.015625)"/>
      <path id="Arial-ItalicMT-61" d="M 2450 413 
Q 2156 159 1884 42 
Q 1613 -75 1303 -75 
Q 844 -75 562 195 
Q 281 466 281 888 
Q 281 1166 407 1380 
Q 534 1594 743 1723 
Q 953 1853 1256 1909 
Q 1447 1947 1980 1969 
Q 2513 1991 2744 2081 
Q 2809 2313 2809 2466 
Q 2809 2663 2666 2775 
Q 2469 2931 2091 2931 
Q 1734 2931 1507 2773 
Q 1281 2616 1178 2325 
L 606 2375 
Q 781 2869 1161 3131 
Q 1541 3394 2119 3394 
Q 2734 3394 3094 3100 
Q 3369 2881 3369 2531 
Q 3369 2266 3291 1916 
L 3106 1091 
Q 3019 697 3019 450 
Q 3019 294 3088 0 
L 2516 0 
Q 2469 163 2450 413 
z
M 2659 1681 
Q 2541 1634 2405 1609 
Q 2269 1584 1950 1556 
Q 1456 1513 1253 1445 
Q 1050 1378 947 1231 
Q 844 1084 844 906 
Q 844 669 1008 516 
Q 1172 363 1475 363 
Q 1756 363 2015 511 
Q 2275 659 2425 925 
Q 2575 1191 2659 1681 
z
" transform="scale(0.015625)"/>
      <path id="Arial-ItalicMT-31" d="M 1541 0 
L 2266 3459 
Q 1797 3091 947 2869 
L 1053 3381 
Q 1475 3550 1886 3822 
Q 2297 4094 2503 4297 
Q 2628 4422 2741 4600 
L 3069 4600 
L 2109 0 
L 1541 0 
z
" transform="scale(0.015625)"/>
     </defs>
     <use xlink:href="#Arial-ItalicMT-4c"/>
     <use xlink:href="#Arial-ItalicMT-79" x="53.865234"/>
     <use xlink:href="#Arial-ItalicMT-70" x="103.865234"/>
     <use xlink:href="#Arial-ItalicMT-6c" x="159.480469"/>
     <use xlink:href="#Arial-ItalicMT-61" x="181.697266"/>
     <use xlink:href="#Arial-ItalicMT-31" x="237.3125"/>
    </g>
   </g>
  </g>
  <g id="axes_2">
   <g id="patch_7">
    <path d="M 129.123529 76.896 
L 202.976471 76.896 
L 202.976471 10.368 
L 129.123529 10.368 
L 129.123529 76.896 
z
" style="fill: none"/>
   </g>
   <g id="matplotlib.axis_3">
    <g id="xtick_6">
     <g id="line2d_14">
      <g>
       <use xlink:href="#m97799cdc4b" x="132.219162" y="76.896" style="fill: #262626; stroke: #262626; stroke-width: 0.8"/>
      </g>
     </g>
     <g id="text_14">
      <!-- 0 -->
      <g style="fill: #262626" transform="translate(129.994787 88.62225)scale(0.08 -0.08)">
       <use xlink:href="#ArialMT-30"/>
      </g>
     </g>
    </g>
    <g id="xtick_7">
     <g id="line2d_15">
      <g>
       <use xlink:href="#m97799cdc4b" x="149.908489" y="76.896" style="fill: #262626; stroke: #262626; stroke-width: 0.8"/>
      </g>
     </g>
     <g id="text_15">
      <!-- 24 -->
      <g style="fill: #262626" transform="translate(145.459739 88.62225)scale(0.08 -0.08)">
       <use xlink:href="#ArialMT-32"/>
       <use xlink:href="#ArialMT-34" x="55.615234"/>
      </g>
     </g>
    </g>
    <g id="xtick_8">
     <g id="line2d_16">
      <g>
       <use xlink:href="#m97799cdc4b" x="167.597816" y="76.896" style="fill: #262626; stroke: #262626; stroke-width: 0.8"/>
      </g>
     </g>
     <g id="text_16">
      <!-- 48 -->
      <g style="fill: #262626" transform="translate(163.149066 88.62225)scale(0.08 -0.08)">
       <use xlink:href="#ArialMT-34"/>
       <use xlink:href="#ArialMT-38" x="55.615234"/>
      </g>
     </g>
    </g>
    <g id="xtick_9">
     <g id="line2d_17">
      <g>
       <use xlink:href="#m97799cdc4b" x="185.287143" y="76.896" style="fill: #262626; stroke: #262626; stroke-width: 0.8"/>
      </g>
     </g>
     <g id="text_17">
      <!-- 72 -->
      <g style="fill: #262626" transform="translate(180.838393 88.62225)scale(0.08 -0.08)">
       <use xlink:href="#ArialMT-37"/>
       <use xlink:href="#ArialMT-32" x="55.615234"/>
      </g>
     </g>
    </g>
    <g id="xtick_10">
     <g id="line2d_18">
      <g>
       <use xlink:href="#m97799cdc4b" x="202.976471" y="76.896" style="fill: #262626; stroke: #262626; stroke-width: 0.8"/>
      </g>
     </g>
     <g id="text_18">
      <!-- 96 -->
      <g style="fill: #262626" transform="translate(198.527721 88.62225)scale(0.08 -0.08)">
       <use xlink:href="#ArialMT-39"/>
       <use xlink:href="#ArialMT-36" x="55.615234"/>
      </g>
     </g>
    </g>
    <g id="text_19">
     <!-- time (h) -->
     <g style="fill: #262626" transform="translate(150.799922 100.763969)scale(0.09 -0.09)">
      <use xlink:href="#ArialMT-74"/>
      <use xlink:href="#ArialMT-69" x="27.783203"/>
      <use xlink:href="#ArialMT-6d" x="50"/>
      <use xlink:href="#ArialMT-65" x="133.300781"/>
      <use xlink:href="#ArialMT-20" x="188.916016"/>
      <use xlink:href="#ArialMT-28" x="216.699219"/>
      <use xlink:href="#ArialMT-68" x="250"/>
      <use xlink:href="#ArialMT-29" x="305.615234"/>
     </g>
    </g>
   </g>
   <g id="matplotlib.axis_4">
    <g id="ytick_4">
     <g id="line2d_19">
      <g>
       <use xlink:href="#mc9e40f975b" x="129.123529" y="71.352" style="fill: #262626; stroke: #262626; stroke-width: 0.8"/>
      </g>
     </g>
    </g>
    <g id="ytick_5">
     <g id="line2d_20">
      <g>
       <use xlink:href="#mc9e40f975b" x="129.123529" y="43.632" style="fill: #262626; stroke: #262626; stroke-width: 0.8"/>
      </g>
     </g>
    </g>
    <g id="ytick_6">
     <g id="line2d_21">
      <g>
       <use xlink:href="#mc9e40f975b" x="129.123529" y="15.912" style="fill: #262626; stroke: #262626; stroke-width: 0.8"/>
      </g>
     </g>
    </g>
   </g>
   <g id="line2d_22">
    <path d="M 132.219162 71.352 
L 132.844542 67.186543 
L 133.469922 63.334055 
L 134.095302 59.771023 
L 134.720683 56.475696 
L 135.346063 53.427963 
L 135.971443 50.60922 
L 136.596823 48.002261 
L 137.222204 45.591175 
L 137.847584 43.361245 
L 138.472964 41.298859 
L 139.098344 39.39143 
L 139.723725 37.627315 
L 140.349105 35.995745 
L 140.974485 34.486763 
L 141.599866 33.091157 
L 142.225246 31.80041 
L 142.850626 30.606642 
L 143.476006 29.502567 
L 144.101387 28.481447 
L 144.726767 27.537047 
L 145.352147 26.663605 
L 145.977527 25.855789 
L 146.602908 25.108667 
L 147.228288 24.41768 
L 147.853668 23.77861 
L 148.479048 23.187556 
L 149.104429 22.640911 
L 149.729809 22.135337 
L 150.355189 21.66775 
L 150.980569 21.235294 
L 151.60595 20.835331 
L 152.23133 20.465419 
L 152.85671 20.1233 
L 153.48209 19.806886 
L 154.107471 19.514246 
L 154.732851 19.243593 
L 155.358231 18.993275 
L 155.983611 18.761765 
L 156.608992 18.54765 
L 157.234372 18.349621 
L 157.859752 18.166472 
L 158.485132 17.997083 
L 159.110513 17.840422 
L 159.735893 17.695531 
L 160.361273 17.561526 
L 160.986653 17.43759 
L 161.612034 17.322965 
L 162.237414 17.216953 
L 162.862794 17.118906 
L 163.488174 17.028226 
L 164.113555 16.944359 
L 164.738935 16.866793 
L 165.364315 16.795055 
L 165.989695 16.728707 
L 166.615076 16.667344 
L 167.240456 16.610592 
L 167.865836 16.558103 
L 168.491216 16.509559 
L 169.116597 16.464661 
L 169.741977 16.423138 
L 170.367357 16.384733 
L 170.992738 16.349215 
L 171.618118 16.316365 
L 172.243498 16.285983 
L 172.868878 16.257884 
L 173.494259 16.231896 
L 174.119639 16.207861 
L 174.745019 16.185632 
L 175.370399 16.165072 
L 175.99578 16.146058 
L 176.62116 16.128472 
L 177.24654 16.112208 
L 177.87192 16.097165 
L 178.497301 16.083253 
L 179.122681 16.070386 
L 179.748061 16.058486 
L 180.373441 16.047479 
L 180.998822 16.0373 
L 181.624202 16.027886 
L 182.249582 16.019179 
L 182.874962 16.011126 
L 183.500343 16.003678 
L 184.125723 15.99679 
L 184.751103 15.990419 
L 185.376483 15.984527 
L 186.001864 15.979078 
L 186.627244 15.974038 
L 187.252624 15.969377 
L 187.878004 15.965066 
L 188.503385 15.961079 
L 189.128765 15.957391 
L 189.754145 15.953981 
L 190.379525 15.950827 
L 191.004906 15.947909 
L 191.630286 15.945211 
L 192.255666 15.942716 
L 192.881046 15.940408 
L 193.506427 15.938274 
L 194.131807 15.9363 
" clip-path="url(#pa059d6529c)" style="fill: none; stroke: #000000; stroke-width: 1.8; stroke-linecap: round"/>
   </g>
   <g id="line2d_23">
    <path d="M 132.219162 71.352 
L 132.844542 67.186543 
L 133.469922 63.334055 
L 134.095302 59.771023 
L 134.720683 56.475696 
L 135.346063 53.427963 
L 135.971443 50.60922 
L 136.596823 48.002261 
L 137.222204 45.591175 
L 137.847584 43.361245 
L 138.472964 41.298859 
L 139.098344 39.39143 
L 139.723725 37.627315 
L 140.349105 35.995745 
L 140.974485 34.486763 
L 141.599866 33.091157 
L 142.225246 31.80041 
L 142.850626 30.606642 
L 143.476006 29.502567 
L 144.101387 28.481447 
L 144.726767 27.537047 
L 145.352147 26.663605 
L 145.977527 25.855789 
L 146.602908 25.108667 
L 147.228288 24.41768 
L 147.853668 23.77861 
L 148.479048 23.187556 
L 149.104429 22.640911 
L 149.729809 22.135337 
L 150.355189 21.66775 
L 150.980569 21.235294 
L 151.60595 20.835331 
L 152.23133 20.465419 
L 152.85671 20.1233 
L 153.48209 19.806886 
L 154.107471 19.514246 
L 154.732851 19.243593 
L 155.358231 18.993275 
L 155.983611 18.761765 
L 156.608992 18.54765 
L 157.234372 18.349621 
L 157.859752 18.166472 
L 158.485132 17.997083 
L 159.110513 17.840422 
L 159.735893 17.695531 
L 160.361273 17.561526 
L 160.986653 17.43759 
L 161.612034 17.322965 
L 162.237414 17.216953 
L 162.862794 17.118906 
L 163.488174 17.028226 
L 164.113555 16.944359 
L 164.738935 16.866793 
L 165.364315 16.795055 
L 165.989695 16.728707 
L 166.615076 16.667344 
L 167.240456 16.610592 
L 167.865836 16.558103 
L 168.491216 16.509559 
L 169.116597 16.464661 
L 169.741977 16.423138 
L 170.367357 16.384733 
L 170.992738 16.349215 
L 171.618118 16.316365 
L 172.243498 16.285983 
L 172.868878 16.257884 
L 173.494259 16.231896 
L 174.119639 16.207861 
L 174.745019 16.185632 
L 175.370399 16.165072 
L 175.99578 16.146058 
L 176.62116 16.128472 
L 177.24654 16.112208 
L 177.87192 16.097165 
L 178.497301 16.083253 
L 179.122681 16.070386 
L 179.748061 16.058486 
L 180.373441 16.047479 
L 180.998822 16.0373 
L 181.624202 16.027886 
L 182.249582 16.019179 
L 182.874962 16.011126 
L 183.500343 16.003678 
L 184.125723 15.99679 
L 184.751103 15.990419 
L 185.376483 15.984527 
L 186.001864 15.979078 
L 186.627244 15.974038 
L 187.252624 15.969377 
L 187.878004 15.965066 
L 188.503385 15.961079 
L 189.128765 15.957391 
L 189.754145 15.953981 
L 190.379525 15.950827 
L 191.004906 15.947909 
L 191.630286 15.945211 
L 192.255666 15.942716 
L 192.881046 15.940408 
L 193.506427 15.938274 
L 194.131807 15.9363 
" clip-path="url(#pa059d6529c)" style="fill: none; stroke: #808080; stroke-width: 1.8; stroke-linecap: round"/>
   </g>
   <g id="LineCollection_2">
    <path d="M 132.219162 71.765012 
L 132.219162 70.938988 
" clip-path="url(#pa059d6529c)" style="fill: none; stroke: #1f77b4"/>
    <path d="M 132.219162 71.765012 
L 132.219162 70.938988 
" clip-path="url(#pa059d6529c)" style="fill: none; stroke: #1f77b4"/>
    <path d="M 136.641493 51.459736 
L 136.641493 50.964128 
" clip-path="url(#pa059d6529c)" style="fill: none; stroke: #1f77b4"/>
    <path d="M 136.641493 51.459736 
L 136.641493 50.964128 
" clip-path="url(#pa059d6529c)" style="fill: none; stroke: #1f77b4"/>
    <path d="M 145.486157 23.43323 
L 145.486157 22.946279 
" clip-path="url(#pa059d6529c)" style="fill: none; stroke: #1f77b4"/>
    <path d="M 145.486157 23.43323 
L 145.486157 22.946279 
" clip-path="url(#pa059d6529c)" style="fill: none; stroke: #1f77b4"/>
    <path d="M 149.908489 31.245881 
L 149.908489 12.68516 
" clip-path="url(#pa059d6529c)" style="fill: none; stroke: #1f77b4"/>
    <path d="M 149.908489 31.245881 
L 149.908489 12.68516 
" clip-path="url(#pa059d6529c)" style="fill: none; stroke: #1f77b4"/>
    <path d="M 167.597816 20.297954 
L 167.597816 16.421488 
" clip-path="url(#pa059d6529c)" style="fill: none; stroke: #1f77b4"/>
    <path d="M 167.597816 20.297954 
L 167.597816 16.421488 
" clip-path="url(#pa059d6529c)" style="fill: none; stroke: #1f77b4"/>
    <path d="M 194.131807 17.227712 
L 194.131807 14.596288 
" clip-path="url(#pa059d6529c)" style="fill: none; stroke: #1f77b4"/>
    <path d="M 194.131807 17.227712 
L 194.131807 14.596288 
" clip-path="url(#pa059d6529c)" style="fill: none; stroke: #1f77b4"/>
   </g>
   <g id="line2d_24">
    <g clip-path="url(#pa059d6529c)">
     <use xlink:href="#md8f8e82478" x="132.219162" y="71.765012" style="fill: #1f77b4; stroke: #1f77b4"/>
     <use xlink:href="#md8f8e82478" x="132.219162" y="71.765012" style="fill: #1f77b4; stroke: #1f77b4"/>
     <use xlink:href="#md8f8e82478" x="136.641493" y="51.459736" style="fill: #1f77b4; stroke: #1f77b4"/>
     <use xlink:href="#md8f8e82478" x="136.641493" y="51.459736" style="fill: #1f77b4; stroke: #1f77b4"/>
     <use xlink:href="#md8f8e82478" x="145.486157" y="23.43323" style="fill: #1f77b4; stroke: #1f77b4"/>
     <use xlink:href="#md8f8e82478" x="145.486157" y="23.43323" style="fill: #1f77b4; stroke: #1f77b4"/>
     <use xlink:href="#md8f8e82478" x="149.908489" y="31.245881" style="fill: #1f77b4; stroke: #1f77b4"/>
     <use xlink:href="#md8f8e82478" x="149.908489" y="31.245881" style="fill: #1f77b4; stroke: #1f77b4"/>
     <use xlink:href="#md8f8e82478" x="167.597816" y="20.297954" style="fill: #1f77b4; stroke: #1f77b4"/>
     <use xlink:href="#md8f8e82478" x="167.597816" y="20.297954" style="fill: #1f77b4; stroke: #1f77b4"/>
     <use xlink:href="#md8f8e82478" x="194.131807" y="17.227712" style="fill: #1f77b4; stroke: #1f77b4"/>
     <use xlink:href="#md8f8e82478" x="194.131807" y="17.227712" style="fill: #1f77b4; stroke: #1f77b4"/>
    </g>
   </g>
   <g id="line2d_25">
    <g clip-path="url(#pa059d6529c)">
     <use xlink:href="#md8f8e82478" x="132.219162" y="70.938988" style="fill: #1f77b4; stroke: #1f77b4"/>
     <use xlink:href="#md8f8e82478" x="132.219162" y="70.938988" style="fill: #1f77b4; stroke: #1f77b4"/>
     <use xlink:href="#md8f8e82478" x="136.641493" y="50.964128" style="fill: #1f77b4; stroke: #1f77b4"/>
     <use xlink:href="#md8f8e82478" x="136.641493" y="50.964128" style="fill: #1f77b4; stroke: #1f77b4"/>
     <use xlink:href="#md8f8e82478" x="145.486157" y="22.946279" style="fill: #1f77b4; stroke: #1f77b4"/>
     <use xlink:href="#md8f8e82478" x="145.486157" y="22.946279" style="fill: #1f77b4; stroke: #1f77b4"/>
     <use xlink:href="#md8f8e82478" x="149.908489" y="12.68516" style="fill: #1f77b4; stroke: #1f77b4"/>
     <use xlink:href="#md8f8e82478" x="149.908489" y="12.68516" style="fill: #1f77b4; stroke: #1f77b4"/>
     <use xlink:href="#md8f8e82478" x="167.597816" y="16.421488" style="fill: #1f77b4; stroke: #1f77b4"/>
     <use xlink:href="#md8f8e82478" x="167.597816" y="16.421488" style="fill: #1f77b4; stroke: #1f77b4"/>
     <use xlink:href="#md8f8e82478" x="194.131807" y="14.596288" style="fill: #1f77b4; stroke: #1f77b4"/>
     <use xlink:href="#md8f8e82478" x="194.131807" y="14.596288" style="fill: #1f77b4; stroke: #1f77b4"/>
    </g>
   </g>
   <g id="line2d_26">
    <g clip-path="url(#pa059d6529c)">
     <use xlink:href="#m3a9fa9e366" x="132.219162" y="71.352" style="fill: #1f77b4; stroke: #1f77b4"/>
     <use xlink:href="#m3a9fa9e366" x="132.219162" y="71.352" style="fill: #1f77b4; stroke: #1f77b4"/>
     <use xlink:href="#m3a9fa9e366" x="136.641493" y="51.211932" style="fill: #1f77b4; stroke: #1f77b4"/>
     <use xlink:href="#m3a9fa9e366" x="136.641493" y="51.211932" style="fill: #1f77b4; stroke: #1f77b4"/>
     <use xlink:href="#m3a9fa9e366" x="145.486157" y="23.189754" style="fill: #1f77b4; stroke: #1f77b4"/>
     <use xlink:href="#m3a9fa9e366" x="145.486157" y="23.189754" style="fill: #1f77b4; stroke: #1f77b4"/>
     <use xlink:href="#m3a9fa9e366" x="149.908489" y="21.965521" style="fill: #1f77b4; stroke: #1f77b4"/>
     <use xlink:href="#m3a9fa9e366" x="149.908489" y="21.965521" style="fill: #1f77b4; stroke: #1f77b4"/>
     <use xlink:href="#m3a9fa9e366" x="167.597816" y="18.359721" style="fill: #1f77b4; stroke: #1f77b4"/>
     <use xlink:href="#m3a9fa9e366" x="167.597816" y="18.359721" style="fill: #1f77b4; stroke: #1f77b4"/>
     <use xlink:href="#m3a9fa9e366" x="194.131807" y="15.912" style="fill: #1f77b4; stroke: #1f77b4"/>
     <use xlink:href="#m3a9fa9e366" x="194.131807" y="15.912" style="fill: #1f77b4; stroke: #1f77b4"/>
    </g>
   </g>
   <g id="patch_8">
    <path d="M 129.123529 76.896 
L 129.123529 10.368 
" style="fill: none; stroke: #262626; stroke-linejoin: miter; stroke-linecap: square"/>
   </g>
   <g id="patch_9">
    <path d="M 202.976471 76.896 
L 202.976471 10.368 
" style="fill: none; stroke: #262626; stroke-linejoin: miter; stroke-linecap: square"/>
   </g>
   <g id="patch_10">
    <path d="M 129.123529 76.896 
L 202.976471 76.896 
" style="fill: none; stroke: #262626; stroke-linejoin: miter; stroke-linecap: square"/>
   </g>
   <g id="patch_11">
    <path d="M 129.123529 10.368 
L 202.976471 10.368 
" style="fill: none; stroke: #262626; stroke-linejoin: miter; stroke-linecap: square"/>
   </g>
   <g id="text_20">
    <!-- E(1,0.092), rmse=0.039 -->
    <g style="fill: #262626" transform="translate(146.960268 65.808)scale(0.06 -0.06)">
     <use xlink:href="#ArialMT-45"/>
     <use xlink:href="#ArialMT-28" x="66.699219"/>
     <use xlink:href="#ArialMT-31" x="100"/>
     <use xlink:href="#ArialMT-2c" x="155.615234"/>
     <use xlink:href="#ArialMT-30" x="183.398438"/>
     <use xlink:href="#ArialMT-2e" x="239.013672"/>
     <use xlink:href="#ArialMT-30" x="266.796875"/>
     <use xlink:href="#ArialMT-39" x="322.412109"/>
     <use xlink:href="#ArialMT-32" x="378.027344"/>
     <use xlink:href="#ArialMT-29" x="433.642578"/>
     <use xlink:href="#ArialMT-2c" x="466.943359"/>
     <use xlink:href="#ArialMT-20" x="494.726562"/>
     <use xlink:href="#ArialMT-72" x="522.509766"/>
     <use xlink:href="#ArialMT-6d" x="555.810547"/>
     <use xlink:href="#ArialMT-73" x="639.111328"/>
     <use xlink:href="#ArialMT-65" x="689.111328"/>
     <use xlink:href="#ArialMT-3d" x="744.726562"/>
     <use xlink:href="#ArialMT-30" x="803.125"/>
     <use xlink:href="#ArialMT-2e" x="858.740234"/>
     <use xlink:href="#ArialMT-30" x="886.523438"/>
     <use xlink:href="#ArialMT-33" x="942.138672"/>
     <use xlink:href="#ArialMT-39" x="997.753906"/>
    </g>
   </g>
   <g id="text_21">
    <!-- g(1.0,0.092), rmse=0.037 -->
    <g style="fill: #262626" transform="translate(146.960268 71.352)scale(0.06 -0.06)">
     <use xlink:href="#ArialMT-67"/>
     <use xlink:href="#ArialMT-28" x="55.615234"/>
     <use xlink:href="#ArialMT-31" x="88.916016"/>
     <use xlink:href="#ArialMT-2e" x="144.53125"/>
     <use xlink:href="#ArialMT-30" x="172.314453"/>
     <use xlink:href="#ArialMT-2c" x="227.929688"/>
     <use xlink:href="#ArialMT-30" x="255.712891"/>
     <use xlink:href="#ArialMT-2e" x="311.328125"/>
     <use xlink:href="#ArialMT-30" x="339.111328"/>
     <use xlink:href="#ArialMT-39" x="394.726562"/>
     <use xlink:href="#ArialMT-32" x="450.341797"/>
     <use xlink:href="#ArialMT-29" x="505.957031"/>
     <use xlink:href="#ArialMT-2c" x="539.257812"/>
     <use xlink:href="#ArialMT-20" x="567.041016"/>
     <use xlink:href="#ArialMT-72" x="594.824219"/>
     <use xlink:href="#ArialMT-6d" x="628.125"/>
     <use xlink:href="#ArialMT-73" x="711.425781"/>
     <use xlink:href="#ArialMT-65" x="761.425781"/>
     <use xlink:href="#ArialMT-3d" x="817.041016"/>
     <use xlink:href="#ArialMT-30" x="875.439453"/>
     <use xlink:href="#ArialMT-2e" x="931.054688"/>
     <use xlink:href="#ArialMT-30" x="958.837891"/>
     <use xlink:href="#ArialMT-33" x="1014.453125"/>
     <use xlink:href="#ArialMT-37" x="1070.068359"/>
    </g>
   </g>
   <g id="text_22">
    <!-- Mmab -->
    <g style="fill: #262626" transform="translate(132.219162 21.456)scale(0.08 -0.08)">
     <defs>
      <path id="Arial-ItalicMT-4d" d="M 281 0 
L 1238 4581 
L 1991 4581 
L 2453 1613 
Q 2544 1028 2572 491 
Q 2763 953 3209 1744 
L 4816 4581 
L 5581 4581 
L 4625 0 
L 4022 0 
L 4500 2228 
Q 4666 3000 4975 3959 
Q 4778 3513 4488 2997 
L 2781 0 
L 2191 0 
L 1731 2938 
Q 1669 3341 1641 3878 
Q 1563 3275 1488 2922 
L 878 0 
L 281 0 
z
" transform="scale(0.015625)"/>
      <path id="Arial-ItalicMT-6d" d="M 209 0 
L 903 3319 
L 1469 3319 
L 1353 2772 
Q 1669 3125 1917 3259 
Q 2166 3394 2456 3394 
Q 2766 3394 2973 3230 
Q 3181 3066 3247 2772 
Q 3500 3084 3779 3239 
Q 4059 3394 4369 3394 
Q 4784 3394 4992 3197 
Q 5200 3000 5200 2644 
Q 5200 2491 5128 2138 
L 4681 0 
L 4116 0 
L 4572 2194 
Q 4631 2463 4631 2578 
Q 4631 2741 4528 2834 
Q 4425 2928 4238 2928 
Q 3984 2928 3721 2775 
Q 3459 2622 3314 2373 
Q 3169 2125 3059 1609 
L 2722 0 
L 2156 0 
L 2625 2241 
Q 2675 2469 2675 2566 
Q 2675 2728 2573 2828 
Q 2472 2928 2309 2928 
Q 2069 2928 1805 2775 
Q 1541 2622 1375 2348 
Q 1209 2075 1103 1569 
L 775 0 
L 209 0 
z
" transform="scale(0.015625)"/>
      <path id="Arial-ItalicMT-62" d="M 213 0 
L 1169 4581 
L 1734 4581 
L 1394 2944 
Q 1663 3191 1881 3292 
Q 2100 3394 2338 3394 
Q 2803 3394 3114 3047 
Q 3425 2700 3425 2038 
Q 3425 1597 3300 1231 
Q 3175 866 2990 617 
Q 2806 369 2609 220 
Q 2413 72 2206 -1 
Q 2000 -75 1809 -75 
Q 1481 -75 1231 98 
Q 981 272 841 628 
L 709 0 
L 213 0 
z
M 1050 1363 
L 1047 1256 
Q 1047 831 1250 609 
Q 1453 388 1756 388 
Q 2053 388 2301 595 
Q 2550 803 2709 1243 
Q 2869 1684 2869 2056 
Q 2869 2475 2667 2706 
Q 2466 2938 2169 2938 
Q 1863 2938 1606 2702 
Q 1350 2466 1178 1975 
Q 1050 1609 1050 1363 
z
" transform="scale(0.015625)"/>
     </defs>
     <use xlink:href="#Arial-ItalicMT-4d"/>
     <use xlink:href="#Arial-ItalicMT-6d" x="83.300781"/>
     <use xlink:href="#Arial-ItalicMT-61" x="166.601562"/>
     <use xlink:href="#Arial-ItalicMT-62" x="222.216797"/>
    </g>
   </g>
  </g>
  <g id="axes_3">
   <g id="patch_12">
    <path d="M 217.747059 76.896 
L 291.6 76.896 
L 291.6 10.368 
L 217.747059 10.368 
L 217.747059 76.896 
z
" style="fill: none"/>
   </g>
   <g id="matplotlib.axis_5">
    <g id="xtick_11">
     <g id="line2d_27">
      <g>
       <use xlink:href="#m97799cdc4b" x="220.842691" y="76.896" style="fill: #262626; stroke: #262626; stroke-width: 0.8"/>
      </g>
     </g>
     <g id="text_23">
      <!-- 0 -->
      <g style="fill: #262626" transform="translate(218.618316 88.62225)scale(0.08 -0.08)">
       <use xlink:href="#ArialMT-30"/>
      </g>
     </g>
    </g>
    <g id="xtick_12">
     <g id="line2d_28">
      <g>
       <use xlink:href="#m97799cdc4b" x="238.532018" y="76.896" style="fill: #262626; stroke: #262626; stroke-width: 0.8"/>
      </g>
     </g>
     <g id="text_24">
      <!-- 24 -->
      <g style="fill: #262626" transform="translate(234.083268 88.62225)scale(0.08 -0.08)">
       <use xlink:href="#ArialMT-32"/>
       <use xlink:href="#ArialMT-34" x="55.615234"/>
      </g>
     </g>
    </g>
    <g id="xtick_13">
     <g id="line2d_29">
      <g>
       <use xlink:href="#m97799cdc4b" x="256.221346" y="76.896" style="fill: #262626; stroke: #262626; stroke-width: 0.8"/>
      </g>
     </g>
     <g id="text_25">
      <!-- 48 -->
      <g style="fill: #262626" transform="translate(251.772596 88.62225)scale(0.08 -0.08)">
       <use xlink:href="#ArialMT-34"/>
       <use xlink:href="#ArialMT-38" x="55.615234"/>
      </g>
     </g>
    </g>
    <g id="xtick_14">
     <g id="line2d_30">
      <g>
       <use xlink:href="#m97799cdc4b" x="273.910673" y="76.896" style="fill: #262626; stroke: #262626; stroke-width: 0.8"/>
      </g>
     </g>
     <g id="text_26">
      <!-- 72 -->
      <g style="fill: #262626" transform="translate(269.461923 88.62225)scale(0.08 -0.08)">
       <use xlink:href="#ArialMT-37"/>
       <use xlink:href="#ArialMT-32" x="55.615234"/>
      </g>
     </g>
    </g>
    <g id="xtick_15">
     <g id="line2d_31">
      <g>
       <use xlink:href="#m97799cdc4b" x="291.6" y="76.896" style="fill: #262626; stroke: #262626; stroke-width: 0.8"/>
      </g>
     </g>
     <g id="text_27">
      <!-- 96 -->
      <g style="fill: #262626" transform="translate(287.15125 88.62225)scale(0.08 -0.08)">
       <use xlink:href="#ArialMT-39"/>
       <use xlink:href="#ArialMT-36" x="55.615234"/>
      </g>
     </g>
    </g>
    <g id="text_28">
     <!-- time (h) -->
     <g style="fill: #262626" transform="translate(239.423451 100.763969)scale(0.09 -0.09)">
      <use xlink:href="#ArialMT-74"/>
      <use xlink:href="#ArialMT-69" x="27.783203"/>
      <use xlink:href="#ArialMT-6d" x="50"/>
      <use xlink:href="#ArialMT-65" x="133.300781"/>
      <use xlink:href="#ArialMT-20" x="188.916016"/>
      <use xlink:href="#ArialMT-28" x="216.699219"/>
      <use xlink:href="#ArialMT-68" x="250"/>
      <use xlink:href="#ArialMT-29" x="305.615234"/>
     </g>
    </g>
   </g>
   <g id="matplotlib.axis_6">
    <g id="ytick_7">
     <g id="line2d_32">
      <g>
       <use xlink:href="#mc9e40f975b" x="217.747059" y="71.352" style="fill: #262626; stroke: #262626; stroke-width: 0.8"/>
      </g>
     </g>
    </g>
    <g id="ytick_8">
     <g id="line2d_33">
      <g>
       <use xlink:href="#mc9e40f975b" x="217.747059" y="43.632" style="fill: #262626; stroke: #262626; stroke-width: 0.8"/>
      </g>
     </g>
    </g>
    <g id="ytick_9">
     <g id="line2d_34">
      <g>
       <use xlink:href="#mc9e40f975b" x="217.747059" y="15.912" style="fill: #262626; stroke: #262626; stroke-width: 0.8"/>
      </g>
     </g>
    </g>
   </g>
   <g id="line2d_35">
    <path d="M 220.842691 71.352 
L 221.468071 66.708414 
L 222.093452 62.45377 
L 222.718832 58.555489 
L 223.344212 54.983723 
L 223.969592 51.711124 
L 224.594973 48.712634 
L 225.220353 45.965293 
L 225.845733 43.448067 
L 226.471113 41.14168 
L 227.096494 39.028473 
L 227.721874 37.092266 
L 228.347254 35.318233 
L 228.972634 33.692791 
L 229.598015 32.203494 
L 230.223395 30.838939 
L 230.848775 29.588677 
L 231.474155 28.443135 
L 232.099536 27.393543 
L 232.724916 26.431863 
L 233.350296 25.550733 
L 233.975676 24.743404 
L 234.601057 24.003697 
L 235.226437 23.325946 
L 235.851817 22.704963 
L 236.477197 22.135993 
L 237.102578 21.614679 
L 237.727958 21.13703 
L 238.353338 20.699388 
L 238.978718 20.298402 
L 239.604099 19.931003 
L 240.229479 19.594376 
L 240.854859 19.285945 
L 241.48024 19.003347 
L 242.10562 18.74442 
L 242.731 18.50718 
L 243.35638 18.289811 
L 243.981761 18.090648 
L 244.607141 17.908167 
L 245.232521 17.740971 
L 245.857901 17.587779 
L 246.483282 17.447417 
L 247.108662 17.318813 
L 247.734042 17.20098 
L 248.359422 17.093017 
L 248.984803 16.994096 
L 249.610183 16.903461 
L 250.235563 16.820418 
L 250.860943 16.74433 
L 251.486324 16.674615 
L 252.111704 16.610739 
L 252.737084 16.552214 
L 253.362464 16.49859 
L 253.987845 16.449458 
L 254.613225 16.404441 
L 255.238605 16.363195 
L 255.863985 16.325403 
L 256.489366 16.290777 
L 257.114746 16.259051 
L 257.740126 16.229983 
L 258.365506 16.203349 
L 258.990887 16.178946 
L 259.616267 16.156587 
L 260.241647 16.136101 
L 260.867027 16.11733 
L 261.492408 16.100132 
L 262.117788 16.084374 
L 262.743168 16.069936 
L 263.368548 16.056708 
L 263.993929 16.044587 
L 264.619309 16.033482 
L 265.244689 16.023307 
L 265.870069 16.013984 
L 266.49545 16.005442 
L 267.12083 15.997615 
L 267.74621 15.990444 
L 268.371591 15.983874 
L 268.996971 15.977854 
L 269.622351 15.972338 
L 270.247731 15.967284 
L 270.873112 15.962654 
L 271.498492 15.958411 
L 272.123872 15.954524 
L 272.749252 15.950962 
L 273.374633 15.947698 
L 274.000013 15.944708 
L 274.625393 15.941969 
L 275.250773 15.939459 
L 275.876154 15.937159 
L 276.501534 15.935051 
L 277.126914 15.933121 
L 277.752294 15.931352 
L 278.377675 15.929731 
L 279.003055 15.928246 
L 279.628435 15.926885 
L 280.253815 15.925638 
L 280.879196 15.924496 
L 281.504576 15.923449 
L 282.129956 15.92249 
L 282.755336 15.921612 
" clip-path="url(#p368457d2a9)" style="fill: none; stroke: #000000; stroke-width: 1.8; stroke-linecap: round"/>
   </g>
   <g id="line2d_36">
    <path d="M 220.842691 71.352 
L 221.468071 66.708414 
L 222.093452 62.45377 
L 222.718832 58.555489 
L 223.344212 54.983723 
L 223.969592 51.711124 
L 224.594973 48.712634 
L 225.220353 45.965293 
L 225.845733 43.448067 
L 226.471113 41.14168 
L 227.096494 39.028473 
L 227.721874 37.092266 
L 228.347254 35.318233 
L 228.972634 33.692791 
L 229.598015 32.203494 
L 230.223395 30.838939 
L 230.848775 29.588677 
L 231.474155 28.443135 
L 232.099536 27.393543 
L 232.724916 26.431863 
L 233.350296 25.550733 
L 233.975676 24.743404 
L 234.601057 24.003697 
L 235.226437 23.325946 
L 235.851817 22.704963 
L 236.477197 22.135993 
L 237.102578 21.614679 
L 237.727958 21.13703 
L 238.353338 20.699388 
L 238.978718 20.298402 
L 239.604099 19.931003 
L 240.229479 19.594376 
L 240.854859 19.285945 
L 241.48024 19.003347 
L 242.10562 18.74442 
L 242.731 18.50718 
L 243.35638 18.289811 
L 243.981761 18.090648 
L 244.607141 17.908167 
L 245.232521 17.740971 
L 245.857901 17.587779 
L 246.483282 17.447417 
L 247.108662 17.318813 
L 247.734042 17.20098 
L 248.359422 17.093017 
L 248.984803 16.994096 
L 249.610183 16.903461 
L 250.235563 16.820418 
L 250.860943 16.74433 
L 251.486324 16.674615 
L 252.111704 16.610739 
L 252.737084 16.552214 
L 253.362464 16.49859 
L 253.987845 16.449458 
L 254.613225 16.404441 
L 255.238605 16.363195 
L 255.863985 16.325403 
L 256.489366 16.290777 
L 257.114746 16.259051 
L 257.740126 16.229983 
L 258.365506 16.203349 
L 258.990887 16.178946 
L 259.616267 16.156587 
L 260.241647 16.136101 
L 260.867027 16.11733 
L 261.492408 16.100132 
L 262.117788 16.084374 
L 262.743168 16.069936 
L 263.368548 16.056708 
L 263.993929 16.044587 
L 264.619309 16.033482 
L 265.244689 16.023307 
L 265.870069 16.013984 
L 266.49545 16.005442 
L 267.12083 15.997615 
L 267.74621 15.990444 
L 268.371591 15.983874 
L 268.996971 15.977854 
L 269.622351 15.972338 
L 270.247731 15.967284 
L 270.873112 15.962654 
L 271.498492 15.958411 
L 272.123872 15.954524 
L 272.749252 15.950962 
L 273.374633 15.947698 
L 274.000013 15.944708 
L 274.625393 15.941969 
L 275.250773 15.939459 
L 275.876154 15.937159 
L 276.501534 15.935051 
L 277.126914 15.933121 
L 277.752294 15.931352 
L 278.377675 15.929731 
L 279.003055 15.928246 
L 279.628435 15.926885 
L 280.253815 15.925638 
L 280.879196 15.924496 
L 281.504576 15.923449 
L 282.129956 15.92249 
L 282.755336 15.921612 
" clip-path="url(#p368457d2a9)" style="fill: none; stroke: #808080; stroke-width: 1.8; stroke-linecap: round"/>
   </g>
   <g id="LineCollection_3">
    <path d="M 220.842691 75.204167 
L 220.842691 67.499833 
" clip-path="url(#p368457d2a9)" style="fill: none; stroke: #1f77b4"/>
    <path d="M 220.842691 75.204167 
L 220.842691 67.499833 
" clip-path="url(#p368457d2a9)" style="fill: none; stroke: #1f77b4"/>
    <path d="M 225.265023 53.94437 
L 225.265023 32.459084 
" clip-path="url(#p368457d2a9)" style="fill: none; stroke: #1f77b4"/>
    <path d="M 225.265023 53.94437 
L 225.265023 32.459084 
" clip-path="url(#p368457d2a9)" style="fill: none; stroke: #1f77b4"/>
    <path d="M 234.109687 28.820673 
L 234.109687 21.820815 
" clip-path="url(#p368457d2a9)" style="fill: none; stroke: #1f77b4"/>
    <path d="M 234.109687 28.820673 
L 234.109687 21.820815 
" clip-path="url(#p368457d2a9)" style="fill: none; stroke: #1f77b4"/>
    <path d="M 238.532018 25.718045 
L 238.532018 6.105955 
" clip-path="url(#p368457d2a9)" style="fill: none; stroke: #1f77b4"/>
    <path d="M 238.532018 25.718045 
L 238.532018 6.105955 
" clip-path="url(#p368457d2a9)" style="fill: none; stroke: #1f77b4"/>
    <path d="M 256.221346 37.223027 
L 256.221346 26.178071 
" clip-path="url(#p368457d2a9)" style="fill: none; stroke: #1f77b4"/>
    <path d="M 256.221346 37.223027 
L 256.221346 26.178071 
" clip-path="url(#p368457d2a9)" style="fill: none; stroke: #1f77b4"/>
    <path d="M 282.755336 55.543058 
L 282.755336 35.930969 
" clip-path="url(#p368457d2a9)" style="fill: none; stroke: #1f77b4"/>
    <path d="M 282.755336 55.543058 
L 282.755336 35.930969 
" clip-path="url(#p368457d2a9)" style="fill: none; stroke: #1f77b4"/>
   </g>
   <g id="line2d_37">
    <g clip-path="url(#p368457d2a9)">
     <use xlink:href="#md8f8e82478" x="220.842691" y="75.204167" style="fill: #1f77b4; stroke: #1f77b4"/>
     <use xlink:href="#md8f8e82478" x="220.842691" y="75.204167" style="fill: #1f77b4; stroke: #1f77b4"/>
     <use xlink:href="#md8f8e82478" x="225.265023" y="53.94437" style="fill: #1f77b4; stroke: #1f77b4"/>
     <use xlink:href="#md8f8e82478" x="225.265023" y="53.94437" style="fill: #1f77b4; stroke: #1f77b4"/>
     <use xlink:href="#md8f8e82478" x="234.109687" y="28.820673" style="fill: #1f77b4; stroke: #1f77b4"/>
     <use xlink:href="#md8f8e82478" x="234.109687" y="28.820673" style="fill: #1f77b4; stroke: #1f77b4"/>
     <use xlink:href="#md8f8e82478" x="238.532018" y="25.718045" style="fill: #1f77b4; stroke: #1f77b4"/>
     <use xlink:href="#md8f8e82478" x="238.532018" y="25.718045" style="fill: #1f77b4; stroke: #1f77b4"/>
     <use xlink:href="#md8f8e82478" x="256.221346" y="37.223027" style="fill: #1f77b4; stroke: #1f77b4"/>
     <use xlink:href="#md8f8e82478" x="256.221346" y="37.223027" style="fill: #1f77b4; stroke: #1f77b4"/>
     <use xlink:href="#md8f8e82478" x="282.755336" y="55.543058" style="fill: #1f77b4; stroke: #1f77b4"/>
     <use xlink:href="#md8f8e82478" x="282.755336" y="55.543058" style="fill: #1f77b4; stroke: #1f77b4"/>
    </g>
   </g>
   <g id="line2d_38">
    <g clip-path="url(#p368457d2a9)">
     <use xlink:href="#md8f8e82478" x="220.842691" y="67.499833" style="fill: #1f77b4; stroke: #1f77b4"/>
     <use xlink:href="#md8f8e82478" x="220.842691" y="67.499833" style="fill: #1f77b4; stroke: #1f77b4"/>
     <use xlink:href="#md8f8e82478" x="225.265023" y="32.459084" style="fill: #1f77b4; stroke: #1f77b4"/>
     <use xlink:href="#md8f8e82478" x="225.265023" y="32.459084" style="fill: #1f77b4; stroke: #1f77b4"/>
     <use xlink:href="#md8f8e82478" x="234.109687" y="21.820815" style="fill: #1f77b4; stroke: #1f77b4"/>
     <use xlink:href="#md8f8e82478" x="234.109687" y="21.820815" style="fill: #1f77b4; stroke: #1f77b4"/>
     <use xlink:href="#md8f8e82478" x="238.532018" y="6.105955" style="fill: #1f77b4; stroke: #1f77b4"/>
     <use xlink:href="#md8f8e82478" x="238.532018" y="6.105955" style="fill: #1f77b4; stroke: #1f77b4"/>
     <use xlink:href="#md8f8e82478" x="256.221346" y="26.178071" style="fill: #1f77b4; stroke: #1f77b4"/>
     <use xlink:href="#md8f8e82478" x="256.221346" y="26.178071" style="fill: #1f77b4; stroke: #1f77b4"/>
     <use xlink:href="#md8f8e82478" x="282.755336" y="35.930969" style="fill: #1f77b4; stroke: #1f77b4"/>
     <use xlink:href="#md8f8e82478" x="282.755336" y="35.930969" style="fill: #1f77b4; stroke: #1f77b4"/>
    </g>
   </g>
   <g id="line2d_39">
    <g clip-path="url(#p368457d2a9)">
     <use xlink:href="#m3a9fa9e366" x="220.842691" y="71.352" style="fill: #1f77b4; stroke: #1f77b4"/>
     <use xlink:href="#m3a9fa9e366" x="220.842691" y="71.352" style="fill: #1f77b4; stroke: #1f77b4"/>
     <use xlink:href="#m3a9fa9e366" x="225.265023" y="43.201727" style="fill: #1f77b4; stroke: #1f77b4"/>
     <use xlink:href="#m3a9fa9e366" x="225.265023" y="43.201727" style="fill: #1f77b4; stroke: #1f77b4"/>
     <use xlink:href="#m3a9fa9e366" x="234.109687" y="25.320744" style="fill: #1f77b4; stroke: #1f77b4"/>
     <use xlink:href="#m3a9fa9e366" x="234.109687" y="25.320744" style="fill: #1f77b4; stroke: #1f77b4"/>
     <use xlink:href="#m3a9fa9e366" x="238.532018" y="15.912" style="fill: #1f77b4; stroke: #1f77b4"/>
     <use xlink:href="#m3a9fa9e366" x="238.532018" y="15.912" style="fill: #1f77b4; stroke: #1f77b4"/>
     <use xlink:href="#m3a9fa9e366" x="256.221346" y="31.700549" style="fill: #1f77b4; stroke: #1f77b4"/>
     <use xlink:href="#m3a9fa9e366" x="256.221346" y="31.700549" style="fill: #1f77b4; stroke: #1f77b4"/>
     <use xlink:href="#m3a9fa9e366" x="282.755336" y="45.737014" style="fill: #1f77b4; stroke: #1f77b4"/>
     <use xlink:href="#m3a9fa9e366" x="282.755336" y="45.737014" style="fill: #1f77b4; stroke: #1f77b4"/>
    </g>
   </g>
   <g id="patch_13">
    <path d="M 217.747059 76.896 
L 217.747059 10.368 
" style="fill: none; stroke: #262626; stroke-linejoin: miter; stroke-linecap: square"/>
   </g>
   <g id="patch_14">
    <path d="M 291.6 76.896 
L 291.6 10.368 
" style="fill: none; stroke: #262626; stroke-linejoin: miter; stroke-linecap: square"/>
   </g>
   <g id="patch_15">
    <path d="M 217.747059 76.896 
L 291.6 76.896 
" style="fill: none; stroke: #262626; stroke-linejoin: miter; stroke-linecap: square"/>
   </g>
   <g id="patch_16">
    <path d="M 217.747059 10.368 
L 291.6 10.368 
" style="fill: none; stroke: #262626; stroke-linejoin: miter; stroke-linecap: square"/>
   </g>
   <g id="text_29">
    <!-- E(1,0.103), rmse=0.041 -->
    <g style="fill: #262626" transform="translate(235.583797 65.808)scale(0.06 -0.06)">
     <use xlink:href="#ArialMT-45"/>
     <use xlink:href="#ArialMT-28" x="66.699219"/>
     <use xlink:href="#ArialMT-31" x="100"/>
     <use xlink:href="#ArialMT-2c" x="155.615234"/>
     <use xlink:href="#ArialMT-30" x="183.398438"/>
     <use xlink:href="#ArialMT-2e" x="239.013672"/>
     <use xlink:href="#ArialMT-31" x="266.796875"/>
     <use xlink:href="#ArialMT-30" x="322.412109"/>
     <use xlink:href="#ArialMT-33" x="378.027344"/>
     <use xlink:href="#ArialMT-29" x="433.642578"/>
     <use xlink:href="#ArialMT-2c" x="466.943359"/>
     <use xlink:href="#ArialMT-20" x="494.726562"/>
     <use xlink:href="#ArialMT-72" x="522.509766"/>
     <use xlink:href="#ArialMT-6d" x="555.810547"/>
     <use xlink:href="#ArialMT-73" x="639.111328"/>
     <use xlink:href="#ArialMT-65" x="689.111328"/>
     <use xlink:href="#ArialMT-3d" x="744.726562"/>
     <use xlink:href="#ArialMT-30" x="803.125"/>
     <use xlink:href="#ArialMT-2e" x="858.740234"/>
     <use xlink:href="#ArialMT-30" x="886.523438"/>
     <use xlink:href="#ArialMT-34" x="942.138672"/>
     <use xlink:href="#ArialMT-31" x="997.753906"/>
    </g>
   </g>
   <g id="text_30">
    <!-- g(1.0,0.103), rmse=0.049 -->
    <g style="fill: #262626" transform="translate(235.583797 71.352)scale(0.06 -0.06)">
     <use xlink:href="#ArialMT-67"/>
     <use xlink:href="#ArialMT-28" x="55.615234"/>
     <use xlink:href="#ArialMT-31" x="88.916016"/>
     <use xlink:href="#ArialMT-2e" x="144.53125"/>
     <use xlink:href="#ArialMT-30" x="172.314453"/>
     <use xlink:href="#ArialMT-2c" x="227.929688"/>
     <use xlink:href="#ArialMT-30" x="255.712891"/>
     <use xlink:href="#ArialMT-2e" x="311.328125"/>
     <use xlink:href="#ArialMT-31" x="339.111328"/>
     <use xlink:href="#ArialMT-30" x="394.726562"/>
     <use xlink:href="#ArialMT-33" x="450.341797"/>
     <use xlink:href="#ArialMT-29" x="505.957031"/>
     <use xlink:href="#ArialMT-2c" x="539.257812"/>
     <use xlink:href="#ArialMT-20" x="567.041016"/>
     <use xlink:href="#ArialMT-72" x="594.824219"/>
     <use xlink:href="#ArialMT-6d" x="628.125"/>
     <use xlink:href="#ArialMT-73" x="711.425781"/>
     <use xlink:href="#ArialMT-65" x="761.425781"/>
     <use xlink:href="#ArialMT-3d" x="817.041016"/>
     <use xlink:href="#ArialMT-30" x="875.439453"/>
     <use xlink:href="#ArialMT-2e" x="931.054688"/>
     <use xlink:href="#ArialMT-30" x="958.837891"/>
     <use xlink:href="#ArialMT-34" x="1014.453125"/>
     <use xlink:href="#ArialMT-39" x="1070.068359"/>
    </g>
   </g>
   <g id="text_31">
    <!-- Camsap3 -->
    <g style="fill: #262626" transform="translate(220.842691 21.456)scale(0.08 -0.08)">
     <defs>
      <path id="Arial-ItalicMT-43" d="M 3859 1613 
L 4466 1528 
Q 4178 734 3628 328 
Q 3078 -78 2394 -78 
Q 1559 -78 1070 431 
Q 581 941 581 1891 
Q 581 3128 1325 3938 
Q 1988 4659 2972 4659 
Q 3700 4659 4151 4268 
Q 4603 3878 4675 3219 
L 4103 3166 
Q 4013 3663 3730 3908 
Q 3447 4153 3000 4153 
Q 2159 4153 1641 3406 
Q 1191 2763 1191 1878 
Q 1191 1172 1537 800 
Q 1884 428 2441 428 
Q 2916 428 3300 737 
Q 3684 1047 3859 1613 
z
" transform="scale(0.015625)"/>
      <path id="Arial-ItalicMT-73" d="M 266 1134 
L 831 1169 
Q 831 925 906 753 
Q 981 581 1182 472 
Q 1384 363 1653 363 
Q 2028 363 2215 513 
Q 2403 663 2403 866 
Q 2403 1013 2291 1144 
Q 2175 1275 1726 1467 
Q 1278 1659 1153 1738 
Q 944 1866 837 2039 
Q 731 2213 731 2438 
Q 731 2831 1043 3112 
Q 1356 3394 1919 3394 
Q 2544 3394 2870 3105 
Q 3197 2816 3209 2344 
L 2656 2306 
Q 2644 2606 2444 2781 
Q 2244 2956 1878 2956 
Q 1584 2956 1421 2822 
Q 1259 2688 1259 2531 
Q 1259 2375 1400 2256 
Q 1494 2175 1884 2006 
Q 2534 1725 2703 1563 
Q 2972 1303 2972 931 
Q 2972 684 2820 446 
Q 2669 209 2358 67 
Q 2047 -75 1625 -75 
Q 1050 -75 647 209 
Q 244 494 266 1134 
z
" transform="scale(0.015625)"/>
      <path id="Arial-ItalicMT-33" d="M 350 1200 
L 900 1269 
Q 963 788 1177 580 
Q 1391 372 1738 372 
Q 2156 372 2461 672 
Q 2766 972 2766 1359 
Q 2766 1697 2537 1917 
Q 2309 2138 1925 2138 
Q 1881 2138 1744 2125 
L 1841 2597 
Q 1922 2584 1997 2584 
Q 2481 2584 2742 2820 
Q 3003 3056 3003 3400 
Q 3003 3716 2789 3931 
Q 2575 4147 2266 4147 
Q 1963 4147 1720 3926 
Q 1478 3706 1409 3303 
L 853 3416 
Q 991 3981 1381 4290 
Q 1772 4600 2306 4600 
Q 2869 4600 3217 4259 
Q 3566 3919 3566 3422 
Q 3566 3059 3377 2789 
Q 3188 2519 2809 2341 
Q 3078 2181 3211 1956 
Q 3344 1731 3344 1441 
Q 3344 825 2883 373 
Q 2422 -78 1781 -78 
Q 1159 -78 776 270 
Q 394 619 350 1200 
z
" transform="scale(0.015625)"/>
     </defs>
     <use xlink:href="#Arial-ItalicMT-43"/>
     <use xlink:href="#Arial-ItalicMT-61" x="72.216797"/>
     <use xlink:href="#Arial-ItalicMT-6d" x="127.832031"/>
     <use xlink:href="#Arial-ItalicMT-73" x="211.132812"/>
     <use xlink:href="#Arial-ItalicMT-61" x="261.132812"/>
     <use xlink:href="#Arial-ItalicMT-70" x="316.748047"/>
     <use xlink:href="#Arial-ItalicMT-33" x="372.363281"/>
    </g>
   </g>
  </g>
 </g>
 <defs>
  <clipPath id="p9303c1a5d1">
   <rect x="40.5" y="10.368" width="73.852941" height="66.528"/>
  </clipPath>
  <clipPath id="pa059d6529c">
   <rect x="129.123529" y="10.368" width="73.852941" height="66.528"/>
  </clipPath>
  <clipPath id="p368457d2a9">
   <rect x="217.747059" y="10.368" width="73.852941" height="66.528"/>
  </clipPath>
 </defs>
</svg>
