<?xml version="1.0" encoding="utf-8" standalone="no"?>
<!DOCTYPE svg PUBLIC "-//W3C//DTD SVG 1.1//EN"
  "http://www.w3.org/Graphics/SVG/1.1/DTD/svg11.dtd">
<svg xmlns:xlink="http://www.w3.org/1999/xlink" width="288pt" height="79.2pt" viewBox="0 0 288 79.2" xmlns="http://www.w3.org/2000/svg" version="1.1">
 <metadata>
  <rdf:RDF xmlns:dc="http://purl.org/dc/elements/1.1/" xmlns:cc="http://creativecommons.org/ns#" xmlns:rdf="http://www.w3.org/1999/02/22-rdf-syntax-ns#">
   <cc:Work>
    <dc:type rdf:resource="http://purl.org/dc/dcmitype/StillImage"/>
    <dc:date>2022-12-23T15:37:15.986929</dc:date>
    <dc:format>image/svg+xml</dc:format>
    <dc:creator>
     <cc:Agent>
      <dc:title>Matplotlib v3.5.1, https://matplotlib.org/</dc:title>
     </cc:Agent>
    </dc:creator>
   </cc:Work>
  </rdf:RDF>
 </metadata>
 <defs>
  <style type="text/css">*{stroke-linejoin: round; stroke-linecap: butt}</style>
 </defs>
 <g id="figure_1">
  <g id="patch_1">
   <path d="M 0 79.2 
L 288 79.2 
L 288 0 
L 0 0 
L 0 79.2 
z
" style="fill: none"/>
  </g>
  <g id="axes_1">
   <g id="patch_2">
    <path d="M 36 70.488 
L 101.647059 70.488 
L 101.647059 9.504 
L 36 9.504 
L 36 70.488 
z
" style="fill: none"/>
   </g>
   <g id="matplotlib.axis_1">
    <g id="xtick_1">
     <g id="line2d_1">
      <defs>
       <path id="m1d944e838f" d="M 0 0 
L 0 4 
" style="stroke: #262626; stroke-width: 0.8"/>
      </defs>
      <g>
       <use xlink:href="#m1d944e838f" x="38.751673" y="70.488" style="fill: #262626; stroke: #262626; stroke-width: 0.8"/>
      </g>
     </g>
     <g id="text_1">
      <!-- 0 -->
      <g style="fill: #262626" transform="translate(36.527298 82.21425)scale(0.08 -0.08)">
       <defs>
        <path id="ArialMT-30" d="M 266 2259 
Q 266 3072 433 3567 
Q 600 4063 929 4331 
Q 1259 4600 1759 4600 
Q 2128 4600 2406 4451 
Q 2684 4303 2865 4023 
Q 3047 3744 3150 3342 
Q 3253 2941 3253 2259 
Q 3253 1453 3087 958 
Q 2922 463 2592 192 
Q 2263 -78 1759 -78 
Q 1097 -78 719 397 
Q 266 969 266 2259 
z
M 844 2259 
Q 844 1131 1108 757 
Q 1372 384 1759 384 
Q 2147 384 2411 759 
Q 2675 1134 2675 2259 
Q 2675 3391 2411 3762 
Q 2147 4134 1753 4134 
Q 1366 4134 1134 3806 
Q 844 3388 844 2259 
z
" transform="scale(0.015625)"/>
       </defs>
       <use xlink:href="#ArialMT-30"/>
      </g>
     </g>
    </g>
    <g id="xtick_2">
     <g id="line2d_2">
      <g>
       <use xlink:href="#m1d944e838f" x="54.47552" y="70.488" style="fill: #262626; stroke: #262626; stroke-width: 0.8"/>
      </g>
     </g>
     <g id="text_2">
      <!-- 24 -->
      <g style="fill: #262626" transform="translate(50.02677 82.21425)scale(0.08 -0.08)">
       <defs>
        <path id="ArialMT-32" d="M 3222 541 
L 3222 0 
L 194 0 
Q 188 203 259 391 
Q 375 700 629 1000 
Q 884 1300 1366 1694 
Q 2113 2306 2375 2664 
Q 2638 3022 2638 3341 
Q 2638 3675 2398 3904 
Q 2159 4134 1775 4134 
Q 1369 4134 1125 3890 
Q 881 3647 878 3216 
L 300 3275 
Q 359 3922 746 4261 
Q 1134 4600 1788 4600 
Q 2447 4600 2831 4234 
Q 3216 3869 3216 3328 
Q 3216 3053 3103 2787 
Q 2991 2522 2730 2228 
Q 2469 1934 1863 1422 
Q 1356 997 1212 845 
Q 1069 694 975 541 
L 3222 541 
z
" transform="scale(0.015625)"/>
        <path id="ArialMT-34" d="M 2069 0 
L 2069 1097 
L 81 1097 
L 81 1613 
L 2172 4581 
L 2631 4581 
L 2631 1613 
L 3250 1613 
L 3250 1097 
L 2631 1097 
L 2631 0 
L 2069 0 
z
M 2069 1613 
L 2069 3678 
L 634 1613 
L 2069 1613 
z
" transform="scale(0.015625)"/>
       </defs>
       <use xlink:href="#ArialMT-32"/>
       <use xlink:href="#ArialMT-34" x="55.615234"/>
      </g>
     </g>
    </g>
    <g id="xtick_3">
     <g id="line2d_3">
      <g>
       <use xlink:href="#m1d944e838f" x="70.199366" y="70.488" style="fill: #262626; stroke: #262626; stroke-width: 0.8"/>
      </g>
     </g>
     <g id="text_3">
      <!-- 48 -->
      <g style="fill: #262626" transform="translate(65.750616 82.21425)scale(0.08 -0.08)">
       <defs>
        <path id="ArialMT-38" d="M 1131 2484 
Q 781 2613 612 2850 
Q 444 3088 444 3419 
Q 444 3919 803 4259 
Q 1163 4600 1759 4600 
Q 2359 4600 2725 4251 
Q 3091 3903 3091 3403 
Q 3091 3084 2923 2848 
Q 2756 2613 2416 2484 
Q 2838 2347 3058 2040 
Q 3278 1734 3278 1309 
Q 3278 722 2862 322 
Q 2447 -78 1769 -78 
Q 1091 -78 675 323 
Q 259 725 259 1325 
Q 259 1772 486 2073 
Q 713 2375 1131 2484 
z
M 1019 3438 
Q 1019 3113 1228 2906 
Q 1438 2700 1772 2700 
Q 2097 2700 2305 2904 
Q 2513 3109 2513 3406 
Q 2513 3716 2298 3927 
Q 2084 4138 1766 4138 
Q 1444 4138 1231 3931 
Q 1019 3725 1019 3438 
z
M 838 1322 
Q 838 1081 952 856 
Q 1066 631 1291 507 
Q 1516 384 1775 384 
Q 2178 384 2440 643 
Q 2703 903 2703 1303 
Q 2703 1709 2433 1975 
Q 2163 2241 1756 2241 
Q 1359 2241 1098 1978 
Q 838 1716 838 1322 
z
" transform="scale(0.015625)"/>
       </defs>
       <use xlink:href="#ArialMT-34"/>
       <use xlink:href="#ArialMT-38" x="55.615234"/>
      </g>
     </g>
    </g>
    <g id="xtick_4">
     <g id="line2d_4">
      <g>
       <use xlink:href="#m1d944e838f" x="85.923212" y="70.488" style="fill: #262626; stroke: #262626; stroke-width: 0.8"/>
      </g>
     </g>
     <g id="text_4">
      <!-- 72 -->
      <g style="fill: #262626" transform="translate(81.474462 82.21425)scale(0.08 -0.08)">
       <defs>
        <path id="ArialMT-37" d="M 303 3981 
L 303 4522 
L 3269 4522 
L 3269 4084 
Q 2831 3619 2401 2847 
Q 1972 2075 1738 1259 
Q 1569 684 1522 0 
L 944 0 
Q 953 541 1156 1306 
Q 1359 2072 1739 2783 
Q 2119 3494 2547 3981 
L 303 3981 
z
" transform="scale(0.015625)"/>
       </defs>
       <use xlink:href="#ArialMT-37"/>
       <use xlink:href="#ArialMT-32" x="55.615234"/>
      </g>
     </g>
    </g>
    <g id="xtick_5">
     <g id="line2d_5">
      <g>
       <use xlink:href="#m1d944e838f" x="101.647059" y="70.488" style="fill: #262626; stroke: #262626; stroke-width: 0.8"/>
      </g>
     </g>
     <g id="text_5">
      <!-- 96 -->
      <g style="fill: #262626" transform="translate(97.198309 82.21425)scale(0.08 -0.08)">
       <defs>
        <path id="ArialMT-39" d="M 350 1059 
L 891 1109 
Q 959 728 1153 556 
Q 1347 384 1650 384 
Q 1909 384 2104 503 
Q 2300 622 2425 820 
Q 2550 1019 2634 1356 
Q 2719 1694 2719 2044 
Q 2719 2081 2716 2156 
Q 2547 1888 2255 1720 
Q 1963 1553 1622 1553 
Q 1053 1553 659 1965 
Q 266 2378 266 3053 
Q 266 3750 677 4175 
Q 1088 4600 1706 4600 
Q 2153 4600 2523 4359 
Q 2894 4119 3086 3673 
Q 3278 3228 3278 2384 
Q 3278 1506 3087 986 
Q 2897 466 2520 194 
Q 2144 -78 1638 -78 
Q 1100 -78 759 220 
Q 419 519 350 1059 
z
M 2653 3081 
Q 2653 3566 2395 3850 
Q 2138 4134 1775 4134 
Q 1400 4134 1122 3828 
Q 844 3522 844 3034 
Q 844 2597 1108 2323 
Q 1372 2050 1759 2050 
Q 2150 2050 2401 2323 
Q 2653 2597 2653 3081 
z
" transform="scale(0.015625)"/>
        <path id="ArialMT-36" d="M 3184 3459 
L 2625 3416 
Q 2550 3747 2413 3897 
Q 2184 4138 1850 4138 
Q 1581 4138 1378 3988 
Q 1113 3794 959 3422 
Q 806 3050 800 2363 
Q 1003 2672 1297 2822 
Q 1591 2972 1913 2972 
Q 2475 2972 2870 2558 
Q 3266 2144 3266 1488 
Q 3266 1056 3080 686 
Q 2894 316 2569 119 
Q 2244 -78 1831 -78 
Q 1128 -78 684 439 
Q 241 956 241 2144 
Q 241 3472 731 4075 
Q 1159 4600 1884 4600 
Q 2425 4600 2770 4297 
Q 3116 3994 3184 3459 
z
M 888 1484 
Q 888 1194 1011 928 
Q 1134 663 1356 523 
Q 1578 384 1822 384 
Q 2178 384 2434 671 
Q 2691 959 2691 1453 
Q 2691 1928 2437 2201 
Q 2184 2475 1800 2475 
Q 1419 2475 1153 2201 
Q 888 1928 888 1484 
z
" transform="scale(0.015625)"/>
       </defs>
       <use xlink:href="#ArialMT-39"/>
       <use xlink:href="#ArialMT-36" x="55.615234"/>
      </g>
     </g>
    </g>
    <g id="text_6">
     <!-- time (h) -->
     <g style="fill: #262626" transform="translate(53.573451 94.355969)scale(0.09 -0.09)">
      <defs>
       <path id="ArialMT-74" d="M 1650 503 
L 1731 6 
Q 1494 -44 1306 -44 
Q 1000 -44 831 53 
Q 663 150 594 308 
Q 525 466 525 972 
L 525 2881 
L 113 2881 
L 113 3319 
L 525 3319 
L 525 4141 
L 1084 4478 
L 1084 3319 
L 1650 3319 
L 1650 2881 
L 1084 2881 
L 1084 941 
Q 1084 700 1114 631 
Q 1144 563 1211 522 
Q 1278 481 1403 481 
Q 1497 481 1650 503 
z
" transform="scale(0.015625)"/>
       <path id="ArialMT-69" d="M 425 3934 
L 425 4581 
L 988 4581 
L 988 3934 
L 425 3934 
z
M 425 0 
L 425 3319 
L 988 3319 
L 988 0 
L 425 0 
z
" transform="scale(0.015625)"/>
       <path id="ArialMT-6d" d="M 422 0 
L 422 3319 
L 925 3319 
L 925 2853 
Q 1081 3097 1340 3245 
Q 1600 3394 1931 3394 
Q 2300 3394 2536 3241 
Q 2772 3088 2869 2813 
Q 3263 3394 3894 3394 
Q 4388 3394 4653 3120 
Q 4919 2847 4919 2278 
L 4919 0 
L 4359 0 
L 4359 2091 
Q 4359 2428 4304 2576 
Q 4250 2725 4106 2815 
Q 3963 2906 3769 2906 
Q 3419 2906 3187 2673 
Q 2956 2441 2956 1928 
L 2956 0 
L 2394 0 
L 2394 2156 
Q 2394 2531 2256 2718 
Q 2119 2906 1806 2906 
Q 1569 2906 1367 2781 
Q 1166 2656 1075 2415 
Q 984 2175 984 1722 
L 984 0 
L 422 0 
z
" transform="scale(0.015625)"/>
       <path id="ArialMT-65" d="M 2694 1069 
L 3275 997 
Q 3138 488 2766 206 
Q 2394 -75 1816 -75 
Q 1088 -75 661 373 
Q 234 822 234 1631 
Q 234 2469 665 2931 
Q 1097 3394 1784 3394 
Q 2450 3394 2872 2941 
Q 3294 2488 3294 1666 
Q 3294 1616 3291 1516 
L 816 1516 
Q 847 969 1125 678 
Q 1403 388 1819 388 
Q 2128 388 2347 550 
Q 2566 713 2694 1069 
z
M 847 1978 
L 2700 1978 
Q 2663 2397 2488 2606 
Q 2219 2931 1791 2931 
Q 1403 2931 1139 2672 
Q 875 2413 847 1978 
z
" transform="scale(0.015625)"/>
       <path id="ArialMT-20" transform="scale(0.015625)"/>
       <path id="ArialMT-28" d="M 1497 -1347 
Q 1031 -759 709 28 
Q 388 816 388 1659 
Q 388 2403 628 3084 
Q 909 3875 1497 4659 
L 1900 4659 
Q 1522 4009 1400 3731 
Q 1209 3300 1100 2831 
Q 966 2247 966 1656 
Q 966 153 1900 -1347 
L 1497 -1347 
z
" transform="scale(0.015625)"/>
       <path id="ArialMT-68" d="M 422 0 
L 422 4581 
L 984 4581 
L 984 2938 
Q 1378 3394 1978 3394 
Q 2347 3394 2619 3248 
Q 2891 3103 3008 2847 
Q 3125 2591 3125 2103 
L 3125 0 
L 2563 0 
L 2563 2103 
Q 2563 2525 2380 2717 
Q 2197 2909 1863 2909 
Q 1613 2909 1392 2779 
Q 1172 2650 1078 2428 
Q 984 2206 984 1816 
L 984 0 
L 422 0 
z
" transform="scale(0.015625)"/>
       <path id="ArialMT-29" d="M 791 -1347 
L 388 -1347 
Q 1322 153 1322 1656 
Q 1322 2244 1188 2822 
Q 1081 3291 891 3722 
Q 769 4003 388 4659 
L 791 4659 
Q 1378 3875 1659 3084 
Q 1900 2403 1900 1659 
Q 1900 816 1576 28 
Q 1253 -759 791 -1347 
z
" transform="scale(0.015625)"/>
      </defs>
      <use xlink:href="#ArialMT-74"/>
      <use xlink:href="#ArialMT-69" x="27.783203"/>
      <use xlink:href="#ArialMT-6d" x="50"/>
      <use xlink:href="#ArialMT-65" x="133.300781"/>
      <use xlink:href="#ArialMT-20" x="188.916016"/>
      <use xlink:href="#ArialMT-28" x="216.699219"/>
      <use xlink:href="#ArialMT-68" x="250"/>
      <use xlink:href="#ArialMT-29" x="305.615234"/>
     </g>
    </g>
   </g>
   <g id="matplotlib.axis_2">
    <g id="ytick_1">
     <g id="line2d_6">
      <defs>
       <path id="meabfa1e445" d="M 0 0 
L -4 0 
" style="stroke: #262626; stroke-width: 0.8"/>
      </defs>
      <g>
       <use xlink:href="#meabfa1e445" x="36" y="65.796923" style="fill: #262626; stroke: #262626; stroke-width: 0.8"/>
      </g>
     </g>
     <g id="text_7">
      <!-- 0 -->
      <g style="fill: #262626" transform="translate(25.55125 68.660048)scale(0.08 -0.08)">
       <use xlink:href="#ArialMT-30"/>
      </g>
     </g>
    </g>
    <g id="ytick_2">
     <g id="line2d_7">
      <g>
       <use xlink:href="#meabfa1e445" x="36" y="42.341538" style="fill: #262626; stroke: #262626; stroke-width: 0.8"/>
      </g>
     </g>
     <g id="text_8">
      <!-- 0.5 -->
      <g style="fill: #262626" transform="translate(18.88 45.204663)scale(0.08 -0.08)">
       <defs>
        <path id="ArialMT-2e" d="M 581 0 
L 581 641 
L 1222 641 
L 1222 0 
L 581 0 
z
" transform="scale(0.015625)"/>
        <path id="ArialMT-35" d="M 266 1200 
L 856 1250 
Q 922 819 1161 601 
Q 1400 384 1738 384 
Q 2144 384 2425 690 
Q 2706 997 2706 1503 
Q 2706 1984 2436 2262 
Q 2166 2541 1728 2541 
Q 1456 2541 1237 2417 
Q 1019 2294 894 2097 
L 366 2166 
L 809 4519 
L 3088 4519 
L 3088 3981 
L 1259 3981 
L 1013 2750 
Q 1425 3038 1878 3038 
Q 2478 3038 2890 2622 
Q 3303 2206 3303 1553 
Q 3303 931 2941 478 
Q 2500 -78 1738 -78 
Q 1113 -78 717 272 
Q 322 622 266 1200 
z
" transform="scale(0.015625)"/>
       </defs>
       <use xlink:href="#ArialMT-30"/>
       <use xlink:href="#ArialMT-2e" x="55.615234"/>
       <use xlink:href="#ArialMT-35" x="83.398438"/>
      </g>
     </g>
    </g>
    <g id="ytick_3">
     <g id="line2d_8">
      <g>
       <use xlink:href="#meabfa1e445" x="36" y="18.886154" style="fill: #262626; stroke: #262626; stroke-width: 0.8"/>
      </g>
     </g>
     <g id="text_9">
      <!-- 1.0 -->
      <g style="fill: #262626" transform="translate(18.88 21.749279)scale(0.08 -0.08)">
       <defs>
        <path id="ArialMT-31" d="M 2384 0 
L 1822 0 
L 1822 3584 
Q 1619 3391 1289 3197 
Q 959 3003 697 2906 
L 697 3450 
Q 1169 3672 1522 3987 
Q 1875 4303 2022 4600 
L 2384 4600 
L 2384 0 
z
" transform="scale(0.015625)"/>
       </defs>
       <use xlink:href="#ArialMT-31"/>
       <use xlink:href="#ArialMT-2e" x="55.615234"/>
       <use xlink:href="#ArialMT-30" x="83.398438"/>
      </g>
     </g>
    </g>
    <g id="text_10">
     <!-- expr. norm. -->
     <g style="fill: #262626" transform="translate(13.09125 62.503734)rotate(-90)scale(0.09 -0.09)">
      <defs>
       <path id="ArialMT-78" d="M 47 0 
L 1259 1725 
L 138 3319 
L 841 3319 
L 1350 2541 
Q 1494 2319 1581 2169 
Q 1719 2375 1834 2534 
L 2394 3319 
L 3066 3319 
L 1919 1756 
L 3153 0 
L 2463 0 
L 1781 1031 
L 1600 1309 
L 728 0 
L 47 0 
z
" transform="scale(0.015625)"/>
       <path id="ArialMT-70" d="M 422 -1272 
L 422 3319 
L 934 3319 
L 934 2888 
Q 1116 3141 1344 3267 
Q 1572 3394 1897 3394 
Q 2322 3394 2647 3175 
Q 2972 2956 3137 2557 
Q 3303 2159 3303 1684 
Q 3303 1175 3120 767 
Q 2938 359 2589 142 
Q 2241 -75 1856 -75 
Q 1575 -75 1351 44 
Q 1128 163 984 344 
L 984 -1272 
L 422 -1272 
z
M 931 1641 
Q 931 1000 1190 694 
Q 1450 388 1819 388 
Q 2194 388 2461 705 
Q 2728 1022 2728 1688 
Q 2728 2322 2467 2637 
Q 2206 2953 1844 2953 
Q 1484 2953 1207 2617 
Q 931 2281 931 1641 
z
" transform="scale(0.015625)"/>
       <path id="ArialMT-72" d="M 416 0 
L 416 3319 
L 922 3319 
L 922 2816 
Q 1116 3169 1280 3281 
Q 1444 3394 1641 3394 
Q 1925 3394 2219 3213 
L 2025 2691 
Q 1819 2813 1613 2813 
Q 1428 2813 1281 2702 
Q 1134 2591 1072 2394 
Q 978 2094 978 1738 
L 978 0 
L 416 0 
z
" transform="scale(0.015625)"/>
       <path id="ArialMT-6e" d="M 422 0 
L 422 3319 
L 928 3319 
L 928 2847 
Q 1294 3394 1984 3394 
Q 2284 3394 2536 3286 
Q 2788 3178 2913 3003 
Q 3038 2828 3088 2588 
Q 3119 2431 3119 2041 
L 3119 0 
L 2556 0 
L 2556 2019 
Q 2556 2363 2490 2533 
Q 2425 2703 2258 2804 
Q 2091 2906 1866 2906 
Q 1506 2906 1245 2678 
Q 984 2450 984 1813 
L 984 0 
L 422 0 
z
" transform="scale(0.015625)"/>
       <path id="ArialMT-6f" d="M 213 1659 
Q 213 2581 725 3025 
Q 1153 3394 1769 3394 
Q 2453 3394 2887 2945 
Q 3322 2497 3322 1706 
Q 3322 1066 3130 698 
Q 2938 331 2570 128 
Q 2203 -75 1769 -75 
Q 1072 -75 642 372 
Q 213 819 213 1659 
z
M 791 1659 
Q 791 1022 1069 705 
Q 1347 388 1769 388 
Q 2188 388 2466 706 
Q 2744 1025 2744 1678 
Q 2744 2294 2464 2611 
Q 2184 2928 1769 2928 
Q 1347 2928 1069 2612 
Q 791 2297 791 1659 
z
" transform="scale(0.015625)"/>
      </defs>
      <use xlink:href="#ArialMT-65"/>
      <use xlink:href="#ArialMT-78" x="55.615234"/>
      <use xlink:href="#ArialMT-70" x="105.615234"/>
      <use xlink:href="#ArialMT-72" x="161.230469"/>
      <use xlink:href="#ArialMT-2e" x="189.03125"/>
      <use xlink:href="#ArialMT-20" x="216.814453"/>
      <use xlink:href="#ArialMT-6e" x="244.597656"/>
      <use xlink:href="#ArialMT-6f" x="300.212891"/>
      <use xlink:href="#ArialMT-72" x="355.828125"/>
      <use xlink:href="#ArialMT-6d" x="389.128906"/>
      <use xlink:href="#ArialMT-2e" x="472.429688"/>
     </g>
    </g>
   </g>
   <g id="line2d_9">
    <path d="M 38.751673 65.796923 
L 39.307567 59.934911 
L 39.86346 54.805422 
L 40.419354 50.316918 
L 40.975247 46.389301 
L 41.531141 42.952483 
L 42.087034 39.945133 
L 42.642928 37.313584 
L 43.198822 35.010876 
L 43.754715 32.995916 
L 44.310609 31.232748 
L 44.866502 29.689906 
L 45.422396 28.33986 
L 45.978289 27.158516 
L 46.534183 26.124794 
L 47.090077 25.220247 
L 47.64597 24.428733 
L 48.201864 23.736127 
L 48.757757 23.13007 
L 49.313651 22.599747 
L 49.869544 22.135693 
L 50.425438 21.729628 
L 50.981331 21.374305 
L 51.537225 21.063383 
L 52.093119 20.791314 
L 52.649012 20.553244 
L 53.204906 20.344923 
L 53.760799 20.162634 
L 54.316693 20.003124 
L 54.872586 19.863546 
L 55.42848 19.74141 
L 55.984373 19.634537 
L 56.540267 19.541018 
L 57.096161 19.459186 
L 57.652054 19.387579 
L 58.207948 19.324921 
L 58.763841 19.270092 
L 59.319735 19.222115 
L 59.875628 19.180133 
L 60.431522 19.143397 
L 60.987416 19.111251 
L 61.543309 19.083123 
L 62.099203 19.05851 
L 62.655096 19.036972 
L 63.21099 19.018126 
L 63.766883 19.001634 
L 64.322777 18.987204 
L 64.87867 18.974576 
L 65.434564 18.963527 
L 65.990458 18.953858 
L 66.546351 18.945398 
L 67.102245 18.937995 
L 67.658138 18.931517 
L 68.214032 18.925848 
L 68.769925 18.920888 
L 69.325819 18.916547 
L 69.881713 18.912749 
L 70.437606 18.909426 
L 70.9935 18.906518 
L 71.549393 18.903973 
L 72.105287 18.901747 
L 72.66118 18.899798 
L 73.217074 18.898093 
L 73.772967 18.896601 
L 74.328861 18.895296 
L 74.884755 18.894153 
L 75.440648 18.893154 
L 75.996542 18.892279 
L 76.552435 18.891514 
L 77.108329 18.890844 
L 77.664222 18.890258 
L 78.220116 18.889745 
L 78.776009 18.889296 
L 79.331903 18.888903 
L 79.887797 18.88856 
L 80.44369 18.888259 
L 80.999584 18.887996 
L 81.555477 18.887766 
L 82.111371 18.887564 
L 82.667264 18.887388 
L 83.223158 18.887234 
L 83.779052 18.887099 
L 84.334945 18.886981 
L 84.890839 18.886878 
L 85.446732 18.886787 
L 86.002626 18.886708 
L 86.558519 18.886639 
L 87.114413 18.886578 
L 87.670306 18.886525 
L 88.2262 18.886479 
L 88.782094 18.886438 
L 89.337987 18.886403 
L 89.893881 18.886372 
L 90.449774 18.886344 
L 91.005668 18.886321 
L 91.561561 18.8863 
L 92.117455 18.886281 
L 92.673348 18.886266 
L 93.229242 18.886252 
L 93.785136 18.886239 
" clip-path="url(#pa3f79385e8)" style="fill: none; stroke: #000000; stroke-width: 3.5; stroke-linecap: round"/>
   </g>
   <g id="line2d_10">
    <path d="M 38.751673 65.796923 
L 39.307567 59.934911 
L 39.86346 54.805422 
L 40.419354 50.316918 
L 40.975247 46.389301 
L 41.531141 42.952483 
L 42.087034 39.945133 
L 42.642928 37.313584 
L 43.198822 35.010876 
L 43.754715 32.995916 
L 44.310609 31.232748 
L 44.866502 29.689906 
L 45.422396 28.33986 
L 45.978289 27.158516 
L 46.534183 26.124794 
L 47.090077 25.220247 
L 47.64597 24.428733 
L 48.201864 23.736127 
L 48.757757 23.13007 
L 49.313651 22.599747 
L 49.869544 22.135693 
L 50.425438 21.729628 
L 50.981331 21.374305 
L 51.537225 21.063383 
L 52.093119 20.791314 
L 52.649012 20.553244 
L 53.204906 20.344923 
L 53.760799 20.162634 
L 54.316693 20.003124 
L 54.872586 19.863546 
L 55.42848 19.74141 
L 55.984373 19.634537 
L 56.540267 19.541018 
L 57.096161 19.459186 
L 57.652054 19.387579 
L 58.207948 19.324921 
L 58.763841 19.270092 
L 59.319735 19.222115 
L 59.875628 19.180133 
L 60.431522 19.143397 
L 60.987416 19.111251 
L 61.543309 19.083123 
L 62.099203 19.05851 
L 62.655096 19.036972 
L 63.21099 19.018126 
L 63.766883 19.001634 
L 64.322777 18.987204 
L 64.87867 18.974576 
L 65.434564 18.963527 
L 65.990458 18.953858 
L 66.546351 18.945398 
L 67.102245 18.937995 
L 67.658138 18.931517 
L 68.214032 18.925848 
L 68.769925 18.920888 
L 69.325819 18.916547 
L 69.881713 18.912749 
L 70.437606 18.909426 
L 70.9935 18.906518 
L 71.549393 18.903973 
L 72.105287 18.901747 
L 72.66118 18.899798 
L 73.217074 18.898093 
L 73.772967 18.896601 
L 74.328861 18.895296 
L 74.884755 18.894153 
L 75.440648 18.893154 
L 75.996542 18.892279 
L 76.552435 18.891514 
L 77.108329 18.890844 
L 77.664222 18.890258 
L 78.220116 18.889745 
L 78.776009 18.889296 
L 79.331903 18.888903 
L 79.887797 18.88856 
L 80.44369 18.888259 
L 80.999584 18.887996 
L 81.555477 18.887766 
L 82.111371 18.887564 
L 82.667264 18.887388 
L 83.223158 18.887234 
L 83.779052 18.887099 
L 84.334945 18.886981 
L 84.890839 18.886878 
L 85.446732 18.886787 
L 86.002626 18.886708 
L 86.558519 18.886639 
L 87.114413 18.886578 
L 87.670306 18.886525 
L 88.2262 18.886479 
L 88.782094 18.886438 
L 89.337987 18.886403 
L 89.893881 18.886372 
L 90.449774 18.886344 
L 91.005668 18.886321 
L 91.561561 18.8863 
L 92.117455 18.886281 
L 92.673348 18.886266 
L 93.229242 18.886252 
L 93.785136 18.886239 
" clip-path="url(#pa3f79385e8)" style="fill: none; stroke-dasharray: 4.44,1.92; stroke-dashoffset: 0; stroke: #d3d3d3; stroke-width: 1.2"/>
   </g>
   <g id="LineCollection_1">
    <path d="M 38.751673 66.527321 
L 38.751673 65.066525 
" clip-path="url(#pa3f79385e8)" style="fill: none; stroke: #55a868"/>
    <path d="M 38.751673 66.527321 
L 38.751673 65.066525 
" clip-path="url(#pa3f79385e8)" style="fill: none; stroke: #55a868"/>
    <path d="M 42.682635 41.992541 
L 42.682635 39.004465 
" clip-path="url(#pa3f79385e8)" style="fill: none; stroke: #55a868"/>
    <path d="M 42.682635 41.992541 
L 42.682635 39.004465 
" clip-path="url(#pa3f79385e8)" style="fill: none; stroke: #55a868"/>
    <path d="M 50.544558 21.591507 
L 50.544558 20.884531 
" clip-path="url(#pa3f79385e8)" style="fill: none; stroke: #55a868"/>
    <path d="M 50.544558 21.591507 
L 50.544558 20.884531 
" clip-path="url(#pa3f79385e8)" style="fill: none; stroke: #55a868"/>
    <path d="M 54.47552 23.982088 
L 54.47552 13.790219 
" clip-path="url(#pa3f79385e8)" style="fill: none; stroke: #55a868"/>
    <path d="M 54.47552 23.982088 
L 54.47552 13.790219 
" clip-path="url(#pa3f79385e8)" style="fill: none; stroke: #55a868"/>
    <path d="M 70.199366 22.467253 
L 70.199366 21.029404 
" clip-path="url(#pa3f79385e8)" style="fill: none; stroke: #55a868"/>
    <path d="M 70.199366 22.467253 
L 70.199366 21.029404 
" clip-path="url(#pa3f79385e8)" style="fill: none; stroke: #55a868"/>
    <path d="M 93.785136 26.210964 
L 93.785136 23.133129 
" clip-path="url(#pa3f79385e8)" style="fill: none; stroke: #55a868"/>
    <path d="M 93.785136 26.210964 
L 93.785136 23.133129 
" clip-path="url(#pa3f79385e8)" style="fill: none; stroke: #55a868"/>
   </g>
   <g id="line2d_11">
    <defs>
     <path id="mc027183f78" d="M 5 0 
L -5 -0 
" style="stroke: #55a868"/>
    </defs>
    <g clip-path="url(#pa3f79385e8)">
     <use xlink:href="#mc027183f78" x="38.751673" y="66.527321" style="fill: #55a868; stroke: #55a868"/>
     <use xlink:href="#mc027183f78" x="38.751673" y="66.527321" style="fill: #55a868; stroke: #55a868"/>
     <use xlink:href="#mc027183f78" x="42.682635" y="41.992541" style="fill: #55a868; stroke: #55a868"/>
     <use xlink:href="#mc027183f78" x="42.682635" y="41.992541" style="fill: #55a868; stroke: #55a868"/>
     <use xlink:href="#mc027183f78" x="50.544558" y="21.591507" style="fill: #55a868; stroke: #55a868"/>
     <use xlink:href="#mc027183f78" x="50.544558" y="21.591507" style="fill: #55a868; stroke: #55a868"/>
     <use xlink:href="#mc027183f78" x="54.47552" y="23.982088" style="fill: #55a868; stroke: #55a868"/>
     <use xlink:href="#mc027183f78" x="54.47552" y="23.982088" style="fill: #55a868; stroke: #55a868"/>
     <use xlink:href="#mc027183f78" x="70.199366" y="22.467253" style="fill: #55a868; stroke: #55a868"/>
     <use xlink:href="#mc027183f78" x="70.199366" y="22.467253" style="fill: #55a868; stroke: #55a868"/>
     <use xlink:href="#mc027183f78" x="93.785136" y="26.210964" style="fill: #55a868; stroke: #55a868"/>
     <use xlink:href="#mc027183f78" x="93.785136" y="26.210964" style="fill: #55a868; stroke: #55a868"/>
    </g>
   </g>
   <g id="line2d_12">
    <g clip-path="url(#pa3f79385e8)">
     <use xlink:href="#mc027183f78" x="38.751673" y="65.066525" style="fill: #55a868; stroke: #55a868"/>
     <use xlink:href="#mc027183f78" x="38.751673" y="65.066525" style="fill: #55a868; stroke: #55a868"/>
     <use xlink:href="#mc027183f78" x="42.682635" y="39.004465" style="fill: #55a868; stroke: #55a868"/>
     <use xlink:href="#mc027183f78" x="42.682635" y="39.004465" style="fill: #55a868; stroke: #55a868"/>
     <use xlink:href="#mc027183f78" x="50.544558" y="20.884531" style="fill: #55a868; stroke: #55a868"/>
     <use xlink:href="#mc027183f78" x="50.544558" y="20.884531" style="fill: #55a868; stroke: #55a868"/>
     <use xlink:href="#mc027183f78" x="54.47552" y="13.790219" style="fill: #55a868; stroke: #55a868"/>
     <use xlink:href="#mc027183f78" x="54.47552" y="13.790219" style="fill: #55a868; stroke: #55a868"/>
     <use xlink:href="#mc027183f78" x="70.199366" y="21.029404" style="fill: #55a868; stroke: #55a868"/>
     <use xlink:href="#mc027183f78" x="70.199366" y="21.029404" style="fill: #55a868; stroke: #55a868"/>
     <use xlink:href="#mc027183f78" x="93.785136" y="23.133129" style="fill: #55a868; stroke: #55a868"/>
     <use xlink:href="#mc027183f78" x="93.785136" y="23.133129" style="fill: #55a868; stroke: #55a868"/>
    </g>
   </g>
   <g id="line2d_13">
    <defs>
     <path id="m828be233dd" d="M 0 1.4 
C 0.371284 1.4 0.727412 1.252487 0.989949 0.989949 
C 1.252487 0.727412 1.4 0.371284 1.4 0 
C 1.4 -0.371284 1.252487 -0.727412 0.989949 -0.989949 
C 0.727412 -1.252487 0.371284 -1.4 0 -1.4 
C -0.371284 -1.4 -0.727412 -1.252487 -0.989949 -0.989949 
C -1.252487 -0.727412 -1.4 -0.371284 -1.4 0 
C -1.4 0.371284 -1.252487 0.727412 -0.989949 0.989949 
C -0.727412 1.252487 -0.371284 1.4 0 1.4 
z
" style="stroke: #55a868"/>
    </defs>
    <g clip-path="url(#pa3f79385e8)">
     <use xlink:href="#m828be233dd" x="38.751673" y="65.796923" style="fill: #55a868; stroke: #55a868"/>
     <use xlink:href="#m828be233dd" x="38.751673" y="65.796923" style="fill: #55a868; stroke: #55a868"/>
     <use xlink:href="#m828be233dd" x="42.682635" y="40.498503" style="fill: #55a868; stroke: #55a868"/>
     <use xlink:href="#m828be233dd" x="42.682635" y="40.498503" style="fill: #55a868; stroke: #55a868"/>
     <use xlink:href="#m828be233dd" x="50.544558" y="21.238019" style="fill: #55a868; stroke: #55a868"/>
     <use xlink:href="#m828be233dd" x="50.544558" y="21.238019" style="fill: #55a868; stroke: #55a868"/>
     <use xlink:href="#m828be233dd" x="54.47552" y="18.886154" style="fill: #55a868; stroke: #55a868"/>
     <use xlink:href="#m828be233dd" x="54.47552" y="18.886154" style="fill: #55a868; stroke: #55a868"/>
     <use xlink:href="#m828be233dd" x="70.199366" y="21.748328" style="fill: #55a868; stroke: #55a868"/>
     <use xlink:href="#m828be233dd" x="70.199366" y="21.748328" style="fill: #55a868; stroke: #55a868"/>
     <use xlink:href="#m828be233dd" x="93.785136" y="24.672046" style="fill: #55a868; stroke: #55a868"/>
     <use xlink:href="#m828be233dd" x="93.785136" y="24.672046" style="fill: #55a868; stroke: #55a868"/>
    </g>
   </g>
   <g id="patch_3">
    <path d="M 36 70.488 
L 36 9.504 
" style="fill: none; stroke: #262626; stroke-linejoin: miter; stroke-linecap: square"/>
   </g>
   <g id="patch_4">
    <path d="M 101.647059 70.488 
L 101.647059 9.504 
" style="fill: none; stroke: #262626; stroke-linejoin: miter; stroke-linecap: square"/>
   </g>
   <g id="patch_5">
    <path d="M 36 70.488 
L 101.647059 70.488 
" style="fill: none; stroke: #262626; stroke-linejoin: miter; stroke-linecap: square"/>
   </g>
   <g id="patch_6">
    <path d="M 36 9.504 
L 101.647059 9.504 
" style="fill: none; stroke: #262626; stroke-linejoin: miter; stroke-linecap: square"/>
   </g>
   <g id="text_11">
    <!-- E(1,0.157) -->
    <g style="fill: #262626" transform="translate(51.854878 65.796923)scale(0.07 -0.07)">
     <defs>
      <path id="ArialMT-45" d="M 506 0 
L 506 4581 
L 3819 4581 
L 3819 4041 
L 1113 4041 
L 1113 2638 
L 3647 2638 
L 3647 2100 
L 1113 2100 
L 1113 541 
L 3925 541 
L 3925 0 
L 506 0 
z
" transform="scale(0.015625)"/>
      <path id="ArialMT-2c" d="M 569 0 
L 569 641 
L 1209 641 
L 1209 0 
Q 1209 -353 1084 -570 
Q 959 -788 688 -906 
L 531 -666 
Q 709 -588 793 -436 
Q 878 -284 888 0 
L 569 0 
z
" transform="scale(0.015625)"/>
     </defs>
     <use xlink:href="#ArialMT-45"/>
     <use xlink:href="#ArialMT-28" x="66.699219"/>
     <use xlink:href="#ArialMT-31" x="100"/>
     <use xlink:href="#ArialMT-2c" x="155.615234"/>
     <use xlink:href="#ArialMT-30" x="183.398438"/>
     <use xlink:href="#ArialMT-2e" x="239.013672"/>
     <use xlink:href="#ArialMT-31" x="266.796875"/>
     <use xlink:href="#ArialMT-35" x="322.412109"/>
     <use xlink:href="#ArialMT-37" x="378.027344"/>
     <use xlink:href="#ArialMT-29" x="433.642578"/>
    </g>
   </g>
   <g id="text_12">
    <!-- $\gamma$(1.0,0.157) -->
    <g style="fill: #262626" transform="translate(51.854878 57.352985)scale(0.07 -0.07)">
     <defs>
      <path id="DejaVuSans-Oblique-3b3" d="M 1491 2950 
L 1838 788 
L 3456 3500 
L 4066 3500 
L 1972 0 
L 1713 -1331 
L 1138 -1331 
L 1397 0 
L 988 2613 
Q 925 3006 628 3006 
L 475 3006 
L 569 3500 
L 788 3500 
Q 1403 3500 1491 2950 
z
" transform="scale(0.015625)"/>
     </defs>
     <use xlink:href="#DejaVuSans-Oblique-3b3" transform="translate(0 0.203125)"/>
     <use xlink:href="#ArialMT-28" transform="translate(59.179688 0.203125)"/>
     <use xlink:href="#ArialMT-31" transform="translate(92.480469 0.203125)"/>
     <use xlink:href="#ArialMT-2e" transform="translate(148.095703 0.203125)"/>
     <use xlink:href="#ArialMT-30" transform="translate(175.878906 0.203125)"/>
     <use xlink:href="#ArialMT-2c" transform="translate(231.494141 0.203125)"/>
     <use xlink:href="#ArialMT-30" transform="translate(259.277344 0.203125)"/>
     <use xlink:href="#ArialMT-2e" transform="translate(314.892578 0.203125)"/>
     <use xlink:href="#ArialMT-31" transform="translate(342.675781 0.203125)"/>
     <use xlink:href="#ArialMT-35" transform="translate(398.291016 0.203125)"/>
     <use xlink:href="#ArialMT-37" transform="translate(452.15625 0.203125)"/>
     <use xlink:href="#ArialMT-29" transform="translate(507.771484 0.203125)"/>
    </g>
   </g>
   <g id="text_13">
    <!-- Ranbp10 -->
    <g style="fill: #262626" transform="translate(38.751673 23.577231)scale(0.08 -0.08)">
     <defs>
      <path id="Arial-ItalicMT-52" d="M 300 0 
L 1259 4581 
L 3181 4581 
Q 3750 4581 4044 4486 
Q 4338 4391 4505 4128 
Q 4672 3866 4672 3466 
Q 4672 2906 4306 2537 
Q 3941 2169 3125 2059 
Q 3375 1875 3503 1697 
Q 3791 1294 3966 863 
L 4316 0 
L 3631 0 
L 3303 853 
Q 3125 1316 2897 1653 
Q 2741 1888 2578 1961 
Q 2416 2034 2050 2034 
L 1338 2034 
L 913 0 
L 300 0 
z
M 1441 2531 
L 2288 2531 
Q 2875 2531 3053 2547 
Q 3400 2581 3622 2703 
Q 3844 2825 3966 3031 
Q 4088 3238 4088 3475 
Q 4088 3675 3997 3823 
Q 3906 3972 3759 4025 
Q 3613 4078 3259 4078 
L 1766 4078 
L 1441 2531 
z
" transform="scale(0.015625)"/>
      <path id="Arial-ItalicMT-61" d="M 2450 413 
Q 2156 159 1884 42 
Q 1613 -75 1303 -75 
Q 844 -75 562 195 
Q 281 466 281 888 
Q 281 1166 407 1380 
Q 534 1594 743 1723 
Q 953 1853 1256 1909 
Q 1447 1947 1980 1969 
Q 2513 1991 2744 2081 
Q 2809 2313 2809 2466 
Q 2809 2663 2666 2775 
Q 2469 2931 2091 2931 
Q 1734 2931 1507 2773 
Q 1281 2616 1178 2325 
L 606 2375 
Q 781 2869 1161 3131 
Q 1541 3394 2119 3394 
Q 2734 3394 3094 3100 
Q 3369 2881 3369 2531 
Q 3369 2266 3291 1916 
L 3106 1091 
Q 3019 697 3019 450 
Q 3019 294 3088 0 
L 2516 0 
Q 2469 163 2450 413 
z
M 2659 1681 
Q 2541 1634 2405 1609 
Q 2269 1584 1950 1556 
Q 1456 1513 1253 1445 
Q 1050 1378 947 1231 
Q 844 1084 844 906 
Q 844 669 1008 516 
Q 1172 363 1475 363 
Q 1756 363 2015 511 
Q 2275 659 2425 925 
Q 2575 1191 2659 1681 
z
" transform="scale(0.015625)"/>
      <path id="Arial-ItalicMT-6e" d="M 213 0 
L 906 3319 
L 1419 3319 
L 1297 2741 
Q 1631 3081 1922 3237 
Q 2213 3394 2516 3394 
Q 2919 3394 3148 3175 
Q 3378 2956 3378 2591 
Q 3378 2406 3297 2009 
L 2875 0 
L 2309 0 
L 2750 2103 
Q 2816 2409 2816 2556 
Q 2816 2722 2702 2825 
Q 2588 2928 2372 2928 
Q 1938 2928 1598 2615 
Q 1259 2303 1100 1544 
L 778 0 
L 213 0 
z
" transform="scale(0.015625)"/>
      <path id="Arial-ItalicMT-62" d="M 213 0 
L 1169 4581 
L 1734 4581 
L 1394 2944 
Q 1663 3191 1881 3292 
Q 2100 3394 2338 3394 
Q 2803 3394 3114 3047 
Q 3425 2700 3425 2038 
Q 3425 1597 3300 1231 
Q 3175 866 2990 617 
Q 2806 369 2609 220 
Q 2413 72 2206 -1 
Q 2000 -75 1809 -75 
Q 1481 -75 1231 98 
Q 981 272 841 628 
L 709 0 
L 213 0 
z
M 1050 1363 
L 1047 1256 
Q 1047 831 1250 609 
Q 1453 388 1756 388 
Q 2053 388 2301 595 
Q 2550 803 2709 1243 
Q 2869 1684 2869 2056 
Q 2869 2475 2667 2706 
Q 2466 2938 2169 2938 
Q 1863 2938 1606 2702 
Q 1350 2466 1178 1975 
Q 1050 1609 1050 1363 
z
" transform="scale(0.015625)"/>
      <path id="Arial-ItalicMT-70" d="M -66 -1272 
L 894 3319 
L 1416 3319 
L 1319 2856 
Q 1609 3159 1839 3276 
Q 2069 3394 2325 3394 
Q 2800 3394 3112 3048 
Q 3425 2703 3425 2059 
Q 3425 1541 3253 1114 
Q 3081 688 2831 428 
Q 2581 169 2325 47 
Q 2069 -75 1800 -75 
Q 1203 -75 875 531 
L 500 -1272 
L -66 -1272 
z
M 1053 1356 
Q 1053 984 1106 841 
Q 1184 638 1362 513 
Q 1541 388 1775 388 
Q 2263 388 2563 936 
Q 2863 1484 2863 2056 
Q 2863 2478 2661 2708 
Q 2459 2938 2159 2938 
Q 1944 2938 1759 2823 
Q 1575 2709 1417 2482 
Q 1259 2256 1156 1928 
Q 1053 1600 1053 1356 
z
" transform="scale(0.015625)"/>
      <path id="Arial-ItalicMT-31" d="M 1541 0 
L 2266 3459 
Q 1797 3091 947 2869 
L 1053 3381 
Q 1475 3550 1886 3822 
Q 2297 4094 2503 4297 
Q 2628 4422 2741 4600 
L 3069 4600 
L 2109 0 
L 1541 0 
z
" transform="scale(0.015625)"/>
      <path id="Arial-ItalicMT-30" d="M 453 1503 
Q 453 2084 626 2684 
Q 800 3284 1012 3643 
Q 1225 4003 1453 4206 
Q 1681 4409 1901 4504 
Q 2122 4600 2391 4600 
Q 2916 4600 3267 4209 
Q 3619 3819 3619 3081 
Q 3619 2322 3375 1578 
Q 3088 697 2575 256 
Q 2181 -78 1678 -78 
Q 1163 -78 808 326 
Q 453 731 453 1503 
z
M 1000 1359 
Q 1000 938 1141 700 
Q 1331 372 1706 372 
Q 2034 372 2303 669 
Q 2691 1088 2886 1895 
Q 3081 2703 3081 3216 
Q 3081 3709 2892 3928 
Q 2703 4147 2394 4147 
Q 2169 4147 1973 4031 
Q 1778 3916 1600 3634 
Q 1347 3238 1159 2447 
Q 1000 1772 1000 1359 
z
" transform="scale(0.015625)"/>
     </defs>
     <use xlink:href="#Arial-ItalicMT-52"/>
     <use xlink:href="#Arial-ItalicMT-61" x="72.216797"/>
     <use xlink:href="#Arial-ItalicMT-6e" x="127.832031"/>
     <use xlink:href="#Arial-ItalicMT-62" x="183.447266"/>
     <use xlink:href="#Arial-ItalicMT-70" x="239.0625"/>
     <use xlink:href="#Arial-ItalicMT-31" x="294.677734"/>
     <use xlink:href="#Arial-ItalicMT-30" x="350.292969"/>
    </g>
   </g>
  </g>
  <g id="axes_2">
   <g id="patch_7">
    <path d="M 114.776471 70.488 
L 180.423529 70.488 
L 180.423529 9.504 
L 114.776471 9.504 
L 114.776471 70.488 
z
" style="fill: none"/>
   </g>
   <g id="matplotlib.axis_3">
    <g id="xtick_6">
     <g id="line2d_14">
      <g>
       <use xlink:href="#m1d944e838f" x="117.528144" y="70.488" style="fill: #262626; stroke: #262626; stroke-width: 0.8"/>
      </g>
     </g>
     <g id="text_14">
      <!-- 0 -->
      <g style="fill: #262626" transform="translate(115.303769 82.21425)scale(0.08 -0.08)">
       <use xlink:href="#ArialMT-30"/>
      </g>
     </g>
    </g>
    <g id="xtick_7">
     <g id="line2d_15">
      <g>
       <use xlink:href="#m1d944e838f" x="133.25199" y="70.488" style="fill: #262626; stroke: #262626; stroke-width: 0.8"/>
      </g>
     </g>
     <g id="text_15">
      <!-- 24 -->
      <g style="fill: #262626" transform="translate(128.80324 82.21425)scale(0.08 -0.08)">
       <use xlink:href="#ArialMT-32"/>
       <use xlink:href="#ArialMT-34" x="55.615234"/>
      </g>
     </g>
    </g>
    <g id="xtick_8">
     <g id="line2d_16">
      <g>
       <use xlink:href="#m1d944e838f" x="148.975837" y="70.488" style="fill: #262626; stroke: #262626; stroke-width: 0.8"/>
      </g>
     </g>
     <g id="text_16">
      <!-- 48 -->
      <g style="fill: #262626" transform="translate(144.527087 82.21425)scale(0.08 -0.08)">
       <use xlink:href="#ArialMT-34"/>
       <use xlink:href="#ArialMT-38" x="55.615234"/>
      </g>
     </g>
    </g>
    <g id="xtick_9">
     <g id="line2d_17">
      <g>
       <use xlink:href="#m1d944e838f" x="164.699683" y="70.488" style="fill: #262626; stroke: #262626; stroke-width: 0.8"/>
      </g>
     </g>
     <g id="text_17">
      <!-- 72 -->
      <g style="fill: #262626" transform="translate(160.250933 82.21425)scale(0.08 -0.08)">
       <use xlink:href="#ArialMT-37"/>
       <use xlink:href="#ArialMT-32" x="55.615234"/>
      </g>
     </g>
    </g>
    <g id="xtick_10">
     <g id="line2d_18">
      <g>
       <use xlink:href="#m1d944e838f" x="180.423529" y="70.488" style="fill: #262626; stroke: #262626; stroke-width: 0.8"/>
      </g>
     </g>
     <g id="text_18">
      <!-- 96 -->
      <g style="fill: #262626" transform="translate(175.974779 82.21425)scale(0.08 -0.08)">
       <use xlink:href="#ArialMT-39"/>
       <use xlink:href="#ArialMT-36" x="55.615234"/>
      </g>
     </g>
    </g>
    <g id="text_19">
     <!-- time (h) -->
     <g style="fill: #262626" transform="translate(132.349922 94.355969)scale(0.09 -0.09)">
      <use xlink:href="#ArialMT-74"/>
      <use xlink:href="#ArialMT-69" x="27.783203"/>
      <use xlink:href="#ArialMT-6d" x="50"/>
      <use xlink:href="#ArialMT-65" x="133.300781"/>
      <use xlink:href="#ArialMT-20" x="188.916016"/>
      <use xlink:href="#ArialMT-28" x="216.699219"/>
      <use xlink:href="#ArialMT-68" x="250"/>
      <use xlink:href="#ArialMT-29" x="305.615234"/>
     </g>
    </g>
   </g>
   <g id="matplotlib.axis_4">
    <g id="ytick_4">
     <g id="line2d_19">
      <g>
       <use xlink:href="#meabfa1e445" x="114.776471" y="65.796923" style="fill: #262626; stroke: #262626; stroke-width: 0.8"/>
      </g>
     </g>
    </g>
    <g id="ytick_5">
     <g id="line2d_20">
      <g>
       <use xlink:href="#meabfa1e445" x="114.776471" y="42.341538" style="fill: #262626; stroke: #262626; stroke-width: 0.8"/>
      </g>
     </g>
    </g>
    <g id="ytick_6">
     <g id="line2d_21">
      <g>
       <use xlink:href="#meabfa1e445" x="114.776471" y="18.886154" style="fill: #262626; stroke: #262626; stroke-width: 0.8"/>
      </g>
     </g>
    </g>
   </g>
   <g id="line2d_22">
    <path d="M 117.528144 65.796923 
L 118.084037 62.97537 
L 118.639931 60.323525 
L 119.195824 57.831182 
L 119.751718 55.488746 
L 120.307612 53.287201 
L 120.863505 51.218073 
L 121.419399 49.273397 
L 121.975292 47.445689 
L 122.531186 45.727911 
L 123.087079 44.113454 
L 123.642973 42.596101 
L 124.198866 41.170013 
L 124.75476 39.829701 
L 125.310654 38.570004 
L 125.866547 37.386075 
L 126.422441 36.273356 
L 126.978334 35.227564 
L 127.534228 34.244673 
L 128.090121 33.3209 
L 128.646015 32.45269 
L 129.201908 31.636701 
L 129.757802 30.86979 
L 130.313696 30.149008 
L 130.869589 29.471578 
L 131.425483 28.834894 
L 131.981376 28.236505 
L 132.53727 27.674107 
L 133.093163 27.145536 
L 133.649057 26.648757 
L 134.204951 26.181858 
L 134.760844 25.743041 
L 135.316738 25.330619 
L 135.872631 24.943002 
L 136.428525 24.578699 
L 136.984418 24.236308 
L 137.540312 23.914511 
L 138.096205 23.612069 
L 138.652099 23.327819 
L 139.207993 23.060665 
L 139.763886 22.809579 
L 140.31978 22.573596 
L 140.875673 22.351807 
L 141.431567 22.143357 
L 141.98746 21.947445 
L 142.543354 21.763317 
L 143.099247 21.590264 
L 143.655141 21.427619 
L 144.211035 21.274757 
L 144.766928 21.131089 
L 145.322822 20.996062 
L 145.878715 20.869157 
L 146.434609 20.749885 
L 146.990502 20.637787 
L 147.546396 20.532431 
L 148.10229 20.433412 
L 148.658183 20.340349 
L 149.214077 20.252883 
L 149.76997 20.170678 
L 150.325864 20.093417 
L 150.881757 20.020804 
L 151.437651 19.952558 
L 151.993544 19.888416 
L 152.549438 19.828133 
L 153.105332 19.771476 
L 153.661225 19.718226 
L 154.217119 19.668179 
L 154.773012 19.621142 
L 155.328906 19.576935 
L 155.884799 19.535386 
L 156.440693 19.496337 
L 156.996587 19.459636 
L 157.55248 19.425143 
L 158.108374 19.392724 
L 158.664267 19.362255 
L 159.220161 19.333619 
L 159.776054 19.306705 
L 160.331948 19.28141 
L 160.887841 19.257637 
L 161.443735 19.235293 
L 161.999629 19.214293 
L 162.555522 19.194557 
L 163.111416 19.176007 
L 163.667309 19.158573 
L 164.223203 19.142188 
L 164.779096 19.126788 
L 165.33499 19.112315 
L 165.890883 19.098712 
L 166.446777 19.085927 
L 167.002671 19.073911 
L 167.558564 19.062618 
L 168.114458 19.052004 
L 168.670351 19.042029 
L 169.226245 19.032653 
L 169.782138 19.023842 
L 170.338032 19.01556 
L 170.893926 19.007777 
L 171.449819 19.000461 
L 172.005713 18.993586 
L 172.561606 18.987124 
" clip-path="url(#p9108626607)" style="fill: none; stroke: #000000; stroke-width: 3.5; stroke-linecap: round"/>
   </g>
   <g id="line2d_23">
    <path d="M 117.528144 65.796923 
L 118.084037 62.97537 
L 118.639931 60.323525 
L 119.195824 57.831182 
L 119.751718 55.488746 
L 120.307612 53.287201 
L 120.863505 51.218073 
L 121.419399 49.273397 
L 121.975292 47.445689 
L 122.531186 45.727911 
L 123.087079 44.113454 
L 123.642973 42.596101 
L 124.198866 41.170013 
L 124.75476 39.829701 
L 125.310654 38.570004 
L 125.866547 37.386075 
L 126.422441 36.273356 
L 126.978334 35.227564 
L 127.534228 34.244673 
L 128.090121 33.3209 
L 128.646015 32.45269 
L 129.201908 31.636701 
L 129.757802 30.86979 
L 130.313696 30.149008 
L 130.869589 29.471578 
L 131.425483 28.834894 
L 131.981376 28.236505 
L 132.53727 27.674107 
L 133.093163 27.145536 
L 133.649057 26.648757 
L 134.204951 26.181858 
L 134.760844 25.743041 
L 135.316738 25.330619 
L 135.872631 24.943002 
L 136.428525 24.578699 
L 136.984418 24.236308 
L 137.540312 23.914511 
L 138.096205 23.612069 
L 138.652099 23.327819 
L 139.207993 23.060665 
L 139.763886 22.809579 
L 140.31978 22.573596 
L 140.875673 22.351807 
L 141.431567 22.143357 
L 141.98746 21.947445 
L 142.543354 21.763317 
L 143.099247 21.590264 
L 143.655141 21.427619 
L 144.211035 21.274757 
L 144.766928 21.131089 
L 145.322822 20.996062 
L 145.878715 20.869157 
L 146.434609 20.749885 
L 146.990502 20.637787 
L 147.546396 20.532431 
L 148.10229 20.433412 
L 148.658183 20.340349 
L 149.214077 20.252883 
L 149.76997 20.170678 
L 150.325864 20.093417 
L 150.881757 20.020804 
L 151.437651 19.952558 
L 151.993544 19.888416 
L 152.549438 19.828133 
L 153.105332 19.771476 
L 153.661225 19.718226 
L 154.217119 19.668179 
L 154.773012 19.621142 
L 155.328906 19.576935 
L 155.884799 19.535386 
L 156.440693 19.496337 
L 156.996587 19.459636 
L 157.55248 19.425143 
L 158.108374 19.392724 
L 158.664267 19.362255 
L 159.220161 19.333619 
L 159.776054 19.306705 
L 160.331948 19.28141 
L 160.887841 19.257637 
L 161.443735 19.235293 
L 161.999629 19.214293 
L 162.555522 19.194557 
L 163.111416 19.176007 
L 163.667309 19.158573 
L 164.223203 19.142188 
L 164.779096 19.126788 
L 165.33499 19.112315 
L 165.890883 19.098712 
L 166.446777 19.085927 
L 167.002671 19.073911 
L 167.558564 19.062618 
L 168.114458 19.052004 
L 168.670351 19.042029 
L 169.226245 19.032653 
L 169.782138 19.023842 
L 170.338032 19.01556 
L 170.893926 19.007777 
L 171.449819 19.000461 
L 172.005713 18.993586 
L 172.561606 18.987124 
" clip-path="url(#p9108626607)" style="fill: none; stroke-dasharray: 4.44,1.92; stroke-dashoffset: 0; stroke: #d3d3d3; stroke-width: 1.2"/>
   </g>
   <g id="LineCollection_2">
    <path d="M 117.528144 76.651013 
L 117.528144 54.942833 
" clip-path="url(#p9108626607)" style="fill: none; stroke: #55a868"/>
    <path d="M 117.528144 76.651013 
L 117.528144 54.942833 
" clip-path="url(#p9108626607)" style="fill: none; stroke: #55a868"/>
    <path d="M 121.459105 51.177208 
L 121.459105 46.190496 
" clip-path="url(#p9108626607)" style="fill: none; stroke: #55a868"/>
    <path d="M 121.459105 51.177208 
L 121.459105 46.190496 
" clip-path="url(#p9108626607)" style="fill: none; stroke: #55a868"/>
    <path d="M 129.321029 36.924494 
L 129.321029 24.445035 
" clip-path="url(#p9108626607)" style="fill: none; stroke: #55a868"/>
    <path d="M 129.321029 36.924494 
L 129.321029 24.445035 
" clip-path="url(#p9108626607)" style="fill: none; stroke: #55a868"/>
    <path d="M 133.25199 30.346653 
L 133.25199 27.542911 
" clip-path="url(#p9108626607)" style="fill: none; stroke: #55a868"/>
    <path d="M 133.25199 30.346653 
L 133.25199 27.542911 
" clip-path="url(#p9108626607)" style="fill: none; stroke: #55a868"/>
    <path d="M 148.975837 19.6216 
L 148.975837 18.150708 
" clip-path="url(#p9108626607)" style="fill: none; stroke: #55a868"/>
    <path d="M 148.975837 19.6216 
L 148.975837 18.150708 
" clip-path="url(#p9108626607)" style="fill: none; stroke: #55a868"/>
    <path d="M 172.561606 24.541619 
L 172.561606 21.86977 
" clip-path="url(#p9108626607)" style="fill: none; stroke: #55a868"/>
    <path d="M 172.561606 24.541619 
L 172.561606 21.86977 
" clip-path="url(#p9108626607)" style="fill: none; stroke: #55a868"/>
   </g>
   <g id="line2d_24">
    <g clip-path="url(#p9108626607)">
     <use xlink:href="#mc027183f78" x="117.528144" y="76.651013" style="fill: #55a868; stroke: #55a868"/>
     <use xlink:href="#mc027183f78" x="117.528144" y="76.651013" style="fill: #55a868; stroke: #55a868"/>
     <use xlink:href="#mc027183f78" x="121.459105" y="51.177208" style="fill: #55a868; stroke: #55a868"/>
     <use xlink:href="#mc027183f78" x="121.459105" y="51.177208" style="fill: #55a868; stroke: #55a868"/>
     <use xlink:href="#mc027183f78" x="129.321029" y="36.924494" style="fill: #55a868; stroke: #55a868"/>
     <use xlink:href="#mc027183f78" x="129.321029" y="36.924494" style="fill: #55a868; stroke: #55a868"/>
     <use xlink:href="#mc027183f78" x="133.25199" y="30.346653" style="fill: #55a868; stroke: #55a868"/>
     <use xlink:href="#mc027183f78" x="133.25199" y="30.346653" style="fill: #55a868; stroke: #55a868"/>
     <use xlink:href="#mc027183f78" x="148.975837" y="19.6216" style="fill: #55a868; stroke: #55a868"/>
     <use xlink:href="#mc027183f78" x="148.975837" y="19.6216" style="fill: #55a868; stroke: #55a868"/>
     <use xlink:href="#mc027183f78" x="172.561606" y="24.541619" style="fill: #55a868; stroke: #55a868"/>
     <use xlink:href="#mc027183f78" x="172.561606" y="24.541619" style="fill: #55a868; stroke: #55a868"/>
    </g>
   </g>
   <g id="line2d_25">
    <g clip-path="url(#p9108626607)">
     <use xlink:href="#mc027183f78" x="117.528144" y="54.942833" style="fill: #55a868; stroke: #55a868"/>
     <use xlink:href="#mc027183f78" x="117.528144" y="54.942833" style="fill: #55a868; stroke: #55a868"/>
     <use xlink:href="#mc027183f78" x="121.459105" y="46.190496" style="fill: #55a868; stroke: #55a868"/>
     <use xlink:href="#mc027183f78" x="121.459105" y="46.190496" style="fill: #55a868; stroke: #55a868"/>
     <use xlink:href="#mc027183f78" x="129.321029" y="24.445035" style="fill: #55a868; stroke: #55a868"/>
     <use xlink:href="#mc027183f78" x="129.321029" y="24.445035" style="fill: #55a868; stroke: #55a868"/>
     <use xlink:href="#mc027183f78" x="133.25199" y="27.542911" style="fill: #55a868; stroke: #55a868"/>
     <use xlink:href="#mc027183f78" x="133.25199" y="27.542911" style="fill: #55a868; stroke: #55a868"/>
     <use xlink:href="#mc027183f78" x="148.975837" y="18.150708" style="fill: #55a868; stroke: #55a868"/>
     <use xlink:href="#mc027183f78" x="148.975837" y="18.150708" style="fill: #55a868; stroke: #55a868"/>
     <use xlink:href="#mc027183f78" x="172.561606" y="21.86977" style="fill: #55a868; stroke: #55a868"/>
     <use xlink:href="#mc027183f78" x="172.561606" y="21.86977" style="fill: #55a868; stroke: #55a868"/>
    </g>
   </g>
   <g id="line2d_26">
    <g clip-path="url(#p9108626607)">
     <use xlink:href="#m828be233dd" x="117.528144" y="65.796923" style="fill: #55a868; stroke: #55a868"/>
     <use xlink:href="#m828be233dd" x="117.528144" y="65.796923" style="fill: #55a868; stroke: #55a868"/>
     <use xlink:href="#m828be233dd" x="121.459105" y="48.683852" style="fill: #55a868; stroke: #55a868"/>
     <use xlink:href="#m828be233dd" x="121.459105" y="48.683852" style="fill: #55a868; stroke: #55a868"/>
     <use xlink:href="#m828be233dd" x="129.321029" y="30.684764" style="fill: #55a868; stroke: #55a868"/>
     <use xlink:href="#m828be233dd" x="129.321029" y="30.684764" style="fill: #55a868; stroke: #55a868"/>
     <use xlink:href="#m828be233dd" x="133.25199" y="28.944782" style="fill: #55a868; stroke: #55a868"/>
     <use xlink:href="#m828be233dd" x="133.25199" y="28.944782" style="fill: #55a868; stroke: #55a868"/>
     <use xlink:href="#m828be233dd" x="148.975837" y="18.886154" style="fill: #55a868; stroke: #55a868"/>
     <use xlink:href="#m828be233dd" x="148.975837" y="18.886154" style="fill: #55a868; stroke: #55a868"/>
     <use xlink:href="#m828be233dd" x="172.561606" y="23.205695" style="fill: #55a868; stroke: #55a868"/>
     <use xlink:href="#m828be233dd" x="172.561606" y="23.205695" style="fill: #55a868; stroke: #55a868"/>
    </g>
   </g>
   <g id="patch_8">
    <path d="M 114.776471 70.488 
L 114.776471 9.504 
" style="fill: none; stroke: #262626; stroke-linejoin: miter; stroke-linecap: square"/>
   </g>
   <g id="patch_9">
    <path d="M 180.423529 70.488 
L 180.423529 9.504 
" style="fill: none; stroke: #262626; stroke-linejoin: miter; stroke-linecap: square"/>
   </g>
   <g id="patch_10">
    <path d="M 114.776471 70.488 
L 180.423529 70.488 
" style="fill: none; stroke: #262626; stroke-linejoin: miter; stroke-linecap: square"/>
   </g>
   <g id="patch_11">
    <path d="M 114.776471 9.504 
L 180.423529 9.504 
" style="fill: none; stroke: #262626; stroke-linejoin: miter; stroke-linecap: square"/>
   </g>
   <g id="text_20">
    <!-- E(1,0.073) -->
    <g style="fill: #262626" transform="translate(130.631349 65.796923)scale(0.07 -0.07)">
     <defs>
      <path id="ArialMT-33" d="M 269 1209 
L 831 1284 
Q 928 806 1161 595 
Q 1394 384 1728 384 
Q 2125 384 2398 659 
Q 2672 934 2672 1341 
Q 2672 1728 2419 1979 
Q 2166 2231 1775 2231 
Q 1616 2231 1378 2169 
L 1441 2663 
Q 1497 2656 1531 2656 
Q 1891 2656 2178 2843 
Q 2466 3031 2466 3422 
Q 2466 3731 2256 3934 
Q 2047 4138 1716 4138 
Q 1388 4138 1169 3931 
Q 950 3725 888 3313 
L 325 3413 
Q 428 3978 793 4289 
Q 1159 4600 1703 4600 
Q 2078 4600 2393 4439 
Q 2709 4278 2876 4000 
Q 3044 3722 3044 3409 
Q 3044 3113 2884 2869 
Q 2725 2625 2413 2481 
Q 2819 2388 3044 2092 
Q 3269 1797 3269 1353 
Q 3269 753 2831 336 
Q 2394 -81 1725 -81 
Q 1122 -81 723 278 
Q 325 638 269 1209 
z
" transform="scale(0.015625)"/>
     </defs>
     <use xlink:href="#ArialMT-45"/>
     <use xlink:href="#ArialMT-28" x="66.699219"/>
     <use xlink:href="#ArialMT-31" x="100"/>
     <use xlink:href="#ArialMT-2c" x="155.615234"/>
     <use xlink:href="#ArialMT-30" x="183.398438"/>
     <use xlink:href="#ArialMT-2e" x="239.013672"/>
     <use xlink:href="#ArialMT-30" x="266.796875"/>
     <use xlink:href="#ArialMT-37" x="322.412109"/>
     <use xlink:href="#ArialMT-33" x="378.027344"/>
     <use xlink:href="#ArialMT-29" x="433.642578"/>
    </g>
   </g>
   <g id="text_21">
    <!-- $\gamma$(1.0,0.073) -->
    <g style="fill: #262626" transform="translate(130.631349 57.352985)scale(0.07 -0.07)">
     <use xlink:href="#DejaVuSans-Oblique-3b3" transform="translate(0 0.203125)"/>
     <use xlink:href="#ArialMT-28" transform="translate(59.179688 0.203125)"/>
     <use xlink:href="#ArialMT-31" transform="translate(92.480469 0.203125)"/>
     <use xlink:href="#ArialMT-2e" transform="translate(148.095703 0.203125)"/>
     <use xlink:href="#ArialMT-30" transform="translate(175.878906 0.203125)"/>
     <use xlink:href="#ArialMT-2c" transform="translate(231.494141 0.203125)"/>
     <use xlink:href="#ArialMT-30" transform="translate(259.277344 0.203125)"/>
     <use xlink:href="#ArialMT-2e" transform="translate(314.892578 0.203125)"/>
     <use xlink:href="#ArialMT-30" transform="translate(342.675781 0.203125)"/>
     <use xlink:href="#ArialMT-37" transform="translate(398.291016 0.203125)"/>
     <use xlink:href="#ArialMT-33" transform="translate(453.90625 0.203125)"/>
     <use xlink:href="#ArialMT-29" transform="translate(509.521484 0.203125)"/>
    </g>
   </g>
   <g id="text_22">
    <!-- Prrg4 -->
    <g style="fill: #262626" transform="translate(117.528144 23.577231)scale(0.08 -0.08)">
     <defs>
      <path id="Arial-ItalicMT-50" d="M 275 0 
L 1234 4581 
L 3147 4581 
Q 3644 4581 3892 4467 
Q 4141 4353 4303 4076 
Q 4466 3800 4466 3456 
Q 4466 3172 4350 2878 
Q 4234 2584 4057 2393 
Q 3881 2203 3700 2106 
Q 3519 2009 3313 1963 
Q 2872 1859 2422 1859 
L 1275 1859 
L 888 0 
L 275 0 
z
M 1384 2378 
L 2394 2378 
Q 2981 2378 3256 2504 
Q 3531 2631 3697 2890 
Q 3863 3150 3863 3441 
Q 3863 3666 3775 3808 
Q 3688 3950 3528 4017 
Q 3369 4084 2916 4084 
L 1741 4084 
L 1384 2378 
z
" transform="scale(0.015625)"/>
      <path id="Arial-ItalicMT-72" d="M 213 0 
L 906 3319 
L 1406 3319 
L 1266 2641 
Q 1522 3025 1767 3209 
Q 2013 3394 2269 3394 
Q 2438 3394 2684 3272 
L 2453 2747 
Q 2306 2853 2131 2853 
Q 1834 2853 1521 2522 
Q 1209 2191 1031 1331 
L 750 0 
L 213 0 
z
" transform="scale(0.015625)"/>
      <path id="Arial-ItalicMT-67" d="M 181 -300 
L 753 -353 
Q 747 -547 800 -644 
Q 853 -741 969 -794 
Q 1122 -863 1366 -863 
Q 1878 -863 2103 -597 
Q 2250 -419 2375 178 
L 2431 447 
Q 1991 0 1494 0 
Q 991 0 652 370 
Q 313 741 313 1419 
Q 313 1978 580 2447 
Q 847 2916 1215 3155 
Q 1584 3394 1975 3394 
Q 2628 3394 2981 2775 
L 3094 3319 
L 3613 3319 
L 2944 116 
Q 2834 -413 2656 -708 
Q 2478 -1003 2161 -1165 
Q 1844 -1328 1428 -1328 
Q 1028 -1328 739 -1225 
Q 450 -1122 308 -923 
Q 166 -725 166 -469 
Q 166 -391 181 -300 
z
M 888 1469 
Q 888 1128 953 956 
Q 1047 716 1220 589 
Q 1394 463 1606 463 
Q 1884 463 2159 658 
Q 2434 853 2604 1262 
Q 2775 1672 2775 2044 
Q 2775 2453 2548 2695 
Q 2322 2938 1988 2938 
Q 1781 2938 1587 2827 
Q 1394 2716 1226 2489 
Q 1059 2263 973 1947 
Q 888 1631 888 1469 
z
" transform="scale(0.015625)"/>
      <path id="Arial-ItalicMT-34" d="M 1913 0 
L 2159 1169 
L 291 1169 
L 409 1728 
L 2975 4581 
L 3438 4581 
L 2828 1669 
L 3472 1669 
L 3369 1169 
L 2725 1169 
L 2478 0 
L 1913 0 
z
M 2263 1669 
L 2663 3581 
L 956 1669 
L 2263 1669 
z
" transform="scale(0.015625)"/>
     </defs>
     <use xlink:href="#Arial-ItalicMT-50"/>
     <use xlink:href="#Arial-ItalicMT-72" x="66.699219"/>
     <use xlink:href="#Arial-ItalicMT-72" x="100"/>
     <use xlink:href="#Arial-ItalicMT-67" x="133.300781"/>
     <use xlink:href="#Arial-ItalicMT-34" x="188.916016"/>
    </g>
   </g>
  </g>
  <g id="axes_3">
   <g id="patch_12">
    <path d="M 193.552941 70.488 
L 259.2 70.488 
L 259.2 9.504 
L 193.552941 9.504 
L 193.552941 70.488 
z
" style="fill: none"/>
   </g>
   <g id="matplotlib.axis_5">
    <g id="xtick_11">
     <g id="line2d_27">
      <g>
       <use xlink:href="#m1d944e838f" x="196.304614" y="70.488" style="fill: #262626; stroke: #262626; stroke-width: 0.8"/>
      </g>
     </g>
     <g id="text_23">
      <!-- 0 -->
      <g style="fill: #262626" transform="translate(194.080239 82.21425)scale(0.08 -0.08)">
       <use xlink:href="#ArialMT-30"/>
      </g>
     </g>
    </g>
    <g id="xtick_12">
     <g id="line2d_28">
      <g>
       <use xlink:href="#m1d944e838f" x="212.028461" y="70.488" style="fill: #262626; stroke: #262626; stroke-width: 0.8"/>
      </g>
     </g>
     <g id="text_24">
      <!-- 24 -->
      <g style="fill: #262626" transform="translate(207.579711 82.21425)scale(0.08 -0.08)">
       <use xlink:href="#ArialMT-32"/>
       <use xlink:href="#ArialMT-34" x="55.615234"/>
      </g>
     </g>
    </g>
    <g id="xtick_13">
     <g id="line2d_29">
      <g>
       <use xlink:href="#m1d944e838f" x="227.752307" y="70.488" style="fill: #262626; stroke: #262626; stroke-width: 0.8"/>
      </g>
     </g>
     <g id="text_25">
      <!-- 48 -->
      <g style="fill: #262626" transform="translate(223.303557 82.21425)scale(0.08 -0.08)">
       <use xlink:href="#ArialMT-34"/>
       <use xlink:href="#ArialMT-38" x="55.615234"/>
      </g>
     </g>
    </g>
    <g id="xtick_14">
     <g id="line2d_30">
      <g>
       <use xlink:href="#m1d944e838f" x="243.476154" y="70.488" style="fill: #262626; stroke: #262626; stroke-width: 0.8"/>
      </g>
     </g>
     <g id="text_26">
      <!-- 72 -->
      <g style="fill: #262626" transform="translate(239.027404 82.21425)scale(0.08 -0.08)">
       <use xlink:href="#ArialMT-37"/>
       <use xlink:href="#ArialMT-32" x="55.615234"/>
      </g>
     </g>
    </g>
    <g id="xtick_15">
     <g id="line2d_31">
      <g>
       <use xlink:href="#m1d944e838f" x="259.2" y="70.488" style="fill: #262626; stroke: #262626; stroke-width: 0.8"/>
      </g>
     </g>
     <g id="text_27">
      <!-- 96 -->
      <g style="fill: #262626" transform="translate(254.75125 82.21425)scale(0.08 -0.08)">
       <use xlink:href="#ArialMT-39"/>
       <use xlink:href="#ArialMT-36" x="55.615234"/>
      </g>
     </g>
    </g>
    <g id="text_28">
     <!-- time (h) -->
     <g style="fill: #262626" transform="translate(211.126392 94.355969)scale(0.09 -0.09)">
      <use xlink:href="#ArialMT-74"/>
      <use xlink:href="#ArialMT-69" x="27.783203"/>
      <use xlink:href="#ArialMT-6d" x="50"/>
      <use xlink:href="#ArialMT-65" x="133.300781"/>
      <use xlink:href="#ArialMT-20" x="188.916016"/>
      <use xlink:href="#ArialMT-28" x="216.699219"/>
      <use xlink:href="#ArialMT-68" x="250"/>
      <use xlink:href="#ArialMT-29" x="305.615234"/>
     </g>
    </g>
   </g>
   <g id="matplotlib.axis_6">
    <g id="ytick_7">
     <g id="line2d_32">
      <g>
       <use xlink:href="#meabfa1e445" x="193.552941" y="65.796923" style="fill: #262626; stroke: #262626; stroke-width: 0.8"/>
      </g>
     </g>
    </g>
    <g id="ytick_8">
     <g id="line2d_33">
      <g>
       <use xlink:href="#meabfa1e445" x="193.552941" y="42.341538" style="fill: #262626; stroke: #262626; stroke-width: 0.8"/>
      </g>
     </g>
    </g>
    <g id="ytick_9">
     <g id="line2d_34">
      <g>
       <use xlink:href="#meabfa1e445" x="193.552941" y="18.886154" style="fill: #262626; stroke: #262626; stroke-width: 0.8"/>
      </g>
     </g>
    </g>
   </g>
   <g id="line2d_35">
    <path d="M 196.304614 65.796923 
L 196.860508 64.539913 
L 197.416401 63.316586 
L 197.972295 62.126039 
L 198.528189 60.967393 
L 199.084082 59.839794 
L 199.639976 58.74241 
L 200.195869 57.674431 
L 200.751763 56.63507 
L 201.307656 55.623559 
L 201.86355 54.639152 
L 202.419443 53.681123 
L 202.975337 52.748765 
L 203.531231 51.841391 
L 204.087124 50.95833 
L 204.643018 50.098931 
L 205.198911 49.262561 
L 205.754805 48.448602 
L 206.310698 47.656454 
L 206.866592 46.885532 
L 207.422486 46.135267 
L 207.978379 45.405106 
L 208.534273 44.694511 
L 209.090166 44.002956 
L 209.64606 43.329932 
L 210.201953 42.674942 
L 210.757847 42.037504 
L 211.31374 41.417146 
L 211.869634 40.813411 
L 212.425528 40.225853 
L 212.981421 39.654039 
L 213.537315 39.097548 
L 214.093208 38.555968 
L 214.649102 38.028901 
L 215.204995 37.515956 
L 215.760889 37.016756 
L 216.316782 36.530933 
L 216.872676 36.058128 
L 217.42857 35.597992 
L 217.984463 35.150185 
L 218.540357 34.714378 
L 219.09625 34.290249 
L 219.652144 33.877484 
L 220.208037 33.47578 
L 220.763931 33.08484 
L 221.319825 32.704375 
L 221.875718 32.334105 
L 222.431612 31.973757 
L 222.987505 31.623065 
L 223.543399 31.28177 
L 224.099292 30.94962 
L 224.655186 30.62637 
L 225.211079 30.311782 
L 225.766973 30.005623 
L 226.322867 29.707669 
L 226.87876 29.417698 
L 227.434654 29.135497 
L 227.990547 28.860858 
L 228.546441 28.593579 
L 229.102334 28.333461 
L 229.658228 28.080313 
L 230.214121 27.833948 
L 230.770015 27.594185 
L 231.325909 27.360847 
L 231.881802 27.133761 
L 232.437696 26.91276 
L 232.993589 26.697681 
L 233.549483 26.488365 
L 234.105376 26.284658 
L 234.66127 26.08641 
L 235.217164 25.893473 
L 235.773057 25.705707 
L 236.328951 25.522972 
L 236.884844 25.345133 
L 237.440738 25.17206 
L 237.996631 25.003624 
L 238.552525 24.839702 
L 239.108418 24.680172 
L 239.664312 24.524917 
L 240.220206 24.373822 
L 240.776099 24.226776 
L 241.331993 24.08367 
L 241.887886 23.944398 
L 242.44378 23.808859 
L 242.999673 23.676951 
L 243.555567 23.548578 
L 244.111461 23.423645 
L 244.667354 23.302059 
L 245.223248 23.183732 
L 245.779141 23.068575 
L 246.335035 22.956504 
L 246.890928 22.847436 
L 247.446822 22.74129 
L 248.002715 22.637989 
L 248.558609 22.537455 
L 249.114503 22.439616 
L 249.670396 22.344398 
L 250.22629 22.251732 
L 250.782183 22.161549 
L 251.338077 22.073782 
" clip-path="url(#p257081f104)" style="fill: none; stroke: #000000; stroke-width: 3.5; stroke-linecap: round"/>
   </g>
   <g id="line2d_36">
    <path d="M 196.304614 65.796923 
L 196.860508 64.539913 
L 197.416401 63.316586 
L 197.972295 62.126039 
L 198.528189 60.967393 
L 199.084082 59.839794 
L 199.639976 58.74241 
L 200.195869 57.674431 
L 200.751763 56.63507 
L 201.307656 55.623559 
L 201.86355 54.639152 
L 202.419443 53.681123 
L 202.975337 52.748765 
L 203.531231 51.841391 
L 204.087124 50.95833 
L 204.643018 50.098931 
L 205.198911 49.262561 
L 205.754805 48.448602 
L 206.310698 47.656454 
L 206.866592 46.885532 
L 207.422486 46.135267 
L 207.978379 45.405106 
L 208.534273 44.694511 
L 209.090166 44.002956 
L 209.64606 43.329932 
L 210.201953 42.674942 
L 210.757847 42.037504 
L 211.31374 41.417146 
L 211.869634 40.813411 
L 212.425528 40.225853 
L 212.981421 39.654039 
L 213.537315 39.097548 
L 214.093208 38.555968 
L 214.649102 38.028901 
L 215.204995 37.515956 
L 215.760889 37.016756 
L 216.316782 36.530933 
L 216.872676 36.058128 
L 217.42857 35.597992 
L 217.984463 35.150185 
L 218.540357 34.714378 
L 219.09625 34.290249 
L 219.652144 33.877484 
L 220.208037 33.47578 
L 220.763931 33.08484 
L 221.319825 32.704375 
L 221.875718 32.334105 
L 222.431612 31.973757 
L 222.987505 31.623065 
L 223.543399 31.28177 
L 224.099292 30.94962 
L 224.655186 30.62637 
L 225.211079 30.311782 
L 225.766973 30.005623 
L 226.322867 29.707669 
L 226.87876 29.417698 
L 227.434654 29.135497 
L 227.990547 28.860858 
L 228.546441 28.593579 
L 229.102334 28.333461 
L 229.658228 28.080313 
L 230.214121 27.833948 
L 230.770015 27.594185 
L 231.325909 27.360847 
L 231.881802 27.133761 
L 232.437696 26.91276 
L 232.993589 26.697681 
L 233.549483 26.488365 
L 234.105376 26.284658 
L 234.66127 26.08641 
L 235.217164 25.893473 
L 235.773057 25.705707 
L 236.328951 25.522972 
L 236.884844 25.345133 
L 237.440738 25.17206 
L 237.996631 25.003624 
L 238.552525 24.839702 
L 239.108418 24.680172 
L 239.664312 24.524917 
L 240.220206 24.373822 
L 240.776099 24.226776 
L 241.331993 24.08367 
L 241.887886 23.944398 
L 242.44378 23.808859 
L 242.999673 23.676951 
L 243.555567 23.548578 
L 244.111461 23.423645 
L 244.667354 23.302059 
L 245.223248 23.183732 
L 245.779141 23.068575 
L 246.335035 22.956504 
L 246.890928 22.847436 
L 247.446822 22.74129 
L 248.002715 22.637989 
L 248.558609 22.537455 
L 249.114503 22.439616 
L 249.670396 22.344398 
L 250.22629 22.251732 
L 250.782183 22.161549 
L 251.338077 22.073782 
" clip-path="url(#p257081f104)" style="fill: none; stroke-dasharray: 4.44,1.92; stroke-dashoffset: 0; stroke: #d3d3d3; stroke-width: 1.2"/>
   </g>
   <g id="LineCollection_3">
    <path d="M 196.304614 70.622474 
L 196.304614 60.971373 
" clip-path="url(#p257081f104)" style="fill: none; stroke: #55a868"/>
    <path d="M 196.304614 70.622474 
L 196.304614 60.971373 
" clip-path="url(#p257081f104)" style="fill: none; stroke: #55a868"/>
    <path d="M 200.235576 58.187655 
L 200.235576 52.569238 
" clip-path="url(#p257081f104)" style="fill: none; stroke: #55a868"/>
    <path d="M 200.235576 58.187655 
L 200.235576 52.569238 
" clip-path="url(#p257081f104)" style="fill: none; stroke: #55a868"/>
    <path d="M 208.097499 53.292608 
L 208.097499 38.583171 
" clip-path="url(#p257081f104)" style="fill: none; stroke: #55a868"/>
    <path d="M 208.097499 53.292608 
L 208.097499 38.583171 
" clip-path="url(#p257081f104)" style="fill: none; stroke: #55a868"/>
    <path d="M 212.028461 41.86067 
L 212.028461 38.473939 
" clip-path="url(#p257081f104)" style="fill: none; stroke: #55a868"/>
    <path d="M 212.028461 41.86067 
L 212.028461 38.473939 
" clip-path="url(#p257081f104)" style="fill: none; stroke: #55a868"/>
    <path d="M 227.752307 32.911429 
L 227.752307 29.227892 
" clip-path="url(#p257081f104)" style="fill: none; stroke: #55a868"/>
    <path d="M 227.752307 32.911429 
L 227.752307 29.227892 
" clip-path="url(#p257081f104)" style="fill: none; stroke: #55a868"/>
    <path d="M 251.338077 21.251107 
L 251.338077 16.521201 
" clip-path="url(#p257081f104)" style="fill: none; stroke: #55a868"/>
    <path d="M 251.338077 21.251107 
L 251.338077 16.521201 
" clip-path="url(#p257081f104)" style="fill: none; stroke: #55a868"/>
   </g>
   <g id="line2d_37">
    <g clip-path="url(#p257081f104)">
     <use xlink:href="#mc027183f78" x="196.304614" y="70.622474" style="fill: #55a868; stroke: #55a868"/>
     <use xlink:href="#mc027183f78" x="196.304614" y="70.622474" style="fill: #55a868; stroke: #55a868"/>
     <use xlink:href="#mc027183f78" x="200.235576" y="58.187655" style="fill: #55a868; stroke: #55a868"/>
     <use xlink:href="#mc027183f78" x="200.235576" y="58.187655" style="fill: #55a868; stroke: #55a868"/>
     <use xlink:href="#mc027183f78" x="208.097499" y="53.292608" style="fill: #55a868; stroke: #55a868"/>
     <use xlink:href="#mc027183f78" x="208.097499" y="53.292608" style="fill: #55a868; stroke: #55a868"/>
     <use xlink:href="#mc027183f78" x="212.028461" y="41.86067" style="fill: #55a868; stroke: #55a868"/>
     <use xlink:href="#mc027183f78" x="212.028461" y="41.86067" style="fill: #55a868; stroke: #55a868"/>
     <use xlink:href="#mc027183f78" x="227.752307" y="32.911429" style="fill: #55a868; stroke: #55a868"/>
     <use xlink:href="#mc027183f78" x="227.752307" y="32.911429" style="fill: #55a868; stroke: #55a868"/>
     <use xlink:href="#mc027183f78" x="251.338077" y="21.251107" style="fill: #55a868; stroke: #55a868"/>
     <use xlink:href="#mc027183f78" x="251.338077" y="21.251107" style="fill: #55a868; stroke: #55a868"/>
    </g>
   </g>
   <g id="line2d_38">
    <g clip-path="url(#p257081f104)">
     <use xlink:href="#mc027183f78" x="196.304614" y="60.971373" style="fill: #55a868; stroke: #55a868"/>
     <use xlink:href="#mc027183f78" x="196.304614" y="60.971373" style="fill: #55a868; stroke: #55a868"/>
     <use xlink:href="#mc027183f78" x="200.235576" y="52.569238" style="fill: #55a868; stroke: #55a868"/>
     <use xlink:href="#mc027183f78" x="200.235576" y="52.569238" style="fill: #55a868; stroke: #55a868"/>
     <use xlink:href="#mc027183f78" x="208.097499" y="38.583171" style="fill: #55a868; stroke: #55a868"/>
     <use xlink:href="#mc027183f78" x="208.097499" y="38.583171" style="fill: #55a868; stroke: #55a868"/>
     <use xlink:href="#mc027183f78" x="212.028461" y="38.473939" style="fill: #55a868; stroke: #55a868"/>
     <use xlink:href="#mc027183f78" x="212.028461" y="38.473939" style="fill: #55a868; stroke: #55a868"/>
     <use xlink:href="#mc027183f78" x="227.752307" y="29.227892" style="fill: #55a868; stroke: #55a868"/>
     <use xlink:href="#mc027183f78" x="227.752307" y="29.227892" style="fill: #55a868; stroke: #55a868"/>
     <use xlink:href="#mc027183f78" x="251.338077" y="16.521201" style="fill: #55a868; stroke: #55a868"/>
     <use xlink:href="#mc027183f78" x="251.338077" y="16.521201" style="fill: #55a868; stroke: #55a868"/>
    </g>
   </g>
   <g id="line2d_39">
    <g clip-path="url(#p257081f104)">
     <use xlink:href="#m828be233dd" x="196.304614" y="65.796923" style="fill: #55a868; stroke: #55a868"/>
     <use xlink:href="#m828be233dd" x="196.304614" y="65.796923" style="fill: #55a868; stroke: #55a868"/>
     <use xlink:href="#m828be233dd" x="200.235576" y="55.378446" style="fill: #55a868; stroke: #55a868"/>
     <use xlink:href="#m828be233dd" x="200.235576" y="55.378446" style="fill: #55a868; stroke: #55a868"/>
     <use xlink:href="#m828be233dd" x="208.097499" y="45.93789" style="fill: #55a868; stroke: #55a868"/>
     <use xlink:href="#m828be233dd" x="208.097499" y="45.93789" style="fill: #55a868; stroke: #55a868"/>
     <use xlink:href="#m828be233dd" x="212.028461" y="40.167305" style="fill: #55a868; stroke: #55a868"/>
     <use xlink:href="#m828be233dd" x="212.028461" y="40.167305" style="fill: #55a868; stroke: #55a868"/>
     <use xlink:href="#m828be233dd" x="227.752307" y="31.06966" style="fill: #55a868; stroke: #55a868"/>
     <use xlink:href="#m828be233dd" x="227.752307" y="31.06966" style="fill: #55a868; stroke: #55a868"/>
     <use xlink:href="#m828be233dd" x="251.338077" y="18.886154" style="fill: #55a868; stroke: #55a868"/>
     <use xlink:href="#m828be233dd" x="251.338077" y="18.886154" style="fill: #55a868; stroke: #55a868"/>
    </g>
   </g>
   <g id="patch_13">
    <path d="M 193.552941 70.488 
L 193.552941 9.504 
" style="fill: none; stroke: #262626; stroke-linejoin: miter; stroke-linecap: square"/>
   </g>
   <g id="patch_14">
    <path d="M 259.2 70.488 
L 259.2 9.504 
" style="fill: none; stroke: #262626; stroke-linejoin: miter; stroke-linecap: square"/>
   </g>
   <g id="patch_15">
    <path d="M 193.552941 70.488 
L 259.2 70.488 
" style="fill: none; stroke: #262626; stroke-linejoin: miter; stroke-linecap: square"/>
   </g>
   <g id="patch_16">
    <path d="M 193.552941 9.504 
L 259.2 9.504 
" style="fill: none; stroke: #262626; stroke-linejoin: miter; stroke-linecap: square"/>
   </g>
   <g id="text_29">
    <!-- E(1,0.032) -->
    <g style="fill: #262626" transform="translate(209.40782 65.796923)scale(0.07 -0.07)">
     <use xlink:href="#ArialMT-45"/>
     <use xlink:href="#ArialMT-28" x="66.699219"/>
     <use xlink:href="#ArialMT-31" x="100"/>
     <use xlink:href="#ArialMT-2c" x="155.615234"/>
     <use xlink:href="#ArialMT-30" x="183.398438"/>
     <use xlink:href="#ArialMT-2e" x="239.013672"/>
     <use xlink:href="#ArialMT-30" x="266.796875"/>
     <use xlink:href="#ArialMT-33" x="322.412109"/>
     <use xlink:href="#ArialMT-32" x="378.027344"/>
     <use xlink:href="#ArialMT-29" x="433.642578"/>
    </g>
   </g>
   <g id="text_30">
    <!-- $\gamma$(1.0,0.032) -->
    <g style="fill: #262626" transform="translate(209.40782 57.352985)scale(0.07 -0.07)">
     <use xlink:href="#DejaVuSans-Oblique-3b3" transform="translate(0 0.203125)"/>
     <use xlink:href="#ArialMT-28" transform="translate(59.179688 0.203125)"/>
     <use xlink:href="#ArialMT-31" transform="translate(92.480469 0.203125)"/>
     <use xlink:href="#ArialMT-2e" transform="translate(148.095703 0.203125)"/>
     <use xlink:href="#ArialMT-30" transform="translate(175.878906 0.203125)"/>
     <use xlink:href="#ArialMT-2c" transform="translate(231.494141 0.203125)"/>
     <use xlink:href="#ArialMT-30" transform="translate(259.277344 0.203125)"/>
     <use xlink:href="#ArialMT-2e" transform="translate(314.892578 0.203125)"/>
     <use xlink:href="#ArialMT-30" transform="translate(342.675781 0.203125)"/>
     <use xlink:href="#ArialMT-33" transform="translate(398.291016 0.203125)"/>
     <use xlink:href="#ArialMT-32" transform="translate(453.90625 0.203125)"/>
     <use xlink:href="#ArialMT-29" transform="translate(509.521484 0.203125)"/>
    </g>
   </g>
   <g id="text_31">
    <!-- Tasl -->
    <g style="fill: #262626" transform="translate(196.304614 23.577231)scale(0.08 -0.08)">
     <defs>
      <path id="Arial-ItalicMT-54" d="M 1453 0 
L 2300 4059 
L 797 4059 
L 906 4581 
L 4513 4581 
L 4403 4059 
L 2913 4059 
L 2066 0 
L 1453 0 
z
" transform="scale(0.015625)"/>
      <path id="Arial-ItalicMT-73" d="M 266 1134 
L 831 1169 
Q 831 925 906 753 
Q 981 581 1182 472 
Q 1384 363 1653 363 
Q 2028 363 2215 513 
Q 2403 663 2403 866 
Q 2403 1013 2291 1144 
Q 2175 1275 1726 1467 
Q 1278 1659 1153 1738 
Q 944 1866 837 2039 
Q 731 2213 731 2438 
Q 731 2831 1043 3112 
Q 1356 3394 1919 3394 
Q 2544 3394 2870 3105 
Q 3197 2816 3209 2344 
L 2656 2306 
Q 2644 2606 2444 2781 
Q 2244 2956 1878 2956 
Q 1584 2956 1421 2822 
Q 1259 2688 1259 2531 
Q 1259 2375 1400 2256 
Q 1494 2175 1884 2006 
Q 2534 1725 2703 1563 
Q 2972 1303 2972 931 
Q 2972 684 2820 446 
Q 2669 209 2358 67 
Q 2047 -75 1625 -75 
Q 1050 -75 647 209 
Q 244 494 266 1134 
z
" transform="scale(0.015625)"/>
      <path id="Arial-ItalicMT-6c" d="M 169 0 
L 1125 4581 
L 1691 4581 
L 734 0 
L 169 0 
z
" transform="scale(0.015625)"/>
     </defs>
     <use xlink:href="#Arial-ItalicMT-54"/>
     <use xlink:href="#Arial-ItalicMT-61" x="51.958984"/>
     <use xlink:href="#Arial-ItalicMT-73" x="107.574219"/>
     <use xlink:href="#Arial-ItalicMT-6c" x="157.574219"/>
    </g>
   </g>
  </g>
 </g>
 <defs>
  <clipPath id="pa3f79385e8">
   <rect x="36" y="9.504" width="65.647059" height="60.984"/>
  </clipPath>
  <clipPath id="p9108626607">
   <rect x="114.776471" y="9.504" width="65.647059" height="60.984"/>
  </clipPath>
  <clipPath id="p257081f104">
   <rect x="193.552941" y="9.504" width="65.647059" height="60.984"/>
  </clipPath>
 </defs>
</svg>
