<?xml version="1.0" encoding="utf-8" standalone="no"?>
<!DOCTYPE svg PUBLIC "-//W3C//DTD SVG 1.1//EN"
  "http://www.w3.org/Graphics/SVG/1.1/DTD/svg11.dtd">
<svg xmlns:xlink="http://www.w3.org/1999/xlink" width="288pt" height="79.2pt" viewBox="0 0 288 79.2" xmlns="http://www.w3.org/2000/svg" version="1.1">
 <metadata>
  <rdf:RDF xmlns:dc="http://purl.org/dc/elements/1.1/" xmlns:cc="http://creativecommons.org/ns#" xmlns:rdf="http://www.w3.org/1999/02/22-rdf-syntax-ns#">
   <cc:Work>
    <dc:type rdf:resource="http://purl.org/dc/dcmitype/StillImage"/>
    <dc:date>2022-12-23T15:37:15.734929</dc:date>
    <dc:format>image/svg+xml</dc:format>
    <dc:creator>
     <cc:Agent>
      <dc:title>Matplotlib v3.5.1, https://matplotlib.org/</dc:title>
     </cc:Agent>
    </dc:creator>
   </cc:Work>
  </rdf:RDF>
 </metadata>
 <defs>
  <style type="text/css">*{stroke-linejoin: round; stroke-linecap: butt}</style>
 </defs>
 <g id="figure_1">
  <g id="patch_1">
   <path d="M 0 79.2 
L 288 79.2 
L 288 0 
L 0 0 
L 0 79.2 
z
" style="fill: none"/>
  </g>
  <g id="axes_1">
   <g id="patch_2">
    <path d="M 36 70.488 
L 101.647059 70.488 
L 101.647059 9.504 
L 36 9.504 
L 36 70.488 
z
" style="fill: none"/>
   </g>
   <g id="matplotlib.axis_1">
    <g id="xtick_1">
     <g id="line2d_1">
      <defs>
       <path id="m7b4b5a7e0a" d="M 0 0 
L 0 4 
" style="stroke: #262626; stroke-width: 0.8"/>
      </defs>
      <g>
       <use xlink:href="#m7b4b5a7e0a" x="38.751673" y="70.488" style="fill: #262626; stroke: #262626; stroke-width: 0.8"/>
      </g>
     </g>
     <g id="text_1">
      <!-- 0 -->
      <g style="fill: #262626" transform="translate(36.527298 82.21425)scale(0.08 -0.08)">
       <defs>
        <path id="ArialMT-30" d="M 266 2259 
Q 266 3072 433 3567 
Q 600 4063 929 4331 
Q 1259 4600 1759 4600 
Q 2128 4600 2406 4451 
Q 2684 4303 2865 4023 
Q 3047 3744 3150 3342 
Q 3253 2941 3253 2259 
Q 3253 1453 3087 958 
Q 2922 463 2592 192 
Q 2263 -78 1759 -78 
Q 1097 -78 719 397 
Q 266 969 266 2259 
z
M 844 2259 
Q 844 1131 1108 757 
Q 1372 384 1759 384 
Q 2147 384 2411 759 
Q 2675 1134 2675 2259 
Q 2675 3391 2411 3762 
Q 2147 4134 1753 4134 
Q 1366 4134 1134 3806 
Q 844 3388 844 2259 
z
" transform="scale(0.015625)"/>
       </defs>
       <use xlink:href="#ArialMT-30"/>
      </g>
     </g>
    </g>
    <g id="xtick_2">
     <g id="line2d_2">
      <g>
       <use xlink:href="#m7b4b5a7e0a" x="54.47552" y="70.488" style="fill: #262626; stroke: #262626; stroke-width: 0.8"/>
      </g>
     </g>
     <g id="text_2">
      <!-- 24 -->
      <g style="fill: #262626" transform="translate(50.02677 82.21425)scale(0.08 -0.08)">
       <defs>
        <path id="ArialMT-32" d="M 3222 541 
L 3222 0 
L 194 0 
Q 188 203 259 391 
Q 375 700 629 1000 
Q 884 1300 1366 1694 
Q 2113 2306 2375 2664 
Q 2638 3022 2638 3341 
Q 2638 3675 2398 3904 
Q 2159 4134 1775 4134 
Q 1369 4134 1125 3890 
Q 881 3647 878 3216 
L 300 3275 
Q 359 3922 746 4261 
Q 1134 4600 1788 4600 
Q 2447 4600 2831 4234 
Q 3216 3869 3216 3328 
Q 3216 3053 3103 2787 
Q 2991 2522 2730 2228 
Q 2469 1934 1863 1422 
Q 1356 997 1212 845 
Q 1069 694 975 541 
L 3222 541 
z
" transform="scale(0.015625)"/>
        <path id="ArialMT-34" d="M 2069 0 
L 2069 1097 
L 81 1097 
L 81 1613 
L 2172 4581 
L 2631 4581 
L 2631 1613 
L 3250 1613 
L 3250 1097 
L 2631 1097 
L 2631 0 
L 2069 0 
z
M 2069 1613 
L 2069 3678 
L 634 1613 
L 2069 1613 
z
" transform="scale(0.015625)"/>
       </defs>
       <use xlink:href="#ArialMT-32"/>
       <use xlink:href="#ArialMT-34" x="55.615234"/>
      </g>
     </g>
    </g>
    <g id="xtick_3">
     <g id="line2d_3">
      <g>
       <use xlink:href="#m7b4b5a7e0a" x="70.199366" y="70.488" style="fill: #262626; stroke: #262626; stroke-width: 0.8"/>
      </g>
     </g>
     <g id="text_3">
      <!-- 48 -->
      <g style="fill: #262626" transform="translate(65.750616 82.21425)scale(0.08 -0.08)">
       <defs>
        <path id="ArialMT-38" d="M 1131 2484 
Q 781 2613 612 2850 
Q 444 3088 444 3419 
Q 444 3919 803 4259 
Q 1163 4600 1759 4600 
Q 2359 4600 2725 4251 
Q 3091 3903 3091 3403 
Q 3091 3084 2923 2848 
Q 2756 2613 2416 2484 
Q 2838 2347 3058 2040 
Q 3278 1734 3278 1309 
Q 3278 722 2862 322 
Q 2447 -78 1769 -78 
Q 1091 -78 675 323 
Q 259 725 259 1325 
Q 259 1772 486 2073 
Q 713 2375 1131 2484 
z
M 1019 3438 
Q 1019 3113 1228 2906 
Q 1438 2700 1772 2700 
Q 2097 2700 2305 2904 
Q 2513 3109 2513 3406 
Q 2513 3716 2298 3927 
Q 2084 4138 1766 4138 
Q 1444 4138 1231 3931 
Q 1019 3725 1019 3438 
z
M 838 1322 
Q 838 1081 952 856 
Q 1066 631 1291 507 
Q 1516 384 1775 384 
Q 2178 384 2440 643 
Q 2703 903 2703 1303 
Q 2703 1709 2433 1975 
Q 2163 2241 1756 2241 
Q 1359 2241 1098 1978 
Q 838 1716 838 1322 
z
" transform="scale(0.015625)"/>
       </defs>
       <use xlink:href="#ArialMT-34"/>
       <use xlink:href="#ArialMT-38" x="55.615234"/>
      </g>
     </g>
    </g>
    <g id="xtick_4">
     <g id="line2d_4">
      <g>
       <use xlink:href="#m7b4b5a7e0a" x="85.923212" y="70.488" style="fill: #262626; stroke: #262626; stroke-width: 0.8"/>
      </g>
     </g>
     <g id="text_4">
      <!-- 72 -->
      <g style="fill: #262626" transform="translate(81.474462 82.21425)scale(0.08 -0.08)">
       <defs>
        <path id="ArialMT-37" d="M 303 3981 
L 303 4522 
L 3269 4522 
L 3269 4084 
Q 2831 3619 2401 2847 
Q 1972 2075 1738 1259 
Q 1569 684 1522 0 
L 944 0 
Q 953 541 1156 1306 
Q 1359 2072 1739 2783 
Q 2119 3494 2547 3981 
L 303 3981 
z
" transform="scale(0.015625)"/>
       </defs>
       <use xlink:href="#ArialMT-37"/>
       <use xlink:href="#ArialMT-32" x="55.615234"/>
      </g>
     </g>
    </g>
    <g id="xtick_5">
     <g id="line2d_5">
      <g>
       <use xlink:href="#m7b4b5a7e0a" x="101.647059" y="70.488" style="fill: #262626; stroke: #262626; stroke-width: 0.8"/>
      </g>
     </g>
     <g id="text_5">
      <!-- 96 -->
      <g style="fill: #262626" transform="translate(97.198309 82.21425)scale(0.08 -0.08)">
       <defs>
        <path id="ArialMT-39" d="M 350 1059 
L 891 1109 
Q 959 728 1153 556 
Q 1347 384 1650 384 
Q 1909 384 2104 503 
Q 2300 622 2425 820 
Q 2550 1019 2634 1356 
Q 2719 1694 2719 2044 
Q 2719 2081 2716 2156 
Q 2547 1888 2255 1720 
Q 1963 1553 1622 1553 
Q 1053 1553 659 1965 
Q 266 2378 266 3053 
Q 266 3750 677 4175 
Q 1088 4600 1706 4600 
Q 2153 4600 2523 4359 
Q 2894 4119 3086 3673 
Q 3278 3228 3278 2384 
Q 3278 1506 3087 986 
Q 2897 466 2520 194 
Q 2144 -78 1638 -78 
Q 1100 -78 759 220 
Q 419 519 350 1059 
z
M 2653 3081 
Q 2653 3566 2395 3850 
Q 2138 4134 1775 4134 
Q 1400 4134 1122 3828 
Q 844 3522 844 3034 
Q 844 2597 1108 2323 
Q 1372 2050 1759 2050 
Q 2150 2050 2401 2323 
Q 2653 2597 2653 3081 
z
" transform="scale(0.015625)"/>
        <path id="ArialMT-36" d="M 3184 3459 
L 2625 3416 
Q 2550 3747 2413 3897 
Q 2184 4138 1850 4138 
Q 1581 4138 1378 3988 
Q 1113 3794 959 3422 
Q 806 3050 800 2363 
Q 1003 2672 1297 2822 
Q 1591 2972 1913 2972 
Q 2475 2972 2870 2558 
Q 3266 2144 3266 1488 
Q 3266 1056 3080 686 
Q 2894 316 2569 119 
Q 2244 -78 1831 -78 
Q 1128 -78 684 439 
Q 241 956 241 2144 
Q 241 3472 731 4075 
Q 1159 4600 1884 4600 
Q 2425 4600 2770 4297 
Q 3116 3994 3184 3459 
z
M 888 1484 
Q 888 1194 1011 928 
Q 1134 663 1356 523 
Q 1578 384 1822 384 
Q 2178 384 2434 671 
Q 2691 959 2691 1453 
Q 2691 1928 2437 2201 
Q 2184 2475 1800 2475 
Q 1419 2475 1153 2201 
Q 888 1928 888 1484 
z
" transform="scale(0.015625)"/>
       </defs>
       <use xlink:href="#ArialMT-39"/>
       <use xlink:href="#ArialMT-36" x="55.615234"/>
      </g>
     </g>
    </g>
    <g id="text_6">
     <!-- time (h) -->
     <g style="fill: #262626" transform="translate(53.573451 94.355969)scale(0.09 -0.09)">
      <defs>
       <path id="ArialMT-74" d="M 1650 503 
L 1731 6 
Q 1494 -44 1306 -44 
Q 1000 -44 831 53 
Q 663 150 594 308 
Q 525 466 525 972 
L 525 2881 
L 113 2881 
L 113 3319 
L 525 3319 
L 525 4141 
L 1084 4478 
L 1084 3319 
L 1650 3319 
L 1650 2881 
L 1084 2881 
L 1084 941 
Q 1084 700 1114 631 
Q 1144 563 1211 522 
Q 1278 481 1403 481 
Q 1497 481 1650 503 
z
" transform="scale(0.015625)"/>
       <path id="ArialMT-69" d="M 425 3934 
L 425 4581 
L 988 4581 
L 988 3934 
L 425 3934 
z
M 425 0 
L 425 3319 
L 988 3319 
L 988 0 
L 425 0 
z
" transform="scale(0.015625)"/>
       <path id="ArialMT-6d" d="M 422 0 
L 422 3319 
L 925 3319 
L 925 2853 
Q 1081 3097 1340 3245 
Q 1600 3394 1931 3394 
Q 2300 3394 2536 3241 
Q 2772 3088 2869 2813 
Q 3263 3394 3894 3394 
Q 4388 3394 4653 3120 
Q 4919 2847 4919 2278 
L 4919 0 
L 4359 0 
L 4359 2091 
Q 4359 2428 4304 2576 
Q 4250 2725 4106 2815 
Q 3963 2906 3769 2906 
Q 3419 2906 3187 2673 
Q 2956 2441 2956 1928 
L 2956 0 
L 2394 0 
L 2394 2156 
Q 2394 2531 2256 2718 
Q 2119 2906 1806 2906 
Q 1569 2906 1367 2781 
Q 1166 2656 1075 2415 
Q 984 2175 984 1722 
L 984 0 
L 422 0 
z
" transform="scale(0.015625)"/>
       <path id="ArialMT-65" d="M 2694 1069 
L 3275 997 
Q 3138 488 2766 206 
Q 2394 -75 1816 -75 
Q 1088 -75 661 373 
Q 234 822 234 1631 
Q 234 2469 665 2931 
Q 1097 3394 1784 3394 
Q 2450 3394 2872 2941 
Q 3294 2488 3294 1666 
Q 3294 1616 3291 1516 
L 816 1516 
Q 847 969 1125 678 
Q 1403 388 1819 388 
Q 2128 388 2347 550 
Q 2566 713 2694 1069 
z
M 847 1978 
L 2700 1978 
Q 2663 2397 2488 2606 
Q 2219 2931 1791 2931 
Q 1403 2931 1139 2672 
Q 875 2413 847 1978 
z
" transform="scale(0.015625)"/>
       <path id="ArialMT-20" transform="scale(0.015625)"/>
       <path id="ArialMT-28" d="M 1497 -1347 
Q 1031 -759 709 28 
Q 388 816 388 1659 
Q 388 2403 628 3084 
Q 909 3875 1497 4659 
L 1900 4659 
Q 1522 4009 1400 3731 
Q 1209 3300 1100 2831 
Q 966 2247 966 1656 
Q 966 153 1900 -1347 
L 1497 -1347 
z
" transform="scale(0.015625)"/>
       <path id="ArialMT-68" d="M 422 0 
L 422 4581 
L 984 4581 
L 984 2938 
Q 1378 3394 1978 3394 
Q 2347 3394 2619 3248 
Q 2891 3103 3008 2847 
Q 3125 2591 3125 2103 
L 3125 0 
L 2563 0 
L 2563 2103 
Q 2563 2525 2380 2717 
Q 2197 2909 1863 2909 
Q 1613 2909 1392 2779 
Q 1172 2650 1078 2428 
Q 984 2206 984 1816 
L 984 0 
L 422 0 
z
" transform="scale(0.015625)"/>
       <path id="ArialMT-29" d="M 791 -1347 
L 388 -1347 
Q 1322 153 1322 1656 
Q 1322 2244 1188 2822 
Q 1081 3291 891 3722 
Q 769 4003 388 4659 
L 791 4659 
Q 1378 3875 1659 3084 
Q 1900 2403 1900 1659 
Q 1900 816 1576 28 
Q 1253 -759 791 -1347 
z
" transform="scale(0.015625)"/>
      </defs>
      <use xlink:href="#ArialMT-74"/>
      <use xlink:href="#ArialMT-69" x="27.783203"/>
      <use xlink:href="#ArialMT-6d" x="50"/>
      <use xlink:href="#ArialMT-65" x="133.300781"/>
      <use xlink:href="#ArialMT-20" x="188.916016"/>
      <use xlink:href="#ArialMT-28" x="216.699219"/>
      <use xlink:href="#ArialMT-68" x="250"/>
      <use xlink:href="#ArialMT-29" x="305.615234"/>
     </g>
    </g>
   </g>
   <g id="matplotlib.axis_2">
    <g id="ytick_1">
     <g id="line2d_6">
      <defs>
       <path id="mdadd93878e" d="M 0 0 
L -4 0 
" style="stroke: #262626; stroke-width: 0.8"/>
      </defs>
      <g>
       <use xlink:href="#mdadd93878e" x="36" y="65.796923" style="fill: #262626; stroke: #262626; stroke-width: 0.8"/>
      </g>
     </g>
     <g id="text_7">
      <!-- 0 -->
      <g style="fill: #262626" transform="translate(25.55125 68.660048)scale(0.08 -0.08)">
       <use xlink:href="#ArialMT-30"/>
      </g>
     </g>
    </g>
    <g id="ytick_2">
     <g id="line2d_7">
      <g>
       <use xlink:href="#mdadd93878e" x="36" y="42.341538" style="fill: #262626; stroke: #262626; stroke-width: 0.8"/>
      </g>
     </g>
     <g id="text_8">
      <!-- 0.5 -->
      <g style="fill: #262626" transform="translate(18.88 45.204663)scale(0.08 -0.08)">
       <defs>
        <path id="ArialMT-2e" d="M 581 0 
L 581 641 
L 1222 641 
L 1222 0 
L 581 0 
z
" transform="scale(0.015625)"/>
        <path id="ArialMT-35" d="M 266 1200 
L 856 1250 
Q 922 819 1161 601 
Q 1400 384 1738 384 
Q 2144 384 2425 690 
Q 2706 997 2706 1503 
Q 2706 1984 2436 2262 
Q 2166 2541 1728 2541 
Q 1456 2541 1237 2417 
Q 1019 2294 894 2097 
L 366 2166 
L 809 4519 
L 3088 4519 
L 3088 3981 
L 1259 3981 
L 1013 2750 
Q 1425 3038 1878 3038 
Q 2478 3038 2890 2622 
Q 3303 2206 3303 1553 
Q 3303 931 2941 478 
Q 2500 -78 1738 -78 
Q 1113 -78 717 272 
Q 322 622 266 1200 
z
" transform="scale(0.015625)"/>
       </defs>
       <use xlink:href="#ArialMT-30"/>
       <use xlink:href="#ArialMT-2e" x="55.615234"/>
       <use xlink:href="#ArialMT-35" x="83.398438"/>
      </g>
     </g>
    </g>
    <g id="ytick_3">
     <g id="line2d_8">
      <g>
       <use xlink:href="#mdadd93878e" x="36" y="18.886154" style="fill: #262626; stroke: #262626; stroke-width: 0.8"/>
      </g>
     </g>
     <g id="text_9">
      <!-- 1.0 -->
      <g style="fill: #262626" transform="translate(18.88 21.749279)scale(0.08 -0.08)">
       <defs>
        <path id="ArialMT-31" d="M 2384 0 
L 1822 0 
L 1822 3584 
Q 1619 3391 1289 3197 
Q 959 3003 697 2906 
L 697 3450 
Q 1169 3672 1522 3987 
Q 1875 4303 2022 4600 
L 2384 4600 
L 2384 0 
z
" transform="scale(0.015625)"/>
       </defs>
       <use xlink:href="#ArialMT-31"/>
       <use xlink:href="#ArialMT-2e" x="55.615234"/>
       <use xlink:href="#ArialMT-30" x="83.398438"/>
      </g>
     </g>
    </g>
    <g id="text_10">
     <!-- expr. norm. -->
     <g style="fill: #262626" transform="translate(13.09125 62.503734)rotate(-90)scale(0.09 -0.09)">
      <defs>
       <path id="ArialMT-78" d="M 47 0 
L 1259 1725 
L 138 3319 
L 841 3319 
L 1350 2541 
Q 1494 2319 1581 2169 
Q 1719 2375 1834 2534 
L 2394 3319 
L 3066 3319 
L 1919 1756 
L 3153 0 
L 2463 0 
L 1781 1031 
L 1600 1309 
L 728 0 
L 47 0 
z
" transform="scale(0.015625)"/>
       <path id="ArialMT-70" d="M 422 -1272 
L 422 3319 
L 934 3319 
L 934 2888 
Q 1116 3141 1344 3267 
Q 1572 3394 1897 3394 
Q 2322 3394 2647 3175 
Q 2972 2956 3137 2557 
Q 3303 2159 3303 1684 
Q 3303 1175 3120 767 
Q 2938 359 2589 142 
Q 2241 -75 1856 -75 
Q 1575 -75 1351 44 
Q 1128 163 984 344 
L 984 -1272 
L 422 -1272 
z
M 931 1641 
Q 931 1000 1190 694 
Q 1450 388 1819 388 
Q 2194 388 2461 705 
Q 2728 1022 2728 1688 
Q 2728 2322 2467 2637 
Q 2206 2953 1844 2953 
Q 1484 2953 1207 2617 
Q 931 2281 931 1641 
z
" transform="scale(0.015625)"/>
       <path id="ArialMT-72" d="M 416 0 
L 416 3319 
L 922 3319 
L 922 2816 
Q 1116 3169 1280 3281 
Q 1444 3394 1641 3394 
Q 1925 3394 2219 3213 
L 2025 2691 
Q 1819 2813 1613 2813 
Q 1428 2813 1281 2702 
Q 1134 2591 1072 2394 
Q 978 2094 978 1738 
L 978 0 
L 416 0 
z
" transform="scale(0.015625)"/>
       <path id="ArialMT-6e" d="M 422 0 
L 422 3319 
L 928 3319 
L 928 2847 
Q 1294 3394 1984 3394 
Q 2284 3394 2536 3286 
Q 2788 3178 2913 3003 
Q 3038 2828 3088 2588 
Q 3119 2431 3119 2041 
L 3119 0 
L 2556 0 
L 2556 2019 
Q 2556 2363 2490 2533 
Q 2425 2703 2258 2804 
Q 2091 2906 1866 2906 
Q 1506 2906 1245 2678 
Q 984 2450 984 1813 
L 984 0 
L 422 0 
z
" transform="scale(0.015625)"/>
       <path id="ArialMT-6f" d="M 213 1659 
Q 213 2581 725 3025 
Q 1153 3394 1769 3394 
Q 2453 3394 2887 2945 
Q 3322 2497 3322 1706 
Q 3322 1066 3130 698 
Q 2938 331 2570 128 
Q 2203 -75 1769 -75 
Q 1072 -75 642 372 
Q 213 819 213 1659 
z
M 791 1659 
Q 791 1022 1069 705 
Q 1347 388 1769 388 
Q 2188 388 2466 706 
Q 2744 1025 2744 1678 
Q 2744 2294 2464 2611 
Q 2184 2928 1769 2928 
Q 1347 2928 1069 2612 
Q 791 2297 791 1659 
z
" transform="scale(0.015625)"/>
      </defs>
      <use xlink:href="#ArialMT-65"/>
      <use xlink:href="#ArialMT-78" x="55.615234"/>
      <use xlink:href="#ArialMT-70" x="105.615234"/>
      <use xlink:href="#ArialMT-72" x="161.230469"/>
      <use xlink:href="#ArialMT-2e" x="189.03125"/>
      <use xlink:href="#ArialMT-20" x="216.814453"/>
      <use xlink:href="#ArialMT-6e" x="244.597656"/>
      <use xlink:href="#ArialMT-6f" x="300.212891"/>
      <use xlink:href="#ArialMT-72" x="355.828125"/>
      <use xlink:href="#ArialMT-6d" x="389.128906"/>
      <use xlink:href="#ArialMT-2e" x="472.429688"/>
     </g>
    </g>
   </g>
   <g id="line2d_9">
    <path d="M 38.751673 65.796923 
L 39.307567 65.796923 
L 39.86346 65.796882 
L 40.419354 65.79644 
L 40.975247 65.794264 
L 41.531141 65.787302 
L 42.087034 65.770234 
L 42.642928 65.735272 
L 43.198822 65.672343 
L 43.754715 65.56959 
L 44.310609 65.414096 
L 44.866502 65.1927 
L 45.422396 64.892826 
L 45.978289 64.503227 
L 46.534183 64.014602 
L 47.090077 63.420044 
L 47.64597 62.715322 
L 48.201864 61.898983 
L 48.757757 60.972325 
L 49.313651 59.939224 
L 49.869544 58.80588 
L 50.425438 57.580482 
L 50.981331 56.272846 
L 51.537225 54.894018 
L 52.093119 53.455893 
L 52.649012 51.97084 
L 53.204906 50.451372 
L 53.760799 48.909835 
L 54.316693 47.358158 
L 54.872586 45.807636 
L 55.42848 44.268767 
L 55.984373 42.751123 
L 56.540267 41.26327 
L 57.096161 39.812718 
L 57.652054 38.405906 
L 58.207948 37.048212 
L 58.763841 35.743986 
L 59.319735 34.496601 
L 59.875628 33.308514 
L 60.431522 32.18134 
L 60.987416 31.115935 
L 61.543309 30.11247 
L 62.099203 29.170521 
L 62.655096 28.289148 
L 63.21099 27.466972 
L 63.766883 26.702252 
L 64.322777 25.992955 
L 64.87867 25.336815 
L 65.434564 24.731397 
L 65.990458 24.174145 
L 66.546351 23.662431 
L 67.102245 23.193591 
L 67.658138 22.764961 
L 68.214032 22.373908 
L 68.769925 22.017852 
L 69.325819 21.694286 
L 69.881713 21.40079 
L 70.437606 21.135048 
L 70.9935 20.894851 
L 71.549393 20.678105 
L 72.105287 20.482837 
L 72.66118 20.307192 
L 73.217074 20.149435 
L 73.772967 20.007953 
L 74.328861 19.881246 
L 74.884755 19.767925 
L 75.440648 19.666712 
L 75.996542 19.576428 
L 76.552435 19.495994 
L 77.108329 19.424422 
L 77.664222 19.360811 
L 78.220116 19.30434 
L 78.776009 19.254262 
L 79.331903 19.209903 
L 79.887797 19.17065 
L 80.44369 19.135951 
L 80.999584 19.105309 
L 81.555477 19.078274 
L 82.111371 19.054446 
L 82.667264 19.033462 
L 83.223158 19.015 
L 83.779052 18.998772 
L 84.334945 18.984518 
L 84.890839 18.972009 
L 85.446732 18.961041 
L 86.002626 18.951431 
L 86.558519 18.943017 
L 87.114413 18.935657 
L 87.670306 18.929223 
L 88.2262 18.923602 
L 88.782094 18.918696 
L 89.337987 18.914416 
L 89.893881 18.910684 
L 90.449774 18.907434 
L 91.005668 18.904604 
L 91.561561 18.902142 
L 92.117455 18.900001 
L 92.673348 18.898141 
L 93.229242 18.896525 
L 93.785136 18.895122 
" clip-path="url(#pbea43e8723)" style="fill: none; stroke: #000000; stroke-width: 3.5; stroke-linecap: round"/>
   </g>
   <g id="line2d_10">
    <path d="M 38.751673 65.796923 
L 39.307567 65.796923 
L 39.86346 65.796907 
L 40.419354 65.796694 
L 40.975247 65.795498 
L 41.531141 65.791267 
L 42.087034 65.780038 
L 42.642928 65.755515 
L 43.198822 65.70896 
L 43.754715 65.62945 
L 44.310609 65.504413 
L 44.866502 65.32037 
L 45.422396 65.063775 
L 45.978289 64.721855 
L 46.534183 64.283368 
L 47.090077 63.739224 
L 47.64597 63.082942 
L 48.201864 62.310917 
L 48.757757 61.422521 
L 49.313651 60.420038 
L 49.869544 59.308471 
L 50.425438 58.095242 
L 50.981331 56.789824 
L 51.537225 55.403326 
L 52.093119 53.948062 
L 52.649012 52.437132 
L 53.204906 50.88401 
L 53.760799 49.302186 
L 54.316693 47.704839 
L 54.872586 46.104568 
L 55.42848 44.513169 
L 55.984373 42.941471 
L 56.540267 41.399212 
L 57.096161 39.89497 
L 57.652054 38.436119 
L 58.207948 37.028838 
L 58.763841 35.678132 
L 59.319735 34.387886 
L 59.875628 33.160935 
L 60.431522 31.999144 
L 60.987416 30.903497 
L 61.543309 29.874197 
L 62.099203 28.910758 
L 62.655096 28.012104 
L 63.21099 27.176658 
L 63.766883 26.402435 
L 64.322777 25.687121 
L 64.87867 25.028145 
L 65.434564 24.422755 
L 65.990458 23.86807 
L 66.546351 23.361138 
L 67.102245 22.898982 
L 67.658138 22.478638 
L 68.214032 22.097186 
L 68.769925 21.751783 
L 69.325819 21.439675 
L 69.881713 21.158223 
L 70.437606 20.90491 
L 70.9935 20.677351 
L 71.549393 20.473298 
L 72.105287 20.290644 
L 72.66118 20.127421 
L 73.217074 19.981802 
L 73.772967 19.852094 
L 74.328861 19.736736 
L 74.884755 19.634293 
L 75.440648 19.54345 
L 75.996542 19.463006 
L 76.552435 19.391867 
L 77.108329 19.329041 
L 77.664222 19.273626 
L 78.220116 19.224809 
L 78.776009 19.181856 
L 79.331903 19.144107 
L 79.887797 19.11097 
L 80.44369 19.081913 
L 80.999584 19.056462 
L 81.555477 19.034192 
L 82.111371 19.014727 
L 82.667264 18.997729 
L 83.223158 18.9829 
L 83.779052 18.969976 
L 84.334945 18.958723 
L 84.890839 18.948933 
L 85.446732 18.940424 
L 86.002626 18.933035 
L 86.558519 18.926622 
L 87.114413 18.921063 
L 87.670306 18.916247 
L 88.2262 18.912079 
L 88.782094 18.908473 
L 89.337987 18.905356 
L 89.893881 18.902665 
L 90.449774 18.900341 
L 91.005668 18.898338 
L 91.561561 18.896611 
L 92.117455 18.895124 
L 92.673348 18.893844 
L 93.229242 18.892743 
L 93.785136 18.891796 
" clip-path="url(#pbea43e8723)" style="fill: none; stroke-dasharray: 4.44,1.92; stroke-dashoffset: 0; stroke: #d3d3d3; stroke-width: 1.2"/>
   </g>
   <g id="LineCollection_1">
    <path d="M 38.751673 65.796923 
L 38.751673 65.796923 
" clip-path="url(#pbea43e8723)" style="fill: none; stroke: #4c72b0"/>
    <path d="M 42.682635 66.29481 
L 42.682635 62.895028 
" clip-path="url(#pbea43e8723)" style="fill: none; stroke: #4c72b0"/>
    <path d="M 42.682635 66.29481 
L 42.682635 62.895028 
" clip-path="url(#pbea43e8723)" style="fill: none; stroke: #4c72b0"/>
    <path d="M 50.544558 58.334356 
L 50.544558 56.36968 
" clip-path="url(#pbea43e8723)" style="fill: none; stroke: #4c72b0"/>
    <path d="M 50.544558 58.334356 
L 50.544558 56.36968 
" clip-path="url(#pbea43e8723)" style="fill: none; stroke: #4c72b0"/>
    <path d="M 54.47552 47.778152 
L 54.47552 46.000886 
" clip-path="url(#pbea43e8723)" style="fill: none; stroke: #4c72b0"/>
    <path d="M 54.47552 47.778152 
L 54.47552 46.000886 
" clip-path="url(#pbea43e8723)" style="fill: none; stroke: #4c72b0"/>
    <path d="M 70.199366 32.379355 
L 70.199366 13.214045 
" clip-path="url(#pbea43e8723)" style="fill: none; stroke: #4c72b0"/>
    <path d="M 70.199366 32.379355 
L 70.199366 13.214045 
" clip-path="url(#pbea43e8723)" style="fill: none; stroke: #4c72b0"/>
    <path d="M 93.785136 20.954768 
L 93.785136 16.81754 
" clip-path="url(#pbea43e8723)" style="fill: none; stroke: #4c72b0"/>
    <path d="M 93.785136 20.954768 
L 93.785136 16.81754 
" clip-path="url(#pbea43e8723)" style="fill: none; stroke: #4c72b0"/>
   </g>
   <g id="line2d_11">
    <defs>
     <path id="m1dce919ae4" d="M 5 0 
L -5 -0 
" style="stroke: #4c72b0"/>
    </defs>
    <g clip-path="url(#pbea43e8723)">
     <use xlink:href="#m1dce919ae4" x="38.751673" y="65.796923" style="fill: #4c72b0; stroke: #4c72b0"/>
     <use xlink:href="#m1dce919ae4" x="42.682635" y="66.29481" style="fill: #4c72b0; stroke: #4c72b0"/>
     <use xlink:href="#m1dce919ae4" x="42.682635" y="66.29481" style="fill: #4c72b0; stroke: #4c72b0"/>
     <use xlink:href="#m1dce919ae4" x="50.544558" y="58.334356" style="fill: #4c72b0; stroke: #4c72b0"/>
     <use xlink:href="#m1dce919ae4" x="50.544558" y="58.334356" style="fill: #4c72b0; stroke: #4c72b0"/>
     <use xlink:href="#m1dce919ae4" x="54.47552" y="47.778152" style="fill: #4c72b0; stroke: #4c72b0"/>
     <use xlink:href="#m1dce919ae4" x="54.47552" y="47.778152" style="fill: #4c72b0; stroke: #4c72b0"/>
     <use xlink:href="#m1dce919ae4" x="70.199366" y="32.379355" style="fill: #4c72b0; stroke: #4c72b0"/>
     <use xlink:href="#m1dce919ae4" x="70.199366" y="32.379355" style="fill: #4c72b0; stroke: #4c72b0"/>
     <use xlink:href="#m1dce919ae4" x="93.785136" y="20.954768" style="fill: #4c72b0; stroke: #4c72b0"/>
     <use xlink:href="#m1dce919ae4" x="93.785136" y="20.954768" style="fill: #4c72b0; stroke: #4c72b0"/>
    </g>
   </g>
   <g id="line2d_12">
    <g clip-path="url(#pbea43e8723)">
     <use xlink:href="#m1dce919ae4" x="38.751673" y="65.796923" style="fill: #4c72b0; stroke: #4c72b0"/>
     <use xlink:href="#m1dce919ae4" x="42.682635" y="62.895028" style="fill: #4c72b0; stroke: #4c72b0"/>
     <use xlink:href="#m1dce919ae4" x="42.682635" y="62.895028" style="fill: #4c72b0; stroke: #4c72b0"/>
     <use xlink:href="#m1dce919ae4" x="50.544558" y="56.36968" style="fill: #4c72b0; stroke: #4c72b0"/>
     <use xlink:href="#m1dce919ae4" x="50.544558" y="56.36968" style="fill: #4c72b0; stroke: #4c72b0"/>
     <use xlink:href="#m1dce919ae4" x="54.47552" y="46.000886" style="fill: #4c72b0; stroke: #4c72b0"/>
     <use xlink:href="#m1dce919ae4" x="54.47552" y="46.000886" style="fill: #4c72b0; stroke: #4c72b0"/>
     <use xlink:href="#m1dce919ae4" x="70.199366" y="13.214045" style="fill: #4c72b0; stroke: #4c72b0"/>
     <use xlink:href="#m1dce919ae4" x="70.199366" y="13.214045" style="fill: #4c72b0; stroke: #4c72b0"/>
     <use xlink:href="#m1dce919ae4" x="93.785136" y="16.81754" style="fill: #4c72b0; stroke: #4c72b0"/>
     <use xlink:href="#m1dce919ae4" x="93.785136" y="16.81754" style="fill: #4c72b0; stroke: #4c72b0"/>
    </g>
   </g>
   <g id="line2d_13">
    <defs>
     <path id="ma62ad12ec4" d="M 0 1.4 
C 0.371284 1.4 0.727412 1.252487 0.989949 0.989949 
C 1.252487 0.727412 1.4 0.371284 1.4 0 
C 1.4 -0.371284 1.252487 -0.727412 0.989949 -0.989949 
C 0.727412 -1.252487 0.371284 -1.4 0 -1.4 
C -0.371284 -1.4 -0.727412 -1.252487 -0.989949 -0.989949 
C -1.252487 -0.727412 -1.4 -0.371284 -1.4 0 
C -1.4 0.371284 -1.252487 0.727412 -0.989949 0.989949 
C -0.727412 1.252487 -0.371284 1.4 0 1.4 
z
" style="stroke: #4c72b0"/>
    </defs>
    <g clip-path="url(#pbea43e8723)">
     <use xlink:href="#ma62ad12ec4" x="38.751673" y="65.796923" style="fill: #4c72b0; stroke: #4c72b0"/>
     <use xlink:href="#ma62ad12ec4" x="42.682635" y="64.594919" style="fill: #4c72b0; stroke: #4c72b0"/>
     <use xlink:href="#ma62ad12ec4" x="42.682635" y="64.594919" style="fill: #4c72b0; stroke: #4c72b0"/>
     <use xlink:href="#ma62ad12ec4" x="50.544558" y="57.352018" style="fill: #4c72b0; stroke: #4c72b0"/>
     <use xlink:href="#ma62ad12ec4" x="50.544558" y="57.352018" style="fill: #4c72b0; stroke: #4c72b0"/>
     <use xlink:href="#ma62ad12ec4" x="54.47552" y="46.889519" style="fill: #4c72b0; stroke: #4c72b0"/>
     <use xlink:href="#ma62ad12ec4" x="54.47552" y="46.889519" style="fill: #4c72b0; stroke: #4c72b0"/>
     <use xlink:href="#ma62ad12ec4" x="70.199366" y="22.7967" style="fill: #4c72b0; stroke: #4c72b0"/>
     <use xlink:href="#ma62ad12ec4" x="70.199366" y="22.7967" style="fill: #4c72b0; stroke: #4c72b0"/>
     <use xlink:href="#ma62ad12ec4" x="93.785136" y="18.886154" style="fill: #4c72b0; stroke: #4c72b0"/>
     <use xlink:href="#ma62ad12ec4" x="93.785136" y="18.886154" style="fill: #4c72b0; stroke: #4c72b0"/>
    </g>
   </g>
   <g id="patch_3">
    <path d="M 36 70.488 
L 36 9.504 
" style="fill: none; stroke: #262626; stroke-linejoin: miter; stroke-linecap: square"/>
   </g>
   <g id="patch_4">
    <path d="M 101.647059 70.488 
L 101.647059 9.504 
" style="fill: none; stroke: #262626; stroke-linejoin: miter; stroke-linecap: square"/>
   </g>
   <g id="patch_5">
    <path d="M 36 70.488 
L 101.647059 70.488 
" style="fill: none; stroke: #262626; stroke-linejoin: miter; stroke-linecap: square"/>
   </g>
   <g id="patch_6">
    <path d="M 36 9.504 
L 101.647059 9.504 
" style="fill: none; stroke: #262626; stroke-linejoin: miter; stroke-linecap: square"/>
   </g>
   <g id="text_11">
    <!-- E(7,0.25) -->
    <g style="fill: #262626" transform="translate(51.854878 65.796923)scale(0.07 -0.07)">
     <defs>
      <path id="ArialMT-45" d="M 506 0 
L 506 4581 
L 3819 4581 
L 3819 4041 
L 1113 4041 
L 1113 2638 
L 3647 2638 
L 3647 2100 
L 1113 2100 
L 1113 541 
L 3925 541 
L 3925 0 
L 506 0 
z
" transform="scale(0.015625)"/>
      <path id="ArialMT-2c" d="M 569 0 
L 569 641 
L 1209 641 
L 1209 0 
Q 1209 -353 1084 -570 
Q 959 -788 688 -906 
L 531 -666 
Q 709 -588 793 -436 
Q 878 -284 888 0 
L 569 0 
z
" transform="scale(0.015625)"/>
     </defs>
     <use xlink:href="#ArialMT-45"/>
     <use xlink:href="#ArialMT-28" x="66.699219"/>
     <use xlink:href="#ArialMT-37" x="100"/>
     <use xlink:href="#ArialMT-2c" x="155.615234"/>
     <use xlink:href="#ArialMT-30" x="183.398438"/>
     <use xlink:href="#ArialMT-2e" x="239.013672"/>
     <use xlink:href="#ArialMT-32" x="266.796875"/>
     <use xlink:href="#ArialMT-35" x="322.412109"/>
     <use xlink:href="#ArialMT-29" x="378.027344"/>
    </g>
   </g>
   <g id="text_12">
    <!-- $\gamma$(6.52,0.233) -->
    <g style="fill: #262626" transform="translate(51.854878 57.352985)scale(0.07 -0.07)">
     <defs>
      <path id="DejaVuSans-Oblique-3b3" d="M 1491 2950 
L 1838 788 
L 3456 3500 
L 4066 3500 
L 1972 0 
L 1713 -1331 
L 1138 -1331 
L 1397 0 
L 988 2613 
Q 925 3006 628 3006 
L 475 3006 
L 569 3500 
L 788 3500 
Q 1403 3500 1491 2950 
z
" transform="scale(0.015625)"/>
      <path id="ArialMT-33" d="M 269 1209 
L 831 1284 
Q 928 806 1161 595 
Q 1394 384 1728 384 
Q 2125 384 2398 659 
Q 2672 934 2672 1341 
Q 2672 1728 2419 1979 
Q 2166 2231 1775 2231 
Q 1616 2231 1378 2169 
L 1441 2663 
Q 1497 2656 1531 2656 
Q 1891 2656 2178 2843 
Q 2466 3031 2466 3422 
Q 2466 3731 2256 3934 
Q 2047 4138 1716 4138 
Q 1388 4138 1169 3931 
Q 950 3725 888 3313 
L 325 3413 
Q 428 3978 793 4289 
Q 1159 4600 1703 4600 
Q 2078 4600 2393 4439 
Q 2709 4278 2876 4000 
Q 3044 3722 3044 3409 
Q 3044 3113 2884 2869 
Q 2725 2625 2413 2481 
Q 2819 2388 3044 2092 
Q 3269 1797 3269 1353 
Q 3269 753 2831 336 
Q 2394 -81 1725 -81 
Q 1122 -81 723 278 
Q 325 638 269 1209 
z
" transform="scale(0.015625)"/>
     </defs>
     <use xlink:href="#DejaVuSans-Oblique-3b3" transform="translate(0 0.203125)"/>
     <use xlink:href="#ArialMT-28" transform="translate(59.179688 0.203125)"/>
     <use xlink:href="#ArialMT-36" transform="translate(92.480469 0.203125)"/>
     <use xlink:href="#ArialMT-2e" transform="translate(148.095703 0.203125)"/>
     <use xlink:href="#ArialMT-35" transform="translate(175.878906 0.203125)"/>
     <use xlink:href="#ArialMT-32" transform="translate(231.494141 0.203125)"/>
     <use xlink:href="#ArialMT-2c" transform="translate(287.109375 0.203125)"/>
     <use xlink:href="#ArialMT-30" transform="translate(314.892578 0.203125)"/>
     <use xlink:href="#ArialMT-2e" transform="translate(370.507812 0.203125)"/>
     <use xlink:href="#ArialMT-32" transform="translate(398.291016 0.203125)"/>
     <use xlink:href="#ArialMT-33" transform="translate(453.90625 0.203125)"/>
     <use xlink:href="#ArialMT-33" transform="translate(509.521484 0.203125)"/>
     <use xlink:href="#ArialMT-29" transform="translate(565.136719 0.203125)"/>
    </g>
   </g>
   <g id="text_13">
    <!-- Sulf2 -->
    <g style="fill: #262626" transform="translate(38.751673 23.577231)scale(0.08 -0.08)">
     <defs>
      <path id="Arial-ItalicMT-53" d="M 450 1481 
L 1050 1538 
L 1044 1378 
Q 1044 1113 1166 892 
Q 1288 672 1569 551 
Q 1850 431 2238 431 
Q 2788 431 3077 672 
Q 3366 913 3366 1222 
Q 3366 1438 3213 1616 
Q 3056 1791 2359 2091 
Q 1819 2325 1622 2450 
Q 1313 2653 1166 2892 
Q 1019 3131 1019 3438 
Q 1019 3791 1212 4075 
Q 1406 4359 1779 4509 
Q 2153 4659 2622 4659 
Q 3181 4659 3565 4471 
Q 3950 4284 4123 3971 
Q 4297 3659 4297 3375 
Q 4297 3347 4294 3281 
L 3703 3234 
Q 3703 3428 3669 3538 
Q 3606 3728 3475 3859 
Q 3344 3991 3114 4070 
Q 2884 4150 2600 4150 
Q 2100 4150 1822 3925 
Q 1609 3753 1609 3469 
Q 1609 3300 1696 3167 
Q 1784 3034 2013 2906 
Q 2175 2816 2784 2547 
Q 3278 2328 3466 2203 
Q 3716 2038 3850 1802 
Q 3984 1566 3984 1266 
Q 3984 894 3757 580 
Q 3531 266 3131 94 
Q 2731 -78 2216 -78 
Q 1438 -78 945 261 
Q 453 600 450 1481 
z
" transform="scale(0.015625)"/>
      <path id="Arial-ItalicMT-75" d="M 2478 600 
Q 1881 -75 1256 -75 
Q 872 -75 636 145 
Q 400 366 400 684 
Q 400 894 506 1403 
L 906 3319 
L 1472 3319 
L 1028 1197 
Q 972 931 972 784 
Q 972 597 1086 492 
Q 1200 388 1422 388 
Q 1659 388 1886 503 
Q 2113 619 2277 816 
Q 2441 1013 2544 1281 
Q 2613 1453 2703 1884 
L 3003 3319 
L 3569 3319 
L 2875 0 
L 2353 0 
L 2478 600 
z
" transform="scale(0.015625)"/>
      <path id="Arial-ItalicMT-6c" d="M 169 0 
L 1125 4581 
L 1691 4581 
L 734 0 
L 169 0 
z
" transform="scale(0.015625)"/>
      <path id="Arial-ItalicMT-66" d="M 291 0 
L 894 2881 
L 388 2881 
L 478 3319 
L 984 3319 
L 1081 3791 
Q 1156 4144 1236 4300 
Q 1316 4456 1495 4557 
Q 1675 4659 1984 4659 
Q 2200 4659 2609 4569 
L 2506 4075 
Q 2219 4150 2025 4150 
Q 1859 4150 1773 4067 
Q 1688 3984 1625 3675 
L 1550 3319 
L 2181 3319 
L 2091 2881 
L 1459 2881 
L 856 0 
L 291 0 
z
" transform="scale(0.015625)"/>
      <path id="Arial-ItalicMT-32" d="M 375 0 
Q 463 409 617 686 
Q 772 963 1028 1211 
Q 1284 1459 2016 2044 
Q 2459 2397 2622 2566 
Q 2856 2809 2963 3044 
Q 3034 3203 3034 3391 
Q 3034 3706 2811 3926 
Q 2588 4147 2263 4147 
Q 1941 4147 1700 3923 
Q 1459 3700 1356 3206 
L 803 3288 
Q 884 3897 1276 4248 
Q 1669 4600 2253 4600 
Q 2644 4600 2961 4437 
Q 3278 4275 3437 3981 
Q 3597 3688 3597 3375 
Q 3597 2919 3272 2497 
Q 3072 2234 2097 1463 
Q 1678 1131 1473 918 
Q 1269 706 1166 519 
L 3216 519 
L 3106 0 
L 375 0 
z
" transform="scale(0.015625)"/>
     </defs>
     <use xlink:href="#Arial-ItalicMT-53"/>
     <use xlink:href="#Arial-ItalicMT-75" x="66.699219"/>
     <use xlink:href="#Arial-ItalicMT-6c" x="122.314453"/>
     <use xlink:href="#Arial-ItalicMT-66" x="144.53125"/>
     <use xlink:href="#Arial-ItalicMT-32" x="172.314453"/>
    </g>
   </g>
  </g>
  <g id="axes_2">
   <g id="patch_7">
    <path d="M 114.776471 70.488 
L 180.423529 70.488 
L 180.423529 9.504 
L 114.776471 9.504 
L 114.776471 70.488 
z
" style="fill: none"/>
   </g>
   <g id="matplotlib.axis_3">
    <g id="xtick_6">
     <g id="line2d_14">
      <g>
       <use xlink:href="#m7b4b5a7e0a" x="117.528144" y="70.488" style="fill: #262626; stroke: #262626; stroke-width: 0.8"/>
      </g>
     </g>
     <g id="text_14">
      <!-- 0 -->
      <g style="fill: #262626" transform="translate(115.303769 82.21425)scale(0.08 -0.08)">
       <use xlink:href="#ArialMT-30"/>
      </g>
     </g>
    </g>
    <g id="xtick_7">
     <g id="line2d_15">
      <g>
       <use xlink:href="#m7b4b5a7e0a" x="133.25199" y="70.488" style="fill: #262626; stroke: #262626; stroke-width: 0.8"/>
      </g>
     </g>
     <g id="text_15">
      <!-- 24 -->
      <g style="fill: #262626" transform="translate(128.80324 82.21425)scale(0.08 -0.08)">
       <use xlink:href="#ArialMT-32"/>
       <use xlink:href="#ArialMT-34" x="55.615234"/>
      </g>
     </g>
    </g>
    <g id="xtick_8">
     <g id="line2d_16">
      <g>
       <use xlink:href="#m7b4b5a7e0a" x="148.975837" y="70.488" style="fill: #262626; stroke: #262626; stroke-width: 0.8"/>
      </g>
     </g>
     <g id="text_16">
      <!-- 48 -->
      <g style="fill: #262626" transform="translate(144.527087 82.21425)scale(0.08 -0.08)">
       <use xlink:href="#ArialMT-34"/>
       <use xlink:href="#ArialMT-38" x="55.615234"/>
      </g>
     </g>
    </g>
    <g id="xtick_9">
     <g id="line2d_17">
      <g>
       <use xlink:href="#m7b4b5a7e0a" x="164.699683" y="70.488" style="fill: #262626; stroke: #262626; stroke-width: 0.8"/>
      </g>
     </g>
     <g id="text_17">
      <!-- 72 -->
      <g style="fill: #262626" transform="translate(160.250933 82.21425)scale(0.08 -0.08)">
       <use xlink:href="#ArialMT-37"/>
       <use xlink:href="#ArialMT-32" x="55.615234"/>
      </g>
     </g>
    </g>
    <g id="xtick_10">
     <g id="line2d_18">
      <g>
       <use xlink:href="#m7b4b5a7e0a" x="180.423529" y="70.488" style="fill: #262626; stroke: #262626; stroke-width: 0.8"/>
      </g>
     </g>
     <g id="text_18">
      <!-- 96 -->
      <g style="fill: #262626" transform="translate(175.974779 82.21425)scale(0.08 -0.08)">
       <use xlink:href="#ArialMT-39"/>
       <use xlink:href="#ArialMT-36" x="55.615234"/>
      </g>
     </g>
    </g>
    <g id="text_19">
     <!-- time (h) -->
     <g style="fill: #262626" transform="translate(132.349922 94.355969)scale(0.09 -0.09)">
      <use xlink:href="#ArialMT-74"/>
      <use xlink:href="#ArialMT-69" x="27.783203"/>
      <use xlink:href="#ArialMT-6d" x="50"/>
      <use xlink:href="#ArialMT-65" x="133.300781"/>
      <use xlink:href="#ArialMT-20" x="188.916016"/>
      <use xlink:href="#ArialMT-28" x="216.699219"/>
      <use xlink:href="#ArialMT-68" x="250"/>
      <use xlink:href="#ArialMT-29" x="305.615234"/>
     </g>
    </g>
   </g>
   <g id="matplotlib.axis_4">
    <g id="ytick_4">
     <g id="line2d_19">
      <g>
       <use xlink:href="#mdadd93878e" x="114.776471" y="65.796923" style="fill: #262626; stroke: #262626; stroke-width: 0.8"/>
      </g>
     </g>
    </g>
    <g id="ytick_5">
     <g id="line2d_20">
      <g>
       <use xlink:href="#mdadd93878e" x="114.776471" y="42.341538" style="fill: #262626; stroke: #262626; stroke-width: 0.8"/>
      </g>
     </g>
    </g>
    <g id="ytick_6">
     <g id="line2d_21">
      <g>
       <use xlink:href="#mdadd93878e" x="114.776471" y="18.886154" style="fill: #262626; stroke: #262626; stroke-width: 0.8"/>
      </g>
     </g>
    </g>
   </g>
   <g id="line2d_22">
    <path d="M 117.528144 65.796923 
L 118.084037 65.796322 
L 118.639931 65.775303 
L 119.195824 65.644556 
L 119.751718 65.244697 
L 120.307612 64.404084 
L 120.863505 62.999114 
L 121.419399 60.986659 
L 121.975292 58.406215 
L 122.531186 55.361841 
L 123.087079 51.995737 
L 123.642973 48.462324 
L 124.198866 44.907739 
L 124.75476 41.456441 
L 125.310654 38.204514 
L 125.866547 35.218282 
L 126.422441 32.536522 
L 126.978334 30.174743 
L 127.534228 28.13028 
L 128.090121 26.38739 
L 128.646015 24.921803 
L 129.201908 23.704498 
L 129.757802 22.70463 
L 130.313696 21.891646 
L 130.869589 21.236707 
L 131.425483 20.713548 
L 131.981376 20.298904 
L 132.53727 19.972625 
L 133.093163 19.717588 
L 133.649057 19.519469 
L 134.204951 19.36645 
L 134.760844 19.248899 
L 135.316738 19.159048 
L 135.872631 19.090695 
L 136.428525 19.038925 
L 136.984418 18.999878 
L 137.540312 18.970544 
L 138.096205 18.948587 
L 138.652099 18.932211 
L 139.207993 18.920037 
L 139.763886 18.911016 
L 140.31978 18.904352 
L 140.875673 18.899442 
L 141.431567 18.895834 
L 141.98746 18.893191 
L 142.543354 18.891258 
L 143.099247 18.889849 
L 143.655141 18.888824 
L 144.211035 18.88808 
L 144.766928 18.88754 
L 145.322822 18.88715 
L 145.878715 18.886869 
L 146.434609 18.886666 
L 146.990502 18.88652 
L 147.546396 18.886415 
L 148.10229 18.88634 
L 148.658183 18.886287 
L 149.214077 18.886248 
L 149.76997 18.886221 
L 150.325864 18.886201 
L 150.881757 18.886188 
L 151.437651 18.886178 
L 151.993544 18.886171 
L 152.549438 18.886166 
L 153.105332 18.886162 
L 153.661225 18.88616 
L 154.217119 18.886158 
L 154.773012 18.886157 
L 155.328906 18.886156 
L 155.884799 18.886155 
L 156.440693 18.886155 
L 156.996587 18.886155 
L 157.55248 18.886154 
L 158.108374 18.886154 
L 158.664267 18.886154 
L 159.220161 18.886154 
L 159.776054 18.886154 
L 160.331948 18.886154 
L 160.887841 18.886154 
L 161.443735 18.886154 
L 161.999629 18.886154 
L 162.555522 18.886154 
L 163.111416 18.886154 
L 163.667309 18.886154 
L 164.223203 18.886154 
L 164.779096 18.886154 
L 165.33499 18.886154 
L 165.890883 18.886154 
L 166.446777 18.886154 
L 167.002671 18.886154 
L 167.558564 18.886154 
L 168.114458 18.886154 
L 168.670351 18.886154 
L 169.226245 18.886154 
L 169.782138 18.886154 
L 170.338032 18.886154 
L 170.893926 18.886154 
L 171.449819 18.886154 
L 172.005713 18.886154 
L 172.561606 18.886154 
" clip-path="url(#pe6f9312239)" style="fill: none; stroke: #000000; stroke-width: 3.5; stroke-linecap: round"/>
   </g>
   <g id="line2d_23">
    <path d="M 117.528144 65.796923 
L 118.084037 65.796583 
L 118.639931 65.781968 
L 119.195824 65.679498 
L 119.751718 65.340423 
L 120.307612 64.587227 
L 120.863505 63.276999 
L 121.419399 61.343788 
L 121.975292 58.80947 
L 122.531186 55.769911 
L 123.087079 52.368526 
L 123.642973 48.767814 
L 124.198866 45.125503 
L 124.75476 41.578161 
L 125.310654 38.232405 
L 125.866547 35.162405 
L 126.422441 32.411812 
L 126.978334 29.998288 
L 127.534228 27.919167 
L 128.090121 26.157194 
L 128.646015 24.685703 
L 129.201908 23.472896 
L 129.757802 22.48515 
L 130.313696 21.689373 
L 130.869589 21.054573 
L 131.425483 20.552759 
L 131.981376 20.159369 
L 132.53727 19.853345 
L 133.093163 19.616976 
L 133.649057 19.435613 
L 134.204951 19.297312 
L 134.760844 19.192453 
L 135.316738 19.113376 
L 135.872631 19.054044 
L 136.428525 19.009736 
L 136.984418 18.976795 
L 137.540312 18.952409 
L 138.096205 18.934426 
L 138.652099 18.921216 
L 139.207993 18.911546 
L 139.763886 18.904491 
L 140.31978 18.899361 
L 140.875673 18.895641 
L 141.431567 18.892953 
L 141.98746 18.891015 
L 142.543354 18.889621 
L 143.099247 18.888622 
L 143.655141 18.887907 
L 144.211035 18.887396 
L 144.766928 18.887033 
L 145.322822 18.886775 
L 145.878715 18.886592 
L 146.434609 18.886462 
L 146.990502 18.88637 
L 147.546396 18.886306 
L 148.10229 18.88626 
L 148.658183 18.886228 
L 149.214077 18.886206 
L 149.76997 18.88619 
L 150.325864 18.886179 
L 150.881757 18.886171 
L 151.437651 18.886166 
L 151.993544 18.886162 
L 152.549438 18.88616 
L 153.105332 18.886158 
L 153.661225 18.886157 
L 154.217119 18.886156 
L 154.773012 18.886155 
L 155.328906 18.886155 
L 155.884799 18.886154 
L 156.440693 18.886154 
L 156.996587 18.886154 
L 157.55248 18.886154 
L 158.108374 18.886154 
L 158.664267 18.886154 
L 159.220161 18.886154 
L 159.776054 18.886154 
L 160.331948 18.886154 
L 160.887841 18.886154 
L 161.443735 18.886154 
L 161.999629 18.886154 
L 162.555522 18.886154 
L 163.111416 18.886154 
L 163.667309 18.886154 
L 164.223203 18.886154 
L 164.779096 18.886154 
L 165.33499 18.886154 
L 165.890883 18.886154 
L 166.446777 18.886154 
L 167.002671 18.886154 
L 167.558564 18.886154 
L 168.114458 18.886154 
L 168.670351 18.886154 
L 169.226245 18.886154 
L 169.782138 18.886154 
L 170.338032 18.886154 
L 170.893926 18.886154 
L 171.449819 18.886154 
L 172.005713 18.886154 
L 172.561606 18.886154 
" clip-path="url(#pe6f9312239)" style="fill: none; stroke-dasharray: 4.44,1.92; stroke-dashoffset: 0; stroke: #d3d3d3; stroke-width: 1.2"/>
   </g>
   <g id="LineCollection_2">
    <path d="M 117.528144 70.047098 
L 117.528144 61.546748 
" clip-path="url(#pe6f9312239)" style="fill: none; stroke: #4c72b0"/>
    <path d="M 117.528144 70.047098 
L 117.528144 61.546748 
" clip-path="url(#pe6f9312239)" style="fill: none; stroke: #4c72b0"/>
    <path d="M 121.459105 65.354571 
L 121.459105 56.350385 
" clip-path="url(#pe6f9312239)" style="fill: none; stroke: #4c72b0"/>
    <path d="M 121.459105 65.354571 
L 121.459105 56.350385 
" clip-path="url(#pe6f9312239)" style="fill: none; stroke: #4c72b0"/>
    <path d="M 129.321029 32.866668 
L 129.321029 12.664208 
" clip-path="url(#pe6f9312239)" style="fill: none; stroke: #4c72b0"/>
    <path d="M 129.321029 32.866668 
L 129.321029 12.664208 
" clip-path="url(#pe6f9312239)" style="fill: none; stroke: #4c72b0"/>
    <path d="M 133.25199 39.030131 
L 133.25199 9.694161 
" clip-path="url(#pe6f9312239)" style="fill: none; stroke: #4c72b0"/>
    <path d="M 133.25199 39.030131 
L 133.25199 9.694161 
" clip-path="url(#pe6f9312239)" style="fill: none; stroke: #4c72b0"/>
    <path d="M 148.975837 26.687011 
L 148.975837 11.085297 
" clip-path="url(#pe6f9312239)" style="fill: none; stroke: #4c72b0"/>
    <path d="M 148.975837 26.687011 
L 148.975837 11.085297 
" clip-path="url(#pe6f9312239)" style="fill: none; stroke: #4c72b0"/>
    <path d="M 172.561606 24.13588 
L 172.561606 19.962194 
" clip-path="url(#pe6f9312239)" style="fill: none; stroke: #4c72b0"/>
    <path d="M 172.561606 24.13588 
L 172.561606 19.962194 
" clip-path="url(#pe6f9312239)" style="fill: none; stroke: #4c72b0"/>
   </g>
   <g id="line2d_24">
    <g clip-path="url(#pe6f9312239)">
     <use xlink:href="#m1dce919ae4" x="117.528144" y="70.047098" style="fill: #4c72b0; stroke: #4c72b0"/>
     <use xlink:href="#m1dce919ae4" x="117.528144" y="70.047098" style="fill: #4c72b0; stroke: #4c72b0"/>
     <use xlink:href="#m1dce919ae4" x="121.459105" y="65.354571" style="fill: #4c72b0; stroke: #4c72b0"/>
     <use xlink:href="#m1dce919ae4" x="121.459105" y="65.354571" style="fill: #4c72b0; stroke: #4c72b0"/>
     <use xlink:href="#m1dce919ae4" x="129.321029" y="32.866668" style="fill: #4c72b0; stroke: #4c72b0"/>
     <use xlink:href="#m1dce919ae4" x="129.321029" y="32.866668" style="fill: #4c72b0; stroke: #4c72b0"/>
     <use xlink:href="#m1dce919ae4" x="133.25199" y="39.030131" style="fill: #4c72b0; stroke: #4c72b0"/>
     <use xlink:href="#m1dce919ae4" x="133.25199" y="39.030131" style="fill: #4c72b0; stroke: #4c72b0"/>
     <use xlink:href="#m1dce919ae4" x="148.975837" y="26.687011" style="fill: #4c72b0; stroke: #4c72b0"/>
     <use xlink:href="#m1dce919ae4" x="148.975837" y="26.687011" style="fill: #4c72b0; stroke: #4c72b0"/>
     <use xlink:href="#m1dce919ae4" x="172.561606" y="24.13588" style="fill: #4c72b0; stroke: #4c72b0"/>
     <use xlink:href="#m1dce919ae4" x="172.561606" y="24.13588" style="fill: #4c72b0; stroke: #4c72b0"/>
    </g>
   </g>
   <g id="line2d_25">
    <g clip-path="url(#pe6f9312239)">
     <use xlink:href="#m1dce919ae4" x="117.528144" y="61.546748" style="fill: #4c72b0; stroke: #4c72b0"/>
     <use xlink:href="#m1dce919ae4" x="117.528144" y="61.546748" style="fill: #4c72b0; stroke: #4c72b0"/>
     <use xlink:href="#m1dce919ae4" x="121.459105" y="56.350385" style="fill: #4c72b0; stroke: #4c72b0"/>
     <use xlink:href="#m1dce919ae4" x="121.459105" y="56.350385" style="fill: #4c72b0; stroke: #4c72b0"/>
     <use xlink:href="#m1dce919ae4" x="129.321029" y="12.664208" style="fill: #4c72b0; stroke: #4c72b0"/>
     <use xlink:href="#m1dce919ae4" x="129.321029" y="12.664208" style="fill: #4c72b0; stroke: #4c72b0"/>
     <use xlink:href="#m1dce919ae4" x="133.25199" y="9.694161" style="fill: #4c72b0; stroke: #4c72b0"/>
     <use xlink:href="#m1dce919ae4" x="133.25199" y="9.694161" style="fill: #4c72b0; stroke: #4c72b0"/>
     <use xlink:href="#m1dce919ae4" x="148.975837" y="11.085297" style="fill: #4c72b0; stroke: #4c72b0"/>
     <use xlink:href="#m1dce919ae4" x="148.975837" y="11.085297" style="fill: #4c72b0; stroke: #4c72b0"/>
     <use xlink:href="#m1dce919ae4" x="172.561606" y="19.962194" style="fill: #4c72b0; stroke: #4c72b0"/>
     <use xlink:href="#m1dce919ae4" x="172.561606" y="19.962194" style="fill: #4c72b0; stroke: #4c72b0"/>
    </g>
   </g>
   <g id="line2d_26">
    <g clip-path="url(#pe6f9312239)">
     <use xlink:href="#ma62ad12ec4" x="117.528144" y="65.796923" style="fill: #4c72b0; stroke: #4c72b0"/>
     <use xlink:href="#ma62ad12ec4" x="117.528144" y="65.796923" style="fill: #4c72b0; stroke: #4c72b0"/>
     <use xlink:href="#ma62ad12ec4" x="121.459105" y="60.852478" style="fill: #4c72b0; stroke: #4c72b0"/>
     <use xlink:href="#ma62ad12ec4" x="121.459105" y="60.852478" style="fill: #4c72b0; stroke: #4c72b0"/>
     <use xlink:href="#ma62ad12ec4" x="129.321029" y="22.765438" style="fill: #4c72b0; stroke: #4c72b0"/>
     <use xlink:href="#ma62ad12ec4" x="129.321029" y="22.765438" style="fill: #4c72b0; stroke: #4c72b0"/>
     <use xlink:href="#ma62ad12ec4" x="133.25199" y="24.362146" style="fill: #4c72b0; stroke: #4c72b0"/>
     <use xlink:href="#ma62ad12ec4" x="133.25199" y="24.362146" style="fill: #4c72b0; stroke: #4c72b0"/>
     <use xlink:href="#ma62ad12ec4" x="148.975837" y="18.886154" style="fill: #4c72b0; stroke: #4c72b0"/>
     <use xlink:href="#ma62ad12ec4" x="148.975837" y="18.886154" style="fill: #4c72b0; stroke: #4c72b0"/>
     <use xlink:href="#ma62ad12ec4" x="172.561606" y="22.049037" style="fill: #4c72b0; stroke: #4c72b0"/>
     <use xlink:href="#ma62ad12ec4" x="172.561606" y="22.049037" style="fill: #4c72b0; stroke: #4c72b0"/>
    </g>
   </g>
   <g id="patch_8">
    <path d="M 114.776471 70.488 
L 114.776471 9.504 
" style="fill: none; stroke: #262626; stroke-linejoin: miter; stroke-linecap: square"/>
   </g>
   <g id="patch_9">
    <path d="M 180.423529 70.488 
L 180.423529 9.504 
" style="fill: none; stroke: #262626; stroke-linejoin: miter; stroke-linecap: square"/>
   </g>
   <g id="patch_10">
    <path d="M 114.776471 70.488 
L 180.423529 70.488 
" style="fill: none; stroke: #262626; stroke-linejoin: miter; stroke-linecap: square"/>
   </g>
   <g id="patch_11">
    <path d="M 114.776471 9.504 
L 180.423529 9.504 
" style="fill: none; stroke: #262626; stroke-linejoin: miter; stroke-linecap: square"/>
   </g>
   <g id="text_20">
    <!-- E(6,0.523) -->
    <g style="fill: #262626" transform="translate(130.631349 65.796923)scale(0.07 -0.07)">
     <use xlink:href="#ArialMT-45"/>
     <use xlink:href="#ArialMT-28" x="66.699219"/>
     <use xlink:href="#ArialMT-36" x="100"/>
     <use xlink:href="#ArialMT-2c" x="155.615234"/>
     <use xlink:href="#ArialMT-30" x="183.398438"/>
     <use xlink:href="#ArialMT-2e" x="239.013672"/>
     <use xlink:href="#ArialMT-35" x="266.796875"/>
     <use xlink:href="#ArialMT-32" x="322.412109"/>
     <use xlink:href="#ArialMT-33" x="378.027344"/>
     <use xlink:href="#ArialMT-29" x="433.642578"/>
    </g>
   </g>
   <g id="text_21">
    <!-- $\gamma$(5.676,0.495) -->
    <g style="fill: #262626" transform="translate(130.631349 57.352985)scale(0.07 -0.07)">
     <use xlink:href="#DejaVuSans-Oblique-3b3" transform="translate(0 0.203125)"/>
     <use xlink:href="#ArialMT-28" transform="translate(59.179688 0.203125)"/>
     <use xlink:href="#ArialMT-35" transform="translate(92.480469 0.203125)"/>
     <use xlink:href="#ArialMT-2e" transform="translate(148.095703 0.203125)"/>
     <use xlink:href="#ArialMT-36" transform="translate(175.878906 0.203125)"/>
     <use xlink:href="#ArialMT-37" transform="translate(231.494141 0.203125)"/>
     <use xlink:href="#ArialMT-36" transform="translate(287.109375 0.203125)"/>
     <use xlink:href="#ArialMT-2c" transform="translate(342.724609 0.203125)"/>
     <use xlink:href="#ArialMT-30" transform="translate(370.507812 0.203125)"/>
     <use xlink:href="#ArialMT-2e" transform="translate(426.123047 0.203125)"/>
     <use xlink:href="#ArialMT-34" transform="translate(453.90625 0.203125)"/>
     <use xlink:href="#ArialMT-39" transform="translate(509.521484 0.203125)"/>
     <use xlink:href="#ArialMT-35" transform="translate(565.136719 0.203125)"/>
     <use xlink:href="#ArialMT-29" transform="translate(620.751953 0.203125)"/>
    </g>
   </g>
   <g id="text_22">
    <!-- Timm22 -->
    <g style="fill: #262626" transform="translate(117.528144 23.577231)scale(0.08 -0.08)">
     <defs>
      <path id="Arial-ItalicMT-54" d="M 1453 0 
L 2300 4059 
L 797 4059 
L 906 4581 
L 4513 4581 
L 4403 4059 
L 2913 4059 
L 2066 0 
L 1453 0 
z
" transform="scale(0.015625)"/>
      <path id="Arial-ItalicMT-69" d="M 1016 3941 
L 1150 4581 
L 1713 4581 
L 1578 3941 
L 1016 3941 
z
M 191 0 
L 884 3319 
L 1450 3319 
L 756 0 
L 191 0 
z
" transform="scale(0.015625)"/>
      <path id="Arial-ItalicMT-6d" d="M 209 0 
L 903 3319 
L 1469 3319 
L 1353 2772 
Q 1669 3125 1917 3259 
Q 2166 3394 2456 3394 
Q 2766 3394 2973 3230 
Q 3181 3066 3247 2772 
Q 3500 3084 3779 3239 
Q 4059 3394 4369 3394 
Q 4784 3394 4992 3197 
Q 5200 3000 5200 2644 
Q 5200 2491 5128 2138 
L 4681 0 
L 4116 0 
L 4572 2194 
Q 4631 2463 4631 2578 
Q 4631 2741 4528 2834 
Q 4425 2928 4238 2928 
Q 3984 2928 3721 2775 
Q 3459 2622 3314 2373 
Q 3169 2125 3059 1609 
L 2722 0 
L 2156 0 
L 2625 2241 
Q 2675 2469 2675 2566 
Q 2675 2728 2573 2828 
Q 2472 2928 2309 2928 
Q 2069 2928 1805 2775 
Q 1541 2622 1375 2348 
Q 1209 2075 1103 1569 
L 775 0 
L 209 0 
z
" transform="scale(0.015625)"/>
     </defs>
     <use xlink:href="#Arial-ItalicMT-54"/>
     <use xlink:href="#Arial-ItalicMT-69" x="60.208984"/>
     <use xlink:href="#Arial-ItalicMT-6d" x="82.425781"/>
     <use xlink:href="#Arial-ItalicMT-6d" x="165.726562"/>
     <use xlink:href="#Arial-ItalicMT-32" x="249.027344"/>
     <use xlink:href="#Arial-ItalicMT-32" x="304.642578"/>
    </g>
   </g>
  </g>
  <g id="axes_3">
   <g id="patch_12">
    <path d="M 193.552941 70.488 
L 259.2 70.488 
L 259.2 9.504 
L 193.552941 9.504 
L 193.552941 70.488 
z
" style="fill: none"/>
   </g>
   <g id="matplotlib.axis_5">
    <g id="xtick_11">
     <g id="line2d_27">
      <g>
       <use xlink:href="#m7b4b5a7e0a" x="196.304614" y="70.488" style="fill: #262626; stroke: #262626; stroke-width: 0.8"/>
      </g>
     </g>
     <g id="text_23">
      <!-- 0 -->
      <g style="fill: #262626" transform="translate(194.080239 82.21425)scale(0.08 -0.08)">
       <use xlink:href="#ArialMT-30"/>
      </g>
     </g>
    </g>
    <g id="xtick_12">
     <g id="line2d_28">
      <g>
       <use xlink:href="#m7b4b5a7e0a" x="212.028461" y="70.488" style="fill: #262626; stroke: #262626; stroke-width: 0.8"/>
      </g>
     </g>
     <g id="text_24">
      <!-- 24 -->
      <g style="fill: #262626" transform="translate(207.579711 82.21425)scale(0.08 -0.08)">
       <use xlink:href="#ArialMT-32"/>
       <use xlink:href="#ArialMT-34" x="55.615234"/>
      </g>
     </g>
    </g>
    <g id="xtick_13">
     <g id="line2d_29">
      <g>
       <use xlink:href="#m7b4b5a7e0a" x="227.752307" y="70.488" style="fill: #262626; stroke: #262626; stroke-width: 0.8"/>
      </g>
     </g>
     <g id="text_25">
      <!-- 48 -->
      <g style="fill: #262626" transform="translate(223.303557 82.21425)scale(0.08 -0.08)">
       <use xlink:href="#ArialMT-34"/>
       <use xlink:href="#ArialMT-38" x="55.615234"/>
      </g>
     </g>
    </g>
    <g id="xtick_14">
     <g id="line2d_30">
      <g>
       <use xlink:href="#m7b4b5a7e0a" x="243.476154" y="70.488" style="fill: #262626; stroke: #262626; stroke-width: 0.8"/>
      </g>
     </g>
     <g id="text_26">
      <!-- 72 -->
      <g style="fill: #262626" transform="translate(239.027404 82.21425)scale(0.08 -0.08)">
       <use xlink:href="#ArialMT-37"/>
       <use xlink:href="#ArialMT-32" x="55.615234"/>
      </g>
     </g>
    </g>
    <g id="xtick_15">
     <g id="line2d_31">
      <g>
       <use xlink:href="#m7b4b5a7e0a" x="259.2" y="70.488" style="fill: #262626; stroke: #262626; stroke-width: 0.8"/>
      </g>
     </g>
     <g id="text_27">
      <!-- 96 -->
      <g style="fill: #262626" transform="translate(254.75125 82.21425)scale(0.08 -0.08)">
       <use xlink:href="#ArialMT-39"/>
       <use xlink:href="#ArialMT-36" x="55.615234"/>
      </g>
     </g>
    </g>
    <g id="text_28">
     <!-- time (h) -->
     <g style="fill: #262626" transform="translate(211.126392 94.355969)scale(0.09 -0.09)">
      <use xlink:href="#ArialMT-74"/>
      <use xlink:href="#ArialMT-69" x="27.783203"/>
      <use xlink:href="#ArialMT-6d" x="50"/>
      <use xlink:href="#ArialMT-65" x="133.300781"/>
      <use xlink:href="#ArialMT-20" x="188.916016"/>
      <use xlink:href="#ArialMT-28" x="216.699219"/>
      <use xlink:href="#ArialMT-68" x="250"/>
      <use xlink:href="#ArialMT-29" x="305.615234"/>
     </g>
    </g>
   </g>
   <g id="matplotlib.axis_6">
    <g id="ytick_7">
     <g id="line2d_32">
      <g>
       <use xlink:href="#mdadd93878e" x="193.552941" y="65.796923" style="fill: #262626; stroke: #262626; stroke-width: 0.8"/>
      </g>
     </g>
    </g>
    <g id="ytick_8">
     <g id="line2d_33">
      <g>
       <use xlink:href="#mdadd93878e" x="193.552941" y="42.341538" style="fill: #262626; stroke: #262626; stroke-width: 0.8"/>
      </g>
     </g>
    </g>
    <g id="ytick_9">
     <g id="line2d_34">
      <g>
       <use xlink:href="#mdadd93878e" x="193.552941" y="18.886154" style="fill: #262626; stroke: #262626; stroke-width: 0.8"/>
      </g>
     </g>
    </g>
   </g>
   <g id="line2d_35">
    <path d="M 196.304614 65.796923 
L 196.860508 65.795063 
L 197.416401 65.747826 
L 197.972295 65.506539 
L 198.528189 64.863771 
L 199.084082 63.645974 
L 199.639976 61.771562 
L 200.195869 59.262135 
L 200.751763 56.222264 
L 201.307656 52.806412 
L 201.86355 49.186243 
L 202.419443 45.525135 
L 202.975337 41.961919 
L 203.531231 38.60308 
L 204.087124 35.521401 
L 204.643018 32.758823 
L 205.198911 30.331585 
L 205.754805 28.23616 
L 206.310698 26.455044 
L 206.866592 24.96183 
L 207.422486 23.725338 
L 207.978379 22.712739 
L 208.534273 21.891786 
L 209.090166 21.232258 
L 209.64606 20.706816 
L 210.201953 20.291388 
L 210.757847 19.965241 
L 211.31374 19.710844 
L 211.869634 19.513603 
L 212.425528 19.361527 
L 212.981421 19.244881 
L 213.537315 19.155845 
L 214.093208 19.08819 
L 214.649102 19.037001 
L 215.204995 18.998424 
L 215.760889 18.96946 
L 216.316782 18.947792 
L 216.872676 18.931636 
L 217.42857 18.919628 
L 217.984463 18.910729 
L 218.540357 18.904153 
L 219.09625 18.899307 
L 219.652144 18.895745 
L 220.208037 18.893134 
L 220.763931 18.891223 
L 221.319825 18.889828 
L 221.875718 18.888813 
L 222.431612 18.888074 
L 222.987505 18.887539 
L 223.543399 18.887151 
L 224.099292 18.886871 
L 224.655186 18.886668 
L 225.211079 18.886523 
L 225.766973 18.886418 
L 226.322867 18.886342 
L 226.87876 18.886288 
L 227.434654 18.88625 
L 227.990547 18.886222 
L 228.546441 18.886202 
L 229.102334 18.886188 
L 229.658228 18.886178 
L 230.214121 18.886171 
L 230.770015 18.886166 
L 231.325909 18.886163 
L 231.881802 18.88616 
L 232.437696 18.886158 
L 232.993589 18.886157 
L 233.549483 18.886156 
L 234.105376 18.886155 
L 234.66127 18.886155 
L 235.217164 18.886155 
L 235.773057 18.886154 
L 236.328951 18.886154 
L 236.884844 18.886154 
L 237.440738 18.886154 
L 237.996631 18.886154 
L 238.552525 18.886154 
L 239.108418 18.886154 
L 239.664312 18.886154 
L 240.220206 18.886154 
L 240.776099 18.886154 
L 241.331993 18.886154 
L 241.887886 18.886154 
L 242.44378 18.886154 
L 242.999673 18.886154 
L 243.555567 18.886154 
L 244.111461 18.886154 
L 244.667354 18.886154 
L 245.223248 18.886154 
L 245.779141 18.886154 
L 246.335035 18.886154 
L 246.890928 18.886154 
L 247.446822 18.886154 
L 248.002715 18.886154 
L 248.558609 18.886154 
L 249.114503 18.886154 
L 249.670396 18.886154 
L 250.22629 18.886154 
L 250.782183 18.886154 
L 251.338077 18.886154 
" clip-path="url(#p1e1aba8938)" style="fill: none; stroke: #000000; stroke-width: 3.5; stroke-linecap: round"/>
   </g>
   <g id="line2d_36">
    <path d="M 196.304614 65.796923 
L 196.860508 65.794249 
L 197.416401 65.734988 
L 197.972295 65.455368 
L 198.528189 64.74775 
L 199.084082 63.453695 
L 199.639976 61.511735 
L 200.195869 58.959492 
L 200.751763 55.909299 
L 201.307656 52.515231 
L 201.86355 48.942754 
L 202.419443 45.346162 
L 202.975337 41.854811 
L 203.531231 38.566972 
L 204.087124 35.549321 
L 204.643018 32.839988 
L 205.198911 30.453465 
L 205.754805 28.386108 
L 206.310698 26.621434 
L 206.866592 25.134729 
L 207.422486 23.896803 
L 207.978379 22.876842 
L 208.534273 22.044449 
L 209.090166 21.370998 
L 209.64606 20.830439 
L 210.201953 20.399688 
L 210.757847 20.058722 
L 211.31374 19.790486 
L 211.869634 19.580667 
L 212.425528 19.41741 
L 212.981421 19.291009 
L 213.537315 19.193592 
L 214.093208 19.118836 
L 214.649102 19.061701 
L 215.204995 19.018198 
L 215.760889 18.985194 
L 216.316782 18.960238 
L 216.872676 18.941428 
L 217.42857 18.927293 
L 217.984463 18.916701 
L 218.540357 18.908786 
L 219.09625 18.902886 
L 219.652144 18.898499 
L 220.208037 18.895244 
L 220.763931 18.892835 
L 221.319825 18.891056 
L 221.875718 18.889744 
L 222.431612 18.888779 
L 222.987505 18.88807 
L 223.543399 18.887551 
L 224.099292 18.887171 
L 224.655186 18.886893 
L 225.211079 18.88669 
L 225.766973 18.886543 
L 226.322867 18.886435 
L 226.87876 18.886357 
L 227.434654 18.886301 
L 227.990547 18.88626 
L 228.546441 18.88623 
L 229.102334 18.886209 
L 229.658228 18.886193 
L 230.214121 18.886182 
L 230.770015 18.886174 
L 231.325909 18.886168 
L 231.881802 18.886164 
L 232.437696 18.886161 
L 232.993589 18.886159 
L 233.549483 18.886158 
L 234.105376 18.886157 
L 234.66127 18.886156 
L 235.217164 18.886155 
L 235.773057 18.886155 
L 236.328951 18.886155 
L 236.884844 18.886154 
L 237.440738 18.886154 
L 237.996631 18.886154 
L 238.552525 18.886154 
L 239.108418 18.886154 
L 239.664312 18.886154 
L 240.220206 18.886154 
L 240.776099 18.886154 
L 241.331993 18.886154 
L 241.887886 18.886154 
L 242.44378 18.886154 
L 242.999673 18.886154 
L 243.555567 18.886154 
L 244.111461 18.886154 
L 244.667354 18.886154 
L 245.223248 18.886154 
L 245.779141 18.886154 
L 246.335035 18.886154 
L 246.890928 18.886154 
L 247.446822 18.886154 
L 248.002715 18.886154 
L 248.558609 18.886154 
L 249.114503 18.886154 
L 249.670396 18.886154 
L 250.22629 18.886154 
L 250.782183 18.886154 
L 251.338077 18.886154 
" clip-path="url(#p1e1aba8938)" style="fill: none; stroke-dasharray: 4.44,1.92; stroke-dashoffset: 0; stroke: #d3d3d3; stroke-width: 1.2"/>
   </g>
   <g id="LineCollection_3">
    <path d="M 196.304614 68.381217 
L 196.304614 63.212629 
" clip-path="url(#p1e1aba8938)" style="fill: none; stroke: #4c72b0"/>
    <path d="M 196.304614 68.381217 
L 196.304614 63.212629 
" clip-path="url(#p1e1aba8938)" style="fill: none; stroke: #4c72b0"/>
    <path d="M 200.235576 66.01102 
L 200.235576 52.070998 
" clip-path="url(#p1e1aba8938)" style="fill: none; stroke: #4c72b0"/>
    <path d="M 200.235576 66.01102 
L 200.235576 52.070998 
" clip-path="url(#p1e1aba8938)" style="fill: none; stroke: #4c72b0"/>
    <path d="M 208.097499 30.211637 
L 208.097499 15.13151 
" clip-path="url(#p1e1aba8938)" style="fill: none; stroke: #4c72b0"/>
    <path d="M 208.097499 30.211637 
L 208.097499 15.13151 
" clip-path="url(#p1e1aba8938)" style="fill: none; stroke: #4c72b0"/>
    <path d="M 212.028461 26.949946 
L 212.028461 10.822362 
" clip-path="url(#p1e1aba8938)" style="fill: none; stroke: #4c72b0"/>
    <path d="M 212.028461 26.949946 
L 212.028461 10.822362 
" clip-path="url(#p1e1aba8938)" style="fill: none; stroke: #4c72b0"/>
    <path d="M 227.752307 26.410123 
L 227.752307 16.220313 
" clip-path="url(#p1e1aba8938)" style="fill: none; stroke: #4c72b0"/>
    <path d="M 227.752307 26.410123 
L 227.752307 16.220313 
" clip-path="url(#p1e1aba8938)" style="fill: none; stroke: #4c72b0"/>
    <path d="M 251.338077 19.766508 
L 251.338077 18.133243 
" clip-path="url(#p1e1aba8938)" style="fill: none; stroke: #4c72b0"/>
    <path d="M 251.338077 19.766508 
L 251.338077 18.133243 
" clip-path="url(#p1e1aba8938)" style="fill: none; stroke: #4c72b0"/>
   </g>
   <g id="line2d_37">
    <g clip-path="url(#p1e1aba8938)">
     <use xlink:href="#m1dce919ae4" x="196.304614" y="68.381217" style="fill: #4c72b0; stroke: #4c72b0"/>
     <use xlink:href="#m1dce919ae4" x="196.304614" y="68.381217" style="fill: #4c72b0; stroke: #4c72b0"/>
     <use xlink:href="#m1dce919ae4" x="200.235576" y="66.01102" style="fill: #4c72b0; stroke: #4c72b0"/>
     <use xlink:href="#m1dce919ae4" x="200.235576" y="66.01102" style="fill: #4c72b0; stroke: #4c72b0"/>
     <use xlink:href="#m1dce919ae4" x="208.097499" y="30.211637" style="fill: #4c72b0; stroke: #4c72b0"/>
     <use xlink:href="#m1dce919ae4" x="208.097499" y="30.211637" style="fill: #4c72b0; stroke: #4c72b0"/>
     <use xlink:href="#m1dce919ae4" x="212.028461" y="26.949946" style="fill: #4c72b0; stroke: #4c72b0"/>
     <use xlink:href="#m1dce919ae4" x="212.028461" y="26.949946" style="fill: #4c72b0; stroke: #4c72b0"/>
     <use xlink:href="#m1dce919ae4" x="227.752307" y="26.410123" style="fill: #4c72b0; stroke: #4c72b0"/>
     <use xlink:href="#m1dce919ae4" x="227.752307" y="26.410123" style="fill: #4c72b0; stroke: #4c72b0"/>
     <use xlink:href="#m1dce919ae4" x="251.338077" y="19.766508" style="fill: #4c72b0; stroke: #4c72b0"/>
     <use xlink:href="#m1dce919ae4" x="251.338077" y="19.766508" style="fill: #4c72b0; stroke: #4c72b0"/>
    </g>
   </g>
   <g id="line2d_38">
    <g clip-path="url(#p1e1aba8938)">
     <use xlink:href="#m1dce919ae4" x="196.304614" y="63.212629" style="fill: #4c72b0; stroke: #4c72b0"/>
     <use xlink:href="#m1dce919ae4" x="196.304614" y="63.212629" style="fill: #4c72b0; stroke: #4c72b0"/>
     <use xlink:href="#m1dce919ae4" x="200.235576" y="52.070998" style="fill: #4c72b0; stroke: #4c72b0"/>
     <use xlink:href="#m1dce919ae4" x="200.235576" y="52.070998" style="fill: #4c72b0; stroke: #4c72b0"/>
     <use xlink:href="#m1dce919ae4" x="208.097499" y="15.13151" style="fill: #4c72b0; stroke: #4c72b0"/>
     <use xlink:href="#m1dce919ae4" x="208.097499" y="15.13151" style="fill: #4c72b0; stroke: #4c72b0"/>
     <use xlink:href="#m1dce919ae4" x="212.028461" y="10.822362" style="fill: #4c72b0; stroke: #4c72b0"/>
     <use xlink:href="#m1dce919ae4" x="212.028461" y="10.822362" style="fill: #4c72b0; stroke: #4c72b0"/>
     <use xlink:href="#m1dce919ae4" x="227.752307" y="16.220313" style="fill: #4c72b0; stroke: #4c72b0"/>
     <use xlink:href="#m1dce919ae4" x="227.752307" y="16.220313" style="fill: #4c72b0; stroke: #4c72b0"/>
     <use xlink:href="#m1dce919ae4" x="251.338077" y="18.133243" style="fill: #4c72b0; stroke: #4c72b0"/>
     <use xlink:href="#m1dce919ae4" x="251.338077" y="18.133243" style="fill: #4c72b0; stroke: #4c72b0"/>
    </g>
   </g>
   <g id="line2d_39">
    <g clip-path="url(#p1e1aba8938)">
     <use xlink:href="#ma62ad12ec4" x="196.304614" y="65.796923" style="fill: #4c72b0; stroke: #4c72b0"/>
     <use xlink:href="#ma62ad12ec4" x="196.304614" y="65.796923" style="fill: #4c72b0; stroke: #4c72b0"/>
     <use xlink:href="#ma62ad12ec4" x="200.235576" y="59.041009" style="fill: #4c72b0; stroke: #4c72b0"/>
     <use xlink:href="#ma62ad12ec4" x="200.235576" y="59.041009" style="fill: #4c72b0; stroke: #4c72b0"/>
     <use xlink:href="#ma62ad12ec4" x="208.097499" y="22.671574" style="fill: #4c72b0; stroke: #4c72b0"/>
     <use xlink:href="#ma62ad12ec4" x="208.097499" y="22.671574" style="fill: #4c72b0; stroke: #4c72b0"/>
     <use xlink:href="#ma62ad12ec4" x="212.028461" y="18.886154" style="fill: #4c72b0; stroke: #4c72b0"/>
     <use xlink:href="#ma62ad12ec4" x="212.028461" y="18.886154" style="fill: #4c72b0; stroke: #4c72b0"/>
     <use xlink:href="#ma62ad12ec4" x="227.752307" y="21.315218" style="fill: #4c72b0; stroke: #4c72b0"/>
     <use xlink:href="#ma62ad12ec4" x="227.752307" y="21.315218" style="fill: #4c72b0; stroke: #4c72b0"/>
     <use xlink:href="#ma62ad12ec4" x="251.338077" y="18.949876" style="fill: #4c72b0; stroke: #4c72b0"/>
     <use xlink:href="#ma62ad12ec4" x="251.338077" y="18.949876" style="fill: #4c72b0; stroke: #4c72b0"/>
    </g>
   </g>
   <g id="patch_13">
    <path d="M 193.552941 70.488 
L 193.552941 9.504 
" style="fill: none; stroke: #262626; stroke-linejoin: miter; stroke-linecap: square"/>
   </g>
   <g id="patch_14">
    <path d="M 259.2 70.488 
L 259.2 9.504 
" style="fill: none; stroke: #262626; stroke-linejoin: miter; stroke-linecap: square"/>
   </g>
   <g id="patch_15">
    <path d="M 193.552941 70.488 
L 259.2 70.488 
" style="fill: none; stroke: #262626; stroke-linejoin: miter; stroke-linecap: square"/>
   </g>
   <g id="patch_16">
    <path d="M 193.552941 9.504 
L 259.2 9.504 
" style="fill: none; stroke: #262626; stroke-linejoin: miter; stroke-linecap: square"/>
   </g>
   <g id="text_29">
    <!-- E(5,0.464) -->
    <g style="fill: #262626" transform="translate(209.40782 65.796923)scale(0.07 -0.07)">
     <use xlink:href="#ArialMT-45"/>
     <use xlink:href="#ArialMT-28" x="66.699219"/>
     <use xlink:href="#ArialMT-35" x="100"/>
     <use xlink:href="#ArialMT-2c" x="155.615234"/>
     <use xlink:href="#ArialMT-30" x="183.398438"/>
     <use xlink:href="#ArialMT-2e" x="239.013672"/>
     <use xlink:href="#ArialMT-34" x="266.796875"/>
     <use xlink:href="#ArialMT-36" x="322.412109"/>
     <use xlink:href="#ArialMT-34" x="378.027344"/>
     <use xlink:href="#ArialMT-29" x="433.642578"/>
    </g>
   </g>
   <g id="text_30">
    <!-- $\gamma$(5.212,0.484) -->
    <g style="fill: #262626" transform="translate(209.40782 57.352985)scale(0.07 -0.07)">
     <use xlink:href="#DejaVuSans-Oblique-3b3" transform="translate(0 0.203125)"/>
     <use xlink:href="#ArialMT-28" transform="translate(59.179688 0.203125)"/>
     <use xlink:href="#ArialMT-35" transform="translate(92.480469 0.203125)"/>
     <use xlink:href="#ArialMT-2e" transform="translate(148.095703 0.203125)"/>
     <use xlink:href="#ArialMT-32" transform="translate(175.878906 0.203125)"/>
     <use xlink:href="#ArialMT-31" transform="translate(231.494141 0.203125)"/>
     <use xlink:href="#ArialMT-32" transform="translate(287.109375 0.203125)"/>
     <use xlink:href="#ArialMT-2c" transform="translate(342.724609 0.203125)"/>
     <use xlink:href="#ArialMT-30" transform="translate(370.507812 0.203125)"/>
     <use xlink:href="#ArialMT-2e" transform="translate(426.123047 0.203125)"/>
     <use xlink:href="#ArialMT-34" transform="translate(453.90625 0.203125)"/>
     <use xlink:href="#ArialMT-38" transform="translate(509.521484 0.203125)"/>
     <use xlink:href="#ArialMT-34" transform="translate(565.136719 0.203125)"/>
     <use xlink:href="#ArialMT-29" transform="translate(620.751953 0.203125)"/>
    </g>
   </g>
   <g id="text_31">
    <!-- Rsrc1 -->
    <g style="fill: #262626" transform="translate(196.304614 23.577231)scale(0.08 -0.08)">
     <defs>
      <path id="Arial-ItalicMT-52" d="M 300 0 
L 1259 4581 
L 3181 4581 
Q 3750 4581 4044 4486 
Q 4338 4391 4505 4128 
Q 4672 3866 4672 3466 
Q 4672 2906 4306 2537 
Q 3941 2169 3125 2059 
Q 3375 1875 3503 1697 
Q 3791 1294 3966 863 
L 4316 0 
L 3631 0 
L 3303 853 
Q 3125 1316 2897 1653 
Q 2741 1888 2578 1961 
Q 2416 2034 2050 2034 
L 1338 2034 
L 913 0 
L 300 0 
z
M 1441 2531 
L 2288 2531 
Q 2875 2531 3053 2547 
Q 3400 2581 3622 2703 
Q 3844 2825 3966 3031 
Q 4088 3238 4088 3475 
Q 4088 3675 3997 3823 
Q 3906 3972 3759 4025 
Q 3613 4078 3259 4078 
L 1766 4078 
L 1441 2531 
z
" transform="scale(0.015625)"/>
      <path id="Arial-ItalicMT-73" d="M 266 1134 
L 831 1169 
Q 831 925 906 753 
Q 981 581 1182 472 
Q 1384 363 1653 363 
Q 2028 363 2215 513 
Q 2403 663 2403 866 
Q 2403 1013 2291 1144 
Q 2175 1275 1726 1467 
Q 1278 1659 1153 1738 
Q 944 1866 837 2039 
Q 731 2213 731 2438 
Q 731 2831 1043 3112 
Q 1356 3394 1919 3394 
Q 2544 3394 2870 3105 
Q 3197 2816 3209 2344 
L 2656 2306 
Q 2644 2606 2444 2781 
Q 2244 2956 1878 2956 
Q 1584 2956 1421 2822 
Q 1259 2688 1259 2531 
Q 1259 2375 1400 2256 
Q 1494 2175 1884 2006 
Q 2534 1725 2703 1563 
Q 2972 1303 2972 931 
Q 2972 684 2820 446 
Q 2669 209 2358 67 
Q 2047 -75 1625 -75 
Q 1050 -75 647 209 
Q 244 494 266 1134 
z
" transform="scale(0.015625)"/>
      <path id="Arial-ItalicMT-72" d="M 213 0 
L 906 3319 
L 1406 3319 
L 1266 2641 
Q 1522 3025 1767 3209 
Q 2013 3394 2269 3394 
Q 2438 3394 2684 3272 
L 2453 2747 
Q 2306 2853 2131 2853 
Q 1834 2853 1521 2522 
Q 1209 2191 1031 1331 
L 750 0 
L 213 0 
z
" transform="scale(0.015625)"/>
      <path id="Arial-ItalicMT-63" d="M 2503 1209 
L 3069 1150 
Q 2856 528 2464 226 
Q 2072 -75 1572 -75 
Q 1031 -75 695 275 
Q 359 625 359 1253 
Q 359 1797 575 2322 
Q 791 2847 1192 3120 
Q 1594 3394 2109 3394 
Q 2644 3394 2956 3092 
Q 3269 2791 3269 2294 
L 2713 2256 
Q 2709 2572 2529 2750 
Q 2350 2928 2056 2928 
Q 1716 2928 1466 2712 
Q 1216 2497 1073 2058 
Q 931 1619 931 1213 
Q 931 788 1118 575 
Q 1306 363 1581 363 
Q 1856 363 2107 572 
Q 2359 781 2503 1209 
z
" transform="scale(0.015625)"/>
      <path id="Arial-ItalicMT-31" d="M 1541 0 
L 2266 3459 
Q 1797 3091 947 2869 
L 1053 3381 
Q 1475 3550 1886 3822 
Q 2297 4094 2503 4297 
Q 2628 4422 2741 4600 
L 3069 4600 
L 2109 0 
L 1541 0 
z
" transform="scale(0.015625)"/>
     </defs>
     <use xlink:href="#Arial-ItalicMT-52"/>
     <use xlink:href="#Arial-ItalicMT-73" x="72.216797"/>
     <use xlink:href="#Arial-ItalicMT-72" x="122.216797"/>
     <use xlink:href="#Arial-ItalicMT-63" x="155.517578"/>
     <use xlink:href="#Arial-ItalicMT-31" x="205.517578"/>
    </g>
   </g>
  </g>
 </g>
 <defs>
  <clipPath id="pbea43e8723">
   <rect x="36" y="9.504" width="65.647059" height="60.984"/>
  </clipPath>
  <clipPath id="pe6f9312239">
   <rect x="114.776471" y="9.504" width="65.647059" height="60.984"/>
  </clipPath>
  <clipPath id="p1e1aba8938">
   <rect x="193.552941" y="9.504" width="65.647059" height="60.984"/>
  </clipPath>
 </defs>
</svg>
